<svg width="53" height="49" viewBox="0 0 53 49" fill="none" xmlns="http://www.w3.org/2000/svg">
<g clip-path="url(#clip0_1427_3652)">
<mask id="mask0_1427_3652" style="mask-type:alpha" maskUnits="userSpaceOnUse" x="0" y="0" width="53" height="49">
<path fill-rule="evenodd" clip-rule="evenodd" d="M0 0.03125H52.7874V48.7657H0V0.03125Z" fill="black"/>
</mask>
<g mask="url(#mask0_1427_3652)">
<path fill-rule="evenodd" clip-rule="evenodd" d="M39.4235 46.3274C33.3943 46.3274 28.489 41.4055 28.489 35.3558C28.489 29.3065 33.3943 24.3847 39.4235 24.3847C45.4528 24.3847 50.3579 29.3065 50.3579 35.3558C50.3579 41.4055 45.4528 46.3274 39.4235 46.3274ZM2.51369 40.5549V16.1737H40.3866V21.9815C40.0684 21.9586 39.7474 21.9464 39.4235 21.9464C32.0546 21.9464 26.0596 27.9618 26.0596 35.3558C26.0596 37.1983 26.432 38.9553 27.105 40.5549H2.51369ZM2.51369 7.51406H8.37887V9.86815C8.37887 10.5646 8.94161 11.1292 9.63572 11.1292C10.3298 11.1292 10.8926 10.5646 10.8926 9.86815V7.51406H18.4336V9.86815C18.4336 10.5646 18.9964 11.1292 19.6905 11.1292C20.3846 11.1292 20.9473 10.5646 20.9473 9.86815V7.51406H28.4884V9.86815C28.4884 10.5646 29.0511 11.1292 29.7452 11.1292C30.4393 11.1292 31.0021 10.5646 31.0021 9.86815V7.51406H40.3866V13.6515H2.51369V7.51406ZM10.8926 3.73121C10.8926 3.08207 11.4189 2.55391 12.0659 2.55391H12.2331C12.8801 2.55391 13.4063 3.08207 13.4063 3.73121V4.99182H10.8926V3.73121ZM20.9473 3.7307C20.9473 3.08156 21.4737 2.55349 22.1206 2.55349H22.2878C22.9348 2.55349 23.4611 3.08156 23.4611 3.7307V4.99182H20.9473V3.7307ZM31.0021 3.7307C31.0021 3.08156 31.5283 2.55349 32.1754 2.55349H32.3425C32.9896 2.55349 33.5158 3.08156 33.5158 3.7307V4.99182H31.0021V3.7307ZM42.9003 22.4076V6.25294C42.9003 5.55647 42.3375 4.99182 41.6434 4.99182H36.0295V3.7307C36.0295 1.6908 34.3756 0.03125 32.3425 0.03125H32.1754C30.1423 0.03125 28.4884 1.6908 28.4884 3.7307V4.99182H25.9748V3.7307C25.9748 1.6908 24.3209 0.03125 22.2878 0.03125H22.1206C20.0876 0.03125 18.4336 1.6908 18.4336 3.7307V4.99182H15.9199V3.73121C15.9199 1.6913 14.266 0.0316704 12.233 0.0316704H12.0658C10.0328 0.0316704 8.37879 1.6913 8.37879 3.73121V4.99182H1.25684C0.562731 4.99182 0 5.55647 0 6.25294V41.816C0 42.5125 0.562731 43.0771 1.25684 43.0771H28.5034C30.9253 46.5158 34.9174 48.7657 39.4235 48.7657C46.7924 48.7657 52.7874 42.7498 52.7874 35.3558C52.7874 29.1683 48.5887 23.947 42.9003 22.4076Z" fill="black"/>
</g>
<path fill-rule="evenodd" clip-rule="evenodd" d="M39.2156 34.0545C38.5484 34.0545 38.0056 33.5084 38.0056 32.8372C38.0056 32.1661 38.5484 31.6196 39.2156 31.6196C39.6444 31.6196 40.097 31.8398 40.5243 32.256C41.0047 32.7236 41.7707 32.7107 42.2356 32.2279C42.7003 31.7446 42.6876 30.9741 42.2076 30.5064C41.5934 29.9085 40.9787 29.5703 40.4255 29.3858V27.9678C40.4255 27.2952 39.8836 26.75 39.2156 26.75C38.5475 26.75 38.0056 27.2952 38.0056 27.9678V29.3944C36.5971 29.8967 35.5851 31.25 35.5851 32.8372C35.5851 34.8508 37.2136 36.4895 39.2156 36.4895C39.8827 36.4895 40.4255 37.0356 40.4255 37.7068C40.4255 38.378 39.8827 38.924 39.2156 38.924C38.6988 38.924 38.1404 38.5972 37.6444 38.0031C37.2141 37.4884 36.4509 37.4222 35.9393 37.8547C35.4277 38.2875 35.3615 39.0553 35.7918 39.57C36.4387 40.3439 37.1994 40.8833 38.0056 41.1554V42.5762C38.0056 43.2489 38.5475 43.7935 39.2156 43.7935C39.8836 43.7935 40.4255 43.2489 40.4255 42.5762V41.1497C41.8341 40.6469 42.846 39.2936 42.846 37.7068C42.846 35.6927 41.2176 34.0545 39.2156 34.0545Z" fill="black"/>
</g>
<defs>
<clipPath id="clip0_1427_3652">
<rect width="53" height="49" fill="white"/>
</clipPath>
</defs>
</svg>
