<svg width="66" height="49" viewBox="0 0 66 49" fill="none" xmlns="http://www.w3.org/2000/svg">
<g clip-path="url(#clip0_1427_3659)">
<mask id="mask0_1427_3659" style="mask-type:alpha" maskUnits="userSpaceOnUse" x="0" y="0" width="66" height="49">
<path fill-rule="evenodd" clip-rule="evenodd" d="M0 0H65.1748V49H0V0Z" fill="black"/>
</mask>
<g mask="url(#mask0_1427_3659)">
<path fill-rule="evenodd" clip-rule="evenodd" d="M28.3186 46.7435H61.8082V44.5863H28.3186V46.7435ZM28.295 42.2801H30.4749V34.5697H28.295V42.2801ZM25.0641 14.8986C25.3002 15.2213 25.7661 15.4266 26.1703 15.562C26.4843 15.6673 26.8621 15.5833 27.2116 15.5833C27.5355 15.5835 27.8595 15.5833 28.2347 15.5833V16.6665H4.69529C4.83298 16.4406 4.92146 16.283 5.02155 16.133C7.26735 12.7751 9.50784 9.41351 11.7755 6.07004C11.9378 5.83071 12.2998 5.58093 12.5699 5.57996C20.5603 5.55406 28.5509 5.55907 36.5415 5.56032C36.6472 5.56032 36.7528 5.57801 37.0126 5.60112C36.6751 5.84463 36.4625 6.00502 36.2429 6.15539C32.7126 8.57284 29.1805 10.9875 25.6512 13.4063C24.9717 13.8721 24.7078 14.412 25.0641 14.8986ZM30.5564 17.7825H59.573V15.6278H30.5564V17.7825ZM39.503 42.2814H50.6035V25.6332H39.503V42.2814ZM57.3476 34.271C57.4044 36.6828 57.3623 39.0969 57.3623 41.5099V42.294H52.8734V41.5085C52.8734 35.9862 52.8737 30.4641 52.873 24.9418C52.8728 23.7435 52.5329 23.3968 51.3549 23.3965C47.1384 23.3954 42.9219 23.3951 38.7055 23.3968C37.6034 23.3972 37.2343 23.7607 37.234 24.8485C37.2323 30.3708 37.2332 35.8929 37.2332 41.4152V42.2851H32.7442V41.1856C32.7442 38.7957 32.7443 36.4059 32.7441 34.016C32.7441 32.5848 32.4799 32.32 31.0404 32.3068C30.9011 32.3055 30.7619 32.3066 30.5651 32.3066V20.0923H59.549V32.2675C59.4348 32.2841 59.3659 32.3076 59.2996 32.3019C57.7069 32.1639 57.3093 32.6377 57.3476 34.271ZM59.6284 42.3063H61.7902V34.5666H59.6284V42.3063ZM45.0897 2.79731C45.3926 2.58999 45.6116 2.45884 45.9973 2.74036C50.7472 6.2083 55.5153 9.65173 60.278 13.1025C60.3338 13.1429 60.3796 13.1968 60.5314 13.3399H29.7103C29.9577 13.1549 30.0927 13.0457 30.2359 12.948C35.1874 9.56471 40.1404 6.18379 45.0897 2.79731ZM64.5891 13.4952C64.4556 13.402 64.3259 13.3035 64.1941 13.2079C58.3763 8.99276 52.5572 4.77952 46.7419 0.560859C45.7321 -0.171768 45.5606 -0.186526 44.5248 0.515888C43.3702 1.29878 42.2039 2.06552 41.068 2.87444C40.5919 3.21333 40.1141 3.35882 39.5241 3.35785C30.3238 3.34225 21.1232 3.34949 11.9229 3.34086C11.3287 3.34044 10.8431 3.4386 10.4824 3.97993C7.57419 8.34617 4.65196 12.7034 1.73113 17.0611C1.4524 17.477 1.26886 17.9571 1.62294 18.342C1.88741 18.6294 2.33361 18.8465 2.72585 18.9001C3.38312 18.99 4.06178 18.9247 4.80279 18.9247V23.105C4.65517 23.8988 4.10987 23.9097 4.60848 24.2469C4.86261 24.4187 6.87469 23.3128 6.90461 23.5664C6.96206 23.5501 7.01952 23.5336 7.07683 23.5172V18.9743H28.2571V23.3961H27.4137C23.8451 23.3961 20.2764 23.3961 16.7077 23.3962C16.9297 23.603 17.1508 23.8107 17.3665 24.024C17.4502 24.1068 17.4772 24.2017 17.467 24.2909C18.0751 24.6455 18.6176 25.0544 18.9217 25.6619H19.6774C19.6161 25.2925 19.5497 24.922 19.4849 24.5483C19.4476 24.3328 19.5912 24.1787 19.756 24.1293C19.7542 24.0524 19.7542 23.9757 19.7521 23.899C19.7392 23.4501 20.4383 23.4519 20.451 23.899C20.4538 23.9989 20.4541 24.0992 20.456 24.1993C20.5807 23.9974 20.9084 23.9189 21.0556 24.1873C21.3066 24.6454 21.4608 25.1427 21.5455 25.6619H28.2369V32.2677C28.1226 32.2842 28.0537 32.3076 27.9874 32.3019C26.3934 32.1641 26.0141 32.6394 26.0345 34.271C26.0834 38.1684 26.0503 42.0667 26.0503 45.9647V46.7491H11.5547V43.8825C11.1734 43.8594 10.7921 43.8353 10.4098 43.832C10.2827 43.8308 10.1928 43.7739 10.1375 43.6938C10.0652 43.749 9.96775 43.7704 9.85089 43.7267C9.66036 43.6555 9.46843 43.5813 9.27595 43.5048V45.8371V46.7286H7.07683V42.4986C6.27586 42.0745 5.5027 41.5892 4.80294 41.0287C4.80294 43.1414 4.8028 45.254 4.80294 47.3667C4.80294 48.6954 5.10766 48.9984 6.44415 48.9985C25.1011 48.9986 43.7582 48.9985 62.4153 48.9985C62.5551 48.9985 62.695 49.0025 62.8345 48.9974C63.6177 48.9681 64.0248 48.563 64.0554 47.7837C64.0582 47.7142 64.0561 47.6446 64.0561 47.575C64.0561 42.9583 64.0575 38.3416 64.0551 33.7248C64.0546 32.6834 63.6751 32.3144 62.6195 32.3071C62.3718 32.3054 62.1241 32.3068 61.8644 32.3068V15.5831C62.5797 15.5831 63.2512 15.5768 63.9226 15.585C64.4999 15.5921 64.9254 15.3597 65.1111 14.8073C65.3009 14.242 65.0532 13.8189 64.5891 13.4952Z" fill="black"/>
<path fill-rule="evenodd" clip-rule="evenodd" d="M20.4596 25.6897H20.9328C20.839 25.3544 20.6865 25.0341 20.457 24.7383C20.4622 25.0554 20.4638 25.3725 20.4596 25.6897Z" fill="black"/>
<path fill-rule="evenodd" clip-rule="evenodd" d="M24.4191 27.5938C23.3836 27.589 22.3481 27.5896 21.3127 27.5905C21.2315 28.4019 21.0832 29.2104 20.9316 29.9677C22.0892 29.9682 23.2467 29.9694 24.4043 29.9676C25.2461 29.9664 25.6845 29.5523 25.6889 28.7887C25.6934 28.0233 25.2524 27.5977 24.4191 27.5938Z" fill="black"/>
<path fill-rule="evenodd" clip-rule="evenodd" d="M47.3477 35.6794C46.7047 35.6864 46.1536 35.1462 46.1466 34.502C46.1395 33.8586 46.6793 33.3079 47.3238 33.3009C47.9672 33.2936 48.518 33.8336 48.5251 34.4782C48.5321 35.1207 47.9915 35.6723 47.3477 35.6794Z" fill="black"/>
<path fill-rule="evenodd" clip-rule="evenodd" d="M10.7035 42.8867C2.02887 39.7096 2.16184 32.7651 2.2798 26.625C2.28536 26.3374 2.29078 26.0564 2.29509 25.7804C5.66861 25.5982 8.35228 24.587 10.7035 22.6119C13.0271 24.5602 15.7822 25.5984 19.1127 25.7802C19.1173 26.0596 19.1227 26.344 19.1282 26.6353C19.2459 32.7647 19.3788 39.7093 10.7035 42.8867ZM21.3806 26.5926L21.3801 26.5654C21.3676 25.9094 21.3558 25.2898 21.3558 24.6909C21.3558 24.074 20.8504 23.5721 20.2294 23.5721C16.5775 23.5721 13.8002 22.5321 11.4886 20.2996C11.0483 19.8742 10.3586 19.8739 9.91816 20.2996C7.60686 22.5321 4.82968 23.5721 1.17841 23.5721C0.557334 23.5721 0.0520003 24.074 0.0520003 24.6909C0.0520003 25.3035 0.0399123 25.93 0.0271296 26.5932C-0.0937503 32.8776 -0.259231 41.4847 10.3344 45.1324C10.4535 45.1732 10.5776 45.1941 10.7033 45.1941C10.8293 45.1941 10.9534 45.1732 11.0722 45.1324C21.667 41.4844 21.5015 32.8773 21.3806 26.5926Z" fill="black"/>
</g>
</g>
<defs>
<clipPath id="clip0_1427_3659">
<rect width="66" height="49" fill="white"/>
</clipPath>
</defs>
</svg>
