<svg width="70" height="49" viewBox="0 0 70 49" fill="none" xmlns="http://www.w3.org/2000/svg">
<g clip-path="url(#clip0_1427_3669)">
<mask id="mask0_1427_3669" style="mask-type:alpha" maskUnits="userSpaceOnUse" x="0" y="0" width="70" height="49">
<path fill-rule="evenodd" clip-rule="evenodd" d="M0 0H69.8511V49H0V0Z" fill="black"/>
</mask>
<g mask="url(#mask0_1427_3669)">
<path fill-rule="evenodd" clip-rule="evenodd" d="M33.2917 46.7435H66.7015V44.5863H33.2917V46.7435ZM33.2681 42.2801H35.4429V34.5697H33.2681V42.2801ZM30.0449 14.8986C30.2804 15.2213 30.7452 15.4265 31.1485 15.562C31.4618 15.6671 31.8387 15.5833 32.1873 15.5833C32.5104 15.5834 32.8337 15.5833 33.208 15.5833V16.6665H9.72462C9.86198 16.4405 9.95025 16.2829 10.0501 16.1331C12.2906 12.775 14.5257 9.41347 16.7879 6.07C16.9499 5.83066 17.311 5.58088 17.5805 5.57991C25.5519 5.55401 33.5234 5.55902 41.495 5.56028C41.6004 5.56028 41.7058 5.57796 41.9649 5.60107C41.6283 5.84458 41.4162 6.00498 41.1971 6.15535C37.6752 8.57279 34.1515 10.9875 30.6308 13.4063C29.9527 13.872 29.6894 14.412 30.0449 14.8986ZM35.5242 17.7823H64.4717V15.6277H35.5242V17.7823ZM44.4494 42.2815H55.5235V25.6333H44.4494V42.2815ZM62.2516 34.271C62.3082 36.6828 62.2662 39.0969 62.2662 41.51V42.294H57.788V41.5085C57.788 35.9863 57.7883 30.4641 57.7876 24.9418C57.7874 23.7436 57.4483 23.3967 56.2731 23.3965C52.0666 23.3954 47.8602 23.3951 43.6539 23.3967C42.5544 23.3972 42.1861 23.7607 42.1858 24.8485C42.1842 30.3708 42.185 35.8929 42.185 41.4152V42.2851H37.7067V41.1856C37.7067 38.7957 37.7069 36.4058 37.7066 34.016C37.7066 32.5848 37.443 32.32 36.0069 32.3068C35.868 32.3055 35.7292 32.3066 35.5328 32.3066V20.0923H64.4478V32.2675C64.3338 32.2842 64.265 32.3076 64.1989 32.3019C62.61 32.1639 62.2134 32.6379 62.2516 34.271ZM64.5269 42.3063H66.6835V34.5666H64.5269V42.3063ZM50.0228 2.79726C50.325 2.58994 50.5435 2.45879 50.9283 2.74031C55.6669 6.20825 60.4236 9.65169 65.1749 13.1024C65.2306 13.1429 65.2763 13.1969 65.4278 13.3399H34.6802C34.9269 13.1549 35.0616 13.0457 35.2044 12.948C40.1441 9.56467 45.0853 6.18375 50.0228 2.79726ZM69.4758 13.4951C69.3426 13.402 69.2132 13.3034 69.0819 13.2079C63.2778 8.99271 57.4725 4.77947 51.6711 0.560807C50.6637 -0.171821 50.4926 -0.186441 49.4593 0.515835C48.3074 1.29873 47.1441 2.0656 46.0107 2.87425C45.5358 3.21328 45.0591 3.35877 44.4705 3.3578C35.2921 3.3422 26.1134 3.34944 16.9351 3.34095C16.3424 3.34039 15.8578 3.43841 15.498 3.97988C12.5967 8.34613 9.6814 12.7032 6.76753 17.0611C6.48946 17.477 6.30635 17.957 6.65958 18.3419C6.92343 18.6294 7.36857 18.8464 7.75988 18.9C8.41558 18.99 9.09262 18.9247 9.83186 18.9247V20.8811C10.548 20.5928 11.3231 20.4383 12.1007 20.4183V18.9742H33.2303V23.3961H32.389C29.2719 23.3961 26.155 23.3962 23.038 23.3962C23.6263 24.1501 24.2246 24.8825 24.7454 25.6619H33.2102V32.2676C33.0961 32.2842 33.0275 32.3076 32.9613 32.3019C31.3712 32.1641 30.9926 32.6394 31.013 34.271C31.0618 38.1684 31.0288 42.0667 31.0288 45.9647V46.7491H16.5677V44.4696C15.8196 44.62 15.0586 44.6878 14.2944 44.6825V45.8371V46.7286H12.1007V44.4762C11.3338 44.3389 10.5742 44.1367 9.832 43.8798C9.832 45.0421 9.83186 46.2044 9.832 47.3667C9.832 48.6954 10.136 48.9984 11.4693 48.9985C30.0819 48.9986 48.6945 48.9985 67.3072 48.9985C67.4466 48.9985 67.5862 49.0025 67.7254 48.9974C68.5068 48.9681 68.9128 48.563 68.9434 47.7837C68.9462 47.7142 68.9441 47.6446 68.9441 47.575C68.9441 42.9583 68.9455 38.3416 68.9431 33.7248C68.9425 32.6834 68.5639 32.3144 67.5109 32.307C67.2638 32.3054 67.0167 32.3068 66.7576 32.3068V15.583C67.4712 15.583 68.1411 15.5769 68.8109 15.585C69.3868 15.5919 69.8113 15.3597 69.9965 14.8072C70.1859 14.242 69.9388 13.8188 69.4758 13.4951Z" fill="black"/>
<path fill-rule="evenodd" clip-rule="evenodd" d="M52.0352 35.6569C51.4151 35.6635 50.8838 35.1428 50.877 34.5216C50.8702 33.9012 51.3907 33.3702 52.0122 33.3634C52.6325 33.3564 53.1637 33.8771 53.1705 34.4987C53.1773 35.1182 52.656 35.6501 52.0352 35.6569Z" fill="black"/>
<path fill-rule="evenodd" clip-rule="evenodd" d="M0 31.9013C0.0683609 31.4038 0.120604 30.9034 0.209807 30.4098C0.292896 29.9496 0.398911 29.4919 0.524656 29.0414C0.684303 28.4696 1.25426 28.1628 1.81115 28.3208C2.35081 28.4741 2.65732 29.0225 2.53158 29.5918C2.3804 30.2764 2.23798 30.9628 2.08223 31.6929C2.44793 31.6929 2.74916 31.6917 3.05053 31.6931C3.70413 31.6964 4.17307 32.1355 4.17057 32.7402C4.16807 33.3429 3.69788 33.776 3.04081 33.7791C2.74708 33.7805 2.45335 33.7793 2.16115 33.7793C2.07334 35.3688 3.4261 38.6421 4.72329 39.937C4.9274 39.7144 5.12373 39.4838 5.33771 39.2704C5.78539 38.8234 6.43384 38.805 6.85207 39.2166C7.27043 39.6286 7.26112 40.2812 6.82108 40.7318C6.60961 40.9486 6.38257 41.15 6.13678 41.3829C7.95126 42.8758 9.98235 43.7112 12.3008 43.9463C12.3008 43.6577 12.3005 43.3821 12.3008 43.1065C12.3015 42.3835 12.7197 41.9065 13.3502 41.9092C13.9801 41.9119 14.3866 42.3857 14.3872 43.1181C14.3875 43.3857 14.3872 43.6534 14.3872 43.9476C16.7019 43.7143 18.733 42.8781 20.5627 41.3768C20.3278 41.1607 20.1056 40.968 19.8968 40.7618C19.4337 40.3045 19.4077 39.6565 19.8273 39.2294C20.2525 38.7966 20.9091 38.822 21.3789 39.2933C21.5805 39.4956 21.7754 39.7047 21.9979 39.9361C23.4868 38.1305 24.3176 36.0974 24.5579 33.778C24.2412 33.778 23.9398 33.7793 23.6384 33.7777C22.9844 33.7739 22.5157 33.3349 22.5187 32.7303C22.5214 32.1269 22.9912 31.6945 23.6483 31.6917C23.942 31.6904 24.2357 31.6914 24.5541 31.6914C24.3269 29.377 23.485 27.3482 21.9833 25.5131C21.7677 25.7496 21.5773 25.9743 21.3703 26.1822C20.9083 26.6457 20.2619 26.6715 19.837 26.2536C19.4059 25.8294 19.432 25.1744 19.9047 24.7016C20.1066 24.4995 20.318 24.3072 20.5523 24.085C18.7378 22.5975 16.7096 21.7552 14.3886 21.5243C14.3886 21.8388 14.3901 22.1402 14.3883 22.4416C14.3844 23.0941 13.9435 23.5639 13.3393 23.5614C12.7371 23.5589 12.3054 23.0888 12.3025 22.4309C12.3011 22.1372 12.3022 21.8433 12.3022 21.5233C9.98958 21.7619 7.95473 22.5886 6.12788 24.0905C6.26002 24.1005 6.33255 24.1106 6.40522 24.1108C6.88305 24.1119 7.36102 24.1005 7.83857 24.113C8.44674 24.1288 8.88566 24.5716 8.88789 25.1491C8.88997 25.7163 8.46619 26.1801 7.87025 26.1876C6.46316 26.2052 5.05551 26.2054 3.64855 26.1872C3.05998 26.1795 2.64801 25.7598 2.64176 25.1706C2.62661 23.7634 2.62814 22.3559 2.64412 20.9486C2.65065 20.3666 3.09944 19.951 3.66384 19.944C4.22629 19.9372 4.67522 20.3418 4.70995 20.9233C4.73566 21.3561 4.71968 21.7916 4.72357 22.2259C4.72426 22.309 4.73121 22.3921 4.73719 22.5161C5.0223 22.2989 5.27046 22.1003 5.52806 21.915C7.39812 20.5704 9.47521 19.7567 11.7645 19.4884C12.0307 19.4572 12.2966 19.4233 12.5628 19.3906H14.1786C14.237 19.4045 14.2945 19.4269 14.3536 19.4312C16.6516 19.6014 18.7735 20.3064 20.6832 21.5928C23.8403 23.7192 25.7843 26.6599 26.4815 30.4098C26.5732 30.9027 26.6211 31.4039 26.6894 31.9013V33.5694C26.6742 33.6453 26.6557 33.7206 26.6443 33.7968C26.5553 34.3972 26.4983 35.0042 26.3745 35.5972C25.1468 41.4806 19.8454 45.9028 13.8268 46.0737C10.9655 46.1549 8.31863 45.4439 5.94587 43.835C2.81905 41.7146 0.898278 38.7835 0.207445 35.0614C0.11588 34.5683 0.068083 34.067 0 33.5694V31.9013Z" fill="black"/>
<path fill-rule="evenodd" clip-rule="evenodd" d="M14.431 29.4398C14.4311 30.3424 14.4254 31.2449 14.4378 32.1473C14.4395 32.2693 14.5012 32.42 14.5872 32.5068C15.443 33.3696 16.3115 34.2203 17.1727 35.0779C17.4773 35.3812 17.5914 35.7444 17.4591 36.1612C17.3343 36.5541 17.0556 36.7941 16.6522 36.8791C16.299 36.9534 15.976 36.8609 15.7218 36.612C14.6772 35.5892 13.6298 34.5682 12.6111 33.5204C12.4392 33.3436 12.32 33.0387 12.3171 32.7913C12.294 30.7587 12.3003 28.7257 12.3065 26.6928C12.3083 26.0962 12.7852 25.6413 13.3733 25.6445C13.9593 25.6477 14.4237 26.1051 14.4287 26.7059C14.4365 27.6171 14.4308 28.5284 14.431 29.4398Z" fill="black"/>
</g>
</g>
<defs>
<clipPath id="clip0_1427_3669">
<rect width="70" height="49" fill="white"/>
</clipPath>
</defs>
</svg>
