<svg width="70" height="49" viewBox="0 0 70 49" fill="none" xmlns="http://www.w3.org/2000/svg">
<g clip-path="url(#clip0_1427_3678)">
<path fill-rule="evenodd" clip-rule="evenodd" d="M24.6317 33.178C24.6317 39.1533 19.7704 44.0145 13.7951 44.0145C7.81977 44.0145 2.95861 39.1533 2.95861 33.178C2.95861 27.2032 7.81977 22.3419 13.7951 22.3419C19.7704 22.3419 24.6317 27.2032 24.6317 33.178ZM0.550781 33.178C0.550781 40.4809 6.49217 46.4227 13.7951 46.4227C21.0981 46.4227 27.0395 40.4809 27.0395 33.178C27.0395 25.875 21.0981 19.9336 13.7951 19.9336C6.49217 19.9336 0.550781 25.875 0.550781 33.178Z" fill="black"/>
<path fill-rule="evenodd" clip-rule="evenodd" d="M12.3505 25.9544V27.3653C10.949 27.8622 9.94225 29.2005 9.94225 30.7705C9.94225 32.7619 11.5625 34.3827 13.5544 34.3827C14.2182 34.3827 14.7583 34.9228 14.7583 35.5865C14.7583 36.2504 14.2182 36.7905 13.5544 36.7905C13.0403 36.7905 12.4846 36.4673 11.9911 35.8797C11.5629 35.3706 10.8037 35.3052 10.2946 35.733C9.7855 36.161 9.71966 36.9203 10.1479 37.4293C10.7914 38.1948 11.5484 38.7284 12.3505 38.9975V40.4027C12.3505 41.0679 12.8897 41.6066 13.5544 41.6066C14.2192 41.6066 14.7583 41.0679 14.7583 40.4027V38.9918C16.1598 38.4945 17.1666 37.1561 17.1666 35.5865C17.1666 33.5947 15.5464 31.9745 13.5544 31.9745C12.8906 31.9745 12.3505 31.4343 12.3505 30.7705C12.3505 30.1068 12.8906 29.5661 13.5544 29.5661C13.9812 29.5661 14.4313 29.7839 14.8566 30.1956C15.3346 30.6581 16.0968 30.6453 16.5592 30.1679C17.0217 29.6898 17.009 28.9277 16.5315 28.4653C15.9204 27.8739 15.3088 27.5394 14.7583 27.3569V25.9544C14.7583 25.2892 14.2192 24.75 13.5544 24.75C12.8897 24.75 12.3505 25.2892 12.3505 25.9544Z" fill="black"/>
<mask id="mask0_1427_3678" style="mask-type:alpha" maskUnits="userSpaceOnUse" x="0" y="0" width="70" height="49">
<path fill-rule="evenodd" clip-rule="evenodd" d="M0.550781 48.9911H69.0635V0H0.550781V48.9911Z" fill="black"/>
</mask>
<g mask="url(#mask0_1427_3678)">
<path fill-rule="evenodd" clip-rule="evenodd" d="M32.3611 46.735H65.7113V44.5782H32.3611V46.735ZM32.3375 42.2724H34.5084V34.5634H32.3375V42.2724ZM29.1201 14.8958C29.3552 15.2185 29.8192 15.4237 30.2218 15.5592C30.5344 15.6643 30.9107 15.5805 31.2587 15.5805C31.5812 15.5806 31.9039 15.5805 32.2775 15.5805V16.6635H8.836C8.97312 16.4375 9.06123 16.28 9.16091 16.1302C11.3974 12.7727 13.6286 9.41175 15.8868 6.06889C16.0484 5.8296 16.4089 5.57986 16.6779 5.57889C24.6351 5.553 32.5923 5.55801 40.5497 5.55926C40.6549 5.55926 40.7601 5.57694 41.0188 5.60005C40.6828 5.84352 40.471 6.00388 40.2523 6.15422C36.7367 8.57123 33.2194 10.9855 29.7048 13.4039C29.0281 13.8695 28.7653 14.4093 29.1201 14.8958ZM34.5896 17.7791H63.4855V15.6249H34.5896V17.7791ZM43.499 42.2738H54.5532V25.6287H43.499V42.2738ZM61.2693 34.2648C61.3258 36.6761 61.284 39.0897 61.284 41.5024V42.2863H56.8136V41.5009C56.8136 35.9798 56.8139 30.4585 56.8132 24.9372C56.8131 23.7392 56.4745 23.3925 55.3015 23.3922C51.1025 23.3911 46.9036 23.3908 42.7048 23.3925C41.6073 23.3929 41.2396 23.7564 41.2393 24.844C41.2376 30.3652 41.2385 35.8864 41.2385 41.4076V42.2774H36.7683V41.1781C36.7683 38.7886 36.7684 36.3992 36.7681 34.0097C36.7681 32.5789 36.505 32.3141 35.0715 32.3009C34.9329 32.2996 34.7942 32.3007 34.5982 32.3007V20.0886H63.4615V32.2616C63.3478 32.2783 63.2792 32.3017 63.2132 32.296C61.6271 32.158 61.231 32.6319 61.2693 34.2648ZM63.5406 42.2985H65.6934V34.5603H63.5406V42.2985ZM49.0623 2.79675C49.364 2.58947 49.5821 2.45834 49.9662 2.73981C54.6963 6.20712 59.4447 9.64993 64.1875 13.1C64.2431 13.1405 64.2886 13.1945 64.4398 13.3375H33.747C33.9934 13.1525 34.1277 13.0433 34.2703 12.9456C39.2012 9.56292 44.1336 6.18262 49.0623 2.79675ZM68.4806 13.4927C68.3477 13.3995 68.2186 13.301 68.0874 13.2055C62.2938 8.99107 56.4988 4.7786 50.7077 0.560704C49.7021 -0.17179 49.5313 -0.186407 48.4998 0.515741C47.35 1.29849 46.1887 2.06523 45.0574 2.87373C44.5834 3.21269 44.1076 3.35816 43.52 3.35718C34.358 3.34159 25.1956 3.34883 16.0336 3.34034C15.4419 3.33978 14.9583 3.43778 14.5991 3.97915C11.703 8.3446 8.79285 12.7009 5.88417 17.058C5.6066 17.4738 5.42382 17.9538 5.77643 18.3385C6.0398 18.626 6.48414 18.843 6.87475 18.8966C7.52929 18.9865 8.20513 18.9212 8.94305 18.9212V20.8773C9.65787 20.589 10.4316 20.4345 11.2077 20.4146V18.9708H32.2997V23.3918H31.46C28.3485 23.3918 25.2371 23.3919 22.1256 23.3919C22.7129 24.1457 23.31 24.8779 23.8301 25.6572H32.2798V32.2618C32.1659 32.2783 32.0973 32.3017 32.0313 32.296C30.4439 32.1582 30.0661 32.6334 30.0865 34.2648C30.1352 38.1614 30.1022 42.059 30.1022 45.9563V46.7406H15.667V44.4615C14.9201 44.6118 14.1605 44.6796 13.3976 44.6743V45.8288V46.7201H11.2077V44.468C10.4423 44.3308 9.68404 44.1287 8.94319 43.8718C8.94319 45.0339 8.94305 46.196 8.94319 47.3581C8.94319 48.6865 9.24666 48.9894 10.5776 48.9895C29.1569 48.9897 47.7365 48.9895 66.316 48.9895C66.4552 48.9895 66.5944 48.9936 66.7333 48.9884C67.5133 48.9592 67.9188 48.5541 67.9493 47.775C67.952 47.7055 67.9499 47.6359 67.9499 47.5663C67.9499 42.9504 67.9512 38.3346 67.9489 33.7187C67.9483 32.6774 67.5705 32.3085 66.5194 32.3012C66.2727 32.2995 66.026 32.3009 65.7674 32.3009V15.5802C66.4797 15.5802 67.1484 15.5741 67.817 15.5821C68.3919 15.5891 68.8156 15.3569 69.0004 14.8045C69.1895 14.2394 68.9428 13.8163 68.4806 13.4927Z" fill="black"/>
<path fill-rule="evenodd" clip-rule="evenodd" d="M51.2644 35.6238C50.6681 35.6302 50.157 35.1293 50.1505 34.5319C50.144 33.9352 50.6445 33.4245 51.2423 33.418C51.8389 33.4113 52.3498 33.912 52.3563 34.5099C52.3629 35.1057 51.8615 35.6173 51.2644 35.6238Z" fill="black"/>
</g>
</g>
<defs>
<clipPath id="clip0_1427_3678">
<rect width="70" height="49" fill="white"/>
</clipPath>
</defs>
</svg>
