<svg width="73" height="49" viewBox="0 0 73 49" fill="none" xmlns="http://www.w3.org/2000/svg">
<g clip-path="url(#clip0_1427_3687)">
<path fill-rule="evenodd" clip-rule="evenodd" d="M35.8228 46.7437H69.1036V44.5864H35.8228V46.7437ZM35.7992 42.2802H37.9657V34.5697H35.7992V42.2802ZM32.5885 14.8985C32.8232 15.2213 33.2861 15.4265 33.688 15.562C34 15.6671 34.3753 15.5833 34.7226 15.5833C35.0446 15.5834 35.3665 15.5833 35.7393 15.5833V16.6665H12.3468C12.4837 16.4405 12.5715 16.2828 12.6711 16.1331C14.9029 12.775 17.1292 9.41329 19.3827 6.07009C19.544 5.83062 19.9039 5.58084 20.1723 5.57986C28.1129 5.5541 36.0536 5.55898 43.9943 5.56037C44.0993 5.56037 44.2043 5.57791 44.4626 5.60103C44.1271 5.84454 43.916 6.00493 43.6977 6.1553C40.1893 8.57261 36.6792 10.9874 33.1721 13.4063C32.4966 13.872 32.2344 14.4119 32.5885 14.8985ZM38.0467 17.7824H66.8824V15.6277H38.0467V17.7824ZM46.9374 42.2815H57.9687V25.6333H46.9374V42.2815ZM64.6709 34.2712C64.7271 36.6828 64.6853 39.0969 64.6853 41.51V42.294H60.2244V41.5085C60.2244 35.9863 60.2247 30.464 60.2241 24.9418C60.224 23.7435 59.886 23.3967 58.7153 23.3964C54.5251 23.3953 50.3351 23.3951 46.1448 23.3967C45.0496 23.3971 44.6829 23.7605 44.6825 24.8485C44.6808 30.3708 44.6818 35.8929 44.6817 41.4152V42.2851H40.2207V41.1856C40.2207 38.7957 40.2208 36.4058 40.2206 34.0159C40.2206 32.5848 39.958 32.32 38.5275 32.3068C38.3891 32.3055 38.2508 32.3066 38.0553 32.3066V20.0924H66.8585V32.2675C66.7449 32.2842 66.6765 32.3076 66.6107 32.3019C65.0278 32.1639 64.6325 32.6378 64.6709 34.2712ZM66.9373 42.3061H69.0856V34.5665H66.9373V42.3061ZM52.4892 2.79721C52.7902 2.59003 53.0079 2.45874 53.3912 2.74026C58.1115 6.20821 62.8499 9.65151 67.5828 13.1025C67.6384 13.1428 67.6839 13.1967 67.8347 13.3399H37.2058C37.4516 13.1548 37.5859 13.0457 37.728 12.9479C42.6487 9.56463 47.5708 6.1837 52.4892 2.79721ZM71.8671 13.4951C71.7344 13.4019 71.6056 13.3034 71.4746 13.2079C65.693 8.99267 59.9101 4.77943 54.1312 0.560756C53.1277 -0.171733 52.9572 -0.186492 51.9279 0.515785C50.7806 1.29868 49.6216 2.06556 48.4926 2.87434C48.0195 3.21323 47.5447 3.35872 46.9583 3.35775C37.8154 3.34216 28.6723 3.34954 19.5293 3.3409C18.9389 3.34021 18.4562 3.43836 18.0978 3.97983C15.2076 8.34609 12.3038 12.7032 9.40116 17.0611C9.12403 17.4769 8.94177 17.9571 9.29364 18.3418C9.55633 18.6293 9.99988 18.8463 10.3895 18.9C11.0427 18.99 11.7171 18.9247 12.4535 18.9247V19.8752C12.4535 21.0333 12.4537 22.1915 12.4537 23.3497C13.1996 23.4569 13.9555 23.4686 14.7135 23.4439V18.9742H35.7616V23.396H34.9236H31.136C31.1729 23.4463 31.1984 23.5087 31.2031 23.585C31.2471 24.2842 31.3577 24.9702 31.3517 25.6619H35.7415V32.2676C35.6279 32.2842 35.5596 32.3076 35.4936 32.3019C33.9097 32.164 33.5325 32.6394 33.553 34.271C33.6014 38.1683 33.5685 42.0666 33.5685 45.9647V46.7491H19.1635V43.6415C18.4056 43.721 17.6495 43.8116 16.8989 43.9429C16.8989 44.5743 16.8988 45.2059 16.8988 45.8371V46.7286H14.7135V43.8017C13.9601 43.8108 13.2062 43.771 12.4537 43.7089V47.3667C12.4538 48.6954 12.7565 48.9984 14.0847 48.9985C32.6254 48.9986 51.166 48.9985 69.7068 48.9985C69.8457 48.9985 69.9848 49.0025 70.1236 48.9974C70.9017 48.9681 71.3061 48.563 71.3367 47.7837C71.3395 47.7142 71.3374 47.6445 71.3374 47.5749C71.3374 42.9583 71.3388 38.3415 71.3364 33.7248C71.3359 32.6834 70.9587 32.3144 69.9098 32.307C69.6637 32.3052 69.4176 32.3068 69.1593 32.3068V15.583C69.8702 15.583 70.5377 15.5769 71.2047 15.5849C71.7784 15.5919 72.2013 15.3595 72.3858 14.8073C72.5744 14.2419 72.3283 13.8188 71.8671 13.4951Z" fill="black"/>
<path fill-rule="evenodd" clip-rule="evenodd" d="M54.6112 35.7014C54.0435 35.7077 53.557 35.2308 53.5508 34.6619C53.5445 34.0941 54.0211 33.6079 54.5901 33.6016C55.1581 33.5953 55.6444 34.072 55.6506 34.641C55.6569 35.2082 55.1795 35.6952 54.6112 35.7014Z" fill="black"/>
<path fill-rule="evenodd" clip-rule="evenodd" d="M2.15826 42.2893H29.6917V24.9107H2.15826V42.2893ZM30.7709 44.45H1.0792C0.483121 44.45 0 43.9663 0 43.3696V23.8304C0 23.2337 0.483121 22.75 1.0792 22.75H30.7709C31.3669 22.75 31.85 23.2337 31.85 23.8304V43.3696C31.85 43.9663 31.3669 44.45 30.7709 44.45Z" fill="black"/>
<path fill-rule="evenodd" clip-rule="evenodd" d="M6.57179 37.0977C5.87822 37.0977 5.29972 36.9487 4.83643 36.6506C4.37299 36.3525 4.0441 35.9473 3.84961 35.4343L5.19129 34.665C5.46355 35.2868 5.93983 35.5978 6.62041 35.5978C7.2362 35.5978 7.54396 35.415 7.54396 35.0497C7.54396 34.851 7.44506 34.6956 7.24753 34.5834C7.04959 34.4711 6.6787 34.3413 6.13432 34.1939C5.84908 34.117 5.59961 34.0304 5.38564 33.9342C5.17181 33.8382 4.96282 33.7115 4.75866 33.5544C4.5545 33.3974 4.39896 33.2004 4.29205 32.963C4.18513 32.726 4.13154 32.4534 4.13154 32.1459C4.13154 31.5241 4.35669 31.0271 4.80728 30.6554C5.25759 30.2836 5.79396 30.0977 6.41625 30.0977C6.97361 30.0977 7.46633 30.2276 7.89399 30.4871C8.32179 30.7468 8.65869 31.1234 8.90512 31.6169L7.59258 32.3765C7.46937 32.1202 7.31715 31.9262 7.13564 31.7948C6.95414 31.6635 6.71434 31.5976 6.41625 31.5976C6.18294 31.5976 6.00309 31.6474 5.87656 31.7467C5.75031 31.8461 5.68705 31.9662 5.68705 32.1074C5.68705 32.274 5.76634 32.4184 5.92533 32.54C6.08404 32.6619 6.41293 32.7966 6.91201 32.9439C7.18426 33.0272 7.39478 33.0945 7.54396 33.1458C7.69301 33.1971 7.88252 33.282 8.11265 33.4006C8.34264 33.5193 8.5178 33.6444 8.63783 33.7757C8.75759 33.9071 8.86451 34.08 8.95858 34.2949C9.05237 34.5096 9.09961 34.7549 9.09961 35.0304C9.09961 35.6716 8.86617 36.1764 8.39955 36.5448C7.93294 36.9134 7.3235 37.0977 6.57179 37.0977Z" fill="black"/>
<path fill-rule="evenodd" clip-rule="evenodd" d="M11.5521 35.0399C11.9272 35.4119 12.3934 35.5977 12.9513 35.5977C13.5088 35.5977 13.9752 35.4119 14.3503 35.0399C14.7253 34.6683 14.9127 34.1875 14.9127 33.5976C14.9127 33.008 14.7253 32.5273 14.3503 32.1554C13.9752 31.7837 13.5088 31.5977 12.9513 31.5977C12.3934 31.5977 11.9272 31.7837 11.5521 32.1554C11.177 32.5273 10.9895 33.008 10.9895 33.5976C10.9895 34.1875 11.177 34.6683 11.5521 35.0399ZM15.432 36.088C14.7525 36.7611 13.9255 37.0977 12.9513 37.0977C11.9766 37.0977 11.1498 36.7611 10.4704 36.088C9.79067 35.4149 9.45117 34.5848 9.45117 33.5976C9.45117 32.6106 9.79067 31.7804 10.4704 31.1073C11.1498 30.4342 11.9766 30.0977 12.9513 30.0977C13.9255 30.0977 14.7525 30.4342 15.432 31.1073C16.1114 31.7804 16.4512 32.6106 16.4512 33.5976C16.4512 34.5848 16.1114 35.4149 15.432 36.088Z" fill="black"/>
<path fill-rule="evenodd" clip-rule="evenodd" d="M19.0025 35.5577H21.35V37.0977H17.5V30.0977H19.0025V35.5577Z" fill="black"/>
<path fill-rule="evenodd" clip-rule="evenodd" d="M24.7359 35.5577C25.2669 35.5577 25.697 35.3794 26.0266 35.0228C26.3562 34.6662 26.5209 34.1912 26.5209 33.5977C26.5209 33.0044 26.3562 32.5296 26.0266 32.1726C25.697 31.8162 25.2669 31.6377 24.7359 31.6377H23.5843V35.5577H24.7359ZM24.7359 30.0977C25.6635 30.0977 26.4393 30.4327 27.063 31.1028C27.687 31.7728 27.9988 32.6044 27.9988 33.5977C27.9988 34.591 27.687 35.4227 27.063 36.0926C26.4393 36.7625 25.6635 37.0977 24.7359 37.0977H22.0488V30.0977H24.7359Z" fill="black"/>
</g>
<defs>
<clipPath id="clip0_1427_3687">
<rect width="73" height="49" fill="white"/>
</clipPath>
</defs>
</svg>
