<svg width="52" height="49" viewBox="0 0 52 49" fill="none" xmlns="http://www.w3.org/2000/svg">
<g clip-path="url(#clip0_1427_3695)">
<path fill-rule="evenodd" clip-rule="evenodd" d="M34.8523 13.9471C34.8725 14.2304 35.0039 14.4889 35.2222 14.6752C35.4191 14.8431 35.671 14.9357 35.9316 14.9357C36.2453 14.9357 36.5432 14.8024 36.7493 14.5701L45.0653 5.16614C45.255 4.95186 45.3484 4.67781 45.3282 4.39442C45.3079 4.11113 45.1766 3.85257 44.9582 3.66629C44.5075 3.28192 43.8226 3.32918 43.4315 3.77144L35.1152 13.1754C34.9254 13.3896 34.8321 13.6637 34.8523 13.9471Z" fill="black"/>
<path fill-rule="evenodd" clip-rule="evenodd" d="M42.2638 13.1009C42.2638 12.8548 42.4641 12.6545 42.7101 12.6545C42.9562 12.6545 43.1565 12.8548 43.1565 13.1009C43.1565 13.3469 42.9562 13.5472 42.7101 13.5472C42.4641 13.5472 42.2638 13.3469 42.2638 13.1009ZM45.3305 13.1009C45.3305 11.656 44.155 10.4805 42.7101 10.4805C41.2653 10.4805 40.0898 11.656 40.0898 13.1009C40.0898 14.5457 41.2653 15.7212 42.7101 15.7212C44.155 15.7212 45.3305 14.5457 45.3305 13.1009Z" fill="black"/>
<path fill-rule="evenodd" clip-rule="evenodd" d="M36.7619 5.76485C36.7619 5.51849 36.9621 5.31812 37.2082 5.31812C37.4543 5.31812 37.6545 5.51849 37.6545 5.76485C37.6545 6.01091 37.4543 6.21118 37.2082 6.21118C36.9621 6.21118 36.7619 6.01091 36.7619 5.76485ZM37.2082 8.38517C38.6531 8.38517 39.8285 7.20971 39.8285 5.76485C39.8285 4.31999 38.6531 3.14453 37.2082 3.14453C35.7633 3.14453 34.5879 4.31999 34.5879 5.76485C34.5879 7.20971 35.7633 8.38517 37.2082 8.38517Z" fill="black"/>
<path fill-rule="evenodd" clip-rule="evenodd" d="M2.15332 41.9671H7.61057V26.4729H2.15332V41.9671ZM30.4053 36.1536C30.2933 36.4261 30.1649 36.6511 30.0128 36.8418C29.4045 37.6082 28.3986 37.9548 27.4506 37.7246L27.4271 37.7188C27.3706 37.7048 27.3145 37.6883 27.2621 37.6712L20.4972 35.0748L20.4132 35.0427C20.1449 34.9394 19.8524 34.947 19.5895 35.0636C19.3268 35.1803 19.1251 35.3922 19.0218 35.6603C18.9187 35.9282 18.9261 36.2202 19.043 36.4826C19.1598 36.7451 19.372 36.9463 19.6405 37.0492C19.6405 37.0492 23.4548 38.5133 26.3632 39.6331C26.4228 39.6562 26.482 39.6778 26.5386 39.6966L28.7729 40.5545C29.4369 40.8093 30.1234 41.0729 30.8299 41.2531C32.0356 41.5606 33.2751 41.6823 34.513 41.6148C35.215 41.5766 35.9131 41.4792 36.5881 41.3253L40.0559 40.5329C40.06 40.532 40.0641 40.5308 40.0669 40.5297L46.6518 39.0248C47.2595 38.886 47.8829 38.9943 48.407 39.3303C48.9317 39.6661 49.2905 40.1869 49.4174 40.7964C49.6689 42.0031 48.9284 43.1863 47.7317 43.4897L35.7236 46.5367C33.6658 47.0588 31.533 46.9255 29.5554 46.1517L14.0582 40.0832C13.933 40.0341 13.8007 40.0093 13.6649 40.0093H9.76389V28.8399H19.0459L29.098 32.9939C30.3262 33.5024 30.9126 34.9198 30.4053 36.1536ZM51.5258 40.3588C51.2803 39.1794 50.5857 38.1716 49.5699 37.5209C48.5544 36.8708 47.3472 36.6607 46.171 36.9292L40.8448 38.1467L40.8449 38.1563L38.7396 38.5781V38.6278L37.3037 38.956C40.1211 37.2335 42.5138 34.8504 44.242 32.0406C46.1062 29.0095 47.1639 25.521 47.3007 21.9523C47.3198 21.4523 47.3209 20.9444 47.3039 20.4412L47.3204 20.4427L47.318 20.3622C47.2799 19.0798 47.1272 17.8073 46.8641 16.58C46.804 16.2993 46.6378 16.0587 46.3964 15.9028C46.1548 15.7465 45.867 15.6939 45.586 15.7541C45.0057 15.8777 44.6344 16.4501 44.7584 17.0301C44.9081 17.7283 45.019 18.4528 45.0883 19.185L45.0803 19.187L45.0865 19.2483C45.1129 19.5062 45.1346 19.7788 45.1511 20.058L45.1598 20.2305C45.1873 20.78 45.1917 21.3316 45.1711 21.871C45.0138 25.9745 43.5544 29.8225 40.9504 32.9988C38.4352 36.0668 34.949 38.2995 31.1321 39.2871C30.9755 39.2411 30.8827 39.1846 30.87 39.1274C30.8457 39.0173 31.0757 38.8208 31.2786 38.6474L31.3163 38.6147C31.6859 38.2251 32.6677 37.1904 32.74 35.1413C32.734 34.7159 32.6699 34.2995 32.5495 33.9035C32.4347 33.5254 32.273 33.1657 32.0688 32.8344C32.0256 32.7645 31.9802 32.695 31.9335 32.6278V32.5884L31.9189 32.5694C31.083 31.4825 29.9273 31.0091 29.8791 30.9897L19.5417 26.7281C19.4476 26.7026 19.3529 26.6897 19.2603 26.6897H14.015V26.6752H11.8617V26.6901H9.76389V25.3979C9.76389 24.8054 9.28099 24.3234 8.68728 24.3234H7.71544C7.54653 23.378 7.4491 22.4179 7.42588 21.4689C7.36726 19.0988 7.74349 16.7791 8.54411 14.574C8.73062 14.0602 8.94256 13.5479 9.17411 13.0513C9.2095 12.9754 9.23594 12.8959 9.25284 12.8143L9.27526 12.7685C10.3657 10.5477 11.9327 8.50698 13.8067 6.86671C15.2199 5.62997 16.8021 4.61535 18.5092 3.85138C18.5764 3.82127 18.6417 3.78323 18.7034 3.73826C19.0827 3.57103 19.4594 3.41906 19.8233 3.28646C22.2631 2.39732 24.9376 2.018 27.5575 2.19004C29.4326 2.313 31.27 2.71261 33.0183 3.3775C33.2869 3.47969 33.5794 3.47136 33.8417 3.35392C34.1044 3.23647 34.3052 3.02398 34.4075 2.75567C34.51 2.48746 34.5017 2.19536 34.3841 1.93338C34.2664 1.67139 34.0536 1.47094 33.7846 1.36876C31.8365 0.627573 29.789 0.1822 27.6988 0.0448842C24.7817 -0.146435 21.8028 0.276253 19.0847 1.26728C16.6583 2.1514 14.3428 3.52837 12.3857 5.25154L12.3223 5.30695C12.2836 5.34078 12.2449 5.37451 12.2068 5.40894C12.1979 5.41687 12.1898 5.4253 12.1815 5.43373L12.1732 5.44236C10.1308 7.28087 8.4306 9.54839 7.25636 11.9998L7.22258 12.0705L7.25405 12.0819C7.24219 12.103 7.23173 12.1235 7.22218 12.1439C6.96358 12.6981 6.72731 13.2692 6.51989 13.8412C5.62787 16.2977 5.20831 18.8819 5.27296 21.5218C5.29608 22.45 5.38335 23.392 5.53226 24.3234H1.07661C0.483007 24.3234 0 24.8056 0 25.3983V43.0419C0 43.6346 0.483007 44.1169 1.07661 44.1169H8.68728C9.28099 44.1169 9.76389 43.6346 9.76389 43.0419V42.1587H13.4613L28.7694 48.1529C30.2044 48.715 31.7052 49 33.2302 49C34.2438 49 35.2611 48.8722 36.254 48.6203L48.2621 45.5732C50.5783 44.9855 52.0119 42.6951 51.5258 40.3588Z" fill="black"/>
<path fill-rule="evenodd" clip-rule="evenodd" d="M14.0371 24.6303V18.8118H15.9834V17.0312H10.2188V18.8118H12.1652V24.6303H14.0371Z" fill="black"/>
<path fill-rule="evenodd" clip-rule="evenodd" d="M18.967 19.2808L19.7555 21.7201H18.1784L18.967 19.2808ZM17.6151 23.458H20.3188L20.6968 24.6303H22.6228H22.7367H24.7515L25.9849 22.5464L27.2184 24.6303H29.347L27.0492 20.735L29.2392 17.0312H27.1103L25.9849 18.934L24.8594 17.0312H22.7307L24.9205 20.735L22.6946 24.5084L20.1189 17.0312H17.8149L15.1973 24.6303H17.2371L17.6151 23.458Z" fill="black"/>
<path fill-rule="evenodd" clip-rule="evenodd" d="M35.0585 18.812V17.0312H30.1348V24.6303H35.1134V22.8496H32.0368V21.6679H34.7837V19.9085H32.0368V18.812H35.0585Z" fill="black"/>
<path fill-rule="evenodd" clip-rule="evenodd" d="M38.5596 23.0391C37.8233 23.0391 37.3223 22.7054 37.0277 22.0191L36.996 21.9451L35.375 22.8928L35.3961 22.9497C35.6178 23.5463 35.9983 24.0246 36.527 24.3713C37.054 24.7172 37.7197 24.8925 38.5053 24.8925C39.3584 24.8925 40.0606 24.6752 40.5926 24.2466C41.1295 23.8141 41.4017 23.2144 41.4017 22.4642C41.4017 22.142 41.3467 21.8502 41.2383 21.5971C41.1305 21.3462 41.0057 21.1405 40.8672 20.9857C40.7281 20.8304 40.524 20.6813 40.2604 20.5427C40.0018 20.4068 39.7848 20.3077 39.6152 20.248C39.4482 20.1895 39.2098 20.1118 38.906 20.0169C38.3592 19.8522 37.9959 19.7013 37.8263 19.5685C37.6658 19.4432 37.5877 19.3004 37.5877 19.1321C37.5877 18.9934 37.6482 18.8772 37.7727 18.7773C37.9004 18.6749 38.0883 18.6231 38.3315 18.6231C38.6475 18.6231 38.9039 18.694 39.0934 18.8339C39.2857 18.9759 39.4501 19.1899 39.582 19.4699L39.6152 19.5405L41.2063 18.6013L41.177 18.5413C40.8968 17.9689 40.5077 17.5257 40.0203 17.224C39.5331 16.9224 38.9649 16.7695 38.3315 16.7695C37.6223 16.7695 37.0019 16.989 36.4875 17.4219C35.9694 17.858 35.7068 18.4481 35.7068 19.176C35.7068 19.5353 35.7691 19.8586 35.8922 20.1368C36.016 20.4168 36.1986 20.6529 36.435 20.8383C36.6661 21.0198 36.9066 21.1684 37.1502 21.2801C37.3917 21.3908 37.6768 21.4917 37.9975 21.5798C38.5971 21.7455 39.0101 21.8926 39.225 22.0168C39.424 22.132 39.5207 22.2855 39.5207 22.486C39.5207 22.6228 39.5207 23.0391 38.5596 23.0391Z" fill="black"/>
</g>
<defs>
<clipPath id="clip0_1427_3695">
<rect width="52" height="49" fill="white"/>
</clipPath>
</defs>
</svg>
