<svg width="36" height="22" viewBox="0 0 36 22" fill="none" xmlns="http://www.w3.org/2000/svg">
<circle cx="25.6772" cy="10.2261" r="8.32373" fill="#E0E7F4" stroke="#023DA7" stroke-width="2"/>
<path d="M12.5136 2.54688L4.56105 5.8376V17.6294L16.0835 17.4199C18.4297 17.3772 22.1679 17.4182 22.1873 15.0716C22.1875 15.0433 22.1865 15.0151 22.1841 14.9872C21.9979 12.7667 18.4946 12.9675 16.2663 12.9675H11.4167L13.8848 7.7572L16.6271 8.57988L18.5466 5.28915L17.724 4.74069L12.5136 2.54688Z" fill="#E0E7F4"/>
<path d="M0.996094 4.19224H4.0126V20.0974C4.0126 20.0974 2.17411 20.0974 0.996094 20.0974M4.56105 5.8376L12.5136 2.54688L17.724 4.74069L18.5466 5.28915L16.6271 8.57988L13.8848 7.7572L11.4167 12.9675H16.2663C18.4946 12.9675 21.9979 12.7667 22.1841 14.9872C22.1865 15.0151 22.1875 15.0433 22.1873 15.0716C22.1679 17.4182 18.4297 17.3772 16.0835 17.4199L4.56105 17.6294V5.8376Z" stroke="#023DA7" stroke-width="2" stroke-linejoin="round"/>
<path d="M28.6062 11.9866C28.6062 12.3669 28.5075 12.7252 28.31 13.0616C28.1199 13.3907 27.8347 13.6649 27.4544 13.8843C27.0815 14.0963 26.6391 14.2207 26.1272 14.2572V15.1457H25.4252V14.2463C24.6939 14.1804 24.1052 13.9611 23.6591 13.5881C23.2131 13.2078 22.9827 12.696 22.9681 12.0524H24.6134C24.6573 12.5789 24.9279 12.8971 25.4252 13.0067V10.9116C24.8986 10.78 24.4745 10.6484 24.1527 10.5168C23.831 10.3851 23.5531 10.1731 23.3191 9.88055C23.0851 9.58804 22.9681 9.1895 22.9681 8.68492C22.9681 8.04871 23.1948 7.52951 23.6482 7.12731C24.1089 6.72511 24.7012 6.49475 25.4252 6.43625V5.54776H26.1272V6.43625C26.8292 6.49475 27.3886 6.70682 27.8055 7.07246C28.2296 7.4381 28.4673 7.94268 28.5184 8.5862H26.8621C26.8402 8.37413 26.7634 8.19131 26.6318 8.03774C26.5074 7.87686 26.3393 7.76351 26.1272 7.6977V9.77086C26.6756 9.9098 27.1071 10.0451 27.4215 10.1767C27.7433 10.301 28.0212 10.5094 28.2552 10.802C28.4892 11.0872 28.6062 11.482 28.6062 11.9866ZM24.5696 8.60813C24.5696 8.84945 24.6427 9.0469 24.789 9.20047C24.9352 9.34672 25.1473 9.46738 25.4252 9.56245V7.66479C25.1619 7.70136 24.9535 7.80008 24.7999 7.96096C24.6464 8.12184 24.5696 8.33756 24.5696 8.60813ZM26.1272 13.0287C26.4051 12.9775 26.6208 12.8641 26.7744 12.6886C26.9352 12.5131 27.0157 12.3011 27.0157 12.0524C27.0157 11.8111 26.9389 11.6173 26.7853 11.4711C26.6318 11.3248 26.4124 11.2042 26.1272 11.1091V13.0287Z" fill="#023DA7"/>
</svg>
