<svg width="11" height="11" viewBox="0 0 11 11" fill="none" xmlns="http://www.w3.org/2000/svg">
    <path d="M6.29137 5.48753L10.8387 0.940229C10.9285 0.835295 10.9755 0.700315 10.9702 0.562263C10.9648 0.424212 10.9076 0.293256 10.8099 0.195566C10.7122 0.0978763 10.5813 0.0406467 10.4432 0.0353144C10.3052 0.0299821 10.1702 0.0769397 10.0653 0.166803L5.51795 4.71411L0.970646 0.161318C0.867356 0.0580278 0.727264 0 0.58119 0C0.435116 0 0.295025 0.0580278 0.191735 0.161318C0.0884446 0.264608 0.0304169 0.404699 0.0304169 0.550773C0.0304169 0.696848 0.0884446 0.836939 0.191735 0.940229L4.74452 5.48753L0.191735 10.0348C0.134314 10.084 0.0876776 10.1445 0.0547531 10.2126C0.0218286 10.2806 0.00332665 10.3548 0.000408759 10.4303C-0.00250914 10.5058 0.0102197 10.5812 0.0377968 10.6516C0.0653738 10.722 0.107204 10.7859 0.16066 10.8393C0.214117 10.8928 0.278047 10.9346 0.348437 10.9622C0.418827 10.9898 0.494157 11.0025 0.5697 10.9996C0.645243 10.9967 0.719367 10.9782 0.78742 10.9452C0.855474 10.9123 0.915986 10.8657 0.96516 10.8083L5.51795 6.26096L10.0653 10.8083C10.1702 10.8981 10.3052 10.9451 10.4432 10.9398C10.5813 10.9344 10.7122 10.8772 10.8099 10.7795C10.9076 10.6818 10.9648 10.5509 10.9702 10.4128C10.9755 10.2748 10.9285 10.1398 10.8387 10.0348L6.29137 5.48753Z"/>
    </svg>
    