<svg width="862" height="97" viewBox="0 0 862 97" fill="none" xmlns="http://www.w3.org/2000/svg">
<path d="M265.1 67V39.0695L222.42 13.1895L179.75 39.0695V66M179.75 98V84M265 98.5V85" stroke="#424248" stroke-linecap="round" stroke-linejoin="round"/>
<path d="M230.58 64.4492H214.27V98.0792H230.58V64.4492Z" fill="#FFBF00" stroke="#424248" stroke-miterlimit="10"/>
<path d="M217.13 78.4395V82.8695" stroke="#424248" stroke-miterlimit="10"/>
<path d="M251.55 64.6504H240.42V91.6404H251.55V64.6504Z" stroke="#424248" stroke-miterlimit="10"/>
<path d="M240.42 73.6094H251.55" stroke="#424248" stroke-miterlimit="10"/>
<path d="M240.42 83.2793H251.55" stroke="#424248" stroke-miterlimit="10"/>
<path d="M203.82 64.6504H192.69V91.6404H203.82V64.6504Z" stroke="#424248" stroke-miterlimit="10"/>
<path d="M192.69 73.6094H203.82" stroke="#424248" stroke-miterlimit="10"/>
<path d="M192.69 83.2793H203.82" stroke="#424248" stroke-miterlimit="10"/>
<path d="M230.58 40.0801H214.27V56.3901H230.58V40.0801Z" stroke="#424248" stroke-miterlimit="10"/>
<path d="M222.42 40.0801V56.3901" stroke="#424248" stroke-miterlimit="10"/>
<path d="M230.58 48.2305H214.27" stroke="#424248" stroke-miterlimit="10"/>
<path d="M196.55 28.8795H248.1L222.42 13.1895L196.55 28.8795Z" fill="#FFBF00" stroke="#424248" stroke-miterlimit="10"/>
<path d="M222.42 13.1895V28.8795" stroke="#424248" stroke-miterlimit="10"/>
<path d="M217.59 16.1094V28.8794" stroke="#424248" stroke-miterlimit="10"/>
<path d="M212.75 18.8301V28.8801" stroke="#424248" stroke-miterlimit="10"/>
<path d="M207.92 21.9492V28.8792" stroke="#424248" stroke-miterlimit="10"/>
<path d="M203.09 24.6699V28.8799" stroke="#424248" stroke-miterlimit="10"/>
<path d="M227.26 16.1094V28.8794" stroke="#424248" stroke-miterlimit="10"/>
<path d="M232.09 18.8301V28.8801" stroke="#424248" stroke-miterlimit="10"/>
<path d="M236.92 21.9492V28.8792" stroke="#424248" stroke-miterlimit="10"/>
<path d="M241.76 24.6699V28.8799" stroke="#424248" stroke-miterlimit="10"/>
<path d="M264.93 75.4995C262.93 70.4995 264.894 67.074 266.028 65.6113C269.585 61.6276 275.698 61.2815 279.681 64.8384C280.431 65.5591 282.13 67.7005 282.93 70.5005" stroke="#424248" stroke-width="1.21" stroke-miterlimit="10"/>
<path d="M278.43 78C276.525 81.0463 270.978 83.8489 267.93 78" stroke="#424248"/>
<path d="M273.24 81.7305V99.0805" stroke="#424248" stroke-width="1.21" stroke-miterlimit="10"/>
<path d="M272.93 90L280.93 82" stroke="#424248" stroke-width="1.21" stroke-miterlimit="10"/>
<path d="M266.93 84L272.93 90" stroke="#424248" stroke-width="1.21" stroke-miterlimit="10"/>
<path d="M291.29 76.9909C291.29 75.699 290.907 74.4361 290.189 73.362C289.471 72.288 288.45 71.451 287.257 70.957C286.063 70.4631 284.749 70.3344 283.482 70.5871C282.215 70.8399 281.052 71.4628 280.139 72.3771C279.226 73.2913 278.605 74.4558 278.354 75.7231C278.103 76.9905 278.234 78.3038 278.73 79.4968C279.226 80.6898 280.064 81.709 281.139 82.4253C282.215 83.1416 283.478 83.5229 284.77 83.5209C285.627 83.5209 286.476 83.352 287.267 83.0237C288.059 82.6954 288.778 82.2142 289.384 81.6077C289.989 81.0012 290.47 80.2813 290.797 79.4891C291.124 78.6969 291.291 77.848 291.29 76.9909Z" stroke="#424248" stroke-width="1.21" stroke-miterlimit="10"/>
<path d="M268.5 80.2894C268.5 79.3143 268.211 78.3612 267.669 77.5504C267.128 76.7397 266.358 76.1078 265.457 75.7347C264.556 75.3615 263.565 75.2639 262.608 75.4541C261.652 75.6443 260.774 76.1139 260.084 76.8033C259.395 77.4928 258.925 78.3713 258.735 79.3276C258.545 80.2839 258.642 81.2752 259.016 82.176C259.389 83.0768 260.021 83.8468 260.831 84.3885C261.642 84.9302 262.595 85.2194 263.57 85.2194C264.878 85.2194 266.132 84.7 267.056 83.7754C267.981 82.8509 268.5 81.5969 268.5 80.2894Z" stroke="#424248" stroke-width="1.21" stroke-miterlimit="10"/>
<path d="M306.11 84V31.2109H408.04L408 87" stroke="#424248" stroke-width="1.21" stroke-miterlimit="10"/>
<path d="M306.11 15.51L322.63 1H391.51L408.04 15.51V31.22H306.11V15.51Z" fill="#023DA7" stroke="#424248" stroke-width="1.21" stroke-miterlimit="10"/>
<path d="M408.04 39.0703H306.11V42.9003H408.04V39.0703Z" fill="#FFBF00" stroke="#424248" stroke-width="1.21" stroke-miterlimit="10"/>
<path d="M372.18 21.2902L357.07 10.4102L341.97 21.2902V39.0702H372.18V21.2902Z" fill="#FFBF00" stroke="#424248" stroke-width="1.21" stroke-miterlimit="10"/>
<path d="M361.71 23.1602H352.44V39.0702H361.71V23.1602Z" stroke="#424248" stroke-width="1.21" stroke-miterlimit="10"/>
<path d="M357.07 23.4609V39.0709" stroke="#424248" stroke-width="1.21" stroke-miterlimit="10"/>
<path d="M365.12 23.1602H361.71V39.0702H365.12V23.1602Z" fill="#023DA7" stroke="#424248" stroke-width="1.21" stroke-miterlimit="10"/>
<path d="M352.44 23.1602H349.03V39.0702H352.44V23.1602Z" fill="#023DA7" stroke="#424248" stroke-width="1.21" stroke-miterlimit="10"/>
<path d="M365.23 64.4492H348.92V98.0792H365.23V64.4492Z" fill="#FFBF00" stroke="#424248" stroke-width="1.21" stroke-miterlimit="10"/>
<path d="M351.78 78.4395V82.8695" stroke="#424248" stroke-width="1.21" stroke-miterlimit="10"/>
<path d="M393.13 64.6504H377.41V91.6404H393.13V64.6504Z" stroke="#424248" stroke-width="1.21" stroke-miterlimit="10"/>
<path d="M377.41 73.6094H393.13" stroke="#424248" stroke-width="1.21" stroke-miterlimit="10"/>
<path d="M377.41 83.2793H393.13" stroke="#424248" stroke-width="1.21" stroke-miterlimit="10"/>
<path d="M385.27 65.1504V91.6404" stroke="#424248" stroke-width="1.21" stroke-miterlimit="10"/>
<path d="M397.31 64.6504H393.13V91.6404H397.31V64.6504Z" fill="#023DA7" stroke="#424248" stroke-width="1.21" stroke-miterlimit="10"/>
<path d="M377.41 64.6504H373.23V91.6404H377.41V64.6504Z" fill="#023DA7" stroke="#424248" stroke-width="1.21" stroke-miterlimit="10"/>
<path d="M336.73 64.6504H321.01V91.6404H336.73V64.6504Z" stroke="#424248" stroke-width="1.21" stroke-miterlimit="10"/>
<path d="M321.01 73.6094H336.74" stroke="#424248" stroke-width="1.21" stroke-miterlimit="10"/>
<path d="M321.01 83.2793H336.74" stroke="#424248" stroke-width="1.21" stroke-miterlimit="10"/>
<path d="M328.88 65.1504V91.6404" stroke="#424248" stroke-width="1.21" stroke-miterlimit="10"/>
<path d="M340.92 64.6504H336.74V91.6404H340.92V64.6504Z" fill="#023DA7" stroke="#424248" stroke-width="1.21" stroke-miterlimit="10"/>
<path d="M321.02 64.6504H316.84V91.6404H321.02V64.6504Z" fill="#023DA7" stroke="#424248" stroke-width="1.21" stroke-miterlimit="10"/>
<path d="M316.52 90.6191C316.026 90.6207 315.536 90.7192 315.08 90.9091V90.8591C315.08 89.8699 314.687 88.9211 313.987 88.2216C313.288 87.5221 312.339 87.1291 311.35 87.1291C310.934 87.1356 310.522 87.2099 310.13 87.3491C309.953 86.4821 309.472 85.7068 308.774 85.1624C308.077 84.6179 307.208 84.34 306.323 84.3785C305.439 84.4171 304.598 84.7696 303.95 85.3727C303.303 85.9758 302.891 86.79 302.79 87.6691C302.219 87.317 301.561 87.13 300.89 87.1291C299.901 87.1291 298.952 87.5221 298.252 88.2216C297.553 88.9211 297.16 89.8699 297.16 90.8591C297.16 90.8591 297.16 90.8591 297.16 90.9291C296.697 90.725 296.196 90.6194 295.69 90.6191C295.2 90.6191 294.715 90.7156 294.263 90.9031C293.81 91.0905 293.399 91.3653 293.052 91.7116C292.706 92.058 292.431 92.4692 292.244 92.9217C292.056 93.3743 291.96 93.8593 291.96 94.3491C291.96 94.839 292.056 95.324 292.244 95.7765C292.431 96.2291 292.706 96.6403 293.052 96.9866C293.399 97.333 293.81 97.6078 294.263 97.7952C294.715 97.9827 295.2 98.0791 295.69 98.0791H316.51C317.499 98.0791 318.448 97.6862 319.147 96.9866C319.847 96.2871 320.24 95.3384 320.24 94.3491C320.24 93.3599 319.847 92.4111 319.147 91.7116C318.448 91.0121 317.499 90.6191 316.51 90.6191H316.52Z" stroke="#424248" stroke-width="1.21" stroke-miterlimit="10"/>
<path d="M26.7459 33.5L34.9613 13.5H135.029L143.254 33.5H26.7459Z" fill="#023DA7" stroke="#424248" stroke-linecap="round" stroke-linejoin="round"/>
<path d="M142.62 84C142.62 60.9552 142.62 62.1152 142.62 39.0703H27.03V84.5" stroke="#424248" stroke-linecap="round" stroke-linejoin="round"/>
<path d="M143 34H27V39H143V34Z" fill="#023DA7" stroke="#424248" stroke-linecap="round" stroke-linejoin="round"/>
<path d="M123.3 93.6504H46.3401V98.0804H123.3V93.6504Z" fill="#4F4F4F" stroke="#424248" stroke-miterlimit="10"/>
<path d="M118.05 89.2207H51.5901V93.6507H118.05V89.2207Z" fill="#4F4F4F" stroke="#424248" stroke-miterlimit="10"/>
<path d="M110.8 84.7891H58.8401V89.2191H110.8V84.7891Z" fill="#4F4F4F" stroke="#424248" stroke-miterlimit="10"/>
<path d="M93 51H77V84H93V51Z" fill="#FFBF00" stroke="#424248" stroke-miterlimit="10"/>
<path d="M79.53 65.1504V69.5804" stroke="#424248" stroke-width="1.21" stroke-miterlimit="10"/>
<path d="M52.19 51.1504H36.48V78.1404H52.19V51.1504Z" stroke="#424248" stroke-width="1.21" stroke-miterlimit="10"/>
<path d="M36.48 64.6504H52.19" stroke="#424248" stroke-width="1.21" stroke-miterlimit="10"/>
<path d="M133.16 51.1504H117.45V78.1404H133.16V51.1504Z" stroke="#424248" stroke-width="1.21" stroke-miterlimit="10"/>
<path d="M117.45 64.6504H133.16" stroke="#424248" stroke-width="1.21" stroke-miterlimit="10"/>
<path d="M64.1799 84.7901V33.8301" stroke="#424248" stroke-miterlimit="10"/>
<path d="M105.47 84.7901V33.8301" stroke="#424248" stroke-miterlimit="10"/>
<path d="M64.1699 33.8293L84.8199 5.0293L105.47 33.8293H64.1699Z" fill="#FFBF00" stroke="#424248" stroke-miterlimit="10"/>
<path d="M84.82 21.1702C86.1123 21.1702 87.16 20.1226 87.16 18.8302C87.16 17.5379 86.1123 16.4902 84.82 16.4902C83.5276 16.4902 82.48 17.5379 82.48 18.8302C82.48 20.1226 83.5276 21.1702 84.82 21.1702Z" fill="#023DA7" stroke="#424248" stroke-width="1.21" stroke-miterlimit="10"/>
<path d="M152.91 90.6191C152.416 90.6215 151.927 90.72 151.47 90.9091V90.8591C151.471 90.3698 151.376 89.885 151.19 89.4325C151.003 88.98 150.73 88.5687 150.384 88.2222C150.038 87.8757 149.628 87.6008 149.176 87.4133C148.724 87.2257 148.239 87.1291 147.75 87.1291C147.334 87.1346 146.922 87.209 146.53 87.3491C146.353 86.4821 145.872 85.7068 145.174 85.1624C144.477 84.6179 143.608 84.34 142.724 84.3785C141.839 84.4171 140.998 84.7696 140.35 85.3727C139.703 85.9758 139.291 86.79 139.19 87.6691C138.615 87.3166 137.954 87.1298 137.28 87.1291C136.291 87.1291 135.342 87.5221 134.643 88.2216C133.943 88.9211 133.55 89.8699 133.55 90.8591C133.55 90.8591 133.55 90.8591 133.55 90.9291C133.087 90.7241 132.586 90.6185 132.08 90.6191C131.091 90.6191 130.142 91.0121 129.443 91.7116C128.743 92.4111 128.35 93.3599 128.35 94.3491C128.35 95.3384 128.743 96.2871 129.443 96.9866C130.142 97.6862 131.091 98.0791 132.08 98.0791H152.9C153.889 98.0791 154.838 97.6862 155.538 96.9866C156.237 96.2871 156.63 95.3384 156.63 94.3491C156.63 93.3599 156.237 92.4111 155.538 91.7116C154.838 91.0121 153.889 90.6191 152.9 90.6191H152.91Z" stroke="#424248" stroke-miterlimit="10"/>
<path d="M36.4301 90.6191C35.9391 90.6215 35.4533 90.72 35.0001 90.9091V90.8591C35.0001 89.8699 34.6071 88.9211 33.9076 88.2216C33.2081 87.5221 32.2594 87.1291 31.2701 87.1291C30.8542 87.1356 30.4421 87.2099 30.0501 87.3491C29.8727 86.4821 29.392 85.7068 28.6943 85.1624C27.9967 84.6179 27.1278 84.34 26.2436 84.3785C25.3595 84.4171 24.5181 84.7696 23.8705 85.3727C23.2228 85.9758 22.8114 86.79 22.7101 87.6691C22.1389 87.317 21.4812 87.13 20.8101 87.1291C19.8209 87.1291 18.8721 87.5221 18.1726 88.2216C17.4731 88.9211 17.0801 89.8699 17.0801 90.8591C17.0801 90.8591 17.0801 90.8591 17.0801 90.9291C16.6169 90.725 16.1163 90.6194 15.6101 90.6191C15.1203 90.6191 14.6353 90.7156 14.1827 90.9031C13.7302 91.0905 13.319 91.3653 12.9726 91.7116C12.6263 92.058 12.3515 92.4692 12.1641 92.9217C11.9766 93.3743 11.8801 93.8593 11.8801 94.3491C11.8801 94.839 11.9766 95.324 12.1641 95.7765C12.3515 96.2291 12.6263 96.6403 12.9726 96.9866C13.319 97.333 13.7302 97.6078 14.1827 97.7952C14.6353 97.9827 15.1203 98.0791 15.6101 98.0791H36.4301C37.4194 98.0791 38.3681 97.6862 39.0676 96.9866C39.7671 96.2871 40.1601 95.3384 40.1601 94.3491C40.1601 93.3599 39.7671 92.4111 39.0676 91.7116C38.3681 91.0121 37.4194 90.6191 36.4301 90.6191Z" stroke="#424248" stroke-linecap="round" stroke-linejoin="round"/>
<path d="M180 74.4995C182 69.4995 180.036 66.074 178.902 64.6113C175.345 60.6276 169.232 60.2815 165.249 63.8384C164.499 64.5591 162.8 66.7005 162 69.5005" stroke="#424248" stroke-width="1.21" stroke-miterlimit="10"/>
<path d="M166.5 77C168.405 80.0463 173.952 82.8489 177 77" stroke="#424248"/>
<path d="M171.69 80.7305V98.0805" stroke="#424248" stroke-width="1.21" stroke-miterlimit="10"/>
<path d="M172 89L164 81" stroke="#424248" stroke-width="1.21" stroke-miterlimit="10"/>
<path d="M178 83L172 89" stroke="#424248" stroke-width="1.21" stroke-miterlimit="10"/>
<path d="M153.64 75.9909C153.64 74.699 154.023 73.4361 154.741 72.362C155.459 71.288 156.48 70.451 157.674 69.957C158.867 69.4631 160.181 69.3344 161.448 69.5871C162.715 69.8399 163.878 70.4628 164.791 71.3771C165.704 72.2913 166.325 73.4558 166.576 74.7231C166.827 75.9905 166.696 77.3038 166.2 78.4968C165.704 79.6898 164.866 80.709 163.791 81.4253C162.716 82.1416 161.452 82.5229 160.16 82.5209C159.303 82.5209 158.454 82.352 157.663 82.0237C156.871 81.6954 156.152 81.2142 155.546 80.6077C154.941 80.0012 154.461 79.2813 154.134 78.4891C153.807 77.6969 153.639 76.848 153.64 75.9909Z" stroke="#424248" stroke-width="1.21" stroke-miterlimit="10"/>
<path d="M176.43 79.2894C176.43 78.3143 176.719 77.3612 177.261 76.5504C177.803 75.7397 178.572 75.1078 179.473 74.7347C180.374 74.3615 181.365 74.2639 182.322 74.4541C183.278 74.6443 184.157 75.1139 184.846 75.8033C185.535 76.4928 186.005 77.3713 186.195 78.3276C186.385 79.2839 186.288 80.2752 185.915 81.176C185.542 82.0768 184.91 82.8468 184.099 83.3885C183.288 83.9302 182.335 84.2194 181.36 84.2194C180.052 84.2194 178.798 83.7 177.874 82.7754C176.949 81.8509 176.43 80.5969 176.43 79.2894Z" stroke="#424248" stroke-width="1.21" stroke-miterlimit="10"/>
<path d="M422.45 90.6191C421.956 90.6215 421.467 90.72 421.01 90.9091C421.01 90.9091 421.01 90.9091 421.01 90.8591C421.01 89.8699 420.617 88.9211 419.918 88.2216C419.218 87.5221 418.269 87.1291 417.28 87.1291C416.864 87.1346 416.452 87.209 416.06 87.3491C415.883 86.4821 415.402 85.7068 414.704 85.1624C414.007 84.6179 413.138 84.34 412.254 84.3785C411.37 84.4171 410.528 84.7696 409.88 85.3727C409.233 85.9758 408.821 86.79 408.72 87.6691C408.145 87.3166 407.484 87.1298 406.81 87.1291C405.821 87.1291 404.872 87.5221 404.173 88.2216C403.473 88.9211 403.08 89.8699 403.08 90.8591C403.08 90.8591 403.08 90.8591 403.08 90.9291C402.617 90.7241 402.116 90.6185 401.61 90.6191C400.621 90.6191 399.672 91.0121 398.973 91.7116C398.273 92.4111 397.88 93.3599 397.88 94.3491C397.88 95.3384 398.273 96.2871 398.973 96.9866C399.672 97.6862 400.621 98.0791 401.61 98.0791H422.43C422.92 98.0791 423.405 97.9827 423.858 97.7952C424.31 97.6078 424.721 97.333 425.068 96.9866C425.414 96.6403 425.689 96.2291 425.876 95.7765C426.064 95.324 426.16 94.839 426.16 94.3491C426.16 93.8593 426.064 93.3743 425.876 92.9217C425.689 92.4692 425.414 92.058 425.068 91.7116C424.721 91.3653 424.31 91.0905 423.858 90.9031C423.405 90.7156 422.92 90.6191 422.43 90.6191H422.45Z" stroke="#424248" stroke-width="1.21" stroke-miterlimit="10"/>
<path d="M714.58 98.3694V39.3594H611.07V74.5M611.07 98.5V84" stroke="#424248" stroke-linecap="round" stroke-linejoin="round"/>
<path d="M698.87 5H626.78L611.07 39.36H714.58L698.87 5Z" fill="#023DA7" stroke="#424248" stroke-linecap="round" stroke-linejoin="round"/>
<path d="M714.58 39.3594H611.07V43.6794H714.58V39.3594Z" fill="#FFBF00" stroke="#424248" stroke-miterlimit="10"/>
<path d="M681.55 39.3602V93.9402H644.09V39.3602L662.82 19.4102L681.55 39.3602Z" stroke="#424248" stroke-linecap="round" stroke-linejoin="round"/>
<path d="M670.98 60.3906H654.67V94.0206H670.98V60.3906Z" fill="#FFBF00" stroke="#424248" stroke-miterlimit="10"/>
<path d="M657.53 74.3906V78.8206" stroke="#424248" stroke-miterlimit="10"/>
<path d="M681.55 93.9395H644.09V98.3695H681.55V93.9395Z" fill="#424248" stroke="#424248" stroke-miterlimit="10"/>
<path d="M704.65 60.3906H688.68V87.3806H704.65V60.3906Z" stroke="#424248" stroke-miterlimit="10"/>
<path d="M688.68 69.3594H704.64" stroke="#424248" stroke-miterlimit="10"/>
<path d="M696.66 60.3906V87.3806" stroke="#424248" stroke-miterlimit="10"/>
<path d="M636.97 60.3906H621V87.3806H636.97V60.3906Z" stroke="#424248" stroke-miterlimit="10"/>
<path d="M621 69.3594H636.97" stroke="#424248" stroke-miterlimit="10"/>
<path d="M628.99 60.3906V87.3806" stroke="#424248" stroke-miterlimit="10"/>
<path d="M653.21 29.6505L662.82 19.8105L672.43 29.6505H653.21Z" fill="#FFBF00"/>
<path d="M653.21 29.6504H672.43" stroke="#424248" stroke-miterlimit="10"/>
<path d="M662.82 19.8105V29.6505" stroke="#424248" stroke-miterlimit="10"/>
<path d="M659.2 23.0293V29.6493" stroke="#424248" stroke-miterlimit="10"/>
<path d="M666.45 23.0293V29.6493" stroke="#424248" stroke-miterlimit="10"/>
<path d="M453.42 29.2L516.06 5L578.69 29.2V98.37H453.42V29.2Z" stroke="#424248" stroke-miterlimit="10"/>
<path d="M524.21 61.6504H507.9V95.2804H524.21V61.6504Z" fill="#FFBF00" stroke="#424248" stroke-miterlimit="10"/>
<path d="M510.76 75.6504V80.0804" stroke="#424248" stroke-miterlimit="10"/>
<path d="M567.56 67.4395H551.25V83.7495H567.56V67.4395Z" stroke="#424248" stroke-miterlimit="10"/>
<path d="M559.41 67.4395V83.7594" stroke="#424248" stroke-miterlimit="10"/>
<path d="M567.56 75.5996H551.25" stroke="#424248" stroke-miterlimit="10"/>
<path d="M535.39 28.9199H519.08V45.2299H535.39V28.9199Z" stroke="#424248" stroke-miterlimit="10"/>
<path d="M527.23 28.9199V45.2399" stroke="#424248" stroke-miterlimit="10"/>
<path d="M535.39 37.0801H519.08" stroke="#424248" stroke-miterlimit="10"/>
<path d="M559.41 28.9199H551.25V45.2299H559.41V28.9199Z" stroke="#424248" stroke-miterlimit="10"/>
<path d="M559.41 37.0801H551.25" stroke="#424248" stroke-miterlimit="10"/>
<path d="M480.86 28.9199H472.7V45.2299H480.86V28.9199Z" stroke="#424248" stroke-miterlimit="10"/>
<path d="M480.86 37.0801H472.7" stroke="#424248" stroke-miterlimit="10"/>
<path d="M513.03 28.9199H496.72V45.2299H513.03V28.9199Z" stroke="#424248" stroke-miterlimit="10"/>
<path d="M504.88 28.9199V45.2399" stroke="#424248" stroke-miterlimit="10"/>
<path d="M513.03 37.0801H496.72" stroke="#424248" stroke-miterlimit="10"/>
<path d="M480.86 67.4395H464.55V83.7495H480.86V67.4395Z" stroke="#424248" stroke-miterlimit="10"/>
<path d="M472.7 67.4395V83.7594" stroke="#424248" stroke-miterlimit="10"/>
<path d="M480.86 75.5996H464.55" stroke="#424248" stroke-miterlimit="10"/>
<path d="M540.4 95.291H491.85V98.261H540.4V95.291Z" fill="#424248" stroke="#424248" stroke-miterlimit="10"/>
<path d="M543.62 24.7403L549.04 19.3203" stroke="#424248" stroke-miterlimit="10"/>
<path d="M540.4 24.7403L534.97 19.3203" stroke="#424248" stroke-miterlimit="10"/>
<path d="M543.62 19.4102H540.4V52.2302H543.62V19.4102Z" fill="#023DA7" stroke="#424248" stroke-miterlimit="10"/>
<path d="M491.85 24.7403L497.28 19.3203" stroke="#424248" stroke-miterlimit="10"/>
<path d="M488.63 24.7403L483.2 19.3203" stroke="#424248" stroke-miterlimit="10"/>
<path d="M491.85 19.4102H488.63V52.2302H491.85V19.4102Z" fill="#023DA7" stroke="#424248" stroke-miterlimit="10"/>
<path d="M545 16.3906H487.2L478.99 19.4106H553.31L545 16.3906Z" fill="#023DA7" stroke="#424248" stroke-miterlimit="10"/>
<path d="M543.62 60.9007L549.04 55.4707" stroke="#424248" stroke-miterlimit="10"/>
<path d="M540.4 60.9007L534.97 55.4707" stroke="#424248" stroke-miterlimit="10"/>
<path d="M543.62 55.4707H540.4V98.3707H543.62V55.4707Z" fill="#023DA7" stroke="#424248" stroke-miterlimit="10"/>
<path d="M491.85 60.9007L497.28 55.4707" stroke="#424248" stroke-miterlimit="10"/>
<path d="M488.63 60.9007L483.2 55.4707" stroke="#424248" stroke-miterlimit="10"/>
<path d="M491.85 55.4707H488.63V98.3707H491.85V55.4707Z" fill="#023DA7" stroke="#424248" stroke-miterlimit="10"/>
<path d="M578.69 52.3398H453.43V55.3598H578.69V52.3398Z" fill="#023DA7" stroke="#424248" stroke-miterlimit="10"/>
<path d="M835.89 39.3594H793.22H750.55V98.3694H835.89V39.3594Z" stroke="#424248" stroke-linecap="round" stroke-linejoin="round"/>
<path d="M750.55 39.36L793.84 5L835.89 39.36H750.55Z" fill="#023DA7" stroke="#424248" stroke-linecap="round" stroke-linejoin="round"/>
<path d="M801.37 64.7402H785.06V98.3703H801.37V64.7402Z" fill="#FFBF00" stroke="#424248" stroke-miterlimit="10"/>
<path d="M787.93 78.7305V83.1705" stroke="#424248" stroke-miterlimit="10"/>
<path d="M826.34 64.7402H810.62V91.7302H826.34V64.7402Z" stroke="#424248" stroke-miterlimit="10"/>
<path d="M810.62 73.6992H826.35" stroke="#424248" stroke-miterlimit="10"/>
<path d="M810.62 83.3691H826.35" stroke="#424248" stroke-miterlimit="10"/>
<path d="M818.49 65.2402V91.7202" stroke="#424248" stroke-miterlimit="10"/>
<path d="M776.09 64.7402H760.37V91.7302H776.09V64.7402Z" stroke="#424248" stroke-miterlimit="10"/>
<path d="M760.37 73.6992H776.1" stroke="#424248" stroke-miterlimit="10"/>
<path d="M760.37 83.3691H776.1" stroke="#424248" stroke-miterlimit="10"/>
<path d="M768.24 65.2402V91.7202" stroke="#424248" stroke-miterlimit="10"/>
<path d="M799.55 45.7207H786.89V58.3807H799.55V45.7207Z" stroke="#424248" stroke-miterlimit="10"/>
<path d="M793.22 45.7207V58.3807" stroke="#424248" stroke-miterlimit="10"/>
<path d="M799.55 52.0508H786.89" stroke="#424248" stroke-miterlimit="10"/>
<path d="M826.35 45.7207H813.69V58.3807H826.35V45.7207Z" stroke="#424248" stroke-miterlimit="10"/>
<path d="M820.02 45.7207V58.3807" stroke="#424248" stroke-miterlimit="10"/>
<path d="M826.35 52.0508H813.69" stroke="#424248" stroke-miterlimit="10"/>
<path d="M773.03 45.7207H760.37V58.3807H773.03V45.7207Z" stroke="#424248" stroke-miterlimit="10"/>
<path d="M766.71 45.7207V58.3807" stroke="#424248" stroke-miterlimit="10"/>
<path d="M773.04 52.0508H760.37" stroke="#424248" stroke-miterlimit="10"/>
<path d="M608 74.4995C610 69.4995 608.036 66.074 606.902 64.6113C603.345 60.6276 597.232 60.2815 593.249 63.8384C592.499 64.5591 590.8 66.7005 590 69.5005" stroke="#424248" stroke-width="1.21" stroke-miterlimit="10"/>
<path d="M594.5 77C596.405 80.0463 601.952 82.8489 605 77" stroke="#424248"/>
<path d="M599.69 80.7305V98.0805" stroke="#424248" stroke-width="1.21" stroke-miterlimit="10"/>
<path d="M600 89L592 81" stroke="#424248" stroke-width="1.21" stroke-miterlimit="10"/>
<path d="M606 83L600 89" stroke="#424248" stroke-width="1.21" stroke-miterlimit="10"/>
<path d="M581.64 75.9909C581.64 74.699 582.023 73.4361 582.741 72.362C583.459 71.288 584.48 70.451 585.674 69.957C586.867 69.4631 588.181 69.3344 589.448 69.5871C590.715 69.8399 591.878 70.4628 592.791 71.3771C593.704 72.2913 594.325 73.4558 594.576 74.7231C594.827 75.9905 594.696 77.3038 594.2 78.4968C593.704 79.6898 592.866 80.709 591.791 81.4253C590.716 82.1416 589.452 82.5229 588.16 82.5209C587.303 82.5209 586.454 82.352 585.663 82.0237C584.871 81.6954 584.152 81.2142 583.546 80.6077C582.941 80.0012 582.461 79.2813 582.134 78.4891C581.807 77.6969 581.639 76.848 581.64 75.9909Z" stroke="#424248" stroke-width="1.21" stroke-miterlimit="10"/>
<path d="M604.43 79.2894C604.43 78.3143 604.719 77.3612 605.261 76.5504C605.803 75.7397 606.572 75.1078 607.473 74.7347C608.374 74.3615 609.365 74.2639 610.322 74.4541C611.278 74.6443 612.157 75.1139 612.846 75.8033C613.535 76.4928 614.005 77.3713 614.195 78.3276C614.385 79.2839 614.288 80.2752 613.915 81.176C613.542 82.0768 612.91 82.8468 612.099 83.3885C611.288 83.9302 610.335 84.2194 609.36 84.2194C608.052 84.2194 606.798 83.7 605.874 82.7754C604.949 81.8509 604.43 80.5969 604.43 79.2894Z" stroke="#424248" stroke-width="1.21" stroke-miterlimit="10"/>
<path d="M722.29 74.4995C720.29 69.4995 722.254 66.074 723.388 64.6113C726.945 60.6276 733.058 60.2815 737.041 63.8384C737.791 64.5591 739.49 66.7005 740.29 69.5005" stroke="#424248" stroke-width="1.21" stroke-miterlimit="10"/>
<path d="M735.79 77C733.885 80.0463 728.338 82.8489 725.29 77" stroke="#424248"/>
<path d="M730.6 80.7305V98.0805" stroke="#424248" stroke-width="1.21" stroke-miterlimit="10"/>
<path d="M730.29 89L738.29 81" stroke="#424248" stroke-width="1.21" stroke-miterlimit="10"/>
<path d="M724.29 83L730.29 89" stroke="#424248" stroke-width="1.21" stroke-miterlimit="10"/>
<path d="M748.65 75.9909C748.65 74.699 748.267 73.4361 747.549 72.362C746.831 71.288 745.81 70.451 744.617 69.957C743.423 69.4631 742.109 69.3344 740.842 69.5871C739.575 69.8399 738.412 70.4628 737.499 71.3771C736.586 72.2913 735.965 73.4558 735.714 74.7231C735.463 75.9905 735.594 77.3038 736.09 78.4968C736.586 79.6898 737.424 80.709 738.499 81.4253C739.574 82.1416 740.838 82.5229 742.13 82.5209C742.987 82.5209 743.836 82.352 744.627 82.0237C745.419 81.6954 746.138 81.2142 746.744 80.6077C747.349 80.0012 747.829 79.2813 748.156 78.4891C748.484 77.6969 748.651 76.848 748.65 75.9909Z" stroke="#424248" stroke-width="1.21" stroke-miterlimit="10"/>
<path d="M725.86 79.2894C725.86 78.3143 725.571 77.3612 725.029 76.5504C724.488 75.7397 723.718 75.1078 722.817 74.7347C721.916 74.3615 720.925 74.2639 719.968 74.4541C719.012 74.6443 718.134 75.1139 717.444 75.8033C716.755 76.4928 716.285 77.3713 716.095 78.3276C715.905 79.2839 716.002 80.2752 716.375 81.176C716.749 82.0768 717.38 82.8468 718.191 83.3885C719.002 83.9302 719.955 84.2194 720.93 84.2194C722.238 84.2194 723.492 83.7 724.416 82.7754C725.341 81.8509 725.86 80.5969 725.86 79.2894Z" stroke="#424248" stroke-width="1.21" stroke-miterlimit="10"/>
</svg>
