<svg width="348" height="280" viewBox="0 0 348 280" fill="none" xmlns="http://www.w3.org/2000/svg">
<path d="M229.385 255.766H208.904V255.971H229.385V255.766Z" fill="#F4F3F2"/>
<path d="M142.106 260.773H103.564V260.979H142.106V260.773Z" fill="#F4F3F2"/>
<path d="M-0.000419617 250.164H98.3779L98.3779 32.5978H-0.000419617L-0.000419617 250.164Z" fill="#F4F3F2"/>
<path d="M0.00881195 250.164H93.7217L93.7217 32.5978H0.00881195L0.00881195 250.164Z" fill="#F4F3F2"/>
<path d="M88.7832 245.223L88.7832 37.5312L4.94438 37.5313L4.94438 245.223H88.7832Z" fill="#F4F3F2"/>
<path d="M32.0324 135.48H14.9421C14.3601 135.478 13.8025 135.246 13.391 134.834C12.9794 134.422 12.7473 133.865 12.7451 133.283C12.7473 132.701 12.9794 132.143 13.391 131.732C13.8025 131.32 14.3601 131.088 14.9421 131.086H32.0324C32.6144 131.088 33.172 131.32 33.5835 131.732C33.9951 132.143 34.2272 132.701 34.2294 133.283C34.2272 133.865 33.9951 134.422 33.5835 134.834C33.172 135.246 32.6144 135.478 32.0324 135.48Z" fill="white"/>
<path d="M6.22852 245.216L6.22852 37.5234H4.94489L4.94489 245.216H6.22852Z" fill="#F4F3F2"/>
<path d="M144.476 246.039H159.122V182.516H144.476V246.039Z" fill="#F4F3F2"/>
<path d="M84.078 250.062H156.307V246.039H84.078V250.062Z" fill="#F4F3F2"/>
<path d="M144.474 182.508H81.2637V246.031H144.474V182.508Z" fill="#F4F3F2"/>
<path d="M138.705 190.328H87.0146V211.162H138.705V190.328Z" fill="#F4F3F2"/>
<path d="M138.705 217.375H87.0146V238.209H138.705V217.375Z" fill="#F4F3F2"/>
<path d="M107.059 192.082H118.669C119.046 192.08 119.407 191.929 119.674 191.662C119.94 191.396 120.091 191.035 120.093 190.658C120.093 190.28 119.943 189.917 119.677 189.649C119.41 189.381 119.048 189.229 118.669 189.227H107.059C106.681 189.229 106.319 189.381 106.052 189.649C105.785 189.917 105.636 190.28 105.636 190.658C105.638 191.035 105.789 191.396 106.055 191.662C106.322 191.929 106.682 192.08 107.059 192.082Z" fill="#F4F3F2"/>
<path d="M107.059 219.137H118.669C118.858 219.136 119.043 219.098 119.217 219.025C119.39 218.952 119.547 218.846 119.679 218.712C119.812 218.578 119.916 218.42 119.987 218.246C120.058 218.072 120.094 217.885 120.093 217.697C120.091 217.32 119.94 216.958 119.674 216.69C119.408 216.422 119.047 216.27 118.669 216.266H107.059C106.682 216.27 106.321 216.422 106.055 216.69C105.788 216.958 105.638 217.32 105.636 217.697C105.635 217.885 105.671 218.072 105.742 218.246C105.813 218.42 105.917 218.578 106.049 218.712C106.181 218.846 106.339 218.952 106.512 219.025C106.685 219.098 106.871 219.136 107.059 219.137Z" fill="#F4F3F2"/>
<path d="M117.683 181.262C117.395 181.26 117.12 181.145 116.917 180.942C116.714 180.738 116.599 180.463 116.597 180.176V147.164C116.599 146.877 116.714 146.603 116.918 146.401C117.121 146.199 117.396 146.086 117.683 146.086C117.969 146.086 118.244 146.199 118.448 146.401C118.651 146.603 118.767 146.877 118.769 147.164V180.176C118.767 180.463 118.652 180.738 118.448 180.942C118.245 181.145 117.97 181.26 117.683 181.262Z" fill="#F4F3F2"/>
<path d="M127.844 179.977H107.52V182.536H127.844V179.977Z" fill="#F4F3F2"/>
<path d="M123.311 161.514C123.167 161.514 123.028 161.457 122.927 161.355C122.825 161.253 122.768 161.115 122.768 160.971V144.465C122.768 144.321 122.825 144.183 122.927 144.081C123.028 143.979 123.167 143.922 123.311 143.922C123.455 143.922 123.593 143.979 123.695 144.081C123.797 144.183 123.854 144.321 123.854 144.465V160.963C123.855 161.035 123.842 161.106 123.815 161.173C123.788 161.24 123.748 161.301 123.698 161.352C123.647 161.403 123.587 161.444 123.52 161.472C123.454 161.5 123.383 161.514 123.311 161.514Z" fill="#F4F3F2"/>
<path d="M101.878 150.175C101.878 150.175 102.281 134.648 117.685 134.648C133.088 134.648 133.483 150.175 133.483 150.175H101.878Z" fill="#F4F3F2"/>
<path d="M235.216 172.156C235.652 172.156 236.097 172.156 236.541 172.197C241.092 172.526 245.371 174.488 248.59 177.723C251.809 180.957 253.752 185.245 254.059 189.798C254.188 191.866 253.983 193.942 253.45 195.944C251.388 203.974 250.392 212.241 250.488 220.531V244.689C250.488 245.529 250.154 246.335 249.56 246.929C248.966 247.523 248.16 247.857 247.32 247.857H170.673V172.156H235.216Z" fill="#F4F3F2"/>
<path d="M151.789 191.038C151.797 188.353 152.378 185.702 153.492 183.26C154.606 180.818 156.228 178.641 158.25 176.876C160.272 175.11 162.648 173.796 165.218 173.022C167.788 172.247 170.493 172.03 173.154 172.384C175.815 172.738 178.37 173.655 180.648 175.075C182.926 176.494 184.875 178.383 186.365 180.616C187.855 182.849 188.852 185.374 189.289 188.022C189.726 190.67 189.593 193.382 188.899 195.975C186.843 204.006 185.85 212.272 185.945 220.561V244.687C185.945 245.103 185.863 245.516 185.703 245.901C185.543 246.286 185.309 246.635 185.014 246.93C184.719 247.224 184.369 247.457 183.984 247.616C183.598 247.774 183.186 247.856 182.769 247.854H158.569C157.729 247.854 156.923 247.521 156.329 246.927C155.735 246.333 155.401 245.527 155.401 244.687V219.121C155.472 211.344 154.486 203.594 152.472 196.082C152.018 194.439 151.789 192.742 151.789 191.038Z" fill="#F4F3F2"/>
<path d="M196.694 247.859H265.491V201.896H196.694V247.859Z" fill="#F4F3F2"/>
<path d="M322.347 212.289H230.263V141.788C230.263 138 231.768 134.367 234.447 131.688C237.126 129.009 240.759 127.504 244.547 127.504L308.062 127.504C311.851 127.504 315.484 129.009 318.163 131.688C320.842 134.367 322.347 138 322.347 141.788V212.289Z" fill="#F4F3F2"/>
<path d="M304.352 212.289H212.268V141.097C212.268 137.49 213.701 134.03 216.252 131.48C218.802 128.929 222.262 127.496 225.869 127.496L290.717 127.496C294.324 127.496 297.784 128.929 300.335 131.48C302.886 134.03 304.319 137.49 304.319 141.097V212.289H304.352Z" fill="#F4F3F2"/>
<path d="M260.998 216.422H197.582C196.491 216.422 195.444 215.988 194.673 215.217C193.901 214.445 193.468 213.399 193.468 212.308V201.849C193.468 200.758 193.901 199.712 194.673 198.94C195.444 198.169 196.491 197.735 197.582 197.735H260.998C261.327 197.735 261.643 197.866 261.876 198.099C262.109 198.332 262.24 198.648 262.24 198.978V215.179C262.24 215.509 262.109 215.825 261.876 216.058C261.643 216.291 261.327 216.422 260.998 216.422Z" fill="#F4F3F2"/>
<path d="M329.137 172.156C329.573 172.156 330.009 172.156 330.461 172.197C333.237 172.401 335.934 173.215 338.36 174.581C340.785 175.946 342.88 177.83 344.494 180.098C346.108 182.366 347.202 184.962 347.698 187.701C348.194 190.44 348.079 193.255 347.362 195.944C345.299 203.977 344.303 212.246 344.4 220.539V244.689C344.4 245.106 344.318 245.519 344.158 245.904C343.998 246.288 343.764 246.638 343.469 246.932C343.174 247.227 342.824 247.46 342.439 247.618C342.053 247.777 341.641 247.858 341.224 247.857H264.585V172.156H329.137Z" fill="#F4F3F2"/>
<path d="M245.708 191.042C245.675 186.121 247.565 181.381 250.976 177.834C254.386 174.286 259.048 172.21 263.967 172.049C268.885 171.888 273.672 173.655 277.308 176.972C280.943 180.289 283.139 184.895 283.427 189.808C283.557 191.876 283.351 193.952 282.818 195.955C280.756 203.984 279.76 212.251 279.856 220.541V244.691C279.856 245.531 279.522 246.337 278.928 246.931C278.334 247.525 277.528 247.859 276.688 247.859H252.48C252.064 247.859 251.652 247.777 251.268 247.618C250.884 247.459 250.534 247.225 250.24 246.931C249.946 246.637 249.713 246.288 249.554 245.904C249.394 245.519 249.312 245.107 249.312 244.691V219.126C249.382 211.349 248.399 203.599 246.391 196.086C245.938 194.443 245.708 192.747 245.708 191.042Z" fill="#F4F3F2"/>
<path d="M172.015 250.156H327.787C328.089 250.156 328.388 250.096 328.667 249.98C328.946 249.864 329.2 249.694 329.413 249.48C329.626 249.266 329.795 249.012 329.91 248.733C330.025 248.453 330.083 248.154 330.082 247.852H169.72C169.719 248.154 169.777 248.453 169.892 248.733C170.007 249.012 170.176 249.266 170.389 249.48C170.603 249.694 170.856 249.864 171.135 249.98C171.414 250.096 171.713 250.156 172.015 250.156Z" fill="#F4F3F2"/>
<path d="M264.272 73.6406H314.374V18.996L264.272 18.996V73.6406Z" fill="#F4F3F2"/>
<path d="M261.285 73.6406H312.688V18.996L261.285 18.996V73.6406Z" fill="#F4F3F2"/>
<path d="M308.376 69.3346V23.2969L265.58 23.2969V69.3346H308.376Z" fill="white"/>
<path d="M286.98 34.6719L298.681 54.9383H275.279L286.98 34.6719Z" fill="#F4F3F2"/>
<path d="M193.983 105.539H244.086V50.8945L193.983 50.8945V105.539Z" fill="#F4F3F2"/>
<path d="M190.997 105.539H242.399V50.8945L190.997 50.8945V105.539Z" fill="#F4F3F2"/>
<path d="M238.088 101.233V55.1953H195.292V101.233H238.088Z" fill="white"/>
<path d="M211.462 86.4255L206.385 77.6293C205.857 76.7112 205.58 75.6703 205.581 74.6111C205.582 73.5519 205.862 72.5116 206.392 71.5947C206.922 70.6777 207.684 69.9163 208.602 69.3868C209.519 68.8574 210.56 68.5785 211.619 68.5781H221.797C222.856 68.5795 223.896 68.8589 224.813 69.3884C225.73 69.9179 226.492 70.6788 227.023 71.5952C227.554 72.5116 227.834 73.5512 227.837 74.6102C227.84 75.6691 227.565 76.7102 227.039 77.6293L221.962 86.4255C221.433 87.3506 220.668 88.1194 219.747 88.6541C218.825 89.1888 217.778 89.4704 216.712 89.4704C215.646 89.4704 214.6 89.1888 213.678 88.6541C212.756 88.1194 211.992 87.3506 211.462 86.4255Z" fill="#F4F3F2"/>
<path d="M217.271 17.2031H27.5908L40.0733 275.533H229.754L217.271 17.2031Z" fill="#023DA7"/>
<path opacity="0.2" d="M217.271 17.2031H27.5908L40.0733 275.533H229.754L217.271 17.2031Z" fill="#333333"/>
<path d="M219.026 17.2031H29.3457L41.8364 275.533H231.517L219.026 17.2031Z" fill="#023DA7"/>
<path opacity="0.2" d="M209.01 25.8984H38.0166L49.9642 263.863L198.651 263.665L223.361 241.753L209.01 25.8984Z" fill="#333333"/>
<path d="M210.319 25.8984C212.142 97.1613 217.897 168.269 227.557 238.898C214.008 248.223 200.527 257.549 187.115 266.874H59.2293C47.159 187.068 40.0744 106.586 38.0166 25.8984H210.319Z" fill="white"/>
<path d="M227.554 238.895C214.004 248.22 200.524 257.546 187.111 266.871C190.041 254.529 193.093 242.186 196.27 229.844L227.554 238.895Z" fill="#F4F3F2"/>
<path d="M84.3825 47.6632C84.7062 56.3797 85.0847 65.0963 85.518 73.8129H59.3765C58.9377 65.0908 58.5592 56.3743 58.241 47.6632H84.3825ZM87.0567 44.8984H55.3857C55.7533 55.4472 56.2113 66.0015 56.7599 76.5612H88.4309C87.8823 66.0069 87.4243 55.4527 87.0567 44.8984Z" fill="#023DA7"/>
<path d="M191.203 57.4861H101.662C101.58 55.5113 101.503 53.542 101.432 51.5781H190.964C191.041 53.5474 191.121 55.5168 191.203 57.4861Z" fill="#F4F3F2"/>
<path d="M172.287 69.9084H102.214C102.123 67.9336 102.025 65.967 101.942 63.9922H172.007C172.097 65.967 172.188 67.9418 172.287 69.9084Z" fill="#F4F3F2"/>
<path d="M86.9501 98.8815C87.4987 107.604 88.1103 116.326 88.7851 125.048H62.6353C61.9606 116.326 61.3489 107.604 60.8004 98.8815H86.9501ZM89.5338 96.125H57.8711C58.5184 106.685 59.2562 117.244 60.0845 127.804H91.7884C90.9656 117.239 90.225 106.679 89.5668 96.125H89.5338Z" fill="#023DA7"/>
<path d="M137.373 108.705H104.459C104.328 106.73 104.188 104.764 104.064 102.789H136.978C137.101 104.764 137.233 106.73 137.373 108.705Z" fill="#F4F3F2"/>
<path d="M168.537 108.705H144.337C144.206 106.73 144.066 104.764 143.942 102.789H168.142C168.265 104.764 168.397 106.73 168.537 108.705Z" fill="#F4F3F2"/>
<path d="M183.726 121.135H105.367C105.219 119.168 105.079 117.193 104.931 115.227H183.289C183.438 117.193 183.577 119.168 183.726 121.135Z" fill="#F4F3F2"/>
<path d="M90.8758 150.116C91.6602 158.838 92.505 167.56 93.4101 176.282H67.2603C66.3552 167.56 65.5104 158.838 64.726 150.116H90.8758ZM93.3936 147.359H61.7227C62.6552 157.914 63.6755 168.476 64.7836 179.047H96.4546C95.3575 168.482 94.3372 157.919 93.3936 147.359Z" fill="#023DA7"/>
<path d="M198.839 166.461H109.29L109.882 172.377H199.432L198.839 166.461Z" fill="#F4F3F2"/>
<path d="M178.186 154.023H108.113C108.294 155.998 108.478 157.97 108.665 159.94H178.729C178.548 157.973 178.359 155.982 178.186 154.023Z" fill="#F4F3F2"/>
<path d="M96.1676 201.358C97.1879 210.08 98.2658 218.799 99.4013 227.516H73.2516C72.1161 218.794 71.0381 210.075 70.0178 201.358H96.1676ZM98.6361 198.602H66.9404C68.1473 209.139 69.4501 219.696 70.8489 230.273H102.487C101.099 219.713 99.7963 209.156 98.5785 198.602H98.6361Z" fill="#023DA7"/>
<path d="M203.769 211.182H114.219C113.981 209.207 113.742 207.24 113.512 205.266H203.053C203.291 207.24 203.522 209.207 203.769 211.182Z" fill="#F4F3F2"/>
<path d="M156.537 223.611H115.774C115.516 221.636 115.267 219.667 115.025 217.703H155.789C156.036 219.667 156.285 221.636 156.537 223.611Z" fill="#F4F3F2"/>
<path d="M180.878 223.603H163.277C163.019 221.628 162.77 219.659 162.528 217.695H180.129C180.376 219.662 180.655 221.628 180.878 223.603Z" fill="#F4F3F2"/>
<path d="M72.8624 70.0799L71.7021 68.2368C69.1678 64.2049 64.0004 60.6009 62.2148 59.5559L63.5478 57.1943C67.0509 59.3216 70.1809 62.0096 72.813 65.1512C76.7955 59.7204 82.687 54.1251 90.7508 48.0938L92.4541 50.3236C83.8472 56.7664 77.8241 62.6662 74.0226 68.3438L72.8624 70.0799Z" fill="#023DA7"/>
<path d="M75.9894 121.315L74.7798 119.464C72.1467 115.432 66.8806 111.828 65.0703 110.783L66.3293 108.421C69.8991 110.549 73.1026 113.239 75.8166 116.386C79.651 110.947 85.3862 105.352 93.2936 99.3125L95.0545 101.551C86.6204 108.002 80.7536 113.893 77.1084 119.579C76.7299 120.155 76.3596 120.731 75.9894 121.315Z" fill="#023DA7"/>
<path d="M80.5322 172.676L79.2733 170.8C76.525 166.768 71.1601 163.164 69.3252 162.111L70.5265 159.749C74.1501 161.887 77.42 164.574 80.2196 167.714C83.9141 162.283 89.5012 156.68 97.2358 150.648L99.0625 152.878C90.8341 159.329 85.0743 165.221 81.5937 170.907L80.5322 172.676Z" fill="#023DA7"/>
<path d="M163.484 252.673C158.63 252.673 155.832 250.879 153.363 249.299C150.895 247.72 148.772 246.362 144.674 246.362C140.577 246.362 138.75 247.785 136.816 249.299C134.883 250.813 132.513 252.681 127.658 252.673C122.803 252.665 120.006 250.879 117.545 249.299C115.085 247.72 112.962 246.362 108.856 246.362C104.75 246.362 102.932 247.785 100.998 249.299C99.0644 250.813 96.6947 252.681 91.8482 252.673C87.0017 252.665 84.1958 250.879 81.7273 249.299C79.2588 247.72 77.1441 246.362 73.0381 246.362C72.9312 245.539 72.816 244.782 72.709 243.992C77.5637 243.992 80.3531 245.786 82.8217 247.366C85.2902 248.946 87.4048 250.312 91.5026 250.312C95.6003 250.312 97.427 248.88 99.3607 247.366C101.294 245.852 103.672 243.992 108.527 243.992C113.382 243.992 116.163 245.786 118.631 247.366C121.1 248.946 123.223 250.312 127.321 250.312C131.418 250.312 133.245 248.88 135.179 247.366C137.112 245.852 139.515 244.033 144.345 244.033C149.175 244.033 151.989 245.827 154.458 247.407C156.926 248.987 159.041 250.353 163.147 250.353C163.254 251.101 163.377 251.883 163.484 252.673Z" fill="#F4F3F2"/>
<path d="M170.443 23.5996C167.662 16.1941 161.235 11.3393 154.323 11.3393H140.236C139.188 11.3302 138.165 11.0134 137.295 10.4283C136.424 9.84326 135.745 9.01559 135.341 8.04797C134.344 5.68449 132.678 3.66378 130.548 2.23413C128.418 0.804482 125.917 0.028184 123.352 0.000627216C120.871 -0.0251032 118.446 0.741431 116.43 2.18874C114.415 3.63604 112.913 5.68863 112.145 8.04797C111.833 9.01464 111.22 9.85596 110.395 10.4484C109.57 11.0408 108.577 11.353 107.562 11.3393H93.4829C86.5628 11.3393 80.6055 16.227 78.5484 23.5996L77.7256 26.5453H171.529L170.443 23.5996Z" fill="#333333"/>
<path d="M170.945 29.4409H78.6223C77.8437 29.4318 77.0974 29.1279 76.534 28.5904C75.9705 28.0529 75.6318 27.3218 75.586 26.5445C75.5658 26.171 75.6223 25.7973 75.7519 25.4465C75.8816 25.0956 76.0817 24.7751 76.3399 24.5045C76.5982 24.2339 76.9091 24.0191 77.2535 23.8732C77.5979 23.7273 77.9685 23.6535 78.3425 23.6563H170.665C171.442 23.6653 172.187 23.968 172.75 24.5038C173.314 25.0395 173.653 25.7686 173.701 26.5445C173.722 26.9186 173.667 27.2932 173.538 27.645C173.409 27.9968 173.209 28.3184 172.95 28.5899C172.692 28.8614 172.381 29.0769 172.036 29.2233C171.691 29.3697 171.319 29.4437 170.945 29.4409Z" fill="#023DA7"/>
<path opacity="0.2" d="M170.945 29.4409H78.6223C77.8437 29.4318 77.0974 29.1279 76.534 28.5904C75.9705 28.0529 75.6318 27.3218 75.586 26.5445C75.5658 26.171 75.6223 25.7973 75.7519 25.4465C75.8816 25.0956 76.0817 24.7751 76.3399 24.5045C76.5982 24.2339 76.9091 24.0191 77.2535 23.8732C77.5979 23.7273 77.9685 23.6535 78.3425 23.6563H170.665C171.442 23.6653 172.187 23.968 172.75 24.5038C173.314 25.0395 173.653 25.7686 173.701 26.5445C173.722 26.9186 173.667 27.2932 173.538 27.645C173.409 27.9968 173.209 28.3184 172.95 28.5899C172.692 28.8614 172.381 29.0769 172.036 29.2233C171.691 29.3697 171.319 29.4437 170.945 29.4409Z" fill="#023DA7"/>
<path d="M253.823 273.065H247.791L247.19 259.102H253.222L253.823 273.065Z" fill="#FEC3BD"/>
<path d="M290.017 273.065H283.986L280.958 259.102H286.981L290.017 273.065Z" fill="#FEC3BD"/>
<path d="M283.558 272.359H290.33C290.45 272.359 290.566 272.399 290.659 272.474C290.752 272.549 290.816 272.654 290.84 272.771L292.034 278.127C292.062 278.258 292.061 278.394 292.03 278.524C291.998 278.654 291.938 278.775 291.854 278.879C291.769 278.983 291.662 279.066 291.541 279.122C291.419 279.179 291.287 279.207 291.153 279.205C288.792 279.164 287.64 279.024 284.661 279.024C282.826 279.024 279.049 279.214 276.523 279.214C273.997 279.214 273.66 276.745 274.696 276.482C279.345 275.47 281.09 274.071 282.579 272.73C282.85 272.491 283.198 272.36 283.558 272.359Z" fill="#333333"/>
<path d="M247.832 272.359H254.414C254.534 272.359 254.65 272.399 254.743 272.474C254.836 272.549 254.9 272.654 254.925 272.771L256.118 278.127C256.147 278.254 256.148 278.385 256.121 278.511C256.093 278.638 256.038 278.757 255.96 278.86C255.881 278.963 255.781 279.047 255.666 279.107C255.551 279.167 255.424 279.2 255.295 279.205C252.917 279.164 249.486 279.024 246.499 279.024C243.01 279.024 239.998 279.214 235.901 279.214C233.432 279.214 232.741 276.745 233.778 276.482C238.493 275.453 242.343 275.346 246.416 272.828C246.838 272.548 247.327 272.386 247.832 272.359Z" fill="#333333"/>
<path d="M259.649 53.1328C258.826 57.5432 258.349 63.0069 261.434 65.9526C261.434 65.9526 259.665 70.4288 251.47 70.4288C243.982 70.4288 247.734 65.9526 247.734 65.9526C252.671 64.776 252.391 58.6952 251.536 55.2557L259.649 53.1328Z" fill="#FEC3BD"/>
<path d="M245.378 66.5493C245.542 65.4467 247.468 64.1795 249.657 63.7023C251.845 63.2251 260.255 62.1554 262.822 63.2251C265.389 64.2947 262.378 67.4297 262.378 67.4297L245.378 66.5493Z" fill="#023DA7"/>
<path opacity="0.4" d="M245.378 66.5493C245.542 65.4467 247.468 64.1795 249.657 63.7023C251.845 63.2251 260.255 62.1554 262.822 63.2251C265.389 64.2947 262.378 67.4297 262.378 67.4297L245.378 66.5493Z" fill="white"/>
<path opacity="0.2" d="M247.19 259.109L247.503 266.301H253.535L253.222 259.109H247.19Z" fill="#333333"/>
<path opacity="0.2" d="M286.989 259.109H280.958L282.521 266.301H288.553L286.989 259.109Z" fill="#333333"/>
<path d="M273.926 71.3594L266.66 76.2306C266.66 76.2306 277.094 94.7773 276.222 97.756C275.028 101.796 273.366 110.65 271.103 115.143C271.4 116.105 272.905 118.327 273.745 118.705C279.505 114.328 285.322 100.603 285.108 96.7603C284.606 88.03 273.926 71.3594 273.926 71.3594Z" fill="#FEC3BD"/>
<path d="M271.1 115.147L265.34 114.703L268.36 121.047C268.36 121.047 273.387 121.269 274.226 117.427L271.1 115.147Z" fill="#FEC3BD"/>
<path d="M299.568 146.083L299.082 146.988L295.824 153.16L180.149 91.99L183.885 84.9219L299.568 146.083Z" fill="#023DA7"/>
<path d="M307.048 131.951L304.662 136.46L303.312 139.011L187.63 77.8498L191.366 70.7734L307.048 131.951Z" fill="#023DA7"/>
<path d="M187.669 77.8308L183.926 84.8984L299.561 146.15L303.305 139.082L187.669 77.8308Z" fill="#333333"/>
<path d="M175.164 71.7115L171.799 78.072L180.151 91.9944L191.366 70.7734L175.164 71.7115Z" fill="#023DA7"/>
<path opacity="0.8" d="M175.164 71.7115L171.799 78.072L180.151 91.9944L191.366 70.7734L175.164 71.7115Z" fill="white"/>
<path d="M168.221 72.1141L171.8 78.0715L175.165 71.7109L168.221 72.1141Z" fill="#023DA7"/>
<path d="M260.708 117.591L263.72 123.203L268.385 121.047L265.365 114.703L260.708 117.591Z" fill="#FEC3BD"/>
<path d="M272.195 67.2918C277.897 68.1147 284.43 87.8627 284.43 87.8627L272.45 94.6347C272.45 94.6347 267.175 85.2214 264.584 78.2685C261.852 70.9534 266.081 66.3949 272.195 67.2918Z" fill="#F8C633"/>
<path opacity="0.2" d="M268.878 74.0626C266.286 71.6929 267.874 81.8384 269.108 88.3306C269.742 89.5978 270.342 90.7498 270.853 91.7125C273.741 86.6109 272.449 77.3293 268.878 74.0626Z" fill="#333333"/>
<path d="M238.423 67.5945C238.423 67.5945 231.305 85.8039 238.061 119.705H270.341C270.563 114.768 267.453 90.6093 272.225 67.2901C268.66 66.6017 265.054 66.1455 261.429 65.9242C256.866 65.6607 252.292 65.6607 247.729 65.9242C244.588 66.2378 241.477 66.7963 238.423 67.5945Z" fill="#F8C633"/>
<path d="M243.387 76.0672L235.258 72.8828C235.258 72.8828 225.894 92.0055 222.915 92.9683C218.908 94.2766 210.679 97.9053 205.693 98.6129C205.068 99.4357 204.097 101.904 204.253 102.809C211.124 105.056 225.746 102.077 228.774 99.7237C235.718 94.3177 243.387 76.0672 243.387 76.0672Z" fill="#FEC3BD"/>
<path opacity="0.2" d="M244.297 73.8961C242.956 70.8022 240.388 69.5104 237.714 69.9629C236.677 73.7562 234.925 82.0915 235.246 94.648L237.163 95.5696C237.163 95.5696 246.593 79.1869 244.297 73.8961Z" fill="#333333"/>
<path d="M245.584 71.7288C247.608 77.1183 237.356 93.0073 237.356 93.0073L225.293 86.4246C227.105 81.4852 229.442 76.7543 232.262 72.313C236.5 65.9854 243.354 65.8043 245.584 71.7288Z" fill="#F8C633"/>
<path d="M205.989 98.5547L198.813 100.11L202.45 106.75C204.456 105.752 206.278 104.423 207.84 102.817L205.989 98.5547Z" fill="#FEC3BD"/>
<path d="M195.426 101.582L198.289 105.548L202.453 106.75L198.816 100.109L195.426 101.582Z" fill="#FEC3BD"/>
<path d="M245.97 46.7602C245.97 47.2456 245.666 47.583 245.345 47.583C245.024 47.583 244.793 47.1551 244.826 46.6697C244.859 46.1842 245.131 45.8057 245.452 45.8468C245.773 45.888 246.003 46.2747 245.97 46.7602Z" fill="#333333"/>
<path d="M246.397 46.8047C245.731 48.2534 244.87 49.6044 243.838 50.8201C244.157 51.0752 244.527 51.258 244.923 51.3561C245.32 51.4541 245.733 51.4649 246.134 51.3879L246.397 46.8047Z" fill="#F98A7E"/>
<path d="M245.351 45.0763C245.311 45.0867 245.268 45.0867 245.228 45.0763C245.196 45.0563 245.168 45.03 245.147 44.9991C245.125 44.9682 245.11 44.9332 245.103 44.8963C245.095 44.8594 245.095 44.8214 245.102 44.7844C245.109 44.7475 245.124 44.7124 245.146 44.6813C245.374 44.2808 245.696 43.942 246.085 43.6939C246.473 43.4459 246.916 43.2962 247.375 43.2578C247.452 43.2578 247.525 43.2882 247.579 43.3422C247.633 43.3962 247.663 43.4694 247.663 43.5458C247.663 43.6222 247.633 43.6954 247.579 43.7494C247.525 43.8035 247.452 43.8338 247.375 43.8338C247.021 43.871 246.68 43.9918 246.381 44.1864C246.082 44.3809 245.833 44.6436 245.656 44.9529C245.624 45.0029 245.578 45.0418 245.523 45.064C245.469 45.0861 245.409 45.0904 245.351 45.0763Z" fill="#333333"/>
<path d="M262.328 46.3373C261.621 52.2782 261.505 55.7917 258.321 58.6799C253.524 63.0244 246.324 59.8647 245.238 53.8333C244.267 48.4026 245.592 39.5983 251.566 37.5659C252.88 37.1111 254.289 36.9997 255.659 37.2424C257.028 37.485 258.313 38.0736 259.391 38.9524C260.469 39.8311 261.305 40.9708 261.819 42.2632C262.333 43.5557 262.508 44.9581 262.328 46.3373Z" fill="#FEC3BD"/>
<path d="M250.355 47.5054C248.273 47.9168 244.949 43.2925 247.664 39.3675C246.29 38.6846 241.806 41.3753 240.119 38.8656C238.432 36.356 243.114 34.9983 242.217 32.8754C245.393 33.5254 240.16 37.4915 243.18 37.1047C246.2 36.718 249.68 31.1309 253.054 33.4267C259.019 37.4339 267.149 30.7524 263.833 39.1125C267.898 38.2896 270.679 43.1032 266.803 46.4275C259.077 53.0595 263.833 53.9235 258.937 54.2691C256.485 54.4419 250.783 51.4879 250.355 47.5054Z" fill="#333333"/>
<path d="M253.443 49.0198C252.871 50.2165 251.847 51.137 250.596 51.5788C248.95 52.1383 248.004 50.6737 248.391 49.0445C248.736 47.588 250.037 45.531 251.74 45.6708C252.109 45.7136 252.463 45.8472 252.768 46.0597C253.073 46.2721 253.321 46.5568 253.49 46.8883C253.659 47.2199 253.743 47.5881 253.734 47.9599C253.726 48.3318 253.626 48.6959 253.443 49.0198Z" fill="#FEC3BD"/>
<path d="M249.499 119.711C249.499 119.711 256.345 165.79 260.097 183.069C264.211 201.995 279.705 264.933 279.705 264.933H290.748C290.748 264.933 280.536 203.476 278.183 184.789C275.641 164.481 270.309 119.744 270.309 119.744L249.499 119.711Z" fill="#333333"/>
<path opacity="0.2" d="M257.63 135.825C257.12 135.101 256.659 134.854 256.231 135.002H256.141C256.043 135.042 255.952 135.094 255.869 135.158C255.784 135.232 255.704 135.311 255.631 135.397L255.499 135.57C255.444 135.652 255.386 135.743 255.326 135.841C255.183 136.081 255.059 136.331 254.956 136.59C254.89 136.746 254.824 136.903 254.767 137.076C254.709 137.248 254.618 137.495 254.553 137.726C254.487 137.956 254.363 138.343 254.273 138.688C254.273 138.771 254.232 138.861 254.207 138.952C254.182 139.042 254.117 139.33 254.075 139.519C254.034 139.709 254.001 139.84 253.968 140.013C253.894 140.334 253.829 140.671 253.763 141.017C253.697 141.363 253.623 141.758 253.557 142.144C253.557 142.284 253.516 142.416 253.491 142.556C253.409 143.049 253.335 143.551 253.261 144.07C255.087 155.54 257.26 168.689 259.021 177.864C259.103 177.567 259.193 177.246 259.267 176.917C259.627 175.384 259.902 173.832 260.09 172.268C261.645 160.452 260.93 140.54 257.63 135.825Z" fill="#333333"/>
<path d="M238.061 119.711C238.061 119.711 237.239 164.786 237.889 183.168C238.572 202.291 245.253 264.909 245.253 264.909H255.465C255.465 264.909 255.835 203.41 256.287 184.633C256.781 164.161 259.25 119.711 259.25 119.711H238.061Z" fill="#333333"/>
<path d="M256.143 261.779C256.184 261.779 256.143 265.111 256.143 265.111H244.368L243.874 261.367L256.143 261.779Z" fill="#333333"/>
<path d="M290.751 262.031C290.8 262.031 291.302 265.116 291.302 265.116H279.165L278.096 261.578L290.751 262.031Z" fill="#333333"/>
<path d="M281.567 273.411C281.157 273.444 280.748 273.337 280.407 273.107C280.297 273.017 280.211 272.9 280.159 272.767C280.107 272.635 280.091 272.491 280.111 272.35C280.11 272.267 280.132 272.186 280.174 272.115C280.216 272.044 280.277 271.985 280.35 271.946C281.016 271.601 282.966 272.769 283.188 272.934C283.211 272.95 283.229 272.973 283.239 272.999C283.249 273.026 283.251 273.054 283.246 273.082C283.242 273.11 283.229 273.135 283.21 273.156C283.191 273.177 283.166 273.191 283.139 273.197C282.625 273.326 282.098 273.397 281.567 273.411ZM280.671 272.16C280.605 272.159 280.54 272.173 280.481 272.201C280.453 272.218 280.429 272.242 280.413 272.271C280.397 272.3 280.389 272.333 280.391 272.366C280.379 272.462 280.391 272.559 280.425 272.65C280.46 272.74 280.516 272.821 280.588 272.884C281.262 273.192 282.027 273.23 282.728 272.991C282.102 272.584 281.404 272.301 280.671 272.16Z" fill="#828282"/>
<path d="M283.103 273.203C283.082 273.211 283.059 273.211 283.037 273.203C282.412 272.866 281.211 271.557 281.334 270.875C281.355 270.769 281.411 270.674 281.493 270.605C281.576 270.536 281.679 270.498 281.787 270.496C281.896 270.485 282.006 270.497 282.11 270.529C282.215 270.562 282.312 270.615 282.395 270.685C283.095 271.253 283.218 272.997 283.218 273.071C283.218 273.096 283.212 273.12 283.201 273.141C283.189 273.163 283.173 273.181 283.153 273.195C283.137 273.201 283.12 273.203 283.103 273.203ZM281.885 270.735H281.861C281.671 270.735 281.655 270.842 281.647 270.875C281.573 271.278 282.338 272.273 282.963 272.742C282.919 272.054 282.669 271.395 282.247 270.85C282.193 270.809 282.13 270.78 282.064 270.764C281.997 270.748 281.928 270.747 281.861 270.759L281.885 270.735Z" fill="#828282"/>
<path d="M245.319 273.414C244.803 273.462 244.286 273.331 243.855 273.044C243.76 272.957 243.687 272.85 243.641 272.73C243.595 272.61 243.578 272.48 243.591 272.353C243.591 272.275 243.613 272.198 243.654 272.131C243.694 272.065 243.752 272.01 243.822 271.974C244.554 271.563 246.981 272.797 247.253 272.929C247.279 272.942 247.301 272.964 247.314 272.991C247.327 273.017 247.332 273.047 247.327 273.077C247.325 273.108 247.313 273.137 247.292 273.159C247.271 273.182 247.242 273.196 247.212 273.2C246.589 273.329 245.955 273.401 245.319 273.414ZM244.225 272.163C244.134 272.162 244.044 272.182 243.961 272.221C243.935 272.236 243.912 272.257 243.896 272.283C243.88 272.309 243.872 272.339 243.871 272.369C243.859 272.454 243.868 272.541 243.898 272.622C243.928 272.702 243.978 272.774 244.044 272.83C244.414 273.159 245.41 273.217 246.743 272.995C245.956 272.579 245.105 272.298 244.225 272.163Z" fill="#828282"/>
<path d="M247.19 273.2H247.132C246.4 272.871 244.96 271.554 245.075 270.888C245.075 270.723 245.215 270.526 245.601 270.484C245.748 270.467 245.897 270.479 246.039 270.522C246.18 270.564 246.312 270.636 246.424 270.731C247.19 271.365 247.346 272.986 247.354 273.052C247.357 273.077 247.354 273.102 247.344 273.126C247.333 273.149 247.317 273.169 247.297 273.183C247.281 273.193 247.263 273.2 247.245 273.202C247.226 273.205 247.208 273.204 247.19 273.2ZM245.717 270.731H245.659C245.404 270.731 245.388 270.855 245.379 270.888C245.313 271.299 246.293 272.328 247.025 272.772C246.954 272.081 246.666 271.43 246.202 270.912C246.061 270.81 245.891 270.755 245.717 270.756V270.731Z" fill="#828282"/>
</svg>
