<svg width="33" height="24" viewBox="0 0 33 24" fill="none" xmlns="http://www.w3.org/2000/svg">
<path d="M26.6705 20.3621V19.6073C26.3388 19.5371 26.0525 19.4025 25.8116 19.2036C25.5707 19.0047 25.3939 18.7238 25.2812 18.3611L25.9759 18.0978C26.0697 18.3786 26.209 18.5922 26.3936 18.7384C26.5782 18.8847 26.8207 18.9579 27.121 18.9579C27.3776 18.9579 27.5951 18.9037 27.7734 18.7955C27.9518 18.6873 28.0409 18.519 28.0409 18.2908C28.0409 18.0861 27.9721 17.9237 27.8344 17.8037C27.6968 17.6838 27.3776 17.5478 26.877 17.3956C26.3388 17.2376 25.9696 17.049 25.7694 16.8295C25.5691 16.6101 25.469 16.3424 25.469 16.0265C25.469 15.6462 25.6004 15.3507 25.8632 15.14C26.1261 14.9294 26.3951 14.8095 26.6705 14.7802V14.043H27.4214V14.7802C27.7343 14.827 27.9925 14.9338 28.1958 15.1005C28.3992 15.2673 28.5478 15.4706 28.6417 15.7105L27.9471 15.9914C27.872 15.8041 27.7656 15.6637 27.6279 15.5701C27.4903 15.4765 27.3025 15.4297 27.0647 15.4297C26.7894 15.4297 26.5797 15.4867 26.4358 15.6008C26.2919 15.7149 26.2199 15.8568 26.2199 16.0265C26.2199 16.2196 26.3138 16.3717 26.5015 16.4829C26.6893 16.594 27.0147 16.7111 27.4777 16.8339C27.9095 16.9509 28.2365 17.1367 28.4587 17.3912C28.6808 17.6458 28.7919 17.9398 28.7919 18.2733C28.7919 18.6887 28.6605 19.0047 28.3976 19.2212C28.1348 19.4376 27.8094 19.5722 27.4214 19.6249V20.3621H26.6705Z" fill="#023DA7"/>
<circle cx="26.6785" cy="17.5535" r="5.31915" stroke="#023DA7" stroke-width="2"/>
<path d="M9.82812 21.5904V7.19681L19.4239 0L29.0196 7.19681V9.95559C28.6398 9.83564 28.25 9.74568 27.8501 9.6857C27.4503 9.62573 27.0405 9.59574 26.6207 9.59574V8.39628L19.4239 2.99867L12.2271 8.39628V19.1915H18.3144C18.3743 19.6113 18.4643 20.0211 18.5842 20.4209C18.7042 20.8208 18.8541 21.2106 19.034 21.5904H9.82812Z" fill="#023DA7"/>
<path fill-rule="evenodd" clip-rule="evenodd" d="M12.3178 2.04153L10.3041 3.52993L9.59574 2.99867L2.39894 8.39628V19.1915H8.48624C8.54621 19.6113 8.63617 20.0211 8.75612 20.4209C8.87606 20.8208 9.026 21.2106 9.20592 21.5904H0V7.19681L9.59574 0L12.3178 2.04153Z" fill="#023DA7"/>
</svg>
