<svg width="28" height="30" viewBox="0 0 28 30" fill="none" xmlns="http://www.w3.org/2000/svg">
<mask id="mask0_900_19745" style="mask-type:alpha" maskUnits="userSpaceOnUse" x="9" y="10" width="19" height="20">
<rect x="9" y="10.4004" width="18.7103" height="18.7103" fill="#023DA7"/>
</mask>
<g mask="url(#mask0_900_19745)">
<path d="M15.5555 27.0102C16.5236 27.428 17.5574 27.6364 18.6553 27.6364C19.7533 27.6364 20.7871 27.428 21.7552 27.0102C22.7204 26.5937 23.5614 26.0278 24.277 25.3122C24.9926 24.5966 25.5586 23.7555 25.9751 22.7903C26.3928 21.8222 26.6013 20.7884 26.6013 19.6905C26.6013 18.5925 26.3928 17.5587 25.9751 16.5906C25.5586 15.6254 24.9926 14.7844 24.277 14.0688C23.5614 13.3532 22.7204 12.7872 21.7552 12.3707C20.7871 11.953 19.7533 11.7445 18.6553 11.7445C17.5574 11.7445 16.5236 11.953 15.5555 12.3707C14.5903 12.7872 13.7492 13.3532 13.0336 14.0688C12.318 14.7844 11.7521 15.6254 11.3356 16.5906C10.9178 17.5587 10.7094 18.5925 10.7094 19.6905C10.7094 20.7884 10.9178 21.8222 11.3356 22.7903C11.7521 23.7555 12.318 24.5966 13.0336 25.3122C13.7492 26.0278 14.5903 26.5937 15.5555 27.0102ZM22.9735 24.0086C21.7938 25.1883 20.3575 25.7772 18.6553 25.7772C16.9532 25.7772 15.5168 25.1883 14.3372 24.0086C13.1575 22.829 12.5686 21.3926 12.5686 19.6905C12.5686 17.9883 13.1575 16.552 14.3372 15.3723C15.5168 14.1927 16.9532 13.6037 18.6553 13.6037C20.3575 13.6037 21.7938 14.1927 22.9735 15.3723C24.1531 16.552 24.7421 17.9883 24.7421 19.6905C24.7421 21.3926 24.1531 22.829 22.9735 24.0086Z" fill="#023DA7" stroke="#424248" stroke-width="0.3"/>
</g>
<path d="M0 24.457V8.15233L10.8698 0L21.7395 8.15233V11.2774C21.3093 11.1415 20.8677 11.0396 20.4148 10.9717C19.9619 10.9037 19.4977 10.8698 19.0221 10.8698V9.51105L10.8698 3.3968L2.71744 9.51105V21.7395H9.61296C9.68089 22.2151 9.7828 22.6793 9.91867 23.1322C10.0545 23.5851 10.2244 24.0267 10.4282 24.457H0Z" fill="#023DA7"/>
<path d="M17.6016 23.8725V18.7263H19.8471V23.8725H17.6016ZM18.7244 17.6971C18.4062 17.6971 18.1396 17.5985 17.9244 17.4012C17.7092 17.204 17.6016 16.9595 17.6016 16.6679C17.6016 16.3763 17.7092 16.1318 17.9244 15.9346C18.1396 15.7373 18.4062 15.6387 18.7244 15.6387C19.0425 15.6387 19.3091 15.7373 19.5243 15.9346C19.7395 16.1318 19.8471 16.3763 19.8471 16.6679C19.8471 16.9595 19.7395 17.204 19.5243 17.4012C19.3091 17.5985 19.0425 17.6971 18.7244 17.6971Z" fill="#023DA7"/>
</svg>
