<svg width="350" height="350" viewBox="0 0 350 350" fill="none" xmlns="http://www.w3.org/2000/svg">
<g id="name=l&#38;p-5">
<g id="Frame 148712">
<g id="Group">
<g id="Layer 2">
<g id="Objects">
<path id="backgroundExtraLight" d="M56.1934 268.518H41.8673C41.8673 268.518 33.0276 260.683 30.1764 250.17C28.8448 245.325 35.363 241.979 39.3019 245.443C48.518 253.565 56.1934 268.518 56.1934 268.518Z" fill="#F4F3F2"/>
<path id="backgroundExtraLight_2" d="M62.2251 268.516H47.899C47.899 268.516 39.7077 251.687 42.8727 239.439C43.116 238.477 43.6162 237.6 44.3197 236.9C45.0231 236.201 45.9034 235.706 46.8665 235.468C47.8295 235.23 48.8391 235.259 49.7872 235.551C50.7353 235.842 51.5863 236.386 52.2491 237.124C63.0826 249.045 62.2251 268.516 62.2251 268.516Z" fill="#F4F3F2"/>
<path id="backgroundExtraLight_3" d="M62.2354 268.517H71.4863C71.4863 268.517 77.2865 258.291 82.7311 245.721C87.8132 234.002 79.1548 229.108 73.7172 240.625C66.8016 255.279 62.2354 268.517 62.2354 268.517Z" fill="#F4F3F2"/>
<path id="backgroundExtraLight_4" d="M64.7656 268.516H79.0917C79.0917 268.516 93.5154 261.692 92.7137 248.774C92.4976 245.393 88.6355 243.197 85.2126 244.507C69.8338 250.398 64.7656 268.516 64.7656 268.516Z" fill="#F4F3F2"/>
<path id="backgroundExtraLight_5" d="M56.7367 268.518H71.0558C71.0558 268.518 75.385 244.62 70.2541 229.569C68.7204 225.066 63.2827 224.285 60.7591 228.175C51.4245 242.724 56.7367 268.518 56.7367 268.518Z" fill="#F4F3F2"/>
<path id="objectTertiary" d="M151.617 141.36L191.974 109.312L309.616 147.167H151.617V141.36Z" fill="#404040"/>
<path id="objectPrimary" d="M237.45 268.518H304.682V152.982H237.45V268.518Z" fill="#241C4F"/>
<path id="plantsColor" d="M287.365 268.516H274.433C274.433 268.516 266.465 262.242 263.872 253.758C262.68 249.868 268.557 247.177 272.112 249.958C280.436 256.476 287.365 268.516 287.365 268.516Z" fill="#7269A3"/>
<path id="plantsColor_2" d="M292.817 268.518H279.878C279.878 268.518 272.481 254.986 275.339 245.136C276.329 241.72 281.14 240.667 283.803 243.274C293.59 252.867 292.817 268.518 292.817 268.518Z" fill="#7269A3"/>
<path id="plantsColor_3" d="M292.831 268.518H301.197C304.893 262.584 308.285 256.467 311.361 250.19C315.948 240.765 308.126 236.826 303.218 246.091C299.364 253.379 295.897 260.865 292.831 268.518Z" fill="#7269A3"/>
<path id="plantsColor_4" d="M295.107 268.517H308.046C308.046 268.517 321.076 263.024 320.344 252.643C320.155 249.925 316.663 248.154 313.574 249.214C299.688 253.947 295.107 268.517 295.107 268.517Z" fill="#7269A3"/>
<path id="plantsColor_5" d="M287.85 268.518H300.782C300.782 268.518 304.693 249.305 300.085 237.196C299.76 236.374 299.222 235.655 298.525 235.113C297.828 234.57 296.998 234.225 296.123 234.112C295.247 234 294.357 234.125 293.545 234.473C292.734 234.822 292.031 235.381 291.51 236.094C283.054 247.778 287.85 268.518 287.85 268.518Z" fill="#7269A3"/>
<path id="objectTertiary_2" d="M237.442 152.975H304.681L309.617 147.168H237.442V152.975Z" fill="#404040"/>
<path id="objectSecondary" opacity="0.5" d="M274.979 162.586H207.866V218.747H274.979V162.586Z" fill="#CAC5E8"/>
<path id="objectSecondary_2" d="M271.826 215.198V166.127H211.022V215.198H271.826Z" fill="#CAC5E8"/>
<path id="objectPrimary_2" d="M237.441 132.889H65.793V268.509H237.441V132.889Z" fill="#241C4F"/>
<path id="objectSecondary_3" opacity="0.5" d="M159.389 157.074H79.0928V224.264H159.389V157.074Z" fill="#CAC5E8"/>
<path id="objectSecondary_4" d="M155.613 220.031V161.318H82.8673V220.031H155.613Z" fill="#CAC5E8"/>
<path id="objectSecondary_5" d="M155.613 207.9V161.311H82.8673V207.9H155.613Z" fill="#CAC5E8"/>
<path id="objectSecondary_6" d="M177.786 251.889H223.664V154.339H177.786V251.889Z" fill="#CAC5E8"/>
<path id="objectPrimary_3" d="M221.237 251.89V156.557H180.19V251.89H221.237Z" fill="#241C4F"/>
<path id="objectSecondary_7" d="M217.616 197.834V160.377H183.819V197.834H217.616Z" fill="#CAC5E8"/>
<path id="objectSecondary_8" d="M217.607 241.021V203.564H183.81V241.021H217.607Z" fill="#CAC5E8"/>
<path id="objectPrimary_4" d="M240.232 142.341H63.0068V130.1L151.62 83.9355L240.232 130.1V142.341Z" fill="#241C4F"/>
<path id="objectTertiary_3" d="M248.068 136.542L151.62 86.2927L55.1713 136.542L53.2402 132.833L151.62 81.5801L249.999 132.833L248.068 136.542Z" fill="#404040"/>
<path id="objectTertiary_4" d="M151.62 134.19C147.846 134.19 144.157 133.071 141.019 130.975C137.881 128.878 135.436 125.898 133.991 122.412C132.547 118.925 132.169 115.089 132.906 111.387C133.642 107.686 135.459 104.286 138.128 101.618C140.796 98.9494 144.196 97.1322 147.897 96.3959C151.598 95.6597 155.435 96.0376 158.921 97.4817C162.408 98.9259 165.388 101.371 167.485 104.509C169.581 107.647 170.7 111.336 170.7 115.11C170.695 120.169 168.683 125.019 165.106 128.596C161.528 132.173 156.678 134.185 151.62 134.19ZM151.62 100.212C148.673 100.212 145.793 101.086 143.343 102.723C140.893 104.36 138.983 106.687 137.856 109.409C136.728 112.131 136.433 115.126 137.008 118.016C137.583 120.906 139.002 123.561 141.085 125.644C143.169 127.728 145.823 129.147 148.713 129.721C151.603 130.296 154.599 130.001 157.321 128.874C160.043 127.746 162.37 125.837 164.007 123.387C165.644 120.937 166.517 118.056 166.517 115.11C166.517 111.157 164.948 107.365 162.155 104.568C159.362 101.771 155.573 100.197 151.62 100.191V100.212Z" fill="#404040"/>
<path id="backgroundExtraLight_6" d="M151.614 129.008C159.287 129.008 165.507 122.788 165.507 115.115C165.507 107.441 159.287 101.221 151.614 101.221C143.94 101.221 137.72 107.441 137.72 115.115C137.72 122.788 143.94 129.008 151.614 129.008Z" fill="#F4F3F2"/>
<path id="objectSecondary_9" d="M229.542 250.264H171.889V253.254H229.542V250.264Z" fill="#CAC5E8"/>
<path id="objectTertiary_5" d="M228.22 253.258H173.202V259.386H228.22V253.258Z" fill="#404040"/>
<path id="objectSecondary_10" d="M233.921 259.391H167.512V262.381H233.921V259.391Z" fill="#CAC5E8"/>
<path id="objectTertiary_6" d="M232.402 262.383H169.032V268.511H232.402V262.383Z" fill="#404040"/>
<path id="backgroundWhite" d="M218.991 198.394C218.991 198.894 218.842 199.384 218.564 199.8C218.286 200.216 217.891 200.54 217.429 200.732C216.966 200.923 216.457 200.974 215.967 200.876C215.476 200.778 215.025 200.537 214.671 200.183C214.317 199.829 214.076 199.378 213.978 198.888C213.881 198.397 213.931 197.888 214.122 197.425C214.314 196.963 214.638 196.568 215.054 196.29C215.471 196.012 215.96 195.863 216.46 195.863C217.131 195.863 217.775 196.13 218.25 196.604C218.724 197.079 218.991 197.723 218.991 198.394Z" fill="#FDFDFD"/>
<path id="backgroundExtraLight_7" d="M53.6794 64.9535C49.636 56.2115 52.8498 50 62.7352 50C68.9327 50 76.6151 52.4469 84.1023 56.4345C84.9459 54.1828 87.33 52.7885 91.1643 52.7885C97.9056 52.7885 107.198 56.9713 114.49 62.9318C116.254 61.6073 118.806 60.7986 122.089 60.6662C128.538 60.4082 136.359 62.8273 143.177 66.7312C143.984 65.9711 145.06 65.5624 146.168 65.5949C149.891 65.4485 154.924 67.8885 157.42 71.0465C157.58 71.2417 157.72 71.4369 157.852 71.6251H48.66C45.2092 68.5577 49.0225 65.1069 53.6794 64.9535Z" fill="#F4F3F2"/>
<path id="backgroundExtraLight_8" d="M196.406 79.7472C196.713 79.7472 197.027 79.6984 197.34 79.6984C197.054 76.4567 198.734 74.3932 202.318 74.3932C204.911 74.3932 208.083 75.4738 211.318 77.3003C210.398 71.026 213.36 66.9199 220.074 66.9199C225.49 66.9199 232.35 69.576 239.126 73.8913C239.719 71.4234 241.72 69.9385 245.073 69.9385C250.964 69.9385 259.336 74.5117 266.05 80.9602C267.5 79.5241 269.675 78.6318 272.54 78.4923C278.152 78.1996 285.088 80.8277 291.293 85.1082C291.586 84.7111 291.972 84.3914 292.417 84.1764C292.861 83.9615 293.351 83.8578 293.844 83.8742C296.912 83.7209 301.137 86.0772 303.604 89.2352H191.47C188.835 84.4807 190.934 80.291 196.406 79.7472Z" fill="#F4F3F2"/>
<path id="backgroundLight" d="M176.636 300C251.287 300 311.803 296.467 311.803 292.108C311.803 287.75 251.287 284.217 176.636 284.217C101.985 284.217 41.4688 287.75 41.4688 292.108C41.4688 296.467 101.985 300 176.636 300Z" fill="#E4E2E0"/>
<path id="objectSecondary_11" d="M215.429 84.5387L214.583 82.4822C214.442 82.1404 214.051 81.9773 213.709 82.118L173.314 98.7429C172.972 98.8836 172.809 99.2747 172.95 99.6165L173.796 101.673C173.937 102.015 174.328 102.178 174.67 102.037L215.065 85.4123C215.407 85.2716 215.57 84.8805 215.429 84.5387Z" fill="#CAC5E8"/>
<path id="shadowColor" opacity="0.31" d="M206.235 89.0423L204.879 85.748L201.804 87.0136L203.16 90.3079L206.235 89.0423Z" fill="#404040"/>
<path id="objectPrimary_5" d="M214.268 88.9603L210.646 80.1605C209.831 78.1809 207.566 77.2366 205.587 78.0513L205.167 78.2238C203.188 79.0385 202.244 81.3038 203.058 83.2834L206.68 92.0831C207.495 94.0627 209.76 95.007 211.739 94.1923L212.158 94.0199C214.138 93.2051 215.082 90.9399 214.268 88.9603Z" fill="#241C4F"/>
<path id="skinTone" d="M194.514 285.808H189.439L188.087 274.047H193.169L194.514 285.808Z" fill="#FECCAF"/>
<path id="skinTone_2" d="M230.264 285.808H225.181L221.222 274.047H226.304L230.264 285.808Z" fill="#FECCAF"/>
<path id="shoesColor" d="M224.502 285.223H230.692C230.794 285.222 230.892 285.256 230.971 285.32C231.049 285.383 231.104 285.472 231.125 285.571L232.128 290.082C232.153 290.192 232.152 290.305 232.126 290.415C232.1 290.524 232.049 290.626 231.978 290.713C231.907 290.801 231.817 290.871 231.715 290.918C231.613 290.966 231.502 290.99 231.39 290.988C229.396 290.953 227.904 290.835 225.429 290.835C223.888 290.835 220.709 290.995 218.576 290.995C216.443 290.995 216.164 288.904 217.036 288.694C220.953 287.844 222.424 286.659 223.679 285.536C223.905 285.333 224.198 285.221 224.502 285.223Z" fill="#171717"/>
<path id="shoesColor_2" d="M189.472 285.223H195.049C195.15 285.225 195.247 285.26 195.325 285.323C195.403 285.386 195.458 285.473 195.481 285.571L196.485 290.082C196.511 290.191 196.511 290.305 196.486 290.414C196.461 290.524 196.411 290.626 196.34 290.713C196.27 290.801 196.18 290.871 196.078 290.918C195.977 290.966 195.865 290.99 195.753 290.988C193.752 290.953 190.873 290.835 188.343 290.835C185.401 290.835 182.863 290.995 179.412 290.995C177.321 290.995 176.749 288.904 177.628 288.694C181.601 287.83 184.843 287.732 188.273 285.62C188.629 285.382 189.044 285.244 189.472 285.223Z" fill="#171717"/>
<path id="skinTone_3" d="M190.873 139.931C190.03 139.234 189.291 138.571 188.538 137.839C187.785 137.107 187.053 136.445 186.328 135.748C184.878 134.312 183.484 132.815 182.145 131.258C180.78 129.682 179.495 128.037 178.297 126.33L177.405 125.019L176.561 123.625C176.275 123.172 176.024 122.67 175.759 122.189L175.369 121.457C175.23 121.164 175.09 120.871 174.965 120.571C174.006 118.236 173.651 115.697 173.933 113.189C174.194 110.92 174.816 108.708 175.773 106.636C176.657 104.688 177.736 102.836 178.994 101.107C179.608 100.257 180.263 99.4412 180.932 98.6465C181.616 97.8393 182.339 97.0668 183.1 96.332L185.958 98.8626C185.491 99.5598 184.969 100.41 184.501 101.205C184.034 102 183.609 102.829 183.17 103.68C182.349 105.293 181.663 106.972 181.12 108.699C180.068 112.059 179.963 115.392 181.239 117.762C181.309 117.908 181.399 118.055 181.483 118.201L181.831 118.745C182.075 119.114 182.278 119.442 182.529 119.839L183.302 120.927L184.139 122.001C185.275 123.395 186.495 124.831 187.771 126.183C189.047 127.536 190.385 128.895 191.738 130.22C193.09 131.544 194.526 132.862 195.844 134.075L190.873 139.931Z" fill="#FECCAF"/>
<path id="t-shirt1Color" d="M197.691 143.486C192.944 144.51 180.995 133.956 180.995 133.956L187.966 124.719C187.966 124.719 195.014 130.512 200.982 132.492C207.089 134.513 202.906 142.37 197.691 143.486Z" fill="#F2A53D"/>
<path id="skinTone_4" d="M181.171 100.11L181.756 95.8086H188.435C188.435 95.8086 186.797 102.32 183.123 101.888L181.171 100.11Z" fill="#FECCAF"/>
<path id="skinTone_5" d="M183.257 92.7639L187.781 91.6973L188.43 95.8104H181.751L183.257 92.7639Z" fill="#FECCAF"/>
<path id="shadowColor_2" opacity="0.2" d="M188.087 274.047L188.784 280.112H193.866L193.169 274.047H188.087Z" fill="#404040"/>
<path id="shadowColor_3" opacity="0.2" d="M226.311 274.047H221.229L223.264 280.112H228.346L226.311 274.047Z" fill="#404040"/>
<path id="t-shirt1Color_2" d="M190.906 134.564C190.906 134.564 184.911 149.901 190.606 178.483H217.795C217.983 174.3 215.362 153.965 219.384 134.32C216.391 133.742 213.364 133.358 210.321 133.169C206.474 132.946 202.617 132.946 198.77 133.169C196.116 133.43 193.487 133.896 190.906 134.564Z" fill="#F2A53D"/>
<path id="skinTone_6" d="M209.127 120.154C208.43 123.87 207.677 130.674 210.278 133.156C207.506 135.63 203.993 137.117 200.288 137.387C197.283 136.307 197.834 134.466 198.141 133.86C198.391 133.439 198.797 133.134 199.27 133.009C202.86 131.887 202.756 128.959 202.058 126.205L209.127 120.154Z" fill="#FECCAF"/>
<path id="skinTone_7" d="M206.237 122.621L202.055 126.204C202.233 126.876 202.352 127.562 202.41 128.254C204.035 128.463 206.224 126.86 206.224 125.054C206.293 124.245 206.298 123.431 206.237 122.621Z" fill="#FECCAF"/>
<path id="hairColor" d="M195.461 109.348C193.133 110.742 192.457 118.571 195.845 119.735C199.233 120.899 199.881 106.726 195.461 109.348Z" fill="#171717"/>
<path id="hairColor_2" d="M199.951 113.504C197.525 113.197 189.913 113.755 191.732 108.938C193.552 104.12 201.555 107.097 202.189 109.37C202.824 111.642 204.19 114.034 199.951 113.504Z" fill="#171717"/>
<path id="skinTone_8" d="M208.119 114.191C208.489 119.217 208.963 122.138 206.795 125.039C203.532 129.41 197.07 127.96 195.201 123.149C193.521 118.813 193.193 111.298 197.802 108.67C198.816 108.082 199.963 107.763 201.135 107.743C202.307 107.723 203.465 108.003 204.498 108.556C205.532 109.109 206.407 109.917 207.041 110.903C207.674 111.89 208.046 113.021 208.119 114.191Z" fill="#FECCAF"/>
<path id="hairColor_3" d="M208.436 119.122C205.955 120.565 199.241 110.61 207.14 108.359C215.038 106.107 212.459 116.794 208.436 119.122Z" fill="#171717"/>
<path id="hairColor_4" d="M204.825 112.52C201.583 111.585 191.112 110.714 194.612 104.544C198.111 98.3747 208.373 104.14 208.722 107.333C209.07 110.526 210.479 114.137 204.825 112.52Z" fill="#171717"/>
<path id="hairColor_5" d="M205.263 110.692C203.911 108.231 198.292 101.511 203.974 99.9633C209.655 98.4157 212.339 107.869 210.603 109.974C208.868 112.079 207.62 115 205.263 110.692Z" fill="#171717"/>
<path id="hairColor_6" d="M210.476 109.022C211.077 107.108 211.368 105.11 211.34 103.104C212.079 104.24 212.776 107.865 210.476 109.022Z" fill="#171717"/>
<path id="hairColor_7" d="M214.383 108.783C212.869 108.51 211.315 108.547 209.816 108.894C210.5 107.995 213.051 106.733 214.383 108.783Z" fill="#171717"/>
<path id="hairColor_8" d="M207.017 111.252C208.461 112.646 212.009 117.839 214.17 114.2C216.331 110.561 210.322 106.936 208.544 107.703C206.767 108.47 204.522 108.798 207.017 111.252Z" fill="#171717"/>
<path id="skinTone_9" d="M211.12 119.379C210.595 120.531 209.635 121.428 208.45 121.875C206.874 122.453 205.947 121.08 206.275 119.518C206.574 118.124 207.746 116.123 209.384 116.214C209.741 116.241 210.086 116.357 210.388 116.551C210.689 116.745 210.937 117.012 211.109 117.326C211.282 117.64 211.373 117.993 211.375 118.351C211.377 118.71 211.289 119.063 211.12 119.379Z" fill="#FECCAF"/>
<path id="pantsPrimary" d="M190.583 178.469C190.583 178.469 176.257 214.762 176.807 230.252C177.386 246.363 186.853 278.94 186.853 278.94H195.463C195.463 278.94 191.977 247.29 192.34 231.486C192.758 214.232 208.471 178.504 208.471 178.504L190.583 178.469Z" fill="#595959"/>
<path id="objectPrimary_6" d="M202.021 190.467L202.851 192.335C199.835 200.097 197.217 208.009 195.008 216.038C194.764 206.856 196.667 196.783 202.021 190.467Z" fill="#241C4F"/>
<path id="pantsPrimary_2" d="M200.24 178.469C200.24 178.469 197.347 215.605 200.512 230.147C203.998 246.07 220.875 278.947 220.875 278.947H230.175C230.175 278.947 217.766 247.36 215.751 231.59C213.604 214.476 217.773 178.469 217.773 178.469H200.24Z" fill="#595959"/>
<path id="pantsSecondary" d="M219.235 279.14H231.393V275.863L217.799 275.654L219.235 279.14Z" fill="#404040"/>
<path id="pantsSecondary_2" d="M184.955 279.14H197.12V275.829L183.525 275.654L184.955 279.14Z" fill="#404040"/>
<path id="faceDetails" d="M200.744 116.612C200.8 117.023 200.632 117.378 200.367 117.413C200.103 117.448 199.838 117.148 199.782 116.716C199.726 116.284 199.9 115.949 200.165 115.915C200.43 115.88 200.688 116.228 200.744 116.612Z" fill="#171717"/>
<path id="faceDetails_2" d="M196.158 117.239C196.214 117.643 196.046 118.006 195.782 118.04C195.517 118.075 195.252 117.776 195.196 117.343C195.14 116.911 195.314 116.576 195.579 116.542C195.844 116.507 196.102 116.834 196.158 117.239Z" fill="#171717"/>
<path id="noseColor" d="M197.646 117.246C197.333 118.551 196.841 119.807 196.182 120.976C196.485 121.138 196.82 121.231 197.163 121.249C197.507 121.268 197.85 121.21 198.168 121.08L197.646 117.246Z" fill="#FEB084"/>
<path id="faceDetails_3" d="M199.491 122.044C199.461 122.043 199.433 122.032 199.41 122.013C199.387 121.994 199.371 121.968 199.365 121.939C199.361 121.907 199.37 121.874 199.389 121.848C199.409 121.822 199.438 121.805 199.47 121.8C199.976 121.741 200.462 121.565 200.888 121.285C201.314 121.006 201.668 120.63 201.924 120.189C201.93 120.174 201.939 120.161 201.95 120.149C201.962 120.138 201.975 120.129 201.99 120.123C202.005 120.118 202.021 120.115 202.038 120.115C202.054 120.116 202.069 120.12 202.084 120.127C202.112 120.141 202.133 120.166 202.143 120.196C202.153 120.226 202.152 120.258 202.14 120.287C201.874 120.769 201.495 121.18 201.036 121.484C200.578 121.789 200.052 121.978 199.505 122.037L199.491 122.044Z" fill="#171717"/>
<path id="hairColor_9" d="M201.891 114.946C201.86 114.947 201.829 114.942 201.8 114.93C201.771 114.917 201.745 114.899 201.724 114.876C201.517 114.656 201.26 114.488 200.975 114.386C200.691 114.284 200.386 114.252 200.086 114.291C200.023 114.303 199.958 114.29 199.904 114.255C199.851 114.22 199.813 114.165 199.8 114.102C199.793 114.071 199.792 114.039 199.798 114.008C199.803 113.976 199.815 113.946 199.833 113.919C199.851 113.893 199.873 113.87 199.9 113.852C199.927 113.835 199.957 113.822 199.988 113.817C200.367 113.757 200.755 113.788 201.119 113.91C201.483 114.031 201.812 114.238 202.08 114.514C202.102 114.536 202.121 114.562 202.133 114.592C202.146 114.621 202.152 114.653 202.152 114.685C202.152 114.716 202.146 114.748 202.133 114.777C202.121 114.807 202.102 114.833 202.08 114.855C202.058 114.885 202.03 114.909 201.997 114.925C201.964 114.941 201.928 114.948 201.891 114.946Z" fill="#171717"/>
<path id="hairColor_10" d="M193.9 115.941H193.83C193.77 115.921 193.72 115.877 193.691 115.819C193.662 115.762 193.657 115.696 193.677 115.635C193.788 115.269 193.984 114.936 194.25 114.662C194.515 114.388 194.842 114.181 195.204 114.059C195.234 114.051 195.267 114.049 195.298 114.053C195.33 114.057 195.36 114.068 195.387 114.084C195.414 114.1 195.438 114.122 195.457 114.148C195.476 114.173 195.489 114.202 195.497 114.233C195.505 114.264 195.507 114.295 195.504 114.326C195.5 114.357 195.49 114.387 195.474 114.415C195.459 114.442 195.438 114.466 195.413 114.485C195.388 114.504 195.36 114.518 195.329 114.526C195.043 114.626 194.786 114.792 194.577 115.012C194.369 115.231 194.215 115.497 194.13 115.788C194.112 115.834 194.08 115.873 194.039 115.9C193.998 115.928 193.95 115.942 193.9 115.941Z" fill="#171717"/>
<path id="skinTone_10" d="M221.634 139.525C221.85 141.854 221.948 144.064 222.025 146.336C222.101 148.609 222.087 150.861 222.025 153.14C221.991 157.834 221.444 162.509 220.393 167.083C220.076 168.343 219.654 169.574 219.132 170.764C218.984 171.107 218.818 171.442 218.637 171.768C218.462 172.068 218.281 172.381 218.107 172.646C217.751 173.211 217.41 173.699 217.019 174.187C215.6 176.016 214.083 177.766 212.474 179.429C209.362 182.667 206.071 185.728 202.616 188.597L199.891 185.927C202.568 182.441 205.293 178.99 207.887 175.539C209.163 173.81 210.445 172.054 211.512 170.367C211.987 169.644 212.389 168.876 212.711 168.073C213.014 167.217 213.247 166.338 213.408 165.445C213.789 163.447 214.036 161.425 214.147 159.394C214.286 157.302 214.363 155.211 214.363 153.05C214.363 148.79 214.203 144.412 213.938 140.202L221.634 139.525Z" fill="#FECCAF"/>
<path id="t-shirt1Color_3" d="M223.978 137.588C227.972 143.96 224.626 154.41 224.626 154.41L212.259 154.048C212.259 154.048 212.998 147.773 213.346 141.499C213.716 134.73 220.067 131.342 223.978 137.588Z" fill="#F2A53D"/>
<path id="shoesColor_3" d="M222.826 286.106C222.48 286.133 222.136 286.042 221.85 285.848C221.76 285.77 221.69 285.672 221.647 285.562C221.603 285.451 221.586 285.332 221.599 285.214C221.599 285.143 221.618 285.074 221.655 285.013C221.692 284.953 221.745 284.904 221.808 284.872C222.372 284.586 224.004 285.569 224.192 285.709C224.213 285.72 224.229 285.738 224.239 285.759C224.249 285.78 224.252 285.804 224.248 285.827C224.243 285.85 224.232 285.871 224.216 285.888C224.2 285.905 224.18 285.918 224.157 285.925C223.721 286.034 223.275 286.094 222.826 286.106ZM222.073 285.053C222.017 285.053 221.962 285.065 221.912 285.088C221.888 285.102 221.868 285.123 221.855 285.147C221.841 285.172 221.834 285.2 221.836 285.228C221.826 285.309 221.836 285.391 221.866 285.468C221.895 285.544 221.942 285.613 222.003 285.667C222.572 285.924 223.217 285.957 223.809 285.758C223.281 285.413 222.691 285.174 222.073 285.053Z" fill="#171717"/>
<path id="shoesColor_4" d="M224.126 285.933C224.105 285.939 224.083 285.939 224.063 285.933C223.54 285.654 222.522 284.539 222.669 283.974C222.669 283.87 222.759 283.695 223.052 283.66C223.143 283.648 223.235 283.655 223.323 283.681C223.411 283.708 223.492 283.753 223.561 283.814C224.153 284.295 224.258 285.759 224.258 285.822C224.258 285.843 224.252 285.864 224.243 285.884C224.233 285.903 224.219 285.92 224.202 285.933C224.177 285.942 224.15 285.942 224.126 285.933ZM223.101 283.842H223.045C222.885 283.842 222.871 283.932 222.871 283.96C222.801 284.295 223.449 285.138 223.972 285.536C223.937 284.956 223.728 284.399 223.373 283.939C223.293 283.885 223.197 283.861 223.101 283.87V283.842Z" fill="#171717"/>
<path id="shoesColor_5" d="M187.359 286.106C186.925 286.144 186.491 286.036 186.125 285.799C186.045 285.726 185.983 285.635 185.944 285.533C185.905 285.431 185.891 285.322 185.902 285.214C185.902 285.148 185.921 285.083 185.955 285.026C185.989 284.97 186.039 284.924 186.097 284.893C186.718 284.545 188.753 285.59 188.983 285.702C189.007 285.712 189.027 285.73 189.039 285.753C189.052 285.775 189.057 285.802 189.053 285.827C189.049 285.852 189.037 285.874 189.02 285.892C189.002 285.909 188.98 285.921 188.956 285.925C188.431 286.037 187.896 286.098 187.359 286.106ZM186.439 285.06C186.362 285.054 186.285 285.068 186.216 285.102C186.193 285.115 186.174 285.133 186.161 285.155C186.147 285.177 186.14 285.202 186.139 285.228C186.129 285.3 186.137 285.373 186.162 285.442C186.188 285.51 186.23 285.571 186.285 285.618C186.599 285.89 187.436 285.939 188.551 285.758C187.892 285.407 187.177 285.171 186.439 285.06Z" fill="#171717"/>
<path id="shoesColor_6" d="M188.937 285.929H188.888C188.274 285.658 187.054 284.535 187.152 283.984C187.152 283.845 187.271 283.678 187.598 283.643C187.722 283.628 187.848 283.64 187.968 283.676C188.088 283.711 188.199 283.772 188.295 283.852C188.937 284.382 189.076 285.748 189.083 285.811C189.085 285.831 189.081 285.851 189.072 285.87C189.064 285.888 189.051 285.904 189.034 285.915C189.021 285.926 189.005 285.933 188.987 285.936C188.97 285.938 188.953 285.936 188.937 285.929ZM187.696 283.838H187.619C187.403 283.838 187.389 283.943 187.389 283.97C187.333 284.319 188.156 285.177 188.783 285.553C188.72 284.972 188.476 284.426 188.086 283.991C187.973 283.909 187.836 283.865 187.696 283.866V283.838Z" fill="#171717"/>
<path id="skinTone_11" d="M202.238 185.44L197.358 183.781L198.021 190.237C198.021 190.237 202.496 190.725 203.019 188.389L202.238 185.44Z" fill="#FECCAF"/>
<path id="skinTone_12" d="M189.765 188.996L194.136 190.467L198.012 190.237L197.349 183.781L189.765 188.996Z" fill="#FECCAF"/>
<path id="objectTertiary_7" d="M157.895 181.557H148.832V292.101H157.895V181.557Z" fill="#404040"/>
<path id="objectTertiary_8" d="M157.895 181.556C157.895 181.793 155.866 181.988 153.363 181.988C150.861 181.988 148.832 181.793 148.832 181.556C148.832 181.319 150.861 181.131 153.363 181.131C155.866 181.131 157.895 181.326 157.895 181.556Z" fill="#404040"/>
<g id="shadowColor_4" style="mix-blend-mode:multiply" opacity="0.2">
<path d="M157.895 250.997L148.832 250.348V243.523H157.895V250.997Z" fill="#404040"/>
</g>
<path id="objectPrimary_7" d="M205.576 189.992L106.496 181.307L101.113 242.712L200.193 251.398L205.576 189.992Z" fill="#241C4F"/>
<path id="plantsColor_6" d="M201.15 189.598L102.07 180.912L96.6873 242.317L195.767 251.003L201.15 189.598Z" fill="#7269A3"/>
<path id="objectSecondary_12" opacity="0.4" d="M201.626 199.152L183.04 198.295L201.5 200.616L201.626 199.152Z" fill="#CAC5E8"/>
<path id="objectSecondary_13" opacity="0.4" d="M200.835 201.236L189.367 201.404L200.64 203.439L200.835 201.236Z" fill="#CAC5E8"/>
<path id="objectSecondary_14" opacity="0.4" d="M98.0439 226.73L108.069 226.834L98.1764 225.266L98.0439 226.73Z" fill="#CAC5E8"/>
<path id="objectSecondary_15" opacity="0.4" d="M99.0625 215.16L107.686 214.749L99.2507 212.957L99.0625 215.16Z" fill="#CAC5E8"/>
<path id="objectSecondary_16" opacity="0.4" d="M197.154 244.48L188.523 244.892L196.959 246.676L197.154 244.48Z" fill="#CAC5E8"/>
<path id="backgroundWhite_2" d="M124.281 193.281L137.924 194.473L137.582 198.315L129.482 197.617L129.231 200.72L136.153 201.326L135.833 204.937L128.917 204.331L128.276 211.623L122.733 211.142L124.281 193.281Z" fill="#FDFDFD"/>
<path id="backgroundWhite_3" d="M139.413 203.62C139.669 200.706 140.679 198.508 142.446 197.025C144.212 195.542 146.535 194.927 149.417 195.178C152.387 195.442 154.606 196.442 156.074 198.175C157.543 199.909 158.152 202.214 157.901 205.091C157.816 206.87 157.299 208.603 156.395 210.138C155.595 211.395 154.44 212.387 153.077 212.989C151.478 213.652 149.735 213.893 148.016 213.686C146.293 213.6 144.612 213.123 143.101 212.292C141.808 211.505 140.782 210.346 140.159 208.967C139.433 207.284 139.175 205.437 139.413 203.62ZM144.927 204.129C144.774 205.927 144.99 207.252 145.59 208.102C145.91 208.505 146.309 208.839 146.762 209.083C147.215 209.328 147.713 209.478 148.226 209.525C148.738 209.572 149.255 209.514 149.745 209.356C150.235 209.198 150.688 208.942 151.076 208.604C151.773 207.907 152.24 206.513 152.415 204.54C152.568 202.853 152.331 201.598 151.717 200.762C151.406 200.346 151.007 200.005 150.547 199.764C150.088 199.523 149.58 199.387 149.061 199.367C148.556 199.304 148.042 199.356 147.559 199.519C147.076 199.682 146.637 199.952 146.273 200.308C145.538 201.038 145.09 202.312 144.927 204.129Z" fill="#FDFDFD"/>
<path id="backgroundWhite_4" d="M160.182 214.425L161.743 196.564L170.945 197.373C172.267 197.441 173.57 197.704 174.814 198.154C175.68 198.512 176.397 199.154 176.85 199.973C177.351 200.875 177.554 201.912 177.429 202.936C177.386 203.806 177.107 204.648 176.622 205.371C176.137 206.095 175.464 206.672 174.675 207.042C174.039 207.322 173.365 207.503 172.674 207.579C173.175 207.769 173.645 208.032 174.069 208.36C174.376 208.665 174.645 209.007 174.87 209.378C175.143 209.745 175.376 210.14 175.567 210.556L177.791 215.966L171.552 215.415L169.084 209.698C168.894 209.156 168.595 208.658 168.206 208.234C167.832 207.926 167.371 207.741 166.888 207.705L166.4 207.663L165.766 214.906L160.182 214.425ZM166.658 204.289L168.979 204.491C169.477 204.497 169.974 204.46 170.464 204.379C170.828 204.341 171.165 204.167 171.406 203.891C171.662 203.616 171.817 203.262 171.845 202.887C171.886 202.637 171.869 202.381 171.794 202.139C171.719 201.897 171.588 201.676 171.412 201.493C170.83 201.063 170.122 200.838 169.398 200.852L166.972 200.636L166.658 204.289Z" fill="#FDFDFD"/>
</g>
</g>
</g>
<g id="backgroundWhite_5">
<path d="M124.011 235.559L121.418 229.469L120.949 229.427L120.418 235.23L116.043 234.829L117.483 219.094L124.38 219.725C125.645 219.841 126.696 220.162 127.533 220.689C128.371 221.201 128.978 221.864 129.354 222.679C129.731 223.478 129.876 224.354 129.789 225.307C129.691 226.378 129.306 227.296 128.636 228.06C127.982 228.81 127.074 229.305 125.912 229.543L128.899 236.006L124.011 235.559ZM121.223 226.436L123.388 226.634C123.983 226.688 124.442 226.588 124.766 226.332C125.089 226.077 125.275 225.681 125.324 225.146C125.371 224.64 125.251 224.231 124.964 223.92C124.694 223.595 124.268 223.406 123.688 223.353L121.523 223.155L121.223 226.436Z" fill="#FDFDFD"/>
<path d="M138.548 224.556L138.313 227.122L143.335 227.582L143.031 230.908L138.009 230.448L137.749 233.283L143.441 233.804L143.12 237.308L133.054 236.386L134.494 220.651L144.56 221.572L144.24 225.077L138.548 224.556Z" fill="#FDFDFD"/>
<path d="M162.111 239.046L157.736 238.646L152.716 229.319L151.911 238.113L147.536 237.712L148.976 221.977L153.351 222.377L158.361 231.816L159.177 222.91L163.551 223.311L162.111 239.046Z" fill="#FDFDFD"/>
<path d="M180.15 224.83L179.831 228.312L175.635 227.928L174.513 240.182L170.138 239.781L171.26 227.528L167.108 227.147L167.427 223.666L180.15 224.83Z" fill="#FDFDFD"/>
</g>
</g>
</g>
</svg>
