<svg width="350" height="350" viewBox="0 0 350 350" fill="none" xmlns="http://www.w3.org/2000/svg">
<g id="name=l&#38;p-3">
<g id="Frame 148714">
<g id="Layer 2" opacity="0.8">
<g id="Background Complete">
<path id="backgroundExtraLight" d="M21.9995 291.957H108.209L108.209 101.303H21.9995L21.9995 291.957Z" fill="#F4F3F2"/>
<path id="backgroundExtraLight_2" d="M22.0117 291.957H104.133L104.133 101.303H22.0117L22.0117 291.957Z" fill="#F4F3F2"/>
<path id="backgroundExtraLight_3" d="M99.8066 287.631L99.8066 105.629H26.3382L26.3382 287.631H99.8066Z" fill="#F4F3F2"/>
<path id="backgroundWhite" d="M50.0715 191.466H35.0951C34.5851 191.464 34.0965 191.26 33.7359 190.9C33.3753 190.539 33.1718 190.05 33.1699 189.54C33.1718 189.03 33.3753 188.542 33.7359 188.181C34.0965 187.821 34.5851 187.617 35.0951 187.615H50.0715C50.5815 187.617 51.0701 187.821 51.4307 188.181C51.7913 188.542 51.9948 189.03 51.9967 189.54C51.9948 190.05 51.7913 190.539 51.4307 190.9C51.0701 191.26 50.5815 191.464 50.0715 191.466Z" fill="#FDFDFD"/>
<path id="backgroundExtraLight_4" d="M27.458 287.625L27.458 105.623H26.3332L26.3332 287.625H27.458Z" fill="#F4F3F2"/>
<path id="backgroundExtraLight_5" d="M148.604 288.344H161.438V232.678H148.604V288.344Z" fill="#F4F3F2"/>
<path id="backgroundExtraLight_6" d="M95.6764 291.873H158.971V288.347H95.6764V291.873Z" fill="#F4F3F2"/>
<path id="backgroundExtraLight_7" d="M148.601 232.674H93.209V288.339H148.601V232.674Z" fill="#F4F3F2"/>
<path id="backgroundExtraLight_8" d="M143.548 239.529H98.251V257.786H143.548V239.529Z" fill="#F4F3F2"/>
<path id="backgroundExtraLight_9" d="M143.548 263.232H98.251V281.49H143.548V263.232Z" fill="#F4F3F2"/>
<path id="backgroundExtraLight_10" d="M115.815 241.067H125.989C126.319 241.065 126.635 240.933 126.869 240.699C127.102 240.466 127.234 240.149 127.236 239.819C127.236 239.488 127.105 239.17 126.871 238.934C126.638 238.699 126.32 238.566 125.989 238.564H115.815C115.483 238.566 115.166 238.699 114.932 238.934C114.699 239.17 114.567 239.488 114.567 239.819C114.569 240.149 114.701 240.466 114.935 240.699C115.168 240.933 115.485 241.065 115.815 241.067Z" fill="#F4F3F2"/>
<path id="backgroundExtraLight_11" d="M115.815 264.774H125.989C126.154 264.773 126.317 264.74 126.469 264.676C126.62 264.612 126.758 264.519 126.874 264.402C126.99 264.285 127.081 264.146 127.144 263.993C127.206 263.841 127.237 263.677 127.236 263.512C127.234 263.182 127.103 262.865 126.869 262.63C126.636 262.395 126.32 262.262 125.989 262.258H115.815C115.484 262.262 115.168 262.395 114.934 262.63C114.701 262.865 114.569 263.182 114.567 263.512C114.566 263.677 114.598 263.841 114.66 263.993C114.722 264.146 114.814 264.285 114.93 264.402C115.046 264.519 115.183 264.612 115.335 264.676C115.487 264.74 115.65 264.773 115.815 264.774Z" fill="#F4F3F2"/>
<path id="backgroundExtraLight_12" d="M125.125 231.583C124.873 231.581 124.632 231.48 124.454 231.302C124.276 231.124 124.175 230.883 124.173 230.631V201.702C124.175 201.451 124.276 201.211 124.454 201.034C124.632 200.857 124.873 200.758 125.125 200.758C125.376 200.758 125.617 200.857 125.795 201.034C125.973 201.211 126.075 201.451 126.076 201.702V230.631C126.075 230.883 125.974 231.124 125.796 231.302C125.617 231.48 125.376 231.581 125.125 231.583Z" fill="#F4F3F2"/>
<path id="backgroundExtraLight_13" d="M134.031 230.459H116.221V232.701H134.031V230.459Z" fill="#F4F3F2"/>
<path id="backgroundExtraLight_14" d="M130.058 214.278C129.932 214.278 129.811 214.227 129.721 214.138C129.632 214.049 129.582 213.928 129.582 213.802V199.337C129.582 199.211 129.632 199.09 129.721 199.001C129.811 198.911 129.932 198.861 130.058 198.861C130.184 198.861 130.305 198.911 130.394 199.001C130.484 199.09 130.534 199.211 130.534 199.337V213.794C130.535 213.858 130.523 213.92 130.5 213.979C130.476 214.037 130.441 214.091 130.397 214.136C130.353 214.181 130.3 214.216 130.242 214.241C130.184 214.265 130.121 214.278 130.058 214.278Z" fill="#F4F3F2"/>
<path id="backgroundExtraLight_15" d="M111.273 204.343C111.273 204.343 111.627 190.736 125.125 190.736C138.623 190.736 138.969 204.343 138.969 204.343H111.273Z" fill="#F4F3F2"/>
<path id="backgroundExtraLight_16" d="M228.129 223.602C228.511 223.602 228.901 223.602 229.29 223.638C233.278 223.926 237.028 225.645 239.849 228.479C242.67 231.314 244.372 235.071 244.641 239.061C244.754 240.873 244.574 242.692 244.108 244.447C242.3 251.484 241.427 258.728 241.512 265.992V287.163C241.512 287.899 241.219 288.605 240.699 289.126C240.178 289.646 239.472 289.939 238.736 289.939H171.569V223.602H228.129Z" fill="#F4F3F2"/>
<path id="backgroundExtraLight_17" d="M155.014 240.151C155.021 237.799 155.529 235.475 156.506 233.335C157.482 231.195 158.904 229.288 160.676 227.741C162.448 226.194 164.529 225.043 166.781 224.364C169.033 223.685 171.404 223.494 173.736 223.805C176.068 224.115 178.306 224.919 180.303 226.163C182.299 227.407 184.007 229.062 185.313 231.019C186.619 232.975 187.492 235.188 187.875 237.509C188.258 239.829 188.141 242.205 187.533 244.478C185.732 251.515 184.861 258.759 184.945 266.023V287.164C184.945 287.529 184.873 287.891 184.733 288.228C184.593 288.565 184.388 288.872 184.129 289.13C183.871 289.387 183.564 289.592 183.226 289.731C182.888 289.87 182.527 289.941 182.161 289.94H160.955C160.219 289.94 159.513 289.648 158.992 289.127C158.472 288.606 158.179 287.9 158.179 287.164V264.761C158.241 257.946 157.377 251.154 155.612 244.571C155.215 243.132 155.013 241.645 155.014 240.151Z" fill="#F4F3F2"/>
<path id="backgroundExtraLight_18" d="M194.361 289.945H254.648V249.667H194.361V289.945Z" fill="#F4F3F2"/>
<path id="backgroundLight" d="M304.472 258.768H223.778V196.988C223.778 193.668 225.097 190.484 227.445 188.136C229.792 185.789 232.976 184.47 236.296 184.47H291.954C295.274 184.47 298.458 185.789 300.805 188.136C303.153 190.484 304.472 193.668 304.472 196.988V258.768Z" fill="#E4E2E0"/>
<path id="backgroundExtraLight_19" d="M288.705 258.768H208.012V196.382C208.012 193.221 209.267 190.189 211.503 187.954C213.738 185.719 216.77 184.463 219.931 184.463H276.757C279.918 184.463 282.95 185.719 285.185 187.954C287.42 190.189 288.676 193.221 288.676 196.382V258.768H288.705Z" fill="#F4F3F2"/>
<path id="backgroundLight_2" d="M250.711 262.395H195.139C194.183 262.395 193.266 262.015 192.59 261.339C191.914 260.662 191.534 259.745 191.534 258.789V249.625C191.534 248.668 191.914 247.751 192.59 247.075C193.266 246.399 194.183 246.019 195.139 246.019H250.711C251 246.019 251.277 246.134 251.481 246.338C251.685 246.542 251.8 246.819 251.8 247.108V261.306C251.8 261.594 251.685 261.871 251.481 262.076C251.277 262.28 251 262.395 250.711 262.395Z" fill="#E4E2E0"/>
<path id="backgroundExtraLight_20" d="M310.422 223.602C310.804 223.602 311.187 223.602 311.583 223.638C314.016 223.816 316.379 224.529 318.505 225.726C320.63 226.923 322.466 228.574 323.88 230.561C325.295 232.548 326.253 234.823 326.688 237.223C327.122 239.624 327.022 242.09 326.394 244.447C324.585 251.486 323.713 258.733 323.798 266V287.163C323.798 287.528 323.726 287.889 323.586 288.227C323.446 288.564 323.241 288.87 322.982 289.128C322.724 289.386 322.417 289.59 322.079 289.729C321.742 289.869 321.38 289.94 321.015 289.939H253.855V223.602H310.422Z" fill="#F4F3F2"/>
<path id="backgroundExtraLight_21" d="M237.314 240.151C237.285 235.838 238.941 231.685 241.93 228.576C244.918 225.467 249.003 223.648 253.314 223.507C257.624 223.366 261.819 224.914 265.004 227.821C268.19 230.728 270.114 234.764 270.367 239.069C270.481 240.882 270.3 242.7 269.833 244.455C268.026 251.492 267.153 258.736 267.238 266.001V287.164C267.238 287.9 266.945 288.606 266.425 289.127C265.904 289.647 265.198 289.94 264.462 289.94H243.248C242.884 289.94 242.523 289.868 242.186 289.728C241.849 289.589 241.543 289.384 241.285 289.127C241.027 288.869 240.823 288.563 240.683 288.226C240.544 287.889 240.472 287.528 240.472 287.164V264.76C240.533 257.946 239.672 251.154 237.912 244.571C237.515 243.131 237.313 241.644 237.314 240.151Z" fill="#F4F3F2"/>
<path id="backgroundLight_3" d="M172.738 291.956H309.241C309.506 291.956 309.768 291.904 310.013 291.803C310.258 291.701 310.48 291.552 310.667 291.365C310.853 291.177 311.001 290.954 311.102 290.71C311.203 290.465 311.254 290.202 311.253 289.938H170.727C170.726 290.202 170.777 290.465 170.878 290.71C170.978 290.954 171.126 291.177 171.313 291.365C171.5 291.552 171.722 291.701 171.967 291.803C172.211 291.904 172.474 291.956 172.738 291.956Z" fill="#E4E2E0"/>
<path id="backgroundLight_4" d="M253.584 137.268H297.489V89.3822H253.584V137.268Z" fill="#E4E2E0"/>
<path id="backgroundExtraLight_22" d="M250.961 137.268H296.005V89.3822H250.961V137.268Z" fill="#F4F3F2"/>
<path id="backgroundWhite_2" d="M292.231 133.499V93.1562H254.729V133.499H292.231Z" fill="#FDFDFD"/>
<path id="backgroundExtraLight_23" d="M273.485 103.129L283.738 120.889H263.231L273.485 103.129Z" fill="#F4F3F2"/>
<path id="backgroundLight_5" d="M191.99 165.227H235.896V117.341H191.99V165.227Z" fill="#E4E2E0"/>
<path id="backgroundExtraLight_24" d="M189.374 165.227H234.418V117.341H189.374V165.227Z" fill="#F4F3F2"/>
<path id="backgroundWhite_3" d="M230.642 161.454V121.111H193.139V161.454H230.642Z" fill="#FDFDFD"/>
<path id="backgroundExtraLight_25" d="M207.307 148.476L202.858 140.768C202.395 139.963 202.152 139.051 202.153 138.123C202.154 137.194 202.399 136.283 202.864 135.479C203.329 134.676 203.996 134.009 204.8 133.545C205.604 133.081 206.516 132.836 207.444 132.836H216.364C217.292 132.837 218.203 133.082 219.007 133.546C219.81 134.01 220.478 134.677 220.943 135.48C221.408 136.283 221.654 137.194 221.656 138.122C221.659 139.05 221.418 139.962 220.957 140.768L216.508 148.476C216.044 149.286 215.374 149.96 214.567 150.429C213.759 150.897 212.841 151.144 211.907 151.144C210.974 151.144 210.056 150.897 209.248 150.429C208.441 149.96 207.771 149.286 207.307 148.476Z" fill="#F4F3F2"/>
</g>
</g>
<g id="Group 148233">
<rect id="objectPrimary" x="86.5264" y="72.8906" width="174.7" height="227.11" rx="13" fill="#241C4F"/>
<g id="Group 148230">
<rect id="backgroundWhite_4" x="96.1641" y="86.1445" width="154.82" height="200.001" fill="#FDFDFD"/>
<path id="objectTertiary" d="M181.704 271.812C184.399 268.772 190.886 264.223 195.268 270.341C197.957 274.096 196.854 276.344 194.878 277.249C192.406 278.38 189.321 276.216 189.729 273.529C189.99 271.817 191.276 270.341 193.964 270.341L232.307 264.459" stroke="#404040" stroke-width="1.5"/>
<rect id="backgroundExtraLight_26" x="115.442" y="244.578" width="116.868" height="7.83136" fill="#F4F3F2"/>
<rect id="backgroundExtraLight_27" x="115.442" y="223.494" width="116.868" height="7.83136" fill="#F4F3F2"/>
<rect id="backgroundExtraLight_28" x="115.442" y="202.41" width="116.868" height="7.83136" fill="#F4F3F2"/>
<rect id="backgroundExtraLight_29" x="115.442" y="181.326" width="116.868" height="7.83136" fill="#F4F3F2"/>
<rect id="backgroundExtraLight_30" x="115.442" y="160.24" width="116.868" height="7.83136" fill="#F4F3F2"/>
<rect id="backgroundExtraLight_31" x="115.442" y="139.156" width="116.868" height="7.83136" fill="#F4F3F2"/>
<rect id="backgroundExtraLight_32" x="115.442" y="118.072" width="116.868" height="7.83136" fill="#F4F3F2"/>
</g>
<g id="Group 148231">
<rect id="objectSecondary" x="116.045" y="93.3125" width="121.965" height="157.557" transform="rotate(-9.63911 116.045 93.3125)" fill="#CAC5E8"/>
<rect id="objectTertiary_2" opacity="0.7" x="151.914" y="213.82" width="92.0667" height="6.16942" transform="rotate(-9.63911 151.914 213.82)" fill="#404040"/>
<rect id="objectTertiary_3" opacity="0.7" x="149.136" y="197.443" width="92.0667" height="6.16942" transform="rotate(-9.63911 149.136 197.443)" fill="#404040"/>
<rect id="objectTertiary_4" opacity="0.7" x="146.354" y="181.068" width="92.0667" height="6.16942" transform="rotate(-9.63911 146.354 181.068)" fill="#404040"/>
<rect id="objectTertiary_5" opacity="0.7" x="143.574" y="164.695" width="92.0667" height="6.16942" transform="rotate(-9.63911 143.574 164.695)" fill="#404040"/>
<rect id="objectTertiary_6" opacity="0.7" x="140.792" y="148.318" width="92.0667" height="6.16942" transform="rotate(-9.63911 140.792 148.318)" fill="#404040"/>
<rect id="objectTertiary_7" opacity="0.7" x="138.01" y="131.943" width="92.0667" height="6.16942" transform="rotate(-9.63911 138.01 131.943)" fill="#404040"/>
<rect id="objectTertiary_8" opacity="0.7" x="135.228" y="115.566" width="92.0667" height="6.16942" transform="rotate(-9.63911 135.228 115.566)" fill="#404040"/>
</g>
<g id="Group 148232">
<path id="objectTertiary_9" d="M136.528 74.4453C136.528 67.2656 142.349 61.4453 149.528 61.4453H199.227C205.855 61.4453 211.227 66.8179 211.227 73.4453V91.5659H136.528V74.4453Z" fill="#404040"/>
<path id="objectTertiary_10" d="M157.615 63C157.615 55.8203 163.436 50 170.615 50H178.146C184.773 50 190.146 55.3726 190.146 62V63.2531H157.615V63Z" fill="#404040"/>
</g>
</g>
</g>
</g>
</svg>
