<svg width="29" height="26" viewBox="0 0 29 26" fill="none" xmlns="http://www.w3.org/2000/svg">
<path d="M23.9568 5.08299C23.9568 5.66194 23.9568 6.24299 23.9568 6.81878C23.9568 7.33867 23.7196 7.65607 23.3357 7.66244C22.9519 7.66874 22.6967 7.35449 22.6946 6.80085C22.6946 5.7094 22.6946 4.61794 22.6946 3.53176C22.6946 2.87688 22.5027 2.68812 21.851 2.68812C21.7455 2.68812 21.64 2.68812 21.5346 2.68812C20.7226 2.68812 20.6288 2.77354 20.5443 3.59714C20.5377 3.75629 20.4703 3.90686 20.3562 4.01802C20.2421 4.12918 20.0899 4.19252 19.9306 4.19507C19.5879 4.20351 19.3432 3.98416 19.2926 3.62667C19.2546 3.35897 19.2733 3.08626 19.3475 2.82626C19.4217 2.56627 19.5498 2.3248 19.7235 2.11753C19.8972 1.91028 20.1124 1.74187 20.3554 1.62324C20.5984 1.50462 20.8636 1.43843 21.1339 1.42899C21.4618 1.4195 21.7919 1.4195 22.1198 1.42899C22.5986 1.43373 23.057 1.62397 23.3984 1.95969C23.7398 2.29541 23.9377 2.75045 23.9505 3.2291C23.9738 3.84601 23.9505 4.46503 23.9505 5.08299H23.9568Z" fill="#B7B4B2"/>
<path fill-rule="evenodd" clip-rule="evenodd" d="M2.41085 14.9891C2.1625 15.0051 1.91332 15.003 1.66528 14.9827C0.902846 14.8657 0.346047 14.4639 0.104555 13.7173C-0.136936 12.9706 0.0455021 12.3105 0.593866 11.7611C1.96548 10.3804 3.34447 9.00592 4.73085 7.63784C6.76402 5.61662 8.79858 3.59646 10.8345 1.57736C12.0252 0.39943 13.5764 0.0767386 14.9905 0.733722C15.3147 0.877859 15.6119 1.07653 15.869 1.32111C18.4184 3.85667 20.9631 6.39674 23.5032 8.94127C22.9162 8.84626 22.3139 8.79688 21.7 8.79688C21.6674 8.79688 21.6349 8.79702 21.6024 8.79729C19.4997 6.69162 17.3953 4.58762 15.289 2.48532C14.1574 1.35485 12.8192 1.36223 11.6814 2.4927L1.68953 12.4234C1.20972 12.9011 1.13906 13.286 1.4723 13.6066C1.78866 13.9113 2.16724 13.8365 2.6323 13.3745L12.5028 3.4903C13.2041 2.78798 13.7166 2.78798 14.4221 3.4903C16.2406 5.30804 18.059 7.12611 19.877 8.94449C19.3771 9.02633 18.8883 9.14127 18.4129 9.28698C16.8124 7.68778 15.2097 6.09055 13.6049 4.49529C13.572 4.46249 13.5366 4.43285 13.5045 4.406C13.4912 4.39487 13.4785 4.38422 13.4667 4.37402C12.9941 4.84356 12.522 5.31177 12.0504 5.77941C11.0625 6.75907 10.0771 7.7362 9.09559 8.71766C8.40004 9.41366 7.70641 10.1116 7.01277 10.8095C6.00067 11.8278 4.98856 12.8462 3.97052 13.8586C3.86634 13.9547 3.78484 14.0728 3.73195 14.2043C3.67906 14.3358 3.65609 14.4775 3.6647 14.6189C3.67689 15.4453 3.67478 16.2716 3.67266 17.098C3.67185 17.4158 3.67103 17.7336 3.67103 18.0515C3.67192 18.0786 3.67247 18.1057 3.6727 18.1328H3.67305V23.1655H3.82969H10.9545C11.0961 23.6464 11.2691 24.1139 11.4711 24.5655H3.82969C3.10344 24.5655 2.50636 24.0126 2.43651 23.3047C2.432 23.2589 2.42969 23.2125 2.42969 23.1655V18.5563C2.41927 18.5017 2.4136 18.4427 2.41296 18.3795C2.40663 17.7306 2.40874 17.0817 2.41085 16.4328L2.41085 16.4326C2.4119 16.1082 2.41296 15.7838 2.41296 15.4594L2.41085 14.9891Z" fill="#B7B4B2"/>
<path d="M15.9964 24.7773C17.3652 25.3864 19.0341 25.6891 21 25.6891C22.9659 25.6891 24.6348 25.3864 26.0036 24.7773C27.3658 24.1712 28.0875 23.4138 28.0875 22.4905V14.7127C28.0875 13.8016 27.3582 13.0476 25.9842 12.4355C24.6027 11.82 22.9403 11.5141 21 11.5141C19.0597 11.5141 17.3973 11.82 16.0158 12.4355C14.6418 13.0476 13.9125 13.8016 13.9125 14.7127V22.4905C13.9125 23.4138 14.6342 24.1712 15.9964 24.7773ZM24.4074 15.5134C23.2414 15.8548 22.1057 16.0252 21 16.0252C19.8417 16.0252 18.6962 15.8611 17.5632 15.5328C16.474 15.2172 15.7601 14.85 15.3984 14.4413C15.7609 14.0439 16.4814 13.6795 17.5829 13.3578C18.729 13.0229 19.868 12.8557 21 12.8557C22.0925 12.8557 23.2216 13.0292 24.3875 13.3771C24.9711 13.5512 25.4496 13.7326 25.8243 13.9207C26.1647 14.0917 26.4153 14.2662 26.5816 14.4423C26.4212 14.623 26.1755 14.8004 25.8383 14.9726C25.4673 15.1621 24.9908 15.3426 24.4074 15.5134ZM22.6046 20.0993C22.0632 20.1573 21.5219 20.1863 20.9806 20.1863C20.4262 20.1863 19.8784 20.1573 19.3371 20.0993C18.796 20.0413 18.2778 19.9544 17.7824 19.8386C17.2869 19.7227 16.8208 19.5813 16.384 19.4143C15.9652 19.2541 15.5887 19.0766 15.2542 18.882V16.0696C15.5762 16.25 15.9355 16.4147 16.3316 16.564C16.7827 16.734 17.2595 16.8776 17.762 16.9951C18.2645 17.1126 18.7894 17.2038 19.3369 17.269C19.8847 17.3342 20.4326 17.3668 20.9806 17.3668C21.5285 17.3668 22.07 17.3342 22.605 17.269C23.1395 17.2038 23.661 17.1125 24.1697 16.9952C24.6786 16.8777 25.1619 16.7341 25.6194 16.5641C26.0252 16.4134 26.4007 16.247 26.7458 16.0649V18.8811C26.3986 19.076 26.0094 19.2537 25.5779 19.414C25.1278 19.5811 24.655 19.7227 24.1592 19.8386C23.6639 19.9544 23.1457 20.0413 22.6046 20.0993ZM22.9106 24.1833C22.2539 24.2928 21.617 24.3474 21 24.3474C20.3699 24.3474 19.7266 24.2927 19.0699 24.1833C18.4123 24.0737 17.807 23.932 17.254 23.7584C16.7012 23.5848 16.2414 23.3864 15.873 23.1641C15.5084 22.9442 15.3137 22.7392 15.2542 22.5551V20.2695C15.5757 20.4493 15.9319 20.6109 16.3226 20.7545C16.767 20.9179 17.2403 21.0582 17.7426 21.1757C18.2454 21.2932 18.7707 21.3813 19.3185 21.44C19.8661 21.4986 20.4201 21.528 20.9806 21.528C21.541 21.528 22.0919 21.4986 22.633 21.4399C23.1743 21.3812 23.6964 21.2932 24.1991 21.1757C24.7012 21.0583 25.1808 20.918 25.6378 20.7548C26.0421 20.6104 26.4115 20.4479 26.7458 20.267V22.534C26.6741 22.7323 26.4685 22.9408 26.0994 23.1535C25.7235 23.3702 25.2626 23.5689 24.7157 23.749C24.1696 23.9289 23.568 24.0737 22.9106 24.1833Z" fill="#B7B4B2" stroke="#B7B4B2" stroke-width="0.175"/>
</svg>
