<svg width="31" height="33" viewBox="0 0 31 33" fill="none" xmlns="http://www.w3.org/2000/svg">
<path d="M3.10698 16.7641C2.83441 16.7817 2.56091 16.7794 2.28868 16.7571C1.45186 16.6286 0.840743 16.1877 0.575693 15.3682C0.310642 14.5488 0.510879 13.8242 1.11274 13.2212C2.61816 11.7057 4.13169 10.1972 5.65332 8.69566C7.88483 6.47726 10.1179 4.26002 12.3525 2.04393C13.6592 0.751089 15.3618 0.396917 16.9139 1.11799C17.2698 1.27619 17.5959 1.49425 17.878 1.76268C21.7161 5.57987 25.5444 9.40631 29.3632 13.242C30.384 14.2687 30.1583 15.881 28.9002 16.5546C28.4916 16.7745 27.9743 16.8034 27.4222 16.9423V17.3162C27.4222 19.5978 27.4222 21.8783 27.4222 24.1577C27.4339 24.3163 27.4225 24.4757 27.3886 24.6311C27.3543 24.7811 27.2689 24.9145 27.1471 25.0084C27.0253 25.1024 26.8745 25.1511 26.7208 25.1461C26.5664 25.1539 26.4146 25.1039 26.295 25.0059C26.1754 24.9079 26.0966 24.7689 26.0738 24.616C26.0454 24.4455 26.0337 24.2726 26.039 24.0998C26.039 21.4875 26.039 18.8741 26.0275 16.2617C26.0289 16.0399 25.9519 15.8246 25.8099 15.6541C22.3469 12.1764 18.8746 8.70723 15.3931 5.24653C15.3421 5.1956 15.2854 5.15162 15.2414 5.11342C13.6361 6.70836 12.0354 8.2894 10.4439 9.88086C8.56656 11.7594 6.70194 13.6506 4.81881 15.5233C4.70446 15.6288 4.61502 15.7584 4.55697 15.9027C4.49891 16.0471 4.4737 16.2025 4.48316 16.3578C4.50168 17.6136 4.49011 18.8694 4.49011 20.1252C4.49436 20.2553 4.49165 20.3855 4.482 20.5153C4.43571 20.9516 4.13478 21.2236 3.74472 21.2097C3.35467 21.1958 3.11393 20.9389 3.1093 20.4852C3.09888 19.4169 3.1093 18.3486 3.1093 17.2803L3.10698 16.7641ZM28.7185 14.7432C28.5217 14.4585 28.3932 14.2015 28.2011 14.0082C24.5529 10.3477 20.8997 6.69177 17.2415 3.04048C15.9995 1.79972 14.5308 1.80782 13.2819 3.04858L2.3153 13.9481C1.78867 14.4724 1.71112 14.8948 2.07687 15.2467C2.4241 15.5812 2.83961 15.499 3.35004 14.992L14.1835 4.1435C14.9532 3.37266 15.5157 3.37266 16.2901 4.1435C19.8943 7.74618 23.4977 11.35 27.1004 14.955C27.2161 15.0708 27.3076 15.2397 27.4418 15.2779C27.6884 15.3474 27.9881 15.4226 28.2069 15.3393C28.3967 15.2675 28.5159 14.9863 28.7139 14.7432H28.7185Z" fill="#B7B4B2"/>
<path d="M26.7497 5.88548C26.7497 6.52091 26.7497 7.15865 26.7497 7.7906C26.7497 8.36121 26.4893 8.70959 26.068 8.71654C25.6467 8.72348 25.3666 8.37857 25.3643 7.77092C25.3643 6.57299 25.3643 5.37505 25.3643 4.18291C25.3643 3.46414 25.1536 3.25697 24.4383 3.25697C24.3226 3.25697 24.2068 3.25697 24.0911 3.25697C23.1999 3.25697 23.0969 3.35072 23.0043 4.25467C22.9969 4.42935 22.9231 4.5946 22.7978 4.71661C22.6726 4.83861 22.5055 4.90813 22.3306 4.91093C21.9545 4.92019 21.686 4.67944 21.6304 4.28708C21.5887 3.99326 21.6092 3.69395 21.6907 3.40859C21.7722 3.12322 21.9128 2.8582 22.1033 2.63072C22.2939 2.40324 22.5302 2.21839 22.7969 2.0882C23.0636 1.958 23.3547 1.88536 23.6513 1.875C24.0112 1.86458 24.3735 1.86458 24.7335 1.875C25.259 1.88021 25.762 2.089 26.1367 2.45747C26.5115 2.82594 26.7287 3.32537 26.7428 3.85073C26.7682 4.52782 26.7428 5.20723 26.7428 5.88548H26.7497Z" fill="#B7B4B2"/>
<path fill-rule="evenodd" clip-rule="evenodd" d="M27.4387 25.7346C27.4387 25.7862 27.4362 25.8371 27.4312 25.8874C27.3546 26.6643 26.6992 27.2712 25.9022 27.2712H23.8486V25.7346H25.9022H26.2095V20.2109H27.4387V25.7346ZM6.71875 25.7346V27.2712H4.66939C3.8723 27.2712 3.21697 26.6643 3.14031 25.8874C3.13535 25.8371 3.13281 25.7862 3.13281 25.7346V20.2109H4.36208V25.7346H4.66939H6.71875Z" fill="#B7B4B2"/>
<path d="M15.2158 32.247C13.5233 32.2351 11.8723 31.7221 10.4712 30.7726C9.07004 29.8231 7.98163 28.4798 7.34334 26.9122C6.70505 25.3447 6.54551 23.6231 6.88486 21.9649C7.22421 20.3068 8.04723 18.7863 9.25002 17.5955C10.4528 16.4047 11.9815 15.597 13.6429 15.2743C15.3044 14.9516 17.0243 15.1284 18.5854 15.7824C20.1465 16.4364 21.4788 17.5382 22.4142 18.9488C23.3496 20.3594 23.846 22.0155 23.8409 23.708C23.8272 25.9834 22.9113 28.1604 21.2943 29.7612C19.6773 31.3621 17.4912 32.2561 15.2158 32.247ZM15.2899 16.7507C13.9198 16.7476 12.5795 17.1505 11.4383 17.9087C10.2971 18.6669 9.40622 19.7463 8.87817 21.0106C8.35012 22.2749 8.20859 23.6673 8.47148 25.0119C8.73437 26.3566 9.38987 27.5931 10.3552 28.5654C11.3205 29.5377 12.5523 30.2021 13.895 30.4747C15.2378 30.7473 16.6311 30.6158 17.8992 30.0969C19.1672 29.578 20.253 28.6949 21.0194 27.5592C21.7858 26.4235 22.1985 25.0861 22.2052 23.716C22.2092 22.8044 22.0334 21.901 21.6878 21.0574C21.3423 20.2138 20.8339 19.4466 20.1916 18.7997C19.5493 18.1528 18.7858 17.6388 17.9448 17.2872C17.1037 16.9356 16.2015 16.7533 15.2899 16.7507Z" fill="#B7B4B2"/>
<path fill-rule="evenodd" clip-rule="evenodd" d="M14.816 19.1966C13.5881 19.3388 12.676 20.4111 12.7363 21.6417C12.7422 21.7608 12.7593 21.9221 12.7744 22.0002C12.8765 22.5283 13.1811 23.0464 13.5797 23.3697C13.6311 23.4113 13.6731 23.4516 13.6731 23.4592C13.6731 23.4669 13.6391 23.4869 13.5975 23.5037C13.4515 23.5629 13.1799 23.7041 13.0352 23.7961C11.9143 24.5086 11.2188 25.7564 11.2188 27.0544C11.2188 27.4323 11.3059 27.7002 11.506 27.9378C11.6872 28.1528 11.8942 28.2892 12.156 28.3662L12.2947 28.407H15.0603H17.8259L17.9646 28.3662C18.416 28.2335 18.755 27.8832 18.8664 27.4344C18.925 27.1985 18.9089 26.7075 18.8299 26.3233C18.5721 25.0688 17.6724 23.9692 16.5231 23.5037C16.4816 23.4869 16.4475 23.4669 16.4475 23.4592C16.4475 23.4516 16.4896 23.4113 16.5409 23.3697C16.9395 23.0464 17.2441 22.5283 17.3462 22.0002C17.3613 21.9221 17.3785 21.7608 17.3843 21.6417C17.4404 20.4973 16.6428 19.4636 15.5269 19.2343C15.3243 19.1927 14.9987 19.1754 14.816 19.1966ZM14.9269 19.8937C14.6318 19.9361 14.4714 19.9852 14.2807 20.0915C13.8876 20.3107 13.594 20.6915 13.475 21.1365C13.4441 21.2522 13.4362 21.3329 13.4353 21.5425C13.4342 21.8128 13.4495 21.9059 13.533 22.1378C13.6993 22.5995 14.1156 22.9883 14.6077 23.1416C14.7539 23.1872 14.7907 23.1912 15.0603 23.1912C15.33 23.1912 15.3667 23.1872 15.513 23.1416C16.005 22.9883 16.4213 22.5995 16.5876 22.1378C16.6711 21.9059 16.6864 21.8128 16.6853 21.5425C16.6844 21.3329 16.6766 21.2522 16.6456 21.1365C16.4828 20.5276 15.9938 20.0503 15.4083 19.9289C15.2713 19.9005 15.0118 19.8815 14.9269 19.8937ZM14.8558 23.9262C14.2489 23.9615 13.6738 24.1777 13.1662 24.5614C12.9689 24.7105 12.6383 25.0545 12.4954 25.2591C12.3571 25.4574 12.187 25.7813 12.11 25.9931C11.9334 26.4788 11.8603 27.0828 11.9489 27.323C11.9999 27.4613 12.1163 27.5865 12.2538 27.6509L12.3659 27.7034H15.0603H17.7547L17.8668 27.6509C18.0043 27.5865 18.1207 27.4613 18.1717 27.323C18.2174 27.1993 18.2207 26.9528 18.1806 26.6711C18.0794 25.9606 17.7539 25.3131 17.2518 24.8229C16.5941 24.181 15.771 23.873 14.8558 23.9262Z" fill="#B7B4B2"/>
</svg>
