<svg width="33" height="33" viewBox="0 0 33 33" fill="none" xmlns="http://www.w3.org/2000/svg">
<g clip-path="url(#clip0_1872_50069)">
<path d="M0 11.6466C0.0154687 11.632 0.0378125 11.6217 0.0446875 11.6037C0.365234 10.8062 0.777734 10.5183 1.63195 10.5174C4.07687 10.5174 6.5218 10.5174 8.96586 10.508C9.20672 10.503 9.44273 10.4393 9.65336 10.3224C12.8084 8.52454 15.9595 6.71785 19.1065 4.90227C19.4262 4.71751 19.6857 4.72266 20.0002 4.90227C23.7402 7.05701 27.4845 9.20545 31.2331 11.3476C31.5399 11.5195 31.6697 11.7403 31.6628 12.0961C31.643 12.9005 31.6585 13.7049 31.6559 14.5092C31.6559 15.0773 31.3053 15.2827 30.8129 15.0059C30.4863 14.8229 30.1623 14.6347 29.8358 14.4491C29.8079 14.4383 29.7792 14.43 29.7498 14.4241V27.2426C29.8547 27.2477 29.9681 27.2563 30.0816 27.2572C30.843 27.2572 31.6044 27.2572 32.3658 27.2572C32.7241 27.2572 32.9347 27.4377 32.9407 27.7238C32.9467 28.01 32.7387 28.1982 32.3864 28.2188C32.3323 28.2188 32.279 28.2188 32.2248 28.2188C21.7279 28.2188 11.2306 28.2188 0.733047 28.2188C0.438281 28.2188 0.186484 28.1647 0.00171875 27.9215V27.5356C0.17875 27.3036 0.415078 27.2443 0.70125 27.2452C2.90727 27.2538 5.11414 27.2452 7.31844 27.2452H7.69484V21.7856H7.28664C5.40203 21.7856 3.51656 21.7856 1.63109 21.7856C0.936719 21.7856 0.403047 21.5389 0.11 20.8772C0.0764844 20.8007 0.0369531 20.7285 0 20.6538L0 11.6466ZM9.49437 11.4894H1.61562C1.11289 11.4894 0.965937 11.6389 0.965078 12.1416V20.1502C0.965078 20.6658 1.11633 20.8188 1.63883 20.8188C6.87013 20.8188 12.1011 20.8188 17.3319 20.8188C17.869 20.8188 18.0151 20.6666 18.0151 20.1313V12.1838C18.0151 11.6234 17.8802 11.4902 17.3087 11.4902L9.49437 11.4894ZM18.9802 18.532H22.5749C23.1679 18.532 23.2968 18.6583 23.2968 19.2409C23.2968 21.7709 23.2968 24.3012 23.2968 26.8318V27.2306H28.7409C28.747 27.1541 28.7547 27.1008 28.7547 27.0475C28.7547 22.7163 28.7512 18.3847 28.7444 14.0529C28.7345 13.9802 28.7088 13.9105 28.6692 13.8488C28.6296 13.787 28.5769 13.7347 28.5149 13.6954C25.6039 12.0133 22.6892 10.3367 19.7708 8.66548C19.7073 8.62037 19.6313 8.59614 19.5534 8.59614C19.4754 8.59614 19.3995 8.62037 19.3359 8.66548C18.3657 9.23266 17.3877 9.78868 16.4141 10.3499C16.3496 10.3868 16.292 10.4358 16.1691 10.5217C16.6719 10.5217 17.0878 10.5217 17.5046 10.5217C17.8626 10.5115 18.2112 10.6374 18.48 10.8741C18.8401 11.192 18.9836 11.6002 18.9827 12.0772C18.9776 14.2136 18.9802 16.3466 18.9802 18.532ZM16.7845 27.2314H22.3051V19.5134H18.9827C18.9647 20.1476 19.0798 20.7964 18.5943 21.3181C18.0941 21.8577 17.4316 21.7701 16.7845 21.7916V27.2314ZM30.69 13.8252C30.69 13.3095 30.7037 12.8463 30.6805 12.3891C30.6733 12.3208 30.6515 12.2547 30.6167 12.1955C30.5819 12.1362 30.5348 12.085 30.4786 12.0454C26.9173 9.99264 23.3535 7.9436 19.7871 5.89829C19.7193 5.85023 19.6382 5.82441 19.5551 5.82441C19.4719 5.82441 19.3909 5.85023 19.323 5.89829C16.7449 7.38787 14.1642 8.87029 11.5809 10.3456C11.5156 10.3834 11.4555 10.4315 11.318 10.5269C12.1773 10.5269 12.9508 10.5157 13.7173 10.5329C14.0162 10.5393 14.3105 10.459 14.5647 10.3017C16.0643 9.43032 17.5725 8.58298 19.0721 7.70298C19.4098 7.50446 19.6805 7.49844 20.0174 7.6961C22.0902 8.89923 24.1734 10.0895 26.2539 11.2831L30.69 13.8252ZM15.7859 21.8019H11.2802V27.228H15.7859V21.8019ZM8.70976 21.8019V27.2349H10.2712V21.8045L8.70976 21.8019Z" fill="#B7B4B2"/>
<path d="M21.8611 23.37C21.859 23.53 21.8463 23.6896 21.8233 23.8479C21.7683 24.1057 21.5878 24.2243 21.3309 24.2088C21.0868 24.1942 20.9244 24.0567 20.9012 23.8126C20.8804 23.5461 20.8773 23.2786 20.8917 23.0117C20.8896 22.8873 20.9366 22.7672 21.0225 22.6773C21.1084 22.5873 21.2263 22.5349 21.3506 22.5313C21.475 22.5295 21.5952 22.5758 21.6863 22.6605C21.7774 22.7452 21.8323 22.8617 21.8396 22.9859C21.8474 23.1138 21.8474 23.2421 21.8396 23.37H21.8611Z" fill="#B7B4B2"/>
<path d="M7.31217 14.525V14.99H5.83717V16.015H6.98717V16.48H5.83717V18H5.26717V14.525H7.31217ZM10.6204 14.525V18H10.0504V16.48H8.41542V18H7.84542V14.525H8.41542V16.015H10.0504V14.525H10.6204ZM13.4708 17.29H12.0158L11.7658 18H11.1708L12.4158 14.52H13.0758L14.3208 18H13.7208L13.4708 17.29ZM13.3108 16.825L12.7458 15.21L12.1758 16.825H13.3108Z" fill="#B7B4B2"/>
</g>
<defs>
<clipPath id="clip0_1872_50069">
<rect width="33" height="33" fill="white"/>
</clipPath>
</defs>
</svg>
