<svg width="33" height="21" viewBox="0 0 33 21" fill="none" xmlns="http://www.w3.org/2000/svg">
<path d="M11.8129 12.3905C11.602 12.4042 11.3904 12.4024 11.1798 12.3851C10.5323 12.2857 10.0595 11.9445 9.85441 11.3105C9.64934 10.6765 9.80427 10.1159 10.2699 9.64929C11.4347 8.47674 12.6058 7.30957 13.7831 6.14777C15.5097 4.43133 17.2375 2.71579 18.9664 1.00115C19.9775 0.000842771 21.2948 -0.27319 22.4957 0.284726C22.7711 0.407129 23.0234 0.575845 23.2417 0.783537C26.2113 3.737 29.1734 6.69762 32.1281 9.66541C32.9179 10.4597 32.7433 11.7072 31.7698 12.2284C31.4537 12.3986 31.0534 12.421 30.6263 12.5284V12.8177C30.6263 14.5831 30.6263 16.3476 30.6263 18.1112C30.6353 18.2339 30.6265 18.3572 30.6003 18.4774C30.5737 18.5935 30.5077 18.6967 30.4134 18.7694C30.3192 18.8421 30.2025 18.8798 30.0836 18.8759C29.9641 18.8819 29.8467 18.8432 29.7541 18.7674C29.6616 18.6916 29.6006 18.5841 29.583 18.4658C29.561 18.3339 29.552 18.2001 29.5561 18.0664C29.5561 16.0452 29.5561 14.0231 29.5471 12.0019C29.5483 11.8302 29.4886 11.6636 29.3788 11.5317C26.6994 8.84093 24.0128 6.15672 21.319 3.47908C21.2796 3.43968 21.2357 3.40565 21.2017 3.3761C19.9596 4.61014 18.7211 5.83344 17.4897 7.06479C16.0372 8.51824 14.5945 9.98153 13.1374 11.4305C13.049 11.5121 12.9798 11.6124 12.9348 11.7241C12.8899 11.8358 12.8704 11.956 12.8777 12.0762C12.8921 13.0478 12.8831 14.0195 12.8831 14.9911C12.8864 15.0918 12.8843 15.1925 12.8768 15.2929C12.841 15.6305 12.6082 15.841 12.3064 15.8302C12.0046 15.8195 11.8183 15.6207 11.8147 15.2696C11.8067 14.4431 11.8147 13.6165 11.8147 12.7899L11.8129 12.3905ZM31.6292 10.8269C31.477 10.6066 31.3776 10.4078 31.2289 10.2583C28.4062 7.42599 25.5796 4.5973 22.7492 1.7722C21.7883 0.812194 20.6518 0.818463 19.6855 1.77847L11.2004 10.2117C10.7929 10.6174 10.7329 10.9442 11.0159 11.2165C11.2846 11.4753 11.6061 11.4117 12.001 11.0195L20.3832 2.62564C20.9787 2.02922 21.4139 2.02922 22.013 2.62564C24.8017 5.41313 27.5898 8.20152 30.3773 10.9908C30.4668 11.0804 30.5376 11.2111 30.6415 11.2407C30.8322 11.2944 31.0642 11.3526 31.2334 11.2881C31.3803 11.2326 31.4725 11.015 31.6257 10.8269H31.6292Z" fill="#023DA7"/>
<path d="M30.11 3.97625C30.11 4.46789 30.11 4.96133 30.11 5.45029C30.11 5.89179 29.9085 6.16134 29.5825 6.16672C29.2566 6.17209 29.0399 5.90522 29.0381 5.43507C29.0381 4.50819 29.0381 3.58132 29.0381 2.65892C29.0381 2.1028 28.8751 1.9425 28.3216 1.9425C28.2321 1.9425 28.1425 1.9425 28.053 1.9425C27.3634 1.9425 27.2837 2.01503 27.2121 2.71444C27.2064 2.8496 27.1492 2.97746 27.0523 3.07186C26.9555 3.16626 26.8261 3.22005 26.6909 3.22221C26.3998 3.22937 26.1921 3.0431 26.1491 2.73952C26.1168 2.51219 26.1327 2.2806 26.1957 2.05981C26.2588 1.83902 26.3675 1.63396 26.515 1.45795C26.6625 1.28194 26.8453 1.13893 27.0516 1.03819C27.258 0.937452 27.4832 0.88125 27.7127 0.873232C27.9912 0.865173 28.2715 0.865173 28.55 0.873232C28.9566 0.87726 29.3458 1.03881 29.6357 1.32391C29.9257 1.609 30.0938 1.99542 30.1046 2.4019C30.1243 2.92579 30.1046 3.45147 30.1046 3.97625H30.11Z" fill="#023DA7"/>
<path d="M24.0252 17.263C24.0252 17.9247 24.0252 18.5889 24.0252 19.2471C24.0252 19.8413 23.7543 20.2041 23.3162 20.2114C22.8781 20.2186 22.5868 19.8594 22.5844 19.2266C22.5844 17.979 22.5844 16.7314 22.5844 15.4898C22.5844 14.7413 22.3654 14.5255 21.6215 14.5255C21.5012 14.5255 21.3808 14.5255 21.2605 14.5255C20.3337 14.5255 20.2265 14.6231 20.1303 15.5646C20.1226 15.7465 20.0458 15.9186 19.9156 16.0457C19.7853 16.1727 19.6115 16.2451 19.4297 16.248C19.0386 16.2577 18.7593 16.0069 18.7016 15.5983C18.6582 15.2923 18.6795 14.9806 18.7642 14.6834C18.849 14.3862 18.9952 14.1102 19.1934 13.8733C19.3916 13.6364 19.6373 13.4439 19.9146 13.3083C20.192 13.1727 20.4947 13.0971 20.8031 13.0863C21.1774 13.0754 21.5541 13.0754 21.9285 13.0863C22.4749 13.0917 22.998 13.3091 23.3877 13.6929C23.7774 14.0766 24.0033 14.5968 24.0179 15.1439C24.0444 15.849 24.0179 16.5566 24.0179 17.263H24.0252Z" fill="#023DA7"/>
<path d="M18.6858 17.263C18.6858 17.9247 18.6858 18.5889 18.6858 19.2471C18.6858 19.8413 18.9566 20.2041 19.3947 20.2114C19.8328 20.2186 20.1241 19.8594 20.1265 19.2266C20.1265 17.979 20.1265 16.7314 20.1265 15.4898C20.1265 14.7413 20.3456 14.5255 21.0894 14.5255C21.2098 14.5255 21.3301 14.5255 21.4505 14.5255C22.3773 14.5255 22.4844 14.6231 22.5807 15.5646C22.5883 15.7465 22.6651 15.9186 22.7954 16.0457C22.9256 16.1727 23.0994 16.2451 23.2812 16.248C23.6724 16.2577 23.9516 16.0069 24.0094 15.5983C24.0528 15.2923 24.0314 14.9806 23.9467 14.6834C23.862 14.3862 23.7158 14.1102 23.5176 13.8733C23.3194 13.6364 23.0736 13.4439 22.7963 13.3083C22.519 13.1727 22.2163 13.0971 21.9079 13.0863C21.5335 13.0754 21.1568 13.0754 20.7825 13.0863C20.236 13.0917 19.7129 13.3091 19.3232 13.6929C18.9335 14.0766 18.7076 14.5968 18.693 15.1439C18.6665 15.849 18.693 16.5566 18.693 17.263H18.6858Z" fill="#023DA7"/>
<path fill-rule="evenodd" clip-rule="evenodd" d="M30.6343 19.3363C30.6343 19.3662 30.6332 19.3959 30.631 19.4252C30.5855 20.0403 30.0721 20.5252 29.4454 20.5252H13.017C12.3903 20.5252 11.8769 20.0403 11.8314 19.4252C11.8292 19.3959 11.8281 19.3662 11.8281 19.3363V15.0625H12.8387V19.3363H13.017H29.4454H29.6237V15.0625H30.6343V19.3363Z" fill="#023DA7"/>
<path fill-rule="evenodd" clip-rule="evenodd" d="M9.77344 19.3363H4.11077H3.93243V15.0625H2.92188V19.3363C2.92188 19.3662 2.92298 19.3959 2.92515 19.4252C2.9706 20.0403 3.48406 20.5252 4.11077 20.5252H9.77344V19.3363Z" fill="#023DA7"/>
<path fill-rule="evenodd" clip-rule="evenodd" d="M2.26574 12.3851C2.47637 12.4024 2.68798 12.4042 2.89888 12.3905L2.90067 12.7899C2.90067 13.0654 2.89977 13.341 2.89888 13.6165C2.89709 14.1675 2.8953 14.7186 2.90067 15.2696C2.90425 15.6207 3.09052 15.8195 3.39232 15.8302C3.69411 15.841 3.92695 15.6305 3.96277 15.2929C3.97024 15.1925 3.97233 15.0918 3.96904 14.9911C3.96904 14.7212 3.96973 14.4513 3.97042 14.1814C3.97222 13.4797 3.97401 12.7779 3.96366 12.0762C3.95635 11.956 3.97585 11.8358 4.02077 11.7241C4.06569 11.6124 4.13489 11.5121 4.22337 11.4305C5.08681 10.5718 5.94522 9.70814 6.80363 8.84445C7.39376 8.25068 7.98388 7.65692 8.57565 7.06479C9.41081 6.22963 10.2493 5.39817 11.0899 4.56455C11.4887 4.1691 11.888 3.77315 12.2876 3.3761C12.2976 3.38473 12.3083 3.39374 12.3196 3.40315C12.3469 3.42598 12.377 3.45119 12.4049 3.47908C13.0436 4.11393 13.6819 4.74915 14.3197 5.38473C14.6478 5.19433 14.9843 5.01738 15.3286 4.85464C14.5854 4.11158 13.8422 3.36858 13.099 2.62564C12.4999 2.02922 12.0646 2.02922 11.4691 2.62564L3.08694 11.0195C2.69201 11.4117 2.37051 11.4753 2.10185 11.2165C1.81886 10.9442 1.87887 10.6174 2.28633 10.2117L10.7715 1.77847C11.7378 0.818463 12.8742 0.812194 13.8351 1.7722C14.7074 2.64282 15.5793 3.51378 16.4508 4.38508C16.821 4.24957 17.1986 4.1299 17.5828 4.02689C16.4987 2.94481 15.4137 1.8637 14.3276 0.783537C14.1093 0.575845 13.857 0.407129 13.5817 0.284726C12.3808 -0.27319 11.0634 0.000842717 10.0524 1.00115C8.32341 2.71579 6.59563 4.43133 4.86905 6.14777C3.69172 7.30957 2.52067 8.47674 1.35588 9.64929C0.890203 10.1159 0.735275 10.6765 0.940352 11.3105C1.14543 11.9445 1.61827 12.2857 2.26574 12.3851Z" fill="#023DA7"/>
</svg>
