<svg width="26" height="38" viewBox="0 0 26 38" fill="none" xmlns="http://www.w3.org/2000/svg">
<path d="M21.1416 12.6409L21.1978 12.6536C21.1978 12.4926 21.1978 12.3329 21.1978 12.1719L21.125 12.2294C21.1301 12.3712 21.1365 12.5131 21.1416 12.6409Z" fill="#B7B4B2"/>
<path d="M12.0312 12.0003C12.1335 12.0387 12.2357 12.0732 12.3379 12.1077C12.3379 11.893 12.329 11.677 12.3277 11.4688C12.2204 11.6336 12.1233 11.8151 12.0312 12.0003Z" fill="#B7B4B2"/>
<path d="M25.4806 30.3727C25.51 27.4898 24.2168 25.444 21.5755 24.3322C20.3053 23.7981 18.9571 23.4466 17.6371 23.0377C16.7848 22.7732 16.7784 22.7949 16.7784 21.9196C16.7886 21.7443 16.7886 21.5685 16.7784 21.3931C16.7439 21.1094 16.8627 20.9433 17.0838 20.7618C17.6972 20.2507 18.3297 19.7574 18.8587 19.1696C20.2503 17.6234 21.2496 15.8625 21.2944 13.708C21.325 12.1618 21.3097 10.6156 21.2867 9.06937C21.2817 8.57563 21.2264 8.08368 21.1218 7.60111C20.0996 2.96501 15.6756 0.112811 11.0114 1.0661C7.1011 1.86604 4.34347 5.11055 4.22462 9.1026C4.1799 10.636 4.20929 12.1695 4.21696 13.694C4.21728 14.0284 4.24851 14.362 4.31024 14.6907C4.76261 16.9819 5.99702 18.8259 7.7937 20.2366C8.5732 20.8487 8.87989 21.4634 8.73805 22.3809C8.73549 22.397 8.73549 22.4134 8.73805 22.4295C8.77894 22.6965 8.67032 22.8282 8.39813 22.8921C7.85632 23.0198 7.32217 23.1783 6.78675 23.3316C4.59776 23.954 2.442 24.6325 0.990346 26.6541V26.6451C0.727106 27.1448 0.516257 27.6968 0.29902 28.2067C0.254295 28.3102 0.210847 28.4239 0.171234 28.5428C0.138337 29.0038 0.0811799 29.4628 0 29.9178C0.0281131 31.018 0.0268337 32.1208 0.0204444 33.2274C0.0287144 33.2794 0.0329873 33.332 0.0332238 33.3846V37.5824H24.2858C25.1407 37.5824 25.4755 37.2489 25.4768 36.3965C25.4794 34.389 25.4666 32.3815 25.4806 30.3727ZM7.57647 5.246C9.42809 3.11196 11.7934 2.33374 14.5038 3.04168C17.2141 3.74962 18.7872 5.61147 19.3162 8.35121C19.5117 9.37351 19.4964 9.37351 18.5112 9.75687C17.1208 10.3 15.6999 10.7549 14.1881 10.5019C13.4917 10.3856 12.8132 10.1185 12.1436 9.87443C11.2222 9.53068 10.3456 9.0157 9.3987 8.79974C8.5042 8.59528 7.54196 8.68218 6.60912 8.6464C6.49834 8.65234 6.38814 8.66644 6.27943 8.68857C6.25132 8.68857 6.22193 8.67068 6.15165 8.6464C6.25413 7.39055 6.75308 6.19977 7.57647 5.246ZM6.74202 15.9877C6.3115 15.1832 6.09418 14.2818 6.11075 13.3694C6.12737 12.6206 6.13248 11.8705 6.11075 11.1229C6.09798 10.774 6.23854 10.6629 6.55417 10.5951C7.65118 10.351 8.79752 10.4643 9.82551 10.9184C10.2332 11.0986 10.6459 11.2724 11.0369 11.482C13.3959 12.7458 15.8187 12.7599 18.2926 11.8781C18.6351 11.7567 18.9789 11.6417 19.3149 11.5242C19.6766 13.9598 19.1603 16.1245 17.4378 17.8892C16.8148 18.5255 16.125 19.0928 15.3804 19.5811C13.6744 20.7031 11.9187 20.6916 10.1667 19.6284C8.70915 18.7573 7.52391 17.4963 6.74458 15.9877H6.74202ZM23.5536 35.5391C23.5431 35.5833 23.5276 35.6261 23.5076 35.6669H18.6453C18.5543 35.6869 18.4613 35.6967 18.368 35.6963H7.68636C7.63898 35.6963 7.59162 35.6938 7.54452 35.6886C7.50107 35.6886 7.45762 35.6771 7.41673 35.6682H1.98325C1.97047 35.5404 1.94747 35.4215 1.94747 35.3014C1.94747 33.5801 1.93597 31.8588 1.94747 30.1388C1.96536 27.9665 3.233 26.373 5.4092 25.8196C5.7619 25.6663 6.12864 25.6037 6.53628 25.4861C7.0896 25.3264 7.64292 25.1475 8.19751 24.9993C8.2729 24.9328 8.28313 24.9162 8.29718 24.9124C8.52592 24.8382 8.70866 24.7846 8.86328 24.7373C8.89826 24.6975 8.94201 24.6665 8.99107 24.6466C9.33098 24.5188 9.73862 24.5188 10.0376 24.3182L10.076 24.2913C10.1171 24.2605 10.1548 24.2254 10.1884 24.1865C10.4517 23.8862 10.5501 23.4786 10.6267 23.085C10.6344 22.9879 10.6395 22.8908 10.6446 22.7924C10.605 22.5509 10.6203 22.2416 10.5769 21.9375C12.0452 22.4704 13.4163 22.4857 14.8002 21.9771C14.8496 22.1629 14.8729 22.3548 14.8692 22.547C14.8692 22.5585 14.8692 22.57 14.8756 22.5828C14.8981 23.0168 14.9887 23.4446 15.144 23.8505C15.1798 23.9041 15.2181 23.9578 15.2552 24.0102C15.3932 24.1175 15.5312 24.2236 15.6769 24.3182C15.9503 24.4958 16.2596 24.5737 16.5586 24.6951C16.5895 24.7078 16.6184 24.725 16.6442 24.7462C16.7298 24.7692 16.8167 24.7961 16.9087 24.8242C17.6307 24.9379 18.3003 25.2408 18.9865 25.4951C19.2511 25.5692 19.5117 25.651 19.7673 25.7506C19.8683 25.7762 19.9692 25.8018 20.0714 25.8222C20.159 25.8384 20.2446 25.8637 20.327 25.8976C21.7621 26.1813 23.2239 27.6866 23.4591 29.1958C23.5236 29.6367 23.5556 30.0817 23.5549 30.5273C23.569 32.1911 23.56 33.8613 23.5562 35.534L23.5536 35.5391Z" fill="#B7B4B2"/>
</svg>
