<svg width="31" height="31" viewBox="0 0 31 31" fill="none" xmlns="http://www.w3.org/2000/svg">
<path d="M31 13.2566V29.3549C30.9782 29.4204 30.9539 29.4859 30.9345 29.5514C30.6717 30.4353 29.9528 30.9868 29.0285 30.9876C25.1759 30.9909 21.3231 30.9909 17.4701 30.9876C16.3379 30.9876 15.5147 30.1426 15.5042 29.008C15.5042 28.8123 15.5042 28.6158 15.5042 28.4015H0.903524C0.193507 28.4047 0.00751131 28.2228 0.00751131 27.5103V8.50646C0.00751131 6.74112 -0.0135143 4.97578 0.0147894 3.21125C0.0366236 1.84782 0.706207 0.862857 1.94025 0.278993C2.21115 0.152031 2.50713 0.0913803 2.79178 0H24.3414C24.3656 0.0161735 24.3891 0.0428598 24.415 0.0460945C25.7978 0.228855 27.1758 1.50818 27.1289 3.39158C27.1103 4.13718 27.1289 4.88278 27.1289 5.62919C27.1289 6.23489 26.9008 6.46051 26.2846 6.46132C24.9638 6.46132 23.6429 6.46132 22.3221 6.46132H21.9833V11.6215H22.3472C24.5646 11.6215 26.7817 11.6215 28.9985 11.6215C29.9609 11.6215 30.6652 12.1617 30.9394 13.0884C30.9571 13.1466 30.9798 13.2008 31 13.2566ZM21.3291 1.28822H3.4185C2.09551 1.28822 1.29411 2.0969 1.29411 3.42393C1.29411 11.2109 1.29411 18.9982 1.29411 26.7858V27.0987H15.5034V26.717C15.5034 22.3593 15.5034 18.0017 15.5034 13.644C15.5034 12.4536 16.3314 11.6296 17.5202 11.6223C18.0353 11.6223 18.5496 11.6223 19.0639 11.6223H20.6611V11.2406C20.6611 8.71914 20.6465 6.19688 20.6611 3.67543C20.6692 2.85867 20.687 2.02816 21.3291 1.2866V1.28822ZM16.79 21.2754V28.8398C16.79 29.477 17.0131 29.7059 17.6374 29.7059C21.3789 29.7059 25.1207 29.7059 28.8627 29.7059C29.4886 29.7059 29.7134 29.477 29.7134 28.8422C29.7134 23.8193 29.7134 18.7969 29.7134 13.775C29.7134 13.128 29.4918 12.9089 28.8352 12.9089H17.6706C17.0026 12.9089 16.79 13.1248 16.79 13.7984V21.2754ZM25.8035 5.14965C25.8035 4.38787 25.8593 3.65036 25.7897 2.92417C25.6975 1.95376 24.7805 1.23646 23.8222 1.29145C22.8 1.35049 22.0067 2.12843 21.9736 3.132C21.9533 3.7563 21.9671 4.3814 21.9687 5.0057C21.9739 5.0547 21.9845 5.10297 22.0002 5.14965H25.8035Z" fill="#023DA7"/>
<path d="M10.9613 9.03165H17.1954C17.7671 9.03165 18.0744 9.25323 18.0849 9.6697C18.0954 10.0862 17.7752 10.3328 17.1905 10.3328C13.0549 10.3328 8.91965 10.3328 4.78462 10.3328C4.63377 10.3374 4.48294 10.3227 4.33581 10.2891C4.20461 10.2505 4.08952 10.1703 4.00783 10.0605C3.92614 9.95085 3.88227 9.81759 3.88282 9.68082C3.88336 9.54404 3.9283 9.41114 4.01086 9.3021C4.09343 9.19305 4.20916 9.11375 4.34066 9.07613C4.47802 9.04494 4.61875 9.03109 4.75955 9.03489C6.82707 9.03165 8.89431 9.03058 10.9613 9.03165Z" fill="#023DA7"/>
<path d="M10.9628 7.10054H4.82088C4.71009 7.10054 4.59849 7.10054 4.48851 7.09488C4.32573 7.08721 4.17212 7.01731 4.0594 6.89963C3.94668 6.78194 3.88346 6.62546 3.88281 6.4625C3.88238 6.29874 3.94407 6.14092 4.05543 6.02086C4.16678 5.90079 4.31953 5.82743 4.48285 5.81556C4.56367 5.81148 4.64464 5.81148 4.72545 5.81556H17.2518C17.3125 5.81556 17.3731 5.81556 17.4338 5.81556C17.8187 5.83658 18.0937 6.11396 18.0856 6.47058C18.0846 6.55422 18.0671 6.63683 18.034 6.71363C18.0008 6.79043 17.9528 6.85989 17.8926 6.91797C17.8324 6.97605 17.7613 7.02159 17.6834 7.05196C17.6054 7.08233 17.5223 7.09692 17.4386 7.09488C16.5814 7.10539 15.7242 7.09973 14.8671 7.09973L10.9628 7.10054Z" fill="#023DA7"/>
<path d="M9.02325 20.0161C7.60105 20.0161 6.17886 20.0161 4.75667 20.0161C4.61612 20.0192 4.47571 20.0051 4.33859 19.9741C4.20754 19.9359 4.09234 19.8565 4.01019 19.7475C3.92805 19.6385 3.88336 19.5058 3.88282 19.3694C3.88227 19.2329 3.92589 19.0999 4.00716 18.9902C4.08844 18.8806 4.203 18.8002 4.33374 18.761C4.45069 18.7309 4.57121 18.7167 4.69198 18.719C7.59674 18.719 10.5012 18.719 13.4055 18.719C13.9214 18.719 14.2384 18.9988 14.206 19.412C14.1769 19.7864 13.8955 20.0169 13.4402 20.0185C12.3615 20.0226 11.2827 20.0185 10.2055 20.0185L9.02325 20.0161Z" fill="#023DA7"/>
<path d="M9.02543 13.5578C7.58356 13.5578 6.14169 13.5578 4.69983 13.5578C4.55965 13.5626 4.41967 13.5438 4.28578 13.502C4.15107 13.4535 4.03724 13.36 3.96356 13.2372C3.88988 13.1145 3.86087 12.97 3.88145 12.8283C3.90131 12.6873 3.96786 12.557 4.07047 12.4582C4.17307 12.3594 4.30582 12.2978 4.44752 12.2833C4.54782 12.2747 4.64852 12.2717 4.74916 12.2744H13.3446C13.3648 12.2744 13.385 12.2744 13.4052 12.2744C13.9139 12.2744 14.2196 12.5251 14.2139 12.927C14.2082 13.3289 13.9074 13.5594 13.4165 13.5602C11.9518 13.5597 10.4881 13.5589 9.02543 13.5578Z" fill="#023DA7"/>
<path d="M9.02952 16.786C7.57391 16.786 6.12476 16.7916 4.67319 16.7787C4.4753 16.7775 4.2816 16.7215 4.11358 16.617C3.89848 16.473 3.83783 16.2264 3.91465 15.97C3.94666 15.8522 4.01225 15.7461 4.10342 15.6649C4.19458 15.5836 4.30741 15.5306 4.42816 15.5123C4.5085 15.501 4.58974 15.4975 4.67076 15.5018H13.4449C13.9495 15.5018 14.2641 15.801 14.2099 16.2199C14.1646 16.5684 13.9099 16.786 13.5088 16.786C12.692 16.7916 11.8744 16.786 11.0577 16.786H9.02952Z" fill="#023DA7"/>
<path d="M9.04235 21.9545C10.5247 21.9545 12.007 21.9545 13.4901 21.9545C13.9753 21.9545 14.2834 22.2949 14.1928 22.7162C14.1281 23.0187 13.9324 23.1844 13.634 23.2314C13.5438 23.2407 13.4529 23.2431 13.3623 23.2386H4.73939C4.63851 23.2432 4.53743 23.2405 4.43694 23.2305C4.2804 23.2078 4.13759 23.1286 4.03552 23.0077C3.93345 22.8869 3.87919 22.7328 3.883 22.5747C3.88765 22.4172 3.95075 22.267 4.06001 22.1534C4.16928 22.0398 4.31689 21.9709 4.47414 21.9601C4.57442 21.9504 4.67631 21.9536 4.77659 21.9536L9.04235 21.9545Z" fill="#023DA7"/>
<path d="M23.2515 20.6523C21.7959 20.6523 20.3432 20.6523 18.8935 20.6523C18.3048 20.6523 18.0946 20.4404 18.0938 19.8436C18.0938 18.2306 18.0938 16.6168 18.0938 15.0021C18.0938 14.4126 18.3056 14.2031 18.9024 14.2031C21.8072 14.2031 24.7125 14.2031 27.6183 14.2031C28.207 14.2031 28.4165 14.4142 28.4173 15.0069C28.4173 16.6211 28.4173 18.2352 28.4173 19.8493C28.4173 20.438 28.2054 20.6475 27.6127 20.6483C26.1576 20.652 24.7039 20.6534 23.2515 20.6523ZM19.3852 19.3471H27.1064V15.5156H19.3852V19.3471Z" fill="#023DA7"/>
<path d="M19.3755 25.8345C19.1636 25.8345 18.9518 25.8459 18.7407 25.8345C18.3436 25.8078 18.0938 25.5434 18.0938 25.1779C18.0938 24.8253 18.3444 24.5617 18.7286 24.5455C19.1612 24.5269 19.5955 24.5261 20.0273 24.5455C20.111 24.5444 20.1941 24.5602 20.2716 24.592C20.349 24.6237 20.4193 24.6708 20.4781 24.7304C20.5369 24.79 20.5831 24.8608 20.6139 24.9387C20.6447 25.0166 20.6594 25.0998 20.6573 25.1835C20.6573 25.5377 20.4146 25.8006 20.037 25.8305C19.817 25.8483 19.5947 25.8305 19.3731 25.8305L19.3755 25.8345Z" fill="#023DA7"/>
<path d="M23.2497 25.8345C23.0386 25.8345 22.8259 25.8459 22.6157 25.8345C22.2178 25.8078 21.9688 25.5434 21.9688 25.1779C21.9736 24.8253 22.2194 24.5617 22.6044 24.5455C23.0362 24.5269 23.4705 24.5261 23.9031 24.5455C23.9868 24.5445 24.0698 24.5604 24.1472 24.5922C24.2247 24.624 24.2949 24.6711 24.3537 24.7307C24.4125 24.7902 24.4587 24.861 24.4895 24.9388C24.5203 25.0166 24.5351 25.0999 24.5331 25.1835C24.5331 25.5377 24.2905 25.8006 23.9128 25.8305C23.6928 25.8483 23.4697 25.8305 23.2481 25.8305L23.2497 25.8345Z" fill="#023DA7"/>
<path d="M27.1024 25.8265C26.8905 25.8265 26.6786 25.8403 26.4684 25.8265C26.0867 25.7966 25.8441 25.5354 25.8441 25.1796C25.8414 25.096 25.8557 25.0127 25.8861 24.9347C25.9164 24.8567 25.9622 24.7857 26.0206 24.7258C26.079 24.6659 26.149 24.6185 26.2262 24.5862C26.3034 24.554 26.3863 24.5377 26.47 24.5383C26.9123 24.5189 27.3595 24.5181 27.7986 24.5383C27.8798 24.5389 27.96 24.5556 28.0347 24.5875C28.1093 24.6193 28.1769 24.6656 28.2335 24.7238C28.2902 24.7819 28.3347 24.8507 28.3646 24.9262C28.3944 25.0016 28.4091 25.0823 28.4076 25.1634C28.414 25.52 28.1763 25.7869 27.797 25.8192C27.5665 25.8395 27.3336 25.8233 27.1024 25.8233V25.8265Z" fill="#023DA7"/>
<path d="M19.3584 28.3957C19.1369 28.3957 18.9145 28.407 18.6937 28.3957C18.5358 28.3928 18.3852 28.3288 18.2735 28.2172C18.1617 28.1057 18.0976 27.9551 18.0945 27.7973C18.0791 27.452 18.3096 27.1463 18.6533 27.1285C19.136 27.103 19.6197 27.103 20.1024 27.1285C20.4469 27.1471 20.6733 27.452 20.6564 27.7997C20.6524 27.9577 20.5873 28.108 20.4748 28.219C20.3623 28.33 20.2111 28.393 20.0531 28.3949C19.8218 28.407 19.5897 28.3965 19.3584 28.3957Z" fill="#023DA7"/>
<path d="M23.2467 28.4008C23.0146 28.4008 22.7825 28.4129 22.552 28.4008C22.3942 28.3941 22.2452 28.3263 22.1364 28.2118C22.0276 28.0972 21.9675 27.9449 21.969 27.787C21.9609 27.4433 22.1978 27.1489 22.5447 27.1336C23.017 27.1125 23.4917 27.1109 23.964 27.1336C24.3109 27.1506 24.543 27.4481 24.53 27.7943C24.5295 27.9523 24.4675 28.1039 24.3572 28.2171C24.2469 28.3303 24.0969 28.3961 23.9389 28.4008C23.71 28.4129 23.4779 28.4008 23.2467 28.4008Z" fill="#023DA7"/>
<path d="M27.1445 28.3944C26.9124 28.3944 26.6803 28.4057 26.4498 28.3944C26.2879 28.3866 26.135 28.3174 26.0224 28.2007C25.9097 28.0841 25.8459 27.9289 25.8438 27.7668C25.8417 27.6046 25.9016 27.4478 26.0112 27.3284C26.1209 27.2089 26.272 27.1358 26.4337 27.1239C26.8962 27.1045 27.3604 27.1045 27.823 27.1239C27.9847 27.1356 28.1358 27.2086 28.2455 27.3279C28.3553 27.4472 28.4153 27.6039 28.4135 27.766C28.4116 27.9281 28.348 28.0834 28.2355 28.2001C28.1231 28.3169 27.9703 28.3864 27.8084 28.3944C27.5876 28.4057 27.3636 28.3944 27.1445 28.3944Z" fill="#023DA7"/>
<path d="M19.3789 23.2393C19.1573 23.2393 18.9358 23.249 18.715 23.2393C18.6316 23.238 18.5494 23.2201 18.473 23.1868C18.3965 23.1535 18.3275 23.1054 18.2697 23.0452C18.212 22.9851 18.1667 22.9141 18.1366 22.8364C18.1064 22.7587 18.0919 22.6757 18.0939 22.5924C18.0939 22.2341 18.3446 21.9737 18.7247 21.9624C19.156 21.95 19.5889 21.95 20.0234 21.9624C20.4051 21.9729 20.6542 22.2293 20.6582 22.5875C20.6623 22.9458 20.4027 23.224 20.0113 23.2409C19.8019 23.2474 19.5908 23.2401 19.3789 23.2393Z" fill="#023DA7"/>
<path d="M23.2198 23.2383C23.0185 23.2383 22.8155 23.2448 22.6158 23.2383C22.226 23.2221 21.964 22.9561 21.9688 22.5914C21.9737 22.2267 22.2195 21.9735 22.6004 21.9622C23.033 21.9501 23.4665 21.9501 23.8983 21.9622C24.2808 21.9727 24.5291 22.2299 24.5331 22.5881C24.5372 22.9464 24.2768 23.2238 23.8862 23.2399C23.6638 23.2456 23.4414 23.2383 23.2198 23.2383Z" fill="#023DA7"/>
<path d="M27.1209 21.9582C27.3522 21.9582 27.5843 21.9468 27.8148 21.9582C27.8956 21.9597 27.9753 21.9773 28.0494 22.0099C28.1234 22.0425 28.1902 22.0895 28.2459 22.148C28.3016 22.2066 28.3452 22.2757 28.374 22.3512C28.4029 22.4268 28.4165 22.5073 28.414 22.5881C28.4203 22.7516 28.3616 22.9109 28.2506 23.0311C28.1396 23.1514 27.9855 23.2227 27.822 23.2294C27.3595 23.248 26.8953 23.2488 26.4335 23.2294C26.2728 23.2154 26.1233 23.1409 26.0153 23.021C25.9073 22.901 25.8488 22.7446 25.8517 22.5832C25.8545 22.4218 25.9185 22.2676 26.0307 22.1515C26.143 22.0355 26.295 21.9664 26.4562 21.9582C26.6737 21.9476 26.8961 21.9573 27.1209 21.9582Z" fill="#023DA7"/>
</svg>
