<svg width="31" height="31" viewBox="0 0 31 31" fill="none" xmlns="http://www.w3.org/2000/svg">
<path d="M6.41631 0H7.80926C7.87519 0.0223792 7.94282 0.0394213 8.01149 0.0509616C9.84044 0.239438 11.379 1.02166 12.6644 2.32239C13.8834 3.55922 14.7028 5.03711 15.3184 6.64037L15.4988 7.1055C15.5797 6.89922 15.6314 6.77061 15.6808 6.64118C16.0888 5.53426 16.6406 4.48581 17.3221 3.52282C18.4643 1.94058 19.9106 0.765232 21.8294 0.263706C22.2751 0.147222 22.7353 0.0865538 23.1891 0H24.5821C24.6897 0.0202228 24.7972 0.0461081 24.9056 0.0606685C25.5706 0.149649 26.2137 0.312241 26.7961 0.656838C27.8978 1.30882 28.4713 2.26496 28.4002 3.56084C28.3435 4.60191 27.8606 5.46987 27.211 6.25209C26.2282 7.43392 24.9679 8.23393 23.579 8.85194C23.4852 8.8932 23.3946 8.94254 23.3032 8.98865L23.3202 9.03718H23.6502C25.4056 9.03718 27.1612 9.03718 28.917 9.03718C29.9808 9.03718 30.6594 9.55651 30.9547 10.579C30.9662 10.6078 30.9814 10.635 31 10.6599V15.2011C30.9803 15.2232 30.964 15.248 30.9515 15.2747C30.6441 16.2931 29.9897 16.785 28.9292 16.7906H28.4099V17.2299C28.4099 21.124 28.4099 25.0181 28.4099 28.9122C28.4099 30.2065 27.6098 30.9992 26.3107 30.9992H4.67229C4.5211 31.0036 4.36981 30.9949 4.22011 30.9733C3.20896 30.7962 2.58933 30.0212 2.58852 28.9276C2.58852 25.0135 2.58852 21.0992 2.58852 17.1846V16.7858H2.05383C0.802444 16.7777 0.00161783 15.9704 0 14.7133C0 13.5323 0 12.3518 0 11.1719C0 9.82668 0.795968 9.03638 2.1509 9.03557C3.89653 9.03557 5.64191 9.03557 7.38701 9.03557H7.74616C7.72089 9.00923 7.69386 8.98464 7.66527 8.96196C7.48245 8.88106 7.29721 8.80017 7.11601 8.71038C5.64298 7.99854 4.32284 7.09256 3.39097 5.71255C2.8037 4.84297 2.4494 3.89249 2.63383 2.83039C2.86437 1.49568 3.75498 0.727213 4.98453 0.322757C5.4448 0.170681 5.93743 0.105159 6.41631 0ZM14.829 29.7154V16.8254H3.87389V28.8119C3.87389 29.5108 4.07531 29.7146 4.77016 29.7146H14.8306L14.829 29.7154ZM16.1629 29.7154H16.4703C19.7383 29.7154 23.0061 29.7154 26.2735 29.7154C26.9021 29.7154 27.1229 29.4906 27.1229 28.8564C27.1229 24.9536 27.1229 21.0504 27.1229 17.1465V16.8335H16.1645L16.1629 29.7154ZM14.8339 10.346H14.4747C10.3368 10.346 6.19979 10.3444 2.06354 10.3412C1.52076 10.3412 1.28617 10.5733 1.28456 11.1145C1.28051 12.285 1.28456 13.4555 1.28456 14.626C1.28456 15.2836 1.50054 15.5012 2.14848 15.5012H14.8347L14.8339 10.346ZM16.1726 10.3395V15.502H28.8726C29.4792 15.502 29.7066 15.2731 29.7074 14.6583C29.7074 13.5081 29.7074 12.3578 29.7074 11.2075C29.7074 10.545 29.5019 10.3412 28.8378 10.3412H16.1742L16.1726 10.3395ZM14.723 9.04527C14.2571 7.13947 13.5849 5.39384 12.382 3.89168C11.0659 2.24878 9.37045 1.33875 7.24625 1.29426C6.39203 1.27647 5.55158 1.36626 4.79443 1.81439C4.05913 2.2504 3.75822 2.93069 3.91676 3.76468C4.04053 4.4199 4.37623 4.96511 4.80657 5.4634C5.55077 6.32651 6.48102 6.94129 7.4954 7.43473C9.19412 8.26063 10.9972 8.69178 12.8617 8.89967C13.466 8.96357 14.0775 8.99512 14.7247 9.04608L14.723 9.04527ZM16.2826 9.00725C16.479 9.01836 16.6759 9.01836 16.8723 9.00725C17.932 8.8754 19.0006 8.78804 20.0457 8.58419C21.8205 8.23879 23.499 7.61997 24.9801 6.55463C25.7421 6.0078 26.4062 5.36714 26.826 4.50969C27.0517 4.04861 27.1868 3.56326 27.0929 3.04718C26.9312 2.18164 26.3148 1.73431 25.539 1.52966C23.4439 0.978786 21.5066 1.35493 19.8208 2.72442C17.8366 4.3374 16.929 6.58537 16.2842 9.00806L16.2826 9.00725Z" fill="#023DA7"/>
</svg>
