<svg width="31" height="32" viewBox="0 0 31 32" fill="none" xmlns="http://www.w3.org/2000/svg">
<path d="M21.5099 1.62663C21.5826 0.621597 21.6012 0.605536 22.575 0.605536C22.9131 0.605536 23.2512 0.605536 23.5893 0.605536C24.0432 0.612299 24.2258 0.791498 24.2292 1.24119C24.2342 1.94784 24.2207 2.65365 24.2393 3.35945C24.2452 3.43238 24.2654 3.50344 24.2988 3.56856C24.3321 3.63368 24.378 3.69159 24.4337 3.73898C25.4134 4.47015 26.4151 5.17596 27.3922 5.90797C27.6091 6.06903 27.7866 6.27709 27.9116 6.51655C28.0366 6.75602 28.1057 7.02067 28.1139 7.29067C28.122 7.56066 28.0689 7.829 27.9586 8.07555C27.8482 8.3221 27.6835 8.54047 27.4767 8.71429C27.0144 9.11411 26.4734 9.22146 25.8808 9.10227C25.8005 9.08537 25.7211 9.06255 25.5909 9.03043V9.42771C25.5909 11.5882 25.5909 13.7491 25.5909 15.9101C25.5909 16.8924 25.1193 17.3623 24.1379 17.3623H13.2591C12.2617 17.3623 11.7816 16.8873 11.7816 15.8983V9.04649C11.5982 9.07945 11.4392 9.12256 11.2744 9.13693C10.4291 9.21132 9.68616 8.76078 9.38862 7.9975C9.09108 7.23421 9.34297 6.37625 10.0403 5.86486C11.0166 5.14722 11.9997 4.43887 12.9802 3.72715C14.4893 2.63111 15.9981 1.53506 17.5067 0.439017C18.3139 -0.145916 19.0544 -0.146761 19.865 0.439017C20.4026 0.821082 20.9351 1.21076 21.5099 1.62663ZM16.2075 16.3497V15.9592C16.2075 14.7673 16.2016 13.5763 16.2075 12.3845C16.2151 11.2958 17.0181 10.4928 18.1068 10.4716C18.4339 10.4657 18.7602 10.4716 19.0873 10.4716C20.4051 10.4716 21.1608 11.2324 21.1633 12.5552C21.1633 13.7048 21.1633 14.8535 21.1633 16.0031C21.1633 16.1139 21.1735 16.2246 21.1803 16.3497H24.1303C24.5453 16.3497 24.5791 16.3167 24.5791 15.8975C24.5791 13.4724 24.5791 11.0473 24.5842 8.62216C24.591 8.52978 24.5724 8.43729 24.5304 8.35474C24.4883 8.27218 24.4245 8.20272 24.3458 8.15387C22.5335 6.84707 20.7263 5.53351 18.9242 4.21318C18.7484 4.08386 18.6402 4.08132 18.4644 4.21318C16.6538 5.53914 14.8378 6.85834 13.0165 8.17078C12.8365 8.30011 12.79 8.43704 12.7909 8.64244C12.7976 10.3922 12.7951 12.1427 12.7951 13.8933C12.7951 14.5893 12.7951 15.2852 12.7951 15.9812C12.7951 16.1798 12.8314 16.3497 13.0757 16.3505C14.1036 16.3514 15.1348 16.3497 16.2058 16.3497H16.2075ZM27.0887 7.39312C27.0845 7.01782 26.9138 6.80143 26.6712 6.63237C24.1996 4.83869 21.7283 3.04416 19.2572 1.24879C18.8346 0.940267 18.5328 0.947874 18.1043 1.25978C15.8801 2.87539 13.6561 4.491 11.4325 6.10661C11.1426 6.31708 10.8467 6.51995 10.5703 6.74733C10.4332 6.85704 10.3379 7.01051 10.3003 7.18206C10.2628 7.35361 10.2853 7.53286 10.3641 7.68981C10.4347 7.85099 10.5598 7.98221 10.7174 8.06054C10.875 8.13888 11.0551 8.15934 11.2263 8.11837C11.4161 8.05951 11.5935 7.96609 11.7495 7.84281C13.8999 6.28693 16.048 4.72796 18.1939 3.16588C18.6376 2.84299 18.7408 2.84214 19.1727 3.15574L25.1032 7.46666C25.3568 7.65262 25.6103 7.8445 25.8741 8.01778C25.9906 8.09192 26.1245 8.13425 26.2625 8.14057C26.4005 8.14689 26.5377 8.11698 26.6606 8.05381C26.7834 7.99064 26.8876 7.89642 26.9627 7.78051C27.0378 7.6646 27.0813 7.53104 27.0887 7.39312ZM20.1414 16.3396C20.1414 14.9634 20.1541 13.6169 20.1338 12.2721C20.127 11.8063 19.7602 11.5046 19.2665 11.4877C18.92 11.4758 18.5726 11.4826 18.2251 11.4877C17.5531 11.4927 17.2201 11.8258 17.2193 12.502C17.2193 13.691 17.2193 14.8803 17.2193 16.0699C17.2193 16.1604 17.2311 16.2508 17.237 16.3412L20.1414 16.3396ZM22.5995 1.62663C22.4084 2.21833 22.6096 2.60462 23.1912 2.77452V1.62663H22.5995Z" fill="#023DA7"/>
<path d="M4.39205 20.7959C5.7445 20.0131 7.06482 19.2456 8.38768 18.484C8.7072 18.3006 9.03263 18.1265 9.36145 17.9608C10.5592 17.3556 11.7586 17.3514 13.0266 17.8103C14.5481 18.3623 16.1101 18.8027 17.6562 19.2862C17.8658 19.3521 18.0923 19.3707 18.2994 19.4392C18.5809 19.5317 18.8399 19.6821 19.0598 19.8808C19.2796 20.0795 19.4554 20.322 19.5758 20.5927C19.6962 20.8635 19.7585 21.1564 19.7588 21.4528C19.7591 21.7491 19.6973 22.0422 19.5775 22.3131C19.5374 22.3949 19.5218 22.4865 19.5327 22.5769C19.8209 22.4416 20.1244 22.3275 20.394 22.1694C22.2274 21.1103 24.0549 20.0402 25.8883 18.976C26.6947 18.5068 27.5299 18.1206 28.4766 18.0259C29.5687 17.916 30.5331 18.4823 30.8636 19.4468C31.043 19.9414 31.0455 20.4828 30.8707 20.979C30.696 21.4752 30.3548 21.8956 29.9051 22.1686C26.5803 24.2192 23.2533 26.2696 19.924 28.3197C18.7609 29.0407 17.5437 29.2064 16.2285 28.8454C14.0164 28.2385 11.7958 27.6621 9.58375 27.0509C9.26338 26.9664 8.99713 26.9664 8.72833 27.1693C8.55333 27.2865 8.37217 27.3943 8.18565 27.4922C8.35978 27.8032 8.52376 28.1024 8.69282 28.4017C9.12983 29.1903 8.93458 29.9173 8.15946 30.3686C7.67653 30.6504 7.19049 30.9254 6.70136 31.1936C5.98625 31.5858 5.2255 31.3897 4.82231 30.6814C3.27432 27.963 1.73336 25.2406 0.199462 22.5143C-0.2012 21.8017 0.0160524 21.0554 0.722705 20.6412C1.21409 20.3538 1.70856 20.072 2.20615 19.7959C2.95591 19.3809 3.69299 19.5888 4.12662 20.3301C4.20861 20.4755 4.29146 20.6209 4.39205 20.7959ZM7.67764 26.608C8.03096 26.4043 8.33865 26.193 8.67338 26.0459C8.87635 25.951 9.10379 25.9215 9.32426 25.9614C11.7485 26.5911 14.166 27.2436 16.5852 27.8911C17.5395 28.1447 18.4448 28.0382 19.2901 27.5167C22.6712 25.4356 26.0565 23.3596 29.4267 21.2616C29.6647 21.0945 29.8381 20.8507 29.9178 20.571C30.1714 19.637 29.534 18.9379 28.5653 19.0368C27.7699 19.1214 27.0717 19.4595 26.3947 19.8525C24.5739 20.9108 22.7546 21.9716 20.9367 23.035C20.0999 23.5261 19.2047 23.7898 18.2453 23.6267C17.2208 23.45 16.2082 23.1981 15.1947 22.9598C14.6318 22.8271 14.0773 22.6605 13.5211 22.4999C13.2032 22.4078 13.046 22.1618 13.1111 21.8896C13.1804 21.6006 13.4492 21.4569 13.7763 21.5304C13.838 21.5439 13.8989 21.5617 13.9598 21.5769C15.0899 21.8736 16.2158 22.1838 17.3502 22.4611C18.0179 22.625 18.5784 22.2996 18.7195 21.7198C18.757 21.5755 18.7646 21.4251 18.7418 21.2777C18.719 21.1304 18.6664 20.9893 18.587 20.8631C18.5077 20.7369 18.4034 20.6283 18.2805 20.5439C18.1576 20.4595 18.0188 20.4011 17.8726 20.3724C16.089 20.0174 14.3917 19.391 12.6859 18.7849C12.3526 18.6563 12.0075 18.5606 11.6555 18.4992C10.8102 18.375 10.0588 18.7004 9.34706 19.1061C7.91939 19.9193 6.50101 20.7477 5.07925 21.571C5.01844 21.6118 4.96003 21.6561 4.90429 21.7037C5.82903 23.3401 6.74614 24.9614 7.67764 26.608ZM2.98719 20.5592C2.83926 20.6243 2.75051 20.6547 2.66936 20.7003C2.20023 20.9615 1.7345 21.2286 1.26537 21.489C1.01178 21.6276 0.954305 21.806 1.09631 22.0629C2.61781 24.7458 4.1379 27.4296 5.65658 30.1142C5.82564 30.4109 5.95159 30.4439 6.24828 30.2833C6.70867 30.0291 7.1671 29.7707 7.62355 29.5081C7.93377 29.3306 7.97096 29.203 7.79853 28.8945C7.43928 28.2512 7.07496 27.6113 6.71149 26.9698C5.576 24.9636 4.43939 22.9581 3.30165 20.9531C3.20833 20.8125 3.10312 20.6801 2.98719 20.5575V20.5592Z" fill="#023DA7"/>
<path d="M3.1219 22.1462C3.12251 22.2193 3.1087 22.2919 3.08127 22.3597C3.05384 22.4275 3.01332 22.4892 2.96203 22.5414C2.91074 22.5936 2.84968 22.6351 2.78233 22.6637C2.71498 22.6922 2.64265 22.7072 2.5695 22.7078C2.49635 22.7085 2.42381 22.6947 2.35599 22.6672C2.28818 22.6398 2.22642 22.5993 2.17427 22.548C2.12211 22.4967 2.08055 22.4356 2.05199 22.3683C2.02344 22.3009 2.00844 22.2286 2.00783 22.1555C2.0066 22.0077 2.06409 21.8655 2.16768 21.7602C2.27128 21.6549 2.41248 21.595 2.56021 21.5938C2.70795 21.5925 2.85013 21.65 2.95547 21.7536C3.06081 21.8572 3.12067 21.9984 3.1219 22.1462Z" fill="#023DA7"/>
</svg>
