<svg width="31" height="25" viewBox="0 0 31 25" fill="none" xmlns="http://www.w3.org/2000/svg">
<path d="M31 4.60661C30.9426 5.16671 30.8754 5.72682 30.8277 6.28773C30.5651 9.405 30.3044 12.5223 30.0455 15.6395C29.9824 16.3939 29.9177 17.1474 29.8579 17.9018C29.7519 19.2406 28.7255 20.16 27.386 20.1131C27.1271 20.1034 26.8683 20.0734 26.569 20.0491C26.569 20.6068 26.5811 21.1394 26.569 21.6679C26.5561 22.0791 26.5609 22.5024 26.4622 22.8966C26.2196 23.8792 25.325 24.5551 24.3131 24.5915C24.2128 24.5915 24.1117 24.5915 24.0105 24.5915H2.54795C0.962557 24.5915 0 23.6324 0 22.0508V8.78959C0 7.22987 0.970645 6.25778 2.52691 6.25374C2.96128 6.25374 3.39483 6.24322 3.82839 6.25374C4.04112 6.26102 4.09775 6.18008 4.11797 5.98016C4.2482 4.68512 4.38327 3.39008 4.53291 2.09504C4.68417 0.785434 5.77453 -0.100858 7.08086 0.00922C10.5676 0.301143 14.0547 0.594956 17.542 0.890656C21.059 1.1842 24.5762 1.47477 28.0937 1.76238C28.3849 1.78666 28.6777 1.80609 28.9665 1.8506C30.0002 2.01248 30.6926 2.65191 30.9466 3.67175C30.9617 3.71943 30.9795 3.76619 31 3.81178V4.60661ZM1.21088 14.7937V22.0896C1.21088 22.9549 1.64444 23.3847 2.51802 23.3847H24.034C24.9197 23.3847 25.3557 22.9525 25.3557 22.0694C25.3557 19.7578 25.3557 17.4461 25.3557 15.1345V14.7945L1.21088 14.7937ZM26.569 18.831C26.9241 18.8577 27.2436 18.9014 27.5639 18.9006C27.8346 18.8998 28.0952 18.7975 28.2943 18.614C28.4934 18.4305 28.6167 18.179 28.6397 17.9091C28.7473 16.7233 28.8427 15.5359 28.9422 14.3477C29.0954 12.5271 29.248 10.7071 29.4001 8.88752C29.5279 7.35857 29.6629 5.83123 29.781 4.30147C29.8352 3.60457 29.4081 3.10032 28.7214 3.04123C26.2899 2.83187 23.8579 2.62763 21.4254 2.42852C19.1241 2.2375 16.8221 2.05214 14.5209 1.86194C12.0085 1.6523 9.49615 1.43457 6.9838 1.22575C6.31972 1.17071 5.82145 1.56489 5.73813 2.22778C5.62732 3.10436 5.54319 3.9947 5.44856 4.87452C5.40083 5.32212 5.35554 5.77053 5.30539 6.2505H5.72843C11.8025 6.2505 17.8763 6.2505 23.9499 6.2505C24.2319 6.24523 24.5136 6.27239 24.7895 6.33144C25.8701 6.58721 26.5633 7.5164 26.569 8.70136C26.5722 11.939 26.5722 15.1795 26.569 18.4231V18.831ZM1.22706 13.5383H25.3314V11.0608H1.22706V13.5383ZM25.3573 9.82238C25.3573 9.69611 25.3573 9.60708 25.3573 9.51724C25.3573 9.18457 25.3735 8.84948 25.3468 8.51844C25.2999 7.9381 24.8898 7.53906 24.309 7.47674C24.2186 7.46918 24.1279 7.46648 24.0372 7.46865H2.51397C2.38305 7.46692 2.25224 7.47749 2.12329 7.50021C1.66385 7.59167 1.32251 7.86687 1.26184 8.32337C1.19713 8.81387 1.24728 9.31974 1.24728 9.82157L25.3573 9.82238Z" fill="#023DA7"/>
<path d="M19.8898 21.5883C18.9709 21.5883 18.0529 21.5883 17.1348 21.5883C16.5904 21.5883 16.3922 21.3851 16.3906 20.8339C16.3906 19.663 16.3906 18.4915 16.3906 17.3195C16.3906 16.7902 16.5945 16.5814 17.1186 16.5806C18.9758 16.5773 20.8327 16.5773 22.6893 16.5806C23.211 16.5806 23.423 16.7999 23.4238 17.322C23.4238 18.5026 23.4238 19.6838 23.4238 20.8655C23.4238 21.3665 23.2046 21.5859 22.7022 21.5875C21.7664 21.5907 20.8281 21.5883 19.8898 21.5883ZM22.1983 17.8116H17.6242V20.3515H22.1983V17.8116Z" fill="#023DA7"/>
</svg>
