<svg width="36" height="22" viewBox="0 0 36 22" fill="none" xmlns="http://www.w3.org/2000/svg">
<circle cx="26.1301" cy="10.1731" r="9.01842" fill="#E0E7F4" stroke="#023DA7" stroke-width="1.7"/>
<path d="M12.1943 2.03906L3.77712 5.52203V18.0027L17.2926 17.7569C18.906 17.7276 20.6342 17.5197 21.8126 16.4173C22.7813 15.5111 22.4968 14.7744 21.7721 14.1796C20.5877 13.2074 18.9506 13.0685 17.4184 13.0685H11.0333L13.6455 7.55377L16.548 8.42451L18.5798 4.94154L17.709 4.36104L12.1943 2.03906Z" fill="#E0E7F4"/>
<path d="M0.00390625 3.78055H3.19663V20.6149C3.19663 20.6149 1.25074 20.6149 0.00390625 20.6149M3.77712 5.52203L12.1943 2.03906L17.709 4.36104L18.5798 4.94154L16.548 8.42451L13.6455 7.55377L11.0333 13.0685H17.4184C18.9506 13.0685 20.5877 13.2074 21.7721 14.1796C22.4968 14.7744 22.7813 15.5111 21.8126 16.4173C20.6342 17.5197 18.906 17.7276 17.2926 17.7569L3.77712 18.0027V5.52203Z" stroke="#023DA7" stroke-width="1.7" stroke-linejoin="round"/>
<path d="M28.67 11.99C28.67 12.3367 28.58 12.6633 28.4 12.97C28.2267 13.27 27.9667 13.52 27.62 13.72C27.28 13.9133 26.8767 14.0267 26.41 14.06V14.87H25.77V14.05C25.1033 13.99 24.5667 13.79 24.16 13.45C23.7533 13.1033 23.5433 12.6367 23.53 12.05H25.03C25.07 12.53 25.3167 12.82 25.77 12.92V11.01C25.29 10.89 24.9033 10.77 24.61 10.65C24.3167 10.53 24.0633 10.3367 23.85 10.07C23.6367 9.80333 23.53 9.44 23.53 8.98C23.53 8.4 23.7367 7.92667 24.15 7.56C24.57 7.19333 25.11 6.98333 25.77 6.93V6.12H26.41V6.93C27.05 6.98333 27.56 7.17667 27.94 7.51C28.3267 7.84333 28.5433 8.30333 28.59 8.89H27.08C27.06 8.69667 26.99 8.53 26.87 8.39C26.7567 8.24333 26.6033 8.14 26.41 8.08V9.97C26.91 10.0967 27.3033 10.22 27.59 10.34C27.8833 10.4533 28.1367 10.6433 28.35 10.91C28.5633 11.17 28.67 11.53 28.67 11.99ZM24.99 8.91C24.99 9.13 25.0567 9.31 25.19 9.45C25.3233 9.58333 25.5167 9.69333 25.77 9.78V8.05C25.53 8.08333 25.34 8.17333 25.2 8.32C25.06 8.46667 24.99 8.66333 24.99 8.91ZM26.41 12.94C26.6633 12.8933 26.86 12.79 27 12.63C27.1467 12.47 27.22 12.2767 27.22 12.05C27.22 11.83 27.15 11.6533 27.01 11.52C26.87 11.3867 26.67 11.2767 26.41 11.19V12.94Z" fill="#023DA7"/>
</svg>
