<svg xmlns="http://www.w3.org/2000/svg" width="58" height="49" style=""><rect id="backgroundrect" width="100%" height="100%" x="0" y="0" stroke="none"/>
<mask id="mask0" mask-type="alpha" maskUnits="userSpaceOnUse" x="0" y="0" width="58" height="49">
<path fill-rule="evenodd" clip-rule="evenodd" d="M0 0.0722656H57.6383V49H0V0.0722656Z" id="svg_1"/>
</mask>
<g class="currentLayer" style=""><title>Layer 1</title><g mask="url(#mask0)" id="svg_2">
<path fill-rule="evenodd" clip-rule="evenodd" d="M45.167 46.7175C39.5405 46.7175 34.963 42.1102 34.963 36.4471C34.963 30.7844 39.5405 26.1772 45.167 26.1772C50.7935 26.1772 55.371 30.7844 55.371 36.4471C55.371 42.1102 50.7935 46.7175 45.167 46.7175ZM2.4226 41.0609C2.35284 41.0609 2.29625 41.004 2.29625 40.9339V13.7428C5.12057 17.8683 10.7464 24.1431 19.518 25.9228V28.9157C19.518 30.2624 20.6027 31.354 21.9406 31.354H26.5331C27.871 31.354 28.9557 30.2624 28.9557 28.9157V25.9228C37.7273 24.1662 43.353 17.8337 46.1774 13.7428L46.1645 23.9349C45.8353 23.9085 45.5027 23.8947 45.167 23.8947C38.2903 23.8947 32.6957 29.5258 32.6957 36.4471C32.6957 38.0753 33.0055 39.632 33.5686 41.0609H2.4226ZM26.625 22.2017V28.9273C26.625 28.9975 26.5684 29.0544 26.4986 29.0544H21.9406C21.8708 29.0544 21.8142 28.9975 21.8142 28.9273V22.2017C21.8142 22.1316 21.8708 22.0746 21.9406 22.0746H26.5331C26.5892 22.0904 26.627 22.143 26.625 22.2017ZM2.4226 9.421H46.0511C44.9718 11.478 39.3575 21.208 28.9096 23.5422V22.2017C28.91 20.8729 27.853 19.7886 26.5331 19.7635H21.9406C20.6027 19.7635 19.518 20.8551 19.518 22.2017V23.5653C9.08167 21.2542 3.44437 11.4894 2.37666 9.44406L2.4226 9.421ZM18.6914 2.48745C18.6914 2.41723 18.748 2.36039 18.8178 2.36039H29.7133C29.7831 2.36039 29.8397 2.41723 29.8397 2.48745V6.97112C29.8397 7.04133 29.7831 7.09817 29.7133 7.09817H18.7947C18.725 7.09817 18.6684 7.04133 18.6684 6.97112L18.6914 2.48745ZM48.4737 24.3434V9.54806C48.4737 8.20142 47.389 7.10982 46.0511 7.10982H32.09V6.98265V2.51051C32.09 1.16387 31.0054 0.0722656 29.6674 0.0722656H18.7947C17.4568 0.0722656 16.3723 1.16387 16.3723 2.51051V6.99418V7.12123H2.4226C1.08455 7.12123 0 8.21295 0 9.55959V40.9222C0 42.269 1.08455 43.3606 2.4226 43.3606H34.7631C36.9976 46.7559 40.8265 49 45.167 49C52.0436 49 57.6383 43.3684 57.6383 36.4471C57.6383 30.6777 53.7506 25.8056 48.4737 24.3434Z" id="svg_3"/>
</g><path fill="" fill-opacity="1" stroke="#000000" stroke-opacity="1" stroke-width="3" stroke-dasharray="none" stroke-linejoin="miter" stroke-linecap="butt" stroke-dashoffset="" fill-rule="nonzero" opacity="1" marker-start="" marker-mid="" marker-end="" d="M39.152286163458314,31.606606021109855 L51.33502710328014,41.75889013762807 " id="svg_4" class=""/><path fill="" fill-opacity="1" stroke="#000000" stroke-opacity="1" stroke-width="3" stroke-dasharray="none" stroke-linejoin="miter" stroke-linecap="butt" stroke-dashoffset="" fill-rule="nonzero" opacity="1" marker-start="" marker-mid="" marker-end="" d="M49.30457027997653,30.59137756033246 L40.67512878093606,43.281732705980204 " id="svg_6" class="" transform="rotate(8.695505142211914 44.98984909057613,36.936553955078125) "/></g></svg>