<svg width="1707" height="443" viewBox="0 0 1707 443" fill="none" xmlns="http://www.w3.org/2000/svg">
<g clip-path="url(#clip0_1427_1525)">
<path d="M438.784 107.904H279.624C286.529 85.891 308.759 85.0644 319.009 87.4017C319.872 81.359 325.124 75.5324 327.641 73.3737C336.705 66.4684 347.604 68.6977 351.92 70.6764C355.805 61.1804 365.408 57.3684 369.724 56.6484C381.379 53.627 389.687 62.2244 392.384 66.9004C397.996 66.0364 402.636 68.3391 404.255 69.5977C409.865 73.4817 410.548 80.927 410.189 84.1644C429.612 87.6177 437.345 101.43 438.784 107.904Z" fill="white"/>
<path d="M308.976 87.7625C312.215 87.7625 315.453 88.3119 318.601 89.3986C319.003 89.5372 319.443 89.4905 319.808 89.2732C320.172 89.0545 320.423 88.6879 320.489 88.2692C322.212 77.6932 331.236 70.0186 341.948 70.0186C345.271 70.0186 348.491 70.7732 351.519 72.2599C351.884 72.4399 352.311 72.4559 352.691 72.3039C353.068 72.1505 353.367 71.8466 353.507 71.4612C356.543 63.1399 364.521 57.5492 373.359 57.5492C380.731 57.5492 387.456 61.3132 391.351 67.6172C391.655 68.1092 392.216 68.3759 392.793 68.2839C393.604 68.1586 394.285 68.0999 394.94 68.0999C402.639 68.0999 408.901 74.3639 408.901 82.0612C408.901 82.6345 408.855 83.2412 408.755 83.9692C408.703 84.3519 408.805 84.7399 409.043 85.0466C409.279 85.3519 409.628 85.5479 410.012 85.5946C422.125 87.0106 432.357 95.1159 436.581 106.467H281.483C285.912 95.1999 296.723 87.7625 308.976 87.7625ZM279.445 109.343H438.588C439.043 109.343 439.472 109.128 439.744 108.76C440.013 108.393 440.096 107.921 439.963 107.485C436.008 94.5292 425.025 85.0225 411.752 82.9292C411.768 82.6319 411.78 82.3439 411.78 82.0612C411.78 72.7759 404.227 65.2225 394.94 65.2225C394.417 65.2225 393.872 65.2532 393.289 65.3159C388.805 58.6332 381.424 54.6719 373.359 54.6719C363.835 54.6719 355.191 60.3839 351.381 69.0372C348.368 67.7772 345.203 67.1412 341.948 67.1412C330.376 67.1412 320.541 75.0532 317.969 86.1785C315.016 85.3199 311.999 84.8852 308.976 84.8852C294.797 84.8852 282.377 93.9612 278.073 107.468C277.935 107.905 278.012 108.384 278.284 108.755C278.552 109.125 278.984 109.343 279.445 109.343Z" fill="#251D50"/>
<path d="M583.376 22.6602C597.188 20.5029 607.835 30.3935 611.432 35.6095H447.416C448.28 26.1135 457.128 17.9842 461.444 15.1069C473.961 7.33753 486.443 10.0709 491.117 12.4096C499.319 1.61889 510.001 0.720197 514.317 1.61886C527.697 2.48153 533.56 13.1282 534.819 18.3442C543.02 14.4602 553.703 18.1642 558.019 20.5029C555.86 16.1856 557.479 11.5109 558.559 9.71221C563.737 -0.64646 573.665 1.07889 577.981 3.23756C588.34 9.71222 585.893 18.8842 583.376 22.6602Z" fill="white"/>
<path d="M479.019 11.5093C483.152 11.5093 487.172 12.3067 490.971 13.8773C491.614 14.1453 492.355 13.9147 492.73 13.3293C496.955 6.78535 504.108 2.87732 511.868 2.87732C521.766 2.87732 530.471 9.20535 533.528 18.6227C533.646 18.9867 533.903 19.2893 534.246 19.4613C534.587 19.636 534.983 19.664 535.346 19.5453C542.799 17.092 550.983 18.1493 557.535 22.3293C558.067 22.6667 558.759 22.6227 559.239 22.2147C559.719 21.8067 559.882 21.1333 559.634 20.5533C558.964 18.98 558.627 17.3093 558.627 15.5853C558.627 8.57866 564.327 2.87732 571.335 2.87732C578.342 2.87732 584.043 8.57866 584.043 15.5853C584.043 17.8227 583.44 20.036 582.3 21.9854C582.028 22.4534 582.04 23.0373 582.335 23.4933C582.63 23.948 583.155 24.196 583.695 24.1413C584.715 24.0333 585.72 23.98 586.682 23.98C595.043 23.98 602.903 27.6973 608.211 34.0507H448.983C452.836 20.6893 464.94 11.5093 479.019 11.5093ZM447.127 36.928H611.098C611.63 36.928 612.118 36.6333 612.368 36.1627C612.618 35.692 612.587 35.1213 612.287 34.68C606.514 26.1773 596.942 21.1013 586.682 21.1013C586.423 21.1013 586.163 21.1054 585.899 21.112C586.571 19.348 586.92 17.4747 586.92 15.5853C586.92 6.99199 579.928 0 571.335 0C562.74 0 555.748 6.99199 555.748 15.5853C555.748 16.4587 555.82 17.3227 555.963 18.1694C549.739 15.1974 542.526 14.536 535.792 16.404C531.987 6.53468 522.543 0 511.868 0C503.523 0 495.8 4.01068 490.978 10.7893C487.154 9.35735 483.136 8.632 479.019 8.632C462.979 8.632 449.287 19.544 445.723 35.168C445.627 35.596 445.728 36.0427 446.003 36.3853C446.275 36.728 446.69 36.928 447.127 36.928Z" fill="#251D50"/>
<path d="M1383.49 161.858H1217.32C1216.45 144.162 1229.54 139.018 1236.2 138.658C1250.01 138.227 1255.98 147.83 1257.24 152.686C1263.29 151.391 1271.27 153.226 1274.51 154.305C1274.94 140.492 1284.4 129.846 1289.07 126.25C1303.32 115.459 1318.75 118.157 1324.68 120.854C1338.49 125.602 1345.54 139.018 1347.34 145.133C1354.68 141.679 1362.27 142.614 1365.15 143.514C1375.94 145.241 1381.87 156.463 1383.49 161.858Z" fill="white"/>
<path d="M1237.7 140.036C1246.06 140.036 1253.4 145.384 1255.96 153.345C1256.17 154.017 1256.84 154.425 1257.55 154.328C1263.1 153.48 1268.89 154.045 1274.16 155.972C1274.59 156.132 1275.08 156.07 1275.46 155.808C1275.85 155.548 1276.08 155.117 1276.09 154.654C1276.54 135.486 1292.51 119.893 1311.68 119.893C1327.4 119.893 1341.46 130.43 1345.85 145.518C1345.98 145.926 1346.27 146.262 1346.66 146.433C1347.05 146.605 1347.49 146.593 1347.88 146.402C1351.25 144.722 1354.84 143.872 1358.55 143.872C1368.91 143.872 1377.99 150.489 1381.25 160.178H1218.55C1218.53 159.85 1218.52 159.532 1218.52 159.217C1218.52 148.641 1227.13 140.036 1237.7 140.036ZM1217.23 163.054H1383.17C1383.61 163.054 1384.03 162.85 1384.3 162.5C1384.58 162.15 1384.68 161.694 1384.57 161.264C1381.55 149.329 1370.86 140.994 1358.55 140.994C1354.95 140.994 1351.44 141.71 1348.12 143.125C1342.87 127.67 1328.11 117.016 1311.68 117.016C1291.6 117.016 1274.79 132.832 1273.31 152.653C1268.49 151.18 1263.35 150.725 1258.3 151.322C1255.04 142.801 1246.92 137.157 1237.7 137.157C1225.54 137.157 1215.65 147.053 1215.65 159.217C1215.65 160.037 1215.7 160.877 1215.81 161.788C1215.89 162.51 1216.51 163.054 1217.23 163.054Z" fill="#251D50"/>
<path d="M245.635 276.293H51.4053V409.016H245.635V276.293Z" fill="white"/>
<path d="M231.606 348.589L281.782 327.008L331.957 348.589V409.016H231.606V348.589Z" fill="white"/>
<path d="M112.911 348.589L148.52 327.008L184.128 348.589V409.016H112.911V348.589Z" fill="white"/>
<path d="M224.592 351.286L221.354 344.271L281.242 318.375L341.669 344.271L338.432 351.286L281.242 327.007L224.592 351.286Z" fill="#251D50"/>
<path d="M106.436 351.825L102.66 345.352L148.52 317.836L194.379 345.352L190.603 351.825L148.52 327.008L106.436 351.825Z" fill="#251D50"/>
<path d="M255.345 276.293H41.6934L64.3534 239.066H232.685L255.345 276.293Z" fill="#251D50"/>
<path d="M105.359 291.398H72.9868V323.77H105.359V291.398Z" fill="#D1E3FF"/>
<path d="M224.053 291.398H191.681V323.77H224.053V291.398Z" fill="#D1E3FF"/>
<path d="M157.152 291.398H139.887V307.584H157.152V291.398Z" fill="#D1E3FF"/>
<path d="M94.5682 358.301H72.9868V390.673H94.5682V358.301Z" fill="#D1E3FF"/>
<path d="M224.053 358.301H202.472V390.673H224.053V358.301Z" fill="#D1E3FF"/>
<path d="M161.468 362.617H135.571V409.016H161.468V362.617Z" fill="#FF7426"/>
<path d="M317.929 358.301H245.633V409.015H317.929V358.301Z" fill="white"/>
<path d="M156.073 366.93H140.967V398.222H156.073V366.93Z" fill="#D1E3FF"/>
<path d="M215.421 222.34H193.84V238.525H215.421V222.34Z" fill="#FF7426"/>
<path d="M218.657 216.945H190.603V222.34H218.657V216.945Z" fill="#FF7426"/>
<path d="M281.782 346.428C283.868 346.428 285.559 344.737 285.559 342.652C285.559 340.566 283.868 338.875 281.782 338.875C279.696 338.875 278.005 340.566 278.005 342.652C278.005 344.737 279.696 346.428 281.782 346.428Z" fill="#FF7426"/>
<path d="M74.2826 292.436H103.777V321.931H74.2826V292.436ZM72.8439 324.807H105.215C106.011 324.807 106.653 324.163 106.653 323.369V290.997C106.653 290.203 106.011 289.559 105.215 289.559H72.8439C72.0493 289.559 71.4053 290.203 71.4053 290.997V323.369C71.4053 324.163 72.0493 324.807 72.8439 324.807Z" fill="#251D50"/>
<path d="M74.2826 360.056H92.9866V389.552H74.2826V360.056ZM72.8439 392.428H94.4239C95.2199 392.428 95.8626 391.784 95.8626 390.989V358.618C95.8626 357.822 95.2199 357.18 94.4239 357.18H72.8439C72.0493 357.18 71.4053 357.822 71.4053 358.618V390.989C71.4053 391.784 72.0493 392.428 72.8439 392.428Z" fill="#251D50"/>
<path d="M192.977 292.436H222.472V321.931H192.977V292.436ZM191.539 324.807H223.911C224.705 324.807 225.349 324.163 225.349 323.369V290.997C225.349 290.203 224.705 289.559 223.911 289.559H191.539C190.745 289.559 190.1 290.203 190.1 290.997V323.369C190.1 324.163 190.745 324.807 191.539 324.807Z" fill="#251D50"/>
<path d="M203.768 360.056H222.472V389.552H203.768V360.056ZM200.891 358.618V390.989C200.891 391.784 201.535 392.428 202.329 392.428H223.911C224.705 392.428 225.349 391.784 225.349 390.989V358.618C225.349 357.822 224.705 357.18 223.911 357.18H202.329C201.535 357.18 200.891 357.822 200.891 358.618Z" fill="#251D50"/>
<path d="M141.544 292.498H155.211V306.165H141.544V292.498ZM140.104 309.044H156.651C157.446 309.044 158.088 308.4 158.088 307.605V291.058C158.088 290.264 157.446 289.621 156.651 289.621H140.104C139.31 289.621 138.666 290.264 138.666 291.058V307.605C138.666 308.4 139.31 309.044 140.104 309.044Z" fill="#251D50"/>
<path d="M154.852 396.744H141.903V368.69H154.852V396.744ZM156.291 365.812H140.464C139.671 365.812 139.027 366.456 139.027 367.251V398.184C139.027 398.978 139.671 399.623 140.464 399.623H156.291C157.087 399.623 157.73 398.978 157.73 398.184V367.251C157.73 366.456 157.087 365.812 156.291 365.812Z" fill="#251D50"/>
<path d="M281.428 344.951C280.237 344.951 279.271 343.983 279.271 342.794C279.271 341.603 280.237 340.635 281.428 340.635C282.617 340.635 283.587 341.603 283.587 342.794C283.587 343.983 282.617 344.951 281.428 344.951ZM281.428 337.758C278.651 337.758 276.392 340.017 276.392 342.794C276.392 345.57 278.651 347.829 281.428 347.829C284.204 347.829 286.463 345.57 286.463 342.794C286.463 340.017 284.204 337.758 281.428 337.758Z" fill="#251D50"/>
<path d="M281.995 325.645C281.813 325.566 281.62 325.527 281.428 325.527C281.235 325.527 281.041 325.566 280.86 325.645L230.505 347.225L225.152 349.519L223.168 344.891L281.428 319.922L315.895 334.693L321.128 336.938H321.129L339.688 344.891L337.704 349.519L281.995 325.645ZM330.345 407.536H318.835V358.618C318.835 357.822 318.191 357.179 317.396 357.179H245.459C244.665 357.179 244.021 357.822 244.021 358.618V407.536H232.511V349.497L281.428 328.532L330.345 349.495V407.536ZM315.957 362.216H246.899V360.057H315.957V362.216ZM315.957 367.25H246.899V365.093H315.957V367.25ZM315.957 372.286H246.899V370.129H315.957V372.286ZM315.957 377.322H246.899V375.164H315.957V377.322ZM315.957 382.357H246.899V380.2H315.957V382.357ZM315.957 387.393H246.899V385.235H315.957V387.393ZM315.957 392.429H246.899V390.27H315.957V392.429ZM315.957 397.464H246.899V395.306H315.957V397.464ZM315.957 402.499H246.899V400.342H315.957V402.499ZM315.957 407.536H246.899V405.378H315.957V407.536ZM229.633 407.536H185.785V351.089L189.692 353.432C189.923 353.572 190.18 353.637 190.431 353.637C190.92 353.637 191.396 353.389 191.665 352.939L195.736 346.155C195.933 345.827 195.991 345.435 195.9 345.065C195.805 344.694 195.571 344.378 195.244 344.181L149.12 316.504C148.661 316.232 148.095 316.232 147.637 316.504L101.512 344.181C101.185 344.378 100.948 344.694 100.857 345.065C100.763 345.435 100.823 345.827 101.017 346.155L105.089 352.939C105.497 353.619 106.38 353.844 107.064 353.432L110.971 351.089V407.536H66.7453C67.3813 405.638 67.7093 403.66 67.7093 401.624C67.7093 392.576 61.2493 385.01 52.7027 383.289V278.05H244.055V332.809L220.712 342.814C219.983 343.126 219.644 343.971 219.957 344.701L223.075 351.975C223.224 352.327 223.507 352.603 223.861 352.746C224.219 352.889 224.612 352.882 224.964 352.73L229.633 350.73V407.536ZM149.12 325.733C148.661 325.46 148.095 325.46 147.637 325.733L106.816 350.225L104.227 345.906L148.379 319.415L192.528 345.906L189.939 350.225L149.12 325.733ZM182.908 407.536H162.765V362.216C162.765 361.42 162.121 360.776 161.327 360.776H135.429C134.636 360.776 133.991 361.42 133.991 362.216V407.536H113.848V349.362L148.379 328.644L182.908 349.362V407.536ZM159.888 407.536H136.868V363.654H159.888V407.536ZM63.6867 407.536H51.264H9.66133C9.18933 406.004 8.95067 404.425 8.95067 402.826C8.95067 393.965 16.16 386.757 25.0213 386.757C28.92 386.757 32.6813 388.173 35.612 390.746C36.188 391.251 37.0627 391.213 37.5973 390.661C40.612 387.524 44.664 385.797 49.0067 385.797C57.732 385.797 64.832 392.895 64.832 401.624C64.832 403.673 64.4467 405.658 63.6867 407.536ZM43.7667 275.172L65.016 240.642H193.699H215.279H231.74L252.989 275.172H245.492H51.264H43.7667ZM213.841 237.765H195.136V224.097H213.841V237.765ZM192.26 218.342H204.489H216.717V221.219H215.279H193.699H192.26V218.342ZM293.057 305.761C292.581 305.484 291.987 305.505 291.528 305.814C288.111 308.129 284.115 309.353 279.972 309.353C268.599 309.353 259.344 300.099 259.344 288.726C259.344 279.134 265.855 270.885 275.175 268.663C275.713 268.538 276.131 268.114 276.249 267.574C277.419 262.224 279.876 257.136 283.351 252.862C283.817 252.29 283.773 251.458 283.251 250.936C281.165 248.861 280.017 246.1 280.017 243.16C280.017 237.112 284.937 232.19 290.987 232.19C295.716 232.19 299.895 235.209 301.391 239.698C301.624 240.399 302.347 240.816 303.068 240.648C308.492 239.44 314.292 239.534 319.673 240.93C320.153 241.053 320.66 240.923 321.02 240.587C324.857 236.99 329.864 235.006 335.119 235.006C346.489 235.006 355.74 244.259 355.74 255.629C355.74 261.157 353.579 266.35 349.652 270.252C349.331 270.572 349.177 271.028 349.244 271.477C349.309 271.928 349.583 272.32 349.984 272.538C354.527 274.994 357.348 279.725 357.348 284.884C357.348 291.417 352.72 297.174 346.344 298.576C345.933 298.665 345.581 298.929 345.385 299.3C345.185 299.67 345.157 300.107 345.311 300.499C345.867 301.937 346.149 303.448 346.149 304.988C346.149 311.874 340.545 317.475 333.66 317.475C329.223 317.475 325.211 315.19 322.932 311.359C322.601 310.805 321.941 310.538 321.313 310.71C320.689 310.881 320.256 311.45 320.256 312.097V333.433L311.768 329.797L308.747 328.499V311.804C308.747 311.061 308.183 310.441 307.443 310.372C302.336 309.888 297.495 308.338 293.057 305.761ZM333.223 407.536V350.73L337.893 352.73C338.075 352.809 338.265 352.848 338.46 352.848C338.641 352.848 338.823 352.815 338.995 352.746C339.348 352.603 339.632 352.327 339.783 351.975L342.9 344.701C343.212 343.971 342.873 343.126 342.144 342.814L323.133 334.666V316.159C325.955 318.809 329.72 320.354 333.66 320.354C342.132 320.354 349.027 313.46 349.027 304.988C349.027 303.624 348.847 302.278 348.489 300.973C355.376 298.754 360.225 292.224 360.225 284.884C360.225 279.284 357.468 274.102 352.919 270.966C356.605 266.702 358.617 261.321 358.617 255.629C358.617 242.671 348.076 232.13 335.119 232.13C329.395 232.13 323.928 234.194 319.637 237.958C314.439 236.725 308.912 236.601 303.659 237.59C301.467 232.589 296.524 229.313 290.987 229.313C283.351 229.313 277.139 235.524 277.139 243.16C277.139 246.438 278.271 249.541 280.349 252.025C277.177 256.198 274.873 261.022 273.637 266.09C263.483 268.914 256.468 278.097 256.468 288.726C256.468 301.686 267.012 312.23 279.972 312.23C284.391 312.23 288.663 311.009 292.387 308.688C296.592 311.002 301.116 312.481 305.868 313.09V327.268L281.995 317.036C281.632 316.881 281.223 316.881 280.86 317.036L246.931 331.575V278.05H255.563C256.084 278.05 256.565 277.767 256.82 277.313C257.073 276.858 257.061 276.3 256.788 275.857L233.769 238.45C233.507 238.023 233.043 237.765 232.544 237.765H216.717V224.097H218.157C218.951 224.097 219.596 223.454 219.596 222.658V216.903C219.596 216.107 218.951 215.465 218.157 215.465H190.82C190.027 215.465 189.381 216.107 189.381 216.903V222.658C189.381 223.454 190.027 224.097 190.82 224.097H192.26V237.765H64.212C63.7133 237.765 63.248 238.023 62.9867 238.45L39.9667 275.857C39.6933 276.3 39.6813 276.858 39.936 277.313C40.1907 277.767 40.672 278.05 41.192 278.05H49.8253V382.961C49.5493 382.949 49.2827 382.921 49.0067 382.921C44.3187 382.921 39.92 384.621 36.4787 387.738C33.1933 385.241 29.1733 383.88 25.0213 383.88C14.5733 383.88 6.07333 392.379 6.07333 402.826C6.07333 404.421 6.28533 405.996 6.68267 407.536H1.43867C0.644 407.536 0 408.178 0 408.974C0 409.769 0.644 410.413 1.43867 410.413H8.632H51.264H64.6267H112.411H135.429H161.327H184.347H231.072H245.459H317.396H331.783H350.555L350.468 407.536H333.223Z" fill="#251D50"/>
<mask id="mask0_1427_1525" style="mask-type:luminance" maskUnits="userSpaceOnUse" x="350" y="114" width="407" height="329">
<path d="M756.024 114.844H350.301V442.874H756.024V114.844Z" fill="white"/>
</mask>
<g mask="url(#mask0_1427_1525)">
<path d="M624.38 409.089V297.946H585.535L532.662 260.18L480.867 297.946H442.021V409.089H624.38Z" fill="white"/>
<path d="M480.867 297.945H436.625V292.55H478.708L533.2 252.625L587.692 292.55H629.776V297.945H585.535L533.2 260.178L480.867 297.945Z" fill="#251D50"/>
<path d="M478.708 292.552H436.625L486.262 260.18H522.95L478.708 292.552Z" fill="#251D50"/>
<path d="M587.692 292.552H629.776L580.139 260.18H543.452L587.692 292.552Z" fill="#251D50"/>
<path d="M543.452 297.945H520.792V343.265H543.452V297.945Z" fill="#D1E3FF"/>
<path d="M483.026 313.051H461.444V343.264H483.026V313.051Z" fill="#D1E3FF"/>
<path d="M483.026 358.371H461.444V388.584H483.026V358.371Z" fill="#D1E3FF"/>
<path d="M604.957 313.051H583.376V343.264H604.957V313.051Z" fill="#D1E3FF"/>
<path d="M604.957 358.371H583.376V388.584H604.957V358.371Z" fill="#D1E3FF"/>
<path d="M557.479 350.82H506.764V356.215H557.479V350.82Z" fill="#251D50"/>
<path d="M556.4 400.457H507.843V404.773H556.4V400.457Z" fill="#FF7426"/>
<path d="M558.559 404.773H505.686V409.089H558.559V404.773Z" fill="#FF7426"/>
<path d="M553.163 356.215H511.08V400.456H553.163V356.215Z" fill="#FF7426"/>
<path d="M520.791 360.531H516.475V396.139H520.791V360.531Z" fill="#D1E3FF"/>
<path d="M547.768 360.531H543.452V396.139H547.768V360.531Z" fill="#D1E3FF"/>
<path d="M539.136 360.531H525.108V383.191H539.136V360.531Z" fill="#D1E3FF"/>
<path d="M539.136 387.508H525.108V396.14H539.136V387.508Z" fill="#D1E3FF"/>
<path d="M696.676 358.371H624.38V409.086H696.676V358.371Z" fill="#D1E3FF"/>
<path d="M442.02 358.371H369.724V409.086H442.02V358.371Z" fill="#D1E3FF"/>
<path d="M462.656 329.199H481.362V341.428H462.656V329.199ZM481.362 326.322H462.656V314.092H481.362V326.322ZM459.06 344.306H461.219H482.799H484.958C485.752 344.306 486.396 343.662 486.396 342.867C486.396 342.072 485.752 341.428 484.958 341.428H484.238V312.653C484.238 311.859 483.594 311.215 482.799 311.215H461.219C460.424 311.215 459.78 311.859 459.78 312.653V341.428H459.06C458.266 341.428 457.622 342.072 457.622 342.867C457.622 343.662 458.266 344.306 459.06 344.306Z" fill="#251D50"/>
<path d="M522.903 329.196H541.608V341.426H522.903V329.196ZM541.608 311.931H522.903V299.703H541.608V311.931ZM522.903 314.81H541.608V326.319H522.903V314.81ZM519.307 344.303H521.465H543.045H545.204C545.999 344.303 546.643 343.659 546.643 342.864C546.643 342.07 545.999 341.426 545.204 341.426H544.484V298.264C544.484 297.468 543.84 296.824 543.045 296.824H521.465C520.671 296.824 520.027 297.468 520.027 298.264V341.426H519.307C518.512 341.426 517.868 342.07 517.868 342.864C517.868 343.659 518.512 344.303 519.307 344.303Z" fill="#251D50"/>
<path d="M584.948 329.199H603.654V341.428H584.948V329.199ZM603.654 326.322H584.948V314.092H603.654V326.322ZM581.352 344.306H583.511H605.091H607.25C608.044 344.306 608.688 343.662 608.688 342.867C608.688 342.072 608.044 341.428 607.25 341.428H606.53V312.653C606.53 311.859 605.886 311.215 605.091 311.215H583.511C582.716 311.215 582.072 311.859 582.072 312.653V341.428H581.352C580.558 341.428 579.914 342.072 579.914 342.867C579.914 343.662 580.558 344.306 581.352 344.306Z" fill="#251D50"/>
<path d="M462.656 375.238H481.362V387.467H462.656V375.238ZM481.362 372.361H462.656V360.131H481.362V372.361ZM484.958 387.467H484.238V358.693C484.238 357.898 483.594 357.254 482.799 357.254H461.219C460.424 357.254 459.78 357.898 459.78 358.693V387.467H459.06C458.266 387.467 457.622 388.111 457.622 388.906C457.622 389.701 458.266 390.345 459.06 390.345H461.219H482.799H484.958C485.752 390.345 486.396 389.701 486.396 388.906C486.396 388.111 485.752 387.467 484.958 387.467Z" fill="#251D50"/>
<path d="M584.948 375.238H603.654V387.467H584.948V375.238ZM603.654 372.361H584.948V360.131H603.654V372.361ZM581.352 390.345H583.511H605.091H607.25C608.044 390.345 608.688 389.701 608.688 388.906C608.688 388.111 608.044 387.467 607.25 387.467H606.53V358.693C606.53 357.898 605.886 357.254 605.091 357.254H583.511C582.716 357.254 582.072 357.898 582.072 358.693V387.467H581.352C580.558 387.467 579.914 388.111 579.914 388.906C579.914 389.701 580.558 390.345 581.352 390.345Z" fill="#251D50"/>
<path d="M519.307 393.943H517.868V362.29H519.307V393.943ZM520.745 359.414H516.429C515.635 359.414 514.991 360.057 514.991 360.853V395.382C514.991 396.175 515.635 396.819 516.429 396.819H520.745C521.539 396.819 522.184 396.175 522.184 395.382V360.853C522.184 360.057 521.539 359.414 520.745 359.414Z" fill="#251D50"/>
<path d="M538.01 381.713H526.502V362.29H538.01V381.713ZM539.45 359.414H525.062C524.267 359.414 523.623 360.057 523.623 360.853V383.153C523.623 383.947 524.267 384.591 525.062 384.591H539.45C540.244 384.591 540.888 383.947 540.888 383.153V360.853C540.888 360.057 540.244 359.414 539.45 359.414Z" fill="#251D50"/>
<path d="M538.01 393.941H526.502V388.905H538.01V393.941ZM539.45 386.027H525.062C524.267 386.027 523.623 386.67 523.623 387.466V395.379C523.623 396.173 524.267 396.817 525.062 396.817H539.45C540.244 396.817 540.888 396.173 540.888 395.379V387.466C540.888 386.67 540.244 386.027 539.45 386.027Z" fill="#251D50"/>
<path d="M546.643 393.943H545.204V362.29H546.643V393.943ZM548.08 359.414H543.764C542.971 359.414 542.327 360.057 542.327 360.853V395.382C542.327 396.175 542.971 396.819 543.764 396.819H548.08C548.875 396.819 549.52 396.175 549.52 395.382V360.853C549.52 360.057 548.875 359.414 548.08 359.414Z" fill="#251D50"/>
<path d="M730.54 384.587V407.607H724.785V384.587C724.785 383.793 724.141 383.149 723.348 383.149H708.623L721.129 362.309C721.395 361.865 721.401 361.31 721.147 360.859C720.892 360.407 720.412 360.13 719.895 360.13H714.732L726.047 341.182C726.313 340.738 726.319 340.186 726.064 339.735C725.808 339.285 725.329 339.006 724.813 339.006H721.359L727.664 326.398L733.968 339.006H730.515C729.996 339.006 729.52 339.285 729.263 339.735C729.008 340.186 729.015 340.738 729.28 341.182L740.595 360.13H735.433C734.915 360.13 734.437 360.407 734.181 360.859C733.927 361.309 733.932 361.862 734.2 362.309L746.704 383.149H731.98C731.185 383.149 730.54 383.793 730.54 384.587ZM733.419 407.607V386.027H749.244C749.763 386.027 750.241 385.749 750.496 385.298C750.752 384.846 750.744 384.293 750.477 383.847L737.975 363.006H743.129C743.648 363.006 744.125 362.729 744.381 362.277C744.636 361.829 744.631 361.274 744.364 360.83L733.051 341.883H736.296C736.795 341.883 737.256 341.626 737.52 341.201C737.781 340.777 737.804 340.247 737.583 339.802L728.951 322.537C728.463 321.561 726.863 321.561 726.375 322.537L717.743 339.802C717.521 340.247 717.544 340.777 717.807 341.201C718.069 341.626 718.532 341.883 719.031 341.883H722.277L710.963 360.83C710.696 361.274 710.691 361.829 710.945 362.277C711.201 362.729 711.679 363.006 712.196 363.006H717.353L704.849 383.847C704.581 384.291 704.575 384.845 704.831 385.298C705.085 385.749 705.564 386.027 706.083 386.027H721.908V407.607H700.223C700.248 408.567 700.275 409.525 700.308 410.485H723.348H731.98H756.48C756.389 409.526 756.305 408.569 756.228 407.607H733.419Z" fill="#251D50"/>
<path d="M695.012 407.609H690.696V360.131H695.012V407.609ZM688.483 356.578C688.389 356.807 688.28 357.027 688.177 357.254H682.063H674.871H667.676H660.481H653.289H646.095H638.901H631.708H625.952V328.697C632.869 324.477 641.395 323.769 648.908 326.834C653.891 328.867 658.035 332.351 660.888 336.907C661.104 337.253 661.456 337.49 661.857 337.561C662.256 337.634 662.669 337.53 662.992 337.279C667.66 333.65 673.952 332.779 679.413 335.006C683.507 336.675 686.703 339.838 688.416 343.913C690.129 347.987 690.153 352.485 688.483 356.578ZM687.819 407.609H683.503V360.131H687.819V407.609ZM680.624 407.609H676.308V360.131H680.624V407.609ZM673.431 407.609H669.115V360.131H673.431V407.609ZM666.237 407.609H661.921V360.131H666.237V407.609ZM659.044 407.609H654.728V360.131H659.044V407.609ZM651.849 407.609H647.533V360.131H651.849V407.609ZM644.656 407.609H640.34V360.131H644.656V407.609ZM637.463 407.609H633.147V360.131H637.463V407.609ZM630.268 407.609H625.952V360.131H630.268V407.609ZM585.815 296.827L533.793 258.621C533.288 258.246 532.596 258.246 532.091 258.621L480.069 296.827H441.796H437.479V293.95H478.653C478.96 293.95 479.26 293.85 479.505 293.669L532.941 254.425L586.38 293.669C586.625 293.85 586.924 293.95 587.231 293.95H628.831V296.827H624.515H585.815ZM623.076 358.693V407.609H560.311V404.733C560.311 403.937 559.667 403.293 558.872 403.293H557.433V400.417C557.433 399.619 556.788 398.977 555.995 398.977H553.836V357.254H557.433C558.227 357.254 558.872 356.609 558.872 355.815V351.498C558.872 350.703 558.227 350.061 557.433 350.061H507.077C506.284 350.061 505.639 350.703 505.639 351.498V355.815C505.639 356.609 506.284 357.254 507.077 357.254H510.675V398.977H508.516C507.723 398.977 507.077 399.619 507.077 400.417V403.293H505.639C504.844 403.293 504.2 403.937 504.2 404.733V407.609H443.233V358.693V299.705H480.54C480.847 299.705 481.147 299.605 481.392 299.423L532.941 261.565L584.493 299.423C584.739 299.605 585.039 299.705 585.344 299.705H623.076V358.693ZM552.397 401.854H554.556V403.293H509.955V401.854H512.113H552.397ZM550.959 398.977H513.552V357.254H550.959V398.977ZM512.113 354.377H508.516V352.938H555.995V354.377H552.397H512.113ZM557.433 407.609H507.077V406.171H508.516H555.995H557.433V407.609ZM486.612 261.219H518.832L478.183 291.071H440.873L486.612 261.219ZM579.273 261.219L625.009 291.071H587.701L547.052 261.219H579.273ZM440.356 357.254H434.601H427.407H420.215H413.02H405.827H398.633H391.44H384.245H377.052H374.385C375.759 349.473 382.635 343.586 390.68 343.586C392.144 343.586 393.605 343.781 395.021 344.166C395.416 344.273 395.835 344.209 396.177 343.987C396.52 343.769 396.753 343.413 396.82 343.011C398.853 330.63 409.448 321.646 422.012 321.646C428.917 321.646 435.56 324.493 440.356 329.447V357.254ZM440.356 407.609H436.04V360.131H440.356V407.609ZM433.163 407.609H428.847V360.131H433.163V407.609ZM425.969 407.609H421.653V360.131H425.969V407.609ZM418.775 407.609H414.459V360.131H418.775V407.609ZM411.581 407.609H407.265V360.131H411.581V407.609ZM404.388 407.609H400.072V360.131H404.388V407.609ZM397.193 407.609H392.877V360.131H397.193V407.609ZM390.001 407.609H385.685V360.131H390.001V407.609ZM382.807 407.609H378.491V360.131H382.807V407.609ZM375.613 407.609H371.297V360.131H375.613V407.609ZM697.889 407.609V358.693C697.889 357.898 697.245 357.254 696.451 357.254H691.293C693.089 352.559 693.021 347.445 691.069 342.797C689.059 338.015 685.304 334.303 680.5 332.342C674.565 329.919 667.797 330.613 662.483 334.109C659.357 329.658 655.068 326.239 649.996 324.17C642.167 320.977 633.357 321.466 625.952 325.389V299.705H630.268C631.063 299.705 631.708 299.061 631.708 298.266V292.511C631.708 291.717 631.065 291.075 630.272 291.074L580.488 258.575C580.255 258.422 579.98 258.341 579.7 258.341H543.136L533.793 251.479C533.288 251.106 532.596 251.106 532.091 251.479L522.749 258.341H486.183C485.904 258.341 485.631 258.422 485.397 258.575L435.253 291.307C435.213 291.333 435.192 291.374 435.155 291.403C435.075 291.467 435.005 291.535 434.941 291.614C434.883 291.683 434.836 291.754 434.792 291.834C434.749 291.914 434.715 291.994 434.687 292.083C434.657 292.179 434.639 292.27 434.628 292.37C434.624 292.418 434.601 292.462 434.601 292.511V298.266C434.601 299.061 435.245 299.705 436.04 299.705H440.356V325.513C435.255 321.203 428.744 318.767 422.012 318.767C408.545 318.767 397.112 328.046 394.268 341.042C393.084 340.821 391.883 340.709 390.68 340.709C381.067 340.709 372.893 347.877 371.487 357.254H369.859C369.064 357.254 368.42 357.898 368.42 358.693V407.609H350.467L350.555 410.487H369.859H377.052H384.245H391.44H398.633H405.827H413.02H420.215H427.407H434.601H441.796H505.639H558.872H624.515H631.708H638.901H646.095H653.289H660.481H667.676H674.871H682.063H689.257H696.451H700.308C700.275 409.527 700.247 408.57 700.221 407.609H697.889Z" fill="#251D50"/>
</g>
<mask id="mask1_1427_1525" style="mask-type:luminance" maskUnits="userSpaceOnUse" x="719" y="114" width="276" height="329">
<path d="M994.493 114.844H719.336V442.874H994.493V114.844Z" fill="white"/>
</mask>
<g mask="url(#mask1_1427_1525)">
<path d="M764.656 279.399L835.873 247.027L907.09 279.399V330.114H764.656V279.399Z" fill="white"/>
<path d="M752.248 285.875L747.932 281.559L836.413 240.555L924.896 281.019L920.578 285.875L836.413 247.029L752.248 285.875Z" fill="#251D50"/>
<path d="M844.505 264.293H828.32V280.478H844.505V264.293Z" fill="#D1E3FF"/>
<path d="M816.451 290.188H800.265V316.085H816.451V290.188Z" fill="#D1E3FF"/>
<path d="M896.3 290.188H880.114V316.085H896.3V290.188Z" fill="#D1E3FF"/>
<path d="M792.712 290.188H776.526V316.085H792.712V290.188Z" fill="#D1E3FF"/>
<path d="M872.561 290.188H856.375V316.085H872.561V290.188Z" fill="#D1E3FF"/>
<path d="M764.656 330.113L757.103 353.852H861.771L907.09 333.351V330.653L764.656 330.113Z" fill="#251D50"/>
<path d="M764.656 353.852V408.884H874.72V354.392L867.705 357.629L863.929 353.852H764.656Z" fill="white"/>
<path d="M859.612 368.961H843.426V394.858H859.612V368.961Z" fill="#D1E3FF"/>
<path d="M835.873 368.961H819.688V394.858H835.873V368.961Z" fill="#D1E3FF"/>
<path d="M791.633 392.918V386.011C791.633 385.534 791.151 385.148 790.553 385.148C789.957 385.148 789.475 385.534 789.475 386.011V392.918C789.475 393.394 789.957 393.78 790.553 393.78C791.151 393.78 791.633 393.394 791.633 392.918Z" fill="#251D50"/>
<path d="M975.07 408.887H875.798V353.855L925.434 331.195L975.07 354.395V408.887Z" fill="white"/>
<path d="M961.042 368.961H888.746V408.886H961.042V368.961Z" fill="#FF7426"/>
<path d="M867.705 357.629L863.389 353.313L925.434 324.719L987.48 353.313L983.164 357.629L925.434 331.192L867.705 357.629Z" fill="#251D50"/>
<path d="M834.19 373.595H820.522V370.717H834.19V373.595ZM820.522 376.472H834.19V393.737H820.522V376.472ZM819.084 396.615H835.629C836.422 396.615 837.066 395.969 837.066 395.176V369.279C837.066 368.483 836.422 367.84 835.629 367.84H819.084C818.288 367.84 817.644 368.483 817.644 369.279V395.176C817.644 395.969 818.288 396.615 819.084 396.615Z" fill="#251D50"/>
<path d="M857.928 373.595H844.26V370.717H857.928V373.595ZM844.261 376.472H857.929V393.737H844.261V376.472ZM842.822 396.615H859.366C860.162 396.615 860.805 395.969 860.805 395.176V369.279C860.805 368.483 860.162 367.84 859.366 367.84H842.822C842.026 367.84 841.384 368.483 841.384 369.279V395.176C841.384 395.969 842.026 396.615 842.822 396.615Z" fill="#251D50"/>
<path d="M791.388 294.467H777.721V291.588H791.388V294.467ZM777.721 297.343H791.388V314.608H777.721V297.343ZM776.281 317.486H792.828C793.621 317.486 794.265 316.842 794.265 316.047V290.15C794.265 289.354 793.621 288.711 792.828 288.711H776.281C775.485 288.711 774.842 289.354 774.842 290.15V316.047C774.842 316.842 775.485 317.486 776.281 317.486Z" fill="#251D50"/>
<path d="M815.126 294.467H801.46V291.588H815.126V294.467ZM801.46 297.343H815.126V314.608H801.46V297.343ZM800.02 317.486H816.566C817.36 317.486 818.005 316.842 818.005 316.047V290.15C818.005 289.354 817.36 288.711 816.566 288.711H800.02C799.225 288.711 798.581 289.354 798.581 290.15V316.047C798.581 316.842 799.225 317.486 800.02 317.486Z" fill="#251D50"/>
<path d="M894.856 294.467H881.188V291.588H894.856V294.467ZM881.188 297.343H894.856V314.608H881.188V297.343ZM879.749 317.486H896.295C897.091 317.486 897.733 316.842 897.733 316.047V290.15C897.733 289.354 897.091 288.711 896.295 288.711H879.749C878.953 288.711 878.311 289.354 878.311 290.15V316.047C878.311 316.842 878.953 317.486 879.749 317.486Z" fill="#251D50"/>
<path d="M871.117 294.467H857.449V291.588H871.117V294.467ZM857.449 297.343H871.117V314.608H857.449V297.343ZM856.01 317.486H872.556C873.352 317.486 873.994 316.842 873.994 316.047V290.15C873.994 289.354 873.352 288.711 872.556 288.711H856.01C855.214 288.711 854.572 289.354 854.572 290.15V316.047C854.572 316.842 855.214 317.486 856.01 317.486Z" fill="#251D50"/>
<path d="M829.453 265.69H843.121V279.359H829.453V265.69ZM828.014 282.235H844.56C845.354 282.235 845.997 281.591 845.997 280.797V264.253C845.997 263.455 845.354 262.812 844.56 262.812H828.014C827.22 262.812 826.577 263.455 826.577 264.253V280.797C826.577 281.591 827.22 282.235 828.014 282.235Z" fill="#251D50"/>
<path d="M931.017 399.973H919.508C918.712 399.973 918.068 400.617 918.068 401.411C918.068 402.206 918.712 402.85 919.508 402.85H931.017C931.813 402.85 932.456 402.206 932.456 401.411C932.456 400.617 931.813 399.973 931.017 399.973Z" fill="#251D50"/>
<path d="M975.786 352.867L925.789 329.847C925.408 329.669 924.969 329.669 924.588 329.847L874.633 352.845L874.632 352.847L874.59 352.867C874.59 352.867 874.589 352.868 874.585 352.868L867.62 356.076L865.357 353.812L925.189 326.263L985.022 353.812L982.758 356.076L975.789 352.868L975.786 352.867ZM973.746 407.405H962.596V369.279C962.596 368.484 961.953 367.84 961.157 367.84H889.221C888.424 367.84 887.781 368.484 887.781 369.279V407.405H876.632V355.095L925.189 332.737L973.746 355.095V407.405ZM959.718 407.405H890.66V370.719H959.718V407.405ZM873.753 407.405H808.293V369.279C808.293 368.484 807.649 367.84 806.854 367.84H785.993C785.197 367.84 784.554 368.484 784.554 369.279V407.405H765.85V355.612H863.088L866.294 358.82C866.72 359.245 867.369 359.36 867.913 359.109L873.753 356.42V407.405ZM805.416 407.405H787.432V370.719H805.416V407.405ZM759.157 352.733L765.477 331.872H905.406V332.205L862.277 352.061C861.974 352.201 861.737 352.441 861.594 352.733H759.157ZM905.406 280.433V328.995H765.85V281.041L836.288 248.609L905.406 280.433ZM752.39 284.072L750.126 281.805L836.288 242.136L922.448 281.805L920.185 284.072L836.889 245.719C836.698 245.632 836.492 245.588 836.288 245.588C836.082 245.588 835.877 245.632 835.685 245.719L764.013 278.72C763.882 278.757 763.768 278.813 763.654 278.885L752.39 284.072ZM796.424 240.632V257.323L777.721 265.935V240.632H796.424ZM775.562 234.877H798.581V237.755H797.862H776.281H775.562V234.877ZM976.624 407.405V356.42L982.465 359.109C982.658 359.196 982.862 359.241 983.068 359.241C983.44 359.241 983.808 359.095 984.084 358.82L988.517 354.387C988.849 354.053 989 353.579 988.916 353.117C988.832 352.653 988.529 352.259 988.101 352.061L925.789 323.372C925.408 323.195 924.969 323.195 924.588 323.372L908.284 330.88V281.759L919.892 287.103C920.084 287.192 920.29 287.236 920.493 287.236C920.868 287.236 921.234 287.089 921.51 286.813L925.942 282.381C926.276 282.048 926.424 281.572 926.342 281.111C926.26 280.648 925.956 280.253 925.526 280.057L836.889 239.245C836.506 239.068 836.068 239.068 835.685 239.245L799.301 255.999V240.632H800.02C800.814 240.632 801.46 239.989 801.46 239.193V233.439C801.46 232.643 800.814 232 800.02 232H774.122C773.328 232 772.685 232.643 772.685 233.439V239.193C772.685 239.989 773.328 240.632 774.122 240.632H774.842V267.26L747.048 280.057C746.62 280.253 746.316 280.648 746.234 281.111C746.149 281.572 746.3 282.048 746.632 282.381L751.065 286.813C751.489 287.239 752.134 287.356 752.684 287.103L762.973 282.367V330.22L755.84 353.756C755.709 354.192 755.79 354.664 756.062 355.029C756.333 355.396 756.762 355.612 757.218 355.612H762.973V407.405H755.149C755.225 408.367 755.31 409.324 755.4 410.283H764.412H785.993H806.854H875.193H889.221H961.157H975.184H994.494V407.405H976.624Z" fill="#251D50"/>
</g>
<mask id="mask2_1427_1525" style="mask-type:luminance" maskUnits="userSpaceOnUse" x="984" y="114" width="322" height="329">
<path d="M1305.26 114.844H984.783V442.874H1305.26V114.844Z" fill="white"/>
</mask>
<g mask="url(#mask2_1427_1525)">
<path d="M1266.41 293.348H1095.93L1072.73 353.774L1127.22 354.313L1181.17 324.1L1234.04 353.774H1289.61L1266.41 293.348Z" fill="#251D50"/>
<path d="M1128.3 342.985H1102.4V319.785L1115.35 311.691L1128.3 319.245V342.985Z" fill="#D1E3FF"/>
<path d="M1259.94 342.985H1234.04V319.785L1246.99 311.691L1259.94 319.245V342.985Z" fill="#D1E3FF"/>
<path d="M1099.7 321.402L1096.46 316.007L1115.89 304.137L1135.31 316.007L1132.07 321.402L1115.89 311.69L1099.7 321.402Z" fill="#251D50"/>
<path d="M1230.27 321.402L1227.03 316.007L1246.45 304.137L1265.87 316.007L1262.64 321.402L1246.45 311.69L1230.27 321.402Z" fill="#251D50"/>
<path d="M1130.45 283.637H1115.35V293.349H1130.45V283.637Z" fill="#FF7426"/>
<path d="M1246.99 283.637H1231.89V293.349H1246.99V283.637Z" fill="#FF7426"/>
<path d="M1132.61 279.32H1113.19V283.636H1132.61V279.32Z" fill="#FF7426"/>
<path d="M1249.15 279.32H1229.73V283.636H1249.15V279.32Z" fill="#FF7426"/>
<path d="M1132.07 361.33L1127.76 354.315L1181.17 324.102L1234.58 353.776L1230.81 361.33L1181.17 333.814L1132.07 361.33Z" fill="#251D50"/>
<path d="M1084.05 408.804V354.312H1127.76L1132.07 361.327L1145.56 354.312V408.804H1084.05Z" fill="white"/>
<path d="M1278.28 408.804V354.312H1234.58L1230.27 361.327L1216.78 354.312V408.804H1278.28Z" fill="white"/>
<path d="M1109.95 369.961H1094.85V395.858H1109.95V369.961Z" fill="#D1E3FF"/>
<path d="M1243.75 369.961H1228.65V395.858H1243.75V369.961Z" fill="#D1E3FF"/>
<path d="M1133.69 369.961H1118.59V395.858H1133.69V369.961Z" fill="#D1E3FF"/>
<path d="M1267.49 369.961H1252.39V395.858H1267.49V369.961Z" fill="#D1E3FF"/>
<path d="M1217.32 408.806H1145.02V354.854L1181.17 334.352L1217.32 354.314V408.806Z" fill="white"/>
<path d="M1191.96 369.961H1170.38V408.806H1191.96V369.961Z" fill="#FF7426"/>
<path d="M1175.77 392.836V385.929C1175.77 385.453 1175.29 385.066 1174.7 385.066C1174.1 385.066 1173.62 385.453 1173.62 385.929V392.836C1173.62 393.312 1174.1 393.698 1174.7 393.698C1175.29 393.698 1175.77 393.312 1175.77 392.836Z" fill="#251D50"/>
<path d="M1131.3 319.581L1129.36 318.402C1129.34 318.381 1129.32 318.354 1129.29 318.337L1116.34 310.424C1116.28 310.384 1116.2 310.362 1116.14 310.333C1115.78 310.189 1115.4 310.189 1115.05 310.333C1114.98 310.362 1114.91 310.384 1114.84 310.424L1101.89 318.337C1101.86 318.352 1101.84 318.378 1101.82 318.398L1099.89 319.581L1098.01 316.512L1115.6 305.752L1133.17 316.512L1131.3 319.581ZM1127.1 341.865H1104.08V320.385L1115.6 313.338L1127.1 320.385V341.865ZM1135.9 314.809L1116.34 302.837C1115.88 302.554 1115.3 302.554 1114.84 302.837L1095.28 314.809C1094.6 315.222 1094.39 316.108 1094.8 316.785L1098.18 322.309C1098.37 322.636 1098.7 322.869 1099.07 322.96C1099.18 322.985 1099.29 322.998 1099.41 322.998C1099.67 322.998 1099.93 322.926 1100.15 322.786L1101.2 322.146V343.302C1101.2 344.098 1101.85 344.741 1102.65 344.741H1128.54C1129.33 344.741 1129.98 344.098 1129.98 343.302V322.146L1131.03 322.786C1131.35 322.985 1131.74 323.048 1132.11 322.96C1132.48 322.869 1132.81 322.636 1133 322.309L1136.38 316.785C1136.79 316.108 1136.58 315.222 1135.9 314.809Z" fill="#251D50"/>
<path d="M1264.09 316.512L1262.22 319.582L1260.3 318.401C1260.26 318.382 1260.24 318.354 1260.21 318.337L1247.26 310.424C1247.2 310.385 1247.13 310.362 1247.06 310.334C1246.71 310.188 1246.32 310.188 1245.97 310.334C1245.9 310.362 1245.83 310.385 1245.76 310.424L1232.81 318.337C1232.79 318.353 1232.77 318.38 1232.74 318.4L1230.81 319.582L1228.93 316.512L1246.52 305.75L1264.09 316.512ZM1258.02 341.865H1235V320.385L1246.52 313.338L1258.02 320.385V341.865ZM1245.76 302.837L1226.2 314.809C1225.53 315.222 1225.31 316.109 1225.72 316.785L1229.1 322.31C1229.31 322.636 1229.62 322.869 1230 322.958C1230.1 322.985 1230.22 322.998 1230.33 322.998C1230.59 322.998 1230.85 322.928 1231.09 322.786L1232.12 322.148V343.304C1232.12 344.1 1232.77 344.742 1233.57 344.742H1259.47C1260.26 344.742 1260.9 344.1 1260.9 343.304V322.148L1261.95 322.786C1262.27 322.985 1262.66 323.048 1263.04 322.958C1263.4 322.869 1263.73 322.636 1263.92 322.31L1267.3 316.785C1267.72 316.109 1267.5 315.222 1266.82 314.809L1247.27 302.837C1246.8 302.554 1246.23 302.554 1245.76 302.837Z" fill="#251D50"/>
<path d="M1108.4 394.378H1096.89V371.359H1108.4V394.378ZM1109.83 368.48H1095.45C1094.65 368.48 1094.01 369.124 1094.01 369.92V395.818C1094.01 396.611 1094.65 397.256 1095.45 397.256H1109.83C1110.63 397.256 1111.28 396.611 1111.28 395.818V369.92C1111.28 369.124 1110.63 368.48 1109.83 368.48Z" fill="#251D50"/>
<path d="M1131.41 394.378H1119.91V371.359H1131.41V394.378ZM1132.86 368.48H1118.47C1117.67 368.48 1117.03 369.124 1117.03 369.92V395.818C1117.03 396.611 1117.67 397.256 1118.47 397.256H1132.86C1133.65 397.256 1134.3 396.611 1134.3 395.818V369.92C1134.3 369.124 1133.65 368.48 1132.86 368.48Z" fill="#251D50"/>
<path d="M1265.22 394.378H1253.71V371.359H1265.22V394.378ZM1266.66 368.48H1252.27C1251.47 368.48 1250.83 369.124 1250.83 369.92V395.818C1250.83 396.611 1251.47 397.256 1252.27 397.256H1266.66C1267.45 397.256 1268.1 396.611 1268.1 395.818V369.92C1268.1 369.124 1267.45 368.48 1266.66 368.48Z" fill="#251D50"/>
<path d="M1242.2 394.378H1230.69V371.359H1242.2V394.378ZM1243.64 368.48H1229.25C1228.45 368.48 1227.82 369.124 1227.82 369.92V395.818C1227.82 396.611 1228.45 397.256 1229.25 397.256H1243.64C1244.43 397.256 1245.08 396.611 1245.08 395.818V369.92C1245.08 369.124 1244.43 368.48 1243.64 368.48Z" fill="#251D50"/>
<path d="M1235.1 352.656L1181.75 322.801C1181.32 322.554 1180.78 322.56 1180.35 322.804L1127.13 352.656H1074.52L1079.07 340.696L1096.44 295.106H1102.92H1115.6H1129.98H1232.13H1246.52H1265.67L1287.59 352.656H1235.1ZM1276.73 407.328H1218.46V356.534L1229.85 362.908C1230.55 363.293 1231.42 363.048 1231.81 362.353L1235.63 355.533H1276.73V407.328ZM1181.75 332.696C1181.32 332.45 1180.78 332.452 1180.35 332.697L1179.61 333.117L1144.39 352.84C1144.33 352.866 1144.3 352.914 1144.26 352.945L1132.2 359.708L1129.4 354.686L1181.05 325.708L1232.81 354.67L1230 359.694L1181.75 332.696ZM1215.58 407.328H1193.29V369.92C1193.29 369.125 1192.64 368.481 1191.84 368.481H1170.26C1169.47 368.481 1168.83 369.125 1168.83 369.92V407.328H1146.52V354.974L1181.05 335.601L1215.58 354.937V407.328ZM1190.41 407.328H1171.71V371.358H1190.41V407.328ZM1143.65 407.328H1085.38V355.533H1126.57L1130.4 362.37C1130.58 362.704 1130.9 362.949 1131.26 363.054C1131.39 363.089 1131.52 363.108 1131.65 363.108C1131.9 363.108 1132.14 363.045 1132.35 362.924L1143.65 356.588V407.328ZM1063.37 335.438C1062.98 335.232 1062.52 335.217 1062.11 335.4C1061.7 335.584 1061.41 335.942 1061.3 336.374C1053.72 367.796 1054.1 400.068 1054.3 407.328H1050.71C1050.74 406.285 1050.79 404.716 1050.88 402.701C1050.88 402.649 1050.88 402.598 1050.88 402.548C1050.84 380.036 1039.01 361.841 1037.15 359.122C1037.06 358.849 1036.88 358.6 1036.63 358.417C1036.01 357.968 1035.15 358.081 1034.67 358.673C1030.57 363.713 1024.49 366.602 1018.01 366.602C1006.43 366.602 996.813 357.177 996.569 345.589C996.559 345.102 996.3 344.652 995.885 344.394C991.263 341.549 988.501 336.625 988.501 331.225C988.501 322.697 995.44 315.757 1003.97 315.757C1009.31 315.757 1014.2 318.466 1017.05 323.008C1017.32 323.421 1017.77 323.673 1018.26 323.68C1029.96 323.81 1039.48 333.436 1039.48 345.133C1039.48 348.525 1038.69 351.79 1037.14 354.845C1036.79 355.526 1037.04 356.361 1037.7 356.744C1037.78 356.79 1037.87 356.828 1037.95 356.858C1039.4 358.638 1044.15 365.214 1049.59 380.545C1049.68 381.194 1050.21 381.717 1050.89 381.777C1051.69 381.846 1052.37 381.272 1052.45 380.482C1054.1 363.394 1056.6 347.876 1059.87 334.36C1060 333.802 1059.79 333.222 1059.34 332.876C1054.41 329.136 1050.74 323.822 1049 317.918C1048.81 317.257 1048.16 316.836 1047.48 316.894C1046.98 316.944 1046.48 316.97 1045.97 316.97C1037.74 316.97 1031.04 310.276 1031.04 302.046C1031.04 301.652 1031.07 301.265 1031.1 300.88C1031.15 300.35 1030.89 299.838 1030.44 299.553C1022.96 294.774 1018.5 286.63 1018.5 277.777C1018.5 263.533 1030.09 251.944 1044.33 251.944C1052.5 251.944 1060.02 255.69 1064.95 262.218C1065.21 262.564 1065.6 262.772 1066.03 262.789C1066.47 262.824 1066.89 262.632 1067.17 262.309C1070.43 258.669 1075.07 256.581 1079.92 256.581C1089.35 256.581 1097.03 264.254 1097.03 273.685C1097.03 277.421 1095.82 280.984 1093.55 283.985C1093.31 284.294 1093.22 284.685 1093.27 285.068C1093.33 285.452 1093.54 285.796 1093.85 286.022C1096.28 287.762 1098.4 289.85 1100.19 292.228H1095.45C1094.86 292.228 1094.32 292.596 1094.1 293.156L1076.72 338.78C1072.08 338.748 1067.46 337.597 1063.37 335.438ZM1128.54 292.228H1117.03V285.034H1128.54V292.228ZM1114.15 280.718H1131.41V282.157H1129.98H1115.6H1114.15V280.718ZM1245.08 292.228H1233.57V285.034H1245.08V292.228ZM1230.69 280.718H1247.95V282.157H1246.52H1232.13H1230.69V280.718ZM1279.61 407.328V355.533H1289.68C1289.85 355.533 1290.02 355.502 1290.19 355.44C1290.2 355.436 1290.21 355.429 1290.21 355.425C1290.32 355.382 1290.41 355.309 1290.5 355.241C1290.56 355.201 1290.63 355.17 1290.68 355.12C1290.75 355.054 1290.79 354.968 1290.84 354.89C1290.9 354.817 1290.95 354.752 1290.99 354.668C1291.03 354.602 1291.03 354.524 1291.05 354.452C1291.07 354.342 1291.11 354.234 1291.11 354.12C1291.11 354.109 1291.11 354.102 1291.11 354.093C1291.11 354.002 1291.08 353.925 1291.06 353.838C1291.05 353.753 1291.06 353.665 1291.02 353.582L1268 293.156C1267.8 292.596 1267.26 292.228 1266.66 292.228H1247.95V285.034H1249.4C1250.19 285.034 1250.83 284.392 1250.83 283.596V279.28C1250.83 278.485 1250.19 277.841 1249.4 277.841H1229.25C1228.45 277.841 1227.82 278.485 1227.82 279.28V283.596C1227.82 284.392 1228.45 285.034 1229.25 285.034H1230.69V292.228H1131.41V285.034H1132.86C1133.65 285.034 1134.3 284.392 1134.3 283.596V279.28C1134.3 278.485 1133.65 277.841 1132.86 277.841H1112.71C1111.92 277.841 1111.28 278.485 1111.28 279.28V283.596C1111.28 284.392 1111.92 285.034 1112.71 285.034H1114.15V292.228H1103.67C1101.75 289.288 1099.42 286.696 1096.67 284.54C1098.79 281.296 1099.9 277.572 1099.9 273.685C1099.9 262.666 1090.94 253.704 1079.92 253.704C1074.81 253.704 1069.9 255.682 1066.2 259.18C1060.74 252.732 1052.85 249.066 1044.33 249.066C1028.5 249.066 1015.62 261.946 1015.62 277.777C1015.62 287.333 1020.3 296.138 1028.18 301.505C1028.17 301.684 1028.17 301.865 1028.17 302.046C1028.17 311.861 1036.15 319.848 1045.97 319.848C1046.17 319.848 1046.38 319.844 1046.59 319.836C1048.52 325.585 1052.12 330.758 1056.86 334.584C1054.05 346.361 1051.83 359.604 1050.22 374.041C1045.61 362.402 1041.72 356.937 1040.22 355.082C1041.64 351.93 1042.36 348.589 1042.36 345.133C1042.36 332.124 1031.98 321.377 1019.06 320.824C1015.63 315.833 1010.04 312.88 1003.97 312.88C993.853 312.88 985.623 321.109 985.623 331.225C985.623 337.373 988.635 342.997 993.723 346.422C994.399 359.208 1005.14 369.48 1018.01 369.48C1024.7 369.48 1030.99 366.773 1035.57 361.988C1038.68 366.942 1048 383.389 1048 402.661V402.672C1047.91 404.72 1047.86 406.289 1047.83 407.328H994.495V410.204H1049.24H1055.78H1070.22C1070.29 409.245 1070.35 408.285 1070.41 407.328H1057.17C1056.98 400.561 1056.57 369.505 1063.68 338.796C1067.43 340.501 1071.51 341.464 1075.64 341.628L1071.09 353.582C1071.05 353.666 1071.05 353.754 1071.04 353.838C1071.02 353.925 1070.99 354.002 1070.99 354.093C1070.99 354.102 1071 354.109 1071 354.12C1071 354.236 1071.03 354.344 1071.06 354.454C1071.09 354.525 1071.09 354.602 1071.12 354.668C1071.15 354.752 1071.21 354.817 1071.27 354.892C1071.31 354.969 1071.35 355.054 1071.42 355.12C1071.47 355.17 1071.55 355.201 1071.6 355.241C1071.7 355.309 1071.79 355.382 1071.89 355.425C1071.91 355.429 1071.91 355.436 1071.92 355.44C1072.09 355.502 1072.26 355.533 1072.43 355.533H1082.5V407.328H1070.41C1070.35 408.285 1070.29 409.245 1070.22 410.204H1083.94H1145.09H1170.26H1191.84H1217.03H1278.17H1305.26V407.328H1279.61Z" fill="#251D50"/>
</g>
<mask id="mask3_1427_1525" style="mask-type:luminance" maskUnits="userSpaceOnUse" x="1305" y="114" width="402" height="329">
<path d="M1706.67 114.844H1305.26V442.874H1706.67V114.844Z" fill="white"/>
</mask>
<g mask="url(#mask3_1427_1525)">
<path d="M1505.96 408.884V296.662L1457.41 252.961L1408.85 296.662V408.884H1505.96Z" fill="white"/>
<path d="M1437.98 311.77H1417.48V343.062H1437.98V311.77Z" fill="#D1E3FF"/>
<path d="M1437.98 358.168H1417.48V389.46H1437.98V358.168Z" fill="#D1E3FF"/>
<path d="M1468.2 311.77H1447.69V343.062H1468.2V311.77Z" fill="#D1E3FF"/>
<path d="M1468.2 358.168H1447.69V389.46H1468.2V358.168Z" fill="#D1E3FF"/>
<path d="M1497.33 311.77H1476.83V343.062H1497.33V311.77Z" fill="#D1E3FF"/>
<path d="M1497.33 358.168H1476.83V389.46H1497.33V358.168Z" fill="#D1E3FF"/>
<path d="M1578.26 316.086H1505.96V408.885H1578.26V316.086Z" fill="white"/>
<path d="M1536.18 321.48H1514.6V352.772H1536.18V321.48Z" fill="#D1E3FF"/>
<path d="M1536.18 360.324H1514.6V391.616H1536.18V360.324Z" fill="#D1E3FF"/>
<path d="M1569.63 321.48H1548.05V352.772H1569.63V321.48Z" fill="#D1E3FF"/>
<path d="M1569.63 360.324H1548.05V398.091H1569.63V360.324Z" fill="#FF7426"/>
<path d="M1558.3 376.512C1560.98 376.512 1563.15 374.338 1563.15 371.656C1563.15 368.975 1560.98 366.801 1558.3 366.801C1555.62 366.801 1553.44 368.975 1553.44 371.656C1553.44 374.338 1555.62 376.512 1558.3 376.512Z" fill="#D1E3FF"/>
<path d="M1572.86 398.094H1544.81V403.488H1572.86V398.094Z" fill="#FF7426"/>
<path d="M1575.02 403.488H1542.65V408.883H1575.02V403.488Z" fill="#FF7426"/>
<path d="M1457.95 285.871C1463.01 285.871 1467.12 281.765 1467.12 276.699C1467.12 271.634 1463.01 267.527 1457.95 267.527C1452.88 267.527 1448.77 271.634 1448.77 276.699C1448.77 281.765 1452.88 285.871 1457.95 285.871Z" fill="#D1E3FF"/>
<path d="M1405.61 299.899L1400.22 295.583L1457.41 244.328L1514.06 295.043L1509.2 299.36L1457.41 252.96L1405.61 299.899Z" fill="#251D50"/>
<path d="M1584.19 260.512H1475.75L1514.06 295.581L1509.74 299.358L1506.5 297.2V316.082L1584.19 315.544V260.512Z" fill="#251D50"/>
<path d="M1655.95 368.957H1579.34V373.273H1655.95V368.957Z" fill="#FF7426"/>
<path d="M1408.85 368.957H1332.24V373.273H1408.85V368.957Z" fill="#FF7426"/>
<path d="M1655.95 395.934H1579.34V400.25H1655.95V395.934Z" fill="#FF7426"/>
<path d="M1408.85 395.934H1332.24V400.25H1408.85V395.934Z" fill="#FF7426"/>
<path d="M1583.65 360.324C1583.65 357.941 1585.59 356.008 1587.97 356.008C1590.36 356.008 1592.29 357.941 1592.29 360.324V408.881H1583.65V360.324Z" fill="#D1E3FF"/>
<path d="M1323.6 360.324C1323.6 357.941 1325.54 356.008 1327.92 356.008C1330.3 356.008 1332.24 357.941 1332.24 360.324V408.881H1323.6V360.324Z" fill="#D1E3FF"/>
<path d="M1598.76 360.324C1598.76 357.941 1600.69 356.008 1603.08 356.008C1605.46 356.008 1607.39 357.941 1607.39 360.324V408.881H1598.76V360.324Z" fill="#D1E3FF"/>
<path d="M1338.71 360.324C1338.71 357.941 1340.64 356.008 1343.03 356.008C1345.41 356.008 1347.34 357.941 1347.34 360.324V408.881H1338.71V360.324Z" fill="#D1E3FF"/>
<path d="M1612.79 360.324C1612.79 357.941 1614.72 356.008 1617.1 356.008C1619.49 356.008 1621.42 357.941 1621.42 360.324V408.881H1612.79V360.324Z" fill="#D1E3FF"/>
<path d="M1352.74 360.324C1352.74 357.941 1354.67 356.008 1357.05 356.008C1359.44 356.008 1361.37 357.941 1361.37 360.324V408.881H1352.74V360.324Z" fill="#D1E3FF"/>
<path d="M1626.82 360.324C1626.82 357.941 1628.75 356.008 1631.13 356.008C1633.52 356.008 1635.45 357.941 1635.45 360.324V408.881H1626.82V360.324Z" fill="#D1E3FF"/>
<path d="M1366.77 360.324C1366.77 357.941 1368.7 356.008 1371.08 356.008C1373.47 356.008 1375.4 357.941 1375.4 360.324V408.881H1366.77V360.324Z" fill="#D1E3FF"/>
<path d="M1641.92 360.324C1641.92 357.941 1643.85 356.008 1646.24 356.008C1648.62 356.008 1650.56 357.941 1650.56 360.324V408.881H1641.92V360.324Z" fill="#D1E3FF"/>
<path d="M1381.87 360.324C1381.87 357.941 1383.8 356.008 1386.19 356.008C1388.57 356.008 1390.51 357.941 1390.51 360.324V408.881H1381.87V360.324Z" fill="#D1E3FF"/>
<path d="M1655.95 360.324C1655.95 357.941 1657.88 356.008 1660.27 356.008C1662.65 356.008 1664.58 357.941 1664.58 360.324V408.881H1655.95V360.324Z" fill="#D1E3FF"/>
<path d="M1395.9 360.324C1395.9 357.941 1397.83 356.008 1400.22 356.008C1402.6 356.008 1404.53 357.941 1404.53 360.324V408.881H1395.9V360.324Z" fill="#D1E3FF"/>
<path d="M1527.13 335.349H1535.05V351.174H1527.13V335.349ZM1516.34 335.349H1524.26V351.174H1516.34V335.349ZM1535.05 332.47H1516.34V323.118H1535.05V332.47ZM1536.49 320.242H1514.91C1514.11 320.242 1513.47 320.885 1513.47 321.681V352.613C1513.47 353.408 1514.11 354.052 1514.91 354.052H1536.49C1537.29 354.052 1537.93 353.408 1537.93 352.613V321.681C1537.93 320.885 1537.29 320.242 1536.49 320.242Z" fill="#251D50"/>
<path d="M1527.13 374.193H1535.05V390.018H1527.13V374.193ZM1516.34 374.193H1524.26V390.018H1516.34V374.193ZM1535.05 371.315H1516.34V361.963H1535.05V371.315ZM1536.49 359.086H1514.91C1514.11 359.086 1513.47 359.73 1513.47 360.525V391.458C1513.47 392.251 1514.11 392.897 1514.91 392.897H1536.49C1537.29 392.897 1537.93 392.251 1537.93 391.458V360.525C1537.93 359.73 1537.29 359.086 1536.49 359.086Z" fill="#251D50"/>
<path d="M1568.14 332.47H1549.44V323.118H1568.14V332.47ZM1560.23 335.349H1568.14V351.174H1560.23V335.349ZM1549.44 335.349H1557.35V351.174H1549.44V335.349ZM1548 354.052H1569.58C1570.37 354.052 1571.02 353.408 1571.02 352.613V321.681C1571.02 320.885 1570.37 320.242 1569.58 320.242H1548C1547.21 320.242 1546.56 320.885 1546.56 321.681V352.613C1546.56 353.408 1547.21 354.052 1548 354.052Z" fill="#251D50"/>
<path d="M1419.23 328.875H1436.49V341.824H1419.23V328.875ZM1436.49 325.997H1419.23V313.048H1436.49V325.997ZM1440.81 341.824H1439.38V311.611C1439.38 310.815 1438.73 310.172 1437.94 310.172H1417.79C1417 310.172 1416.36 310.815 1416.36 311.611V341.824H1414.91C1414.13 341.824 1413.48 342.466 1413.48 343.261C1413.48 344.056 1414.13 344.701 1414.91 344.701H1417.79H1437.94H1440.81C1441.61 344.701 1442.26 344.056 1442.26 343.261C1442.26 342.466 1441.61 341.824 1440.81 341.824Z" fill="#251D50"/>
<path d="M1478.94 328.875H1496.21V341.824H1478.94V328.875ZM1496.21 325.997H1478.94V313.048H1496.21V325.997ZM1500.53 341.824H1499.08V311.611C1499.08 310.815 1498.44 310.172 1497.64 310.172H1477.5C1476.71 310.172 1476.06 310.815 1476.06 311.611V341.824H1474.63C1473.83 341.824 1473.18 342.466 1473.18 343.261C1473.18 344.056 1473.83 344.701 1474.63 344.701H1477.5H1497.64H1500.53C1501.31 344.701 1501.96 344.056 1501.96 343.261C1501.96 342.466 1501.31 341.824 1500.53 341.824Z" fill="#251D50"/>
<path d="M1449.09 328.875H1466.35V341.824H1449.09V328.875ZM1466.35 325.997H1449.09V313.048H1466.35V325.997ZM1470.67 341.824H1469.23V311.611C1469.23 310.815 1468.59 310.172 1467.79 310.172H1447.65C1446.85 310.172 1446.21 310.815 1446.21 311.611V341.824H1444.77C1443.97 341.824 1443.34 342.466 1443.34 343.261C1443.34 344.056 1443.97 344.701 1444.77 344.701H1447.65H1467.79H1470.67C1471.47 344.701 1472.1 344.056 1472.1 343.261C1472.1 342.466 1471.47 341.824 1470.67 341.824Z" fill="#251D50"/>
<path d="M1419.23 375.632H1436.49V388.58H1419.23V375.632ZM1436.49 372.755H1419.23V359.807H1436.49V372.755ZM1440.81 388.58H1439.38V358.367C1439.38 357.572 1438.73 356.93 1437.94 356.93H1417.79C1417 356.93 1416.36 357.572 1416.36 358.367V388.58H1414.91C1414.13 388.58 1413.48 389.224 1413.48 390.02C1413.48 390.815 1414.13 391.459 1414.91 391.459H1417.79H1437.94H1440.81C1441.61 391.459 1442.26 390.815 1442.26 390.02C1442.26 389.224 1441.61 388.58 1440.81 388.58Z" fill="#251D50"/>
<path d="M1478.94 375.632H1496.21V388.58H1478.94V375.632ZM1496.21 372.755H1478.94V359.807H1496.21V372.755ZM1500.53 388.58H1499.08V358.367C1499.08 357.572 1498.44 356.93 1497.64 356.93H1477.5C1476.71 356.93 1476.06 357.572 1476.06 358.367V388.58H1474.63C1473.83 388.58 1473.18 389.224 1473.18 390.02C1473.18 390.815 1473.83 391.459 1474.63 391.459H1477.5H1497.64H1500.53C1501.31 391.459 1501.96 390.815 1501.96 390.02C1501.96 389.224 1501.31 388.58 1500.53 388.58Z" fill="#251D50"/>
<path d="M1449.09 375.632H1466.35V388.58H1449.09V375.632ZM1466.35 372.755H1449.09V359.807H1466.35V372.755ZM1470.67 388.58H1469.23V358.367C1469.23 357.572 1468.59 356.93 1467.79 356.93H1447.65C1446.85 356.93 1446.21 357.572 1446.21 358.367V388.58H1444.77C1443.97 388.58 1443.34 389.224 1443.34 390.02C1443.34 390.815 1443.97 391.459 1444.77 391.459H1447.65H1467.79H1470.67C1471.47 391.459 1472.1 390.815 1472.1 390.02C1472.1 389.224 1471.47 388.58 1470.67 388.58Z" fill="#251D50"/>
<path d="M1456.28 268.71V274.679H1450.32C1450.9 271.669 1453.27 269.293 1456.28 268.71ZM1465.13 274.679H1459.15V268.71C1462.17 269.293 1464.54 271.669 1465.13 274.679ZM1459.15 283.526V277.557H1465.13C1464.54 280.567 1462.17 282.943 1459.15 283.526ZM1450.32 277.557H1456.28V283.526C1453.27 282.943 1450.9 280.567 1450.32 277.557ZM1457.72 286.549C1463.47 286.549 1468.15 281.87 1468.15 276.117C1468.15 270.366 1463.47 265.688 1457.72 265.688C1451.97 265.688 1447.29 270.366 1447.29 276.117C1447.29 281.87 1451.97 286.549 1457.72 286.549Z" fill="#251D50"/>
<path d="M1558.6 368.436C1560.18 368.436 1561.48 369.727 1561.48 371.315C1561.48 372.9 1560.18 374.191 1558.6 374.191C1557.01 374.191 1555.72 372.9 1555.72 371.315C1555.72 369.727 1557.01 368.436 1558.6 368.436ZM1558.6 377.069C1561.77 377.069 1564.35 374.488 1564.35 371.315C1564.35 368.14 1561.77 365.559 1558.6 365.559C1555.43 365.559 1552.85 368.14 1552.85 371.315C1552.85 374.488 1555.43 377.069 1558.6 377.069Z" fill="#251D50"/>
<path d="M1663.09 355.691C1662.25 355.193 1661.27 354.889 1660.22 354.889C1657.05 354.889 1654.46 357.471 1654.46 360.644V367.837H1651.59V360.644C1651.59 357.471 1649 354.889 1645.83 354.889C1642.66 354.889 1640.08 357.471 1640.08 360.644V367.837H1637.2V360.644C1637.2 357.471 1634.62 354.889 1631.45 354.889C1628.27 354.889 1625.69 357.471 1625.69 360.644V367.837H1622.81V360.644C1622.81 357.471 1620.23 354.889 1617.06 354.889C1613.89 354.889 1611.3 357.471 1611.3 360.644V367.837H1608.43V360.644C1608.43 357.471 1605.84 354.889 1602.67 354.889C1599.5 354.889 1596.92 357.471 1596.92 360.644V367.837H1594.04V360.644C1594.04 357.471 1591.46 354.889 1588.28 354.889C1585.11 354.889 1582.53 357.471 1582.53 360.644V367.837H1579.65V333.803C1583.98 330.655 1589.07 328.992 1594.46 328.992C1597.55 328.992 1600.6 329.556 1603.49 330.665C1604.15 330.919 1604.9 330.653 1605.25 330.032C1610.74 320.352 1621.05 314.34 1632.17 314.34C1649.22 314.34 1663.09 328.215 1663.09 345.273V355.691ZM1663.09 407.403H1657.34V400.209V395.893V373.592V369.276V360.644C1657.34 359.059 1658.64 357.767 1660.22 357.767C1661.81 357.767 1663.09 359.059 1663.09 360.644V407.403ZM1654.46 372.155H1651.59V370.715H1654.46V372.155ZM1654.46 394.453H1651.59V375.031H1654.46V394.453ZM1654.46 398.771H1651.59V397.332H1654.46V398.771ZM1654.46 407.403H1651.59V401.648H1654.46V407.403ZM1648.71 369.276V373.592V395.893V400.209V407.403H1642.96V400.209V395.893V373.592V369.276V360.644C1642.96 359.059 1644.24 357.767 1645.83 357.767C1647.42 357.767 1648.71 359.059 1648.71 360.644V369.276ZM1640.08 372.155H1637.2V370.715H1640.08V372.155ZM1640.08 394.453H1637.2V375.031H1640.08V394.453ZM1640.08 398.771H1637.2V397.332H1640.08V398.771ZM1640.08 407.403H1637.2V401.648H1640.08V407.403ZM1634.33 369.276V373.592V395.893V400.209V407.403H1628.57V400.209V395.893V373.592V369.276V360.644C1628.57 359.059 1629.86 357.767 1631.45 357.767C1633.03 357.767 1634.33 359.059 1634.33 360.644V369.276ZM1625.69 372.155H1622.81V370.715H1625.69V372.155ZM1625.69 394.453H1622.81V375.031H1625.69V394.453ZM1625.69 398.771H1622.81V397.332H1625.69V398.771ZM1625.69 407.403H1622.81V401.648H1625.69V407.403ZM1619.93 369.276V373.592V395.893V400.209V407.403H1614.18V400.209V395.893V373.592V369.276V360.644C1614.18 359.059 1615.48 357.767 1617.06 357.767C1618.65 357.767 1619.93 359.059 1619.93 360.644V369.276ZM1611.3 372.155H1608.43V370.715H1611.3V372.155ZM1611.3 394.453H1608.43V375.031H1611.3V394.453ZM1611.3 398.771H1608.43V397.332H1611.3V398.771ZM1611.3 407.403H1608.43V401.648H1611.3V407.403ZM1605.55 369.276V373.592V395.893V400.209V407.403H1599.8V400.209V395.893V373.592V369.276V360.644C1599.8 359.059 1601.08 357.767 1602.67 357.767C1604.25 357.767 1605.55 359.059 1605.55 360.644V369.276ZM1596.92 372.155H1594.04V370.715H1596.92V372.155ZM1596.92 394.453H1594.04V375.031H1596.92V394.453ZM1596.92 398.771H1594.04V397.332H1596.92V398.771ZM1596.92 407.403H1594.04V401.648H1596.92V407.403ZM1591.17 369.276V373.592V395.893V400.209V407.403H1585.4V400.209V395.893V373.592V369.276V360.644C1585.4 359.059 1586.7 357.767 1588.28 357.767C1589.87 357.767 1591.17 359.059 1591.17 360.644V369.276ZM1582.53 372.155H1579.65V370.715H1582.53V372.155ZM1582.53 394.453H1579.65V375.031H1582.53V394.453ZM1582.53 398.771H1579.65V397.332H1582.53V398.771ZM1582.53 407.403H1579.65V401.648H1582.53V407.403ZM1507.71 314.604V311.9L1509.11 313.04C1509.64 313.473 1510.4 313.473 1510.93 313.04L1515.3 309.471L1519.67 313.04C1520.2 313.473 1520.96 313.473 1521.49 313.04L1525.86 309.471L1530.23 313.04C1530.76 313.473 1531.53 313.473 1532.05 313.04L1536.43 309.471L1540.79 313.04C1541.32 313.473 1542.08 313.473 1542.62 313.04L1546.99 309.468L1551.36 313.04C1551.89 313.473 1552.64 313.473 1553.18 313.04L1557.54 309.468L1561.92 313.04C1562.45 313.473 1563.21 313.473 1563.74 313.04L1568.12 309.468L1572.49 313.04C1573.02 313.473 1573.77 313.473 1574.31 313.04L1578.68 309.468L1582.53 312.611V314.604H1578.22H1507.71ZM1576.77 333.08C1576.77 333.08 1576.77 333.081 1576.77 333.085V407.403H1576.06V403.805C1576.06 403.012 1575.41 402.368 1574.61 402.368H1573.9V398.052C1573.9 397.257 1573.25 396.612 1572.45 396.612H1571.02V360.644C1571.02 359.849 1570.37 359.205 1569.58 359.205H1548C1547.21 359.205 1546.56 359.849 1546.56 360.644V396.612H1545.12C1544.32 396.612 1543.69 397.257 1543.69 398.052V402.368H1542.96C1542.17 402.368 1541.53 403.012 1541.53 403.805V407.403H1507.71V317.481H1576.77V333.08ZM1549.44 362.083H1568.14V396.612H1549.44V362.083ZM1569.58 399.489H1571.02V402.368H1546.56V399.489H1548H1569.58ZM1573.18 407.403H1544.4V405.244H1545.12H1572.45H1573.18V407.403ZM1507.24 295.552L1458.68 251.672C1458.14 251.176 1457.3 251.176 1456.76 251.672L1408.2 295.552L1408.19 295.557L1405.14 298.324L1402.34 296.095L1457.72 246.045L1512.23 295.315L1509.44 297.544L1507.25 295.556L1507.24 295.552ZM1504.84 316.044V407.403H1410.6V400.209V395.893V373.592V369.276V297.261L1457.72 254.679L1504.84 297.26V316.044ZM1582.53 261.571V265.735L1579.6 263.335C1579.06 262.903 1578.3 262.903 1577.77 263.335L1573.39 266.908L1569.02 263.335C1568.49 262.903 1567.74 262.903 1567.2 263.335L1562.83 266.908L1558.46 263.335C1557.93 262.903 1557.16 262.903 1556.64 263.335L1552.27 266.905L1547.9 263.335C1547.37 262.903 1546.6 262.903 1546.07 263.335L1541.7 266.905L1537.34 263.335C1536.81 262.903 1536.05 262.903 1535.52 263.335L1531.15 266.908L1526.77 263.335C1526.24 262.903 1525.48 262.903 1524.95 263.335L1520.58 266.905L1516.21 263.335C1515.69 262.903 1514.92 262.903 1514.39 263.335L1510.02 266.908L1505.65 263.335C1505.11 262.899 1504.35 262.9 1503.82 263.347L1499.63 266.863L1495.71 263.375C1495.14 262.871 1494.28 262.891 1493.75 263.425L1490.44 266.693L1486.16 263.193C1485.7 262.819 1485.05 262.767 1484.54 263.055L1482.26 264.344L1479.19 261.571H1582.53ZM1582.53 272.927L1579.6 270.529C1579.06 270.096 1578.3 270.096 1577.77 270.529L1573.39 274.101L1569.02 270.529C1568.49 270.096 1567.74 270.096 1567.2 270.529L1562.83 274.101L1558.46 270.529C1557.93 270.096 1557.16 270.096 1556.64 270.529L1552.27 274.1L1547.9 270.529C1547.37 270.096 1546.6 270.096 1546.07 270.529L1541.7 274.1L1537.34 270.529C1536.81 270.096 1536.05 270.096 1535.52 270.529L1531.15 274.101L1526.77 270.529C1526.24 270.096 1525.48 270.096 1524.95 270.529L1520.58 274.1L1516.21 270.529C1515.69 270.096 1514.92 270.096 1514.39 270.529L1510.03 274.091L1505.81 270.54C1505.25 270.076 1504.44 270.093 1503.91 270.583L1500.11 274.068L1495.65 270.517C1495.14 270.108 1494.42 270.099 1493.89 270.492L1491.26 272.469L1484.51 266.379L1485.09 266.045L1489.62 269.74C1490.19 270.205 1491.02 270.168 1491.54 269.649L1494.81 266.42L1498.65 269.84C1499.18 270.313 1499.99 270.327 1500.53 269.867L1504.75 266.317L1509.11 269.879C1509.64 270.312 1510.4 270.312 1510.93 269.879L1515.3 266.308L1519.67 269.879C1520.2 270.312 1520.96 270.312 1521.49 269.879L1525.86 266.308L1530.23 269.879C1530.76 270.312 1531.53 270.312 1532.05 269.879L1536.43 266.308L1540.79 269.879C1541.32 270.312 1542.08 270.312 1542.62 269.879L1546.99 266.305L1551.36 269.879C1551.89 270.312 1552.64 270.312 1553.18 269.879L1557.54 266.305L1561.92 269.879C1562.45 270.312 1563.21 270.312 1563.74 269.879L1568.12 266.305L1572.49 269.879C1573.02 270.312 1573.77 270.312 1574.31 269.879L1578.68 266.305L1582.53 269.448V272.927ZM1582.53 280.121L1579.6 277.723C1579.06 277.289 1578.3 277.289 1577.77 277.723L1573.39 281.295L1569.02 277.723C1568.49 277.289 1567.74 277.289 1567.2 277.723L1562.83 281.295L1558.46 277.723C1557.93 277.289 1557.16 277.289 1556.64 277.723L1552.27 281.293L1547.9 277.723C1547.37 277.289 1546.6 277.289 1546.07 277.723L1541.7 281.293L1537.34 277.723C1536.81 277.289 1536.05 277.289 1535.52 277.723L1531.15 281.295L1526.77 277.723C1526.24 277.289 1525.48 277.289 1524.95 277.723L1520.58 281.293L1516.21 277.723C1515.69 277.289 1514.92 277.289 1514.39 277.723L1510.02 281.295L1505.65 277.723C1505.12 277.289 1504.36 277.289 1503.83 277.723L1500.28 280.625L1493.43 274.436L1494.73 273.461L1499.28 277.084C1499.83 277.524 1500.63 277.497 1501.15 277.019L1504.93 273.556L1509.09 277.061C1509.62 277.505 1510.4 277.508 1510.93 277.073L1515.3 273.501L1519.67 277.073C1520.2 277.505 1520.96 277.505 1521.49 277.073L1525.86 273.501L1530.23 277.073C1530.76 277.505 1531.53 277.505 1532.05 277.073L1536.43 273.501L1540.79 277.073C1541.32 277.505 1542.08 277.505 1542.62 277.073L1546.99 273.5L1551.36 277.073C1551.89 277.505 1552.64 277.505 1553.18 277.073L1557.54 273.5L1561.92 277.073C1562.45 277.505 1563.21 277.505 1563.74 277.073L1568.12 273.5L1572.49 277.073C1573.02 277.505 1573.77 277.505 1574.31 277.073L1578.68 273.5L1582.53 276.643V280.121ZM1582.53 287.315L1579.6 284.916C1579.06 284.484 1578.3 284.484 1577.77 284.916L1573.39 288.489L1569.02 284.916C1568.49 284.484 1567.74 284.484 1567.2 284.916L1562.83 288.489L1558.46 284.916C1557.93 284.484 1557.16 284.484 1556.64 284.916L1552.27 288.487L1547.9 284.916C1547.37 284.484 1546.6 284.484 1546.07 284.916L1541.7 288.487L1537.34 284.916C1536.81 284.484 1536.05 284.484 1535.52 284.916L1531.15 288.489L1526.77 284.916C1526.24 284.484 1525.48 284.484 1524.95 284.916L1520.58 288.487L1516.21 284.916C1515.69 284.484 1514.92 284.484 1514.39 284.916L1509.47 288.937L1502.43 282.577L1504.74 280.695L1509.11 284.265C1509.64 284.7 1510.4 284.7 1510.93 284.265L1515.3 280.695L1519.67 284.265C1520.2 284.7 1520.96 284.7 1521.49 284.265L1525.86 280.695L1530.23 284.265C1530.76 284.7 1531.53 284.7 1532.05 284.265L1536.43 280.695L1540.79 284.265C1541.32 284.7 1542.08 284.7 1542.62 284.265L1546.99 280.693L1551.36 284.265C1551.89 284.7 1552.64 284.7 1553.18 284.265L1557.54 280.693L1561.92 284.265C1562.45 284.7 1563.21 284.7 1563.74 284.265L1568.12 280.693L1572.49 284.265C1573.02 284.7 1573.77 284.7 1574.31 284.265L1578.68 280.693L1582.53 283.836V287.315ZM1582.53 294.508L1579.6 292.111C1579.06 291.676 1578.3 291.676 1577.77 292.111L1573.39 295.681L1569.02 292.111C1568.49 291.676 1567.74 291.676 1567.2 292.111L1562.83 295.681L1558.46 292.111C1557.93 291.676 1557.16 291.676 1556.64 292.111L1552.27 295.681L1547.9 292.111C1547.37 291.676 1546.6 291.676 1546.07 292.111L1541.7 295.681L1537.34 292.111C1536.81 291.676 1536.05 291.676 1535.52 292.111L1531.15 295.681L1526.77 292.111C1526.24 291.676 1525.48 291.676 1524.95 292.111L1520.58 295.681L1516.21 292.111C1515.67 291.671 1514.91 291.676 1514.37 292.124L1513.67 292.724L1511.63 290.889L1515.3 287.889L1519.67 291.46C1520.2 291.892 1520.96 291.892 1521.49 291.46L1525.86 287.889L1530.23 291.46C1530.76 291.892 1531.53 291.892 1532.05 291.46L1536.43 287.889L1540.79 291.46C1541.32 291.892 1542.08 291.892 1542.62 291.46L1546.99 287.887L1551.36 291.46C1551.89 291.892 1552.64 291.892 1553.18 291.46L1557.54 287.887L1561.92 291.46C1562.45 291.892 1563.21 291.892 1563.74 291.46L1568.12 287.887L1572.49 291.46C1573.02 291.892 1573.77 291.892 1574.31 291.46L1578.68 287.887L1582.53 291.029V294.508ZM1582.53 301.701L1579.6 299.303C1579.06 298.871 1578.3 298.871 1577.77 299.303L1573.39 302.876L1569.02 299.303C1568.49 298.871 1567.74 298.871 1567.2 299.303L1562.83 302.876L1558.46 299.303C1557.93 298.871 1557.16 298.871 1556.64 299.303L1552.27 302.875L1547.9 299.303C1547.37 298.871 1546.6 298.871 1546.07 299.303L1541.7 302.875L1537.34 299.303C1536.81 298.871 1536.05 298.871 1535.52 299.303L1531.15 302.876L1526.77 299.303C1526.24 298.871 1525.48 298.871 1524.95 299.303L1520.58 302.875L1516.21 299.303C1515.69 298.871 1514.92 298.871 1514.39 299.303L1510.02 302.876L1507.71 300.989V299.86L1508.42 300.499C1508.94 300.972 1509.74 300.995 1510.28 300.555L1515.35 296.505C1515.65 296.268 1515.83 295.919 1515.87 295.543L1519.67 298.653C1520.2 299.087 1520.96 299.087 1521.49 298.653L1525.86 295.083L1530.23 298.653C1530.76 299.087 1531.53 299.087 1532.05 298.653L1536.43 295.083L1540.79 298.653C1541.32 299.087 1542.08 299.087 1542.62 298.653L1546.99 295.081L1551.36 298.653C1551.89 299.087 1552.64 299.087 1553.18 298.653L1557.54 295.081L1561.92 298.653C1562.45 299.087 1563.21 299.087 1563.74 298.653L1568.12 295.081L1572.49 298.653C1573.02 299.087 1573.77 299.087 1574.31 298.653L1578.68 295.081L1582.53 298.223V301.701ZM1582.53 308.896L1579.6 306.497C1579.06 306.064 1578.3 306.064 1577.77 306.497L1573.39 310.071L1569.02 306.497C1568.49 306.064 1567.74 306.064 1567.2 306.497L1562.83 310.071L1558.46 306.497C1557.93 306.064 1557.16 306.064 1556.64 306.497L1552.27 310.068L1547.9 306.497C1547.37 306.064 1546.6 306.064 1546.07 306.497L1541.7 310.068L1537.34 306.497C1536.81 306.064 1536.05 306.064 1535.52 306.497L1531.15 310.071L1526.77 306.497C1526.24 306.064 1525.48 306.064 1524.95 306.497L1520.58 310.068L1516.21 306.497C1515.69 306.064 1514.92 306.064 1514.39 306.497L1510.02 310.071L1507.71 308.184V304.707L1509.11 305.847C1509.64 306.28 1510.4 306.28 1510.93 305.847L1515.3 302.276L1519.67 305.847C1520.2 306.28 1520.96 306.28 1521.49 305.847L1525.86 302.276L1530.23 305.847C1530.76 306.28 1531.53 306.28 1532.05 305.847L1536.43 302.276L1540.79 305.847C1541.32 306.28 1542.08 306.28 1542.62 305.847L1546.99 302.275L1551.36 305.847C1551.89 306.28 1552.64 306.28 1553.18 305.847L1557.54 302.275L1561.92 305.847C1562.45 306.28 1563.21 306.28 1563.74 305.847L1568.12 302.275L1572.49 305.847C1573.02 306.28 1573.77 306.28 1574.31 305.847L1578.68 302.275L1582.53 305.417V308.896ZM1407.73 367.837H1404.85V360.644C1404.85 357.471 1402.27 354.889 1399.09 354.889C1395.92 354.889 1393.33 357.471 1393.33 360.644V367.837H1390.46V360.644C1390.46 357.471 1387.87 354.889 1384.7 354.889C1381.53 354.889 1378.95 357.471 1378.95 360.644V367.837H1376.07V360.644C1376.07 357.471 1373.49 354.889 1370.32 354.889C1367.14 354.889 1364.57 357.471 1364.57 360.644V367.837H1361.68V360.644C1361.68 357.471 1359.11 354.889 1355.93 354.889C1352.76 354.889 1350.17 357.471 1350.17 360.644V367.837H1347.3V360.644C1347.3 357.471 1344.71 354.889 1341.54 354.889C1338.37 354.889 1335.79 357.471 1335.79 360.644V367.837H1332.91V360.644C1332.91 357.471 1330.33 354.889 1327.15 354.889C1326.11 354.889 1325.13 355.193 1324.27 355.691V345.417C1324.27 336.296 1331.7 328.872 1340.83 328.872C1342.69 328.872 1344.54 329.187 1346.3 329.804C1346.75 329.961 1347.24 329.888 1347.61 329.612C1348 329.336 1348.22 328.889 1348.21 328.419L1348.2 328.008C1348.2 316.9 1357.24 307.865 1368.34 307.865C1376.95 307.865 1384.61 313.343 1387.4 321.496C1387.57 321.984 1387.98 322.345 1388.49 322.444C1388.99 322.544 1389.51 322.363 1389.85 321.972C1392.32 319.119 1395.89 317.481 1399.65 317.481C1402.59 317.481 1405.43 318.496 1407.73 320.332V367.837ZM1407.73 372.155H1404.85V370.715H1407.73V372.155ZM1407.73 394.453H1404.85V375.031H1407.73V394.453ZM1407.73 398.771H1404.85V397.332H1407.73V398.771ZM1407.73 407.403H1404.85V401.648H1407.73V407.403ZM1401.97 369.276V373.592V395.893V400.209V407.403H1396.21V400.209V395.893V373.592V369.276V360.644C1396.21 359.059 1397.51 357.767 1399.09 357.767C1400.68 357.767 1401.97 359.059 1401.97 360.644V369.276ZM1393.33 372.155H1390.46V370.715H1393.33V372.155ZM1393.33 394.453H1390.46V375.031H1393.33V394.453ZM1393.33 398.771H1390.46V397.332H1393.33V398.771ZM1393.33 407.403H1390.46V401.648H1393.33V407.403ZM1387.58 369.276V373.592V395.893V400.209V407.403H1381.83V400.209V395.893V373.592V369.276V360.644C1381.83 359.059 1383.11 357.767 1384.7 357.767C1386.29 357.767 1387.58 359.059 1387.58 360.644V369.276ZM1378.95 372.155H1376.07V370.715H1378.95V372.155ZM1378.95 394.453H1376.07V375.031H1378.95V394.453ZM1378.95 398.771H1376.07V397.332H1378.95V398.771ZM1378.95 407.403H1376.07V401.648H1378.95V407.403ZM1373.2 369.276V373.592V395.893V400.209V407.403H1367.43V400.209V395.893V373.592V369.276V360.644C1367.43 359.059 1368.73 357.767 1370.32 357.767C1371.9 357.767 1373.2 359.059 1373.2 360.644V369.276ZM1364.57 372.155H1361.68V370.715H1364.57V372.155ZM1364.57 394.453H1361.68V375.031H1364.57V394.453ZM1364.57 398.771H1361.68V397.332H1364.57V398.771ZM1364.57 407.403H1361.68V401.648H1364.57V407.403ZM1358.8 369.276V373.592V395.893V400.209V407.403H1353.05V400.209V395.893V373.592V369.276V360.644C1353.05 359.059 1354.35 357.767 1355.93 357.767C1357.52 357.767 1358.8 359.059 1358.8 360.644V369.276ZM1350.17 372.155H1347.3V370.715H1350.17V372.155ZM1350.17 394.453H1347.3V375.031H1350.17V394.453ZM1350.17 398.771H1347.3V397.332H1350.17V398.771ZM1350.17 407.403H1347.3V401.648H1350.17V407.403ZM1344.42 369.276V373.592V395.893V400.209V407.403H1338.67V400.209V395.893V373.592V369.276V360.644C1338.67 359.059 1339.95 357.767 1341.54 357.767C1343.12 357.767 1344.42 359.059 1344.42 360.644V369.276ZM1335.79 372.155H1332.91V370.715H1335.79V372.155ZM1335.79 394.453H1332.91V375.031H1335.79V394.453ZM1335.79 398.771H1332.91V397.332H1335.79V398.771ZM1335.79 407.403H1332.91V401.648H1335.79V407.403ZM1330.03 369.276V373.592V395.893V400.209V407.403H1324.27V360.644C1324.27 359.059 1325.57 357.767 1327.15 357.767C1328.74 357.767 1330.03 359.059 1330.03 360.644V369.276ZM1686.5 407.403H1665.98V360.644V345.273C1665.98 326.629 1650.8 311.461 1632.17 311.461C1620.43 311.461 1609.51 317.601 1603.37 327.565C1600.5 326.603 1597.5 326.115 1594.46 326.115C1589.15 326.115 1584.09 327.581 1579.65 330.352V317.481H1583.97C1584.77 317.481 1585.4 316.839 1585.4 316.044V260.133C1585.4 259.337 1584.77 258.695 1583.97 258.695H1476.01L1458.68 243.04C1458.14 242.544 1457.3 242.544 1456.76 243.04L1399.15 295.093C1398.84 295.377 1398.66 295.784 1398.68 296.204C1398.69 296.627 1398.89 297.023 1399.22 297.285L1404.3 301.335C1404.55 301.545 1404.88 301.649 1405.19 301.649C1405.54 301.649 1405.88 301.525 1406.15 301.279L1407.73 299.86V316.827C1405.3 315.383 1402.5 314.604 1399.65 314.604C1395.81 314.604 1392.16 315.993 1389.3 318.472C1385.59 310.323 1377.43 304.988 1368.34 304.988C1356.15 304.988 1346.13 314.525 1345.37 326.533C1343.88 326.176 1342.36 325.995 1340.83 325.995C1330.11 325.995 1321.4 334.708 1321.4 345.417V360.644V407.403H1305.26V410.28H1322.84H1331.47H1337.22H1345.85H1351.62H1360.25H1366H1374.63H1380.38H1389.02H1394.78H1403.41H1409.16H1506.28H1542.96H1574.61H1578.22H1583.97H1592.6H1598.35H1606.98H1612.75H1621.38H1627.13H1635.76H1641.51H1650.15H1655.91H1664.54H1686.5C1687.29 410.28 1687.93 409.637 1687.93 408.841C1687.93 408.048 1687.29 407.403 1686.5 407.403Z" fill="#251D50"/>
</g>
</g>
<defs>
<clipPath id="clip0_1427_1525">
<rect width="1706.67" height="442.875" fill="white"/>
</clipPath>
</defs>
</svg>
