<svg width="298" height="126" viewBox="0 0 298 126" fill="none" xmlns="http://www.w3.org/2000/svg">
<mask id="path-1-inside-1_2549_58016" fill="white">
<path d="M157.554 105.543V108.012H160.024C159.879 107.413 159.572 106.866 159.137 106.43C158.701 105.994 158.153 105.687 157.554 105.543Z"/>
</mask>
<path d="M157.554 105.543L158.023 103.599L155.554 103.003V105.543H157.554ZM157.554 108.012H155.554V110.012H157.554V108.012ZM160.024 108.012V110.012H162.564L161.968 107.544L160.024 108.012ZM155.554 105.543V108.012H159.554V105.543H155.554ZM157.554 110.012H160.024V106.012H157.554V110.012ZM161.968 107.544C161.737 106.587 161.247 105.712 160.551 105.016L157.723 107.844C157.898 108.02 158.022 108.24 158.08 108.481L161.968 107.544ZM160.551 105.016C159.855 104.32 158.98 103.83 158.023 103.599L157.086 107.487C157.327 107.545 157.547 107.669 157.723 107.844L160.551 105.016Z" fill="white" mask="url(#path-1-inside-1_2549_58016)"/>
<mask id="path-3-inside-2_2549_58016" fill="white">
<path d="M153.517 108.012H155.987V105.543C155.388 105.687 154.84 105.994 154.404 106.43C153.969 106.866 153.662 107.413 153.517 108.012Z"/>
</mask>
<path d="M153.517 108.012L151.573 107.544L150.977 110.012H153.517V108.012ZM155.987 108.012V110.012H157.987V108.012H155.987ZM155.987 105.543H157.987V103.003L155.518 103.599L155.987 105.543ZM153.517 110.012H155.987V106.012H153.517V110.012ZM157.987 108.012V105.543H153.987V108.012H157.987ZM155.518 103.599C154.561 103.829 153.686 104.32 152.99 105.016L155.819 107.844C155.994 107.669 156.214 107.545 156.456 107.487L155.518 103.599ZM152.99 105.016C152.294 105.712 151.804 106.587 151.573 107.544L155.461 108.481C155.52 108.24 155.643 108.02 155.819 107.844L152.99 105.016Z" fill="white" mask="url(#path-3-inside-2_2549_58016)"/>
<mask id="path-5-inside-3_2549_58016" fill="white">
<path d="M157.554 112.051C158.154 111.908 158.703 111.601 159.139 111.165C159.575 110.729 159.881 110.181 160.024 109.581H157.554V112.051Z"/>
</mask>
<path d="M157.554 112.051H155.554V114.583L158.018 113.996L157.554 112.051ZM160.024 109.581L161.969 110.045L162.556 107.581H160.024V109.581ZM157.554 109.581V107.581H155.554V109.581H157.554ZM158.018 113.996C158.978 113.767 159.855 113.277 160.553 112.579L157.724 109.751C157.55 109.925 157.331 110.048 157.091 110.105L158.018 113.996ZM160.553 112.579C161.25 111.882 161.741 111.004 161.969 110.045L158.078 109.117C158.021 109.357 157.899 109.577 157.724 109.751L160.553 112.579ZM160.024 107.581H157.554V111.581H160.024V107.581ZM155.554 109.581V112.051H159.554V109.581H155.554Z" fill="white" mask="url(#path-5-inside-3_2549_58016)"/>
<mask id="path-7-inside-4_2549_58016" fill="white">
<path d="M155.987 112.051V109.581H153.517C153.66 110.181 153.966 110.729 154.402 111.165C154.838 111.601 155.387 111.908 155.987 112.051Z"/>
</mask>
<path d="M155.987 112.051L155.523 113.996L157.987 114.583V112.051H155.987ZM155.987 109.581H157.987V107.581H155.987V109.581ZM153.517 109.581V107.581H150.985L151.572 110.045L153.517 109.581ZM157.987 112.051V109.581H153.987V112.051H157.987ZM155.987 107.581H153.517V111.581H155.987V107.581ZM151.572 110.045C151.8 111.004 152.291 111.882 152.988 112.579L155.817 109.751C155.642 109.577 155.52 109.357 155.463 109.117L151.572 110.045ZM152.988 112.579C153.686 113.277 154.563 113.767 155.523 113.996L156.45 110.105C156.21 110.048 155.991 109.925 155.817 109.751L152.988 112.579Z" fill="white" mask="url(#path-7-inside-4_2549_58016)"/>
<path d="M109.156 56.7222H108.024V53.9633H117.921V56.7372H116.79H115.79V57.7372V64.7179V67.3157L117.532 65.3884L133.254 47.9919L177.547 92.6244L177.675 92.7529L177.839 92.8286L208.696 107.013H206.743H205.743V108.013V125.298H99.5198V98.2815L104.157 92.905H165.279L170.613 98.4951L170.908 98.8048H171.336H175.915H178.251L176.639 97.1144L133.854 52.273L133.086 51.4686L132.368 52.3167L94.7113 96.7431L89.2 96.8132L109.898 73.9001L110.156 73.6146V73.2298V57.7222V56.7222H109.156ZM111.28 116.834H112.277L112.28 115.838L112.318 104.759L112.321 103.755H111.318H105.358H104.358V104.755V115.834V116.834H105.358H111.28ZM124.919 116.834H125.919V115.834V104.755V103.755H124.919H118.951H117.951V104.755V115.834V116.834H118.951H124.919ZM138.557 116.834H139.557V115.834V104.755V103.755H138.557H132.59H131.59V104.755V115.834V116.834H132.59H138.557ZM149.485 123.07V124.07H150.485H163.057H164.057V123.07V109.351C164.088 108.379 163.925 107.41 163.576 106.502C163.225 105.589 162.694 104.756 162.014 104.052C161.334 103.348 160.52 102.788 159.619 102.406C158.718 102.024 157.749 101.827 156.771 101.827C155.792 101.827 154.824 102.024 153.923 102.406C153.022 102.788 152.208 103.348 151.528 104.052C150.848 104.756 150.317 105.589 149.966 106.502C149.617 107.41 149.453 108.379 149.485 109.351V123.07ZM184.224 116.834H185.224V115.834V104.755V103.755H184.224H178.257H177.257V104.755V115.834V116.834H178.257H184.224Z" stroke="white" stroke-width="2"/>
<path d="M124.426 73.9672L124.332 74.2672C124.057 75.1466 123.918 76.0628 123.919 76.9843M123.919 76.9843C123.919 76.9842 123.919 76.9841 123.919 76.984L124.919 76.9829L123.919 76.9843Z" stroke="white" stroke-width="2"/>
<path d="M80.1759 24.3477L80.1758 24.3477L67.3403 18.6355L66.7469 18.3714V17.7219V11.1257H64.9939V16.0631V17.6035L63.5868 16.9765L41.205 7.00196L27.643 13.036L26.2365 13.6618V12.1224V3.5729V2.5729H27.2365H27.3924V1H21.1958V2.5729H21.3517H22.3517V3.5729V14.742V15.3913L21.7585 15.6555L2.24268 24.3475L2.2423 24.3477C1.73511 24.5734 1.33832 24.9912 1.13924 25.5094L0.205758 25.1508L1.13924 25.5094C0.94015 26.0276 0.955071 26.6037 1.18072 27.1109L0.267056 27.5174L1.18072 27.1109C1.40636 27.6181 1.82425 28.0149 2.34244 28.214C2.86063 28.413 3.4367 28.3981 3.9439 28.1725L40.7983 11.7494L41.2053 11.568L41.6123 11.7494L78.4743 28.1725L80.1759 24.3477ZM80.1759 24.3477C80.427 24.4594 80.6537 24.6195 80.8429 24.8189C81.0322 25.0182 81.1804 25.2529 81.2789 25.5094C81.3775 25.766 81.4246 26.0395 81.4175 26.3143C81.4103 26.5891 81.3492 26.8598 81.2375 27.1109C81.1257 27.362 80.9656 27.5887 80.7663 27.778C80.567 27.9672 80.3323 28.1154 80.0757 28.214C79.8191 28.3125 79.5457 28.3596 79.2709 28.3525C78.9963 28.3454 78.7257 28.2843 78.4748 28.1727L80.1759 24.3477Z" stroke="white" stroke-width="2"/>
<path d="M6.73853 89.749V79.8594H76.3167V89.749H6.73853Z" stroke="white" stroke-width="2"/>
<path d="M24.1192 44.2461V44.4371V45.2461V50.9432V51.9432H25.1192H28.3919H28.9982H29.3919H29.9982H33.2708H34.2708V50.9432V45.2461V44.4597V44.2461V43.4597V38.6107V37.6107H33.2708H29.9982H29.3919H28.9982H28.3919H25.1192H24.1192V38.6107V43.4371V44.2461ZM10.0845 43.8783H9.08734L9.08451 44.8755L9.07699 47.5176L9.07414 48.5205H10.077H11.7867V50.7464H10.0845H9.08734L9.08451 51.7436L9.07699 54.3857L9.07414 55.3885H10.077H16.292H17.292V54.3885V51.9808H19.0017H20.0017V50.9808V48.3386V47.3386H19.0017H17.292V44.8783V43.8783H16.292H10.0845ZM10.0845 62.1707H9.08734L9.08451 63.1678L9.07699 65.81L9.07414 66.8128H10.077H11.7867V69.0688H10.077H9.07699V70.0688V72.7109V73.7109H10.077H16.292H17.292V72.7109V70.2806H19.0017H20.0017V69.2806V66.6385V65.6385H19.0017H17.292V63.1707V62.1707H16.292H10.0845ZM35.5152 56.7396H36.5123L36.5152 55.7425L36.5227 53.1003L36.5255 52.0975H35.5227H22.8674H21.8674V53.0975V55.7396V56.7396H22.8674H35.5152ZM62.9049 47.3386H61.9049V48.3386V50.9432V51.9432H62.9049H64.6221V54.4186V55.4186H65.6221H71.8372H72.8372V54.4186V51.7764V50.7764H71.8372H70.12V48.5505H71.8372H72.8372V47.5505V44.9083V43.9083H71.8372H65.6221H64.6221V44.9083V47.3386H62.9049ZM47.6734 43.4371V44.2761H47.6433V45.2761V50.9432V51.9432H48.6433H51.916H52.5651H52.916H53.5598H56.825H57.825V50.9432V45.2761V44.4371V44.2761V43.4371V38.6107V37.6107H56.825H53.5598H52.946V37.5813L51.9391 37.5882L48.6665 37.6107L47.6734 37.6176V38.6107V43.4371ZM59.0768 56.6871H60.0768V55.6871V53.045V52.045H59.0768H46.4215H45.4215V53.045V55.6871V56.6871H46.4215H59.0768ZM62.9124 65.586H61.9124V66.586V69.2281V70.2281H62.9124H64.6221V72.7109V73.7109H65.6221H71.8372H72.8372V72.7109V70.0688V69.0688H71.8372H70.1275V66.8429H71.8372H72.8372V65.8429V63.2007V62.2007H71.8372H65.6221H64.6221V63.2007V65.586H62.9124ZM73.7796 33.2254V75.8618H8.64502V33.2254L41.2123 18.7332L73.7796 33.2254Z" stroke="white" stroke-width="2"/>
<path d="M16.0218 97.39H15.0218V98.39V118.309H8.64502V93.7754H73.7946V118.309H38.3091V98.39V97.39H37.3091H16.0218ZM63.1902 101.248H62.1902V102.248V112.997V113.997H63.1902H67.6938H68.6938V112.997V102.248V101.248H67.6938H63.1902ZM53.1845 101.248H52.1845V102.248V112.997V113.997H53.1845H57.6882H58.6882V112.997V102.248V101.248H57.6882H53.1845ZM43.1939 101.248H42.1939V102.248V112.997V113.997H43.1939H47.6976H48.6976V112.997V102.248V101.248H47.6976H43.1939Z" stroke="white" stroke-width="2"/>
<path d="M37.3091 124.303H38.3091V123.303V121.751H73.7796V124.892H8.64502V121.751H15.0819V123.303V124.303H16.0819H18.8141H19.8141V123.303V102.077H33.5769V123.303V124.303H34.5769H37.3091ZM24.4777 106.684L25.3091 106.129L24.4777 106.684C24.7212 107.049 25.0672 107.333 25.4722 107.501C25.8771 107.668 26.3226 107.712 26.7525 107.627C27.1824 107.541 27.5772 107.33 27.8871 107.02C28.1971 106.71 28.4081 106.315 28.4936 105.886L27.5128 105.69L28.4936 105.886C28.5791 105.456 28.5352 105.01 28.3675 104.605C28.1998 104.2 27.9157 103.854 27.5513 103.611C27.1869 103.367 26.7585 103.237 26.3202 103.237C25.7325 103.237 25.1688 103.471 24.7532 103.886C24.3377 104.302 24.1042 104.865 24.1042 105.453C24.1042 105.892 24.2342 106.32 24.4777 106.684Z" stroke="white" stroke-width="2"/>
<path d="M221.98 96.9408V95.9408H220.98H219.177L224.437 80.4141H289.985L295.724 95.9408H293.767H292.767V96.9408V125.402H292.057V96.9408V95.9408H291.057H289.06H288.06V96.9408V125.41H273.389V96.9408V95.9408H272.389H270.693H269.693V96.9408V125.41H268.983V96.9408V95.9408H267.983H266.287H265.287V96.9408V125.41H226.296V96.9408V95.9408H225.296H223.682H222.682V96.9408V125.402H221.98V96.9408ZM261.911 108.532H262.911V107.532V104.117V103.117H261.911H258.563H257.563V104.117V107.532V108.532H258.563H261.911ZM257.371 108.521V107.532V104.117V103.117H256.371H253.024H252.024V104.117V107.532V108.521V108.532V109.521V117.027V118.027H253.024H256.371H257.371V117.027V109.521V108.532V108.521ZM234.925 124.09V125.09H235.925H248.302H249.302V124.09V103.974V103.372L248.771 103.091L246.917 102.107C245.435 101.321 243.783 100.91 242.106 100.91C240.429 100.91 238.777 101.321 237.295 102.107L237.292 102.109L235.453 103.092L234.925 103.375V103.974V124.09ZM257.563 117.057V118.057H258.563H261.911H262.911V117.057V109.551V108.551H261.911H258.563H257.563V109.551V117.057Z" stroke="white" stroke-width="2"/>
<path d="M280.978 67.6427H281.855H282.855V68.6427V70.1439V71.1439H281.855H272.352H271.352V70.1439V68.6427V67.6427H272.352H273.229V67.2916L273.229 60.2163C273.229 60.2159 273.229 60.2154 273.229 60.215V60.2133H274.229L280.978 67.6427ZM280.978 67.6427V67.2916L280.978 60.2164M280.978 67.6427L280.978 60.2164M280.978 60.2164C280.978 60.2159 280.978 60.2155 280.978 60.215V60.2133L280.978 60.2164ZM261.035 67.6427H261.911H262.911V68.6427V70.1439V71.1439H261.911H252.408H251.408V70.1439V68.6427V67.6427H252.408H253.277V67.2916V60.2133C253.277 59.2812 253.648 58.3873 254.307 57.7282C254.966 57.0691 255.86 56.6988 256.792 56.6988H257.543H257.549C258.477 56.7044 259.365 57.0778 260.019 57.7371C260.672 58.3962 261.037 59.2872 261.035 60.215V60.2133V67.6427ZM261.035 67.6427V67.2916L261.035 60.2164L261.035 67.6427ZM289.023 55.0775H288.023V56.0775V75.419H226.295L226.274 56.0463L226.273 55.0475H225.274H219.162L224.422 39.5207H229.71H230.71V38.5207V32.1705V31.1705H229.757V29.8829H236.216V31.1405H235.263V32.1405V38.5207V39.5207H236.263H242.523H243.523V38.5207V36.1413V35.1413H242.69V34.972H243.523V33.972V31.5626V30.5626H242.69V30.4008H243.493V29.4008V25.7695H244.495V29.4008V30.4008H245.314V30.5626H244.495V31.5626V33.972V34.972H245.314V35.1413H244.495V36.1413V38.5207V39.5207H245.495H279.948H280.948V38.5207V36.1413V35.1413H280.115V34.972H280.948V33.972V31.5626V30.5626H280.115V30.4008H280.948V29.4008V25.7695H281.951V29.4008V30.4008H282.776V30.5626H281.951V31.5626V33.972V34.972H282.776V35.1413H281.951V36.1413V38.5207V39.5207H282.951H289.985L295.725 55.0775H289.023ZM241.091 67.6427V67.2916V60.2133C241.091 59.2867 240.725 58.3975 240.073 57.7393C239.42 57.0811 238.535 56.7071 237.608 56.6988V56.6988H237.599H236.848C235.916 56.6988 235.022 57.0691 234.363 57.7282C233.704 58.3873 233.334 59.2812 233.334 60.2133V67.2916V67.6427H232.457H231.457V68.6427V70.1439V71.1439H232.457H241.967H242.967V70.1439V68.6427V67.6427H241.967H241.091Z" stroke="white" stroke-width="2"/>
<path d="M242.268 105.755L242.27 105.755C242.593 105.754 242.913 105.817 243.211 105.941C243.51 106.064 243.781 106.245 244.01 106.473C244.238 106.702 244.419 106.973 244.542 107.272C244.666 107.57 244.729 107.89 244.728 108.213V108.215C244.728 108.702 244.584 109.177 244.313 109.582C244.043 109.987 243.659 110.302 243.209 110.488C242.76 110.674 242.265 110.723 241.788 110.628C241.31 110.533 240.872 110.299 240.528 109.955C240.184 109.611 239.95 109.172 239.855 108.695C239.76 108.218 239.808 107.723 239.995 107.274C240.181 106.824 240.496 106.44 240.901 106.17C241.305 105.899 241.781 105.755 242.268 105.755ZM245.145 110.138C245.525 109.569 245.728 108.9 245.728 108.215C245.729 107.761 245.64 107.31 245.467 106.89C245.293 106.47 245.038 106.088 244.717 105.766C244.395 105.445 244.013 105.19 243.593 105.016C243.173 104.843 242.722 104.754 242.268 104.755C241.583 104.755 240.914 104.958 240.345 105.338C239.776 105.718 239.333 106.259 239.071 106.891C238.809 107.523 238.74 108.219 238.874 108.89C239.007 109.562 239.337 110.178 239.821 110.662C240.305 111.146 240.921 111.476 241.593 111.609C242.264 111.743 242.96 111.674 243.592 111.412C244.224 111.15 244.765 110.707 245.145 110.138Z" stroke="white" stroke-width="2"/>
</svg>
