<svg width="53" height="56" viewBox="0 0 53 56" fill="none" xmlns="http://www.w3.org/2000/svg">
<path d="M43.0044 15.1104C43.0044 11.9069 39.5798 9.6973 36.6522 11.0228C33.5591 12.4039 33.0621 16.6015 35.7687 18.645C36.0447 17.927 36.2107 17.1534 36.2657 16.3804C36.3207 15.7174 36.0447 15.0549 36.3207 14.3368C36.6522 13.3978 37.5912 12.7903 38.5853 12.7903C39.5794 12.7903 40.4633 13.5083 40.7394 14.4473C40.9604 15.1654 40.7944 16.0494 40.7394 16.7675C40.6289 17.596 40.4633 18.4245 40.2423 19.198C41.8443 18.59 43.0044 16.9329 43.0044 15.1104H43.0044Z"/>
<path d="M39.6347 15.1103C39.6347 22.6221 33.5591 29.0296 26.0469 29.471C23.8374 29.5815 21.5728 29.1395 19.5293 28.2559C19.9713 27.9799 20.4128 27.6484 20.7998 27.2619C20.9653 27.0964 21.1313 26.9304 21.2968 26.8199C21.4073 26.7094 21.4073 26.6544 21.5728 26.6544C21.6833 26.6544 21.9043 26.7649 22.0148 26.8199C23.0089 27.0959 24.0034 27.2619 24.9974 27.2619C27.041 27.3169 29.085 26.8199 30.9076 25.8809C34.0562 24.2238 36.3758 21.1857 37.1492 17.6507C37.2597 17.0431 37.3702 16.4356 37.3702 15.8282C37.4253 15.3861 37.2597 14.6681 37.5912 14.2816C38.3093 13.5636 39.6349 14.0606 39.6349 15.1102L39.6347 15.1103Z"/>
<path d="M52.1728 9.19937C49.1902 7.15576 46.2077 5.11179 43.1696 3.12368C41.8441 2.24015 40.5735 1.30117 39.2479 0.472643C38.5849 0.030637 38.0329 0.25164 37.4804 0.638158C36.5413 1.24568 35.6578 1.85325 34.7188 2.51619C31.9572 4.39421 29.1401 6.27224 26.3785 8.20531C25.8815 8.53681 25.3289 8.86832 24.832 9.25484C24.169 9.75186 24.169 10.8568 25.053 11.1879C25.4395 11.3534 25.992 11.2429 26.3785 11.2429H27.207C27.3175 11.2429 27.704 11.1879 27.8145 11.2429C27.8696 11.2979 27.8145 11.3534 27.8696 11.4639C27.9801 12.0714 27.8696 12.7894 27.8696 13.397V25.6035V25.8795C28.4771 25.714 29.4716 25.6035 29.9132 25.1615C30.1892 24.9405 29.9682 25.1615 30.0787 24.996C30.1337 24.775 30.0787 24.333 30.0787 24.1125V20.3014V11.5742C30.0787 10.6906 30.2997 9.19914 29.0292 9.08859C31.4042 7.48658 33.8348 5.82953 36.2099 4.22799C36.6519 3.95198 37.0934 3.62047 37.5354 3.34445C37.7564 3.17894 38.1429 2.79195 38.4189 2.73693C38.6399 2.68192 39.0265 3.06844 39.1924 3.17894C40.7945 4.28348 42.4515 5.3885 44.053 6.49304C45.3235 7.37658 46.6492 8.26063 47.9196 9.08916C46.8701 9.14418 46.8701 10.1937 46.8701 10.9672V13.8947V22.456V25.715C46.8701 25.8806 46.9806 26.7091 46.8151 26.8196C46.7046 26.9301 46.2076 26.8196 46.0416 26.8196H44.55H40.2419H36.1543C35.9333 26.8196 35.5468 26.7646 35.3258 26.8196C35.2153 26.8746 35.0498 27.0406 34.9393 27.1511C34.6633 27.3721 34.3318 27.5931 34.0558 27.8141C33.3927 28.2561 32.7302 28.6426 32.0121 29.0292H47.6997C48.0862 29.0292 48.4732 29.0292 48.8042 28.6977C49.1357 28.3662 49.1357 27.9797 49.1357 27.5931V24.224V14.0057V12.1277C49.1357 11.9622 49.0252 11.3542 49.1357 11.2441C49.1907 11.1891 49.5777 11.2441 49.6882 11.2441H51.1243C51.5108 11.2441 51.8978 11.2991 52.2288 11.0231C52.7809 10.5797 52.7809 9.64067 52.1733 9.19919L52.1728 9.19937Z"/>
<path d="M7.70801 15.1103C7.70801 18.2034 11.0221 20.413 13.8942 19.1424C16.8768 17.8719 17.4293 13.6742 14.8883 11.6306C14.4463 12.9561 14.3913 14.1712 14.3358 15.4972C14.2808 16.6017 13.0653 17.3752 12.0157 17.3752C10.9661 17.3202 9.91666 16.5467 9.91666 15.4972C9.86165 13.9507 10.0822 12.4591 10.4692 10.968C8.86811 11.6856 7.70805 13.3426 7.70805 15.1102L7.70801 15.1103Z"/>
<path d="M16.2703 8.92347C21.628 11.409 23.5616 18.2582 20.1369 23.1185C19.2534 24.3889 18.0379 25.4386 16.6018 26.1565C15.8838 26.5431 15.2763 26.7091 15.2208 27.5926V30.0782V40.407V49.1893C15.2208 49.4103 15.2758 49.7418 15.2208 49.9073C15.1103 50.1833 14.7238 50.4043 14.5578 50.5703C13.8948 51.1778 13.2873 51.7854 12.6247 52.3379C12.5697 52.3929 12.2932 52.7244 12.1827 52.7244C12.0722 52.7244 11.8512 52.4484 11.7962 52.3929C11.1887 51.7854 10.5257 51.2329 9.91818 50.6253C9.69718 50.4043 9.20016 50.1283 9.14467 49.8518C9.08965 49.6863 9.14467 49.3548 9.14467 49.1338V47.6977V37.59V28.4762V27.5372C9.14467 26.7637 8.75815 26.4876 8.09514 26.1561C5.66461 24.9961 3.73154 22.8971 2.95853 20.3014C1.35652 15.1648 4.56054 9.58565 9.75219 8.2606C10.0837 8.20559 10.4152 8.09509 10.6912 8.0396C10.9122 7.98458 11.4092 8.0396 11.6302 7.9291C11.7407 7.87408 11.8512 7.48709 11.9063 7.37659C12.0168 7.15559 12.1273 6.99008 12.2378 6.76907C12.4588 6.38255 12.6798 6.05105 12.9558 5.71954C7.21163 5.499 1.85392 9.42104 0.639181 15.1103C-0.0238284 18.0373 0.52868 21.186 2.07525 23.7266C2.84876 24.9971 3.89777 26.1016 5.05782 27.0407C5.33384 27.2617 5.61033 27.4272 5.94136 27.6482C6.16236 27.7587 6.88038 28.0347 6.99089 28.2557V28.4212C7.0459 28.7527 6.99089 29.1393 6.99089 29.4708V31.3488V36.7619V48.0852C6.99089 48.8587 6.93587 49.6872 6.99089 50.4602C7.0459 51.0678 7.43289 51.3993 7.87442 51.7858C8.59245 52.4488 9.31049 53.1113 9.97343 53.7743C10.4705 54.2163 10.9675 54.7134 11.465 55.1554C12.2385 55.7629 12.846 55.3209 13.4536 54.7689C14.6687 53.6643 15.9392 52.5593 17.0992 51.3442C17.6517 50.7917 17.4857 49.8526 17.4857 49.0796V44.5504V32.6753V28.8087C17.4857 28.6432 17.4307 28.3117 17.4857 28.2012C17.5408 28.0357 18.0933 27.8697 18.2592 27.7592C18.6458 27.5382 19.0328 27.2622 19.4193 26.9857C20.0823 26.4886 20.7448 25.8811 21.2973 25.2181C25.495 20.302 24.7769 12.7357 19.8057 8.59313C19.2532 8.15112 18.6457 7.70959 17.9832 7.37804C17.7622 7.26754 17.7622 7.21252 17.5412 7.37804C17.3757 7.48854 17.2097 7.70954 17.0992 7.87506C16.8227 8.15107 16.5467 8.5376 16.2707 8.92412L16.2703 8.92347Z"/>
<path d="M32.5091 2.68202C32.1776 2.90303 31.791 3.12403 31.4595 3.40005C31.2385 3.51055 30.686 4.06259 30.41 4.06259C30.2445 4.06259 29.8575 3.84159 29.692 3.78658C29.416 3.67608 29.1395 3.56557 28.8635 3.51056C28.311 3.34504 27.7589 3.17905 27.1514 3.12404C26.0468 2.95853 24.9418 2.90304 23.8373 3.06902C19.6396 3.56604 15.9386 6.32808 14.2265 10.1942C13.7845 11.1883 13.453 12.2378 13.343 13.2873C13.288 13.8398 13.2325 14.3919 13.2325 14.8893C13.2325 15.3864 13.2875 15.7729 12.7905 16.1044C12.459 16.3254 12.017 16.3805 11.6304 16.2149C11.1884 16.049 11.0225 15.662 11.0225 15.1099C11.0225 13.9499 11.188 12.7898 11.4645 11.6304C12.4585 7.59829 15.2205 4.17365 18.9212 2.29562C23.1744 0.141099 28.3665 0.251529 32.509 2.68214L32.5091 2.68202Z"/>
</svg>
