<svg width="52" height="37" viewBox="0 0 52 37" xmlns="http://www.w3.org/2000/svg">
<mask id="mask0" mask-type="alpha" maskUnits="userSpaceOnUse" x="0" y="0" width="52" height="37">
<path fill-rule="evenodd" clip-rule="evenodd" d="M0 0.000305176H51.1665V36.9992H0V0.000305176Z" fill="white"/>
</mask>
<g mask="url(#mask0)">
<path fill-rule="evenodd" clip-rule="evenodd" d="M49.16 34.9922H26.57V31.2812C26.583 28.5052 28.851 26.2462 31.629 26.2462H44.101C46.89 26.2462 49.16 28.5152 49.16 31.3042V34.9922ZM36.859 24.2392H38.871V22.6162H36.859V24.2392ZM32.226 14.9712V14.2622V10.8382C32.257 10.8382 32.288 10.8392 32.318 10.8392C35.009 10.8392 37.592 9.83518 39.572 8.05118C40.61 9.26318 41.978 10.1622 43.505 10.6272V14.2622V14.9712C43.505 16.4772 42.918 17.8942 41.852 18.9592C40.787 20.0232 39.371 20.6092 37.865 20.6092C34.756 20.6092 32.226 18.0802 32.226 14.9712ZM31.331 8.77718C31.154 8.75818 30.976 8.73318 30.8 8.70218C30.998 4.97718 34.091 2.00718 37.865 2.00718C38.863 2.00718 39.847 2.21818 40.75 2.62118C40.382 3.80818 39.762 4.91318 38.932 5.85018C37.256 7.74518 34.846 8.83218 32.317 8.83218C31.985 8.83218 31.655 8.81418 31.337 8.77818C31.335 8.77718 31.333 8.77718 31.331 8.77718ZM42.491 3.73118C43.981 5.02418 44.887 6.90418 44.938 8.90318C44.881 8.89418 44.824 8.88418 44.767 8.87318C44.725 8.86118 44.681 8.85218 44.637 8.84618C43.179 8.54318 41.867 7.72518 40.943 6.56018C41.598 5.69918 42.12 4.74418 42.491 3.73118ZM24.597 34.9922H2.007V31.3042C2.007 28.5152 4.275 26.2462 7.065 26.2462H19.538C22.314 26.2462 24.584 28.5052 24.597 31.2812V34.9922ZM12.294 24.2392H14.306V22.6162H12.294V24.2392ZM9.313 18.9592C8.249 17.8942 7.662 16.4772 7.662 14.9712V14.2622V10.6272C9.187 10.1622 10.556 9.26318 11.595 8.05118C13.574 9.83518 16.157 10.8392 18.848 10.8392C18.879 10.8392 18.909 10.8382 18.939 10.8382V14.2622V14.9712C18.939 18.0802 16.41 20.6092 13.302 20.6092C11.795 20.6092 10.379 20.0232 9.313 18.9592ZM6.398 8.87318C6.342 8.88418 6.285 8.89418 6.228 8.90318C6.279 6.90418 7.184 5.02418 8.675 3.73118C9.046 4.74418 9.568 5.69918 10.222 6.56018C9.3 7.72518 7.988 8.54318 6.53 8.84618C6.485 8.85218 6.441 8.86118 6.398 8.87318ZM13.302 2.00718C17.075 2.00718 20.169 4.97718 20.366 8.70218C20.19 8.73318 20.013 8.75818 19.835 8.77718C19.833 8.77718 19.831 8.77718 19.829 8.77818C19.512 8.81418 19.181 8.83218 18.848 8.83218C16.321 8.83218 13.91 7.74518 12.233 5.85018C11.405 4.91318 10.784 3.80818 10.416 2.62118C11.318 2.21818 12.303 2.00718 13.302 2.00718ZM5.655 13.2592H5.544C4.909 13.2592 4.392 12.7422 4.392 12.1072C4.392 11.8002 4.512 11.5112 4.731 11.2932C4.884 11.1402 5.071 11.0362 5.277 10.9872C5.403 10.9872 5.529 10.9832 5.655 10.9772V13.2592ZM20.946 10.9572H21.057C21.366 10.9572 21.654 11.0762 21.873 11.2952C22.09 11.5112 22.209 11.8002 22.209 12.1072C22.209 12.7422 21.692 13.2592 21.057 13.2592H20.946V10.9572ZM30.22 13.2592H30.108C29.473 13.2592 28.957 12.7422 28.957 12.1072C28.957 11.8002 29.077 11.5112 29.294 11.2952C29.512 11.0762 29.801 10.9572 30.108 10.9572H30.22V13.2592ZM45.512 10.9772C45.638 10.9832 45.764 10.9872 45.889 10.9872C46.096 11.0362 46.283 11.1402 46.435 11.2932C46.654 11.5112 46.773 11.8002 46.773 12.1072C46.773 12.7422 46.258 13.2592 45.623 13.2592H45.512V10.9772ZM44.101 24.2392H40.878V22.0012C41.761 21.6222 42.572 21.0772 43.271 20.3792C44.646 19.0042 45.431 17.1972 45.504 15.2652H45.623C47.364 15.2652 48.78 13.8492 48.78 12.1072C48.78 11.2632 48.452 10.4702 47.854 9.87418C47.589 9.60718 47.282 9.39618 46.947 9.24218V9.08218C46.947 5.86118 45.217 2.85318 42.431 1.23118C42.431 1.23018 42.431 1.23018 42.43 1.23018C41.049 0.426183 39.471 0.000183105 37.865 0.000183105C32.856 0.000183105 28.782 4.07418 28.782 9.08218V9.24018C28.449 9.39418 28.141 9.60818 27.874 9.87618C27.279 10.4702 26.95 11.2632 26.95 12.1072C26.95 13.8482 28.367 15.2652 30.108 15.2652H30.227C30.342 18.2852 32.216 20.8622 34.852 21.9972V24.2392H31.629C29.071 24.2392 26.824 25.6112 25.583 27.6572C24.343 25.6112 22.095 24.2392 19.538 24.2392H16.313V21.9972C18.95 20.8622 20.824 18.2852 20.939 15.2652H21.058C22.8 15.2652 24.216 13.8482 24.216 12.1072C24.216 11.2632 23.888 10.4702 23.292 9.87618C23.024 9.60818 22.718 9.39418 22.384 9.24018V9.08218C22.384 4.07418 18.309 0.000183105 13.302 0.000183105C11.696 0.000183105 10.117 0.426183 8.736 1.23018C8.736 1.23018 8.735 1.23018 8.735 1.23118C5.949 2.85318 4.22 5.86118 4.22 9.08218V9.24218C3.885 9.39618 3.578 9.60718 3.311 9.87418C2.715 10.4702 2.386 11.2632 2.386 12.1072C2.386 13.8492 3.803 15.2652 5.544 15.2652H5.662C5.735 17.1972 6.52 19.0042 7.895 20.3792C8.595 21.0772 9.406 21.6222 10.288 22.0012V24.2392H7.065C3.169 24.2392 0 27.4092 0 31.3042V35.9962C0 36.5502 0.449 36.9992 1.003 36.9992H25.58H25.586H50.163C50.718 36.9992 51.167 36.5502 51.167 35.9962V31.3042C51.167 27.4092 47.997 24.2392 44.101 24.2392Z"/>
</g>
</svg>
