<svg width="374" height="302" viewBox="0 0 374 302" fill="none" xmlns="http://www.w3.org/2000/svg">
<path fill-rule="evenodd" clip-rule="evenodd" d="M0 239.664H374V239.473H0V239.664Z" fill="#E7E7E7"/>
<path fill-rule="evenodd" clip-rule="evenodd" d="M287.957 247.971H303.319V247.781H287.957V247.971Z" fill="#E7E7E7"/>
<path fill-rule="evenodd" clip-rule="evenodd" d="M308.805 247.879H318.294V247.688H308.805V247.879Z" fill="#E7E7E7"/>
<path fill-rule="evenodd" clip-rule="evenodd" d="M207.112 247.879H236.139V247.688H207.112V247.879Z" fill="#E7E7E7"/>
<path fill-rule="evenodd" clip-rule="evenodd" d="M115.349 251.23H150.846V251.039H115.349V251.23Z" fill="#E7E7E7"/>
<path fill-rule="evenodd" clip-rule="evenodd" d="M71.3906 245.183H76.6794V244.992H71.3906V245.183Z" fill="#E7E7E7"/>
<path fill-rule="evenodd" clip-rule="evenodd" d="M80.8335 245.183H121.592V244.992H80.8335V245.183Z" fill="#E7E7E7"/>
<path fill-rule="evenodd" clip-rule="evenodd" d="M52.6206 249.797H74.0351V249.605H52.6206V249.797Z" fill="#E7E7E7"/>
<path fill-rule="evenodd" clip-rule="evenodd" d="M57.7672 239.471H42.3966C42.3966 239.471 32.9336 230.886 29.8548 219.364C28.4374 214.059 35.4154 210.393 39.6402 214.184C49.5295 223.063 57.7672 239.471 57.7672 239.471Z" fill="#EDEDED"/>
<path fill-rule="evenodd" clip-rule="evenodd" d="M64.239 239.47H48.8684C48.8684 239.47 40.0778 221.031 43.4737 207.607C44.6518 202.95 50.3666 201.514 53.5329 205.073C65.1598 218.135 64.239 239.47 64.239 239.47Z" fill="#EDEDED"/>
<path fill-rule="evenodd" clip-rule="evenodd" d="M64.2561 239.473H74.1761C74.1761 239.473 80.4039 228.266 86.2473 214.494C91.698 201.651 82.4063 196.286 76.5712 208.91C69.1495 224.969 64.2561 239.473 64.2561 239.473Z" fill="#EDEDED"/>
<path fill-rule="evenodd" clip-rule="evenodd" d="M66.9697 239.472H82.3404C82.3404 239.472 97.8187 231.993 96.9526 217.839C96.7259 214.134 92.5775 211.727 88.9078 213.163C72.4092 219.623 66.9697 239.472 66.9697 239.472Z" fill="#EDEDED"/>
<path fill-rule="evenodd" clip-rule="evenodd" d="M58.3409 239.471H73.7116C73.7116 239.471 78.3559 213.286 72.8499 196.788C71.2058 191.86 65.3557 190.997 62.6613 195.282C52.6449 211.21 58.3409 239.471 58.3409 239.471Z" fill="#EDEDED"/>
<path fill-rule="evenodd" clip-rule="evenodd" d="M160.156 100.122L203.456 65.0039L329.683 106.489H160.156V100.122Z" fill="#E7E7E7"/>
<mask id="mask0_1427_2602" style="mask-type:alpha" maskUnits="userSpaceOnUse" x="0" y="0" width="374" height="274">
<path fill-rule="evenodd" clip-rule="evenodd" d="M0 273.974H374V0H0V273.974Z" fill="white"/>
</mask>
<g mask="url(#mask0_1427_2602)">
<path fill-rule="evenodd" clip-rule="evenodd" d="M252.243 239.471H324.383V112.855H252.243V239.471Z" fill="#EDEDED"/>
<path fill-rule="evenodd" clip-rule="evenodd" d="M305.807 239.472H291.927C291.927 239.472 283.382 232.568 280.601 223.304C279.32 219.039 285.624 216.091 289.437 219.141C298.368 226.28 305.807 239.472 305.807 239.472Z" fill="#F5F5F5"/>
<path fill-rule="evenodd" clip-rule="evenodd" d="M311.651 239.469H297.771C297.771 239.469 289.833 224.644 292.9 213.849C293.964 210.104 299.124 208.951 301.983 211.811C312.483 222.314 311.651 239.469 311.651 239.469Z" fill="#F5F5F5"/>
<path fill-rule="evenodd" clip-rule="evenodd" d="M311.667 239.471H320.626C320.626 239.471 326.249 230.46 331.527 219.387C336.447 209.06 328.058 204.745 322.788 214.896C316.086 227.808 311.667 239.471 311.667 239.471Z" fill="#F5F5F5"/>
<path fill-rule="evenodd" clip-rule="evenodd" d="M314.117 239.469H327.999C327.999 239.469 341.976 233.455 341.194 222.073C340.99 219.095 337.243 217.16 333.928 218.315C319.029 223.508 314.117 239.469 314.117 239.469Z" fill="#F5F5F5"/>
<path fill-rule="evenodd" clip-rule="evenodd" d="M306.325 239.472H320.207C320.207 239.472 324.4 218.416 319.429 205.151C317.943 201.189 312.66 200.496 310.227 203.94C301.182 216.749 306.325 239.472 306.325 239.472Z" fill="#F5F5F5"/>
<path fill-rule="evenodd" clip-rule="evenodd" d="M252.243 112.854H324.383L329.683 106.488H252.243V112.854Z" fill="#E7E7E7"/>
<path fill-rule="evenodd" clip-rule="evenodd" d="M220.506 184.933H292.515V123.391H220.506V184.933Z" fill="#E7E7E7"/>
<path fill-rule="evenodd" clip-rule="evenodd" d="M223.89 181.054H289.131V127.277H223.89V181.054Z" fill="#F5F5F5"/>
<path fill-rule="evenodd" clip-rule="evenodd" d="M221.906 156.766H291.115V151.555H221.906V156.766Z" fill="#E7E7E7"/>
<path fill-rule="evenodd" clip-rule="evenodd" d="M68.0679 239.471H252.242V90.8438H68.0679V239.471Z" fill="#F1F2F2"/>
<path fill-rule="evenodd" clip-rule="evenodd" d="M82.3391 190.976H168.49V117.348H82.3391V190.976Z" fill="#EDEDED"/>
<path fill-rule="evenodd" clip-rule="evenodd" d="M86.3872 186.335H164.441V121.996H86.3872V186.335Z" fill="white"/>
<path fill-rule="evenodd" clip-rule="evenodd" d="M86.3872 173.049H164.441V121.996H86.3872V173.049Z" fill="#F5F5F5"/>
<path fill-rule="evenodd" clip-rule="evenodd" d="M84.0139 176.166H166.815V169.93H84.0139V176.166Z" fill="#EDEDED"/>
<path fill-rule="evenodd" clip-rule="evenodd" d="M188.223 221.257H237.449V114.355H188.223V221.257Z" fill="#E7E7E7"/>
<path fill-rule="evenodd" clip-rule="evenodd" d="M190.816 221.253H234.855V116.777H190.816V221.253Z" fill="#EDEDED"/>
<path fill-rule="evenodd" clip-rule="evenodd" d="M194.704 162.018H230.965V120.969H194.704V162.018Z" fill="#E7E7E7"/>
<path fill-rule="evenodd" clip-rule="evenodd" d="M194.704 209.344H230.965V168.297H194.704V209.344Z" fill="#E7E7E7"/>
<path fill-rule="evenodd" clip-rule="evenodd" d="M255.235 101.199H65.0757V87.7864L160.156 37.1953L255.235 87.7864V101.199Z" fill="#EDEDED"/>
<path fill-rule="evenodd" clip-rule="evenodd" d="M263.641 94.8466L160.155 39.7815L56.6691 94.8466L54.5957 90.7815L160.155 34.6133L265.714 90.7815L263.641 94.8466Z" fill="#E7E7E7"/>
<path fill-rule="evenodd" clip-rule="evenodd" d="M160.155 55.0369C151.34 55.0369 144.169 62.3612 144.169 71.3646C144.169 80.3673 151.34 87.6915 160.155 87.6915C168.969 87.6915 176.141 80.3673 176.141 71.3646C176.141 62.3612 168.969 55.0369 160.155 55.0369ZM160.155 92.2753C148.865 92.2753 139.681 82.8946 139.681 71.3646C139.681 59.8339 148.865 50.4531 160.155 50.4531C171.444 50.4531 180.629 59.8339 180.629 71.3646C180.629 82.8946 171.444 92.2753 160.155 92.2753Z" fill="#E7E7E7"/>
<path fill-rule="evenodd" clip-rule="evenodd" d="M175.061 71.3644C175.061 79.7719 168.387 86.5881 160.155 86.5881C151.922 86.5881 145.25 79.7719 145.25 71.3644C145.25 62.9567 151.922 56.1406 160.155 56.1406C168.387 56.1406 175.061 62.9567 175.061 71.3644Z" fill="#F5F5F5"/>
<path fill-rule="evenodd" clip-rule="evenodd" d="M181.905 222.754H243.765V219.473H181.905V222.754Z" fill="#EDEDED"/>
<path fill-rule="evenodd" clip-rule="evenodd" d="M183.318 229.468H242.352V222.75H183.318V229.468Z" fill="#E7E7E7"/>
<path fill-rule="evenodd" clip-rule="evenodd" d="M177.21 232.753H248.461V229.473H177.21V232.753Z" fill="#EDEDED"/>
<path fill-rule="evenodd" clip-rule="evenodd" d="M178.837 239.468H246.833V232.75H178.837V239.468Z" fill="#E7E7E7"/>
<path fill-rule="evenodd" clip-rule="evenodd" d="M232.441 162.626C232.441 164.159 231.225 165.4 229.724 165.4C228.225 165.4 227.008 164.159 227.008 162.626C227.008 161.094 228.225 159.852 229.724 159.852C231.225 159.852 232.441 161.094 232.441 162.626Z" fill="white"/>
<path fill-rule="evenodd" clip-rule="evenodd" d="M55.0711 16.3926C50.7319 6.81694 54.1765 0 64.7824 0C71.4336 0 79.6803 2.68307 87.7108 7.05148C88.6181 4.56169 91.1741 3.06888 95.2843 3.06888C102.519 3.06888 112.492 7.68023 120.315 14.187C122.208 12.7369 124.947 11.8478 128.468 11.7056C135.391 11.4115 143.777 14.0617 151.068 18.3713C151.7 17.6501 152.783 17.1979 154.276 17.1306C158.268 16.9626 163.668 19.638 166.351 23.1003C166.518 23.3188 166.666 23.5281 166.815 23.7375H158.528H151.934H129.03H117.758H108.994H95.4944H93.0448H59.5583H49.6832C45.9821 20.3431 50.073 16.5637 55.0711 16.3926Z" fill="#EDEDED"/>
<path fill-rule="evenodd" clip-rule="evenodd" d="M208.216 32.6078C208.545 32.5711 208.88 32.5528 209.219 32.5528C208.908 29.0011 210.71 26.7336 214.558 26.7336C217.334 26.7336 220.743 27.9177 224.216 29.9209C223.222 23.0268 226.405 18.5469 233.61 18.5469C239.424 18.5469 246.782 21.4606 254.051 26.2149C254.689 23.5096 256.83 21.8892 260.428 21.8892C266.75 21.8892 275.733 26.8979 282.935 33.9647C282.935 33.9647 282.938 33.9737 282.944 33.9647C284.5 32.3893 286.839 31.4145 289.912 31.2594C295.932 30.9408 303.406 33.8187 310.032 38.5088C310.536 37.7164 311.455 37.2244 312.766 37.1611C316.059 36.9877 320.596 39.5744 323.23 43.0345H315.55H310.345H290.325H280.95H272.602H260.743H238.34H229.607H226.499H214.069H202.918C200.093 37.7891 202.343 33.1998 208.216 32.6078Z" fill="#EDEDED"/>
</g>
<path fill-rule="evenodd" clip-rule="evenodd" d="M0 256.445H362.022V256.113H0V256.445Z" fill="#ECECEC"/>
<mask id="mask1_1427_2602" style="mask-type:alpha" maskUnits="userSpaceOnUse" x="40" y="273" width="282" height="17">
<path fill-rule="evenodd" clip-rule="evenodd" d="M40.3057 273.109H321.718V289.522H40.3057V273.109Z" fill="white"/>
</mask>
<g mask="url(#mask1_1427_2602)">
<path fill-rule="evenodd" clip-rule="evenodd" d="M321.718 281.315C321.718 285.847 258.721 289.522 181.011 289.522C103.301 289.522 40.3057 285.847 40.3057 281.315C40.3057 276.784 103.301 273.109 181.011 273.109C258.721 273.109 321.718 276.784 321.718 281.315Z" fill="#F5F5F5"/>
</g>
<path fill-rule="evenodd" clip-rule="evenodd" d="M296.249 84.5156H188.158C188.158 84.5156 168.682 103.024 168.682 148.112C168.682 186.863 183.446 239.396 177.904 260.908C173.724 277.134 153.447 279.919 143.736 280.309H246.619C246.619 280.309 280.454 282.42 285.996 260.908C291.537 239.396 276.774 186.863 276.774 148.112C276.774 103.024 296.249 84.5156 296.249 84.5156Z" fill="#E0E7F4"/>
<path fill-rule="evenodd" clip-rule="evenodd" d="M266.842 132.037H180.394C182.839 112.213 189.431 100.678 193.067 95.6367H276.389C272.336 104.459 268.477 116.476 266.842 132.037Z" fill="#433978"/>
<path fill-rule="evenodd" clip-rule="evenodd" d="M266.118 142.546H179.548C179.619 140.744 179.72 138.995 179.863 137.305H266.383C266.261 139.01 266.175 140.759 266.118 142.546Z" fill="#433978"/>
<path fill-rule="evenodd" clip-rule="evenodd" d="M206.691 153.054H179.519C179.469 151.378 179.44 149.733 179.44 148.109V147.82H206.619V148.109C206.619 149.74 206.641 151.394 206.691 153.054Z" fill="#433978"/>
<path fill-rule="evenodd" clip-rule="evenodd" d="M266.635 163.558H180.129C179.978 161.793 179.856 160.044 179.763 158.324H266.305C266.391 160.058 266.5 161.8 266.635 163.558Z" fill="#433978"/>
<path fill-rule="evenodd" clip-rule="evenodd" d="M267.589 174.073H181.154C180.953 172.316 180.767 170.567 180.594 168.832H267.066C267.223 170.574 267.402 172.324 267.589 174.073Z" fill="#433978"/>
<path fill-rule="evenodd" clip-rule="evenodd" d="M268.837 184.574H182.46C182.223 182.824 182 181.075 181.785 179.34H268.191C268.391 181.082 268.607 182.824 268.837 184.574Z" fill="#433978"/>
<path fill-rule="evenodd" clip-rule="evenodd" d="M270.264 195.082H183.93C183.679 193.332 183.428 191.59 183.184 189.848H269.54C269.777 191.59 270.02 193.34 270.264 195.082Z" fill="#433978"/>
<path fill-rule="evenodd" clip-rule="evenodd" d="M271.792 205.592H185.464C185.328 204.636 185.184 203.665 185.041 202.694C184.926 201.916 184.812 201.137 184.697 200.352H271.024C271.282 202.102 271.533 203.85 271.792 205.592Z" fill="#433978"/>
<path fill-rule="evenodd" clip-rule="evenodd" d="M186.97 216.094C186.734 214.366 186.489 212.625 186.232 210.859H272.567C272.817 212.61 273.076 214.352 273.319 216.094H186.97Z" fill="#433978"/>
<path fill-rule="evenodd" clip-rule="evenodd" d="M188.341 226.601C188.141 224.889 187.918 223.139 187.688 221.367H259.69C259.934 223.132 260.163 224.881 260.379 226.601H188.341Z" fill="#433978"/>
<path fill-rule="evenodd" clip-rule="evenodd" d="M189.402 237.112C189.266 235.399 189.108 233.65 188.929 231.871H275.362C275.557 233.665 275.736 235.414 275.887 237.112H189.402Z" fill="#433978"/>
<path fill-rule="evenodd" clip-rule="evenodd" d="M189.897 247.621C189.89 245.931 189.832 244.181 189.739 242.387H235.345C235.459 244.219 235.524 245.968 235.545 247.621H189.897Z" fill="#433978"/>
<path fill-rule="evenodd" clip-rule="evenodd" d="M254.92 274.631C249.432 275.662 243.874 274.875 238.359 274.599C235.713 274.466 233.052 274.455 230.422 274.819C227.846 275.175 225.276 275.867 222.673 275.634C223.533 275.155 224.336 274.59 225.092 273.936C225.259 273.792 225.147 273.534 224.973 273.472C216.876 270.535 209.502 278.533 201.438 276.66C203.721 274.91 206.943 274.875 208.894 272.58C209.045 272.401 208.945 272.109 208.704 272.105C201.478 271.988 194.656 274.883 187.515 275.527C187.173 275.559 187.169 276.116 187.515 276.083C194.438 275.459 201.068 272.726 208.048 272.667C205.963 274.591 202.779 274.663 200.653 276.603C200.499 276.744 200.586 277.015 200.772 277.068C208.9 279.387 216.305 271.369 224.334 273.848C223.492 274.527 222.593 275.097 221.618 275.561C221.416 275.658 221.46 276.031 221.683 276.07C224.329 276.527 226.916 275.944 229.525 275.514C232.451 275.032 235.404 275.007 238.359 275.155C243.928 275.434 249.521 276.208 255.062 275.167C255.403 275.104 255.259 274.568 254.92 274.631Z" fill="#433978"/>
<path fill-rule="evenodd" clip-rule="evenodd" d="M108.339 110.102C108.8 110.696 109.383 111.398 109.924 112.046C110.477 112.703 111.047 113.352 111.629 113.984C112.796 115.249 113.977 116.497 115.225 117.651C117.716 119.944 120.388 122.013 123.189 123.32C123.538 123.479 123.887 123.631 124.238 123.759C124.421 123.835 124.579 123.888 124.73 123.934C124.881 123.988 125.038 124.039 125.206 124.076C125.86 124.242 126.577 124.363 127.333 124.411C128.847 124.496 130.481 124.393 132.131 124.134C133.784 123.888 135.458 123.507 137.13 123.056C138.793 122.614 140.5 122.066 142.092 121.499L143.558 124.418C140.309 126.448 136.936 128.024 133.191 129.099C131.324 129.623 129.363 130.001 127.274 130.07C126.229 130.101 125.144 130.05 124.034 129.849C123.758 129.807 123.478 129.745 123.197 129.672C122.911 129.606 122.636 129.533 122.395 129.453C121.887 129.303 121.396 129.127 120.911 128.942C117.044 127.42 113.827 125.089 110.934 122.547C109.494 121.265 108.106 119.942 106.821 118.526C106.175 117.821 105.545 117.104 104.93 116.369C104.303 115.624 103.741 114.914 103.112 114.051L108.339 110.102Z" fill="#FEC3BD"/>
<path fill-rule="evenodd" clip-rule="evenodd" d="M100.969 108.022C100.81 112.146 102.385 119.578 102.385 119.578L112.436 118.341C112.436 118.341 112.804 107.463 110.856 104.833C107.584 100.414 101.12 104.126 100.969 108.022Z" fill="#F28B00"/>
<path fill-rule="evenodd" clip-rule="evenodd" d="M140.782 122.566L145.492 118.191L146.091 122.902C146.091 122.902 144.141 125.556 141.929 124.441L140.782 122.566Z" fill="#FEC3BD"/>
<path fill-rule="evenodd" clip-rule="evenodd" d="M147.855 118.446L149.849 121.101L146.091 122.901L145.492 118.191L147.855 118.446Z" fill="#FEC3BD"/>
<path fill-rule="evenodd" clip-rule="evenodd" d="M146.667 106.522C147.166 106.491 147.44 106.52 147.799 106.525C147.981 106.528 148.14 106.536 148.252 106.557L148.63 106.609C149.07 106.693 149.35 106.821 149.528 106.975C149.701 107.132 149.71 107.329 149.776 107.514L149.944 108.073L150.616 110.308L151.962 114.78L154.652 123.722C156.429 129.688 158.278 135.636 159.991 141.619C163.509 153.561 166.84 165.552 170.108 177.559C173.375 189.568 176.452 201.625 179.611 213.662C182.816 225.686 185.602 237.821 186.608 250.423C186.769 252.435 185.293 254.198 183.312 254.36C181.761 254.489 180.357 253.59 179.746 252.229C174.6 240.716 171.232 228.734 168.285 216.641C165.292 204.562 162.216 192.504 159.33 180.395C156.445 168.286 153.624 156.162 150.989 143.987C149.626 137.912 148.399 131.802 147.099 125.709L145.175 116.565L144.212 111.994L143.732 109.707L143.611 109.135C143.581 108.942 143.494 108.764 143.571 108.543C143.652 108.32 143.836 108.071 144.18 107.78L144.486 107.548C144.574 107.474 144.71 107.388 144.868 107.297C145.177 107.115 145.404 106.955 145.855 106.736C146.115 106.61 146.396 106.539 146.667 106.522Z" fill="#1A2E35"/>
<path fill-rule="evenodd" clip-rule="evenodd" d="M185.916 252.248C185.794 251.835 185.382 251.585 184.971 251.693L183.376 252.112L181.78 252.532C181.37 252.64 181.129 253.062 181.219 253.483C182.216 258.117 181.243 261.442 182.282 265.519C183.378 269.814 188.141 272.012 188.141 272.012L187.986 270.183L188.725 271.859C188.725 271.859 191.837 267.59 190.742 263.293C189.702 259.217 187.261 256.79 185.916 252.248Z" fill="#007CFF"/>
<path fill-rule="evenodd" clip-rule="evenodd" d="M185.916 252.248C185.794 251.835 185.382 251.585 184.971 251.693L183.376 252.112L181.78 252.532C181.37 252.64 181.129 253.062 181.219 253.483C182.216 258.117 181.243 261.442 182.282 265.519C183.378 269.814 188.141 272.012 188.141 272.012L187.986 270.183L188.725 271.859C188.725 271.859 191.837 267.59 190.742 263.293C189.702 259.217 187.261 256.79 185.916 252.248Z" fill="white"/>
<path fill-rule="evenodd" clip-rule="evenodd" d="M187.157 262.889C187.295 263.431 186.975 263.983 186.442 264.124C185.907 264.265 185.363 263.939 185.225 263.398C185.087 262.855 185.407 262.302 185.941 262.161C186.475 262.021 187.019 262.346 187.157 262.889Z" fill="#1A2E35"/>
<path fill-rule="evenodd" clip-rule="evenodd" d="M188.043 270.402C187.922 270.434 187.8 270.359 187.768 270.237L185.973 263.201C185.942 263.079 186.014 262.953 186.135 262.921C186.256 262.89 186.379 262.963 186.41 263.086L188.206 270.122C188.237 270.245 188.164 270.37 188.043 270.402Z" fill="#1A2E35"/>
<path fill-rule="evenodd" clip-rule="evenodd" d="M182.172 226.951L172.4 229.523C171.839 229.67 171.26 229.325 171.114 228.754C170.969 228.185 171.309 227.597 171.871 227.449L181.643 224.878C182.204 224.73 182.783 225.075 182.929 225.646C183.074 226.216 182.733 226.803 182.172 226.951Z" fill="#433978"/>
<path fill-rule="evenodd" clip-rule="evenodd" d="M132.556 92.192C132.382 92.6352 132.471 93.0955 132.755 93.2206C133.041 93.3458 133.413 93.0888 133.588 92.6463C133.763 92.2037 133.674 91.7428 133.389 91.6176C133.105 91.4924 132.731 91.7494 132.556 92.192Z" fill="#1A2E35"/>
<path fill-rule="evenodd" clip-rule="evenodd" d="M133.253 91.5859L134.42 91.7398C134.42 91.7398 133.556 92.3348 133.253 91.5859Z" fill="#1A2E35"/>
<path fill-rule="evenodd" clip-rule="evenodd" d="M132.753 92.7812C132.753 92.7812 132.74 95.0124 133.191 96.2907C132.4 96.583 131.521 95.9026 131.521 95.9026L132.753 92.7812Z" fill="#FF857F"/>
<path fill-rule="evenodd" clip-rule="evenodd" d="M134.309 89.4938C134.265 89.4842 134.224 89.4635 134.188 89.4327C133.246 88.6087 132.266 88.8494 132.224 88.8605C132.076 88.8988 131.925 88.809 131.886 88.6587C131.848 88.5085 131.936 88.3561 132.084 88.3156C132.136 88.3016 133.379 87.9828 134.55 89.0056C134.666 89.1072 134.679 89.2846 134.579 89.4024C134.51 89.4842 134.405 89.5151 134.309 89.4938Z" fill="#1A2E35"/>
<path fill-rule="evenodd" clip-rule="evenodd" d="M117.182 91.9609C117.496 95.5425 116.315 101.416 113.649 103.414C113.649 103.414 115.657 107.183 122.09 108.06C129.161 109.024 125.839 104.982 125.839 104.982C122.077 103.527 122.478 100.653 123.434 98.0336L117.182 91.9609Z" fill="#FEC3BD"/>
<path fill-rule="evenodd" clip-rule="evenodd" d="M136.451 111.094C137.004 114.442 137.693 117.909 138.413 121.286C138.794 122.975 139.183 124.664 139.633 126.325C140.049 127.999 140.53 129.64 141.033 131.266C141.304 132.065 141.55 132.884 141.841 133.668L142.276 134.845L142.382 135.135L142.408 135.219C142.427 135.268 142.439 135.317 142.461 135.353C142.525 135.496 142.684 135.706 143.143 135.891C143.586 136.071 144.224 136.189 144.922 136.237C146.332 136.317 147.949 136.135 149.561 135.85C151.169 135.561 152.856 135.163 154.43 134.717L155.759 137.704C154.926 138.211 154.134 138.619 153.294 139.027C152.464 139.436 151.611 139.805 150.733 140.135C148.973 140.79 147.134 141.336 145.04 141.514C143.989 141.598 142.862 141.584 141.617 141.278C140.4 140.983 138.95 140.287 137.929 139.02C137.672 138.714 137.453 138.382 137.259 138.044C137.161 137.875 137.081 137.703 136.995 137.53L136.851 137.203L136.287 135.914C135.914 135.053 135.59 134.188 135.251 133.321C134.627 131.582 134.034 129.837 133.514 128.085C132.993 126.327 132.542 124.563 132.1 122.797C131.232 119.248 130.533 115.739 130.005 112.059L136.451 111.094Z" fill="#FEC3BD"/>
<path fill-rule="evenodd" clip-rule="evenodd" d="M153.709 134.922L156.507 132.668L157.765 137.046C157.765 137.046 153.936 139.86 152.913 136.552L153.709 134.922Z" fill="#FEC3BD"/>
<path fill-rule="evenodd" clip-rule="evenodd" d="M159.032 133.447L160.033 136.638L157.765 137.047L156.508 132.668L159.032 133.447Z" fill="#FEC3BD"/>
<path fill-rule="evenodd" clip-rule="evenodd" d="M106.737 273.781L112.587 274.218L114.325 260.575L108.475 260.137L106.737 273.781Z" fill="#FEC3BD"/>
<path fill-rule="evenodd" clip-rule="evenodd" d="M69.2671 256.447L74.3353 259.577L82.7643 248.884L77.696 245.754L69.2671 256.447Z" fill="#FEC3BD"/>
<path fill-rule="evenodd" clip-rule="evenodd" d="M76.0613 259.479C76.6733 260.361 77.2612 260.883 77.6636 260.892C77.8289 260.897 77.969 260.814 78.0908 260.641C78.1568 260.547 78.1444 260.483 78.127 260.436C77.9813 260.061 76.8944 259.684 76.0613 259.479ZM77.8696 261.148C77.8022 261.167 77.7319 261.175 77.6579 261.173C76.9125 261.157 76.0707 260.019 75.6342 259.342C75.6045 259.295 75.6044 259.234 75.6356 259.187C75.6675 259.14 75.7234 259.117 75.7778 259.128C76.0164 259.176 78.1089 259.622 78.3844 260.332C78.4461 260.491 78.4221 260.653 78.3156 260.805C78.1894 260.984 78.04 261.099 77.8696 261.148Z" fill="#433978"/>
<path fill-rule="evenodd" clip-rule="evenodd" d="M76.0399 259.176C76.7468 259.254 77.8823 259.047 78.1013 258.702C78.1383 258.645 78.1644 258.562 78.0476 258.418C77.9541 258.301 77.8352 258.241 77.6844 258.235C77.1775 258.214 76.4438 258.798 76.0399 259.176ZM77.5604 259.308C76.9303 259.488 76.1131 259.511 75.7143 259.402C75.6665 259.39 75.6302 259.352 75.6172 259.303C75.6034 259.256 75.6165 259.204 75.6505 259.169C75.6984 259.117 76.8505 257.918 77.6945 257.954C77.9265 257.963 78.1172 258.059 78.2622 258.238C78.4885 258.518 78.4044 258.745 78.334 258.855C78.205 259.057 77.912 259.208 77.5604 259.308Z" fill="#433978"/>
<path fill-rule="evenodd" clip-rule="evenodd" d="M75.8552 258.429L71.0473 253.728C70.8725 253.557 70.6166 253.538 70.4324 253.683L66.33 256.899C65.9043 257.232 65.8949 257.932 66.3046 258.319C68.0085 259.929 68.9076 260.623 71.0219 262.69C72.3227 263.963 74.0969 265.953 75.8936 267.711C77.6505 269.428 79.445 267.808 78.8476 266.918C76.1677 262.927 76.5672 261.429 76.3243 259.388C76.2808 259.02 76.1112 258.68 75.8552 258.429Z" fill="#1A2E35"/>
<path fill-rule="evenodd" clip-rule="evenodd" d="M113.754 273.999C115.045 274.217 116.007 274.16 116.371 273.836C116.499 273.723 116.556 273.573 116.544 273.382C116.54 273.31 116.514 273.265 116.46 273.234C116.073 273.013 114.727 273.531 113.754 273.999ZM115.129 274.412C114.483 274.412 113.785 274.3 113.29 274.2C113.232 274.187 113.189 274.14 113.18 274.081C113.172 274.022 113.202 273.964 113.254 273.936C113.523 273.796 115.895 272.583 116.596 272.989C116.732 273.067 116.811 273.197 116.82 273.364C116.838 273.645 116.748 273.876 116.553 274.048C116.247 274.321 115.709 274.412 115.129 274.412Z" fill="#433978"/>
<path fill-rule="evenodd" clip-rule="evenodd" d="M114.776 271.794C113.932 271.794 113.599 273.205 113.495 273.808C114.224 273.366 115.187 272.355 115.123 271.952C115.118 271.92 115.103 271.822 114.856 271.797C114.828 271.794 114.802 271.794 114.776 271.794ZM113.317 274.203C113.288 274.203 113.259 274.194 113.236 274.176C113.196 274.146 113.175 274.097 113.18 274.047C113.19 273.942 113.461 271.512 114.77 271.512C114.807 271.512 114.846 271.514 114.884 271.517C115.263 271.557 115.372 271.752 115.397 271.907C115.503 272.58 114.087 273.867 113.373 274.19C113.356 274.199 113.337 274.203 113.317 274.203Z" fill="#433978"/>
<path fill-rule="evenodd" clip-rule="evenodd" d="M112.953 273.371H106.376C106.137 273.371 105.938 273.54 105.898 273.778L105.016 279.061C104.924 279.609 105.375 280.127 105.928 280.118C108.222 280.077 109.331 279.941 112.222 279.941C114.001 279.941 117.677 280.129 120.134 280.129C122.536 280.129 122.784 277.662 121.766 277.438C117.204 276.437 115.434 275.055 113.922 273.737C113.649 273.499 113.303 273.371 112.953 273.371Z" fill="#1A2E35"/>
<path fill-rule="evenodd" clip-rule="evenodd" d="M114.324 260.578L113.359 268.161L107.576 267.178L108.471 260.141L114.324 260.578Z" fill="#FF857F"/>
<path fill-rule="evenodd" clip-rule="evenodd" d="M77.6935 245.754L82.7632 248.885L79.2748 253.307L74.0957 250.313L77.6935 245.754Z" fill="#FF857F"/>
<path fill-rule="evenodd" clip-rule="evenodd" d="M103.786 139.213C108.367 139.835 118.083 141.161 127.479 142.446C136.658 108.706 133.951 107.78 133.951 107.78C133.228 107.341 131.811 106.897 130.725 106.498C129.608 106.088 128.479 105.711 127.34 105.37C125.062 104.684 122.744 104.136 120.401 103.728C115.854 102.93 111.21 102.665 106.604 102.942C105.704 102.995 104.784 103.514 104.278 104.285C104.181 104.432 104.098 104.587 104.024 104.748C103.769 105.305 103.67 105.929 103.74 106.54C105.76 124.292 105.114 130.13 103.786 139.213Z" fill="#F28B00"/>
<path fill-rule="evenodd" clip-rule="evenodd" d="M129.786 118.129C129.136 122.839 130.326 126.655 131.068 128.469C132.642 121.885 133.494 117.394 133.919 114.331C132.112 114.199 130.232 114.903 129.786 118.129Z" fill="#BE6D00"/>
<path fill-rule="evenodd" clip-rule="evenodd" d="M133.745 107.68C137.801 110.041 140.621 115.657 141.471 118.921L132.831 126.961C132.831 126.961 128.349 116.378 128.71 113.09C129.075 109.763 132.211 106.788 133.745 107.68Z" fill="#F28B00"/>
<path fill-rule="evenodd" clip-rule="evenodd" d="M118.463 84.5555C116.643 90.1369 115.757 92.4565 117.356 96.4364C119.762 102.424 126.893 103.686 130.314 98.8206C133.392 94.4416 135.85 86.0496 131.469 81.5799C127.151 77.1766 120.282 78.9733 118.463 84.5555Z" fill="#FEC3BD"/>
<path fill-rule="evenodd" clip-rule="evenodd" d="M127.477 89.5088C127.067 90.4932 127.066 91.72 127.304 92.7111C127.664 94.2015 128.759 94.306 129.426 93.3554C130.025 92.5005 130.561 90.6943 129.832 89.4565C129.113 88.237 127.947 88.3829 127.477 89.5088Z" fill="#FFB770"/>
<path fill-rule="evenodd" clip-rule="evenodd" d="M120.433 77.61C116.522 75.4009 109.477 81.8645 107.704 92.4171C106.433 99.9756 122.322 103.627 132.355 103.505C131.692 101.725 127.523 96.3646 130.184 91.2058C132.117 87.457 134.323 88.3216 134.467 83.9609C134.647 78.4692 127.483 74.7875 120.433 77.61Z" fill="#1A2E35"/>
<path fill-rule="evenodd" clip-rule="evenodd" d="M129.351 79.9801C133.901 79.5302 138.48 84.0713 135.08 88.6005C135.08 88.6005 132.599 86.362 129.107 87.1388C127.031 87.6012 129.351 79.9801 129.351 79.9801Z" fill="#1A2E35"/>
<path fill-rule="evenodd" clip-rule="evenodd" d="M121.225 141.591C121.225 141.591 112.025 181.078 107.727 203.76C103.189 227.692 81.426 252.623 81.426 252.623L74.0342 248.437C74.0342 248.437 87.728 225.68 92.1708 203.336C101.189 157.975 95.0836 148.839 103.789 139.215L121.225 141.591Z" fill="#1A2E35"/>
<path fill-rule="evenodd" clip-rule="evenodd" d="M82.1571 253.326L72.9292 248.1L74.2771 245.332L84.6282 250.168L82.1571 253.326Z" fill="#433978"/>
<path fill-rule="evenodd" clip-rule="evenodd" d="M116.336 150.172C109.183 156.476 109.957 178.855 110.705 188.94C113.707 174.602 117.315 158.635 119.429 149.394C118.676 148.822 117.65 149.012 116.336 150.172Z" fill="black"/>
<path fill-rule="evenodd" clip-rule="evenodd" d="M127.128 142.462C127.128 142.462 131.266 189.339 129.008 207.22C126.66 225.819 114.708 266.285 114.708 266.285L106.27 265.178C106.27 265.178 113.125 225.08 114.344 206.665C115.672 186.59 109.777 140.098 109.777 140.098L127.128 142.462Z" fill="#1A2E35"/>
<path fill-rule="evenodd" clip-rule="evenodd" d="M116.503 266.775L104.476 265.198L104.661 261.59L117.709 262.874L116.503 266.775Z" fill="#433978"/>
<path fill-rule="evenodd" clip-rule="evenodd" d="M103.58 137.761L102.288 139.754C102.187 139.909 102.365 140.104 102.638 140.141L127.488 143.528C127.701 143.557 127.889 143.475 127.917 143.342L128.353 141.233C128.384 141.087 128.212 140.937 127.978 140.905L103.985 137.635C103.808 137.611 103.645 137.662 103.58 137.761Z" fill="#007CFF"/>
<path fill-rule="evenodd" clip-rule="evenodd" d="M103.58 137.761L102.288 139.754C102.187 139.909 102.365 140.104 102.638 140.141L127.488 143.528C127.701 143.557 127.889 143.475 127.917 143.342L128.353 141.233C128.384 141.087 128.212 140.937 127.978 140.905L103.985 137.635C103.808 137.611 103.645 137.662 103.58 137.761Z" fill="black"/>
<path fill-rule="evenodd" clip-rule="evenodd" d="M106.52 140.904L105.877 140.816C105.75 140.799 105.66 140.719 105.676 140.638L106.268 137.903C106.285 137.822 106.404 137.771 106.533 137.789L107.174 137.876C107.303 137.894 107.393 137.973 107.377 138.053L106.784 140.79C106.767 140.87 106.648 140.92 106.52 140.904Z" fill="#1A2E35"/>
<path fill-rule="evenodd" clip-rule="evenodd" d="M122.749 143.154L122.106 143.066C121.979 143.049 121.888 142.969 121.906 142.888L122.497 140.152C122.515 140.072 122.634 140.021 122.762 140.039L123.404 140.126C123.532 140.144 123.623 140.223 123.605 140.303L123.014 143.04C122.996 143.12 122.877 143.17 122.749 143.154Z" fill="#1A2E35"/>
<path fill-rule="evenodd" clip-rule="evenodd" d="M273.713 249.826L271.922 251.368L306.596 293.403L308.387 291.861C319.748 282.078 321.196 264.737 311.621 253.129C302.046 241.521 285.074 240.042 273.713 249.826Z" fill="#002180"/>
<path fill-rule="evenodd" clip-rule="evenodd" d="M285.447 301.743C281.722 301.24 278.186 300.031 274.938 298.149L275.233 297.617C278.414 299.46 281.877 300.644 285.526 301.137L285.447 301.743Z" fill="#003AAB"/>
<path fill-rule="evenodd" clip-rule="evenodd" d="M292.892 301.771C291.451 301.955 289.984 302.029 288.53 301.99L288.546 301.38C289.969 301.416 291.407 301.344 292.818 301.164L292.892 301.771Z" fill="#003AAB"/>
<path fill-rule="evenodd" clip-rule="evenodd" d="M309.83 254.676C300.254 243.068 283.282 241.589 271.922 251.373C260.561 261.155 259.114 278.497 268.688 290.104C278.264 301.712 295.235 303.192 306.596 293.408C317.957 283.625 319.405 266.284 309.83 254.676Z" fill="#433978"/>
<path fill-rule="evenodd" clip-rule="evenodd" d="M296.354 278.931C296.913 278.234 297.193 277.456 297.195 276.598C297.197 275.74 296.918 274.972 296.36 274.295C295.862 273.691 295.257 273.32 294.548 273.182C293.838 273.045 292.989 273.201 292 273.652L296.354 278.931ZM282.554 266.182C282.181 266.812 282.019 267.476 282.068 268.175C282.115 268.875 282.356 269.486 282.787 270.009C283.182 270.487 283.69 270.81 284.311 270.977C284.933 271.145 285.635 271.108 286.418 270.865L282.554 266.182ZM294.278 280.395L289.6 274.723C287.451 275.709 285.552 276.037 283.897 275.71C282.245 275.381 280.815 274.486 279.609 273.024C278.389 271.544 277.821 269.907 277.905 268.114C277.989 266.32 278.727 264.694 280.12 263.231L278.99 261.862L280.911 260.208L282.04 261.577C283.586 260.539 285.108 260.067 286.604 260.16C288.1 260.253 289.522 260.876 290.868 262.033L287.885 265.365C286.803 264.476 285.678 264.21 284.508 264.569L288.874 269.861C291.478 268.623 293.549 268.139 295.087 268.412C296.626 268.684 297.998 269.551 299.204 271.013C300.551 272.647 301.204 274.439 301.16 276.39C301.116 278.342 300.335 280.187 298.822 281.923L299.952 283.292L298.031 284.945L296.957 283.643C295.273 284.77 293.552 285.256 291.795 285.103C290.036 284.95 288.293 284.099 286.561 282.549L289.706 279.192C290.443 279.793 291.222 280.188 292.041 280.377C292.862 280.566 293.607 280.571 294.278 280.395Z" fill="white"/>
<path fill-rule="evenodd" clip-rule="evenodd" d="M292.456 250.237C287.288 250.102 282.054 251.825 277.789 255.497C268.537 263.466 267.356 277.592 275.156 287.047C278.746 291.399 283.614 294.003 288.727 294.768C282.674 294.615 276.713 291.916 272.504 286.814C264.705 277.36 265.882 263.234 275.136 255.266C280.133 250.962 286.463 249.334 292.456 250.237Z" fill="#002180"/>
<path fill-rule="evenodd" clip-rule="evenodd" d="M312.712 188.524L311.608 187.152L280.803 213.063L281.906 214.433C288.909 223.125 301.482 224.371 309.989 217.216C318.496 210.061 319.715 197.215 312.712 188.524Z" fill="#002180"/>
<path fill-rule="evenodd" clip-rule="evenodd" d="M274.934 196.968C275.332 194.148 276.239 191.48 277.633 189.035L278.016 189.263C276.652 191.657 275.762 194.271 275.373 197.032L274.934 196.968Z" fill="#003AAB"/>
<path fill-rule="evenodd" clip-rule="evenodd" d="M274.849 202.603C274.728 201.51 274.687 200.398 274.728 199.297L275.171 199.314C275.132 200.392 275.172 201.482 275.29 202.553L274.849 202.603Z" fill="#003AAB"/>
<path fill-rule="evenodd" clip-rule="evenodd" d="M308.885 215.842C317.392 208.687 318.612 195.841 311.608 187.148C304.607 178.456 292.033 177.211 283.526 184.366C275.02 191.52 273.8 204.367 280.803 213.058C287.806 221.751 300.378 222.996 308.885 215.842Z" fill="#433978"/>
<path fill-rule="evenodd" clip-rule="evenodd" d="M291.396 205.426C291.897 205.855 292.459 206.074 293.082 206.083C293.705 206.092 294.264 205.888 294.761 205.471C295.203 205.098 295.478 204.643 295.584 204.107C295.689 203.57 295.583 202.926 295.265 202.173L291.396 205.426ZM300.767 195.08C300.313 194.792 299.833 194.663 299.325 194.694C298.816 194.725 298.371 194.901 297.987 195.224C297.637 195.519 297.398 195.901 297.272 196.37C297.145 196.84 297.166 197.372 297.335 197.967L300.767 195.08ZM290.351 203.84L294.508 200.345C293.811 198.709 293.589 197.266 293.841 196.016C294.094 194.766 294.756 193.692 295.827 192.79C296.911 191.878 298.104 191.462 299.405 191.541C300.706 191.619 301.881 192.194 302.93 193.261L303.934 192.416L305.117 193.887L304.114 194.731C304.854 195.911 305.183 197.067 305.103 198.2C305.023 199.333 304.558 200.405 303.708 201.414L301.314 199.126C301.969 198.313 302.172 197.463 301.922 196.574L298.042 199.836C298.919 201.82 299.252 203.394 299.041 204.557C298.83 205.72 298.189 206.752 297.118 207.654C295.921 208.66 294.614 209.138 293.198 209.088C291.782 209.039 290.451 208.432 289.204 207.27L288.201 208.114L287.017 206.645L287.971 205.842C287.168 204.557 286.83 203.249 286.956 201.918C287.082 200.588 287.715 199.274 288.855 197.975L291.263 200.386C290.821 200.94 290.528 201.526 290.384 202.146C290.24 202.766 290.23 203.331 290.351 203.84Z" fill="white"/>
<path fill-rule="evenodd" clip-rule="evenodd" d="M312.253 202.717C312.395 198.803 311.19 194.823 308.561 191.559C302.858 184.48 292.616 183.465 285.687 189.293C282.497 191.976 280.565 195.641 279.966 199.508C280.129 194.924 282.139 190.43 285.879 187.286C292.807 181.457 303.049 182.471 308.752 189.551C311.832 193.374 312.959 198.184 312.253 202.717Z" fill="#002180"/>
</svg>
