<svg width="31" height="27" viewBox="0 0 31 27" fill="none" xmlns="http://www.w3.org/2000/svg">
<path d="M30.2655 5.72231C30.1209 5.71643 30.0083 5.70719 29.8965 5.70719C29.183 5.70719 28.4678 5.70719 27.7569 5.70719C26.308 5.69458 25.3348 4.71803 25.3256 3.27001C25.3205 2.54643 25.3256 1.82284 25.3256 1.09925V0.723588H2.51953C1.36902 0.723588 0.721894 1.36818 0.721894 2.51365C0.721894 8.23848 0.721894 13.9639 0.721894 19.6898C0.721894 20.837 1.36482 21.4723 2.52037 21.4732H9.82011C9.91508 21.4732 10.0353 21.4387 10.0983 21.4841C10.2286 21.5774 10.4151 21.7127 10.4168 21.8329C10.4185 21.953 10.2369 22.0959 10.11 22.1942C10.0495 22.2413 9.92685 22.2102 9.83273 22.2102C7.38883 22.2102 4.94492 22.2102 2.50102 22.2102C0.969807 22.2102 0.000840404 21.2463 0 19.7209C0 13.9754 0 8.22896 0 2.48171C0 0.962263 0.957213 0.00504254 2.47162 0.00504254C10.1596 0.00504254 17.8477 0.00336162 25.5357 0C25.8122 0 26.0273 0.0428607 26.1458 0.324396C26.1962 0.404384 26.2609 0.474454 26.3366 0.531136C27.73 1.92621 29.1099 3.33809 30.531 4.70122C30.8966 5.05167 31.0017 5.38867 31 5.87022C30.9832 10.5151 30.9916 15.1609 30.9891 19.8058C30.9891 21.0185 30.3075 21.9253 29.1998 22.1867C28.9741 22.2339 28.7438 22.2556 28.5132 22.2514C25.6917 22.2553 22.8705 22.2553 20.0495 22.2514C19.9554 22.2514 19.8327 22.2774 19.773 22.2295C19.6545 22.1354 19.4923 21.9951 19.4957 21.8782C19.4991 21.7614 19.6638 21.6261 19.7898 21.5421C19.863 21.4925 19.994 21.527 20.0983 21.527H28.4687C29.6175 21.527 30.2671 20.8832 30.268 19.7403C30.268 15.1785 30.268 10.6168 30.268 6.05511L30.2655 5.72231ZM26.1172 1.43037C26.1172 2.08588 26.1088 2.72459 26.1172 3.3633C26.1307 4.13143 26.6442 4.80207 27.4005 4.88275C28.1292 4.96007 28.8721 4.89956 29.5923 4.89956L26.1172 1.43037Z" fill="#023DA7"/>
<path d="M15.0077 23.5354L12.3277 25.7423C12.2058 25.8423 12.0982 25.9692 11.9604 26.0348C11.8226 26.1003 11.6495 26.1466 11.531 26.1003C11.4326 26.0608 11.378 25.8793 11.3326 25.7499C11.3163 25.6572 11.3143 25.5625 11.3267 25.4692C11.3267 22.911 11.3281 20.3531 11.3309 17.7955C11.3372 17.6986 11.3192 17.6017 11.2783 17.5136C11.2375 17.4255 11.1753 17.349 11.0973 17.2912C9.10722 15.6222 8.32397 13.4859 8.92318 10.9714C9.51146 8.49387 11.1503 6.9324 13.6345 6.34916C17.5003 5.43816 21.2343 8.49807 21.1729 12.4959C21.1435 14.4338 20.3577 16.0197 18.8685 17.2534C18.7908 17.3113 18.729 17.3879 18.6888 17.476C18.6485 17.5642 18.6312 17.661 18.6382 17.7576C18.6461 20.3679 18.6461 22.9782 18.6382 25.5885C18.6382 25.7642 18.5668 25.9986 18.4424 26.102C18.2508 26.2609 18.0575 26.0894 17.892 25.9507C16.9347 25.1448 15.9792 24.3464 15.0077 23.5354ZM14.9632 17.8887C16.0456 17.8844 17.1026 17.5596 18.0006 16.9552C18.8987 16.3508 19.5976 15.494 20.0092 14.4929C20.4208 13.4917 20.5266 12.391 20.3133 11.3298C20.1001 10.2685 19.5772 9.29421 18.8108 8.52978C18.0444 7.76535 17.0687 7.24505 16.0069 7.03454C14.9451 6.82402 13.8447 6.93272 12.8446 7.34693C11.8445 7.76113 10.9895 8.46227 10.3875 9.36188C9.78547 10.2615 9.46337 11.3193 9.46187 12.4017C9.45347 15.4314 11.91 17.8812 14.9632 17.8887ZM12.0579 25.0002C12.1898 24.8977 12.2714 24.8364 12.3503 24.7717C13.119 24.1397 13.888 23.5074 14.6573 22.8749C14.9514 22.6337 15.0724 22.637 15.3682 22.8833L17.3465 24.5363C17.5146 24.6733 17.6827 24.807 17.8861 24.975V17.9266C15.9347 18.8897 14.0017 18.8762 12.0579 17.94V25.0002Z" fill="#023DA7"/>
<path d="M8.20478 6.70006C8.18713 7.40096 7.94004 8.10942 7.62909 8.80107C7.51228 9.05992 7.28369 9.04143 7.06182 8.99857C6.34411 8.86074 5.81047 8.23044 5.7508 7.42785C5.67517 6.41937 6.10545 5.59913 6.73323 4.85873C6.87778 4.69065 7.061 4.70998 7.24588 4.81587C7.9493 5.21927 8.21234 5.85209 8.20478 6.70006ZM7.05259 8.21279C7.53162 7.31776 7.67617 5.91092 7.07191 5.63023C6.21134 6.69082 6.35085 8.01109 7.05259 8.21363V8.21279Z" fill="#023DA7"/>
<path d="M21.7583 6.65207C21.7449 5.86209 22.0045 5.2091 22.7323 4.82419C22.8559 4.75948 23.1315 4.76704 23.2046 4.85276C23.9223 5.69317 24.377 6.64367 24.1047 7.78746C23.9568 8.41188 23.5576 8.83712 22.9164 8.99596C22.5584 9.0842 22.4256 9.01277 22.2768 8.67324C21.9953 8.02781 21.7751 7.36557 21.7583 6.65207ZM22.8912 8.20682C23.6475 7.98327 23.6358 6.47895 22.8567 5.63518C22.3474 6.12009 22.3575 7.10505 22.8912 8.20682Z" fill="#023DA7"/>
<path d="M22.8047 11.6254C22.8282 10.943 22.8887 10.3211 23.177 9.74454C23.4753 9.14281 23.9426 8.76295 24.6158 8.65202C24.8359 8.61588 25.036 8.65874 25.1065 8.88229C25.404 9.7916 25.4915 10.7051 25.0502 11.5985C24.6939 12.3187 23.9779 12.6952 23.2854 12.5691C22.9946 12.5162 22.8333 12.3826 22.8358 12.0733C22.8349 11.9052 22.8131 11.7388 22.8047 11.6254ZM23.5375 11.8321C24.4813 11.8943 24.8662 10.3085 24.4494 9.42939C23.5392 10.0017 23.5804 10.9161 23.5392 11.8296L23.5375 11.8321Z" fill="#023DA7"/>
<path d="M8.14018 19.5233C7.4292 19.4863 6.81907 19.0863 6.3434 18.4804C6.10053 18.1719 5.9232 17.808 5.72906 17.4651C5.60048 17.2357 5.6677 17.0449 5.88621 16.9012C6.12576 16.7294 6.40457 16.6202 6.69715 16.5838C6.98973 16.5474 7.28678 16.5849 7.56115 16.6928C8.44105 17.0206 9.05707 17.6753 9.57812 18.419C9.64871 18.5199 9.6092 18.7753 9.52684 18.8938C9.22178 19.3393 8.76628 19.5233 8.14018 19.5233ZM6.52829 17.4013C7.03925 18.598 8.26371 19.1048 8.78644 18.6064C8.21161 17.6744 7.17876 17.1265 6.52829 17.403V17.4013Z" fill="#023DA7"/>
<path d="M21.688 19.5255C21.1325 19.5255 20.6795 19.3264 20.3778 18.8801C20.2988 18.7625 20.2753 18.5061 20.3501 18.4019C20.8325 17.722 21.3989 17.1186 22.1763 16.7682C22.8225 16.4774 23.4638 16.4883 24.0436 16.927C24.1563 17.0111 24.2672 17.2632 24.2227 17.3674C23.8142 18.3599 23.2066 19.1709 22.104 19.4684C22.0436 19.4855 21.9821 19.4984 21.9199 19.5071C21.8376 19.5255 21.7535 19.5255 21.688 19.5255ZM21.1232 18.6112C21.8796 19.1894 23.099 18.2658 23.3789 17.3943C22.7225 17.1447 21.7804 17.6489 21.1232 18.6129V18.6112Z" fill="#023DA7"/>
<path d="M25.4264 13.3069C25.3525 14.2473 25.118 15.081 24.4264 15.7197C23.8322 16.2685 23.0237 16.3677 22.3976 15.9878C22.1455 15.8365 22.0556 15.6516 22.1598 15.3583C22.3976 14.686 22.6699 14.0263 23.1615 13.4893C23.6532 12.9522 24.2667 12.6783 25.0205 12.8169C25.3197 12.8749 25.4617 13.0363 25.4264 13.3069ZM24.6575 13.5355C23.9314 13.5271 23.2145 14.3229 22.9422 15.4121C23.7145 15.7172 24.5247 14.839 24.6575 13.5338V13.5355Z" fill="#023DA7"/>
<path d="M5.28086 12.7656C5.84225 12.7808 6.29608 13.0177 6.6751 13.4094C7.24574 13.9977 7.56509 14.7229 7.77351 15.4961C7.80713 15.6213 7.67349 15.8575 7.54911 15.9482C6.98016 16.3626 6.20448 16.3062 5.60443 15.8037C4.79764 15.1314 4.53962 14.2027 4.50012 13.1984C4.49508 13.0867 4.64468 12.9228 4.76318 12.8623C4.91445 12.79 5.10606 12.795 5.28086 12.7656ZM5.25733 13.5472C5.34137 14.1842 5.53216 14.7683 6.02968 15.2045C6.29777 15.439 6.60535 15.5818 6.97513 15.4255C6.67763 14.2935 5.95486 13.4976 5.25733 13.5472Z" fill="#023DA7"/>
<path d="M7.10525 11.6004C7.10525 11.6735 7.096 11.8198 7.08508 11.966C7.04894 12.4602 6.93046 12.582 6.42537 12.5904C5.806 12.6005 5.33284 12.3097 5.0076 11.803C4.40923 10.8676 4.48741 9.87004 4.81348 8.87164C4.8824 8.66238 5.07063 8.61952 5.27989 8.64894C5.92868 8.7481 6.39344 9.09855 6.70019 9.67255C7.00694 10.2465 7.08172 10.8844 7.10525 11.6004ZM5.42444 9.47169C5.03617 10.5289 5.56817 11.9181 6.3447 11.8206C6.45899 10.9079 6.12618 9.56582 5.42696 9.47169H5.42444Z" fill="#023DA7"/>
<path d="M17.1911 15.9473C17.1323 15.9221 17.023 15.8843 16.9247 15.8322C16.3499 15.5296 15.7717 15.2347 15.2078 14.9145C15.0153 14.8044 14.8716 14.822 14.6934 14.9229C14.1253 15.2372 13.5555 15.5481 12.9723 15.8313C12.8235 15.9028 12.5731 15.9406 12.463 15.8616C12.3529 15.7826 12.3185 15.5338 12.3403 15.3716C12.4243 14.7287 12.5437 14.09 12.6639 13.4522C12.6868 13.3681 12.6848 13.2792 12.6579 13.1964C12.631 13.1135 12.5805 13.0403 12.5126 12.9857C12.0302 12.5361 11.5537 12.0781 11.0957 11.6024C10.9881 11.4907 10.8847 11.2755 10.9217 11.1503C10.9587 11.0251 11.1671 10.9032 11.3175 10.8755C11.9655 10.757 12.6202 10.6671 13.274 10.5805C13.4891 10.5519 13.6253 10.4738 13.7194 10.2628C13.9883 9.6611 14.2707 9.06525 14.575 8.48033C14.6464 8.34251 14.8195 8.17443 14.9489 8.1719C15.0783 8.16938 15.2565 8.33242 15.3305 8.46857C15.6448 9.0476 15.944 9.63673 16.2163 10.2334C16.3247 10.4712 16.4793 10.5494 16.7138 10.5805C17.3155 10.6645 17.9181 10.7435 18.5139 10.857C18.6887 10.8906 18.9055 10.9931 18.9913 11.1335C19.1224 11.347 18.9198 11.5125 18.7669 11.6604C18.2996 12.1117 17.8281 12.5588 17.3752 13.0244C17.3312 13.0753 17.2979 13.1344 17.2771 13.1983C17.2563 13.2623 17.2485 13.3297 17.2541 13.3967C17.355 14.0909 17.4844 14.78 17.5987 15.4717C17.6466 15.7608 17.4995 15.949 17.1911 15.9473ZM14.9615 9.35603C14.7245 9.84767 14.4867 10.2696 14.3161 10.7175C14.1665 11.1108 13.9077 11.2503 13.5144 11.2873C13.0412 11.331 12.5731 11.4243 12.0949 11.4965C12.4269 11.8453 12.7076 12.2025 13.0504 12.4832C13.4295 12.7941 13.5059 13.1303 13.3866 13.5841C13.2782 13.9993 13.2362 14.4321 13.1547 14.9153C13.6589 14.6489 14.1136 14.4329 14.5413 14.1741C14.8405 13.9934 15.0909 14.006 15.3817 14.1791C15.8112 14.4312 16.2608 14.6548 16.7516 14.9161C16.6575 14.3556 16.5961 13.8472 16.4801 13.3522C16.4037 13.0269 16.5079 12.8235 16.7323 12.6084C17.1004 12.2588 17.4374 11.8781 17.8029 11.494C17.2668 11.41 16.7348 11.3159 16.1994 11.2419C16.0957 11.2337 15.9963 11.1966 15.9125 11.1348C15.8287 11.0731 15.7639 10.989 15.7255 10.8923C15.4935 10.3914 15.2372 9.90146 14.9615 9.35603Z" fill="#023DA7"/>
</svg>
