<svg width="31" height="28" viewBox="0 0 31 28" fill="none" xmlns="http://www.w3.org/2000/svg">
<path d="M0 2.78358C0.0525628 2.60244 0.0994651 2.41888 0.161732 2.24016C0.369031 1.59247 0.776362 1.02719 1.32517 0.625575C1.87397 0.223962 2.53598 0.00670349 3.21604 0.00503166C4.96193 -0.00628957 6.70702 0.00503166 8.45211 0.00503166C14.8486 0.00503166 21.2451 0.00503166 27.6416 0.00503166C29.2589 0.00503166 30.5374 0.975422 30.9029 2.49166C30.9629 2.74662 30.9933 3.00766 30.9935 3.26959C30.9994 7.09401 31.0013 10.9184 30.9991 14.7428C30.9991 15.0663 30.9029 15.3186 30.5948 15.4512C30.5065 15.4888 30.4107 15.5057 30.3148 15.5006C30.2189 15.4954 30.1254 15.4684 30.0416 15.4216C29.9578 15.3747 29.8858 15.3093 29.8311 15.2304C29.7765 15.1514 29.7406 15.061 29.7263 14.966C29.7127 14.8355 29.7084 14.7042 29.7134 14.573C29.7134 10.85 29.7134 7.12662 29.7134 3.40302C29.7134 2.38006 29.1974 1.63124 28.3095 1.38137C28.0859 1.32159 27.8553 1.29222 27.6238 1.29403C19.5421 1.28918 11.4609 1.28918 3.3802 1.29403C2.11141 1.29403 1.29548 2.11078 1.29063 3.37471C1.29063 4.30305 1.29063 5.23463 1.29063 6.15974C1.29063 6.24869 1.29952 6.33764 1.30599 6.47107H1.66988C4.31339 6.47107 6.95609 6.46541 9.5996 6.47107C11.2865 6.47592 12.6935 7.53931 12.8407 9.16795C12.9871 10.806 12.9871 12.4538 12.8407 14.0919C12.6951 15.7205 11.2873 16.7855 9.60121 16.7912C6.9674 16.7993 4.33442 16.7912 1.70142 16.7912H1.30841C1.30114 16.9084 1.29063 17.0047 1.29063 17.1017C1.29063 18.03 1.29063 18.9616 1.29063 19.8867C1.29548 21.1507 2.11141 21.9674 3.37939 21.9674C7.96179 21.9706 12.542 21.9706 17.1201 21.9674C17.2317 21.9674 17.3425 21.9674 17.4533 21.9674C17.8212 21.9909 18.0881 22.2634 18.0849 22.6087C18.0816 22.954 17.8139 23.2241 17.4452 23.2475C17.3449 23.254 17.2438 23.2475 17.1428 23.2475H3.55082C1.63026 23.2475 0.501367 22.3661 0.0388141 20.507C0.0388141 20.49 0.0145574 20.477 0.0016189 20.4617L0 2.78358ZM1.32458 15.4844C1.42809 15.49 1.51623 15.4989 1.60519 15.4989C4.26729 15.4989 6.92994 15.4989 9.59312 15.4989C10.7988 15.4989 11.6204 14.6717 11.6229 13.4611C11.6253 12.2506 11.6229 11.04 11.6229 9.82943C11.6229 8.55822 10.8142 7.75037 9.54298 7.74956H1.32458V15.4844Z" fill="#023DA7"/>
<path d="M20.6558 19.3752H17.6864C17.5753 19.3804 17.464 19.378 17.3532 19.3679C17.2401 19.3542 17.1326 19.3106 17.0419 19.2415C16.9512 19.1724 16.8805 19.0805 16.8372 18.975C16.7939 18.8696 16.7794 18.7545 16.7954 18.6416C16.8113 18.5287 16.857 18.4221 16.9279 18.3328C16.9859 18.2632 17.0483 18.1972 17.1147 18.1355L23.2783 11.9687C23.7465 11.5004 24.0344 11.4996 24.5042 11.9687C26.5528 14.0173 28.6001 16.0659 30.646 18.1145L30.7535 18.2212C30.9605 18.4315 31.0608 18.6708 30.9411 18.9619C30.8215 19.2531 30.5821 19.3768 30.2691 19.376C29.3408 19.376 28.4092 19.376 27.4841 19.376H27.1178V19.7164C27.1178 21.7046 27.1178 23.6929 27.1178 25.6811C27.1178 26.6054 26.5986 27.1253 25.6768 27.1262C24.4756 27.1262 23.2748 27.1262 22.0742 27.1262C21.1919 27.1262 20.6582 26.5973 20.6566 25.7142C20.6523 23.7363 20.6523 21.7585 20.6566 19.7811L20.6558 19.3752ZM28.689 18.0886L23.9179 13.3175L19.1469 18.0886H21.0787C21.7596 18.0886 21.9586 18.2883 21.9594 18.9733V25.8129H25.8336V25.428C25.8336 23.2397 25.8336 21.0512 25.8336 18.8625C25.8336 18.3102 26.0536 18.0918 26.6027 18.0894C27.2965 18.0853 27.992 18.0886 28.689 18.0886Z" fill="#023DA7"/>
<path d="M9.03258 11.6341C9.02937 12.1443 8.8749 12.642 8.58873 13.0644C8.30257 13.4867 7.89755 13.8147 7.42493 14.0069C6.95232 14.199 6.43333 14.2466 5.93364 14.1437C5.43396 14.0408 4.97603 13.792 4.61778 13.4287C4.25953 13.0655 4.01707 12.6042 3.92107 12.1031C3.82507 11.6021 3.87984 11.0838 4.07847 10.6139C4.27709 10.1439 4.61065 9.7435 5.03691 9.46319C5.46318 9.18288 5.96301 9.03531 6.47317 9.03914C7.15582 9.0466 7.80786 9.32352 8.28725 9.80958C8.76664 10.2956 9.03454 10.9514 9.03258 11.6341ZM6.46993 12.9094C6.72387 12.9058 6.97107 12.8271 7.1803 12.6832C7.38954 12.5393 7.55144 12.3366 7.64555 12.1007C7.73966 11.8648 7.76176 11.6064 7.70906 11.3579C7.65637 11.1095 7.53124 10.8822 7.34948 10.7049C7.16771 10.5275 6.93746 10.408 6.68781 10.3614C6.43816 10.3148 6.18031 10.3432 5.9468 10.4431C5.7133 10.543 5.51462 10.7098 5.37586 10.9225C5.23711 11.1352 5.16449 11.3842 5.16719 11.6382C5.16908 11.8072 5.2043 11.9742 5.27083 12.1297C5.33736 12.2851 5.43389 12.4259 5.5549 12.544C5.67591 12.662 5.81902 12.7551 5.97603 12.8178C6.13304 12.8805 6.30088 12.9116 6.46993 12.9094Z" fill="#023DA7"/>
</svg>
