<svg width="354" height="350" viewBox="0 0 354 350" fill="none" xmlns="http://www.w3.org/2000/svg">
<g id="name=borrowers-2">
<g id="Frame 148717">
<g id="Background Complete">
<path id="backgroundExtraLight" d="M353.482 268.07H0V268.247H353.482V268.07Z" fill="#F4F3F2"/>
<path id="backgroundExtraLight_2" d="M55.469 274.801H37.0879V274.978H55.469V274.801Z" fill="#F4F3F2"/>
<path id="backgroundExtraLight_3" d="M141.697 272.885H103.45V273.062H141.697V272.885Z" fill="#F4F3F2"/>
<path id="backgroundExtraLight_4" d="M74.7831 281.371H56.1758V281.548H74.7831V281.371Z" fill="#F4F3F2"/>
<path id="backgroundExtraLight_5" d="M318.064 280.184H304.469V280.36H318.064V280.184Z" fill="#F4F3F2"/>
<path id="backgroundExtraLight_6" d="M298.17 280.184H276.756V280.36H298.17V280.184Z" fill="#F4F3F2"/>
<path id="backgroundExtraLight_7" d="M221.131 277.191H182.559V277.368H221.131V277.191Z" fill="#F4F3F2"/>
<path id="backgroundExtraLight_8" d="M311.947 193.785H292.506V268.071H311.947V193.785Z" fill="#F4F3F2"/>
<path id="backgroundExtraLight_9" d="M308.258 268.07H311.948V257.562H304.384L308.258 268.07Z" fill="#F4F3F2"/>
<path id="backgroundExtraLight_10" d="M201.011 193.785H181.569V268.071H201.011V193.785Z" fill="#F4F3F2"/>
<path id="backgroundExtraLight_11" d="M311.949 193.785H197.788V261.622H311.949V193.785Z" fill="#F4F3F2"/>
<path id="backgroundExtraLight_12" d="M201.584 197.221V248.484H235.426V197.221H201.584Z" fill="#F4F3F2"/>
<path id="backgroundExtraLight_13" d="M221.853 200.163H215.158C213.718 200.162 212.294 199.868 210.971 199.3C209.649 198.731 208.456 197.898 207.466 196.854H229.544C228.554 197.898 227.361 198.731 226.039 199.3C224.716 199.868 223.292 200.162 221.853 200.163Z" fill="#F4F3F2"/>
<path id="backgroundExtraLight_14" d="M237.951 197.227V248.49H271.794V197.227H237.951Z" fill="#F4F3F2"/>
<path id="backgroundExtraLight_15" d="M258.558 200.163H251.863C250.425 200.161 249.002 199.867 247.681 199.298C246.36 198.729 245.168 197.898 244.179 196.854H266.25C265.26 197.898 264.067 198.731 262.745 199.3C261.422 199.868 259.998 200.162 258.558 200.163Z" fill="#F4F3F2"/>
<path id="backgroundExtraLight_16" d="M274.316 197.221V248.484H308.159V197.221H274.316Z" fill="#F4F3F2"/>
<path id="backgroundExtraLight_17" d="M294.924 200.163H288.229C286.789 200.162 285.365 199.868 284.043 199.3C282.72 198.731 281.528 197.898 280.537 196.854H302.58C301.594 197.894 300.407 198.724 299.091 199.293C297.775 199.861 296.357 200.157 294.924 200.163Z" fill="#F4F3F2"/>
<path id="backgroundExtraLight_18" d="M201.478 268.07H197.788V257.562H205.353L201.478 268.07Z" fill="#F4F3F2"/>
<path id="backgroundExtraLight_19" d="M155.363 50H48.2578V150.335H155.363V50Z" fill="#F4F3F2"/>
<path id="backgroundExtraLight_20" d="M159.207 50H50.0518V150.335H159.207V50Z" fill="#F4F3F2"/>
<path id="backgroundExtraLight_21" d="M155.363 150.326H48.2578V157.475H155.363V150.326Z" fill="#F4F3F2"/>
<path id="backgroundExtraLight_22" d="M165.613 150.326H56.458V157.475H165.613V150.326Z" fill="#F4F3F2"/>
<path id="backgroundWhite" d="M153.828 144.947V55.3887L55.4398 55.3887V144.947H153.828Z" fill="#FDFDFD"/>
<path id="backgroundExtraLight_23" d="M57.9277 114.556C58.0296 114.556 58.1274 114.516 58.2001 114.445C58.2729 114.373 58.3146 114.276 58.3165 114.174V58.8877C58.3146 58.7858 58.2729 58.6887 58.2001 58.6173C58.1274 58.5458 58.0296 58.5058 57.9277 58.5059C57.8264 58.5059 57.7293 58.5461 57.6577 58.6177C57.5861 58.6893 57.5459 58.7864 57.5459 58.8877V114.174C57.5459 114.276 57.5861 114.373 57.6577 114.444C57.7293 114.516 57.8264 114.556 57.9277 114.556Z" fill="#F4F3F2"/>
<path id="backgroundExtraLight_24" d="M153.828 144.947V55.3887H153.142V144.947H153.828Z" fill="#F4F3F2"/>
<path id="backgroundExtraLight_25" opacity="0.5" d="M160.481 64.6644H53.3757L52.8809 57.4805H159.986L160.481 64.6644Z" fill="#F4F3F2"/>
<path id="backgroundExtraLight_26" opacity="0.5" d="M160.481 69.9312H53.3757L52.8809 62.7402H159.986L160.481 69.9312Z" fill="#F4F3F2"/>
<path id="backgroundExtraLight_27" opacity="0.5" d="M160.481 76.2476H53.3757L52.8809 69.0566H159.986L160.481 76.2476Z" fill="#F4F3F2"/>
<path id="backgroundExtraLight_28" opacity="0.5" d="M160.481 83.266H53.3757L52.8809 76.082H159.986L160.481 83.266Z" fill="#F4F3F2"/>
<path id="backgroundExtraLight_29" opacity="0.5" d="M160.481 91.689H53.3757L52.8809 84.498H159.986L160.481 91.689Z" fill="#F4F3F2"/>
<path id="backgroundExtraLight_30" opacity="0.5" d="M160.481 101.164H53.3757L52.8809 93.9727H159.986L160.481 101.164Z" fill="#F4F3F2"/>
<path id="backgroundExtraLight_31" d="M161.632 201.457H129.932V268.064H161.632V201.457Z" fill="#F4F3F2"/>
<path id="backgroundExtraLight_32" d="M158.444 268.07H161.632V258.998H155.1L158.444 268.07Z" fill="#F4F3F2"/>
<path id="backgroundExtraLight_33" d="M83.6564 201.457H51.9561V268.064H83.6564V201.457Z" fill="#F4F3F2"/>
<path id="backgroundExtraLight_34" d="M161.627 201.457H80.8701V262.499H161.627V201.457Z" fill="#F4F3F2"/>
<path id="backgroundExtraLight_35" d="M159.16 204.164H83.3447V220.908H159.16V204.164Z" fill="#F4F3F2"/>
<path id="backgroundExtraLight_36" d="M124.829 209.367H117.667C114.557 209.367 111.587 207.303 109.445 203.654H133.058C130.916 207.303 127.961 209.367 124.829 209.367Z" fill="#F4F3F2"/>
<path id="backgroundExtraLight_37" d="M84.0585 268.07H80.8701V258.998H87.4025L84.0585 268.07Z" fill="#F4F3F2"/>
<path id="backgroundExtraLight_38" d="M159.16 223.609H83.3447V240.353H159.16V223.609Z" fill="#F4F3F2"/>
<path id="backgroundExtraLight_39" d="M124.829 228.813H117.667C114.557 228.813 111.587 226.748 109.445 223.1H133.058C130.916 226.741 127.961 228.813 124.829 228.813Z" fill="#F4F3F2"/>
<path id="backgroundExtraLight_40" d="M159.16 243.053H83.3447V259.796H159.16V243.053Z" fill="#F4F3F2"/>
<path id="backgroundExtraLight_41" d="M124.829 248.26H117.667C114.557 248.26 111.587 246.195 109.445 242.547H133.058C130.916 246.195 127.961 248.26 124.829 248.26Z" fill="#F4F3F2"/>
<path id="backgroundExtraLight_42" d="M289.623 63.7734H228.074V146.106H289.623V63.7734Z" fill="#F4F3F2"/>
<path id="backgroundExtraLight_43" d="M293.623 63.7734H228.936V146.106H293.623V63.7734Z" fill="#F4F3F2"/>
<path id="backgroundWhite_2" d="M284.667 137.147V72.7246H237.887V137.147H284.667Z" fill="#FDFDFD"/>
<path id="backgroundExtraLight_44" d="M284.667 137.147V72.7246H283.967V137.147H284.667Z" fill="#F4F3F2"/>
<path id="backgroundExtraLight_45" d="M262.15 91.3086H248.145C248.006 91.3086 247.873 91.3637 247.775 91.4618C247.677 91.56 247.622 91.6931 247.622 91.8318V105.832C247.633 109.204 248.978 112.435 251.362 114.819C253.746 117.204 256.976 118.548 260.347 118.559H274.324C274.463 118.559 274.596 118.504 274.694 118.406C274.792 118.308 274.847 118.175 274.847 118.036V104.064C274.844 100.692 273.506 97.4584 271.128 95.0687C268.749 92.679 265.522 91.3273 262.15 91.3086ZM260.404 117.527C257.303 117.522 254.331 116.288 252.137 114.096C249.943 111.905 248.706 108.933 248.697 105.832V92.3975H262.129C265.229 92.3974 268.204 93.6244 270.402 95.8103C272.601 97.9963 273.846 100.964 273.865 104.064L260.404 117.527Z" fill="#F4F3F2"/>
</g>
<g id="Shadow">
<path id="backgroundExtraLight_46" d="M176.741 300C252.445 300 313.815 296.417 313.815 291.996C313.815 287.576 252.445 283.992 176.741 283.992C101.038 283.992 39.668 287.576 39.668 291.996C39.668 296.417 101.038 300 176.741 300Z" fill="#F4F3F2"/>
</g>
<g id="Character 2">
<path id="hairColor" d="M238.799 96.7875C236.789 95.0068 234.172 94.0675 231.489 94.1642C229.764 90.7066 226.229 88.6773 222.482 89.3631C217.109 90.346 215.469 96.8016 219.202 99.1633C220.437 99.9427 221.774 100.549 223.175 100.966V101.136C220.98 101.926 219.059 103.333 217.645 105.188C216.23 107.043 215.381 109.268 215.2 111.594C214.649 119.605 223.245 124.279 227.925 119.831C228.575 119.207 229.189 118.546 229.764 117.851C230.668 119.124 231.644 120.425 232.697 121.783C244.391 116.437 246.363 103.314 238.799 96.7875Z" fill="#171717"/>
<path id="skinTone" d="M215.292 127.907C215.221 128.897 215.136 129.752 215.009 130.664C214.882 131.576 214.761 132.446 214.613 133.33C214.316 135.098 213.906 136.865 213.489 138.598C212.627 142.122 211.425 145.553 209.897 148.843L209.749 149.154C209.692 149.275 209.678 149.317 209.572 149.529C209.397 149.878 209.186 150.207 208.943 150.512C208.495 151.089 207.946 151.58 207.324 151.962C206.31 152.574 205.186 152.985 204.015 153.171C202.089 153.469 200.131 153.498 198.197 153.255C194.617 152.814 191.1 151.965 187.713 150.724L188.491 147.896C190.124 148.143 191.827 148.377 193.496 148.525C195.139 148.702 196.792 148.784 198.445 148.773C199.962 148.804 201.478 148.642 202.955 148.292C203.49 148.168 203.997 147.942 204.447 147.627C204.557 147.544 204.651 147.441 204.722 147.323C204.743 147.285 204.757 147.245 204.765 147.203L204.963 146.701C205.26 145.944 205.55 145.181 205.797 144.396C206.044 143.611 206.306 142.833 206.554 142.048C206.999 140.457 207.437 138.866 207.798 137.24C208.158 135.614 208.455 133.98 208.731 132.34C209.007 130.7 209.226 129.01 209.388 127.482L215.292 127.907Z" fill="#FECCAF"/>
<path id="t-shirt1Color" d="M211.271 120.821C208.881 121.429 207.213 131.25 207.213 131.25L213.788 135.719C213.788 135.719 220.094 125.82 218.256 123.189C216.418 120.559 214.749 119.972 211.271 120.821Z" fill="#F2A53D"/>
<path id="shadowColor" opacity="0.2" d="M211.481 123.014L209.65 132.913L213.341 135.416L211.481 123.014Z" fill="#404040"/>
<path id="skinTone_2" d="M186.032 147.994L181.571 149.733L186.612 152.774C186.612 152.774 189.829 150.914 189.744 148.531L189.249 148.248C188.765 147.969 188.226 147.802 187.669 147.758C187.113 147.714 186.554 147.794 186.032 147.994Z" fill="#FECCAF"/>
<path id="skinTone_3" opacity="0.1" d="M185.7 148.215L183.494 148.964C183.063 149.11 182.64 149.28 182.229 149.473C182.229 149.473 183.685 150.082 184.413 149.671C185.517 149.755 186.628 149.688 187.715 149.473L185.7 148.215Z" fill="#FECCAF"/>
<path id="skinTone_4" d="M178.792 153.022L182.588 156.183L186.604 152.775L181.57 149.734L178.792 153.022Z" fill="#FECCAF"/>
<path id="skinTone_5" d="M224.172 286.088H218.389L218 272.682H223.79L224.172 286.088Z" fill="#FECCAF"/>
<path id="shoesColor" d="M218.192 285.43H224.689C224.802 285.427 224.912 285.466 224.998 285.539C225.084 285.612 225.14 285.714 225.155 285.826L225.862 290.966C225.876 291.096 225.863 291.228 225.822 291.352C225.782 291.477 225.716 291.591 225.629 291.689C225.542 291.786 225.435 291.864 225.316 291.917C225.196 291.971 225.067 291.999 224.936 291.999C222.674 291.999 221.578 291.829 218.715 291.829C216.962 291.829 211.907 292.013 209.475 292.013C207.043 292.013 206.916 289.609 207.927 289.39C212.465 288.414 215.703 287.07 217.195 285.784C217.473 285.548 217.828 285.423 218.192 285.43Z" fill="#171717"/>
<g id="Group" opacity="0.2">
<path id="shadowColor_2" d="M218 272.684L218.198 279.592H223.988L223.79 272.684H218Z" fill="#404040"/>
</g>
<path id="t-shirt1Color_2" d="M211.27 120.823C211.27 120.823 208.513 121.799 214.035 155.767H237.541C237.145 146.193 237.138 140.296 241.712 120.661C238.421 119.979 235.085 119.54 231.73 119.345C228.176 119.091 224.609 119.091 221.055 119.345C216.467 119.763 211.27 120.823 211.27 120.823Z" fill="#F2A53D"/>
<path id="skinTone_6" d="M230.669 107.316C229.997 110.753 229.326 117.046 231.729 119.337C231.729 119.337 230.789 122.816 224.405 122.816C217.385 122.816 221.054 119.337 221.054 119.337C224.879 118.418 224.78 115.575 224.115 112.909L230.669 107.316Z" fill="#FECCAF"/>
<path id="skinTone_7" d="M231.723 119.343C228.17 119.081 224.602 119.081 221.048 119.343L220.341 119.407C219.486 121.026 219.274 123.508 221.317 127.184C221.317 127.184 230.677 123.416 233.116 119.47C232.664 119.392 232.197 119.364 231.723 119.343Z" fill="#FECCAF"/>
<path id="shadowColor_3" opacity="0.2" d="M227.997 109.6L224.108 112.902C224.276 113.522 224.387 114.156 224.441 114.797C225.904 114.585 227.912 112.979 228.067 111.452C228.157 110.835 228.133 110.208 227.997 109.6Z" fill="#404040"/>
<path id="skinTone_8" d="M234.374 101.371C233.066 106.964 232.627 109.354 229.276 111.773C224.243 115.407 217.661 112.572 217.258 106.703C216.904 101.414 219.11 93.1552 225.035 91.8541C226.337 91.5603 227.694 91.6043 228.975 91.9818C230.256 92.3592 231.419 93.0577 232.355 94.0111C233.29 94.9644 233.966 96.1409 234.32 97.429C234.673 98.7171 234.692 100.074 234.374 101.371Z" fill="#FECCAF"/>
<path id="pantsPrimary" d="M214.034 155.766C214.034 155.766 209.467 200.362 209.849 217.989C210.245 236.373 216.968 278.232 216.968 278.232H224.815C224.815 278.232 223.578 237.427 224.271 219.389C225.027 199.732 231.27 155.752 231.27 155.752L214.034 155.766Z" fill="#595959"/>
<path id="pantsSecondary" d="M225.474 278.536H216.291L215.619 275.609L225.905 275.248L225.474 278.536Z" fill="#404040"/>
<path id="shadowColor_4" opacity="0.2" d="M224.172 166.86C218.404 178.478 223.013 199.669 225.056 207.553C226.102 195.709 227.884 181.235 229.248 170.608C228.351 164.591 226.838 161.501 224.172 166.86Z" fill="#404040"/>
<path id="skinTone_9" d="M251.228 286.088H245.438L243.317 272.682H249.1L251.228 286.088Z" fill="#FECCAF"/>
<path id="shoesColor_2" d="M245.154 285.43H251.68C251.796 285.432 251.908 285.471 252 285.543C252.092 285.614 252.158 285.713 252.189 285.826L253.603 290.966C253.637 291.088 253.642 291.217 253.618 291.341C253.593 291.466 253.54 291.583 253.463 291.683C253.385 291.783 253.285 291.864 253.171 291.919C253.056 291.974 252.931 292.001 252.804 291.998C250.534 291.998 249.425 291.829 246.561 291.829C244.801 291.829 239.774 292.013 237.371 292.013C234.967 292.013 234.5 289.609 235.483 289.389C239.895 288.414 242.92 287.07 244.285 285.783C244.521 285.562 244.831 285.436 245.154 285.43Z" fill="#171717"/>
<g id="Group_2" opacity="0.2">
<path id="shadowColor_5" d="M243.316 272.684L244.412 279.592H250.202L249.106 272.684H243.316Z" fill="#404040"/>
</g>
<path id="pantsPrimary_2" d="M220.573 155.766C220.573 155.766 225.43 200.362 228.102 217.989C230.881 236.373 243.041 278.232 243.041 278.232H250.831C250.831 278.232 244.299 237.427 242.652 219.389C240.856 199.732 237.752 155.752 237.752 155.752L220.573 155.766Z" fill="#595959"/>
<path id="pantsSecondary_2" d="M251.545 278.536H242.362L241.309 275.609L251.545 275.248V278.536Z" fill="#404040"/>
<path id="shoesColor_3" d="M243.112 286.426C242.603 286.465 242.095 286.338 241.663 286.065C241.56 285.987 241.477 285.887 241.42 285.772C241.362 285.657 241.332 285.53 241.331 285.401C241.324 285.328 241.338 285.256 241.37 285.191C241.403 285.126 241.453 285.071 241.515 285.033C242.172 284.651 244.632 285.825 244.908 285.959C244.935 285.972 244.958 285.992 244.974 286.017C244.99 286.042 244.999 286.071 245 286.101C245.001 286.128 244.992 286.155 244.975 286.177C244.959 286.199 244.935 286.214 244.908 286.221C244.317 286.343 243.716 286.412 243.112 286.426ZM241.925 285.224C241.84 285.222 241.755 285.239 241.677 285.273C241.652 285.29 241.631 285.313 241.619 285.341C241.606 285.368 241.602 285.399 241.607 285.429C241.607 285.513 241.627 285.596 241.664 285.672C241.7 285.748 241.753 285.814 241.819 285.867C242.214 286.179 243.169 286.235 244.427 286.023C243.641 285.625 242.796 285.356 241.925 285.224Z" fill="#171717"/>
<path id="shoesColor_4" d="M244.88 286.222H244.823C244.116 285.911 242.568 284.667 242.589 284.009C242.589 283.854 242.681 283.663 243.056 283.62C243.196 283.607 243.337 283.621 243.472 283.662C243.607 283.703 243.732 283.771 243.84 283.861C244.646 284.462 244.986 286.024 245 286.088C245.004 286.11 245.002 286.133 244.995 286.154C244.987 286.175 244.974 286.194 244.957 286.208C244.934 286.223 244.906 286.228 244.88 286.222ZM243.197 283.875H243.119C242.872 283.875 242.865 283.995 242.865 284.03C242.865 284.426 243.904 285.445 244.66 285.833C244.514 285.157 244.178 284.537 243.692 284.045C243.551 283.933 243.377 283.873 243.197 283.875Z" fill="#171717"/>
<path id="faceDetails" d="M225.106 101.336C225.029 101.796 224.717 102.128 224.399 102.043C224.081 101.958 223.912 101.584 223.996 101.117C224.081 100.65 224.378 100.325 224.703 100.41C225.029 100.495 225.184 100.884 225.106 101.336Z" fill="#171717"/>
<path id="faceDetails_2" d="M219.903 100.445C219.825 100.912 219.514 101.237 219.196 101.187C218.878 101.138 218.715 100.721 218.793 100.261C218.87 99.8014 219.174 99.4691 219.5 99.5186C219.825 99.5681 219.98 99.9852 219.903 100.445Z" fill="#171717"/>
<path id="faceDetails_3" d="M219.626 99.5665L218.572 99.0645C218.572 99.0645 218.996 100.019 219.626 99.5665Z" fill="#171717"/>
<path id="noseColor" d="M221.366 101.547C220.785 102.527 220.072 103.422 219.245 104.205C219.451 104.413 219.701 104.574 219.975 104.675C220.25 104.776 220.544 104.817 220.836 104.792L221.366 101.547Z" fill="#FEB084"/>
<path id="faceDetails_4" d="M223.013 107.027C222.776 107.02 222.54 106.998 222.306 106.963C222.269 106.956 222.237 106.935 222.216 106.905C222.195 106.875 222.186 106.837 222.192 106.801C222.202 106.766 222.224 106.735 222.253 106.715C222.283 106.694 222.319 106.685 222.355 106.687C222.925 106.8 223.513 106.776 224.071 106.616C224.629 106.456 225.141 106.165 225.565 105.768C225.592 105.744 225.627 105.73 225.664 105.73C225.7 105.73 225.735 105.744 225.763 105.768C225.788 105.795 225.803 105.83 225.803 105.867C225.803 105.904 225.788 105.94 225.763 105.966C225.022 106.67 224.033 107.051 223.013 107.027Z" fill="#171717"/>
<path id="hairColor_2" d="M237.102 92.659C236.44 92.1857 235.686 91.8558 234.889 91.6903C234.246 86.1751 229.827 82.668 224.9 83.771C219.315 85.0296 217.37 91.9661 221.124 94.3277C223.334 95.6741 225.827 96.4852 228.406 96.6964C228.505 101.264 231.354 105.181 233.355 105.386C239.067 103.138 240.545 95.0772 237.102 92.659Z" fill="#171717"/>
<path id="skinTone_10" d="M235.024 106.814C234.463 107.772 233.545 108.468 232.472 108.751C231.058 109.119 230.351 107.839 230.789 106.51C231.164 105.308 232.366 103.682 233.787 103.901C234.095 103.957 234.385 104.089 234.63 104.286C234.875 104.482 235.067 104.735 235.19 105.024C235.313 105.313 235.362 105.628 235.333 105.94C235.304 106.252 235.198 106.553 235.024 106.814Z" fill="#FECCAF"/>
<path id="hairColor_3" d="M227.374 100.628C227.316 100.628 227.259 100.609 227.212 100.575C227.165 100.541 227.13 100.492 227.112 100.437C226.737 99.221 225.189 98.7048 225.175 98.6977C225.107 98.6752 225.05 98.6264 225.017 98.5621C224.985 98.4978 224.979 98.4232 225.002 98.3548C225.024 98.2863 225.073 98.2296 225.137 98.1972C225.202 98.1647 225.276 98.1591 225.345 98.1816C225.415 98.1816 227.183 98.7896 227.635 100.303C227.646 100.337 227.65 100.372 227.647 100.408C227.644 100.443 227.634 100.478 227.618 100.509C227.601 100.541 227.579 100.569 227.552 100.592C227.524 100.615 227.493 100.632 227.459 100.642C227.43 100.644 227.401 100.639 227.374 100.628Z" fill="#171717"/>
<path id="hairColor_4" d="M218.748 97.7789C218.699 97.7788 218.651 97.7656 218.609 97.7408C218.567 97.7159 218.532 97.6803 218.508 97.6374C218.474 97.5733 218.467 97.4986 218.486 97.4289C218.506 97.3592 218.552 97.2997 218.614 97.2627C218.987 97.0375 219.408 96.9051 219.842 96.8768C220.276 96.8485 220.711 96.9251 221.11 97.1001C221.165 97.1378 221.205 97.1944 221.222 97.2593C221.238 97.3243 221.231 97.3931 221.201 97.4529C221.17 97.5127 221.119 97.5594 221.057 97.5843C220.995 97.6092 220.925 97.6104 220.862 97.5879C220.544 97.4551 220.198 97.3999 219.854 97.4269C219.51 97.454 219.177 97.5625 218.883 97.7435C218.841 97.765 218.795 97.7771 218.748 97.7789Z" fill="#171717"/>
<path id="skinTone_11" d="M244.412 127.398C245.119 130.729 245.585 134.003 245.981 137.347C246.4 140.705 246.636 144.082 246.688 147.465C246.688 147.635 246.688 147.982 246.688 148.3C246.688 148.618 246.639 148.865 246.604 149.127C246.519 149.643 246.427 150.117 246.307 150.541C246.08 151.453 245.812 152.295 245.529 153.122C244.963 154.77 244.292 156.325 243.613 157.874C242.232 160.929 240.696 163.912 239.011 166.811L236.353 165.574L237.929 160.928C238.459 159.38 238.968 157.831 239.442 156.283C239.916 154.734 240.375 153.193 240.771 151.687C240.962 150.93 241.125 150.181 241.238 149.473C241.294 149.12 241.337 148.766 241.365 148.484C241.365 148.335 241.365 148.201 241.365 148.081L241.33 147.677C241.202 146.094 241.018 144.496 240.828 142.898L240.163 138.097C239.675 134.901 239.131 131.662 238.587 128.501L244.412 127.398Z" fill="#FECCAF"/>
<path id="t-shirt1Color_3" d="M241.713 120.68C244.068 121.387 246.895 129.504 246.895 129.504L237.754 136.037C237.754 136.037 234.425 129.264 235.414 126.223C236.446 123.027 239.02 119.838 241.713 120.68Z" fill="#F2A53D"/>
<path id="shoesColor_5" d="M216.013 286.426C215.514 286.474 215.014 286.346 214.599 286.065C214.503 285.986 214.43 285.883 214.386 285.766C214.343 285.65 214.331 285.523 214.352 285.401C214.356 285.325 214.379 285.252 214.418 285.188C214.458 285.124 214.513 285.071 214.578 285.033C215.285 284.651 217.597 285.825 217.858 285.959C217.883 285.973 217.904 285.994 217.917 286.02C217.93 286.045 217.934 286.074 217.931 286.102C217.927 286.131 217.914 286.157 217.895 286.178C217.876 286.199 217.851 286.214 217.823 286.221C217.227 286.342 216.621 286.41 216.013 286.426ZM214.981 285.224C214.894 285.222 214.807 285.239 214.727 285.273C214.699 285.289 214.676 285.312 214.66 285.339C214.644 285.366 214.635 285.397 214.635 285.429C214.624 285.509 214.632 285.591 214.659 285.667C214.686 285.743 214.731 285.812 214.79 285.867C215.144 286.179 216.098 286.235 217.378 286.023C216.63 285.621 215.82 285.351 214.981 285.224Z" fill="#171717"/>
<path id="shoesColor_6" d="M217.809 286.223H217.753C217.046 285.912 215.695 284.668 215.808 284.01C215.808 283.855 215.943 283.664 216.317 283.621C216.454 283.606 216.593 283.62 216.725 283.661C216.856 283.702 216.977 283.771 217.081 283.862C217.788 284.463 217.943 286.025 217.943 286.089C217.947 286.112 217.943 286.136 217.933 286.158C217.923 286.179 217.907 286.197 217.887 286.209C217.864 286.224 217.836 286.229 217.809 286.223ZM216.431 283.876H216.332C216.084 283.876 216.07 283.996 216.063 284.031C215.999 284.427 216.925 285.446 217.625 285.835C217.578 285.18 217.332 284.555 216.918 284.046C216.783 283.93 216.609 283.869 216.431 283.876Z" fill="#171717"/>
<path id="faceDetails_5" d="M224.814 100.458L223.761 99.9492C223.761 99.9492 224.199 100.883 224.814 100.458Z" fill="#171717"/>
<path id="beltPrimary" d="M237.895 154.388L238.496 156.509C238.581 156.672 238.383 156.841 238.114 156.841H213.915C213.703 156.841 213.533 156.735 213.519 156.601L213.307 154.48C213.307 154.331 213.476 154.211 213.703 154.211H237.541C237.61 154.21 237.678 154.226 237.74 154.256C237.801 154.287 237.854 154.332 237.895 154.388Z" fill="#171717"/>
<path id="beltSecondary" d="M234.713 157.046H235.349C235.476 157.046 235.568 156.982 235.561 156.904L235.264 154.168C235.264 154.083 235.144 154.02 235.017 154.02H234.381C234.253 154.02 234.154 154.083 234.161 154.168L234.465 156.904C234.458 156.982 234.572 157.046 234.713 157.046Z" fill="#404040"/>
<path id="beltSecondary_2" d="M215.711 157.046H216.347C216.474 157.046 216.573 156.982 216.566 156.904L216.262 154.168C216.262 154.083 216.142 154.02 216.015 154.02H215.378C215.251 154.02 215.152 154.083 215.166 154.168L215.463 156.904C215.47 156.982 215.583 157.046 215.711 157.046Z" fill="#404040"/>
<path id="beltSecondary_3" d="M225.203 157.046H225.839C225.966 157.046 226.065 156.982 226.051 156.904L225.754 154.168C225.754 154.083 225.634 154.02 225.507 154.02H224.871C224.743 154.02 224.644 154.083 224.659 154.168L224.956 156.904C224.963 156.982 225.076 157.046 225.203 157.046Z" fill="#404040"/>
<path id="skinTone_12" d="M236.459 165.051L231.97 169.406L237.823 169.993C237.823 169.993 239.944 166.932 238.834 164.789L236.459 165.051Z" fill="#FECCAF"/>
<path id="skinTone_13" d="M231.307 174.229L236.241 174.455L237.825 169.993L231.971 169.406L231.307 174.229Z" fill="#FECCAF"/>
</g>
<g id="Character 1">
<path id="shoesColor_7" d="M116.863 286.959C117.421 287.025 117.983 286.886 118.447 286.571C118.511 286.498 118.553 286.409 118.565 286.313C118.578 286.217 118.561 286.119 118.518 286.033C118.486 285.962 118.438 285.899 118.378 285.848C118.318 285.798 118.247 285.762 118.171 285.743C117.337 285.51 115.343 286.542 115.287 286.585C115.264 286.597 115.244 286.616 115.231 286.638C115.217 286.66 115.21 286.686 115.209 286.712C115.21 286.736 115.218 286.76 115.234 286.779C115.249 286.798 115.27 286.812 115.294 286.818C115.812 286.911 116.337 286.958 116.863 286.959ZM117.839 285.955C117.916 285.944 117.995 285.944 118.072 285.955C118.118 285.965 118.162 285.985 118.199 286.015C118.236 286.044 118.265 286.082 118.284 286.125C118.348 286.281 118.284 286.351 118.284 286.394C117.994 286.733 116.679 286.74 115.732 286.606C116.391 286.267 117.104 286.047 117.839 285.955Z" fill="#171717"/>
<path id="shoesColor_8" d="M115.315 286.844H115.372C116.036 286.568 117.443 285.429 117.436 284.857C117.436 284.715 117.358 284.546 117.026 284.51C116.772 284.486 116.518 284.562 116.319 284.722C115.773 285.273 115.394 285.967 115.223 286.723C115.216 286.743 115.216 286.765 115.222 286.786C115.229 286.806 115.241 286.824 115.259 286.836C115.277 286.844 115.296 286.847 115.315 286.844ZM116.892 284.722H116.97C117.182 284.722 117.189 284.828 117.189 284.857C117.189 285.21 116.22 286.094 115.52 286.476C115.675 285.869 115.993 285.317 116.439 284.878C116.568 284.775 116.728 284.72 116.892 284.722Z" fill="#171717"/>
<path id="skinTone_14" d="M109.624 286.69H114.82L117.104 274.662H111.908L109.624 286.69Z" fill="#FECCAF"/>
<path id="shoesColor_9" d="M114.868 286.088H109.212C109.103 286.091 108.998 286.128 108.909 286.192C108.821 286.256 108.754 286.346 108.717 286.449L107 291.087C106.954 291.187 106.935 291.297 106.943 291.407C106.952 291.517 106.989 291.623 107.049 291.715C107.11 291.807 107.193 291.882 107.291 291.933C107.388 291.983 107.497 292.009 107.608 292.006C109.665 292.006 112.634 291.851 115.207 291.851C118.212 291.851 117.936 292.02 121.464 292.02C123.585 292.02 124.504 289.864 123.642 289.666C119.711 288.775 119.251 288.683 116.063 286.519C115.719 286.254 115.302 286.103 114.868 286.088Z" fill="#171717"/>
<path id="shadowColor_6" opacity="0.2" d="M117.103 274.67L115.923 280.871H110.727L111.907 274.67H117.103Z" fill="#404040"/>
<path id="skinTone_15" d="M117.492 157.096L120.893 160.666L115.407 162.583C115.407 162.583 113.413 159.669 114.947 157.676L117.492 157.096Z" fill="#FECCAF"/>
<path id="skinTone_16" d="M121.911 165.66L116.482 166.452L115.407 162.584L120.893 160.668L121.911 165.66Z" fill="#FECCAF"/>
<path id="objectTertiary" d="M97.1105 186.731L123.607 187.897C124.23 187.906 124.836 187.699 125.324 187.313C125.812 186.926 126.152 186.384 126.287 185.776L129.454 169.584C129.52 169.31 129.523 169.024 129.464 168.748C129.404 168.472 129.283 168.214 129.11 167.991C128.937 167.768 128.716 167.587 128.463 167.462C128.211 167.336 127.933 167.269 127.651 167.265L101.154 166.098C100.532 166.089 99.9266 166.295 99.4395 166.681C98.9524 167.068 98.6141 167.611 98.482 168.219L95.3077 184.411C95.2419 184.686 95.2387 184.971 95.2983 185.247C95.3578 185.523 95.4786 185.782 95.6517 186.004C95.8249 186.227 96.0459 186.408 96.2984 186.534C96.5509 186.659 96.8284 186.727 97.1105 186.731Z" fill="#404040"/>
<path id="objectPrimary" d="M98.926 191.707L131.658 193.121C132.4 193.148 133.124 192.889 133.682 192.399C134.239 191.908 134.588 191.223 134.656 190.484L136.388 170.389C136.423 170.031 136.384 169.67 136.275 169.328C136.165 168.986 135.986 168.671 135.75 168.4C135.513 168.13 135.224 167.911 134.9 167.757C134.576 167.603 134.223 167.516 133.864 167.504L101.139 166.09C100.397 166.065 99.6726 166.323 99.1144 166.813C98.5563 167.303 98.2057 167.988 98.1342 168.727L96.4022 188.822C96.3672 189.18 96.4058 189.54 96.5155 189.882C96.6253 190.224 96.8039 190.54 97.0403 190.81C97.2768 191.081 97.5661 191.3 97.8904 191.454C98.2147 191.608 98.5672 191.694 98.926 191.707Z" fill="#241C4F"/>
<path id="objectPrimary_2" d="M122.942 172.829H122.857L113.355 172.411C113.108 172.402 112.865 172.342 112.642 172.236C112.418 172.129 112.219 171.979 112.056 171.793C111.892 171.607 111.768 171.39 111.692 171.155C111.615 170.919 111.587 170.671 111.609 170.425L111.984 166.09C112.074 165.203 112.497 164.382 113.167 163.794C113.837 163.205 114.705 162.891 115.596 162.915L121.959 163.198C122.419 163.216 122.87 163.328 123.285 163.526C123.701 163.724 124.071 164.005 124.375 164.351C124.678 164.697 124.908 165.101 125.051 165.538C125.193 165.976 125.245 166.438 125.204 166.896L124.843 171.096C124.796 171.569 124.576 172.007 124.225 172.327C123.874 172.647 123.417 172.826 122.942 172.829ZM113.751 170.304L122.737 170.7L123.083 166.712C123.103 166.538 123.086 166.361 123.034 166.193C122.982 166.026 122.896 165.87 122.781 165.738C122.666 165.605 122.525 165.497 122.366 165.422C122.208 165.346 122.035 165.304 121.86 165.298L115.497 165.015C115.151 165.013 114.816 165.137 114.555 165.365C114.294 165.593 114.127 165.909 114.083 166.253L113.751 170.304Z" fill="#241C4F"/>
<path id="objectPrimary_3" d="M135.16 193.299L102.434 191.885C101.687 191.843 100.983 191.523 100.459 190.988C99.9359 190.453 99.6317 189.741 99.6064 188.993L99.1681 168.763C99.1537 168.407 99.214 168.052 99.3453 167.72C99.4766 167.389 99.6759 167.088 99.9303 166.838C100.185 166.589 100.489 166.395 100.823 166.27C101.156 166.145 101.513 166.091 101.869 166.112L134.601 167.526C135.349 167.566 136.054 167.886 136.578 168.421C137.102 168.957 137.405 169.669 137.429 170.418L137.86 190.683C137.868 191.036 137.802 191.386 137.668 191.713C137.534 192.039 137.333 192.334 137.08 192.58C136.827 192.825 136.525 193.016 136.195 193.14C135.864 193.263 135.512 193.318 135.16 193.299Z" fill="#241C4F"/>
<path id="t-shirt2Color" d="M125.468 117.549C125.122 118.256 124.712 119.055 124.344 119.833C123.976 120.61 123.637 121.416 123.248 122.223C122.541 123.821 121.834 125.44 121.226 127.059C120.618 128.678 120.053 130.312 119.551 131.931C119.317 132.737 119.077 133.55 118.9 134.349C118.794 134.752 118.702 135.155 118.632 135.544L118.519 136.138C118.476 136.336 118.434 136.548 118.42 136.682C118.42 137.001 118.335 137.276 118.321 137.693C118.306 138.111 118.271 138.457 118.271 138.888C118.271 139.709 118.271 140.585 118.271 141.455C118.306 143.216 118.413 144.991 118.519 146.815C118.724 150.428 119.028 154.098 119.31 157.718L112.835 158.764C111.958 155.081 111.265 151.425 110.643 147.692C110.346 145.825 110.092 143.937 109.879 142.035C109.78 141.059 109.681 140.09 109.632 139.065C109.59 138.57 109.583 138.026 109.575 137.488C109.568 136.951 109.575 136.343 109.639 135.735C109.653 135.458 109.682 135.182 109.724 134.908L109.823 134.13C109.879 133.607 109.957 133.097 110.049 132.602C110.219 131.584 110.431 130.601 110.643 129.619C111.102 127.667 111.626 125.758 112.248 123.905C112.87 122.053 113.527 120.214 114.263 118.418C114.63 117.52 114.97 116.622 115.408 115.739C115.846 114.855 116.193 113.992 116.68 113.023L125.468 117.549Z" fill="#7269A3"/>
<path id="pantsPrimary_3" d="M139.634 154.564C139.634 154.564 134.636 193.397 131.744 209.243C128.732 225.718 118.036 279.668 118.036 279.668H109.234C109.234 279.668 113.717 226.68 115.703 210.502C117.873 192.86 121.359 154.564 121.359 154.564H139.634Z" fill="#595959"/>
<path id="pantsSecondary_3" d="M120.242 276.162C120.285 276.162 119.21 279.818 119.21 279.818H108.507L108.698 276.558L120.242 276.162Z" fill="#404040"/>
<path id="faceDetails_6" d="M143.89 90.0646C143.89 90.503 144.123 90.8636 144.413 90.8636C144.703 90.8636 144.929 90.503 144.929 90.0646C144.929 89.6262 144.696 89.2656 144.413 89.2656C144.13 89.2656 143.89 89.6262 143.89 90.0646Z" fill="#171717"/>
<path id="noseColor_2" d="M144.082 90.8633C144.615 92.2079 145.328 93.4734 146.203 94.6249C145.899 94.8402 145.552 94.9865 145.185 95.0537C144.819 95.1209 144.443 95.1073 144.082 95.0138V90.8633Z" fill="#FEB084"/>
<path id="hairColor_5" d="M142.334 87.6268C142.388 87.6279 142.441 87.6104 142.483 87.5773C142.741 87.3797 143.042 87.2465 143.362 87.1887C143.681 87.1309 144.01 87.1502 144.321 87.245C144.385 87.2682 144.455 87.2657 144.517 87.238C144.579 87.2103 144.628 87.1595 144.653 87.0965C144.677 87.0317 144.675 86.9603 144.647 86.8971C144.619 86.8339 144.568 86.7838 144.505 86.7571C144.113 86.6355 143.698 86.6087 143.293 86.6787C142.889 86.7488 142.507 86.9138 142.179 87.1601C142.124 87.201 142.088 87.2616 142.077 87.3289C142.067 87.3963 142.083 87.4651 142.122 87.5207C142.146 87.5543 142.178 87.5815 142.215 87.6C142.252 87.6184 142.293 87.6276 142.334 87.6268Z" fill="#171717"/>
<path id="skinTone_17" d="M129.97 94.9219C130.677 98.726 131.455 105.684 128.797 108.222C128.797 108.222 129.836 112.076 136.899 112.076C144.675 112.076 140.603 108.222 140.603 108.222C136.361 107.211 136.482 104.064 137.217 101.151L129.97 94.9219Z" fill="#FECCAF"/>
<path id="t-shirt2Color_2" d="M127.777 109.545C127.225 108.329 126.61 106.929 127.876 106.49C129.29 106.01 136.904 105.522 139.534 106.42C139.881 106.516 140.205 106.68 140.488 106.902C140.771 107.125 141.007 107.401 141.183 107.715C141.358 108.03 141.47 108.376 141.511 108.734C141.552 109.091 141.521 109.454 141.421 109.799L127.777 109.545Z" fill="#7269A3"/>
<path id="t-shirt2Color_3" d="M118.567 109.714C114.021 111.778 111.193 127.433 111.193 127.433L120.108 130.261C121.86 126.127 123.315 121.874 124.463 117.534C126.082 110.993 123.219 107.606 118.567 109.714Z" fill="#7269A3"/>
<path id="skinTone_18" d="M173.914 148.479H179.4L178.439 155.04C178.439 155.04 174.141 154.885 172.189 151.639L173.914 148.479Z" fill="#FECCAF"/>
<path id="skinTone_19" d="M184.563 150.762L181.806 155.832L178.412 155.054L179.374 148.492L184.563 150.762Z" fill="#FECCAF"/>
<path id="skinTone_20" d="M129.22 89.1298C129.552 94.5319 129.475 97.7138 132.204 100.486C136.304 104.657 142.971 102.183 144.257 96.7875C145.424 91.9369 144.681 83.9116 139.393 81.762C138.23 81.2823 136.963 81.1083 135.713 81.2563C134.463 81.4044 133.272 81.8697 132.252 82.608C131.233 83.3463 130.419 84.3331 129.888 85.4746C129.358 86.6161 129.128 87.8744 129.22 89.1298Z" fill="#FECCAF"/>
<path id="hairColor_6" d="M128.598 96.478C128.598 96.478 123.72 89.1385 124.766 84.3516C125.735 79.9677 135.611 78.4121 139.711 78.8505C144.066 79.3243 145.763 81.198 143.374 84.9738C141.964 85.6422 140.481 86.1429 138.955 86.4658C138.955 86.4658 141.38 89.4496 141.401 91.4153C140.694 91.783 138.51 92.6598 138.51 92.6598C138.51 92.6598 135.413 100.296 135.321 100.289C134.126 100.141 131.362 100.098 130.372 100.473C129.671 99.1931 129.077 97.8568 128.598 96.478Z" fill="#171717"/>
<path id="skinTone_21" d="M136.368 91.8754C136.726 93.1669 137.495 94.3064 138.559 95.1209C139.973 96.1815 141.027 95.1704 140.92 93.5865C140.829 92.1723 139.98 89.8885 138.425 89.443C136.87 88.9976 135.958 90.3198 136.368 91.8754Z" fill="#FECCAF"/>
<path id="shadowColor_7" opacity="0.3" d="M135.887 169.08C128.937 170.692 130.231 195.836 131.567 210.169C131.631 209.843 131.68 209.539 131.737 209.242C133.462 199.81 135.929 182.232 137.647 169.547C137.112 169.238 136.504 169.077 135.887 169.08Z" fill="#404040"/>
<path id="shoesColor_10" d="M142.61 286.959C143.274 286.959 143.918 286.868 144.137 286.571C144.193 286.492 144.224 286.398 144.224 286.302C144.224 286.205 144.193 286.111 144.137 286.033C144.095 285.961 144.039 285.898 143.972 285.848C143.905 285.798 143.829 285.763 143.748 285.743C142.885 285.51 141.069 286.542 140.991 286.585C140.97 286.598 140.954 286.617 140.944 286.64C140.934 286.663 140.93 286.688 140.934 286.712C140.939 286.737 140.951 286.761 140.968 286.78C140.986 286.798 141.008 286.812 141.033 286.818C141.554 286.909 142.081 286.957 142.61 286.959ZM143.437 285.955C143.514 285.944 143.593 285.944 143.67 285.955C143.72 285.965 143.767 285.985 143.808 286.015C143.85 286.044 143.885 286.082 143.911 286.125C144.002 286.281 143.967 286.351 143.911 286.394C143.67 286.733 142.355 286.74 141.387 286.606C142.021 286.258 142.718 286.037 143.437 285.955Z" fill="#171717"/>
<path id="shoesColor_11" d="M141.04 286.845H141.09C141.719 286.569 142.963 285.431 142.864 284.858C142.864 284.717 142.744 284.547 142.404 284.512C142.278 284.493 142.149 284.502 142.027 284.538C141.905 284.575 141.792 284.638 141.698 284.724C141.033 285.268 140.899 286.661 140.892 286.725C140.889 286.746 140.892 286.768 140.901 286.788C140.909 286.808 140.923 286.825 140.941 286.838C140.972 286.853 141.007 286.855 141.04 286.845ZM142.306 284.724H142.383C142.602 284.724 142.617 284.83 142.624 284.858C142.68 285.212 141.832 286.096 141.21 286.477C141.271 285.883 141.518 285.324 141.917 284.879C142.024 284.784 142.162 284.729 142.306 284.724Z" fill="#171717"/>
<path id="skinTone_22" d="M135.329 286.69H140.525L141.041 274.662H135.852L135.329 286.69Z" fill="#FECCAF"/>
<path id="shoesColor_12" d="M140.49 286.088H134.834C134.73 286.089 134.629 286.125 134.549 286.19C134.468 286.256 134.411 286.347 134.389 286.449L133.35 291.087C133.325 291.198 133.326 291.314 133.353 291.425C133.379 291.536 133.43 291.639 133.502 291.728C133.574 291.816 133.665 291.887 133.769 291.935C133.872 291.984 133.985 292.008 134.099 292.006C136.142 292.006 139.097 291.851 141.671 291.851C144.682 291.851 147.277 292.02 150.805 292.02C152.926 292.02 153.526 289.864 152.636 289.666C148.571 288.775 145.255 288.683 141.741 286.519C141.374 286.259 140.94 286.109 140.49 286.088Z" fill="#171717"/>
<path id="shadowColor_8" opacity="0.2" d="M141.04 274.67L140.771 280.871H135.575L135.844 274.67H141.04Z" fill="#404040"/>
<path id="pantsPrimary_4" d="M148.903 154.564C148.903 154.564 149.61 193.397 149.052 209.243C148.465 225.718 142.689 279.668 142.689 279.668H133.916C133.916 279.668 133.59 226.68 133.209 210.502C132.777 192.86 130.649 154.564 130.649 154.564H148.903Z" fill="#595959"/>
<path id="pantsSecondary_4" d="M144.406 276.162C144.441 276.162 143.904 279.818 143.904 279.818H133.208L132.918 276.558L144.406 276.162Z" fill="#404040"/>
<path id="t-shirt2Color_4" d="M148.593 109.665C148.593 109.665 154.828 119.168 149.604 157.824H120.264C120.074 153.582 123.616 129.492 119.501 109.396C122.571 108.805 125.677 108.413 128.798 108.223C132.73 107.996 136.672 107.996 140.604 108.223C143.3 108.494 145.971 108.977 148.593 109.665Z" fill="#7269A3"/>
<path id="shadowColor_9" opacity="0.2" d="M151.69 129.442L145.539 119.268C145.539 119.268 147.851 133.72 151.393 140.24C151.633 136.139 151.718 132.561 151.69 129.442Z" fill="#404040"/>
<path id="t-shirt2Color_5" d="M154.311 117.104C155.322 120.328 156.432 123.644 157.57 126.875C158.708 130.107 159.896 133.338 161.197 136.428L161.692 137.573C161.736 137.658 161.774 137.745 161.805 137.835C161.834 137.901 161.867 137.965 161.904 138.026C162.217 138.494 162.583 138.926 162.992 139.313C164.106 140.354 165.305 141.3 166.577 142.141C167.906 143.067 169.313 143.958 170.762 144.8C172.211 145.641 173.71 146.504 175.138 147.239L172.388 153.667C168.908 152.389 165.531 150.848 162.285 149.056C160.549 148.087 158.894 146.978 157.337 145.74C156.407 144.992 155.565 144.14 154.827 143.202C154.615 142.905 154.41 142.636 154.205 142.297C154 141.957 153.774 141.533 153.71 141.392L153.088 140.154C151.469 136.859 150.02 133.564 148.683 130.255C147.347 126.946 146.103 123.616 144.908 120.179L154.311 117.104Z" fill="#7269A3"/>
<path id="t-shirt2Color_6" d="M141.663 112.006C139.846 116.631 150.896 135.248 150.896 135.248L158.086 128.375C158.086 128.375 156.516 122.521 154.423 115.485C152.359 108.563 143.395 107.587 141.663 112.006Z" fill="#7269A3"/>
</g>
</g>
</g>
</svg>
