<svg width="52" height="48" viewBox="0 0 52 48" xmlns="http://www.w3.org/2000/svg">
<path fill-rule="evenodd" clip-rule="evenodd" d="M48.8138 20.8271V36.8851C50.3361 38.2268 51.2 40.1285 51.2 42.1785V46.8696C51.2 47.4238 50.7507 47.873 50.1966 47.873H25.8321C25.7575 47.8908 25.6801 47.9011 25.6 47.9011H1.0034C0.4492 47.9011 0 47.4519 0 46.8977V42.2066C0 38.3108 3.1695 35.1413 7.0653 35.1414H10.2885V32.9028C9.4063 32.5246 8.5948 31.9793 7.8954 31.2805C6.5204 29.9055 5.7354 28.0994 5.6627 26.1675H5.5441C3.8028 26.1675 2.3862 24.7509 2.3862 23.0096C2.3862 22.1648 2.7151 21.3715 3.3123 20.7759C3.5781 20.5093 3.885 20.298 4.2196 20.1436V19.9842C4.2196 16.7631 5.95 13.7549 8.7357 12.1328L8.7367 12.1322C10.1177 11.3275 11.6963 10.902 13.302 10.902C18.3099 10.902 22.3842 14.9763 22.3842 19.9842V20.142C22.7178 20.2964 23.0251 20.5099 23.2923 20.7778C23.8876 21.3715 24.2164 22.1648 24.2164 23.0096C24.2164 24.7508 22.7998 26.1675 21.0585 26.1675H20.9396C20.8246 29.1876 18.9508 31.7644 16.3141 32.8992V35.1413H19.5382C22.0968 35.1413 24.3462 36.5149 25.5863 38.5628C25.9569 37.9419 26.4257 37.3761 26.9828 36.8851V20.8271V19.922C26.9828 13.9032 31.8795 9.0065 37.8983 9.0065C43.9171 9.0065 48.8138 13.9032 48.8138 19.922V20.8271ZM21.0584 21.8586H20.947V24.1606H21.0584C21.6931 24.1606 22.2094 23.6443 22.2094 23.0096C22.2094 22.7018 22.0898 22.4132 21.873 22.1969C21.6548 21.978 21.3662 21.8586 21.0584 21.8586ZM5.6554 24.1606H5.544C4.9094 24.1606 4.393 23.6443 4.393 23.0096C4.393 22.7018 4.5124 22.4132 4.7315 22.1948C4.8838 22.0421 5.0712 21.9377 5.278 21.8895C5.4034 21.8887 5.5294 21.8852 5.6554 21.8788V24.1606ZM20.367 19.6044C20.169 15.8789 17.0757 12.9089 13.3017 12.9089C12.3034 12.9089 11.3191 13.1196 10.4164 13.5231C10.7849 14.7107 11.4053 15.8156 12.2342 16.7526C13.9106 18.6476 16.3215 19.7344 18.8489 19.7344C19.1817 19.7344 19.5117 19.7159 19.8297 19.6796L19.8355 19.679C20.0129 19.6598 20.1903 19.6349 20.367 19.6044ZM6.3988 19.775L6.3824 19.778C6.33126 19.7876 6.2801 19.7971 6.2287 19.8051C6.2798 17.8056 7.1852 15.9263 8.6752 14.6335C9.0465 15.6458 9.5687 16.6007 10.2234 17.4619C9.2998 18.6274 7.9886 19.4448 6.5305 19.7486C6.4856 19.7544 6.4417 19.7634 6.3988 19.775ZM7.6623 25.8734C7.6623 27.3797 8.2489 28.7958 9.3141 29.8608C10.3794 30.9253 11.7956 31.5116 13.3016 31.5116C16.4106 31.5116 18.94 28.9822 18.94 25.8732V25.1638V21.7398L18.9024 21.7404H18.9023C18.8845 21.7408 18.8666 21.7411 18.8487 21.7411C16.1578 21.7411 13.5749 20.7369 11.5946 18.9528C10.5566 20.1652 9.1881 21.064 7.6623 21.529V25.164V25.8734ZM14.3072 33.5187V35.1413H12.2953V33.5187H14.3072ZM2.0069 42.2066V45.8943H24.5965H24.5966V42.183C24.5841 39.4069 22.3148 37.1482 19.5382 37.1482H7.0653C4.2761 37.1482 2.0069 39.4174 2.0069 42.2066ZM37.8983 31.4847C36.3918 31.4847 34.9762 30.8982 33.9117 29.833C32.8465 28.7677 32.2599 27.3516 32.2599 25.8454V21.2112C33.0023 20.9319 33.7192 20.5787 34.399 20.1557C35.7778 19.2968 36.9666 18.1737 37.8992 16.8575C39.2996 18.8278 41.2732 20.355 43.5367 21.2085V25.8454C43.5367 28.9549 41.0073 31.4847 37.8983 31.4847ZM38.9037 35.1132V33.5187H36.8928V35.1132H38.9037ZM30.1406 26.1674H30.2608C30.34 28.0888 31.1245 29.884 32.4922 31.2517C33.1914 31.9514 34.0032 32.4973 34.8858 32.8758V35.1132H31.6618C30.7306 35.1132 29.8289 35.2921 28.9896 35.6357V25.9493C29.3466 26.0895 29.7345 26.1674 30.1406 26.1674ZM29.3282 22.1947C29.1091 22.4132 28.9897 22.7018 28.9897 23.0096C28.9897 23.6442 29.506 24.1606 30.1406 24.1605H30.253V21.8586H30.1406C30.0744 21.8586 30.0123 21.8638 29.956 21.8739L29.9441 21.876C29.7099 21.9152 29.497 22.0254 29.3282 22.1947ZM40.9106 32.872C43.5391 31.7405 45.41 29.176 45.5354 26.1675H45.656C46.0563 26.1675 46.4449 26.0926 46.807 25.9511V35.6359C45.9677 35.2922 45.066 35.1133 44.1348 35.1133H40.9106V32.872ZM45.656 21.8586H45.5437H45.5436V24.1605H45.656C45.9632 24.1605 46.2522 24.0407 46.4696 23.8232C46.6872 23.6058 46.8069 23.3168 46.8069 23.0095C46.8069 22.4458 46.3882 21.9568 45.8329 21.8722C45.7738 21.8628 45.7164 21.8586 45.656 21.8586ZM28.9895 19.922C28.9897 15.0098 32.9861 11.0134 37.8983 11.0134C42.8106 11.0134 46.8069 15.0098 46.8069 19.922V19.9269C46.5872 19.9052 46.3687 19.8784 46.1526 19.8426C45.7143 19.7717 45.2731 19.6686 44.8408 19.5364L44.8336 19.5343C42.2396 18.7391 40.037 16.8938 38.7905 14.4716C38.6185 14.1373 38.2741 13.9273 37.8982 13.9273C37.5223 13.9273 37.1779 14.1374 37.0059 14.4717C36.1658 16.1044 34.8975 17.4807 33.3382 18.4519C32.6016 18.9102 31.8135 19.271 30.9949 19.5245L29.5767 19.8538C29.383 19.8846 29.1868 19.9078 28.9894 19.9272V19.922H28.9895ZM26.6034 45.8662H49.1931V42.1785C49.1931 40.5883 48.4671 39.1219 47.2012 38.1555H47.2011C46.3144 37.4782 45.2539 37.1202 44.1346 37.1202H40.1392C40.0646 37.138 39.9872 37.1483 39.9071 37.1483H35.8893C35.8093 37.1483 35.7319 37.1379 35.6572 37.1202H31.6618C30.6117 37.1202 29.6135 37.4352 28.7619 38.0334C28.667 38.1489 28.5464 38.242 28.4093 38.3059C27.2592 39.2706 26.6034 40.6682 26.6034 42.1785V45.8662Z"/>
<path fill-rule="evenodd" clip-rule="evenodd" d="M25.5877 0.482385C26.0924 0.229985 26.6479 0.0987854 27.2252 0.0987854C29.2531 0.0987854 30.9027 1.74859 30.9029 3.77639C30.9029 6.63729 27.9156 8.33158 26.6399 9.05509L26.6395 9.05531C26.4841 9.14337 26.2923 9.25212 26.2299 9.29559C26.0441 9.45049 25.8158 9.52799 25.5877 9.52799C25.3595 9.52799 25.1314 9.45049 24.9455 9.29559C24.8833 9.25236 24.6924 9.14408 24.5375 9.05617L24.5356 9.05509C23.2599 8.33169 20.2725 6.63739 20.2725 3.77639C20.2725 1.74859 21.9222 0.0987854 23.9501 0.0987854C24.5275 0.0987854 25.083 0.229885 25.5877 0.482385ZM25.5877 7.34479L25.6499 7.30949C26.7035 6.71199 28.896 5.46849 28.8959 3.77649C28.8959 2.85529 28.1465 2.10579 27.2251 2.10579C26.8515 2.10579 26.4979 2.22689 26.2027 2.45599C25.8409 2.73699 25.3344 2.73699 24.9723 2.45599C24.6772 2.22689 24.3237 2.10579 23.95 2.10579C23.0288 2.10579 22.2793 2.85519 22.2793 3.77649C22.2793 5.46825 24.4712 6.71154 25.525 7.30923L25.5255 7.30949L25.5877 7.34479Z"/>
<path fill-rule="evenodd" clip-rule="evenodd" d="M44.0582 42.5638H38.4389C37.8848 42.5638 37.4355 43.013 37.4355 43.5672C37.4355 44.1214 37.8848 44.5706 38.4389 44.5706H44.0582C44.6123 44.5706 45.0616 44.1214 45.0616 43.5672C45.0616 43.013 44.6124 42.5638 44.0582 42.5638Z"/>
<path fill-rule="evenodd" clip-rule="evenodd" d="M47.2691 42.5638C45.9778 42.5638 45.9756 44.5707 47.2691 44.5707C48.5604 44.5707 48.5625 42.5638 47.2691 42.5638Z"/>
</svg>
