<svg width="27" height="24" viewBox="0 0 27 24" fill="none" xmlns="http://www.w3.org/2000/svg">
<path d="M2.7 21.3449H8.0875V23.9865H0.0125V8.00532L10.8 0.0145921L18.0237 5.39036C17.4718 5.45813 16.9524 5.58489 16.4655 5.77068C15.9723 5.9589 15.5014 6.20766 15.0528 6.51695L10.8075 3.32237L10.8001 3.31676L10.7926 3.32231L2.69256 9.32231L2.6875 9.31548V9.33236V21.3324V21.3449H2.7ZM13.6964 21.3215L13.6549 21.3449H13.7025H24.0975H24.1451L24.1036 21.3215C23.3152 20.8765 22.4816 20.5427 21.6031 20.3202C20.7245 20.0978 19.8235 19.9865 18.9 19.9865C17.9765 19.9865 17.0755 20.0978 16.1969 20.3202C15.3184 20.5427 14.4848 20.8765 13.6964 21.3215ZM10.8125 23.9865V21.4657C10.8125 21.0012 10.93 20.5645 11.1652 20.1553C11.4004 19.746 11.7195 19.4198 12.1226 19.1765C13.1567 18.577 14.2413 18.1219 15.3764 17.8111C16.5116 17.5003 17.6861 17.3449 18.9 17.3449C20.1139 17.3449 21.2884 17.5003 22.4236 17.8111C23.5588 18.1219 24.6434 18.577 25.6774 19.1765C26.0805 19.4198 26.3996 19.746 26.6348 20.1553C26.87 20.5645 26.9875 21.0012 26.9875 21.4657V23.9865H10.8125ZM18.9 15.9865C17.7782 15.9865 16.8252 15.5989 16.04 14.8235C15.2549 14.048 14.8625 13.1068 14.8625 11.999C14.8625 10.8912 15.2549 9.95 16.04 9.17458C16.8252 8.39916 17.7782 8.01152 18.9 8.01152C20.0218 8.01152 20.9749 8.39916 21.76 9.17458C22.5451 9.95 22.9375 10.8912 22.9375 11.999C22.9375 13.1068 22.5451 14.048 21.76 14.8235C20.9749 15.5989 20.0218 15.9865 18.9 15.9865ZM18.9 13.3449C19.2856 13.3449 19.6094 13.2159 19.8707 12.9579C20.1319 12.6999 20.2625 12.38 20.2625 11.999C20.2625 11.618 20.1319 11.2981 19.8707 11.0401C19.6094 10.7821 19.2856 10.6532 18.9 10.6532C18.5144 10.6532 18.1906 10.7821 17.9293 11.0401C17.6681 11.2981 17.5375 11.618 17.5375 11.999C17.5375 12.38 17.6681 12.6999 17.9293 12.9579C18.1906 13.2159 18.5144 13.3449 18.9 13.3449Z" fill="#023DA7" stroke="#023DA7" stroke-width="0.025"/>
</svg>
