<svg width="49" height="49" viewBox="0 0 49 49" xmlns="http://www.w3.org/2000/svg">
<path fill-rule="evenodd" clip-rule="evenodd" d="M37.0502 10.5993C37.0502 15.3382 33.1949 19.1936 28.4559 19.1936C23.7171 19.1936 19.8617 15.3382 19.8617 10.5993C19.8617 5.86084 23.7171 2.00541 28.4559 2.00541C33.1949 2.00541 37.0502 5.86084 37.0502 10.5993ZM17.9521 10.5993C17.9521 16.3912 22.6642 21.1036 28.4559 21.1036C34.2478 21.1036 38.9598 16.3912 38.9598 10.5993C38.9598 4.80748 34.2478 0.095459 28.4559 0.095459C22.6642 0.095459 17.9521 4.80748 17.9521 10.5993Z" />
<path fill-rule="evenodd" clip-rule="evenodd" d="M6.17269 33.3606C6.48761 33.0457 6.97111 32.989 7.35509 33.2263C7.52033 33.327 7.0458 32.895 15.6259 41.4631C16.0076 41.8448 15.987 42.4529 15.631 42.8089L11.6843 46.6971L2.30169 37.2429L6.17269 33.3606ZM18.1428 27.0237C19.6055 27.0237 21.0195 27.3181 22.3467 27.8986C22.4676 27.9516 22.5978 27.9788 22.7295 27.9788H33.5732C34.6086 27.9788 35.4832 28.8232 35.4832 29.8884C35.4832 30.9418 34.6266 31.7985 33.5732 31.7985H25.7823C25.2551 31.7985 24.8276 32.226 24.8276 32.7532C24.8276 33.2808 25.2551 33.708 25.7823 33.708H33.5732C35.6795 33.708 37.3928 31.9946 37.3928 29.8884C37.3928 29.7206 37.3808 29.5541 37.3592 29.3892C42.81 23.7862 43.5786 22.999 43.6115 22.9597C44.292 22.1564 45.5001 22.0546 46.3038 22.7322C47.1082 23.4124 47.2101 24.6197 46.5277 25.4275L37.9629 35.6665C36.7122 36.8671 35.0702 37.5279 33.3344 37.5279H20.6401C19.3961 37.5279 18.2186 38.0036 17.3254 38.8667L16.5139 39.6498L9.03293 32.1693C10.7814 28.8892 14.0622 27.0237 18.1428 27.0237ZM10.9989 48.7175C11.369 49.0907 11.9716 49.0948 12.3466 48.7253L16.9761 44.1644C17.7627 43.3779 18.0018 42.2135 17.656 41.2012L18.6517 40.2408C19.188 39.7229 19.8938 39.4375 20.6401 39.4375H33.3344C35.5865 39.4375 37.7151 38.5726 39.3289 37.0022C39.3953 36.9376 38.8248 37.6096 47.9892 26.6565C49.3484 25.0485 49.1451 22.6336 47.5355 21.2729C45.9359 19.9249 43.5398 20.1185 42.1768 21.699L36.5421 27.4905C35.8306 26.6148 34.7456 26.0689 33.5732 26.0689H22.9251C21.4098 25.435 19.802 25.1141 18.1432 25.1141C13.545 25.1141 9.5299 27.2378 7.37524 31.2197C6.46745 31.0477 5.51009 31.3223 4.82132 32.0111L0.278646 36.5671C-0.0922444 36.9392 -0.0930086 37.541 0.277118 37.9141L10.9989 48.7175Z" />
<path fill-rule="evenodd" clip-rule="evenodd" d="M27.3102 4.8702V5.98918C26.1987 6.38319 25.4003 7.44466 25.4003 8.68972C25.4003 10.2691 26.6853 11.5545 28.265 11.5545C28.7915 11.5545 29.2198 11.9828 29.2198 12.5093C29.2198 13.0357 28.7915 13.4641 28.265 13.4641C27.8573 13.4641 27.4166 13.2078 27.0252 12.7417C26.6857 12.3381 26.0834 12.2862 25.6798 12.6253C25.276 12.9649 25.2238 13.5671 25.5633 13.9707C26.0738 14.5778 26.6741 15.001 27.3102 15.2144V16.3288C27.3102 16.8564 27.7379 17.2836 28.265 17.2836C28.7923 17.2836 29.2198 16.8564 29.2198 16.3288V15.2099C30.3313 14.8155 31.1298 13.754 31.1298 12.5093C31.1298 10.9296 29.8448 9.64451 28.265 9.64451C27.7385 9.64451 27.3102 9.21621 27.3102 8.68972C27.3102 8.16333 27.7385 7.73456 28.265 7.73456C28.6034 7.73456 28.9605 7.90735 29.2978 8.23382C29.6769 8.6006 30.2813 8.59048 30.6481 8.21176C31.0149 7.83275 31.0048 7.22822 30.6261 6.86153C30.1414 6.39255 29.6563 6.1272 29.2198 5.9825V4.8702C29.2198 4.34267 28.7923 3.91504 28.265 3.91504C27.7379 3.91504 27.3102 4.34267 27.3102 4.8702Z" />
</svg>
