<svg width="350" height="350" viewBox="0 0 350 350" fill="none" xmlns="http://www.w3.org/2000/svg">
<g id="name=borrowers-3">
<g id="Frame 148716">
<g id="Background Complete">
<path id="backgroundExtraLight" d="M224.384 279.002H206.047V279.186H224.384V279.002Z" fill="#F4F3F2"/>
<path id="backgroundExtraLight_2" d="M146.238 283.488H111.729V283.672H146.238V283.488Z" fill="#F4F3F2"/>
<path id="backgroundExtraLight_3" d="M18.9997 273.986H107.085L107.085 79.1836H18.9997L18.9997 273.986Z" fill="#F4F3F2"/>
<path id="backgroundExtraLight_4" d="M19.0072 273.986H102.915L102.915 79.1836H19.0072L19.0072 273.986Z" fill="#F4F3F2"/>
<path id="backgroundExtraLight_5" d="M98.4941 269.565L98.4941 83.6035H23.4272L23.4272 269.565H98.4941Z" fill="#F4F3F2"/>
<path id="backgroundWhite" d="M47.6814 171.303H32.3792C31.8581 171.301 31.3589 171.094 30.9904 170.725C30.6219 170.357 30.4141 169.857 30.4121 169.336C30.4141 168.815 30.6219 168.316 30.9904 167.947C31.3589 167.579 31.8581 167.371 32.3792 167.369H47.6814C48.2025 167.371 48.7017 167.579 49.0702 167.947C49.4387 168.316 49.6466 168.815 49.6485 169.336C49.6466 169.857 49.4387 170.357 49.0702 170.725C48.7017 171.094 48.2025 171.301 47.6814 171.303Z" fill="#FDFDFD"/>
<path id="backgroundExtraLight_6" d="M24.5771 269.557L24.5771 83.5957H23.4278L23.4278 269.557H24.5771Z" fill="#F4F3F2"/>
<path id="backgroundExtraLight_7" d="M148.36 270.295H161.474V213.418H148.36V270.295Z" fill="#F4F3F2"/>
<path id="backgroundExtraLight_8" d="M94.2807 273.895H158.952V270.292H94.2807V273.895Z" fill="#F4F3F2"/>
<path id="backgroundExtraLight_9" d="M148.358 213.408H91.7617V270.285H148.358V213.408Z" fill="#F4F3F2"/>
<path id="backgroundExtraLight_10" d="M143.192 220.416H96.9102V239.07H143.192V220.416Z" fill="#F4F3F2"/>
<path id="backgroundExtraLight_11" d="M143.192 244.633H96.9102V263.287H143.192V244.633Z" fill="#F4F3F2"/>
<path id="backgroundExtraLight_12" d="M114.858 221.986H125.253C125.59 221.984 125.914 221.849 126.152 221.611C126.391 221.372 126.526 221.049 126.528 220.712C126.528 220.373 126.394 220.048 126.155 219.808C125.916 219.568 125.592 219.432 125.253 219.43H114.858C114.519 219.432 114.195 219.568 113.956 219.808C113.717 220.048 113.583 220.373 113.583 220.712C113.585 221.049 113.72 221.372 113.958 221.611C114.197 221.849 114.52 221.984 114.858 221.986Z" fill="#F4F3F2"/>
<path id="backgroundExtraLight_13" d="M114.858 246.208H125.253C125.421 246.207 125.588 246.173 125.743 246.108C125.898 246.042 126.039 245.947 126.157 245.827C126.276 245.708 126.369 245.566 126.433 245.41C126.496 245.254 126.529 245.087 126.528 244.919C126.526 244.581 126.391 244.257 126.153 244.017C125.914 243.777 125.591 243.641 125.253 243.637H114.858C114.519 243.641 114.196 243.777 113.958 244.017C113.72 244.257 113.585 244.581 113.583 244.919C113.582 245.087 113.614 245.254 113.678 245.41C113.741 245.566 113.835 245.708 113.953 245.827C114.072 245.947 114.212 246.042 114.368 246.108C114.523 246.173 114.689 246.207 114.858 246.208Z" fill="#F4F3F2"/>
<path id="backgroundExtraLight_14" d="M124.37 212.297C124.113 212.295 123.866 212.192 123.684 212.01C123.502 211.828 123.399 211.581 123.397 211.324V181.766C123.399 181.509 123.503 181.264 123.685 181.083C123.867 180.902 124.113 180.801 124.37 180.801C124.627 180.801 124.873 180.902 125.055 181.083C125.237 181.264 125.341 181.509 125.342 181.766V211.324C125.341 211.581 125.237 211.828 125.055 212.01C124.874 212.192 124.627 212.295 124.37 212.297Z" fill="#F4F3F2"/>
<path id="backgroundExtraLight_15" d="M133.468 211.148H115.271V213.44H133.468V211.148Z" fill="#F4F3F2"/>
<path id="backgroundExtraLight_16" d="M129.409 194.617C129.28 194.617 129.156 194.566 129.065 194.474C128.974 194.383 128.923 194.26 128.923 194.131V179.351C128.923 179.223 128.974 179.099 129.065 179.008C129.156 178.916 129.28 178.865 129.409 178.865C129.538 178.865 129.662 178.916 129.753 179.008C129.844 179.099 129.895 179.223 129.895 179.351V194.123C129.896 194.188 129.884 194.252 129.86 194.312C129.836 194.371 129.801 194.426 129.756 194.472C129.71 194.518 129.656 194.554 129.597 194.579C129.537 194.604 129.474 194.617 129.409 194.617Z" fill="#F4F3F2"/>
<path id="backgroundExtraLight_17" d="M110.218 184.463C110.218 184.463 110.579 170.561 124.371 170.561C138.163 170.561 138.516 184.463 138.516 184.463H110.218Z" fill="#F4F3F2"/>
<path id="backgroundExtraLight_18" d="M229.606 204.143C229.996 204.143 230.394 204.143 230.792 204.179C234.867 204.474 238.698 206.231 241.581 209.127C244.463 212.022 246.202 215.862 246.477 219.938C246.593 221.79 246.409 223.649 245.932 225.442C244.085 232.632 243.193 240.033 243.28 247.456V269.087C243.28 269.839 242.981 270.56 242.449 271.092C241.917 271.624 241.195 271.923 240.443 271.923H171.815V204.143H229.606Z" fill="#F4F3F2"/>
<path id="backgroundExtraLight_19" d="M154.908 221.049C154.915 218.646 155.435 216.272 156.433 214.085C157.43 211.898 158.883 209.95 160.693 208.369C162.504 206.788 164.631 205.612 166.932 204.918C169.233 204.225 171.655 204.03 174.038 204.347C176.42 204.664 178.708 205.485 180.747 206.756C182.787 208.027 184.532 209.719 185.867 211.718C187.201 213.717 188.093 215.978 188.485 218.349C188.876 220.72 188.757 223.148 188.135 225.47C186.295 232.66 185.405 240.061 185.49 247.484V269.085C185.49 269.458 185.417 269.827 185.274 270.172C185.131 270.517 184.921 270.83 184.657 271.093C184.393 271.357 184.079 271.565 183.734 271.708C183.389 271.85 183.02 271.922 182.647 271.921H160.979C160.227 271.921 159.505 271.622 158.973 271.091C158.441 270.559 158.143 269.837 158.143 269.085V246.194C158.206 239.231 157.323 232.291 155.52 225.565C155.113 224.094 154.908 222.575 154.908 221.049Z" fill="#F4F3F2"/>
<path id="backgroundExtraLight_20" d="M195.114 271.928H256.713V230.773H195.114V271.928Z" fill="#F4F3F2"/>
<path id="backgroundExtraLight_21" d="M307.62 240.072H225.171V176.948C225.171 173.556 226.518 170.303 228.917 167.904C231.316 165.506 234.569 164.158 237.961 164.158H294.83C298.222 164.158 301.475 165.506 303.874 167.904C306.273 170.303 307.62 173.556 307.62 176.948V240.072Z" fill="#F4F3F2"/>
<path id="backgroundExtraLight_22" d="M291.508 240.072H209.059V176.329C209.059 173.099 210.342 170.002 212.626 167.718C214.91 165.434 218.007 164.151 221.237 164.151H279.3C282.53 164.151 285.627 165.434 287.911 167.718C290.195 170.002 291.478 173.099 291.478 176.329V240.072H291.508Z" fill="#F4F3F2"/>
<path id="backgroundExtraLight_23" d="M252.689 243.779H195.908C194.931 243.779 193.994 243.391 193.304 242.7C192.613 242.01 192.225 241.073 192.225 240.096V230.732C192.225 229.755 192.613 228.818 193.304 228.127C193.994 227.436 194.931 227.048 195.908 227.048H252.689C252.984 227.048 253.267 227.165 253.476 227.374C253.685 227.582 253.802 227.865 253.802 228.16V242.667C253.802 242.962 253.685 243.245 253.476 243.453C253.267 243.662 252.984 243.779 252.689 243.779Z" fill="#F4F3F2"/>
<path id="backgroundExtraLight_24" d="M313.699 204.143C314.089 204.143 314.48 204.143 314.885 204.179C317.371 204.362 319.786 205.091 321.957 206.313C324.129 207.536 326.004 209.223 327.45 211.253C328.895 213.284 329.874 215.608 330.318 218.061C330.762 220.513 330.66 223.034 330.018 225.442C328.17 232.634 327.279 240.038 327.366 247.463V269.087C327.366 269.46 327.292 269.829 327.149 270.174C327.006 270.518 326.796 270.831 326.532 271.095C326.268 271.358 325.954 271.567 325.61 271.709C325.265 271.851 324.895 271.924 324.522 271.923H255.901V204.143H313.699Z" fill="#F4F3F2"/>
<path id="backgroundExtraLight_25" d="M239 221.05C238.971 216.644 240.663 212.4 243.717 209.223C246.77 206.047 250.944 204.188 255.348 204.044C259.752 203.9 264.038 205.482 267.293 208.452C270.548 211.422 272.514 215.546 272.773 219.945C272.889 221.797 272.705 223.655 272.228 225.448C270.381 232.638 269.489 240.04 269.575 247.462V269.086C269.575 269.838 269.276 270.56 268.745 271.092C268.213 271.623 267.491 271.922 266.739 271.922H245.064C244.691 271.922 244.322 271.849 243.978 271.706C243.634 271.564 243.321 271.355 243.058 271.092C242.795 270.828 242.586 270.515 242.443 270.171C242.301 269.827 242.227 269.458 242.227 269.086V246.195C242.289 239.232 241.409 232.293 239.612 225.566C239.206 224.095 239 222.576 239 221.05Z" fill="#F4F3F2"/>
<path id="backgroundExtraLight_26" d="M173.018 273.985H312.492C312.762 273.985 313.03 273.931 313.28 273.828C313.53 273.724 313.757 273.572 313.948 273.38C314.139 273.188 314.29 272.961 314.393 272.711C314.496 272.461 314.548 272.192 314.547 271.922H170.963C170.962 272.192 171.014 272.461 171.117 272.711C171.22 272.961 171.371 273.188 171.562 273.38C171.753 273.572 171.98 273.724 172.23 273.828C172.48 273.931 172.748 273.985 173.018 273.985Z" fill="#F4F3F2"/>
<path id="backgroundExtraLight_27" d="M255.621 115.932H300.481V67.0044H255.621V115.932Z" fill="#F4F3F2"/>
<path id="backgroundExtraLight_28" d="M252.947 115.932H298.972V67.0044H252.947V115.932Z" fill="#F4F3F2"/>
<path id="backgroundWhite_2" d="M295.111 112.078V70.8574H256.793V112.078H295.111Z" fill="#FDFDFD"/>
<path id="backgroundExtraLight_29" d="M275.954 81.0469L286.431 99.1929H265.478L275.954 81.0469Z" fill="#F4F3F2"/>
<path id="backgroundExtraLight_30" d="M192.687 144.496H237.548V95.5689H192.687V144.496Z" fill="#F4F3F2"/>
<path id="backgroundExtraLight_31" d="M190.014 144.496H236.038V95.5689H190.014V144.496Z" fill="#F4F3F2"/>
<path id="backgroundWhite_3" d="M232.177 140.643V99.4219H193.859V140.643H232.177Z" fill="#FDFDFD"/>
<path id="backgroundExtraLight_32" d="M208.338 127.38L203.793 119.505C203.32 118.683 203.071 117.751 203.072 116.802C203.073 115.854 203.324 114.922 203.798 114.101C204.273 113.28 204.955 112.599 205.777 112.124C206.598 111.65 207.53 111.401 208.478 111.4H217.592C218.54 111.402 219.471 111.652 220.292 112.126C221.113 112.6 221.796 113.281 222.271 114.102C222.746 114.922 222.997 115.853 223 116.801C223.002 117.749 222.756 118.682 222.285 119.505L217.739 127.38C217.265 128.209 216.581 128.897 215.756 129.376C214.93 129.855 213.993 130.107 213.039 130.107C212.084 130.107 211.147 129.855 210.322 129.376C209.496 128.897 208.812 128.209 208.338 127.38Z" fill="#F4F3F2"/>
</g>
<g id="Checklist">
<path id="objectPrimary" d="M213.538 65.4043H43.7031L54.8795 296.705H224.714L213.538 65.4043Z" fill="#241C4F"/>
<path id="objectTertiary" opacity="0.2" d="M213.538 65.4043H43.7031L54.8795 296.705H224.714L213.538 65.4043Z" fill="#404040"/>
<path id="objectPrimary_2" d="M215.109 65.4043H45.2744L56.4582 296.705H226.293L215.109 65.4043Z" fill="#241C4F"/>
<path id="objectTertiary_2" opacity="0.2" d="M206.141 73.1875H53.0381L63.7356 286.254L196.865 286.077L218.99 266.458L206.141 73.1875Z" fill="#404040"/>
<path id="backgroundWhite_4" d="M207.312 73.1875C208.945 136.994 214.098 200.662 222.747 263.901C210.616 272.251 198.545 280.601 186.536 288.951H72.0314C61.224 217.494 54.8806 145.433 53.0381 73.1875H207.312Z" fill="#FDFDFD"/>
<path id="objectSecondary" d="M222.744 263.901C210.612 272.251 198.542 280.601 186.533 288.95C189.156 277.899 191.889 266.848 194.733 255.797L222.744 263.901Z" fill="#CAC5E8"/>
<path id="objectSecondary_2" d="M94.5527 92.6805C94.8425 100.485 95.1814 108.29 95.5694 116.094H72.1631C71.7701 108.285 71.4312 100.48 71.1463 92.6805H94.5527ZM96.9472 90.2051H68.5898C68.9189 99.6501 69.329 109.1 69.8202 118.555H98.1775C97.6863 109.105 97.2762 99.6551 96.9472 90.2051Z" fill="#CAC5E8"/>
<path id="objectSecondary_3" d="M190.197 101.47H110.025C109.951 99.7013 109.882 97.9381 109.818 96.1797H189.984C190.052 97.943 190.124 99.7062 190.197 101.47Z" fill="#CAC5E8"/>
<path id="objectSecondary_4" d="M173.26 112.592H110.519C110.437 110.824 110.349 109.063 110.275 107.295H173.009C173.09 109.063 173.171 110.831 173.26 112.592Z" fill="#CAC5E8"/>
<path id="objectSecondary_5" d="M96.852 138.535C97.3432 146.344 97.8908 154.153 98.4949 161.963H75.0812C74.4771 154.153 73.9294 146.344 73.4382 138.535H96.852ZM99.1654 136.066H70.8154C71.395 145.521 72.0556 154.976 72.7973 164.431H101.184C100.447 154.971 99.7842 145.516 99.1948 136.066H99.1654Z" fill="#CAC5E8"/>
<path id="objectSecondary_6" d="M141.999 147.332H112.529C112.412 145.564 112.286 143.803 112.176 142.035H141.646C141.756 143.803 141.874 145.564 141.999 147.332Z" fill="#CAC5E8"/>
<path id="objectSecondary_7" d="M169.903 147.332H148.235C148.118 145.564 147.992 143.803 147.882 142.035H169.55C169.66 143.803 169.778 145.564 169.903 147.332Z" fill="#CAC5E8"/>
<path id="objectSecondary_8" d="M183.502 158.458H113.342C113.209 156.697 113.084 154.929 112.951 153.168H183.111C183.244 154.929 183.369 156.697 183.502 158.458Z" fill="#CAC5E8"/>
<path id="objectSecondary_9" d="M100.367 184.411C101.069 192.221 101.825 200.03 102.636 207.84H79.222C78.4115 200.03 77.6552 192.221 76.9528 184.411H100.367ZM102.621 181.943H74.2637C75.0986 191.393 76.0122 200.851 77.0044 210.315H105.362C104.379 200.856 103.466 191.398 102.621 181.943Z" fill="#CAC5E8"/>
<path id="objectSecondary_10" d="M197.033 199.045H116.854L117.384 204.342H197.564L197.033 199.045Z" fill="#CAC5E8"/>
<path id="objectSecondary_11" d="M178.542 187.91H115.801C115.963 189.678 116.127 191.444 116.294 193.207H179.028C178.866 191.447 178.697 189.664 178.542 187.91Z" fill="#CAC5E8"/>
<path id="objectSecondary_12" d="M105.105 230.29C106.018 238.1 106.983 245.907 108 253.711H84.5864C83.5697 245.902 82.6045 238.095 81.691 230.29H105.105ZM107.315 227.822H78.9355C80.0161 237.258 81.1826 246.71 82.4351 256.18H110.763C109.52 246.725 108.354 237.272 107.263 227.822H107.315Z" fill="#CAC5E8"/>
<path id="objectSecondary_13" d="M201.447 239.086H121.267C121.054 237.318 120.84 235.557 120.634 233.789H200.806C201.02 235.557 201.226 237.318 201.447 239.086Z" fill="#CAC5E8"/>
<path id="objectSecondary_14" d="M159.159 250.214H122.661C122.43 248.445 122.206 246.682 121.99 244.924H158.489C158.71 246.682 158.933 248.445 159.159 250.214Z" fill="#CAC5E8"/>
<path id="objectSecondary_15" d="M180.952 250.21H165.193C164.962 248.442 164.739 246.678 164.522 244.92H180.281C180.502 246.681 180.753 248.442 180.952 250.21Z" fill="#CAC5E8"/>
<path id="objectPrimary_3" d="M84.2386 112.75L83.1997 111.1C80.9306 107.49 76.3038 104.263 74.7051 103.327L75.8986 101.213C79.0352 103.118 81.8377 105.524 84.1944 108.337C87.7602 103.475 93.0353 98.4648 100.255 93.0645L101.78 95.061C94.0741 100.83 88.6811 106.112 85.2774 111.196L84.2386 112.75Z" fill="#241C4F"/>
<path id="objectPrimary_4" d="M87.0383 158.619L85.9553 156.961C83.5977 153.351 78.8826 150.124 77.2617 149.188L78.3889 147.074C81.5853 148.979 84.4536 151.387 86.8836 154.205C90.3168 149.336 95.452 144.326 102.532 138.918L104.109 140.922C96.5571 146.698 91.3041 151.973 88.0403 157.064C87.7014 157.58 87.3699 158.095 87.0383 158.619Z" fill="#241C4F"/>
<path id="objectPrimary_5" d="M91.1048 204.605L89.9776 202.926C87.5168 199.316 82.7133 196.089 81.0703 195.146L82.146 193.031C85.3904 194.945 88.3182 197.351 90.8248 200.163C94.1328 195.3 99.1353 190.283 106.061 184.883L107.696 186.879C100.329 192.655 95.1716 197.931 92.0552 203.021L91.1048 204.605Z" fill="#241C4F"/>
<path id="objectSecondary_16" d="M165.378 276.234C161.031 276.234 158.527 274.627 156.316 273.213C154.106 271.798 152.205 270.583 148.536 270.583C144.867 270.583 143.232 271.857 141.5 273.213C139.769 274.569 137.647 276.241 133.3 276.234C128.954 276.226 126.449 274.627 124.246 273.213C122.043 271.798 120.142 270.583 116.466 270.583C112.789 270.583 111.161 271.857 109.43 273.213C107.699 274.569 105.577 276.241 101.237 276.234C96.8979 276.226 94.3855 274.627 92.1753 273.213C89.9651 271.798 88.0716 270.583 84.3953 270.583C84.2995 269.846 84.1964 269.168 84.1006 268.461C88.4474 268.461 90.945 270.067 93.1552 271.482C95.3654 272.896 97.2588 274.119 100.928 274.119C104.597 274.119 106.232 272.837 107.964 271.482C109.695 270.126 111.824 268.461 116.171 268.461C120.518 268.461 123.008 270.067 125.218 271.482C127.429 272.896 129.329 274.119 132.998 274.119C136.667 274.119 138.303 272.837 140.034 271.482C141.766 270.126 143.917 268.498 148.242 268.498C152.566 268.498 155.086 270.104 157.296 271.518C159.506 272.933 161.4 274.156 165.076 274.156C165.172 274.826 165.283 275.526 165.378 276.234Z" fill="#CAC5E8"/>
<path id="objectTertiary_3" d="M171.609 71.1304C169.119 64.4997 163.365 60.1529 157.176 60.1529H144.563C143.624 60.1447 142.708 59.8611 141.929 59.3372C141.15 58.8134 140.542 58.0723 140.18 57.2059C139.287 55.0897 137.795 53.2804 135.888 52.0004C133.981 50.7203 131.742 50.0252 129.445 50.0006C127.224 49.9775 125.053 50.6639 123.248 51.9597C121.443 53.2556 120.099 55.0934 119.411 57.2059C119.132 58.0715 118.583 58.8248 117.844 59.3552C117.106 59.8856 116.216 60.1652 115.307 60.1529H102.701C96.5054 60.1529 91.1714 64.5292 89.3295 71.1304L88.5928 73.7679H172.582L171.609 71.1304Z" fill="#404040"/>
<path id="objectPrimary_6" d="M172.059 76.361H89.396C88.6988 76.3529 88.0307 76.0808 87.5262 75.5996C87.0217 75.1183 86.7184 74.4637 86.6774 73.7677C86.6593 73.4333 86.7099 73.0987 86.8259 72.7846C86.942 72.4704 87.1212 72.1834 87.3524 71.9411C87.5836 71.6989 87.862 71.5065 88.1704 71.3759C88.4788 71.2453 88.8106 71.1792 89.1455 71.1817H171.808C172.504 71.1897 173.171 71.4608 173.676 71.9405C174.18 72.4202 174.484 73.073 174.527 73.7677C174.546 74.1027 174.496 74.4381 174.381 74.7531C174.265 75.0681 174.086 75.356 173.855 75.5991C173.623 75.8421 173.345 76.0352 173.036 76.1662C172.727 76.2973 172.394 76.3636 172.059 76.361Z" fill="#241C4F"/>
<path id="objectPrimary_7" opacity="0.2" d="M172.059 76.361H89.396C88.6988 76.3529 88.0307 76.0808 87.5262 75.5996C87.0217 75.1183 86.7184 74.4637 86.6774 73.7677C86.6593 73.4333 86.7099 73.0987 86.8259 72.7846C86.942 72.4704 87.1212 72.1834 87.3524 71.9411C87.5836 71.6989 87.862 71.5065 88.1704 71.3759C88.4788 71.2453 88.8106 71.1792 89.1455 71.1817H171.808C172.504 71.1897 173.171 71.4608 173.676 71.9405C174.18 72.4202 174.484 73.073 174.527 73.7677C174.546 74.1027 174.496 74.4381 174.381 74.7531C174.265 75.0681 174.086 75.356 173.855 75.5991C173.623 75.8421 173.345 76.0352 173.036 76.1662C172.727 76.2973 172.394 76.3636 172.059 76.361Z" fill="#241C4F"/>
</g>
<g id="Character">
<path id="skinTone" d="M246.264 294.491H240.864L240.326 281.988H245.727L246.264 294.491Z" fill="#FECCAF"/>
<path id="skinTone_2" d="M278.673 294.491H273.273L270.562 281.988H275.955L278.673 294.491Z" fill="#FECCAF"/>
<path id="shoesColor" d="M272.889 293.863H278.953C279.059 293.863 279.163 293.899 279.247 293.966C279.33 294.033 279.387 294.127 279.409 294.232L280.478 299.028C280.503 299.145 280.502 299.266 280.474 299.383C280.446 299.499 280.392 299.608 280.316 299.701C280.241 299.794 280.145 299.868 280.036 299.919C279.928 299.969 279.809 299.995 279.689 299.993C277.575 299.956 276.543 299.831 273.876 299.831C272.233 299.831 268.852 300 266.59 300C264.328 300 264.026 297.79 264.954 297.554C269.117 296.648 270.679 295.396 272.012 294.195C272.255 293.981 272.566 293.863 272.889 293.863Z" fill="#171717"/>
<path id="shoesColor_2" d="M240.901 293.863H246.795C246.901 293.863 247.005 293.899 247.088 293.966C247.172 294.033 247.229 294.127 247.251 294.232L248.32 299.028C248.346 299.141 248.347 299.258 248.322 299.372C248.298 299.485 248.248 299.591 248.178 299.684C248.108 299.776 248.018 299.851 247.915 299.905C247.812 299.958 247.699 299.988 247.583 299.993C245.454 299.956 242.381 299.831 239.707 299.831C236.583 299.831 233.887 300 230.218 300C228.008 300 227.389 297.79 228.317 297.554C232.538 296.633 235.986 296.538 239.633 294.283C240.011 294.033 240.448 293.888 240.901 293.863Z" fill="#171717"/>
<path id="skinTone_3" d="M251.481 97.5723C250.745 101.521 250.317 106.413 253.08 109.051C253.08 109.051 251.496 113.059 244.158 113.059C237.454 113.059 240.813 109.051 240.813 109.051C245.234 107.997 244.983 102.553 244.217 99.4731L251.481 97.5723Z" fill="#FECCAF"/>
<path id="objectPrimary_8" d="M238.703 109.583C238.85 108.596 240.574 107.461 242.534 107.034C244.494 106.607 252.023 105.649 254.322 106.607C256.621 107.564 253.924 110.371 253.924 110.371L238.703 109.583Z" fill="#241C4F"/>
<path id="t-shirt1Color" d="M238.703 109.583C238.85 108.596 240.574 107.461 242.534 107.034C244.494 106.607 252.023 105.649 254.322 106.607C256.621 107.564 253.924 110.371 253.924 110.371L238.703 109.583Z" fill="#F2A53D"/>
<path id="shadowColor" opacity="0.2" d="M240.326 281.994L240.606 288.433H246.006L245.727 281.994H240.326Z" fill="#404040"/>
<path id="shadowColor_2" opacity="0.2" d="M275.962 281.994H270.562L271.961 288.433H277.362L275.962 281.994Z" fill="#404040"/>
<path id="skinTone_4" d="M264.264 113.891L257.759 118.252C257.759 118.252 267.101 134.858 266.32 137.525C265.252 141.143 263.763 149.07 261.737 153.093C262.002 153.955 263.351 155.944 264.102 156.283C269.259 152.363 274.468 140.075 274.277 136.634C273.827 128.817 264.264 113.891 264.264 113.891Z" fill="#FECCAF"/>
<path id="skinTone_5" d="M261.734 153.095L256.577 152.697L259.281 158.378C259.281 158.378 263.783 158.576 264.534 155.136L261.734 153.095Z" fill="#FECCAF"/>
<path id="objectPrimary_9" d="M287.224 180.795L286.789 181.606L283.871 187.131L180.3 132.362L183.645 126.033L287.224 180.795Z" fill="#241C4F"/>
<path id="objectPrimary_10" d="M293.921 168.146L291.784 172.183L290.576 174.467L186.997 119.705L190.342 113.369L293.921 168.146Z" fill="#241C4F"/>
<path id="objectSecondary_17" d="M187.033 119.685L183.681 126.014L287.217 180.857L290.569 174.528L187.033 119.685Z" fill="#CAC5E8"/>
<path id="objectPrimary_11" d="M175.837 114.209L172.823 119.904L180.301 132.37L190.343 113.369L175.837 114.209Z" fill="#241C4F"/>
<path id="objectSecondary_18" d="M175.837 114.209L172.823 119.904L180.301 132.37L190.343 113.369L175.837 114.209Z" fill="#CAC5E8"/>
<path id="objectPrimary_12" d="M169.619 114.57L172.824 119.904L175.837 114.209L169.619 114.57Z" fill="#241C4F"/>
<path id="skinTone_6" d="M252.43 155.283L255.126 160.308L259.304 158.378L256.6 152.697L252.43 155.283Z" fill="#FECCAF"/>
<path id="t-shirt1Color_2" d="M262.714 110.253C267.82 110.989 273.669 128.671 273.669 128.671L262.942 134.735C262.942 134.735 258.22 126.306 255.899 120.081C253.453 113.531 257.24 109.45 262.714 110.253Z" fill="#F2A53D"/>
<path id="shadowColor_3" opacity="0.2" d="M259.745 116.315C257.424 114.193 258.846 123.277 259.951 129.09C260.518 130.225 261.056 131.256 261.513 132.118C264.099 127.55 262.942 119.24 259.745 116.315Z" fill="#404040"/>
<path id="t-shirt1Color_3" d="M232.477 110.524C232.477 110.524 226.104 126.828 232.153 157.182H261.055C261.254 152.762 258.469 131.131 262.742 110.252C259.55 109.635 256.321 109.227 253.076 109.029C248.991 108.793 244.895 108.793 240.809 109.029C237.997 109.309 235.211 109.809 232.477 110.524Z" fill="#F2A53D"/>
<path id="skinTone_7" d="M236.922 118.107L229.643 115.256C229.643 115.256 221.259 132.378 218.592 133.24C215.004 134.411 207.636 137.66 203.172 138.294C202.612 139.031 201.742 141.241 201.882 142.051C208.034 144.063 221.126 141.396 223.837 139.288C230.055 134.448 236.922 118.107 236.922 118.107Z" fill="#FECCAF"/>
<path id="shadowColor_4" opacity="0.2" d="M237.735 116.161C236.535 113.391 234.236 112.234 231.842 112.639C230.913 116.036 229.344 123.499 229.631 134.742L231.348 135.567C231.348 135.567 239.791 120.898 237.735 116.161Z" fill="#404040"/>
<path id="t-shirt1Color_4" d="M238.888 114.223C240.7 119.049 231.52 133.276 231.52 133.276L220.72 127.382C222.342 122.959 224.434 118.723 226.96 114.747C230.754 109.081 236.891 108.919 238.888 114.223Z" fill="#F2A53D"/>
<path id="skinTone_8" d="M203.436 138.24L197.012 139.633L200.268 145.578C202.064 144.685 203.695 143.494 205.094 142.057L203.436 138.24Z" fill="#FECCAF"/>
<path id="skinTone_9" d="M193.979 140.952L196.542 144.503L200.27 145.578L197.014 139.633L193.979 140.952Z" fill="#FECCAF"/>
<path id="faceDetails" d="M239.234 91.8694C239.234 92.304 238.961 92.6061 238.674 92.6061C238.387 92.6061 238.18 92.223 238.21 91.7883C238.239 91.3536 238.482 91.0147 238.77 91.0516C239.057 91.0884 239.263 91.4347 239.234 91.8694Z" fill="#171717"/>
<path id="noseColor" d="M239.616 91.9082C239.02 93.2053 238.249 94.4149 237.325 95.5035C237.611 95.7319 237.942 95.8956 238.297 95.9834C238.652 96.0711 239.022 96.0809 239.381 96.0119L239.616 91.9082Z" fill="#FEB084"/>
<path id="hairColor" d="M238.68 90.3606C238.644 90.37 238.606 90.37 238.57 90.3606C238.541 90.3427 238.516 90.3192 238.497 90.2915C238.478 90.2638 238.464 90.2325 238.457 90.1995C238.451 90.1665 238.45 90.1324 238.457 90.0993C238.464 90.0662 238.477 90.0348 238.496 90.007C238.7 89.6484 238.989 89.345 239.337 89.1229C239.684 88.9008 240.081 88.7668 240.492 88.7324C240.561 88.7324 240.626 88.7596 240.675 88.808C240.723 88.8563 240.75 88.9219 240.75 88.9903C240.75 89.0587 240.723 89.1243 240.675 89.1726C240.626 89.221 240.561 89.2481 240.492 89.2481C240.175 89.2814 239.87 89.3896 239.602 89.5638C239.334 89.738 239.112 89.9732 238.953 90.2501C238.925 90.2949 238.883 90.3298 238.834 90.3496C238.785 90.3694 238.731 90.3733 238.68 90.3606Z" fill="#171717"/>
<path id="skinTone_10" d="M253.881 91.4859C253.247 96.8052 253.144 99.9511 250.293 102.537C245.998 106.427 239.551 103.598 238.579 98.1976C237.709 93.3351 238.896 85.452 244.244 83.6322C245.421 83.225 246.683 83.1253 247.909 83.3425C249.135 83.5598 250.286 84.0869 251.251 84.8736C252.217 85.6604 252.965 86.6809 253.425 87.8381C253.886 88.9953 254.042 90.251 253.881 91.4859Z" fill="#FECCAF"/>
<path id="hairColor_2" d="M243.16 92.5332C241.296 92.9016 238.32 88.7611 240.751 85.2468C239.521 84.6353 235.506 87.0445 233.995 84.7974C232.485 82.5503 236.677 81.3347 235.874 79.4339C238.718 80.0159 234.032 83.567 236.736 83.2208C239.44 82.8745 242.556 77.872 245.577 79.9275C250.918 83.5155 258.197 77.5331 255.228 85.0184C258.868 84.2817 261.358 88.5917 257.888 91.5681C250.97 97.5063 255.228 98.2798 250.845 98.5893C248.649 98.744 243.543 96.0991 243.16 92.5332Z" fill="#171717"/>
<path id="skinTone_11" d="M245.925 93.8874C245.413 94.9589 244.496 95.7831 243.376 96.1787C241.902 96.6797 241.055 95.3683 241.401 93.9095C241.711 92.6055 242.875 90.7636 244.4 90.8889C244.731 90.9272 245.047 91.0468 245.32 91.237C245.594 91.4272 245.816 91.6821 245.967 91.979C246.118 92.2759 246.193 92.6055 246.186 92.9385C246.178 93.2715 246.089 93.5975 245.925 93.8874Z" fill="#FECCAF"/>
<path id="pantsPrimary" d="M242.394 157.182C242.394 157.182 248.523 198.439 251.883 213.911C255.567 230.856 269.439 287.21 269.439 287.21H279.327C279.327 287.21 270.184 232.182 268.076 215.451C265.8 197.268 261.026 157.211 261.026 157.211L242.394 157.182Z" fill="#595959"/>
<path id="shadowColor_5" opacity="0.2" d="M249.674 171.61C249.217 170.961 248.804 170.74 248.421 170.873H248.34C248.253 170.908 248.171 170.955 248.097 171.013C248.021 171.078 247.949 171.15 247.884 171.226L247.766 171.381C247.717 171.455 247.665 171.536 247.611 171.624C247.483 171.839 247.372 172.063 247.279 172.295C247.22 172.435 247.162 172.575 247.11 172.729C247.058 172.884 246.977 173.105 246.918 173.311C246.859 173.518 246.749 173.864 246.668 174.173C246.668 174.247 246.631 174.328 246.609 174.409C246.587 174.49 246.528 174.748 246.491 174.917C246.454 175.087 246.425 175.205 246.395 175.36C246.329 175.647 246.27 175.949 246.211 176.258C246.152 176.568 246.086 176.921 246.027 177.268C246.027 177.393 245.99 177.511 245.968 177.636C245.894 178.078 245.828 178.528 245.762 178.992C247.397 189.262 249.342 201.035 250.919 209.25C250.993 208.985 251.074 208.697 251.14 208.403C251.462 207.03 251.708 205.64 251.877 204.24C253.269 193.66 252.628 175.831 249.674 171.61Z" fill="#404040"/>
<path id="pantsPrimary_2" d="M232.152 157.182C232.152 157.182 231.415 197.541 231.997 213.999C232.609 231.121 238.591 287.188 238.591 287.188H247.734C247.734 287.188 248.066 232.123 248.471 215.311C248.913 196.981 251.123 157.182 251.123 157.182H232.152Z" fill="#595959"/>
<path id="pantsSecondary" d="M248.342 284.388C248.379 284.388 248.342 287.372 248.342 287.372H237.799L237.357 284.02L248.342 284.388Z" fill="#404040"/>
<path id="objectTertiary_4" d="M279.329 284.612C279.373 284.612 279.823 287.375 279.823 287.375H268.956L267.998 284.207L279.329 284.612Z" fill="#404040"/>
<path id="shoesColor_3" d="M271.107 294.806C270.739 294.836 270.373 294.74 270.068 294.533C269.969 294.453 269.892 294.348 269.846 294.229C269.799 294.111 269.784 293.982 269.803 293.855C269.802 293.781 269.821 293.709 269.859 293.645C269.897 293.581 269.951 293.529 270.016 293.494C270.613 293.185 272.359 294.231 272.558 294.379C272.578 294.393 272.594 294.414 272.603 294.437C272.612 294.461 272.614 294.486 272.61 294.511C272.606 294.536 272.595 294.559 272.577 294.577C272.56 294.596 272.538 294.609 272.514 294.614C272.053 294.729 271.581 294.794 271.107 294.806ZM270.303 293.686C270.245 293.685 270.187 293.698 270.134 293.723C270.108 293.738 270.087 293.759 270.073 293.785C270.059 293.811 270.052 293.841 270.053 293.87C270.042 293.956 270.053 294.043 270.084 294.124C270.115 294.205 270.165 294.277 270.23 294.334C270.833 294.61 271.518 294.644 272.145 294.43C271.585 294.065 270.96 293.812 270.303 293.686Z" fill="#171717"/>
<path id="shoesColor_4" d="M272.482 294.617C272.463 294.624 272.442 294.624 272.423 294.617C271.863 294.315 270.787 293.143 270.898 292.532C270.916 292.437 270.966 292.352 271.04 292.291C271.114 292.229 271.207 292.194 271.303 292.193C271.4 292.183 271.499 292.194 271.592 292.223C271.686 292.252 271.773 292.299 271.848 292.362C272.474 292.871 272.585 294.433 272.585 294.499C272.585 294.521 272.579 294.542 272.569 294.562C272.559 294.581 272.544 294.597 272.526 294.609C272.512 294.614 272.497 294.617 272.482 294.617ZM271.391 292.407H271.369C271.2 292.407 271.185 292.502 271.178 292.532C271.111 292.893 271.796 293.784 272.356 294.204C272.316 293.588 272.093 292.998 271.715 292.51C271.666 292.473 271.61 292.447 271.551 292.433C271.491 292.419 271.429 292.417 271.369 292.429L271.391 292.407Z" fill="#171717"/>
<path id="shoesColor_5" d="M238.651 294.806C238.188 294.849 237.725 294.732 237.339 294.474C237.254 294.396 237.189 294.3 237.148 294.193C237.107 294.085 237.092 293.97 237.103 293.855C237.104 293.785 237.123 293.717 237.159 293.657C237.196 293.597 237.248 293.549 237.31 293.516C237.965 293.148 240.139 294.253 240.382 294.371C240.406 294.383 240.425 294.402 240.437 294.426C240.449 294.45 240.453 294.477 240.448 294.503C240.447 294.531 240.436 294.557 240.417 294.577C240.398 294.598 240.373 294.611 240.345 294.614C239.787 294.729 239.22 294.793 238.651 294.806ZM237.671 293.686C237.589 293.685 237.509 293.702 237.435 293.737C237.411 293.75 237.391 293.769 237.377 293.793C237.362 293.816 237.355 293.843 237.354 293.87C237.343 293.946 237.351 294.024 237.378 294.096C237.405 294.168 237.45 294.232 237.509 294.282C237.84 294.577 238.732 294.629 239.925 294.43C239.22 294.058 238.458 293.806 237.671 293.686Z" fill="#171717"/>
<path id="shoesColor_6" d="M240.325 294.614H240.273C239.618 294.319 238.328 293.141 238.432 292.544C238.432 292.397 238.557 292.22 238.903 292.183C239.035 292.167 239.168 292.178 239.295 292.216C239.421 292.254 239.539 292.318 239.64 292.404C240.325 292.971 240.465 294.423 240.472 294.482C240.475 294.504 240.472 294.527 240.463 294.548C240.454 294.568 240.439 294.586 240.421 294.599C240.407 294.608 240.391 294.614 240.374 294.616C240.358 294.619 240.341 294.618 240.325 294.614ZM239.006 292.404H238.955C238.726 292.404 238.712 292.514 238.704 292.544C238.645 292.912 239.522 293.833 240.178 294.231C240.114 293.612 239.856 293.029 239.441 292.566C239.315 292.474 239.162 292.425 239.006 292.426V292.404Z" fill="#171717"/>
</g>
</g>
</g>
</svg>
