<svg width="50" height="50" viewBox="0 0 50 50" fill="none" xmlns="http://www.w3.org/2000/svg">
<path d="M14.5732 32.1074C15.6697 32.1074 16.5586 31.2185 16.5586 30.1221C16.5586 29.0256 15.6697 28.1367 14.5732 28.1367C13.4768 28.1367 12.5879 29.0256 12.5879 30.1221C12.5879 31.2185 13.4768 32.1074 14.5732 32.1074Z" fill="black"/>
<path d="M35.4267 32.1074C36.5232 32.1074 37.412 31.2185 37.412 30.1221C37.412 29.0256 36.5232 28.1367 35.4267 28.1367C34.3302 28.1367 33.4414 29.0256 33.4414 30.1221C33.4414 31.2185 34.3302 32.1074 35.4267 32.1074Z" fill="black"/>
<path d="M50 29.2807C50 26.4049 47.9155 24.0085 45.1783 23.5188V22.651C45.1783 11.5246 36.1263 2.47266 25.0001 2.47266C13.8737 2.47266 4.82174 11.5246 4.82174 22.651V23.5188C2.08454 24.0086 0 26.405 0 29.2807C0 32.1813 2.12046 34.5946 4.8924 35.0553C5.28254 39.5011 7.31658 42.785 10.9566 44.8286C14.1938 46.646 18.7873 47.5294 25.0001 47.5294C31.2127 47.5294 35.8063 46.6459 39.0435 44.8286C42.6834 42.785 44.7175 39.5013 45.1076 35.0553C47.8795 34.5948 50 32.1813 50 29.2807ZM2.06698 29.2807C2.06698 27.5503 3.23378 26.0881 4.82161 25.637V32.9244C3.23378 32.4734 2.06698 31.0113 2.06698 29.2807ZM43.1113 33.4289C43.1113 37.9678 41.4497 41.1072 38.0316 43.0262C35.1116 44.6656 30.849 45.4624 25.0001 45.4624C19.1512 45.4624 14.8884 44.6656 11.9686 43.0262C8.5503 41.1072 6.88871 37.9678 6.88871 33.4289V22.651C6.88871 14.4724 12.3384 7.54386 19.7967 5.30261C25.4787 5.37444 28.5047 9.47609 28.5047 12.4461C28.5047 14.7208 26.6542 16.5715 24.3793 16.5715C22.6736 16.5715 21.2857 15.1837 21.2857 13.4779C21.2857 12.2273 22.3032 11.2097 23.554 11.2097C24.1247 11.2097 24.5874 10.7469 24.5874 10.1762C24.5874 9.60541 24.1247 9.14266 23.554 9.14266C21.1635 9.14266 19.2187 11.0874 19.2187 13.4779C19.2187 16.3235 21.5337 18.6385 24.3793 18.6385C27.7938 18.6385 30.5717 15.8606 30.5717 12.4461C30.5717 10.301 29.4939 7.99304 27.6887 6.27228C26.9665 5.58398 26.1449 5.00535 25.2484 4.54287C35.1208 4.67644 43.1113 12.7475 43.1113 22.651V33.4289ZM45.1783 32.9245V25.6371C46.7662 26.0883 47.933 27.5504 47.933 29.2808C47.933 31.0113 46.7661 32.4734 45.1783 32.9245Z" fill="black"/>
<path d="M28.9975 32.9667C26.7937 35.1708 23.2073 35.1708 21.0036 32.9667C20.5999 32.5632 19.9457 32.5632 19.542 32.9667C19.1384 33.3703 19.1384 34.0248 19.542 34.4283C21.0468 35.9332 23.0238 36.6857 25.0006 36.6857C26.9774 36.6857 28.9542 35.9332 30.4592 34.4283C30.8628 34.0248 30.8628 33.3703 30.4592 32.9667C30.0554 32.5632 29.4012 32.5632 28.9975 32.9667Z" fill="black"/>
</svg>
