<svg width="52" height="50" viewBox="0 0 52 50" fill="none" xmlns="http://www.w3.org/2000/svg">
<path fill-rule="evenodd" clip-rule="evenodd" d="M47.5442 43.6185L35.5697 46.6727C33.5026 47.1998 31.3608 47.065 29.3755 46.284L13.9217 40.201C13.805 40.1551 13.6808 40.1319 13.5555 40.1319H9.59442V28.7933H18.9355L25.4226 31.4879L28.9726 32.9626C30.2285 33.4853 30.8297 34.9639 30.3146 36.2228C30.2113 36.4755 30.0832 36.7157 29.9132 36.9298C29.2855 37.725 28.2519 38.0755 27.2854 37.8397L27.2618 37.8338C27.2039 37.8193 27.1463 37.8024 27.0891 37.7835L20.343 35.1809C20.2882 35.1597 20.2592 35.1486 20.2592 35.1486C19.7427 34.949 19.1627 35.208 18.9638 35.7267C18.7651 36.2452 19.0228 36.8277 19.5399 37.0269C19.5399 37.0269 23.3434 38.4945 26.244 39.617C26.3023 39.6398 26.3603 39.661 26.4186 39.6807L28.6459 40.5402C29.3192 40.8 29.9892 41.0587 30.6899 41.2383C31.8797 41.5433 33.1145 41.6659 34.3412 41.5987C35.0328 41.561 35.7233 41.4651 36.3984 41.3102L39.857 40.5159C39.8605 40.5151 39.864 40.5136 39.8677 40.5127L46.4339 39.0043C47.0585 38.8608 47.6997 38.9728 48.2386 39.3198C48.7783 39.6673 49.1468 40.2054 49.2772 40.835C49.5357 42.0821 48.7744 43.3048 47.5442 43.6185ZM13.8336 17.8234H20.7621V27.3737L19.5187 26.8572C19.3969 26.8065 19.2664 26.7806 19.1352 26.7806H13.8336V17.8234ZM22.7685 11.2315L29.697 11.2547V31.0854L25.8249 29.4772L22.7685 28.2073V11.2315ZM31.7018 37.881C32.4663 36.7365 32.7198 35.2854 32.3191 33.9609C32.2075 33.5915 32.0488 33.235 31.8472 32.906C31.8013 32.8313 31.7536 32.7582 31.7038 32.6867C31.7034 32.6855 31.7026 32.6847 31.7018 32.6835V23.0087H38.6308V38.7327L35.9504 39.3485C35.6621 39.4146 35.3708 39.4668 35.0778 39.5078C33.9609 39.6622 32.8212 39.6295 31.716 39.4099C31.7113 39.4087 31.7066 39.4079 31.7018 39.4068V37.881ZM7.58921 42.0943H2.00521V26.4206H6.73549C6.7374 26.4206 6.73981 26.421 6.74211 26.421C6.74412 26.421 6.74562 26.4206 6.74763 26.4206H7.58921V42.0943ZM51.2405 40.4255C50.9997 39.2621 50.3182 38.2681 49.3215 37.6263C48.3247 36.9849 47.1408 36.7778 45.9862 37.0427L40.6356 38.272V36.077C41.7087 35.0626 42.826 33.7381 43.6207 32.5276C45.0142 30.4048 46.0004 28.0737 46.5518 25.6003C47.2074 22.6577 47.2215 19.5426 46.5921 16.5905C46.4762 16.0474 45.9431 15.7006 45.4019 15.8174C44.8602 15.9334 44.5156 16.4682 44.6311 17.0119C45.2006 19.6817 45.1881 22.4997 44.5947 25.161C44.0965 27.3957 43.2052 29.5019 41.9461 31.4204C41.5728 31.9891 41.1201 32.5857 40.6356 33.1556V22.0029C40.6356 21.4472 40.1868 20.9968 39.633 20.9968H31.7018V10.2521C31.7018 9.69787 31.255 9.24781 30.7027 9.2459L21.769 9.21561H21.7659C21.5003 9.21561 21.2458 9.32096 21.0582 9.50921C20.8694 9.69787 20.7633 9.95414 20.7633 10.2218V15.8111H12.831C12.2776 15.8111 11.8284 16.2615 11.8284 16.8173V26.781H9.59442V25.4144C9.59442 24.8591 9.14565 24.4087 8.59182 24.4087H7.56334C7.38829 23.4414 7.28693 22.4588 7.26296 21.4778C7.20421 19.0925 7.58099 16.7587 8.38227 14.5404C8.56916 14.0232 8.78141 13.5075 9.01291 13.0084C9.05682 12.9138 9.0847 12.8157 9.09793 12.7174C9.10345 12.7194 9.10896 12.7215 9.11437 12.7236C10.206 10.4889 11.7677 8.44178 13.6501 6.78554C15.0647 5.54102 16.6484 4.52027 18.3572 3.75146C18.4248 3.72118 18.4869 3.68375 18.5441 3.64119C18.9161 3.47608 19.2923 3.32254 19.6722 3.18338C22.114 2.28881 24.791 1.90717 27.4138 2.08013C29.2909 2.20399 31.1301 2.60605 32.8799 3.27494C33.3969 3.47265 33.9766 3.21246 34.1736 2.69288C34.3709 2.1737 34.1113 1.59244 33.5935 1.39473C31.6572 0.654195 29.6222 0.209271 27.5453 0.0721313C24.6464 -0.118838 21.686 0.303246 18.9845 1.29331C16.5658 2.17934 14.2706 3.55335 12.3296 5.27117C12.3291 5.27157 12.3287 5.27197 12.3283 5.27227C12.3278 5.27268 12.3274 5.27318 12.3269 5.27348C12.2677 5.326 12.2077 5.37772 12.1492 5.43074C12.1373 5.44151 12.1268 5.45318 12.1156 5.46435C10.0819 7.30451 8.39902 9.55992 7.22908 12.0152C7.24221 12.02 7.25524 12.025 7.26838 12.0299C7.24161 12.0708 7.21644 12.1133 7.19529 12.1591C6.93872 12.7116 6.70371 13.2823 6.49738 13.8546C5.61067 16.3091 5.19399 18.8909 5.25816 21.5273C5.28212 22.4911 5.37376 23.4555 5.52916 24.4087H1.0026C0.448866 24.4087 0 24.8591 0 25.4148V43.1005C0 43.6562 0.448866 44.1067 1.0026 44.1067H8.59182C9.14565 44.1067 9.59442 43.6562 9.59442 43.1005V42.1438H13.3659L28.6435 48.1572C30.0699 48.7188 31.564 49.0014 33.066 49.0014C34.0674 49.0014 35.0731 48.8756 36.0636 48.6229L48.0381 45.5687C50.3112 44.989 51.7175 42.7298 51.2405 40.4255Z" fill="black"/>
<path fill-rule="evenodd" clip-rule="evenodd" d="M35.3454 14.6832C35.5356 14.8505 35.77 14.9323 36.0034 14.9323C36.2838 14.9323 36.5629 14.8139 36.7617 14.5827L45.0204 4.9497C45.3843 4.52576 45.3396 3.88324 44.9213 3.51493C44.5025 3.14663 43.8688 3.19158 43.5053 3.61542L35.2462 13.2485C34.8824 13.6723 34.927 14.3149 35.3454 14.6832Z" fill="black"/>
<path fill-rule="evenodd" clip-rule="evenodd" d="M43.1663 13.3542C42.8784 13.3542 42.6444 13.1202 42.6444 12.8323C42.6444 12.5447 42.8784 12.3103 43.1663 12.3103C43.4539 12.3103 43.6882 12.5447 43.6882 12.8323C43.6882 13.1202 43.4539 13.3542 43.1663 13.3542ZM43.1663 10.2656C41.7509 10.2656 40.5996 11.417 40.5996 12.8323C40.5996 14.2476 41.7509 15.3989 43.1663 15.3989C44.5816 15.3989 45.7329 14.2472 45.7329 12.8323C45.7329 11.417 44.5816 10.2656 43.1663 10.2656Z" fill="black"/>
<path fill-rule="evenodd" clip-rule="evenodd" d="M37.5667 4.84508C37.8546 4.84508 38.0886 5.07951 38.0886 5.3674C38.0886 5.65499 37.8546 5.88941 37.5667 5.88941C37.2788 5.88941 37.0447 5.65499 37.0447 5.3674C37.0447 5.07951 37.2788 4.84508 37.5667 4.84508ZM37.5667 7.93412C38.982 7.93412 40.1333 6.78274 40.1333 5.3674C40.1333 3.95216 38.982 2.80078 37.5667 2.80078C36.1513 2.80078 35 3.95216 35 5.3674C35 6.78274 36.1513 7.93412 37.5667 7.93412Z" fill="black"/>
</svg>
