<svg width="25" height="24" viewBox="0 0 25 24" fill="none" xmlns="http://www.w3.org/2000/svg">
<path d="M18.82 3.63636V4.04545H17.8719V3.63636C17.8719 3.00998 17.605 2.41685 17.1425 1.98519C16.6812 1.55461 16.0624 1.31818 15.4239 1.31818H9.5797C8.94114 1.31818 8.32238 1.55461 7.86106 1.98519C7.39856 2.41685 7.13165 3.00998 7.13165 3.63636V4.04545H6.18359V3.63636C6.18359 2.81612 6.5324 2.02186 7.1659 1.43059C7.80056 0.838239 8.66829 0.5 9.5797 0.5H15.4239C16.3353 0.5 17.203 0.838239 17.8377 1.43059C18.4712 2.02186 18.82 2.81612 18.82 3.63636Z" fill="#E0E7F4" stroke="#023DA7"/>
<path d="M1.00926 5.09666C1.03503 5.06778 1.0529 5.05346 1.0627 5.04688H23.9373C23.9471 5.05346 23.965 5.06778 23.9907 5.09666C24.06 5.17432 24.1453 5.31505 24.2271 5.53175C24.3893 5.96155 24.5 6.58893 24.5 7.30662V21.1053C24.5 21.823 24.3893 22.4504 24.2271 22.8802C24.1453 23.0969 24.06 23.2376 23.9907 23.3153C23.965 23.3441 23.9471 23.3585 23.9373 23.3651H1.0627C1.0529 23.3585 1.03503 23.3441 1.00926 23.3153C0.939958 23.2376 0.854676 23.0969 0.772884 22.8802C0.610657 22.4504 0.5 21.823 0.5 21.1053V7.30662C0.5 6.58893 0.610657 5.96155 0.772884 5.53175C0.854676 5.31505 0.939958 5.17432 1.00926 5.09666ZM23.9284 5.04191C23.9284 5.04182 23.9294 5.04215 23.9312 5.04316C23.9294 5.0425 23.9284 5.04199 23.9284 5.04191ZM23.9284 23.37C23.9284 23.3699 23.9294 23.3694 23.9312 23.3688C23.9293 23.3698 23.9284 23.3701 23.9284 23.37ZM1.07159 23.37C1.07158 23.3701 1.07064 23.3698 1.06875 23.3688C1.07064 23.3694 1.07159 23.3699 1.07159 23.37ZM1.06875 5.04316C1.07064 5.04215 1.07158 5.04182 1.07159 5.04191C1.07159 5.04199 1.07065 5.0425 1.06875 5.04316Z" fill="#E0E7F4" stroke="#023DA7"/>
<path d="M1.04167 5.29688H23.9583C24.0593 5.29688 24.25 5.40709 24.25 5.68324V11.3651C24.25 11.6412 24.0593 11.7514 23.9583 11.7514H1.04167C0.940678 11.7514 0.75 11.6412 0.75 11.3651V5.68324C0.75 5.40709 0.940678 5.29688 1.04167 5.29688Z" fill="#E0E7F4" stroke="#023DA7" stroke-width="1.5"/>
<path d="M13.7321 14.8656C13.7065 14.8912 13.6718 14.9055 13.6357 14.9055H11.3629C11.3268 14.9055 11.2921 14.8912 11.2665 14.8656C11.2409 14.84 11.2266 14.8053 11.2266 14.7692V14.6328H13.772V14.7692C13.772 14.8053 13.7576 14.84 13.7321 14.8656Z" fill="#E0E7F4" stroke="#023DA7" stroke-width="2"/>
<path d="M17.4167 14.5877H23.9583V14.5878L23.9661 14.5877C24.061 14.5867 24.1557 14.582 24.25 14.5736V22.7465C24.25 22.8585 24.2079 22.9566 24.1472 23.0216C24.088 23.0848 24.0189 23.1101 23.9583 23.1101H1.04167C0.981082 23.1101 0.911975 23.0848 0.852821 23.0216C0.792082 22.9566 0.75 22.8585 0.75 22.7465V14.5736C0.844275 14.582 0.938966 14.5867 1.03388 14.5877L1.03388 14.5877H1.04167H7.58333V14.9513C7.58333 16.0207 7.98024 17.0555 8.7009 17.8259C9.42315 18.5981 10.4138 19.0421 11.4583 19.0421H13.5417C14.5862 19.0421 15.5769 18.5981 16.2991 17.8259C17.0198 17.0555 17.4167 16.0207 17.4167 14.9513V14.5877Z" fill="#E0E7F4" stroke="#023DA7" stroke-width="1.5"/>
</svg>
