<svg width="58" height="49" viewBox="0 0 58 49" fill="none" xmlns="http://www.w3.org/2000/svg">
<g clip-path="url(#clip0_1427_3517)">
<path d="M58 0H0V49H58V0Z" fill="black"/>
<mask id="mask0_1427_3517" style="mask-type:alpha" maskUnits="userSpaceOnUse" x="0" y="0" width="58" height="49">
<path fill-rule="evenodd" clip-rule="evenodd" d="M0 0.0703125H57.6383V48.998H0V0.0703125Z" fill="black"/>
</mask>
<g mask="url(#mask0_1427_3517)">
<path fill-rule="evenodd" clip-rule="evenodd" d="M45.167 46.7155C39.5405 46.7155 34.963 42.1082 34.963 36.4451C34.963 30.7824 39.5405 26.1752 45.167 26.1752C50.7935 26.1752 55.371 30.7824 55.371 36.4451C55.371 42.1082 50.7935 46.7155 45.167 46.7155ZM2.4226 41.0589C2.35284 41.0589 2.29625 41.002 2.29625 40.9319V13.7408C5.12057 17.8663 10.7464 24.1411 19.518 25.9208V28.9137C19.518 30.2604 20.6027 31.352 21.9406 31.352H26.5331C27.871 31.352 28.9557 30.2604 28.9557 28.9137V25.9208C37.7273 24.1642 43.353 17.8317 46.1774 13.7408L46.1645 23.9329C45.8353 23.9065 45.5027 23.8927 45.167 23.8927C38.2903 23.8927 32.6957 29.5238 32.6957 36.4451C32.6957 38.0733 33.0055 39.63 33.5686 41.0589H2.4226ZM26.625 22.1997V28.9253C26.625 28.9955 26.5684 29.0524 26.4986 29.0524H21.9406C21.8708 29.0524 21.8142 28.9955 21.8142 28.9253V22.1997C21.8142 22.1296 21.8708 22.0726 21.9406 22.0726H26.5331C26.5892 22.0884 26.627 22.141 26.625 22.1997ZM2.4226 9.41905H46.0511C44.9718 11.476 39.3575 21.206 28.9096 23.5402V22.1997C28.91 20.8709 27.853 19.7866 26.5331 19.7615H21.9406C20.6027 19.7615 19.518 20.8531 19.518 22.1997V23.5633C9.08167 21.2522 3.44437 11.4874 2.37666 9.44211L2.4226 9.41905ZM18.6914 2.4855C18.6914 2.41528 18.748 2.35844 18.8178 2.35844H29.7133C29.7831 2.35844 29.8397 2.41528 29.8397 2.4855V6.96917C29.8397 7.03938 29.7831 7.09622 29.7133 7.09622H18.7947C18.725 7.09622 18.6684 7.03938 18.6684 6.96917L18.6914 2.4855ZM48.4737 24.3414V9.54611C48.4737 8.19947 47.389 7.10787 46.0511 7.10787H32.09V6.9807V2.50856C32.09 1.16192 31.0054 0.0703125 29.6674 0.0703125H18.7947C17.4568 0.0703125 16.3723 1.16192 16.3723 2.50856V6.99223V7.11928H2.4226C1.08455 7.11928 0 8.211 0 9.55764V40.9202C0 42.267 1.08455 43.3586 2.4226 43.3586H34.7631C36.9976 46.7539 40.8265 48.998 45.167 48.998C52.0436 48.998 57.6383 43.3664 57.6383 36.4451C57.6383 30.6757 53.7506 25.8036 48.4737 24.3414Z" fill="black"/>
</g>
<path d="M39.1523 31.6055L51.3351 41.7578Z" fill="black"/>
<path d="M39.1523 31.6055L51.3351 41.7578" stroke="black" stroke-width="3"/>
<path d="M50.2138 31.3163L39.765 42.5562Z" fill="black"/>
<path d="M50.2138 31.3163L39.765 42.5562" stroke="black" stroke-width="3"/>
</g>
<defs>
<clipPath id="clip0_1427_3517">
<rect width="58" height="49" fill="white"/>
</clipPath>
</defs>
</svg>
