<svg width="49" height="49" viewBox="0 0 49 49" fill="none" xmlns="http://www.w3.org/2000/svg">
<g clip-path="url(#clip0_1427_3534)">
<path fill-rule="evenodd" clip-rule="evenodd" d="M22.7674 21.6113V15.2876C22.7674 14.6495 22.2486 14.1307 21.6108 14.1307C20.973 14.1307 20.454 14.6495 20.454 15.2876V18.8183L15.338 13.7015C15.1198 13.4833 14.8293 13.3633 14.52 13.3633C14.2107 13.3633 13.9203 13.4833 13.7023 13.7015C13.4837 13.9199 13.3633 14.2105 13.3633 14.5195C13.3633 14.8287 13.4836 15.1192 13.7021 15.3377L20.7927 22.4293C21.1943 22.8307 21.7076 22.8201 22.0542 22.6766C22.399 22.5337 22.7674 22.1789 22.7674 21.6113Z" fill="black"/>
<path fill-rule="evenodd" clip-rule="evenodd" d="M22.6412 34.7212C22.6412 28.0448 28.0731 22.6131 34.7499 22.6131C41.4267 22.6131 46.8587 28.0448 46.8587 34.7212C46.8587 41.3979 41.4267 46.8299 34.7499 46.8299C28.0731 46.8299 22.6412 41.3979 22.6412 34.7212ZM20.588 35.2306L20.5999 35.5699L20.264 35.5196C20.0906 35.4937 19.9106 35.4634 19.7138 35.427C19.5857 35.4032 19.4736 35.3455 19.3886 35.2598C13.2721 34.2544 8.55299 29.2523 7.90949 23.0878L7.87707 22.7763H9.44182C10.0657 22.7763 10.5733 22.2688 10.5733 21.6449C10.5733 21.0211 10.0657 20.5135 9.44182 20.5135H7.87707L7.90949 20.202C8.58226 13.7581 13.7476 8.59279 20.1915 7.91991L20.5031 7.88749V9.45224C20.5031 10.0762 21.0106 10.5837 21.6345 10.5837C22.2583 10.5837 22.7659 10.0762 22.7659 9.45224V7.88739L23.0773 7.91991C29.5212 8.59279 34.6865 13.7581 35.3593 20.202L35.3669 20.2748L35.46 20.5454L35.0637 20.5532C34.9571 20.5508 34.8538 20.5492 34.7499 20.5492C26.9354 20.5492 20.5779 26.9067 20.5779 34.7212C20.5779 34.8729 20.581 35.0348 20.588 35.2306ZM21.6043 41.0109C10.9422 40.9944 2.26798 32.3069 2.26798 21.6449C2.26798 10.9663 10.9558 2.27862 21.6345 2.27862C32.2643 2.27862 40.9515 10.9264 40.9997 21.5558L41.0015 21.9966L40.6006 21.814C39.7314 21.4184 38.8177 21.1106 37.8842 20.899L37.678 20.8523L37.665 20.6412C37.1418 12.1967 30.1003 5.58178 21.6345 5.58178C12.7773 5.58178 5.57147 12.7878 5.57147 21.6449C5.57147 30.1355 12.2071 37.1779 20.6783 37.6778L20.8893 37.6902L20.9366 37.8964C21.1503 38.8263 21.4613 39.7397 21.8611 40.611L22.0449 41.0115L21.6043 41.0109ZM23.4973 43.3259C26.2095 46.8644 30.311 48.8938 34.7499 48.8938C42.5646 48.8938 48.9221 42.5361 48.9221 34.7212C48.9221 30.2636 46.8793 26.1518 43.3173 23.4401L43.1958 23.3475L43.2068 23.1953C43.2446 22.6674 43.2637 22.1458 43.2637 21.6451C43.2637 15.8632 41.0152 10.4303 36.9324 6.34735C32.8496 2.26431 27.4167 0.015625 21.6345 0.015625C15.857 0.015625 10.4253 2.2655 6.34019 6.35071C2.25172 10.4393 0.000108407 15.8707 0 21.6447C0 27.419 2.25161 32.8507 6.34019 36.9392C10.7984 41.3973 16.9625 43.6854 23.2523 43.2161L23.4045 43.2047L23.4973 43.3259Z" fill="black"/>
<path fill-rule="evenodd" clip-rule="evenodd" d="M34.4405 43.5565C35.0109 43.5565 35.475 43.0941 35.475 42.5256V40.7877L35.6634 40.7211C37.1272 40.2038 38.1108 38.8182 38.1108 37.2736C38.1108 35.257 36.4643 33.6165 34.4405 33.6165C33.5579 33.6165 32.8399 32.9011 32.8399 32.0218C32.8399 31.1421 33.5579 30.4263 34.4405 30.4263C34.9821 30.4263 35.5431 30.6911 36.0625 31.1921C36.4723 31.5872 37.1288 31.5767 37.5257 31.1683C37.9223 30.7598 37.9115 30.1058 37.5018 29.7104C36.9383 29.167 36.3215 28.7823 35.6691 28.5667L35.475 28.5026V26.7696C35.475 26.2009 35.0109 25.7383 34.4405 25.7383C33.87 25.7383 33.4059 26.2009 33.4059 26.7696V28.5074L33.2175 28.5742C31.7537 29.0911 30.7702 30.4767 30.7702 32.0218C30.7702 34.0383 32.4168 35.6787 34.4405 35.6787C35.323 35.6787 36.0411 36.3942 36.0411 37.2736C36.0411 38.1529 35.323 38.8684 34.4405 38.8684C33.7918 38.8684 33.1073 38.48 32.5129 37.7746C32.3161 37.5416 32.0271 37.4079 31.7201 37.4079C31.477 37.4079 31.2406 37.4935 31.0548 37.6491C30.6183 38.015 30.5617 38.6667 30.9288 39.1018C31.5905 39.8858 32.3803 40.4473 33.213 40.7258L33.4059 40.7904V42.5256C33.4059 43.0941 33.87 43.5565 34.4405 43.5565Z" fill="black"/>
</g>
<defs>
<clipPath id="clip0_1427_3534">
<rect width="49" height="49" fill="white"/>
</clipPath>
</defs>
</svg>
