<svg width="43" height="49" viewBox="0 0 43 49" fill="none" xmlns="http://www.w3.org/2000/svg">
<g clip-path="url(#clip0_1427_3538)">
<path fill-rule="evenodd" clip-rule="evenodd" d="M25.5391 30.7715V30.5338C26.1378 30.4146 26.7358 30.2685 27.3229 30.098L26.6865 31.1571C26.321 30.9824 25.9361 30.8531 25.5391 30.7715ZM14.0324 29.7059C15.5468 30.2404 17.1213 30.6045 18.7165 30.789V31.6398C18.7165 31.7197 18.7812 31.7845 18.8611 31.7845H20.4945C20.5744 31.7845 20.6391 31.7197 20.6391 31.6398V23.4731C20.6391 22.6523 21.3069 21.9845 22.1278 21.9845C22.9486 21.9845 23.6165 22.6523 23.6165 23.4731V31.6398C23.6165 32.1699 24.0478 32.6011 24.5778 32.6011C26.2992 32.6011 27.6998 34.0017 27.6998 35.7231V41.2951H19.0058V39.8064C19.0058 39.5684 18.918 39.3401 18.7588 39.1633L14.1309 34.0186C13.039 32.8011 13.003 30.9644 14.0324 29.7059ZM22.1278 20.0617C20.2468 20.0617 18.7165 21.5922 18.7165 23.4731V28.8553C14.5047 28.3117 10.5393 26.365 7.53406 23.3622C4.52883 20.3594 2.57884 16.3957 2.03187 12.1845H40.5835C39.5216 20.2708 33.5046 26.8226 25.5391 28.5689V23.4731C25.5391 21.5922 24.0089 20.0617 22.1278 20.0617ZM42.3599 10.5703C42.1785 10.3742 41.9213 10.2617 41.6543 10.2617H0.964388H0.961326C0.432636 10.2617 0.0016403 10.6911 6.96984e-06 11.2201C-9.51135e-05 11.2464 0.00092572 11.2729 0.00296739 11.2986C0.581882 18.9563 5.24944 25.7042 12.1997 28.9502C10.9079 30.9407 11.1046 33.5309 12.7012 35.307L17.0831 40.1756V41.2951H15.5945C15.0644 41.2951 14.6331 41.7264 14.6331 42.2565V48.7898C14.6331 48.8697 14.6979 48.9345 14.7778 48.9345H16.4111C16.4911 48.9345 16.5558 48.8697 16.5558 48.7898V43.2178H29.3331V48.7898C29.3331 48.8697 29.3979 48.9345 29.4778 48.9345H31.1111C31.1911 48.9345 31.2558 48.8697 31.2558 48.7898V42.2565C31.2558 41.7264 30.8245 41.2951 30.2945 41.2951H29.6224V35.7227C29.619 34.4355 29.132 33.221 28.2487 32.2902L30.1993 29.0391C37.2602 25.8277 42.0151 19.0335 42.6119 11.2973C42.6327 11.0314 42.5408 10.7663 42.3599 10.5703C42.3599 10.5704 42.3599 10.5702 42.3599 10.5703Z" fill="black"/>
<path fill-rule="evenodd" clip-rule="evenodd" d="M0.889498 8.91398C0.915733 8.91602 0.942275 8.91775 0.967898 8.91694H41.6563H41.6592C41.915 8.91694 42.1555 8.81781 42.3369 8.63753C42.519 8.45654 42.6197 8.21542 42.6206 7.95868C42.6207 7.93224 42.6196 7.9059 42.6176 7.87977C42.4068 5.19171 41.6966 2.60186 40.5067 0.182384C40.4716 0.110823 40.3851 0.0813214 40.3134 0.116234L38.8434 0.8349C38.8089 0.851846 38.7824 0.881756 38.7701 0.918098C38.7576 0.954542 38.7602 0.994252 38.7771 1.02875C39.703 2.91066 40.3122 4.9168 40.5889 6.9942H2.03314C2.30886 4.91701 2.91697 2.91076 3.84175 1.02875C3.85869 0.994252 3.86125 0.954542 3.84879 0.918098C3.83634 0.881756 3.81 0.851846 3.7755 0.835002L2.30876 0.116336C2.2371 0.0814234 2.15053 0.110823 2.11531 0.182486C0.926248 2.60216 0.216973 5.19202 0.00698727 7.87967C-0.0133273 8.13559 0.0673185 8.38427 0.234021 8.57955C0.400621 8.77494 0.633371 8.89366 0.889498 8.91398Z" fill="black"/>
<path fill-rule="evenodd" clip-rule="evenodd" d="M7.42786 16.2666H9.06119C9.14112 16.2666 9.20584 16.2017 9.20584 16.1219V14.4886C9.20584 14.4086 9.14112 14.3438 9.06119 14.3438H7.42786C7.34792 14.3438 7.2832 14.4086 7.2832 14.4886V16.1219C7.2832 16.2017 7.34792 16.2666 7.42786 16.2666Z" fill="black"/>
<path fill-rule="evenodd" clip-rule="evenodd" d="M21.3111 14.3438H10.6945C10.6145 14.3438 10.5498 14.4086 10.5498 14.4885V16.1217C10.5498 16.2016 10.6145 16.2666 10.6945 16.2666H21.3111C21.3911 16.2666 21.4558 16.2016 21.4558 16.1217V14.4885C21.4558 14.4086 21.3911 14.3438 21.3111 14.3438Z" fill="black"/>
<path fill-rule="evenodd" clip-rule="evenodd" d="M18.0445 17.6094H7.42786C7.34792 17.6094 7.2832 17.6743 7.2832 17.7541V19.3874C7.2832 19.4673 7.34792 19.5322 7.42786 19.5322H18.0445C18.1245 19.5322 18.1892 19.4673 18.1892 19.3874V17.7541C18.1892 17.6743 18.1245 17.6094 18.0445 17.6094Z" fill="black"/>
</g>
<defs>
<clipPath id="clip0_1427_3538">
<rect width="43" height="49" fill="white"/>
</clipPath>
</defs>
</svg>
