<svg width="50" height="50" viewBox="0 0 50 50" fill="none" xmlns="http://www.w3.org/2000/svg">
<g clip-path="url(#clip0_1427_3546)">
<path d="M24.9292 42.5C24.4689 42.5 24.0959 42.873 24.0959 43.3333V46.6666C24.0959 47.5871 23.3497 48.3333 22.4292 48.3333C21.5087 48.3333 20.7625 47.5871 20.7625 46.6666V45.8333C20.7626 45.6123 20.6748 45.4003 20.5184 45.2439C20.3622 45.0877 20.1502 44.9999 19.9291 44.9999C19.7081 44.9998 19.4961 45.0876 19.3397 45.2439C19.1835 45.4002 19.0957 45.6122 19.0957 45.8333V46.6666C19.0957 48.5075 20.5881 49.9999 22.429 49.9999C24.2699 49.9999 25.7623 48.5075 25.7623 46.6666V43.3333C25.7626 42.8731 25.3894 42.5 24.9292 42.5Z" fill="black"/>
<path d="M24.963 0C11.8429 0 1.15116 6.89863 0.0935432 16.0457C0.0424689 16.4846 0.342859 16.8869 0.778113 16.9628C1.21337 17.0387 1.63212 16.7616 1.73251 16.3313C2.36405 13.6287 5.11024 11.6666 8.26288 11.6666C10.7308 11.6107 13.0368 12.8906 14.2948 15.0146C14.5875 15.557 15.1583 15.891 15.7747 15.8802C16.391 15.8694 16.9498 15.5157 17.2233 14.9633C18.4113 12.6635 21.0568 11.126 24.0963 10.8829V20.8333C24.0963 21.2936 24.4693 21.6666 24.9296 21.6666C25.3898 21.6666 25.7629 21.2935 25.7629 20.8333V10.883C28.8023 11.1262 31.4479 12.6636 32.6362 14.9634C32.9187 15.519 33.4859 15.8723 34.1092 15.8806C34.717 15.8833 35.2768 15.5503 35.5643 15.0146C36.8223 12.8907 39.1283 11.6107 41.5962 11.6667C45.1135 11.6667 48.0358 14.0674 48.2482 17.133C48.279 17.5694 48.6416 17.9079 49.0791 17.9086C49.0938 17.9086 49.1084 17.9086 49.1231 17.9077C49.5771 17.8836 49.9282 17.5003 49.9124 17.0459C49.5765 7.48779 38.617 0 24.963 0ZM41.5963 10C38.5215 9.92012 35.6502 11.5319 34.117 14.1984C32.5378 11.1418 28.9314 9.1667 24.9296 9.1667C20.9277 9.1667 17.3214 11.1418 15.7612 14.2221C14.2268 11.5445 11.348 9.92363 8.26288 10.0001C6.58378 9.99561 4.93729 10.4632 3.51112 11.3494C7.07636 5.65283 15.4357 1.6668 24.9629 1.6668C34.5332 1.6668 42.8845 5.70166 46.4351 11.3966C44.9893 10.4771 43.3097 9.99248 41.5963 10Z" fill="black"/>
<path d="M35.0585 35.8428C34.7644 35.7964 34.4678 35.9105 34.2806 36.1421C33.7687 36.7192 33.1431 37.1843 32.4429 37.5083C31.5908 35.952 31.0602 34.2405 30.8824 32.4752C31.2883 32.4206 31.5922 32.0757 31.5953 31.6662V27.4995C31.593 27.1347 31.3506 26.815 31 26.7142C31.473 23.6032 32.6573 20.0032 33.9766 18.9952C34.3414 18.7153 34.4109 18.1929 34.1317 17.8275C33.8525 17.4621 33.3301 17.3918 32.9643 17.6704C31.6502 18.6749 30.6639 20.994 30.0212 23.3328H18.2621C17.8019 23.3328 17.4288 23.7059 17.4288 24.1661C17.4288 24.6264 17.8019 24.9994 18.2621 24.9994H19.9288V26.6661H16.5955C15.2154 26.6676 14.097 27.786 14.0955 29.1661V31.6661C14.0954 31.8871 14.1832 32.0991 14.3396 32.2555C14.4958 32.4117 14.7078 32.4995 14.9289 32.4995H17.3056C17.126 34.2563 16.5964 35.9594 15.7481 37.5083C15.048 37.1844 14.4224 36.7192 13.9105 36.1421C13.621 35.7841 13.0962 35.7285 12.7382 36.018C12.3802 36.3074 12.3246 36.8322 12.6141 37.1902C14.4027 39.4029 18.9096 40.8328 24.0956 40.8328C29.2817 40.8328 33.7884 39.4029 35.5772 37.1902C35.7644 36.9587 35.8139 36.6448 35.707 36.3668C35.6 36.0888 35.3527 35.8892 35.0585 35.8428ZM21.5954 24.9995H29.6191C29.497 25.582 29.398 26.1436 29.3222 26.6662H21.5954V24.9995ZM15.7621 30.8328V29.1661C15.7626 28.706 16.1354 28.3332 16.5954 28.3328H29.9287V30.8328H15.7621ZM24.0954 39.1662C21.7904 39.1878 19.4964 38.8449 17.2985 38.1502C18.2208 36.3939 18.7916 34.4745 18.9788 32.4995H29.2121C29.3993 34.4744 29.9701 36.3938 30.8925 38.1502C28.6945 38.8448 26.4005 39.1878 24.0954 39.1662Z" fill="black"/>
</g>
<defs>
<clipPath id="clip0_1427_3546">
<rect width="50" height="50" fill="white"/>
</clipPath>
</defs>
</svg>
