<svg width="39" height="49" viewBox="0 0 39 49" fill="none" xmlns="http://www.w3.org/2000/svg">
<g clip-path="url(#clip0_1427_3559)">
<path fill-rule="evenodd" clip-rule="evenodd" d="M18.8302 0.060973C18.9399 0.0213423 19.0601 0.0213423 19.1698 0.060973L37.6698 6.74153C37.868 6.81308 38 7.00115 38 7.21181V28.0303C38.3462 33.4837 34.914 44.7345 19.206 48.0415L19.0934 48.0651C19.0193 48.0807 18.9426 48.0792 18.8691 48.0609L18.7575 48.0329C14.6806 47.0137 10.0137 45.2131 6.34921 42.0721C2.65158 38.9027 0 34.3849 0 28.0628V7.21181C0 7.00114 0.132038 6.81308 0.330177 6.74153L18.8302 0.060973ZM2.33018 8.14571C2.13204 8.21726 2 8.40533 2 8.61599V28.0628C2 33.7407 4.34842 37.723 7.65079 40.5536C10.8908 43.3308 15.0306 45.0398 18.8623 46.0334C18.9376 46.0529 19.0184 46.0538 19.0943 46.037C33.4555 42.8633 36.3038 32.6532 36.0022 28.1293L36 28.0961V8.61599C36 8.40533 35.868 8.21727 35.6698 8.14571L19.1698 2.18738C19.0601 2.14775 18.9399 2.14775 18.8302 2.18738L2.33018 8.14571ZM19 11.0628C16.5022 11.0628 14.5 13.065 14.5 15.5628C14.5 18.0606 16.5022 20.0628 19 20.0628C21.4978 20.0628 23.5 18.0606 23.5 15.5628C23.5 13.065 21.4978 11.0628 19 11.0628ZM12.5 15.5628C12.5 11.9604 15.3976 9.06285 19 9.06285C22.6024 9.06285 25.5 11.9604 25.5 15.5628C25.5 19.1652 22.6024 22.0628 19 22.0628C15.3976 22.0628 12.5 19.1652 12.5 15.5628ZM15.9546 26.0628H22C24.4551 26.0628 26.1436 27.5148 27.2107 29.1386C28.2693 30.7495 28.8082 32.6489 28.99 33.9214C29.076 34.5238 28.6086 35.0629 28 35.0629H10C9.41749 35.0629 8.95827 34.5669 9.00295 33.9861C9.44916 28.1853 13.7139 26.2665 15.9095 26.0669L15.9546 26.0628ZM16.0485 28.0628C14.7276 28.2005 12.0555 29.2888 11.2208 32.7062C11.176 32.8898 11.3182 33.0629 11.5072 33.0629H26.3791C26.5765 33.0629 26.7202 32.8753 26.6621 32.6866C26.4142 31.8818 26.0459 31.008 25.5393 30.237C24.6897 28.9441 23.5449 28.0628 22 28.0628H16.0485Z" fill="black"/>
</g>
<defs>
<clipPath id="clip0_1427_3559">
<rect width="39" height="49" fill="white"/>
</clipPath>
</defs>
</svg>
