<svg width="49" height="49" viewBox="0 0 49 49" fill="none" xmlns="http://www.w3.org/2000/svg">
<g clip-path="url(#clip0_1427_3561)">
<mask id="mask0_1427_3561" style="mask-type:alpha" maskUnits="userSpaceOnUse" x="0" y="0" width="19" height="19">
<path fill-rule="evenodd" clip-rule="evenodd" d="M0 0H18.0346V18.0346H0V0Z" fill="black"/>
</mask>
<g mask="url(#mask0_1427_3561)">
<path fill-rule="evenodd" clip-rule="evenodd" d="M9.01731 1.94874C12.9149 1.94874 16.0859 5.11973 16.0859 9.01731C16.0859 12.9149 12.9149 16.0859 9.01731 16.0859C5.11973 16.0859 1.94874 12.9149 1.94874 9.01731C1.94874 5.11973 5.11973 1.94874 9.01731 1.94874ZM9.01731 18.0346C13.9894 18.0346 18.0346 13.9894 18.0346 9.01731C18.0346 4.0452 13.9894 0 9.01731 0C4.0452 0 0 4.0452 0 9.01731C0 13.9894 4.0452 18.0346 9.01731 18.0346Z" fill="black"/>
</g>
<path fill-rule="evenodd" clip-rule="evenodd" d="M9.77253 11.1287C9.95999 11.3164 10.2053 11.4102 10.4505 11.4102C10.6968 11.4102 10.9432 11.3156 11.1307 11.1264C11.5051 10.7488 11.5041 10.1376 11.1285 9.76123L9.97536 8.60595V4.32077C9.97536 3.78773 9.54532 3.35547 9.01502 3.35547C8.48473 3.35547 8.05469 3.78773 8.05469 4.32077V9.00684C8.05469 9.26342 8.15639 9.50948 8.33703 9.69057L9.77253 11.1287Z" fill="black"/>
<path fill-rule="evenodd" clip-rule="evenodd" d="M47.0859 35.7222H36.75V33.8252H41.6188C41.6217 33.8252 41.6245 33.8258 41.6273 33.8258C41.6303 33.8258 41.6333 33.8252 41.6363 33.8252H47.0859V35.7222ZM36.75 39.5162H47.0859V37.6192H36.75V39.5162ZM47.0859 43.3102H42.2222H36.75V41.4132H47.0859V43.3102ZM1.91406 47.1042H47.0859V45.2072H1.91406V47.1042ZM7.27344 42.8359C7.27344 42.2607 7.74573 41.7926 8.32617 41.7926H9.37891H13.207H14.2598C14.8402 41.7926 15.3125 42.2607 15.3125 42.8359V43.3102H7.27344V42.8359ZM12.25 31.454V39.8956H10.3359V31.454C10.3359 30.931 10.7653 30.5055 11.293 30.5055C11.8207 30.5055 12.25 30.931 12.25 31.454ZM14.2598 39.8956H14.1641V38.0934H18.6792V43.3102H17.2266V42.8359C17.2266 41.2146 15.8957 39.8956 14.2598 39.8956ZM1.91406 36.1964V22.9175H6.125H7.46484H20.6719V36.1964H14.1641V31.454C14.1641 29.885 12.8761 28.6085 11.293 28.6085C9.70985 28.6085 8.42188 29.885 8.42188 31.454V36.1964H1.91406ZM22.5859 37.1449V31.8691C22.8812 31.7149 23.1959 31.6005 23.5257 31.5288L27.7118 30.6186L30.0185 36.7323C30.1584 37.1029 30.5156 37.3486 30.9149 37.3486C31.3142 37.3486 31.6714 37.1029 31.8112 36.7323L34.1181 30.6182L38.3301 31.5309C38.6998 31.6109 39.0506 31.7466 39.3734 31.9281H35.793C35.2645 31.9281 34.8359 32.3529 34.8359 32.8766V36.6706V40.4646V43.3101H20.5933V38.0933H21.6289C22.1574 38.0933 22.5859 37.6687 22.5859 37.1449ZM32.4284 29.6806L30.9149 33.6921L29.3986 29.6734C29.8895 29.7921 30.4018 29.8565 30.9291 29.8565C31.4454 29.8565 31.9469 29.7945 32.4284 29.6806ZM26.3847 23.4555V22.088H28.1176C29.9192 22.088 31.6299 21.4071 32.9224 20.1967L35.4738 21.6824V23.4555C35.4738 25.939 33.435 27.9595 30.9292 27.9595C28.4234 27.9595 26.3847 25.9389 26.3847 23.4555ZM30.9291 15.3229C33.3153 15.3229 35.2778 17.1548 35.4599 19.4742L33.2352 18.1788C32.8322 17.9441 32.3171 18.0324 32.0169 18.3874C31.0478 19.5336 29.6265 20.1911 28.1176 20.1911H26.3847V20.0681V19.8269C26.3847 17.3434 28.4233 15.3229 30.9291 15.3229ZM48.043 31.9282H42.1527C41.3431 30.7868 40.1265 29.9783 38.7389 29.6776L34.5314 28.7658C36.2532 27.6149 37.3879 25.6641 37.3879 23.4554V21.1395V20.0679V19.8268C37.3879 16.2973 34.4905 13.4258 30.9292 13.4258C27.3679 13.4258 24.4706 16.2973 24.4706 19.8268V20.0679V21.1395V23.4554C24.4706 25.6612 25.6023 27.6101 27.3205 28.7616L23.1157 29.6758C22.936 29.7149 22.7594 29.7628 22.5859 29.8183V21.969C22.5859 21.4452 22.1574 21.0205 21.6289 21.0205H7.46484H6.125H0.957031C0.428559 21.0205 0 21.4452 0 21.969V37.1449C0 37.6687 0.428559 38.0934 0.957031 38.0934H8.42188V39.8956H8.32617C6.69022 39.8956 5.35938 41.2146 5.35938 42.8359V43.3102H0.957031C0.428559 43.3102 0 43.7349 0 44.2587V48.0527C0 48.5764 0.428559 49.0011 0.957031 49.0011H48.043C48.5714 49.0011 49 48.5764 49 48.0527V44.2587V40.4647V36.6707V32.8767C49 32.353 48.5714 31.9282 48.043 31.9282Z" fill="black"/>
</g>
<defs>
<clipPath id="clip0_1427_3561">
<rect width="49" height="49" fill="white"/>
</clipPath>
</defs>
</svg>
