<svg width="49" height="43" viewBox="0 0 49 43" xmlns="http://www.w3.org/2000/svg">
<mask id="mask0" mask-type="alpha" maskUnits="userSpaceOnUse" x="0" y="14" width="49" height="29">
<path fill-rule="evenodd" clip-rule="evenodd" d="M0.307495 14.822H48.3679V42.5283H0.307495V14.822Z" fill="white"/>
</mask>
<g mask="url(#mask0)">
<path fill-rule="evenodd" clip-rule="evenodd" d="M6.37555 27.3907C6.68512 27.0858 7.16043 27.0309 7.5379 27.2607C7.70034 27.3581 7.23386 26.9399 15.6685 35.2332C16.0437 35.6027 16.0235 36.1913 15.6735 36.5359L11.7937 40.2994L2.57016 31.1484L6.37555 27.3907ZM18.1428 21.257C19.5806 21.257 20.9707 21.5419 22.2754 22.1038C22.3943 22.1551 22.5222 22.1815 22.6517 22.1815H33.3116C34.3295 22.1815 35.1892 22.9988 35.1892 24.0298C35.1892 25.0494 34.3471 25.8786 33.3116 25.8786H25.6528C25.1345 25.8786 24.7142 26.2924 24.7142 26.8028C24.7142 27.3134 25.1345 27.7269 25.6528 27.7269H33.3116C35.3821 27.7269 37.0664 26.0685 37.0664 24.0298C37.0664 23.8674 37.0546 23.7062 37.0334 23.5467C42.3918 18.1234 43.1474 17.3614 43.1797 17.3234C43.8487 16.5458 45.0363 16.4473 45.8264 17.1032C46.6172 17.7615 46.7173 18.9301 46.0464 19.712L37.6269 29.6226C36.3974 30.7847 34.7832 31.4243 33.0769 31.4243H20.5977C19.3748 31.4243 18.2172 31.8847 17.3392 32.7201L16.5414 33.4781L9.1873 26.2375C10.9061 23.0627 14.1313 21.257 18.1428 21.257ZM11.1199 42.2549C11.4838 42.6162 12.0762 42.6201 12.4448 42.2625L16.9958 37.8479C17.7691 37.0866 18.0042 35.9596 17.6642 34.9797L18.6431 34.0501C19.1702 33.5488 19.8641 33.2726 20.5977 33.2726H33.0769C35.2908 33.2726 37.3833 32.4354 38.9697 30.9154C39.0349 30.8529 38.4742 31.5033 47.4832 20.9016C48.8193 19.3451 48.6195 17.0077 47.0372 15.6907C45.4648 14.3859 43.1092 14.5733 41.7693 16.1031L36.2301 21.7088C35.5307 20.8612 34.4641 20.3328 33.3116 20.3328H22.8439C21.3543 19.7192 19.7739 19.4087 18.1431 19.4087C13.6229 19.4087 9.67585 21.4642 7.55771 25.3184C6.66531 25.1519 5.72418 25.4177 5.04708 26.0844L0.581418 30.4943C0.216814 30.8544 0.216063 31.4369 0.579916 31.7981L11.1199 42.2549Z" />
</g>
<path fill-rule="evenodd" clip-rule="evenodd" d="M17.2998 9.2853C17.3435 9.23466 17.3871 9.18402 17.4306 9.13337C17.4306 8.97914 17.4289 8.82491 17.431 8.67069C17.4436 7.70175 18.1544 7.29596 19.0363 7.75883C19.8339 8.17749 20.6265 8.60488 21.4236 9.02464C21.5499 9.09118 21.687 9.18493 21.82 9.18613C23.1134 9.19835 24.4072 9.19348 25.685 9.19348V6.46112H25.2071C20.5815 6.46112 15.9557 6.43694 11.3307 6.48226C10.4535 6.4909 9.57943 6.77472 8.57422 6.95478C9.14019 7.53364 9.61968 7.94311 9.99527 8.42785C10.5076 9.08907 11.1426 9.34817 11.962 9.19247C12.1654 9.15387 12.3948 9.07372 12.5378 8.93889C12.932 8.56738 13.2798 8.15037 13.6589 7.76324C14.146 7.2659 14.6759 7.24862 15.1936 7.71186C15.6342 8.10598 16.0435 8.53484 16.5037 8.90534C16.7249 9.08328 17.0318 9.16177 17.2998 9.2853ZM39.9074 7.85138C39.9172 4.58905 37.1341 1.89924 33.7391 1.88977C30.414 1.88058 27.6055 4.59401 27.5879 7.83291C27.5703 11.0534 30.3667 13.7685 33.7219 13.7889C37.1087 13.8094 39.8974 11.1325 39.9074 7.85138ZM14.483 9.69137C14.1941 9.99634 13.9131 10.259 13.674 10.5535C13.3429 10.9611 12.9317 11.1158 12.4008 11.0928C11.7527 11.0645 11.0992 11.1238 10.4546 11.0718C10.1588 11.0479 9.80738 10.9167 9.60284 10.7176C8.4594 9.60497 7.3463 8.46297 6.23711 7.31802C5.6525 6.71452 5.85837 5.95055 6.67198 5.68814C7.77832 5.33133 8.89027 4.9896 10.0054 4.65909C10.2323 4.5919 10.4841 4.58151 10.7245 4.58133C15.7729 4.57609 20.8214 4.57159 25.8697 4.58436C26.2469 4.58528 26.4311 4.47453 26.6085 4.15265C28.2863 1.10889 31.7588 -0.478435 35.304 0.153369C38.6803 0.754935 41.3196 3.47112 41.7905 6.82886C42.3175 10.5864 39.9469 14.1615 36.1622 15.3169C32.491 16.4374 28.3498 14.7901 26.5874 11.4912C26.4225 11.1826 26.2392 11.0704 25.88 11.0772C24.6793 11.1001 23.4769 11.06 22.2768 11.0957C21.5707 11.1167 20.9327 11.0059 20.3435 10.6167C20.0643 10.4321 19.7502 10.2967 19.4086 10.1162C19.277 10.955 18.696 11.0459 17.9546 11.1101C16.6044 11.2273 15.498 10.926 14.6769 9.84376C14.6407 9.79606 14.5796 9.766 14.483 9.69137Z"/>
<path fill-rule="evenodd" clip-rule="evenodd" d="M34.9914 8.79622C34.4646 8.80072 34.0842 8.41522 34.077 7.86957C34.0699 7.32042 34.4396 6.92544 34.9651 6.92075C35.4942 6.91606 35.8698 7.29724 35.8776 7.84685C35.8854 8.39507 35.5151 8.79171 34.9914 8.79622ZM34.9495 5.54724C33.7025 5.55681 32.6658 6.61509 32.666 7.87812C32.6662 9.14226 33.7025 10.1723 34.9715 10.1698C36.2395 10.1672 37.2867 9.13242 37.2887 7.88042C37.2905 6.61647 36.2088 5.53759 34.9495 5.54724Z" />
</svg>
