<svg width="49" height="49" viewBox="0 0 49 49" xmlns="http://www.w3.org/2000/svg">
<path fill-rule="evenodd" clip-rule="evenodd" d="M15.5874 35.3775C15.7449 35.3512 15.9096 35.3343 16.0687 35.3179C16.3232 35.2918 16.5863 35.2648 16.8402 35.1982C17.5498 35.0124 17.9843 35.3104 18.4553 35.8515C20.9727 38.7442 22.1673 42.2322 22.0061 46.2193C22.0044 46.2241 22.002 46.2295 21.9993 46.2356L4.69501 46.0113C4.74115 45.7896 4.78367 45.571 4.82499 45.3581C4.93473 44.7929 5.03834 44.2589 5.19664 43.7395C5.98906 41.1384 7.65485 39.0661 10.1479 37.5799C11.5506 36.7437 13.4364 35.7378 15.5874 35.3775ZM15.0629 27.0197C15.4923 25.8024 15.286 24.7414 14.449 23.8645C13.9726 23.3653 13.4075 23.0887 12.7697 23.0423C12.5441 23.0257 12.4737 22.9381 12.3924 22.7348C11.9102 21.5292 11.6475 20.2532 11.5892 18.8336C11.5509 17.9028 11.2965 17.6616 10.3517 17.6603C9.88968 17.6599 9.42797 17.6602 8.96608 17.6606C7.72643 17.6619 6.44417 17.663 5.1841 17.6432C4.92544 17.6392 4.62342 17.5379 4.41471 17.3851C3.26373 16.5428 2.58672 15.3649 2.34505 13.7842C2.32964 13.6834 2.3132 13.5827 2.29677 13.482C2.28628 13.4179 2.27579 13.3538 2.26557 13.2895C3.18732 14.0661 4.14612 14.566 5.18893 14.815C6.42208 15.1095 7.55922 15.0738 8.5688 14.7083C10.1394 14.1399 11.7354 14.2226 13.3121 14.9543C14.7864 15.6386 16.0224 16.3345 17.091 17.082C19.1709 18.5371 19.8888 21.4651 18.761 23.8929C18.3243 24.8327 17.8261 25.7226 17.2987 26.6645C17.0862 27.0439 16.8672 27.4351 16.6531 27.8288L15.0629 27.0197ZM9.58748 33.3351C9.81912 33.1705 10.0504 33.0063 10.2797 32.839C11.6051 31.8718 12.4188 30.5979 12.698 29.0526C12.7507 28.761 12.8155 28.6877 13.0104 28.6973C13.0607 28.6992 13.1035 28.6888 13.1373 28.6649C13.7145 28.2615 14.1996 28.5196 14.7613 28.8183L14.9247 28.9047C16.1132 29.5294 16.1132 29.5294 16.412 30.8457C16.6064 31.7019 16.799 32.5584 16.9904 33.4153C16.9896 33.4195 16.9885 33.4241 16.9872 33.4294C14.5436 33.6121 12.1982 34.3644 10.0121 35.6665C10.0083 35.6622 10.0051 35.6585 10.0024 35.6549C9.81114 35.036 9.62118 34.4166 9.42612 33.7804L9.34284 33.509C9.42435 33.4509 9.50596 33.393 9.58748 33.3351ZM4.22169 29.0682C4.45018 26.8028 4.72824 24.4944 4.99721 22.2622C5.11076 21.3195 5.22468 20.3737 5.336 19.4233C5.34639 19.4224 5.35661 19.4216 5.36654 19.4206C5.44499 19.4139 5.51277 19.4079 5.57702 19.4078C5.98776 19.4074 6.39822 19.4078 6.80877 19.4084C7.7178 19.4094 8.65756 19.4105 9.58237 19.4007C9.84131 19.3993 9.88913 19.4405 9.90426 19.6854C9.98095 20.9315 10.2949 22.1901 10.922 23.7663C11.2222 24.5209 11.6649 24.8208 12.4045 24.7712C12.9198 24.7366 13.3096 25.0283 13.4732 25.5731C13.616 26.048 13.4479 26.5411 13.0645 26.7721C12.8466 26.9035 12.5428 26.9857 12.209 27.004C11.3389 27.0514 11.1022 27.2811 11.0581 28.121C10.963 29.93 9.97101 31.2794 8.1095 32.1315C7.28032 32.5112 6.30417 32.3932 5.49801 31.8165C4.60421 31.177 4.11511 30.1239 4.22169 29.0682ZM23.7595 45.8337C23.7616 45.6807 23.7637 45.5276 23.7629 45.3747C23.7394 40.9424 22.1696 37.1182 19.0971 34.0084C18.9785 33.8883 18.8771 33.6997 18.8325 33.5163C18.5318 32.2779 18.2153 30.9493 17.9376 29.623C17.8937 29.4129 17.9361 29.128 18.0408 28.9301C18.3653 28.3165 18.7088 27.699 19.041 27.1018C19.4132 26.4328 19.7981 25.7409 20.1587 25.0503C21.8888 21.7361 20.9937 17.6853 18.0763 15.6273C16.9815 14.8551 15.7431 14.1421 14.3956 13.5084C12.2328 12.4911 10.2207 12.3177 8.2445 12.9778C6.34186 13.6135 4.61256 13.1674 3.10423 11.6522C2.78967 11.3363 2.48273 11.0001 2.18591 10.6751C2.00654 10.4787 1.82726 10.2823 1.6451 10.0888C1.62579 10.0681 1.60611 10.046 1.58596 10.0232C1.48448 9.90846 1.36936 9.77839 1.21774 9.7574C0.869118 9.70912 0.601915 9.72955 0.401095 9.81951C0.170565 9.92285 -0.0816906 10.1718 0.0253578 10.7708C0.0950831 11.1616 0.168151 11.5518 0.241126 11.9421C0.371199 12.637 0.505636 13.3556 0.618534 14.0646C0.94822 16.1345 1.88501 17.7188 3.48247 18.908C3.53456 18.9468 3.59231 19.1057 3.58005 19.2152C3.26355 22.0513 2.91065 25.1369 2.50121 28.6484C2.30002 30.3736 2.86237 31.8236 4.17276 32.9578C5.15161 33.805 6.33304 34.1828 7.6854 34.0787C7.74398 34.2688 7.80154 34.4581 7.85883 34.6467C8.02418 35.1903 8.1952 35.7525 8.37931 36.2978C8.45739 36.529 8.42638 36.6244 8.22834 36.7618C6.95648 37.6444 5.86966 38.7611 4.99823 40.0811C3.72229 42.0139 3.02735 44.2659 2.93275 46.7749C2.92235 47.0525 3.00637 47.2934 3.1759 47.4716C3.35184 47.6564 3.60233 47.7559 3.90036 47.7595C5.65872 47.7805 7.41708 47.8007 9.17544 47.8208C11.9965 47.8533 14.8174 47.8859 17.6383 47.921C18.0054 47.9255 18.3798 47.9464 18.742 47.9666C18.913 47.9761 19.0841 47.9856 19.2552 47.9936L23.2186 47.9937L23.2534 47.9681C23.6393 47.6843 23.8031 47.2869 23.7688 46.718C23.7513 46.4257 23.7555 46.1248 23.7595 45.8337Z"/>
<path fill-rule="evenodd" clip-rule="evenodd" d="M26.7098 12.359L26.7 12.2727C26.6442 11.7813 26.7448 11.4489 27.0361 11.1612C27.2164 10.983 27.369 10.7776 27.5164 10.5791C27.5551 10.5269 27.5938 10.4749 27.6329 10.4233C28.0459 9.87951 27.9958 9.42588 27.4752 8.99564C27.3085 8.85805 27.1357 8.72074 26.9354 8.56179C26.8674 8.50785 26.7956 8.45075 26.7184 8.38938C26.7543 8.36125 26.7897 8.33367 26.8249 8.30638C26.9943 8.17482 27.1543 8.0505 27.2972 7.90251C27.5081 7.68433 27.6111 7.455 27.6036 7.22085C27.5959 6.98206 27.4738 6.75329 27.2404 6.54087C27.1249 6.43568 27.0031 6.33624 26.8853 6.24005C26.8238 6.18992 26.7622 6.13969 26.7014 6.08853C26.5809 5.98715 26.4609 5.88521 26.3309 5.77482L26.2713 5.72431C26.3678 5.65384 26.4628 5.58477 26.5567 5.51643C26.8626 5.2938 27.1517 5.0836 27.4393 4.86551C27.981 4.45477 28.0491 4.00364 27.6537 3.44575C27.5058 3.23722 27.355 3.03362 27.1953 2.81813C27.1488 2.75518 27.1015 2.69149 27.0536 2.62659C27.7688 2.14167 28.5816 1.86611 29.5336 1.78534C31.4396 1.62416 33.0049 2.49968 33.7185 4.12908C34.5051 5.92513 34.1221 7.87595 32.7429 9.09926C31.2194 10.4506 29.6444 11.7964 28.1214 13.0979C27.6145 13.531 27.1076 13.9642 26.6016 14.3982C26.8664 13.7293 26.7871 13.0351 26.7098 12.359ZM24.9791 13.1801C24.9542 13.4415 24.9284 13.7119 24.809 13.893C24.2563 14.7324 24.1938 15.5623 24.6182 16.4303C24.6225 16.4389 24.6263 16.4591 24.6297 16.4771C24.6342 16.5005 24.6389 16.524 24.646 16.5467C24.8096 17.0679 25.0852 17.2476 25.2877 17.3064C25.3453 17.3232 25.413 17.3348 25.4902 17.3348C25.6835 17.3348 25.9355 17.2616 26.2322 17.0114C26.7355 16.5869 27.2423 16.1501 27.7326 15.7277C27.9401 15.5489 28.1475 15.3702 28.3553 15.1917C28.9062 14.7188 29.458 14.2467 30.0097 13.7746C31.2191 12.7398 32.4696 11.6697 33.6911 10.6072C35.222 9.27585 36.0037 7.37423 35.8355 5.38989C35.6741 3.48363 34.6485 1.82238 33.0215 0.831931C30.429 -0.746127 27.0798 0.150832 25.2444 1.79592C24.8852 2.1179 24.8478 2.54916 25.1417 2.97912C25.3041 3.21661 25.4711 3.44287 25.6478 3.6825C25.6992 3.75204 25.7509 3.82204 25.8027 3.89279C25.6761 3.98461 25.5512 4.07448 25.4279 4.16315C25.0722 4.41921 24.7362 4.66107 24.4036 4.91592C24.122 5.1316 23.9684 5.3833 23.9594 5.64372C23.9504 5.90582 24.0878 6.16968 24.3569 6.40689C24.6127 6.63232 24.878 6.85096 25.1588 7.08242C25.254 7.16097 25.3518 7.24146 25.4524 7.32502C25.4157 7.359 25.3799 7.39196 25.3448 7.42427C25.2027 7.55518 25.0683 7.67885 24.9432 7.80948C24.7012 8.06173 24.5859 8.31594 24.6002 8.56476C24.6145 8.81274 24.7574 9.05079 25.0249 9.27204C25.2211 9.43451 25.4163 9.59077 25.623 9.75622C25.685 9.8058 25.7475 9.85584 25.8104 9.90635C25.8038 9.91591 25.7974 9.92529 25.791 9.93457C25.7362 10.0146 25.6888 10.0838 25.6325 10.1358C25.0031 10.7186 24.7844 11.4351 24.9636 12.3263C25.0095 12.5538 25.02 12.7965 24.9943 13.0284C24.9889 13.0781 24.984 13.1288 24.9791 13.1801Z"/>
<path fill-rule="evenodd" clip-rule="evenodd" d="M20.5172 3.35288C20.2202 3.92684 19.9294 4.48864 19.6402 5.05136C19.3085 5.69699 19.349 5.94971 19.8679 6.47483C20.1265 6.73647 20.3847 6.99828 20.6413 7.26177C20.6445 7.26957 20.648 7.27969 20.6529 7.29334C20.6566 7.30365 20.6609 7.31534 20.6659 7.32871C20.6275 7.36028 20.5878 7.39222 20.5473 7.42481C20.3918 7.55015 20.2155 7.6921 20.0605 7.85254C19.8434 8.07712 19.7386 8.31295 19.7492 8.5536C19.76 8.8 19.891 9.03387 20.1385 9.24853C20.2862 9.37665 20.4387 9.5032 20.5861 9.62547C20.8134 9.81422 21.0486 10.0093 21.2677 10.2117C21.3073 10.2484 21.3517 10.3691 21.3511 10.4189C20.7854 11.197 21.0938 11.898 21.4712 12.4817C21.5507 12.6044 21.6147 12.743 21.6826 12.8895C21.7013 12.93 21.7203 12.9709 21.7399 13.0125C21.6967 13.0425 21.6521 13.0723 21.6061 13.1031C21.2606 13.3342 20.8424 13.614 20.8964 14.202C20.8776 14.1895 20.8612 14.1775 20.8465 14.165C20.3169 13.7111 19.7861 13.2585 19.2554 12.8059C17.886 11.6382 16.4701 10.4306 15.0962 9.22244C13.8045 8.0865 13.3416 6.65959 13.7204 4.98126C14.0839 3.37052 15.029 2.34535 16.5291 1.93405C16.9776 1.81122 17.4194 1.74957 17.8575 1.74957C18.864 1.74957 19.8491 2.07527 20.8386 2.73176L20.5172 3.35288ZM13.7716 10.3481C15.548 11.9517 17.3996 13.5301 19.1904 15.0565C19.9552 15.7085 20.7461 16.3826 21.5203 17.0495C21.7375 17.2366 21.9506 17.3297 22.1646 17.3297C22.2971 17.3297 22.4301 17.294 22.5642 17.2226C22.9382 17.0237 23.0907 16.6856 23.0176 16.2177C23.0027 16.1228 22.9899 16.027 22.9772 15.9312C22.9405 15.6553 22.9026 15.3701 22.8135 15.1001C22.6591 14.6314 22.7759 14.3611 23.2444 14.1027C23.7909 13.8014 23.8951 13.4079 23.5925 12.7871C23.5622 12.7251 23.5332 12.6622 23.5042 12.5992C23.4147 12.4052 23.3221 12.2047 23.1933 12.0269C22.8673 11.5768 22.8636 11.1661 23.1808 10.654C23.5721 10.0223 23.3943 9.69529 22.9029 9.2787C22.6642 9.0763 22.4248 8.87474 22.1644 8.65554L21.892 8.42622C21.9246 8.39725 21.9567 8.36884 21.9883 8.34089C22.1317 8.21416 22.2671 8.09449 22.3939 7.96469C22.8773 7.46965 22.8769 7.02799 22.3928 6.53268C22.153 6.28748 21.908 6.05342 21.6486 5.80553C21.5543 5.71547 21.4588 5.62411 21.3616 5.53052C21.4837 5.29294 21.6037 5.05851 21.7223 4.82659C22.0433 4.19943 22.3464 3.607 22.6616 3.01066C22.9222 2.51767 22.8502 2.09978 22.4474 1.7687C20.4585 0.133913 18.2986 -0.370876 16.0276 0.268072C13.9184 0.861619 12.5362 2.35278 12.0306 4.58046C11.5135 6.85865 12.1156 8.85302 13.7716 10.3481Z"/>
<path fill-rule="evenodd" clip-rule="evenodd" d="M32.1394 45.9746C32.1588 45.475 32.163 44.9725 32.167 44.4852C32.1811 42.7857 32.1946 41.1805 32.7932 39.6041C33.4141 37.9691 34.4145 36.5843 35.7664 35.4878C35.9762 35.3177 36.1003 35.3034 36.32 35.4236C38.816 36.791 41.486 38.2434 44.9771 40.1326C45.6447 40.4941 45.9688 40.9857 45.9682 41.6358C45.9673 42.295 45.6419 42.7851 44.9731 43.1341C43.8483 43.7212 42.888 44.5857 42.1186 45.7034C42.0227 45.8429 41.8161 45.9755 41.6935 45.9764C39.0168 45.9932 36.2951 45.9914 33.6628 45.9896L32.2908 45.9887C32.2511 45.9887 32.2072 45.9832 32.1465 45.9755C32.1442 45.9753 32.1418 45.9749 32.1394 45.9746ZM27.6056 28.4893C28.1695 27.9845 28.9832 27.732 29.7962 27.732C30.6089 27.732 31.4209 27.9843 31.9817 28.4891C32.3947 28.8607 32.6219 29.3308 32.6217 29.8127C32.6214 30.2953 32.393 30.766 31.9785 31.1382C31.4332 31.6281 30.656 31.8985 29.7908 31.8997C28.9005 31.8983 28.1852 31.6483 27.604 31.1357C27.1914 30.7719 26.9631 30.3062 26.9614 29.8246C26.9594 29.3373 27.1883 28.863 27.6056 28.4893ZM40.5364 31.5749C39.5432 31.6966 38.7149 31.3243 38.0744 30.4667C37.036 29.0759 36.8198 27.8037 37.394 26.4631C37.5827 26.0224 37.4263 25.6212 36.9649 25.3626C36.8727 25.3109 36.7772 25.2673 36.6849 25.2252C36.5929 25.1832 36.5059 25.1434 36.4229 25.0967C36.0129 24.8663 35.852 24.4397 36.0228 24.0354C36.1563 23.7194 36.4414 23.5381 36.7618 23.5381C36.8713 23.5381 36.9847 23.5592 37.0977 23.6035C37.4214 23.7299 37.7435 23.8823 38.0551 24.0297C38.1993 24.0978 38.3434 24.1661 38.4884 24.232C39.1278 24.5238 39.3847 24.471 39.862 23.9495C40.5553 23.192 41.0328 22.2647 41.2816 21.1932C41.3174 21.0388 41.3683 20.883 41.4224 20.7179C41.4347 20.6801 41.4473 20.6417 41.4601 20.6024C41.6552 20.6948 41.8493 20.7842 42.0415 20.8727C42.5737 21.1179 43.0763 21.3495 43.5631 21.6229C44.3921 22.0886 44.7941 23.0873 44.5189 23.9979C43.8963 26.0571 43.2807 28.0702 42.5958 30.0592C42.2207 31.1485 41.2689 31.4846 40.5364 31.5749ZM37.876 32.6327C38.7359 33.2404 39.7451 33.468 40.8779 33.3101V34.0072L40.8616 34.0052L40.8481 34.5813C40.8365 35.0723 40.8246 35.576 40.8195 35.8695C39.2339 35.1074 38.3207 34.523 36.8435 33.5779L36.743 33.5135L36.5461 32.3683C37.0691 32.3259 37.4612 32.3395 37.876 32.6327ZM33.2921 27.3531C32.3798 26.425 30.9691 25.9043 29.6112 25.9925C29.3136 26.0114 29.2059 25.9459 29.0854 25.6718C28.2444 23.7566 28.2237 21.6251 29.0273 19.6699C29.8319 17.7121 31.3723 16.1518 33.3645 15.2762C35.2424 14.4509 37.2293 14.2753 39.4386 14.7394C39.8772 14.8315 40.3249 14.912 40.7579 14.9898C41.2555 15.0791 41.77 15.1716 42.2704 15.2819C43.4892 15.5503 44.555 16.3406 45.194 17.4504C45.8358 18.5643 45.9852 19.8883 45.6038 21.0829C45.6003 21.0941 45.5963 21.1052 45.5918 21.1168C44.7767 20.1086 43.6555 19.6442 42.5694 19.1943C42.1415 19.0172 41.6993 18.8339 41.2875 18.6211C41.0836 18.5155 40.8696 18.5 40.6688 18.5758C40.4341 18.6645 40.2443 18.8688 40.1343 19.1512C40.0136 19.4613 39.9095 19.7817 39.809 20.0917C39.726 20.3477 39.6401 20.6123 39.5459 20.8675C39.3996 21.2634 39.2409 21.6504 39.073 22.0602C39.0151 22.2011 38.9566 22.3438 38.8979 22.4887L38.6439 22.376C38.4183 22.2759 38.217 22.1867 38.0163 22.0963C36.647 21.4797 35.2602 21.8742 34.5658 23.078C33.8696 24.2846 34.2219 25.6805 35.4423 26.5512C35.4584 26.5627 35.4756 26.5787 35.4988 26.6005C35.1565 28.0284 35.3605 29.3854 36.1055 30.6368L34.3706 30.3286C34.4374 29.1669 34.0658 28.1402 33.2921 27.3531ZM45.8689 38.6275C45.4518 38.3921 45.0361 38.154 44.6206 37.9157C44.0234 37.5735 43.406 37.2196 42.7931 36.8801C42.5767 36.7603 42.5076 36.6435 42.5193 36.4173C42.5553 35.7243 42.5852 35.0198 42.6142 34.3385C42.6368 33.8075 42.6594 33.2766 42.6849 32.7459C42.6887 32.6663 42.721 32.5855 42.7405 32.5701C43.8745 31.8073 44.3 30.6269 44.669 29.3822C44.8598 28.739 45.0725 28.0894 45.2782 27.4613C45.5613 26.5962 45.8542 25.7018 46.0954 24.8075C46.3133 23.9998 46.6045 23.1925 47.0395 22.1903C47.7962 20.4473 47.7223 18.4821 46.8369 16.7985C45.9377 15.0888 44.3296 13.8949 42.4246 13.5228C42.114 13.4621 41.7974 13.4057 41.4914 13.3512C41.0473 13.2721 40.5882 13.1903 40.1412 13.0943C37.5915 12.5464 35.3491 12.6545 33.2862 13.4249C31.1551 14.2209 29.4205 15.5835 28.2699 17.3653C27.113 19.1569 26.5988 21.2937 26.7828 23.5445C26.8395 24.2373 27.0125 24.9085 27.1958 25.6191C27.2739 25.9216 27.3543 26.2336 27.4262 26.5513C27.3723 26.5919 27.325 26.6096 27.2844 26.6038C27.214 26.5937 27.1299 26.5089 27.0473 26.365C26.7564 25.8573 26.4239 25.3886 26.1372 24.997C25.9254 24.7077 25.7291 24.5585 25.5535 24.5534C25.2381 24.5461 24.8925 24.6564 24.6856 24.8314C24.4003 25.0729 24.3768 25.475 24.6257 25.856C24.9373 26.3329 25.252 26.8078 25.5636 27.2776L25.894 27.7764C25.3157 28.6409 25.1013 29.5623 25.274 30.4465C25.4559 31.378 26.0649 32.2409 26.9449 32.8141C27.779 33.3574 28.668 33.6328 29.5874 33.6328C29.5945 33.6329 29.6019 33.6327 29.6085 33.6327C29.9143 33.6327 30.0794 33.7238 30.2376 33.9786C30.4496 34.3202 30.6885 34.65 30.9195 34.9691C31.0046 35.0865 31.0896 35.2039 31.1736 35.322C31.4019 35.6438 31.6499 35.8284 31.9107 35.8711C32.1184 35.9055 32.3252 35.8486 32.5253 35.703C32.7813 35.5169 33.1328 35.0918 32.6124 34.335C32.4138 34.0462 32.2133 33.7588 32.0328 33.5L31.9043 33.3154C32.0394 33.2136 32.1728 33.1154 32.3038 33.019C32.6933 32.7321 33.0614 32.4611 33.3999 32.1513C33.6051 31.9634 33.7298 31.9435 34.0015 31.9791C34.6292 32.0616 34.8948 32.3846 34.8893 33.0593C34.8883 33.1743 34.9197 33.2879 34.9472 33.3739C35.051 33.6996 34.9723 33.9081 34.6464 34.1708C32.302 36.0607 30.9428 38.4511 30.6068 41.2759C30.4604 42.5064 30.4383 43.7692 30.4168 44.9905C30.408 45.499 30.3987 46.0247 30.3807 46.54C30.3635 47.0273 30.4281 47.3002 30.6037 47.4822C30.7782 47.663 31.0455 47.7367 31.5265 47.7369C32.4801 47.7371 33.4335 47.7367 34.3871 47.7361C36.8847 47.7346 39.4674 47.7328 42.0072 47.7502C42.0137 47.7503 42.0202 47.7503 42.0266 47.7503C42.6654 47.7503 43.0696 47.5273 43.3755 47.0072C43.9808 45.9784 44.799 45.1915 45.8073 44.6685C47.0499 44.0239 47.6913 43.0226 47.7138 41.6922C47.7363 40.3618 47.1156 39.3307 45.8689 38.6275Z"/>
</svg>
