<svg width="52" height="39" viewBox="0 0 52 39" xmlns="http://www.w3.org/2000/svg">
<path fill-rule="evenodd" clip-rule="evenodd" d="M48.8138 11.8271V27.8851C50.3361 29.2268 51.2 31.1285 51.2 33.1785V37.8696C51.2 38.4238 50.7507 38.873 50.1966 38.873H25.8321C25.7575 38.8908 25.6801 38.9011 25.6 38.9011H1.0034C0.4492 38.9011 0 38.4519 0 37.8977V33.2066C0 29.3108 3.1695 26.1413 7.0653 26.1414H10.2885V23.9028C9.4063 23.5246 8.5948 22.9793 7.8954 22.2805C6.5204 20.9055 5.7354 19.0994 5.6627 17.1675H5.5441C3.8028 17.1675 2.3862 15.7509 2.3862 14.0096C2.3862 13.1648 2.7151 12.3715 3.3123 11.7759C3.5781 11.5093 3.885 11.298 4.2196 11.1436V10.9842C4.2196 7.76307 5.95 4.75487 8.7357 3.13277L8.7367 3.13217C10.1177 2.32747 11.6963 1.90197 13.302 1.90197C18.3099 1.90197 22.3842 5.97627 22.3842 10.9842V11.142C22.7178 11.2964 23.0251 11.5099 23.2923 11.7778C23.8876 12.3715 24.2164 13.1648 24.2164 14.0096C24.2164 15.7508 22.7998 17.1675 21.0585 17.1675H20.9396C20.8246 20.1876 18.9508 22.7644 16.3141 23.8992V26.1413H19.5382C22.0968 26.1413 24.3462 27.5149 25.5863 29.5628C25.9569 28.9419 26.4257 28.3761 26.9828 27.8851V11.8271V10.922C26.9828 4.90317 31.8795 0.00646973 37.8983 0.00646973C43.9171 0.00646973 48.8138 4.90317 48.8138 10.922V11.8271ZM21.0584 12.8586H20.947V15.1606H21.0584C21.6931 15.1606 22.2094 14.6443 22.2094 14.0096C22.2094 13.7018 22.0898 13.4132 21.873 13.1969C21.6548 12.978 21.3662 12.8586 21.0584 12.8586ZM5.6554 15.1606H5.544C4.9094 15.1606 4.393 14.6443 4.393 14.0096C4.393 13.7018 4.5124 13.4132 4.7315 13.1948C4.8838 13.0421 5.0712 12.9377 5.278 12.8895C5.4034 12.8887 5.5294 12.8852 5.6554 12.8788V15.1606ZM20.367 10.6044C20.169 6.87887 17.0757 3.90887 13.3017 3.90887C12.3034 3.90887 11.3191 4.11957 10.4164 4.52307C10.7849 5.71067 11.4053 6.81557 12.2342 7.75257C13.9106 9.64757 16.3215 10.7344 18.8489 10.7344C19.1817 10.7344 19.5117 10.7159 19.8297 10.6796L19.8355 10.679C20.0129 10.6598 20.1903 10.6349 20.367 10.6044ZM6.3988 10.775L6.3824 10.778C6.33126 10.7875 6.2801 10.797 6.2287 10.8051C6.2798 8.80557 7.1852 6.92627 8.6752 5.63347C9.0465 6.64577 9.5687 7.60067 10.2234 8.46187C9.2998 9.62737 7.9886 10.4448 6.5305 10.7486C6.4856 10.7544 6.4417 10.7634 6.3988 10.775ZM7.6623 16.8734C7.6623 18.3797 8.2489 19.7958 9.3141 20.8608C10.3794 21.9253 11.7956 22.5116 13.3016 22.5116C16.4106 22.5116 18.94 19.9822 18.94 16.8732V16.1638V12.7398L18.9024 12.7404H18.9023C18.8845 12.7407 18.8666 12.7411 18.8487 12.7411C16.1578 12.7411 13.5749 11.7369 11.5946 9.95277C10.5566 11.1652 9.1881 12.064 7.6623 12.529V16.164V16.8734ZM14.3072 24.5187V26.1413H12.2953V24.5187H14.3072ZM2.0069 33.2066V36.8943H24.5965H24.5966V33.183C24.5841 30.4069 22.3148 28.1482 19.5382 28.1482H7.0653C4.2761 28.1482 2.0069 30.4174 2.0069 33.2066ZM37.8983 22.4847C36.3918 22.4847 34.9762 21.8982 33.9117 20.833C32.8465 19.7677 32.2599 18.3516 32.2599 16.8454V12.2112C33.0023 11.9319 33.7192 11.5787 34.399 11.1557C35.7778 10.2968 36.9666 9.17367 37.8992 7.85747C39.2996 9.82777 41.2732 11.355 43.5367 12.2085V16.8454C43.5367 19.9549 41.0073 22.4847 37.8983 22.4847ZM38.9037 26.1132V24.5187H36.8928V26.1132H38.9037ZM30.1406 17.1674H30.2608C30.34 19.0888 31.1245 20.884 32.4922 22.2517C33.1914 22.9514 34.0032 23.4973 34.8858 23.8758V26.1132H31.6618C30.7306 26.1132 29.8289 26.2921 28.9896 26.6357V16.9493C29.3466 17.0895 29.7345 17.1674 30.1406 17.1674ZM29.3282 13.1947C29.1091 13.4132 28.9897 13.7018 28.9897 14.0096C28.9897 14.6442 29.506 15.1606 30.1406 15.1605H30.253V12.8586H30.1406C30.0744 12.8586 30.0123 12.8638 29.956 12.8739L29.9441 12.876C29.7099 12.9152 29.497 13.0254 29.3282 13.1947ZM40.9106 23.872C43.5391 22.7405 45.41 20.176 45.5354 17.1675H45.656C46.0563 17.1675 46.4449 17.0926 46.807 16.9511V26.6359C45.9677 26.2922 45.066 26.1133 44.1348 26.1133H40.9106V23.872ZM45.656 12.8586H45.5437H45.5436V15.1605H45.656C45.9632 15.1605 46.2522 15.0407 46.4696 14.8232C46.6872 14.6058 46.8069 14.3168 46.8069 14.0095C46.8069 13.4458 46.3882 12.9568 45.8329 12.8722C45.7738 12.8628 45.7164 12.8586 45.656 12.8586ZM28.9895 10.922C28.9897 6.00977 32.9861 2.01337 37.8983 2.01337C42.8106 2.01337 46.8069 6.00977 46.8069 10.922V10.9269C46.5872 10.9052 46.3687 10.8784 46.1526 10.8426C45.7143 10.7717 45.2731 10.6686 44.8408 10.5364L44.8336 10.5343C42.2396 9.73907 40.037 7.89377 38.7905 5.47157C38.6185 5.13727 38.2741 4.92727 37.8982 4.92727C37.5223 4.92727 37.1779 5.13737 37.0059 5.47167C36.1658 7.10437 34.8975 8.48067 33.3382 9.45187C32.6016 9.91017 31.8135 10.271 30.9949 10.5245L29.5767 10.8538C29.383 10.8846 29.1868 10.9078 28.9894 10.9272V10.922H28.9895ZM26.6034 36.8662H49.1931V33.1785C49.1931 31.5883 48.4671 30.1219 47.2012 29.1555H47.2011C46.3144 28.4782 45.2539 28.1202 44.1346 28.1202H40.1392C40.0646 28.138 39.9872 28.1483 39.9071 28.1483H35.8893C35.8093 28.1483 35.7319 28.1379 35.6572 28.1202H31.6618C30.6117 28.1202 29.6135 28.4352 28.7619 29.0334C28.667 29.1489 28.5464 29.242 28.4093 29.3059C27.2592 30.2706 26.6034 31.6682 26.6034 33.1785V36.8662Z"/>
<path fill-rule="evenodd" clip-rule="evenodd" d="M44.0582 33.5638H38.4389C37.8848 33.5638 37.4355 34.013 37.4355 34.5672C37.4355 35.1214 37.8848 35.5706 38.4389 35.5706H44.0582C44.6123 35.5706 45.0616 35.1214 45.0616 34.5672C45.0616 34.013 44.6124 33.5638 44.0582 33.5638Z"/>
<path fill-rule="evenodd" clip-rule="evenodd" d="M47.2691 33.5638C45.9778 33.5638 45.9756 35.5707 47.2691 35.5707C48.5604 35.5707 48.5625 33.5638 47.2691 33.5638Z"/>
</svg>
