<svg width="52" height="39" viewBox="0 0 52 39" fill="none" xmlns="http://www.w3.org/2000/svg">
<g clip-path="url(#clip0_1427_3384)">
<path fill-rule="evenodd" clip-rule="evenodd" d="M48.8138 11.8284V27.8864C50.3361 29.2281 51.2 31.1298 51.2 33.1798V37.8709C51.2 38.4251 50.7507 38.8743 50.1966 38.8743H25.8321C25.7575 38.8921 25.6801 38.9024 25.6 38.9024H1.0034C0.4492 38.9024 0 38.4532 0 37.899V33.2079C0 29.3121 3.1695 26.1426 7.0653 26.1427H10.2885V23.9041C9.4063 23.5259 8.5948 22.9806 7.8954 22.2818C6.5204 20.9068 5.7354 19.1007 5.6627 17.1688H5.5441C3.8028 17.1688 2.3862 15.7522 2.3862 14.0109C2.3862 13.1661 2.7151 12.3728 3.3123 11.7772C3.5781 11.5106 3.885 11.2993 4.2196 11.1449V10.9855C4.2196 7.76442 5.95 4.75622 8.7357 3.13412L8.7367 3.13352C10.1177 2.32882 11.6963 1.90332 13.302 1.90332C18.3099 1.90332 22.3842 5.97762 22.3842 10.9855V11.1433C22.7178 11.2977 23.0251 11.5112 23.2923 11.7791C23.8876 12.3728 24.2164 13.1661 24.2164 14.0109C24.2164 15.7521 22.7998 17.1688 21.0585 17.1688H20.9396C20.8246 20.1889 18.9508 22.7657 16.3141 23.9005V26.1426H19.5382C22.0968 26.1426 24.3462 27.5162 25.5863 29.5641C25.9569 28.9432 26.4257 28.3774 26.9828 27.8864V11.8284V10.9233C26.9828 4.90452 31.8795 0.0078125 37.8983 0.0078125C43.9171 0.0078125 48.8138 4.90452 48.8138 10.9233V11.8284ZM21.0584 12.8599H20.947V15.1619H21.0584C21.6931 15.1619 22.2094 14.6456 22.2094 14.0109C22.2094 13.7031 22.0898 13.4145 21.873 13.1982C21.6548 12.9793 21.3662 12.8599 21.0584 12.8599ZM5.6554 15.1619H5.544C4.9094 15.1619 4.393 14.6456 4.393 14.0109C4.393 13.7031 4.5124 13.4145 4.7315 13.1961C4.8838 13.0434 5.0712 12.939 5.278 12.8908C5.4034 12.89 5.5294 12.8865 5.6554 12.8801V15.1619ZM20.367 10.6057C20.169 6.88022 17.0757 3.91022 13.3017 3.91022C12.3034 3.91022 11.3191 4.12092 10.4164 4.52442C10.7849 5.71202 11.4053 6.81692 12.2342 7.75392C13.9106 9.64892 16.3215 10.7357 18.8489 10.7357C19.1817 10.7357 19.5117 10.7172 19.8297 10.6809L19.8355 10.6803C20.0129 10.6611 20.1903 10.6362 20.367 10.6057ZM6.3988 10.7763L6.3824 10.7794C6.33126 10.7889 6.2801 10.7984 6.2287 10.8064C6.2798 8.80692 7.1852 6.92762 8.6752 5.63482C9.0465 6.64712 9.5687 7.60202 10.2234 8.46322C9.2998 9.62872 7.9886 10.4461 6.5305 10.7499C6.4856 10.7557 6.4417 10.7647 6.3988 10.7763ZM7.6623 16.8747C7.6623 18.381 8.2489 19.7971 9.3141 20.8621C10.3794 21.9266 11.7956 22.5129 13.3016 22.5129C16.4106 22.5129 18.94 19.9835 18.94 16.8745V16.1651V12.7411L18.9024 12.7417C18.8846 12.7421 18.8666 12.7424 18.8487 12.7424C16.1578 12.7424 13.5749 11.7382 11.5946 9.95412C10.5566 11.1665 9.1881 12.0653 7.6623 12.5303V16.1653V16.8747ZM14.3072 24.52V26.1426H12.2953V24.52H14.3072ZM2.0069 33.2079V36.8956H24.5965L24.5966 33.1843C24.5841 30.4082 22.3148 28.1495 19.5382 28.1495H7.0653C4.2761 28.1495 2.0069 30.4187 2.0069 33.2079ZM37.8983 22.486C36.3918 22.486 34.9762 21.8995 33.9117 20.8343C32.8465 19.769 32.2599 18.3529 32.2599 16.8467V12.2125C33.0023 11.9332 33.7192 11.58 34.399 11.157C35.7778 10.2981 36.9666 9.17502 37.8992 7.85882C39.2996 9.82912 41.2732 11.3563 43.5367 12.2098V16.8467C43.5367 19.9562 41.0073 22.486 37.8983 22.486ZM38.9037 26.1145V24.52H36.8928V26.1145H38.9037ZM30.1406 17.1687H30.2608C30.34 19.0901 31.1245 20.8853 32.4922 22.253C33.1914 22.9527 34.0032 23.4986 34.8858 23.8771V26.1145H31.6618C30.7306 26.1145 29.8289 26.2934 28.9896 26.637V16.9506C29.3466 17.0908 29.7345 17.1687 30.1406 17.1687ZM29.3282 13.196C29.1091 13.4145 28.9897 13.7031 28.9897 14.0109C28.9897 14.6455 29.506 15.1619 30.1406 15.1618H30.253V12.8599H30.1406C30.0744 12.8599 30.0123 12.8651 29.956 12.8752L29.9441 12.8773C29.7099 12.9165 29.497 13.0267 29.3282 13.196ZM40.9106 23.8733C43.5391 22.7418 45.41 20.1773 45.5354 17.1688H45.656C46.0563 17.1688 46.4449 17.0939 46.807 16.9524V26.6372C45.9677 26.2935 45.066 26.1146 44.1348 26.1146H40.9106V23.8733ZM45.656 12.8599H45.5437L45.5436 15.1618H45.656C45.9632 15.1618 46.2522 15.042 46.4696 14.8245C46.6872 14.6071 46.8069 14.3181 46.8069 14.0108C46.8069 13.4471 46.3882 12.9581 45.8329 12.8735C45.7738 12.8641 45.7164 12.8599 45.656 12.8599ZM28.9895 10.9233C28.9897 6.01112 32.9861 2.01472 37.8983 2.01472C42.8106 2.01472 46.8069 6.01112 46.8069 10.9233V10.9282C46.5872 10.9065 46.3687 10.8797 46.1526 10.8439C45.7143 10.773 45.2731 10.6699 44.8408 10.5377L44.8336 10.5356C42.2396 9.74042 40.037 7.89512 38.7905 5.47292C38.6185 5.13862 38.2741 4.92862 37.8982 4.92862C37.5223 4.92862 37.1779 5.13872 37.0059 5.47302C36.1658 7.10572 34.8975 8.48202 33.3382 9.45322C32.6016 9.91152 31.8135 10.2723 30.9949 10.5258L29.5767 10.8551C29.383 10.8859 29.1868 10.9091 28.9894 10.9285L28.9895 10.9233ZM26.6034 36.8675H49.1931V33.1798C49.1931 31.5896 48.4671 30.1232 47.2012 29.1568C46.3145 28.4795 45.2539 28.1215 44.1346 28.1215H40.1392C40.0646 28.1393 39.9872 28.1496 39.9071 28.1496H35.8893C35.8093 28.1496 35.7319 28.1392 35.6572 28.1215H31.6618C30.6117 28.1215 29.6135 28.4365 28.7619 29.0347C28.667 29.1502 28.5464 29.2433 28.4093 29.3072C27.2592 30.2719 26.6034 31.6695 26.6034 33.1798V36.8675Z" fill="black"/>
<path fill-rule="evenodd" clip-rule="evenodd" d="M44.0582 33.5625H38.4389C37.8848 33.5625 37.4355 34.0117 37.4355 34.5659C37.4355 35.1201 37.8848 35.5693 38.4389 35.5693H44.0582C44.6123 35.5693 45.0616 35.1201 45.0616 34.5659C45.0616 34.0117 44.6124 33.5625 44.0582 33.5625Z" fill="black"/>
<path fill-rule="evenodd" clip-rule="evenodd" d="M47.2701 33.5625C45.9788 33.5625 45.9766 35.5694 47.2701 35.5694C48.5614 35.5694 48.5635 33.5625 47.2701 33.5625Z" fill="black"/>
</g>
<defs>
<clipPath id="clip0_1427_3384">
<rect width="52" height="39" fill="white"/>
</clipPath>
</defs>
</svg>
