<svg width="34" height="34" viewBox="0 0 34 34" fill="none" xmlns="http://www.w3.org/2000/svg">
<mask id="mask0_900_19782" style="mask-type:alpha" maskUnits="userSpaceOnUse" x="0" y="0" width="34" height="34">
<rect width="33.915" height="33.915" fill="#D9D9D9"/>
</mask>
<g mask="url(#mask0_900_19782)">
<path d="M10.0039 26H24.0039V24.0231H17.0039H10.0039V26ZM10.0039 21H24.0039V19H10.0039V21ZM25.44 31.0887H8.48251C7.70529 31.0887 7.03994 30.812 6.48646 30.2585C5.93299 29.705 5.65625 29.0397 5.65625 28.2625V5.65243C5.65625 4.87521 5.93299 4.20986 6.48646 3.65638C7.03994 3.10291 7.70529 2.82617 8.48251 2.82617H25.44C26.2172 2.82617 26.8826 3.10291 27.436 3.65638C27.9895 4.20986 28.2662 4.87521 28.2662 5.65243V28.2625C28.2662 29.0397 27.9895 29.705 27.436 30.2585C26.8826 30.812 26.2172 31.0887 25.44 31.0887ZM8.00391 29H26.0039V5H8.00391V29Z" fill="#023DA7"/>
<path d="M24.0039 21H10.0039V19H24.0039V21Z" fill="#023DA7"/>
</g>
<path d="M16.5364 15V14.2833C16.2125 14.2167 15.9329 14.0889 15.6976 13.9C15.4623 13.7111 15.2897 13.4444 15.1797 13.1L15.8581 12.85C15.9497 13.1167 16.0857 13.3194 16.266 13.4583C16.4463 13.5972 16.6831 13.6667 16.9765 13.6667C17.2271 13.6667 17.4394 13.6153 17.6136 13.5125C17.7878 13.4097 17.8749 13.25 17.8749 13.0333C17.8749 12.8389 17.8076 12.6847 17.6732 12.5708C17.5387 12.4569 17.2271 12.3278 16.7381 12.1833C16.2125 12.0333 15.852 11.8542 15.6564 11.6458C15.4608 11.4375 15.363 11.1833 15.363 10.8833C15.363 10.5222 15.4914 10.2417 15.7481 10.0417C16.0047 9.84167 16.2675 9.72778 16.5364 9.7V9H17.2698V9.7C17.5754 9.74444 17.8275 9.84583 18.0261 10.0042C18.2248 10.1625 18.3699 10.3556 18.4616 10.5833L17.7832 10.85C17.7099 10.6722 17.606 10.5389 17.4715 10.45C17.3371 10.3611 17.1537 10.3167 16.9215 10.3167C16.6526 10.3167 16.4478 10.3708 16.3073 10.4792C16.1667 10.5875 16.0964 10.7222 16.0964 10.8833C16.0964 11.0667 16.1881 11.2111 16.3714 11.3167C16.5548 11.4222 16.8726 11.5333 17.3248 11.65C17.7465 11.7611 18.0659 11.9375 18.2828 12.1792C18.4998 12.4208 18.6083 12.7 18.6083 13.0167C18.6083 13.4111 18.4799 13.7111 18.2232 13.9167C17.9665 14.1222 17.6487 14.25 17.2698 14.3V15H16.5364Z" fill="#023DA7"/>
<circle cx="17" cy="12" r="5.25" stroke="#023DA7" stroke-width="1.5"/>
</svg>
