<svg width="377" height="275" viewBox="0 0 377 275" fill="none" xmlns="http://www.w3.org/2000/svg">
<path d="M334.852 200.906H0V201.074H334.852V200.906Z" fill="#F4F3F2"/>
<path d="M51.758 207.273H34.3457V207.441H51.758V207.273Z" fill="#F4F3F2"/>
<path d="M127.362 205.461H97.2051V205.628H127.362V205.461Z" fill="#F4F3F2"/>
<path d="M93.1332 213.5H52.4219V213.667H93.1332V213.5Z" fill="#F4F3F2"/>
<path d="M300.505 212.379H287.627V212.546H300.505V212.379Z" fill="#F4F3F2"/>
<path d="M281.661 212.379H244.633V212.546H281.661V212.379Z" fill="#F4F3F2"/>
<path d="M222.023 209.547H172.15V209.714H222.023V209.547Z" fill="#F4F3F2"/>
<path d="M113.611 142.815H77.0585L74.8418 117.219H111.394L113.611 142.815Z" fill="#E4E2E0"/>
<path d="M115.504 142.815H78.9519L76.7285 117.219H113.281L115.504 142.815Z" fill="#F4F3F2"/>
<path d="M83.9454 137.329L82.7266 122.723H108.282L109.501 137.329H83.9454Z" fill="white"/>
<path d="M137.029 142.812H131.812V200.896H137.029V142.812Z" fill="#E4E2E0"/>
<path d="M138.668 142.812H135.045V200.896H138.668V142.812Z" fill="#F4F3F2"/>
<path d="M88.1675 149.227H138.67V142.817H88.1675V149.227Z" fill="#F4F3F2"/>
<path d="M89.9533 149.227H84.7363V200.901H89.9533V149.227Z" fill="#E4E2E0"/>
<path d="M91.6055 149.227H87.9824V200.901H91.6055V149.227Z" fill="#F4F3F2"/>
<path d="M52.8107 149.227H47.5938V200.901H52.8107V149.227Z" fill="#E4E2E0"/>
<path d="M54.4571 149.227H50.834V200.901H54.4571V149.227Z" fill="#F4F3F2"/>
<path d="M104.002 149.227H98.7852V200.901H104.002V149.227Z" fill="#E4E2E0"/>
<path d="M105.648 149.227H102.025V200.901H105.648V149.227Z" fill="#F4F3F2"/>
<path d="M88.1644 142.812H47.5938V149.222H88.1644V142.812Z" fill="#E4E2E0"/>
<path d="M197.726 0H46.2188V86.9142H197.726V0Z" fill="#E4E2E0"/>
<path d="M201.767 0H48.1035V86.9142H201.767V0Z" fill="#F4F3F2"/>
<path d="M197.726 86.918H46.2188V94.4454H197.726V86.918Z" fill="#E4E2E0"/>
<path d="M208.515 86.918H54.8516V94.4454H208.515V86.918Z" fill="#F4F3F2"/>
<path d="M196.1 81.248V5.67188L53.774 5.67188V81.248L196.1 81.248Z" fill="#E4E2E0"/>
<path d="M56.4002 75.5957C56.3468 75.5966 56.2938 75.5869 56.2443 75.5671C56.1948 75.5473 56.1497 75.5178 56.1117 75.4804C56.0737 75.443 56.0435 75.3984 56.0228 75.3492C56.0022 75.3 55.9916 75.2472 55.9916 75.1939V9.35525C55.9842 9.29767 55.9892 9.23917 56.0061 9.18365C56.0231 9.12813 56.0517 9.07687 56.09 9.03327C56.1284 8.98968 56.1756 8.95475 56.2285 8.93083C56.2814 8.90691 56.3387 8.89453 56.3968 8.89453C56.4549 8.89453 56.5122 8.90691 56.5651 8.93083C56.618 8.95475 56.6652 8.98968 56.7036 9.03327C56.7419 9.07687 56.7705 9.12813 56.7875 9.18365C56.8045 9.23917 56.8094 9.29767 56.802 9.35525V75.1939C56.802 75.3005 56.7596 75.4027 56.6843 75.478C56.6089 75.5534 56.5067 75.5957 56.4002 75.5957Z" fill="#F4F3F2"/>
<path d="M196.092 81.248V5.67188H195.369V81.248H196.092Z" fill="#E4E2E0"/>
<path opacity="0.6" d="M203.105 14.2171H51.5977L51.082 7.875H202.583L203.105 14.2171Z" fill="#F4F3F2"/>
<path opacity="0.6" d="M203.105 24.6194H51.5977L51.082 18.2773H202.583L203.105 24.6194Z" fill="#F4F3F2"/>
<path opacity="0.6" d="M203.105 35.0374H51.5977L51.082 28.6953H202.583L203.105 35.0374Z" fill="#F4F3F2"/>
<path opacity="0.6" d="M203.105 45.4425H51.5977L51.082 39.0938H202.583L203.105 45.4425Z" fill="#F4F3F2"/>
<path opacity="0.6" d="M203.105 55.8421H51.5977L51.082 49.5H202.583L203.105 55.8421Z" fill="#F4F3F2"/>
<path opacity="0.6" d="M203.105 66.2405H51.5977L51.082 59.8984H202.583L203.105 66.2405Z" fill="#F4F3F2"/>
<path d="M244.725 40.8008L285.523 40.8008V0.00239182L244.725 0.00239182V40.8008Z" fill="#F4F3F2"/>
<path d="M244.724 0H242.916V40.7984H244.724V0Z" fill="#F4F3F2"/>
<path d="M250.257 35.2617L279.998 35.2617V5.52015L250.257 5.52015V35.2617Z" fill="white"/>
<path d="M265.122 30.3525L275.076 20.3984L265.122 10.4444L255.168 20.3984L265.122 30.3525Z" fill="#F4F3F2"/>
<path d="M230.668 94.4453H271.467V53.6469L230.668 53.6469V94.4453Z" fill="#F4F3F2"/>
<path d="M230.666 53.6445H228.857V94.4429H230.666V53.6445Z" fill="#F4F3F2"/>
<path d="M236.2 88.9062H265.941V59.1647H236.2V88.9062Z" fill="white"/>
<path d="M248.952 80.3828H253.184C255.518 80.3828 257.41 78.4908 257.41 76.157V71.9245C257.41 69.5906 255.518 67.6986 253.184 67.6986H248.952C246.618 67.6986 244.726 69.5906 244.726 71.9245V76.157C244.726 78.4908 246.618 80.3828 248.952 80.3828Z" fill="#F4F3F2"/>
<path d="M206.083 114.262H195.91V198.162H206.083V114.262Z" fill="#F4F3F2"/>
<path d="M295.005 198.168H197.322V200.907H295.005V198.168Z" fill="#F4F3F2"/>
<path d="M206.084 198.168H296.414V114.267L206.084 114.267V198.168Z" fill="#E4E2E0"/>
<path d="M278.733 163.299H223.771C221.176 163.299 218.687 162.268 216.852 160.433C215.017 158.599 213.986 156.11 213.986 153.515C213.986 150.92 215.017 148.431 216.852 146.596C218.687 144.761 221.176 143.73 223.771 143.73H278.733C281.328 143.73 283.817 144.761 285.652 146.596C287.487 148.431 288.518 150.92 288.518 153.515C288.518 156.11 287.487 158.599 285.652 160.433C283.817 162.268 281.328 163.299 278.733 163.299ZM223.771 144.387C222.552 144.354 221.338 144.565 220.202 145.009C219.066 145.453 218.031 146.12 217.157 146.97C216.283 147.821 215.588 148.838 215.114 149.961C214.64 151.085 214.395 152.292 214.395 153.511C214.395 154.731 214.64 155.938 215.114 157.062C215.588 158.185 216.283 159.202 217.157 160.053C218.031 160.903 219.066 161.57 220.202 162.014C221.338 162.458 222.552 162.669 223.771 162.636H278.733C279.952 162.669 281.166 162.458 282.302 162.014C283.438 161.57 284.473 160.903 285.347 160.053C286.221 159.202 286.916 158.185 287.39 157.062C287.864 155.938 288.109 154.731 288.109 153.511C288.109 152.292 287.864 151.085 287.39 149.961C286.916 148.838 286.221 147.821 285.347 146.97C284.473 146.12 283.438 145.453 282.302 145.009C281.166 144.565 279.952 144.354 278.733 144.387H223.771Z" fill="#F4F3F2"/>
<path d="M278.733 187.627H223.771C221.176 187.627 218.687 186.597 216.852 184.762C215.017 182.927 213.986 180.438 213.986 177.843C213.986 175.248 215.017 172.759 216.852 170.924C218.687 169.089 221.176 168.059 223.771 168.059H278.733C281.328 168.059 283.817 169.089 285.652 170.924C287.487 172.759 288.518 175.248 288.518 177.843C288.518 180.438 287.487 182.927 285.652 184.762C283.817 186.597 281.328 187.627 278.733 187.627ZM223.771 168.715C221.35 168.715 219.028 169.677 217.316 171.388C215.604 173.1 214.643 175.422 214.643 177.843C214.643 180.264 215.604 182.586 217.316 184.298C219.028 186.009 221.35 186.971 223.771 186.971H278.733C281.154 186.971 283.476 186.009 285.188 184.298C286.9 182.586 287.861 180.264 287.861 177.843C287.861 175.422 286.9 173.1 285.188 171.388C283.476 169.677 281.154 168.715 278.733 168.715H223.771Z" fill="#F4F3F2"/>
<path d="M259.541 151.407H242.952C242.417 151.397 241.907 151.177 241.532 150.795C241.156 150.414 240.945 149.9 240.943 149.365C240.954 148.835 241.169 148.33 241.543 147.955C241.918 147.581 242.423 147.366 242.952 147.355H259.541C260.076 147.357 260.59 147.568 260.972 147.944C261.354 148.319 261.573 148.829 261.584 149.365C261.58 149.905 261.364 150.423 260.981 150.805C260.599 151.187 260.082 151.404 259.541 151.407Z" fill="#F4F3F2"/>
<path d="M278.733 138.94H223.771C221.176 138.94 218.687 137.909 216.852 136.074C215.017 134.239 213.986 131.75 213.986 129.155C213.986 126.56 215.017 124.072 216.852 122.237C218.687 120.402 221.176 119.371 223.771 119.371H278.733C281.328 119.371 283.817 120.402 285.652 122.237C287.487 124.072 288.518 126.56 288.518 129.155C288.518 131.75 287.487 134.239 285.652 136.074C283.817 137.909 281.328 138.94 278.733 138.94ZM223.771 120.027C222.572 120.027 221.385 120.264 220.278 120.722C219.17 121.181 218.164 121.853 217.316 122.701C216.469 123.549 215.796 124.555 215.337 125.662C214.879 126.77 214.643 127.957 214.643 129.155C214.643 130.354 214.879 131.541 215.337 132.649C215.796 133.756 216.469 134.762 217.316 135.61C218.164 136.458 219.17 137.13 220.278 137.589C221.385 138.047 222.572 138.284 223.771 138.284H278.733C281.154 138.284 283.476 137.322 285.188 135.61C286.9 133.898 287.861 131.576 287.861 129.155C287.861 126.735 286.9 124.413 285.188 122.701C283.476 120.989 281.154 120.027 278.733 120.027H223.771Z" fill="#F4F3F2"/>
<path d="M259.541 127.048H242.952C242.417 127.037 241.907 126.818 241.532 126.436C241.156 126.054 240.945 125.541 240.943 125.005C240.954 124.476 241.169 123.971 241.543 123.596C241.918 123.221 242.423 123.006 242.952 122.996H259.541C260.076 122.998 260.59 123.209 260.972 123.584C261.354 123.96 261.573 124.47 261.584 125.005C261.582 125.546 261.366 126.065 260.983 126.448C260.601 126.83 260.082 127.046 259.541 127.048Z" fill="#F4F3F2"/>
<path d="M259.541 175.735H242.952C242.417 175.725 241.907 175.505 241.532 175.123C241.156 174.742 240.945 174.228 240.943 173.693C240.952 173.163 241.166 172.657 241.541 172.282C241.916 171.907 242.422 171.692 242.952 171.684H259.541C260.076 171.685 260.59 171.896 260.972 172.272C261.354 172.647 261.573 173.157 261.584 173.693C261.582 174.234 261.366 174.752 260.983 175.135C260.601 175.518 260.082 175.734 259.541 175.735Z" fill="#F4F3F2"/>
<path d="M298.273 109.996H206.088V114.262H298.273V109.996Z" fill="#F4F3F2"/>
<path d="M193.912 114.277H206.08V110.011H193.912V114.277Z" fill="#E4E2E0"/>
<path d="M167.427 231.15C239.141 231.15 297.276 227.756 297.276 223.569C297.276 219.382 239.141 215.988 167.427 215.988C95.7135 215.988 37.5781 219.382 37.5781 223.569C37.5781 227.756 95.7135 231.15 167.427 231.15Z" fill="#F4F3F2"/>
<path d="M277.013 44.0781H176.075C176.075 44.0781 157.893 60.8207 157.893 101.525C157.893 136.531 171.682 183.993 166.505 203.421C162.601 218.081 143.668 220.599 134.594 220.947H230.67C230.67 220.947 262.266 222.856 267.443 203.421C272.62 183.986 258.831 136.531 258.831 101.525C258.831 60.7939 277.013 44.0781 277.013 44.0781Z" fill="#023DA7"/>
<path opacity="0.7" d="M277.013 43.8945H176.075C176.075 43.8945 157.893 60.6371 157.893 101.342C157.893 136.347 171.682 183.809 166.505 203.237C162.601 217.897 143.668 220.415 134.594 220.763H230.67C230.67 220.763 262.266 222.672 267.443 203.237C272.62 183.802 258.831 136.347 258.831 101.342C258.831 60.6104 277.013 43.8945 277.013 43.8945Z" fill="white"/>
<g opacity="0.8">
<path d="M249.55 87.0075H168.824C171.108 69.0996 177.262 58.679 180.658 54.125H258.498C254.68 62.0945 251.077 72.9504 249.55 87.0075Z" fill="#023DA7"/>
<path d="M248.869 96.3129H168.029C168.096 94.6855 168.19 93.1051 168.324 91.5781H249.117C249.005 93.1184 248.923 94.6967 248.869 96.3129Z" fill="#023DA7"/>
<path d="M193.384 105.99H168.009C167.965 104.476 167.94 102.987 167.936 101.523V101.262H193.317V101.523C193.317 102.996 193.337 104.49 193.384 105.99Z" fill="#023DA7"/>
<path d="M249.363 115.49H168.584C168.443 113.896 168.329 112.315 168.242 110.762H249.055C249.136 112.329 249.238 113.905 249.363 115.49Z" fill="#023DA7"/>
<path d="M250.249 124.981H169.536C169.349 123.391 169.174 121.813 169.014 120.246H249.793C249.907 121.82 250.075 123.4 250.249 124.981Z" fill="#023DA7"/>
<path d="M251.416 134.466H170.77C170.549 132.886 170.342 131.305 170.141 129.738H250.813C251.001 131.31 251.202 132.886 251.416 134.466Z" fill="#023DA7"/>
<path d="M252.746 143.959H172.107C171.875 142.378 171.652 140.802 171.438 139.23H252.07C252.291 140.804 252.519 142.385 252.746 143.959Z" fill="#023DA7"/>
<path d="M254.171 153.454H173.558C173.431 152.59 173.297 151.712 173.163 150.835L172.842 148.719H253.454C253.695 150.299 253.93 151.88 254.171 153.454Z" fill="#023DA7"/>
<path d="M174.969 162.947C174.745 161.384 174.522 159.808 174.299 158.219H254.898C255.132 159.799 255.373 161.373 255.601 162.947H174.969Z" fill="#023DA7"/>
<path d="M176.246 172.439C176.059 170.892 175.851 169.312 175.637 167.711H242.875C243.103 169.305 243.317 170.885 243.545 172.439H176.246Z" fill="#023DA7"/>
<path d="M177.237 181.938C177.107 180.389 176.96 178.81 176.795 177.203H257.508C257.689 178.824 257.856 180.404 257.997 181.938H177.237Z" fill="#023DA7"/>
<path d="M177.7 191.423C177.7 189.896 177.64 188.316 177.553 186.695H220.139C220.246 188.349 220.307 189.93 220.327 191.423H177.7Z" fill="#023DA7"/>
</g>
<path d="M238.416 215.822C233.293 216.753 228.103 216.043 222.953 215.789C220.483 215.631 218.004 215.698 215.546 215.989C213.135 216.311 210.737 216.94 208.306 216.726C209.108 216.292 209.865 215.778 210.563 215.193C210.594 215.161 210.616 215.123 210.627 215.081C210.639 215.038 210.639 214.994 210.628 214.951C210.618 214.909 210.596 214.87 210.566 214.838C210.536 214.807 210.498 214.783 210.456 214.771C202.895 212.092 196.011 219.345 188.476 217.65C190.613 216.07 193.62 216.043 195.441 213.967C195.475 213.931 195.498 213.886 195.506 213.838C195.515 213.789 195.509 213.739 195.49 213.694C195.471 213.648 195.439 213.61 195.398 213.582C195.358 213.554 195.31 213.539 195.26 213.538C188.517 213.431 182.148 216.05 175.477 216.632C175.156 216.632 175.156 217.161 175.477 217.135C181.94 216.565 188.135 214.101 194.651 214.047C192.702 215.782 189.729 215.849 187.746 217.603C187.715 217.634 187.693 217.672 187.681 217.714C187.67 217.756 187.669 217.8 187.68 217.842C187.691 217.884 187.713 217.922 187.743 217.953C187.774 217.985 187.812 218.007 187.854 218.019C195.448 220.115 202.359 212.875 209.86 215.112C209.076 215.724 208.225 216.243 207.322 216.659C207.28 216.685 207.246 216.722 207.224 216.767C207.203 216.811 207.195 216.861 207.201 216.91C207.208 216.959 207.228 217.005 207.26 217.043C207.292 217.08 207.335 217.107 207.382 217.121C209.853 217.53 212.271 217.007 214.709 216.619C217.438 216.225 220.201 216.115 222.953 216.291C228.156 216.545 233.38 217.242 238.55 216.291C238.878 216.244 238.744 215.762 238.416 215.822Z" fill="#023DA7"/>
<path d="M101.718 68.793C102.14 69.3287 102.683 69.9717 103.178 70.561C103.674 71.1503 104.216 71.7464 104.752 72.3223C105.83 73.4742 106.922 74.606 108.101 75.6708C110.286 77.7461 112.769 79.4841 115.467 80.8276C115.796 80.9682 116.137 81.1088 116.438 81.2227C116.586 81.2869 116.738 81.3406 116.894 81.3834C117.039 81.4338 117.186 81.4762 117.336 81.5107C117.979 81.6727 118.636 81.7758 119.298 81.8187C120.781 81.8841 122.266 81.7988 123.732 81.5642C125.287 81.327 126.828 81.0005 128.346 80.5865C129.886 80.1846 131.46 79.6824 132.927 79.1667L134.266 81.8455C131.288 83.7042 128.065 85.1357 124.689 86.0981C122.91 86.6132 121.075 86.91 119.224 86.9821C118.222 87.02 117.219 86.9527 116.231 86.7812C115.971 86.7437 115.714 86.6901 115.461 86.6205C115.193 86.5602 114.938 86.4933 114.717 86.4196C114.249 86.2857 113.793 86.1249 113.378 85.9575C109.994 84.566 106.876 82.5993 104.163 80.1445C102.834 78.9928 101.566 77.7723 100.366 76.4879C99.7695 75.8182 99.1869 75.1887 98.6243 74.5256C98.0618 73.8626 97.526 73.1862 96.9434 72.4161L101.718 68.793Z" fill="#FEC3BD"/>
<path d="M94.9009 66.8968C94.7536 70.6472 96.2403 77.4045 96.2403 77.4045L105.522 76.2794C105.522 76.2794 105.864 66.3879 104.062 63.997C101.015 59.9654 95.0415 63.3541 94.9009 66.8968Z" fill="#F8C633"/>
<path d="M131.682 80.1226L136.028 76.1445L136.584 80.4306C136.584 80.4306 134.782 82.8416 132.74 81.8303L131.682 80.1226Z" fill="#FEC3BD"/>
<path d="M138.205 76.3789L140.046 78.7899L136.577 80.4306L136.021 76.1445L138.205 76.3789Z" fill="#FEC3BD"/>
<path d="M137.108 65.5308C137.456 65.5106 137.805 65.5106 138.153 65.5308C138.294 65.5217 138.435 65.5217 138.575 65.5308L138.923 65.5777C139.224 65.6179 139.509 65.7331 139.754 65.9126C139.875 66.0506 139.954 66.2201 139.981 66.4014L140.135 66.9104L140.758 68.9195L142.004 72.9846L144.488 81.1216C146.129 86.5462 147.837 91.9507 149.418 97.3954C152.666 108.258 155.74 119.161 158.76 130.084C161.78 141.007 164.62 151.97 167.54 162.899C170.46 173.829 173.071 184.872 174.002 196.331C174.036 197.097 173.805 197.852 173.349 198.469C172.893 199.086 172.239 199.527 171.496 199.719C170.753 199.912 169.967 199.843 169.269 199.525C168.57 199.207 168.003 198.658 167.66 197.972C162.905 187.504 159.798 176.608 157.079 165.611C154.36 154.615 151.474 143.652 148.808 132.642C146.143 121.632 143.538 110.602 141.1 99.5317C139.847 94.0067 138.709 88.4481 137.51 82.903L135.735 74.6924L134.845 70.5335L134.403 68.4507L134.289 67.9351C134.228 67.7608 134.215 67.5738 134.249 67.3926C134.381 67.1283 134.574 66.8989 134.811 66.7229L135.099 66.5153C135.208 66.4288 135.325 66.3525 135.447 66.2876C135.741 66.101 136.045 65.9311 136.358 65.7786C136.588 65.6448 136.844 65.5604 137.108 65.5308Z" fill="#333333"/>
<path d="M173.357 198.068C173.307 197.887 173.188 197.733 173.025 197.639C172.862 197.545 172.669 197.519 172.487 197.566L171.013 197.948L169.54 198.329C169.358 198.377 169.202 198.494 169.105 198.656C169.009 198.817 168.98 199.01 169.024 199.193C169.942 203.406 169.024 206.433 170.002 210.143C171.013 214.047 175.413 216.043 175.413 216.043L175.273 214.382L175.943 215.909C175.943 215.909 178.816 212.025 177.804 208.114C176.853 204.41 174.603 202.2 173.357 198.068Z" fill="#023DA7"/>
<path d="M173.357 198.068C173.307 197.887 173.188 197.733 173.025 197.639C172.862 197.545 172.669 197.519 172.487 197.566L171.013 197.948L169.54 198.329C169.358 198.377 169.202 198.494 169.105 198.656C169.009 198.817 168.98 199.01 169.024 199.193C169.942 203.406 169.024 206.433 170.002 210.143C171.013 214.047 175.413 216.043 175.413 216.043L175.273 214.382L175.943 215.909C175.943 215.909 178.816 212.025 177.804 208.114C176.853 204.41 174.603 202.2 173.357 198.068Z" fill="white"/>
<path d="M174.504 207.759C174.547 207.935 174.537 208.12 174.476 208.29C174.414 208.461 174.304 208.609 174.158 208.717C174.012 208.824 173.838 208.886 173.657 208.895C173.476 208.904 173.297 208.859 173.141 208.766C172.986 208.673 172.862 208.536 172.784 208.372C172.706 208.209 172.679 208.026 172.705 207.846C172.731 207.667 172.809 207.5 172.931 207.365C173.052 207.23 173.21 207.135 173.385 207.09C173.622 207.031 173.873 207.068 174.083 207.194C174.292 207.319 174.444 207.523 174.504 207.759Z" fill="#333333"/>
<path d="M175.329 214.588C175.303 214.595 175.275 214.597 175.248 214.594C175.221 214.59 175.195 214.581 175.171 214.567C175.148 214.554 175.127 214.535 175.111 214.514C175.094 214.492 175.082 214.467 175.075 214.441L173.414 208.039C173.401 207.985 173.41 207.929 173.437 207.882C173.464 207.835 173.509 207.8 173.561 207.784C173.588 207.777 173.616 207.776 173.643 207.78C173.671 207.784 173.697 207.793 173.721 207.807C173.745 207.822 173.765 207.841 173.782 207.863C173.798 207.886 173.809 207.911 173.816 207.938L175.477 214.334C175.484 214.36 175.485 214.388 175.482 214.415C175.478 214.442 175.469 214.468 175.456 214.492C175.442 214.515 175.424 214.536 175.402 214.552C175.38 214.569 175.356 214.581 175.329 214.588Z" fill="#333333"/>
<path d="M169.903 175.054L160.875 177.392C160.629 177.46 160.367 177.427 160.144 177.302C159.922 177.176 159.759 176.968 159.69 176.722C159.626 176.476 159.66 176.215 159.785 175.993C159.91 175.772 160.116 175.608 160.36 175.537L169.434 173.172C169.68 173.108 169.941 173.142 170.163 173.267C170.384 173.392 170.548 173.598 170.62 173.842C170.655 173.969 170.664 174.101 170.647 174.232C170.629 174.362 170.586 174.487 170.519 174.601C170.452 174.714 170.363 174.812 170.257 174.89C170.151 174.968 170.031 175.024 169.903 175.054Z" fill="#023DA7"/>
<path d="M124.075 52.5003C123.914 52.9022 124.001 53.3174 124.263 53.4379C124.524 53.5585 124.872 53.3174 125.033 52.9089C125.193 52.5003 125.113 52.0918 124.845 51.978C124.577 51.8641 124.242 52.0985 124.075 52.5003Z" fill="#333333"/>
<path d="M124.723 51.9336L125.801 52.0742C125.801 52.0742 124.997 52.6033 124.723 51.9336Z" fill="#333333"/>
<path d="M124.267 53.0234C124.257 54.1015 124.392 55.176 124.669 56.2179C124.402 56.2731 124.126 56.27 123.86 56.2087C123.594 56.1474 123.345 56.0295 123.129 55.863L124.267 53.0234Z" fill="#F98A7E"/>
<path d="M125.694 50.0475C125.652 50.0395 125.613 50.0211 125.58 49.994C125.34 49.772 125.052 49.6091 124.738 49.5184C124.424 49.4277 124.093 49.4117 123.772 49.4716C123.739 49.4806 123.704 49.4829 123.67 49.4782C123.636 49.4736 123.604 49.4622 123.574 49.4447C123.545 49.4272 123.52 49.404 123.499 49.3764C123.479 49.3488 123.465 49.3174 123.457 49.2841C123.441 49.2193 123.45 49.1506 123.484 49.093C123.518 49.0353 123.573 48.9933 123.638 48.976C124.04 48.8963 124.456 48.9116 124.851 49.0209C125.246 49.1302 125.611 49.3304 125.915 49.6055C125.938 49.6286 125.957 49.6562 125.97 49.6867C125.983 49.7172 125.99 49.7499 125.99 49.783C125.99 49.8161 125.983 49.8488 125.97 49.8793C125.957 49.9098 125.938 49.9374 125.915 49.9605C125.889 49.9928 125.854 50.0179 125.816 50.0331C125.777 50.0484 125.735 50.0533 125.694 50.0475Z" fill="#333333"/>
<path d="M109.879 52.2812C110.167 55.536 109.082 60.8803 106.617 62.6952C106.617 62.6952 108.472 66.124 114.413 66.921C120.942 67.7983 117.875 64.1216 117.875 64.1216C114.399 62.7822 114.774 60.1838 115.651 57.7996L109.879 52.2812Z" fill="#FEC3BD"/>
<path d="M127.672 69.6953C128.188 72.7425 128.824 75.8968 129.487 78.964C129.842 80.5043 130.197 82.038 130.612 83.5515C131.028 85.065 131.443 86.5652 131.905 88.0452C132.159 88.7685 132.387 89.5119 132.655 90.2284L133.057 91.3L133.151 91.5612V91.6415C133.151 91.6817 133.151 91.7286 133.197 91.7621C133.336 92.0009 133.561 92.1763 133.827 92.2509C134.359 92.4332 134.913 92.5391 135.474 92.5657C136.912 92.6064 138.349 92.4874 139.761 92.2108C141.241 91.9496 142.801 91.5879 144.254 91.1794L145.48 93.8984C144.71 94.3605 143.98 94.7289 143.203 95.1039C142.426 95.4789 141.649 95.7736 140.839 96.1084C139.152 96.7648 137.383 97.1862 135.582 97.3608C134.523 97.4641 133.455 97.3917 132.421 97.1465C131.094 96.847 129.899 96.1285 129.012 95.0972C128.782 94.8177 128.576 94.5198 128.396 94.2065C128.302 94.0525 128.228 93.8984 128.148 93.7377L128.021 93.443L127.498 92.271C127.157 91.4875 126.829 90.7039 126.541 89.9137C125.965 88.3332 125.416 86.746 124.94 85.1521C124.465 83.5582 124.036 81.9442 123.601 80.3436C122.804 77.1156 122.154 73.9211 121.672 70.5793L127.672 69.6953Z" fill="#FEC3BD"/>
<path d="M143.609 91.3618L146.194 89.3125L147.359 93.3307C147.359 93.3307 143.823 95.889 142.879 92.882L143.609 91.3618Z" fill="#FEC3BD"/>
<path d="M148.536 90.0224L149.46 92.9222L147.364 93.2972L146.205 89.3125L148.536 90.0224Z" fill="#FEC3BD"/>
<path d="M100.24 217.652L105.645 218.047L107.245 205.637L101.841 205.242L100.24 217.652Z" fill="#FEC3BD"/>
<path d="M65.627 201.884L70.3082 204.731L78.0968 195.006L73.4156 192.16L65.627 201.884Z" fill="#FEC3BD"/>
<path d="M73.5784 206.168C73.5116 206.175 73.4442 206.175 73.3774 206.168C72.7077 206.168 71.9108 205.116 71.509 204.5C71.4942 204.48 71.4863 204.455 71.4863 204.43C71.4863 204.405 71.4942 204.38 71.509 204.36C71.5233 204.34 71.5427 204.325 71.5652 204.315C71.5876 204.306 71.6121 204.303 71.6362 204.306C71.8572 204.353 73.7927 204.755 74.0471 205.404C74.0744 205.475 74.0826 205.552 74.0709 205.628C74.0591 205.703 74.0278 205.774 73.9802 205.833C73.8881 205.987 73.7464 206.105 73.5784 206.168ZM71.9041 204.648C72.4733 205.451 73.0158 205.927 73.3841 205.933C73.4638 205.932 73.5417 205.91 73.6108 205.87C73.6798 205.83 73.7378 205.774 73.7793 205.706C73.7972 205.678 73.8067 205.645 73.8067 205.612C73.8067 205.579 73.7972 205.546 73.7793 205.518C73.6721 205.177 72.6743 204.835 71.9041 204.621V204.648Z" fill="#F4F3F2"/>
<path d="M73.2895 204.495C72.7332 204.648 72.1499 204.675 71.5817 204.575C71.5604 204.57 71.5409 204.56 71.5254 204.544C71.51 204.529 71.4993 204.509 71.4947 204.488C71.4841 204.47 71.4785 204.449 71.4785 204.428C71.4785 204.407 71.4841 204.386 71.4947 204.367C71.5348 204.321 72.5997 203.229 73.3832 203.262C73.4838 203.263 73.583 203.286 73.6735 203.33C73.7639 203.374 73.8432 203.438 73.9056 203.517C73.9787 203.589 74.0251 203.684 74.0372 203.787C74.0494 203.889 74.0266 203.992 73.9726 204.08C73.7954 204.288 73.5559 204.433 73.2895 204.495ZM71.8831 204.374C72.5528 204.441 73.5841 204.254 73.7918 203.939C73.7918 203.892 73.8453 203.812 73.7382 203.684C73.6987 203.633 73.648 203.591 73.59 203.562C73.532 203.533 73.4682 203.518 73.4033 203.517C72.819 203.636 72.287 203.936 71.8831 204.374Z" fill="#F4F3F2"/>
<path d="M71.7097 203.685L67.2695 199.413C67.1962 199.337 67.0983 199.291 66.9937 199.283C66.8891 199.274 66.7849 199.304 66.7003 199.366L62.9097 202.292C62.8184 202.373 62.7452 202.473 62.6951 202.584C62.645 202.696 62.6191 202.816 62.6191 202.939C62.6191 203.061 62.645 203.181 62.6951 203.293C62.7452 203.404 62.8184 203.504 62.9097 203.585C64.4835 205.051 65.314 205.681 67.2628 207.563C68.4683 208.715 70.1024 210.53 71.7632 212.124C73.4241 213.717 75.0448 212.217 74.4956 211.407C72.0177 207.777 72.3861 206.411 72.1651 204.556C72.1179 204.222 71.957 203.914 71.7097 203.685Z" fill="#333333"/>
<path d="M107.984 218.222C107.413 218.208 106.843 218.143 106.283 218.027C106.257 218.022 106.234 218.009 106.216 217.99C106.198 217.971 106.186 217.946 106.183 217.92C106.179 217.894 106.184 217.867 106.196 217.843C106.208 217.819 106.226 217.8 106.25 217.786C106.498 217.659 108.694 216.554 109.337 216.922C109.398 216.956 109.45 217.006 109.486 217.066C109.523 217.126 109.543 217.194 109.545 217.264C109.558 217.38 109.542 217.498 109.499 217.607C109.456 217.715 109.386 217.811 109.297 217.887C108.91 218.144 108.447 218.262 107.984 218.222ZM106.712 217.847C107.904 218.041 108.795 217.987 109.129 217.693C109.189 217.644 109.235 217.581 109.263 217.509C109.291 217.438 109.301 217.36 109.29 217.284C109.292 217.257 109.286 217.23 109.273 217.206C109.26 217.182 109.24 217.163 109.217 217.15C108.855 216.949 107.616 217.418 106.712 217.847Z" fill="#F4F3F2"/>
<path d="M106.31 218.011C106.286 218.021 106.26 218.021 106.236 218.011C106.217 218 106.202 217.983 106.192 217.963C106.183 217.942 106.18 217.92 106.183 217.898C106.183 217.797 106.444 215.594 107.656 215.594H107.757C108.112 215.634 108.212 215.808 108.232 215.949C108.333 216.565 107.02 217.73 106.364 218.025C106.345 218.027 106.326 218.023 106.31 218.011ZM107.65 215.821C106.873 215.821 106.565 217.101 106.471 217.65C107.141 217.248 108.031 216.31 107.971 215.962C107.971 215.962 107.971 215.848 107.723 215.821H107.65Z" fill="#F4F3F2"/>
<path d="M105.974 217.27H99.8995C99.7934 217.27 99.6907 217.307 99.6098 217.376C99.5289 217.445 99.4749 217.54 99.4575 217.645L98.6405 222.446C98.6242 222.567 98.6339 222.689 98.6689 222.805C98.7039 222.921 98.7633 223.029 98.8433 223.12C98.9232 223.212 99.0218 223.285 99.1323 223.335C99.2429 223.385 99.3629 223.411 99.4843 223.411C101.601 223.371 102.625 223.25 105.297 223.25C106.938 223.25 110.334 223.417 112.604 223.417C114.874 223.417 115.055 221.174 114.111 220.973C109.898 220.062 108.264 218.803 106.871 217.624C106.623 217.404 106.305 217.278 105.974 217.27Z" fill="#333333"/>
<path opacity="0.2" d="M107.241 205.645L106.35 212.543L101.006 211.646L101.836 205.25L107.241 205.645Z" fill="#333333"/>
<path opacity="0.2" d="M73.4038 192.16L78.0917 195.006L74.8637 199.031L70.082 196.306L73.4038 192.16Z" fill="#333333"/>
<path d="M97.5035 95.2649L119.383 98.2049C127.861 67.5191 125.363 66.6618 125.363 66.6618C124.4 66.1994 123.404 65.8099 122.383 65.4966C121.352 65.1215 120.309 64.78 119.256 64.4719C113.046 62.635 106.566 61.8873 100.102 62.2619C99.676 62.2904 99.262 62.4149 98.8909 62.626C98.5198 62.837 98.2012 63.1292 97.9589 63.4807C97.8679 63.6138 97.7894 63.7551 97.7245 63.9027C97.4865 64.4123 97.3938 64.9778 97.4567 65.5367C99.3251 81.69 98.7291 87.0008 97.5035 95.2649Z" fill="#F8C633"/>
<path opacity="0.2" d="M121.517 76.0927C121.088 79.2679 121.496 82.5002 122.703 85.4685C124.156 79.4814 124.946 75.423 125.335 72.6102C123.667 72.5165 121.933 73.1527 121.517 76.0927Z" fill="#333333"/>
<path d="M125.175 66.5877C128.925 68.7307 131.53 73.8405 132.314 76.8073L124.331 84.1205C124.331 84.1205 120.192 74.4969 120.527 71.5033C120.862 68.5097 123.762 65.7706 125.175 66.5877Z" fill="#F8C633"/>
<path d="M111.06 45.5461C109.379 50.6225 108.562 52.732 110.035 56.3551C112.258 61.7998 118.841 62.945 122.003 58.525C124.849 54.5068 127.119 46.9056 123.067 42.8405C122.216 41.935 121.143 41.2673 119.955 40.9032C118.766 40.5392 117.503 40.4914 116.291 40.7646C115.078 41.0378 113.958 41.6226 113.041 42.4611C112.123 43.2996 111.44 44.363 111.06 45.5461Z" fill="#FEC3BD"/>
<path d="M119.388 50.0578C119.034 50.989 118.978 52.0066 119.227 52.971C119.562 54.3104 120.566 54.4176 121.189 53.5537C121.812 52.6897 122.234 51.136 121.564 50.0109C120.894 48.8858 119.823 49.0332 119.388 50.0578Z" fill="#F98A7E"/>
<path d="M112.891 39.2358C109.274 37.2267 102.765 43.1067 101.131 52.7036C99.9586 59.5748 114.632 62.8965 123.901 62.7492C123.284 61.1352 119.434 56.2597 121.891 51.5651C123.68 48.1563 125.715 48.9399 125.849 44.9752C126.017 40.0127 119.4 36.6642 112.891 39.2358Z" fill="#333333"/>
<path d="M121.113 41.3991C125.319 40.9906 129.545 45.1226 126.411 49.2413C125.645 48.6274 124.754 48.1892 123.8 47.9578C122.847 47.7263 121.854 47.7073 120.892 47.9019C118.97 48.3305 121.113 41.3991 121.113 41.3991Z" fill="#333333"/>
<path d="M113.616 97.4243C113.616 97.4243 105.144 133.334 101.126 153.967C96.9333 175.733 76.8354 198.402 76.8354 198.402L70.0312 194.572C70.0312 194.572 82.6753 173.871 86.7739 153.552C95.105 112.298 89.4527 103.994 97.4891 95.2344L113.616 97.4243Z" fill="#333333"/>
<path d="M77.5292 199.05L69.0039 194.302L70.2496 191.777L79.8129 196.177L77.5292 199.05Z" fill="#023DA7"/>
<path opacity="0.2" d="M109.1 105.238C102.497 110.97 103.213 131.356 103.903 140.497C106.676 127.458 110.004 112.939 111.939 104.534C111.263 104.012 110.319 104.173 109.1 105.238Z" fill="#333333"/>
<path d="M119.064 98.2279C119.064 98.2279 122.888 140.861 120.799 157.128C118.629 174.045 107.592 210.845 107.592 210.845L99.7832 209.841C99.7832 209.841 106.119 173.369 107.244 156.619C108.469 138.363 103.025 96.0781 103.025 96.0781L119.064 98.2279Z" fill="#333333"/>
<path d="M109.248 211.277L98.1445 209.844L98.312 206.562L110.367 207.734L109.248 211.277Z" fill="#023DA7"/>
<path d="M97.3181 93.9463L96.126 95.7545C96.0323 95.8951 96.1997 96.076 96.4475 96.1094L119.398 99.1901C119.599 99.1901 119.773 99.1432 119.793 99.0227L120.202 97.1006C120.202 96.9734 120.068 96.8327 119.854 96.8059L97.6931 93.8325C97.6262 93.815 97.5557 93.8164 97.4895 93.8365C97.4234 93.8566 97.364 93.8946 97.3181 93.9463Z" fill="#023DA7"/>
<path d="M97.3181 93.9463L96.126 95.7545C96.0323 95.8951 96.1997 96.076 96.4475 96.1094L119.398 99.1901C119.599 99.1901 119.773 99.1432 119.793 99.0227L120.202 97.1006C120.202 96.9734 120.068 96.8327 119.854 96.8059L97.6931 93.8325C97.6262 93.815 97.5557 93.8164 97.4895 93.8365C97.4234 93.8566 97.364 93.8946 97.3181 93.9463Z" fill="#333333"/>
<path d="M100.037 96.7945L99.4409 96.7142C99.3204 96.7142 99.24 96.6271 99.2534 96.5535L99.8026 94.0621C99.8026 93.9885 99.9298 93.9416 100.044 93.9617L100.64 94.0421C100.76 94.0421 100.841 94.1291 100.827 94.2028L100.278 96.6874C100.265 96.7945 100.151 96.7945 100.037 96.7945Z" fill="#333333"/>
<path d="M115.025 98.8547L114.429 98.781C114.315 98.781 114.228 98.6872 114.242 98.6136L114.791 96.129C114.791 96.0553 114.918 96.0084 115.039 96.0218L115.628 96.1022C115.748 96.1022 115.829 96.1892 115.815 96.2629L115.266 98.7542C115.253 98.8145 115.139 98.8747 115.025 98.8547Z" fill="#333333"/>
<path d="M288.019 139.02C300.272 135.484 307.337 122.684 303.8 110.432C300.264 98.1797 287.464 91.1143 275.212 94.651C262.96 98.1877 255.894 110.987 259.431 123.239C262.968 135.492 275.767 142.557 288.019 139.02Z" fill="#023DA7"/>
<path opacity="0.1" d="M296.874 128.784C298.699 126.191 299.843 123.182 300.202 120.032C300.56 116.882 300.12 113.693 298.924 110.757C297.728 107.821 295.813 105.233 293.355 103.23C290.897 101.228 287.975 99.8754 284.858 99.297C281.741 98.7187 278.529 98.933 275.516 99.9204C272.504 100.908 269.788 102.636 267.618 104.948C265.448 107.259 263.893 110.078 263.098 113.147C262.302 116.216 262.29 119.435 263.064 122.51C262.087 119.322 261.948 115.936 262.66 112.679C263.373 109.422 264.914 106.403 267.133 103.915C269.353 101.427 272.176 99.5532 275.331 98.4745C278.486 97.3957 281.866 97.1486 285.144 97.7569C288.422 98.3652 291.489 99.8084 294.046 101.947C296.604 104.086 298.568 106.848 299.747 109.967C300.926 113.086 301.281 116.456 300.778 119.752C300.275 123.048 298.93 126.159 296.874 128.784Z" fill="#333333"/>
<path d="M287.072 122.494L283.177 126.237C283.029 126.379 282.853 126.488 282.66 126.559C282.467 126.63 282.262 126.661 282.057 126.65C281.849 126.648 281.643 126.604 281.452 126.52C281.262 126.437 281.089 126.316 280.946 126.165L277.654 122.738L274.903 125.392C274.758 125.538 274.583 125.651 274.392 125.725C274.2 125.799 273.995 125.831 273.789 125.82C273.585 125.819 273.383 125.776 273.195 125.695C273.008 125.614 272.839 125.496 272.698 125.348C272.549 125.2 272.433 125.024 272.354 124.829C272.275 124.635 272.237 124.427 272.24 124.217C272.239 124.011 272.281 123.806 272.363 123.616C272.444 123.427 272.565 123.256 272.716 123.115L275.483 120.467L272.218 117.069C272.075 116.923 271.963 116.749 271.889 116.559C271.815 116.368 271.781 116.165 271.788 115.961C271.787 115.755 271.828 115.551 271.91 115.362C271.991 115.174 272.111 115.004 272.262 114.864C272.408 114.72 272.581 114.607 272.772 114.531C272.962 114.456 273.166 114.419 273.37 114.423C273.575 114.426 273.777 114.471 273.965 114.554C274.152 114.637 274.321 114.757 274.461 114.906L282.103 122.853L283.72 121.297L276.112 113.375C275.967 113.23 275.852 113.057 275.774 112.866C275.697 112.676 275.659 112.472 275.662 112.266C275.666 112.061 275.711 111.858 275.794 111.67C275.878 111.482 275.998 111.313 276.149 111.173L280.037 107.446C280.183 107.301 280.357 107.187 280.548 107.111C280.739 107.035 280.944 107 281.149 107.006C281.355 107.007 281.559 107.05 281.747 107.134C281.935 107.217 282.104 107.339 282.242 107.49L285.482 110.86L288.234 108.206C288.383 108.059 288.561 107.943 288.757 107.867C288.952 107.791 289.161 107.756 289.371 107.763C289.581 107.771 289.787 107.822 289.977 107.912C290.166 108.002 290.335 108.13 290.473 108.288C290.616 108.432 290.727 108.605 290.801 108.794C290.874 108.983 290.908 109.186 290.9 109.388C290.898 109.594 290.855 109.797 290.773 109.985C290.691 110.174 290.571 110.343 290.421 110.483L287.669 113.138L290.987 116.593C291.134 116.741 291.248 116.918 291.324 117.112C291.399 117.307 291.434 117.515 291.427 117.723C291.432 117.928 291.394 118.131 291.315 118.32C291.237 118.509 291.12 118.68 290.971 118.821C290.821 118.968 290.642 119.082 290.446 119.157C290.25 119.232 290.04 119.266 289.83 119.256C289.621 119.259 289.413 119.218 289.22 119.136C289.027 119.054 288.853 118.933 288.71 118.78L281.07 110.827L279.474 112.36L287.084 120.277C287.231 120.426 287.346 120.603 287.423 120.797C287.499 120.992 287.535 121.2 287.529 121.409C287.532 121.612 287.493 121.813 287.415 122C287.336 122.187 287.219 122.355 287.072 122.494Z" fill="#E4E2E0"/>
<path d="M338.135 186.541C334.256 163.084 312.095 147.212 288.638 151.092C265.18 154.971 249.309 177.132 253.189 200.589C257.068 224.047 279.229 239.918 302.686 236.038C326.143 232.159 342.014 209.998 338.135 186.541Z" fill="#023DA7"/>
<path opacity="0.1" d="M321.096 167.899C316.694 163.955 311.371 161.181 305.616 159.831C299.862 158.482 293.86 158.6 288.163 160.176C282.467 161.752 277.257 164.734 273.014 168.849C268.771 172.963 265.63 178.078 263.88 183.724C262.13 189.37 261.827 195.365 262.999 201.158C264.171 206.951 266.78 212.357 270.587 216.879C274.393 221.4 279.276 224.892 284.784 227.034C290.293 229.176 296.252 229.899 302.114 229.137C295.998 230.252 289.698 229.772 283.822 227.742C277.947 225.713 272.693 222.203 268.57 217.551C264.446 212.899 261.591 207.263 260.281 201.186C258.971 195.109 259.25 188.797 261.09 182.859C262.931 176.922 266.271 171.559 270.789 167.288C275.306 163.018 280.848 159.985 286.88 158.481C292.912 156.977 299.23 157.054 305.223 158.703C311.217 160.353 316.684 163.52 321.096 167.899Z" fill="#333333"/>
<path d="M307.307 184.691L313.39 192.718C313.619 193.025 313.784 193.374 313.873 193.746C313.963 194.119 313.975 194.505 313.909 194.882C313.86 195.267 313.734 195.639 313.538 195.974C313.342 196.309 313.081 196.602 312.769 196.834L305.707 202.183L310.022 207.856C310.26 208.156 310.432 208.503 310.527 208.875C310.622 209.246 310.637 209.633 310.571 210.011C310.525 210.389 310.403 210.754 310.212 211.083C310.021 211.413 309.765 211.701 309.46 211.929C309.154 212.171 308.801 212.349 308.425 212.453C308.048 212.556 307.654 212.582 307.266 212.53C306.884 212.487 306.514 212.365 306.181 212.172C305.847 211.979 305.557 211.72 305.329 211.409L301.029 205.707L294.025 211.014C293.724 211.247 293.378 211.416 293.009 211.512C292.641 211.607 292.256 211.626 291.88 211.568C291.499 211.526 291.13 211.405 290.798 211.213C290.466 211.021 290.178 210.762 289.952 210.452C289.718 210.15 289.546 209.805 289.447 209.436C289.349 209.067 289.324 208.682 289.376 208.303C289.428 207.925 289.555 207.561 289.75 207.232C289.944 206.903 290.202 206.616 290.509 206.389L306.89 193.97L304.361 190.637L288.034 202.998C287.734 203.236 287.388 203.412 287.019 203.513C286.649 203.615 286.263 203.641 285.883 203.59C285.503 203.539 285.138 203.411 284.808 203.216C284.479 203.02 284.192 202.76 283.965 202.451L277.912 194.439C277.674 194.138 277.5 193.791 277.402 193.42C277.303 193.05 277.282 192.663 277.339 192.284C277.385 191.903 277.51 191.536 277.705 191.206C277.9 190.875 278.162 190.589 278.474 190.365L285.419 185.101L281.104 179.428C280.863 179.119 280.688 178.764 280.59 178.385C280.492 178.006 280.472 177.612 280.532 177.225C280.592 176.838 280.73 176.468 280.939 176.136C281.147 175.805 281.421 175.52 281.743 175.298C282.042 175.066 282.385 174.897 282.752 174.802C283.118 174.708 283.5 174.69 283.874 174.749C284.254 174.796 284.621 174.92 284.951 175.113C285.282 175.307 285.57 175.566 285.797 175.874L290.112 181.548L297.233 176.156C297.54 175.918 297.892 175.744 298.268 175.646C298.645 175.549 299.037 175.529 299.421 175.589C299.801 175.624 300.17 175.739 300.503 175.925C300.836 176.112 301.126 176.366 301.355 176.671C301.594 176.981 301.767 177.337 301.863 177.717C301.959 178.097 301.976 178.492 301.912 178.879C301.872 179.267 301.751 179.643 301.557 179.983C301.363 180.322 301.1 180.617 300.786 180.85L284.396 193.263L286.887 196.553L303.204 184.187C303.512 183.946 303.865 183.771 304.242 183.672C304.619 183.573 305.012 183.552 305.398 183.609C305.774 183.647 306.138 183.763 306.466 183.949C306.795 184.135 307.082 184.388 307.307 184.691Z" fill="#E4E2E0"/>
</svg>
