<svg width="419" height="284" viewBox="0 0 419 284" fill="none" xmlns="http://www.w3.org/2000/svg">
<path d="M418.68 245.273H0.679688V245.482H418.68V245.273Z" fill="#E4E2E0"/>
<path d="M72.2274 258.727H44.5391V258.936H72.2274V258.727Z" fill="#E4E2E0"/>
<path d="M151.015 260.992H143.75V261.201H151.015V260.992Z" fill="#E4E2E0"/>
<path d="M94.3136 250.961H73.0625V251.17H94.3136V250.961Z" fill="#E4E2E0"/>
<path d="M97.249 132.078H70.3047V245.273H116.786V151.607L97.249 132.078Z" fill="#F4F3F2"/>
<path d="M89.8397 151.602H50.7734V245.259H89.8397V151.602Z" fill="#E4E2E0"/>
<path d="M89.8397 151.602H50.7734V153.14H89.8397V151.602Z" fill="#F4F3F2"/>
<path d="M70.3024 132.078L50.7734 151.607H89.8314L70.3024 132.078Z" fill="#E4E2E0"/>
<path d="M64.4023 163.844H57.3047V170.941H64.4023V163.844Z" fill="#F4F3F2"/>
<path d="M79.9883 163.844H72.8906V170.941H79.9883V163.844Z" fill="#F4F3F2"/>
<path d="M64.4023 184.18H57.3047V191.277H64.4023V184.18Z" fill="#F4F3F2"/>
<path d="M79.9883 184.18H72.8906V191.277H79.9883V184.18Z" fill="#F4F3F2"/>
<path d="M64.4023 204.523H57.3047V211.621H64.4023V204.523Z" fill="#F4F3F2"/>
<path d="M79.9883 204.523H72.8906V211.621H79.9883V204.523Z" fill="#F4F3F2"/>
<path d="M64.4023 224.867H57.3047V231.965H64.4023V224.867Z" fill="#F4F3F2"/>
<path d="M79.9883 224.867H72.8906V231.965H79.9883V224.867Z" fill="#F4F3F2"/>
<path d="M109.34 133.586H102.961V146.343H109.34V133.586Z" fill="#F4F3F2"/>
<path d="M248.713 117.172H215.398V245.272H272.857V141.324L248.713 117.172Z" fill="#F4F3F2"/>
<path d="M239.538 141.32H191.242V245.269H239.538V141.32Z" fill="#E4E2E0"/>
<path d="M239.538 141.32H191.242V143.226H239.538V141.32Z" fill="#F4F3F2"/>
<path d="M215.394 117.172L191.242 141.324H239.538L215.394 117.172Z" fill="#E4E2E0"/>
<path d="M269.34 156.883H248.281V245.273H293.492V181.035L269.34 156.883Z" fill="#F4F3F2"/>
<path d="M248.281 156.883V181.035V245.273H272.433V181.035L248.281 156.883Z" fill="#E4E2E0"/>
<path d="M218.284 162.375H212.516V174.656H218.284V162.375Z" fill="#F4F3F2"/>
<path d="M231.018 162.375H225.25V174.656H231.018V162.375Z" fill="#F4F3F2"/>
<path d="M218.284 185.727H212.516V198.007H218.284V185.727Z" fill="#F4F3F2"/>
<path d="M231.018 185.727H225.25V198.007H231.018V185.727Z" fill="#F4F3F2"/>
<path d="M218.284 209.078H212.516V221.359H218.284V209.078Z" fill="#F4F3F2"/>
<path d="M205.542 162.375H199.773V174.656H205.542V162.375Z" fill="#F4F3F2"/>
<path d="M205.542 185.727H199.773V198.007H205.542V185.727Z" fill="#F4F3F2"/>
<path d="M205.542 209.078H199.773V221.359H205.542V209.078Z" fill="#F4F3F2"/>
<path d="M231.018 209.078H225.25V221.359H231.018V209.078Z" fill="#F4F3F2"/>
<path d="M260.925 185.727H255.156V198.007H260.925V185.727Z" fill="#F4F3F2"/>
<path d="M260.925 209.078H255.156V221.359H260.925V209.078Z" fill="#F4F3F2"/>
<path d="M157.032 158.016H126.719V245.269H179.011V179.994L157.032 158.016Z" fill="#F4F3F2"/>
<path d="M148.683 179.992H104.734V245.267H148.683V179.992Z" fill="#E4E2E0"/>
<path d="M148.683 179.992H104.734V181.723H148.683V179.992Z" fill="#F4F3F2"/>
<path d="M126.713 158.016L104.734 179.994H148.683L126.713 158.016Z" fill="#E4E2E0"/>
<path d="M120.07 193.758H112.086V201.742H120.07V193.758Z" fill="#F4F3F2"/>
<path d="M137.617 193.758H129.633V201.742H137.617V193.758Z" fill="#F4F3F2"/>
<path d="M120.07 216.633H112.086V224.617H120.07V216.633Z" fill="#F4F3F2"/>
<path d="M137.617 216.633H129.633V224.617H137.617V216.633Z" fill="#F4F3F2"/>
<path d="M131.539 148.367H121.883V167.679H131.539V148.367Z" fill="#E4E2E0"/>
<path d="M345.446 175.922H313.703V245.268H368.453V193.386L345.446 175.922Z" fill="#F4F3F2"/>
<path d="M336.717 193.383H290.703V245.257H336.717V193.383Z" fill="#E4E2E0"/>
<path d="M336.717 193.383H290.703V194.762H336.717V193.383Z" fill="#F4F3F2"/>
<path d="M313.701 175.922L290.703 193.386H336.708L313.701 175.922Z" fill="#E4E2E0"/>
<path d="M302.001 201.836H297.812V210.84H302.001V201.836Z" fill="#F4F3F2"/>
<path d="M311.204 201.836H307.016V210.84H311.204V201.836Z" fill="#F4F3F2"/>
<path d="M302.001 222.797H297.812V231.801H302.001V222.797Z" fill="#F4F3F2"/>
<path d="M311.204 222.797H307.016V231.801H311.204V222.797Z" fill="#F4F3F2"/>
<path d="M320.399 201.836H316.211V210.84H320.399V201.836Z" fill="#F4F3F2"/>
<path d="M329.602 201.836H325.414V210.84H329.602V201.836Z" fill="#F4F3F2"/>
<path d="M320.399 222.797H316.211V231.801H320.399V222.797Z" fill="#F4F3F2"/>
<path d="M329.602 222.797H325.414V231.801H329.602V222.797Z" fill="#F4F3F2"/>
<path d="M350.646 168.25H340.539V183.599H350.646V168.25Z" fill="#F4F3F2"/>
<path d="M144.295 17.6028C150.674 7.82161 161.182 0.882812 170.863 0.882812C176.933 0.882812 181.556 3.61653 184.164 8.08077C187.684 5.57277 191.629 4.01781 195.383 4.01781C201.979 4.01781 206.101 8.72449 206.209 15.3707C209.396 13.9042 212.831 13.0532 216.333 12.8627C222.963 12.5617 227.753 15.2704 229.751 19.6761C231.055 18.912 232.516 18.4546 234.023 18.3385C237.844 18.1629 239.875 20.8967 238.596 24.4413C238.512 24.6587 238.42 24.876 238.328 25.085H131.438C131.73 21.6825 139.547 17.7784 144.295 17.6028Z" fill="#E4E2E0"/>
<path d="M64.221 64.0814C64.4718 64.0814 64.7142 64.0814 64.9483 64.0814C67.5984 61.3811 70.6498 59.6506 73.3083 59.6506C74.1424 59.6097 74.9697 59.8196 75.6834 60.2532C76.3972 60.6868 76.9647 61.3243 77.3127 62.0834C82.1866 56.8333 87.9634 53.4141 92.8623 53.4141C96.8166 53.4141 99.4751 55.6378 100.595 59.2661C103.204 57.2095 105.971 55.9722 108.412 55.9722C112.717 55.9722 114.791 59.7844 114.005 65.1682C116.143 64.0059 118.501 63.3053 120.927 63.1117C125.282 62.8692 128.05 65.0595 128.777 68.6293C129.659 68.0503 130.669 67.6971 131.72 67.601C134.102 67.4672 135.105 69.4402 134.111 72.0736H52.2578C54.5568 68.0273 59.7818 64.5329 64.221 64.0814Z" fill="#F4F3F2"/>
<path d="M209.678 283.029C299.199 283.029 371.77 278.792 371.77 273.565C371.77 268.339 299.199 264.102 209.678 264.102C120.157 264.102 47.5859 268.339 47.5859 273.565C47.5859 278.792 120.157 283.029 209.678 283.029Z" fill="#F4F3F2"/>
<path d="M68.6328 273.561H94.3315L90.5527 197.469H72.4115L68.6328 273.561Z" fill="#333333"/>
<path d="M79.7019 237.358L84.4754 232.585L55.0566 204.57L51.6875 207.939L79.7019 237.358Z" fill="#333333"/>
<path d="M108.376 204.575C121.89 204.575 132.846 194.626 132.846 182.354C132.846 170.081 121.89 160.133 108.376 160.133C94.8617 160.133 83.9062 170.081 83.9062 182.354C83.9062 194.626 94.8617 204.575 108.376 204.575Z" fill="#023DA7"/>
<path d="M86.9884 175.882C97.4323 175.882 105.899 168.194 105.899 158.711C105.899 149.227 97.4323 141.539 86.9884 141.539C76.5446 141.539 68.0781 149.227 68.0781 158.711C68.0781 168.194 76.5446 175.882 86.9884 175.882Z" fill="#023DA7"/>
<path d="M78.3166 196.148C88.7605 196.148 97.2269 188.46 97.2269 178.976C97.2269 169.493 88.7605 161.805 78.3166 161.805C67.8727 161.805 59.4062 169.493 59.4062 178.976C59.4062 188.46 67.8727 196.148 78.3166 196.148Z" fill="#023DA7"/>
<path d="M62.5822 180.148C73.0261 180.148 81.4925 172.46 81.4925 162.976C81.4925 153.493 73.0261 145.805 62.5822 145.805C52.1383 145.805 43.6719 153.493 43.6719 162.976C43.6719 172.46 52.1383 180.148 62.5822 180.148Z" fill="#023DA7"/>
<path d="M54.5978 203.788C65.0417 203.788 73.5081 196.1 73.5081 186.617C73.5081 177.133 65.0417 169.445 54.5978 169.445C44.1539 169.445 35.6875 177.133 35.6875 186.617C35.6875 196.1 44.1539 203.788 54.5978 203.788Z" fill="#023DA7"/>
<path d="M61.8869 216.694C72.3308 216.694 80.7972 209.007 80.7972 199.523C80.7972 190.039 72.3308 182.352 61.8869 182.352C51.443 182.352 42.9766 190.039 42.9766 199.523C42.9766 209.007 51.443 216.694 61.8869 216.694Z" fill="#023DA7"/>
<path d="M81.4867 213.464C95.869 213.464 107.528 202.879 107.528 189.822C107.528 176.765 95.869 166.18 81.4867 166.18C67.1044 166.18 55.4453 176.765 55.4453 189.822C55.4453 202.879 67.1044 213.464 81.4867 213.464Z" fill="#023DA7"/>
<path d="M95.0648 221.995C109.447 221.995 121.106 211.41 121.106 198.353C121.106 185.296 109.447 174.711 95.0648 174.711C80.6826 174.711 69.0234 185.296 69.0234 198.353C69.0234 211.41 80.6826 221.995 95.0648 221.995Z" fill="#023DA7"/>
<path d="M39.7778 183.65C46.9297 183.65 52.7274 178.384 52.7274 171.888C52.7274 165.391 46.9297 160.125 39.7778 160.125C32.6259 160.125 26.8281 165.391 26.8281 171.888C26.8281 178.384 32.6259 183.65 39.7778 183.65Z" fill="#023DA7"/>
<path d="M47.3403 175.884C54.4922 175.884 60.2899 170.618 60.2899 164.122C60.2899 157.626 54.4922 152.359 47.3403 152.359C40.1884 152.359 34.3906 157.626 34.3906 164.122C34.3906 170.618 40.1884 175.884 47.3403 175.884Z" fill="#023DA7"/>
<path d="M110.606 167.47C117.758 167.47 123.556 162.204 123.556 155.708C123.556 149.212 117.758 143.945 110.606 143.945C103.454 143.945 97.6562 149.212 97.6562 155.708C97.6562 162.204 103.454 167.47 110.606 167.47Z" fill="#023DA7"/>
<g opacity="0.3">
<path d="M108.376 204.575C121.89 204.575 132.846 194.626 132.846 182.354C132.846 170.081 121.89 160.133 108.376 160.133C94.8617 160.133 83.9062 170.081 83.9062 182.354C83.9062 194.626 94.8617 204.575 108.376 204.575Z" fill="white"/>
<path d="M86.9884 175.882C97.4323 175.882 105.899 168.194 105.899 158.711C105.899 149.227 97.4323 141.539 86.9884 141.539C76.5446 141.539 68.0781 149.227 68.0781 158.711C68.0781 168.194 76.5446 175.882 86.9884 175.882Z" fill="#E0E7F4"/>
<path d="M78.3166 196.148C88.7605 196.148 97.2269 188.46 97.2269 178.976C97.2269 169.493 88.7605 161.805 78.3166 161.805C67.8727 161.805 59.4062 169.493 59.4062 178.976C59.4062 188.46 67.8727 196.148 78.3166 196.148Z" fill="#023DA7"/>
<path d="M62.5744 180.148C73.0183 180.148 81.4847 172.46 81.4847 162.976C81.4847 153.493 73.0183 145.805 62.5744 145.805C52.1305 145.805 43.6641 153.493 43.6641 162.976C43.6641 172.46 52.1305 180.148 62.5744 180.148Z" fill="#E0E7F4"/>
<path d="M54.59 203.788C65.0339 203.788 73.5003 196.1 73.5003 186.617C73.5003 177.133 65.0339 169.445 54.59 169.445C44.1461 169.445 35.6797 177.133 35.6797 186.617C35.6797 196.1 44.1461 203.788 54.59 203.788Z" fill="#E0E7F4"/>
<path d="M61.8791 216.694C72.323 216.694 80.7894 209.007 80.7894 199.523C80.7894 190.039 72.323 182.352 61.8791 182.352C51.4352 182.352 42.9688 190.039 42.9688 199.523C42.9688 209.007 51.4352 216.694 61.8791 216.694Z" fill="#E0E7F4"/>
<path d="M81.4867 213.456C95.869 213.456 107.528 202.871 107.528 189.814C107.528 176.757 95.869 166.172 81.4867 166.172C67.1044 166.172 55.4453 176.757 55.4453 189.814C55.4453 202.871 67.1044 213.456 81.4867 213.456Z" fill="#E0E7F4"/>
<path d="M95.0648 221.995C109.447 221.995 121.106 211.41 121.106 198.353C121.106 185.296 109.447 174.711 95.0648 174.711C80.6826 174.711 69.0234 185.296 69.0234 198.353C69.0234 211.41 80.6826 221.995 95.0648 221.995Z" fill="#E0E7F4"/>
<path d="M39.7778 183.642C46.9297 183.642 52.7274 178.376 52.7274 171.88C52.7274 165.383 46.9297 160.117 39.7778 160.117C32.6259 160.117 26.8281 165.383 26.8281 171.88C26.8281 178.376 32.6259 183.642 39.7778 183.642Z" fill="#E0E7F4"/>
<path d="M47.3481 175.884C54.5 175.884 60.2977 170.618 60.2977 164.122C60.2977 157.626 54.5 152.359 47.3481 152.359C40.1962 152.359 34.3984 157.626 34.3984 164.122C34.3984 170.618 40.1962 175.884 47.3481 175.884Z" fill="#E0E7F4"/>
<path d="M110.606 167.47C117.758 167.47 123.556 162.204 123.556 155.708C123.556 149.212 117.758 143.945 110.606 143.945C103.454 143.945 97.6562 149.212 97.6562 155.708C97.6562 162.204 103.454 167.47 110.606 167.47Z" fill="white"/>
</g>
<path d="M235.417 264.873C235.415 267.891 234.702 270.867 233.336 273.559H191.393C189.194 269.206 188.725 264.182 190.081 259.497L190.34 258.661C191.357 255.732 193.02 253.069 195.206 250.87C195.548 250.535 195.899 250.193 196.267 249.883C198.51 247.886 201.123 246.35 203.959 245.361C205.894 244.662 207.911 244.215 209.961 244.031C210.761 243.95 211.565 243.911 212.369 243.914C216.395 243.9 220.364 244.87 223.931 246.74C230.802 250.385 235.417 257.131 235.417 264.873Z" fill="#023DA7"/>
<path d="M192.229 258.783C202.063 258.783 210.035 251.54 210.035 242.606C210.035 233.672 202.063 226.43 192.229 226.43C182.394 226.43 174.422 233.672 174.422 242.606C174.422 251.54 182.394 258.783 192.229 258.783Z" fill="#023DA7"/>
<path d="M201.877 261.692C201.856 263.969 201.333 266.213 200.346 268.264C199.359 270.316 197.932 272.125 196.167 273.563H171.973C169.302 271.355 167.426 268.334 166.631 264.961C166.452 264.175 166.34 263.375 166.297 262.57C166.297 262.286 166.297 261.985 166.297 261.692C166.31 258.949 167.07 256.261 168.496 253.917C170.144 251.222 172.512 249.042 175.334 247.622C178.047 246.232 181.055 245.512 184.104 245.524C185.095 245.518 186.084 245.593 187.063 245.749C190.472 246.25 193.674 247.692 196.309 249.913C197.121 250.605 197.866 251.371 198.533 252.203C199.611 253.548 200.459 255.062 201.041 256.684C201.167 257.024 201.276 257.37 201.367 257.721C201.719 259.015 201.891 260.351 201.877 261.692Z" fill="#023DA7"/>
<path d="M169.244 262.799C179.079 262.799 187.051 255.556 187.051 246.622C187.051 237.688 179.079 230.445 169.244 230.445C159.41 230.445 151.438 237.688 151.438 246.622C151.438 255.556 159.41 262.799 169.244 262.799Z" fill="#023DA7"/>
<path d="M179.583 268.889C179.583 270.477 179.326 272.055 178.822 273.562H144.713C144.213 272.055 143.958 270.477 143.961 268.889C143.961 267.789 144.082 266.693 144.32 265.62C145.066 262.466 146.758 259.616 149.169 257.452C150.521 256.231 152.052 255.224 153.709 254.468C155.622 253.576 157.67 253.011 159.77 252.796C160.434 252.728 161.1 252.695 161.768 252.695C163.048 252.695 164.325 252.824 165.58 253.08C167.978 253.53 170.259 254.466 172.28 255.832C174.302 257.198 176.022 258.965 177.334 261.022C178.553 262.989 179.297 265.213 179.508 267.518C179.508 267.76 179.508 268.002 179.558 268.253C179.608 268.504 179.583 268.688 179.583 268.889Z" fill="#023DA7"/>
<path d="M184.378 273.555H152.836C154.011 271.577 155.564 269.849 157.408 268.472C159.251 267.095 161.348 266.095 163.579 265.53C164.586 265.255 165.615 265.064 166.655 264.961C171.059 264.528 175.48 265.6 179.195 268.004C179.329 268.088 179.454 268.18 179.58 268.272C181.543 269.664 183.181 271.467 184.378 273.555Z" fill="#023DA7"/>
<path d="M211.571 271.903C211.571 272.463 211.571 273.015 211.504 273.575H162.598C162.556 273.032 162.531 272.48 162.531 271.903C162.558 267.62 163.897 263.447 166.368 259.949C167.659 258.103 169.22 256.463 171 255.083C172.921 253.566 175.056 252.343 177.337 251.455C180.333 250.276 183.522 249.661 186.742 249.641H187.059C189.825 249.639 192.575 250.065 195.21 250.903C196.334 251.261 197.432 251.697 198.496 252.207C200.221 253.031 201.843 254.055 203.328 255.259C204.551 256.244 205.672 257.35 206.672 258.561C209.814 262.299 211.547 267.02 211.571 271.903Z" fill="#023DA7"/>
<path d="M223.343 273.554H176.352C176.995 271.573 177.936 269.701 179.144 268.003C179.244 267.844 179.361 267.686 179.478 267.535C182.195 263.917 185.87 261.131 190.087 259.493C190.778 259.225 191.489 258.983 192.219 258.765C194.297 258.142 196.446 257.782 198.614 257.695C199.024 257.695 199.45 257.695 199.843 257.695C200.236 257.695 200.846 257.695 201.331 257.695C203.142 257.783 204.939 258.063 206.69 258.531C214.699 260.646 220.969 266.331 223.343 273.554Z" fill="#023DA7"/>
<path d="M147.775 266.092C154.512 266.092 159.973 261.132 159.973 255.015C159.973 248.897 154.512 243.938 147.775 243.938C141.039 243.938 135.578 248.897 135.578 255.015C135.578 261.132 141.039 266.092 147.775 266.092Z" fill="#023DA7"/>
<path d="M154.9 258.779C161.637 258.779 167.098 253.82 167.098 247.702C167.098 241.584 161.637 236.625 154.9 236.625C148.164 236.625 142.703 241.584 142.703 247.702C142.703 253.82 148.164 258.779 154.9 258.779Z" fill="#023DA7"/>
<path d="M214.479 250.857C221.215 250.857 226.676 245.898 226.676 239.78C226.676 233.662 221.215 228.703 214.479 228.703C207.742 228.703 202.281 233.662 202.281 239.78C202.281 245.898 207.742 250.857 214.479 250.857Z" fill="#023DA7"/>
<g opacity="0.3">
<path d="M235.417 264.873C235.415 267.891 234.702 270.867 233.336 273.559H191.393C189.194 269.206 188.725 264.182 190.081 259.497L190.34 258.661C191.357 255.732 193.02 253.069 195.206 250.87C195.548 250.535 195.899 250.193 196.267 249.883C198.51 247.886 201.123 246.35 203.959 245.361C205.894 244.662 207.911 244.215 209.961 244.031C210.761 243.95 211.565 243.911 212.369 243.914C216.395 243.9 220.364 244.87 223.931 246.74C230.802 250.385 235.417 257.131 235.417 264.873Z" fill="white"/>
<path d="M192.229 258.783C202.063 258.783 210.035 251.54 210.035 242.606C210.035 233.672 202.063 226.43 192.229 226.43C182.394 226.43 174.422 233.672 174.422 242.606C174.422 251.54 182.394 258.783 192.229 258.783Z" fill="white"/>
<path d="M201.869 261.692C201.848 263.969 201.325 266.213 200.338 268.264C199.351 270.316 197.925 272.125 196.159 273.563H171.965C169.294 271.355 167.418 268.334 166.623 264.961C166.444 264.175 166.332 263.375 166.289 262.57C166.289 262.286 166.289 261.985 166.289 261.692C166.302 258.949 167.062 256.261 168.488 253.917C170.136 251.222 172.505 249.042 175.326 247.622C178.04 246.232 181.047 245.512 184.096 245.524C185.087 245.518 186.077 245.593 187.055 245.749C190.465 246.25 193.667 247.692 196.301 249.913C197.113 250.605 197.858 251.371 198.525 252.203C199.603 253.548 200.451 255.062 201.033 256.684C201.159 257.024 201.268 257.37 201.359 257.721C201.711 259.015 201.883 260.351 201.869 261.692Z" fill="white"/>
<path d="M169.244 262.799C179.079 262.799 187.051 255.556 187.051 246.622C187.051 237.688 179.079 230.445 169.244 230.445C159.41 230.445 151.438 237.688 151.438 246.622C151.438 255.556 159.41 262.799 169.244 262.799Z" fill="white"/>
<path d="M179.583 268.889C179.583 270.477 179.326 272.055 178.822 273.562H144.713C144.213 272.055 143.958 270.477 143.961 268.889C143.961 267.789 144.082 266.693 144.32 265.62C145.066 262.466 146.758 259.616 149.169 257.452C150.521 256.231 152.052 255.224 153.709 254.468C155.622 253.576 157.67 253.011 159.77 252.796C160.434 252.728 161.1 252.695 161.768 252.695C163.048 252.695 164.325 252.824 165.58 253.08C167.978 253.53 170.259 254.466 172.28 255.832C174.302 257.198 176.022 258.965 177.334 261.022C178.553 262.989 179.297 265.213 179.508 267.518C179.508 267.76 179.508 268.002 179.558 268.253C179.608 268.504 179.583 268.688 179.583 268.889Z" fill="white"/>
<path d="M184.378 273.563H152.836C154.011 271.585 155.564 269.857 157.408 268.48C159.251 267.103 161.348 266.103 163.579 265.538C164.586 265.262 165.615 265.072 166.655 264.969C171.059 264.535 175.48 265.608 179.195 268.012C179.329 268.096 179.454 268.188 179.58 268.28C181.543 269.672 183.181 271.475 184.378 273.563Z" fill="white"/>
<path d="M211.571 271.911C211.571 272.471 211.571 273.023 211.504 273.583H162.598C162.556 273.04 162.531 272.488 162.531 271.911C162.558 267.628 163.897 263.455 166.368 259.956C167.659 258.111 169.22 256.471 171 255.091C172.921 253.574 175.056 252.351 177.337 251.463C180.333 250.284 183.522 249.669 186.742 249.648H187.059C189.825 249.647 192.575 250.072 195.21 250.911C196.334 251.269 197.432 251.705 198.496 252.215C200.221 253.039 201.843 254.063 203.328 255.266C204.551 256.251 205.672 257.358 206.672 258.569C209.814 262.307 211.547 267.028 211.571 271.911Z" fill="white"/>
<path d="M223.343 273.562H176.352C176.995 271.581 177.936 269.709 179.144 268.011C179.244 267.852 179.361 267.693 179.478 267.543C182.195 263.925 185.87 261.139 190.087 259.501C190.778 259.233 191.489 258.991 192.219 258.773C194.297 258.149 196.446 257.79 198.614 257.703C199.024 257.703 199.45 257.703 199.843 257.703C200.236 257.703 200.846 257.703 201.331 257.703C203.142 257.791 204.939 258.071 206.69 258.539C214.699 260.654 220.969 266.339 223.343 273.562Z" fill="white"/>
<path d="M147.775 266.092C154.512 266.092 159.973 261.132 159.973 255.015C159.973 248.897 154.512 243.938 147.775 243.938C141.039 243.938 135.578 248.897 135.578 255.015C135.578 261.132 141.039 266.092 147.775 266.092Z" fill="white"/>
<path d="M154.9 258.787C161.637 258.787 167.098 253.827 167.098 247.71C167.098 241.592 161.637 236.633 154.9 236.633C148.164 236.633 142.703 241.592 142.703 247.71C142.703 253.827 148.164 258.787 154.9 258.787Z" fill="white"/>
<path d="M214.479 250.857C221.215 250.857 226.676 245.898 226.676 239.78C226.676 233.662 221.215 228.703 214.479 228.703C207.742 228.703 202.281 233.662 202.281 239.78C202.281 245.898 207.742 250.857 214.479 250.857Z" fill="white"/>
</g>
<path d="M116.929 37.8359H102.508V83.5401H116.929V37.8359Z" fill="#333333"/>
<path d="M142.01 30.3828L75.6484 96.7445H208.363L142.01 30.3828Z" fill="#333333"/>
<path d="M142.009 36.0078L81.2734 96.7432H202.736L142.009 36.0078Z" fill="#023DA7"/>
<path opacity="0.1" d="M115.477 86.3387V89.875H168.529V86.3387H115.477Z" fill="#333333"/>
<path opacity="0.1" d="M142.5 54.731V51.2031H132.844V54.731H137.667V58.2673H147.323V54.731H142.5Z" fill="#333333"/>
<path d="M195.517 93.0078H88.4844V273.559H195.517V93.0078Z" fill="#023DA7"/>
<path d="M197.595 271.281H86.3984V273.555H197.595V271.281Z" fill="#023DA7"/>
<path d="M87.0502 132.461V183.532H85.6875V186.241H88.4881V183.532V132.461H87.0502Z" fill="#023DA7"/>
<path d="M196.954 132.461V183.532H198.316V186.241H195.516V183.532V132.461H196.954Z" fill="#023DA7"/>
<path d="M85.6016 99.2344H198.403L197.074 117.141H86.9308L85.6016 99.2344Z" fill="#023DA7"/>
<path opacity="0.1" d="M195.517 96.7422H88.4844V99.2335H195.517V96.7422Z" fill="#333333"/>
<path opacity="0.1" d="M195.517 116.984H88.4844V119.476H195.517V116.984Z" fill="#333333"/>
<path opacity="0.4" d="M142.008 63.5703C135.967 63.5703 130.174 65.9693 125.902 70.2398C121.63 74.5102 119.229 80.3025 119.227 86.343H164.78C164.778 80.304 162.378 74.5129 158.108 70.2427C153.838 65.9725 148.047 63.5725 142.008 63.5703Z" fill="white"/>
<path opacity="0.1" d="M92.0296 102.742H90.7422V113.644H92.0296V102.742Z" fill="#333333"/>
<path opacity="0.1" d="M98.3577 102.742H97.0703V113.644H98.3577V102.742Z" fill="#333333"/>
<path opacity="0.1" d="M104.686 102.742H103.398V113.644H104.686V102.742Z" fill="#333333"/>
<path opacity="0.1" d="M111.014 102.742H109.727V113.644H111.014V102.742Z" fill="#333333"/>
<path opacity="0.1" d="M117.334 102.742H116.047V113.644H117.334V102.742Z" fill="#333333"/>
<path opacity="0.1" d="M123.662 102.742H122.375V113.644H123.662V102.742Z" fill="#333333"/>
<path opacity="0.1" d="M129.991 102.742H128.703V113.644H129.991V102.742Z" fill="#333333"/>
<path opacity="0.1" d="M136.319 102.742H135.031V113.644H136.319V102.742Z" fill="#333333"/>
<path opacity="0.1" d="M142.639 102.742H141.352V113.644H142.639V102.742Z" fill="#333333"/>
<path opacity="0.1" d="M148.967 102.742H147.68V113.644H148.967V102.742Z" fill="#333333"/>
<path opacity="0.1" d="M155.295 102.742H154.008V113.644H155.295V102.742Z" fill="#333333"/>
<path opacity="0.1" d="M161.631 102.742H160.344V113.644H161.631V102.742Z" fill="#333333"/>
<path opacity="0.1" d="M167.959 102.742H166.672V113.644H167.959V102.742Z" fill="#333333"/>
<path opacity="0.1" d="M174.28 102.742H172.992V113.644H174.28V102.742Z" fill="#333333"/>
<path opacity="0.1" d="M180.608 102.742H179.32V113.644H180.608V102.742Z" fill="#333333"/>
<path opacity="0.1" d="M186.936 102.742H185.648V113.644H186.936V102.742Z" fill="#333333"/>
<path opacity="0.1" d="M193.264 102.742H191.977V113.644H193.264V102.742Z" fill="#333333"/>
<path opacity="0.1" d="M93.2774 189.758H92.0234V192.692H93.2774V189.758Z" fill="#333333"/>
<path opacity="0.1" d="M99.4415 189.758H98.1875V192.692H99.4415V189.758Z" fill="#333333"/>
<path opacity="0.1" d="M105.613 189.758H104.359V192.692H105.613V189.758Z" fill="#333333"/>
<path opacity="0.1" d="M111.785 189.758H110.531V192.692H111.785V189.758Z" fill="#333333"/>
<path opacity="0.1" d="M117.957 189.758H116.703V192.692H117.957V189.758Z" fill="#333333"/>
<path opacity="0.1" d="M124.121 189.758H122.867V192.692H124.121V189.758Z" fill="#333333"/>
<path opacity="0.1" d="M130.293 189.758H129.039V192.692H130.293V189.758Z" fill="#333333"/>
<path opacity="0.1" d="M136.465 189.758H135.211V192.692H136.465V189.758Z" fill="#333333"/>
<path opacity="0.1" d="M142.621 189.758H141.367V192.692H142.621V189.758Z" fill="#333333"/>
<path opacity="0.1" d="M148.793 189.758H147.539V192.692H148.793V189.758Z" fill="#333333"/>
<path opacity="0.1" d="M154.965 189.758H153.711V192.692H154.965V189.758Z" fill="#333333"/>
<path opacity="0.1" d="M161.137 189.758H159.883V192.692H161.137V189.758Z" fill="#333333"/>
<path opacity="0.1" d="M167.301 189.758H166.047V192.692H167.301V189.758Z" fill="#333333"/>
<path opacity="0.1" d="M173.473 189.758H172.219V192.692H173.473V189.758Z" fill="#333333"/>
<path opacity="0.1" d="M179.645 189.758H178.391V192.692H179.645V189.758Z" fill="#333333"/>
<path opacity="0.1" d="M185.809 189.758H184.555V192.692H185.809V189.758Z" fill="#333333"/>
<path opacity="0.1" d="M191.973 189.758H190.719V192.692H191.973V189.758Z" fill="#333333"/>
<path opacity="0.4" d="M123.703 183.525V132.445H98.9993V183.525H123.703Z" fill="white"/>
<path opacity="0.1" d="M98.8281 183.542V186.242H123.707V183.542H98.8281Z" fill="#333333"/>
<path opacity="0.4" d="M123.703 159.556V156.438H98.9993V159.556H123.703Z" fill="white"/>
<path opacity="0.4" d="M121.834 134.32H100.867V181.663H121.834V134.32Z" fill="white"/>
<path opacity="0.4" d="M173.875 183.525V132.445H149.171V183.525H173.875Z" fill="white"/>
<path opacity="0.1" d="M137.805 183.534V186.234H185.248V183.534H137.805Z" fill="#333333"/>
<path opacity="0.4" d="M173.875 159.556V156.438H149.171V159.556H173.875Z" fill="white"/>
<path opacity="0.4" d="M172.006 134.32H151.039V181.663H172.006V134.32Z" fill="white"/>
<path opacity="0.4" d="M185.234 183.541V132.461H177.175V183.541H185.234Z" fill="white"/>
<path opacity="0.4" d="M185.234 159.556V156.438H177.175V159.556H185.234Z" fill="white"/>
<path opacity="0.4" d="M183.369 134.32H179.047V181.663H183.369V134.32Z" fill="white"/>
<path opacity="0.4" d="M145.852 183.541V132.461H137.793V183.541H145.852Z" fill="white"/>
<path opacity="0.4" d="M145.852 159.556V156.438H137.793V159.556H145.852Z" fill="white"/>
<path opacity="0.4" d="M143.986 134.32H139.664V181.663H143.986V134.32Z" fill="white"/>
<path opacity="0.4" d="M173.875 252.306V201.227H149.171V252.306H173.875Z" fill="white"/>
<path opacity="0.1" d="M137.805 252.308V255.008H185.248V252.308H137.805Z" fill="#333333"/>
<path opacity="0.4" d="M173.875 228.329V225.211H149.171V228.329H173.875Z" fill="white"/>
<path opacity="0.4" d="M172.006 203.102H151.039V250.444H172.006V203.102Z" fill="white"/>
<path opacity="0.4" d="M185.234 252.322V201.242H177.175V252.322H185.234Z" fill="white"/>
<path opacity="0.4" d="M185.234 228.345V225.227H177.175V228.345H185.234Z" fill="white"/>
<path opacity="0.4" d="M183.369 203.102H179.047V250.444H183.369V203.102Z" fill="white"/>
<path opacity="0.4" d="M145.852 252.322V201.242H137.793V252.322H145.852Z" fill="white"/>
<path opacity="0.4" d="M145.852 228.329V225.211H137.793V228.329H145.852Z" fill="white"/>
<path opacity="0.4" d="M143.986 203.102H139.664V250.444H143.986V203.102Z" fill="white"/>
<path opacity="0.1" d="M132.522 269.009V264.461H95.5294V269.009H93.1719V273.565H134.88V269.009H132.522Z" fill="#333333"/>
<path opacity="0.4" d="M114.037 201.242C116.176 201.242 118.294 201.663 120.27 202.482C122.245 203.3 124.041 204.5 125.553 206.012C127.065 207.524 128.265 209.32 129.083 211.295C129.902 213.271 130.323 215.389 130.323 217.528V264.461H97.7188V217.519C97.7198 215.378 98.143 213.259 98.964 211.282C99.785 209.305 100.988 207.509 102.503 205.997C104.019 204.485 105.818 203.287 107.797 202.471C109.776 201.656 111.897 201.238 114.037 201.242Z" fill="white"/>
<path opacity="0.5" d="M127.086 219.039H100.953V264.459H127.086V219.039Z" fill="#F4F3F2"/>
<path opacity="0.5" d="M114.027 204.398C112.72 204.398 111.425 204.656 110.217 205.156C109.009 205.657 107.911 206.39 106.987 207.315C106.062 208.239 105.329 209.337 104.828 210.545C104.328 211.753 104.07 213.048 104.07 214.355H123.975C123.977 213.048 123.72 211.754 123.221 210.546C122.721 209.338 121.989 208.24 121.065 207.315C120.141 206.391 119.044 205.657 117.836 205.157C116.629 204.656 115.334 204.398 114.027 204.398Z" fill="#F4F3F2"/>
<path d="M125.633 241.758C125.633 242.089 125.535 242.412 125.351 242.687C125.168 242.962 124.906 243.176 124.601 243.303C124.295 243.429 123.959 243.462 123.635 243.398C123.311 243.333 123.013 243.174 122.779 242.94C122.545 242.706 122.386 242.408 122.321 242.084C122.257 241.76 122.29 241.424 122.416 241.118C122.543 240.813 122.757 240.551 123.032 240.368C123.307 240.184 123.63 240.086 123.961 240.086C124.405 240.086 124.83 240.262 125.143 240.576C125.457 240.889 125.633 241.314 125.633 241.758Z" fill="#333333"/>
<path opacity="0.1" d="M110.359 126.432V129.969H120.015V126.432H110.359Z" fill="#333333"/>
<path opacity="0.1" d="M155.672 121.526V125.062H165.328V121.526H155.672Z" fill="#333333"/>
<path opacity="0.1" d="M179.601 262.982V259.445H169.945V262.982H174.769V266.518H184.425V262.982H179.601Z" fill="#333333"/>
<path opacity="0.1" d="M225.523 240.48V242.102H276.988V240.48H225.523Z" fill="#333333"/>
<path opacity="0.4" d="M234.258 240.48V179.344H225.522V240.48H234.258Z" fill="white"/>
<path opacity="0.4" d="M234.258 211.768V208.039H225.522V211.768H234.258Z" fill="white"/>
<path opacity="0.4" d="M232.228 181.586H227.547V238.25H232.228V181.586Z" fill="white"/>
</svg>
