<svg width="31" height="31" viewBox="0 0 31 31" fill="none" xmlns="http://www.w3.org/2000/svg">
    <path d="M15.1926 1.07944L1.14578 12.7044C0.79579 12.9933 0.999484 13.5617 1.45324 13.5625H3.8751L3.87803 29.545C3.877 29.814 4.09535 30.0323 4.36429 30.0313H26.6388C26.9077 30.0323 27.1261 29.814 27.125 29.545V13.5625H29.5431C29.9988 13.5662 30.2058 12.9945 29.8544 12.7044L26.6397 10.0442V3.87595C26.6408 3.60697 26.4224 3.38866 26.1535 3.38968H21.796C21.5285 3.39075 21.3106 3.60845 21.3116 3.87595V5.63654L15.8076 1.07944C15.72 1.00722 15.6098 0.968046 15.4963 0.96876C15.3853 0.969799 15.2781 1.00887 15.1926 1.07944ZM17.7554 9.68656C18.2164 9.68656 18.5606 9.9199 18.7421 10.2192C18.9236 10.5185 18.955 10.8523 18.8708 11.1596L18.2218 13.5303C18.2189 13.5413 18.2128 13.5516 18.2095 13.5625H19.0534C19.7742 13.5625 20.3655 14.1375 20.3655 14.8492C20.3655 15.0325 20.3332 15.2446 20.287 15.572C20.2408 15.8993 20.1763 16.309 20.0978 16.7413C19.9408 17.6058 19.7365 18.5595 19.5113 19.2152C19.4213 19.4772 19.2668 19.7297 19.0581 19.9323C19.9717 21.1362 20.8272 22.4735 20.8272 23.7354V24.3787C20.8272 26.4538 19.003 28.0938 16.7867 28.0938H15.186C12.964 28.0938 11.1454 26.4538 11.1454 24.3787V23.7354C11.1454 22.5552 11.8199 21.4261 12.608 20.3457H12.45C12.3321 20.3457 12.22 20.3274 12.1104 20.2985V20.3457C12.1093 20.6132 11.8916 20.8292 11.6241 20.8282H8.71791C8.45192 20.8271 8.2365 20.6117 8.23543 20.3457V14.0488C8.23441 13.7813 8.45045 13.5636 8.71791 13.5625H11.6241C11.8123 13.5619 11.9839 13.6704 12.064 13.8407C12.183 13.7786 12.2988 13.7263 12.3971 13.6695C12.7152 13.4858 12.8238 13.3635 12.941 13.1445C13.044 12.952 13.0982 12.6313 13.1066 12.5598L12.7225 11.1597C12.6445 10.8754 12.6725 10.5186 12.854 10.2193C13.0354 9.92001 13.362 9.68667 13.8416 9.68662L17.7554 9.68656ZM13.8416 10.6553C13.7285 10.6553 13.7004 10.6914 13.6742 10.7348C13.6479 10.7782 13.6448 10.8644 13.6552 10.9023L14.3061 13.2731C14.3357 13.3811 14.3886 13.473 14.431 13.5162C14.4734 13.5594 14.5086 13.5625 14.5313 13.5625H17.0619C17.0828 13.5625 17.1198 13.5588 17.1622 13.5162C17.2046 13.473 17.2574 13.3811 17.2871 13.2731L17.938 10.9023C17.9484 10.8644 17.9462 10.7782 17.92 10.7348C17.8937 10.6914 17.8666 10.6553 17.7554 10.6553H13.8416ZM13.5578 13.957C13.3802 14.1805 13.1383 14.3632 12.8719 14.5171C12.6428 14.6405 12.3719 14.7653 12.2702 14.8539C12.1686 14.9423 12.1104 15.0395 12.1104 15.2928V19.0581C12.1104 19.2338 12.2581 19.3759 12.45 19.3759H18.0808C18.2699 19.3759 18.4954 19.1923 18.5955 18.901C18.7829 18.3554 18.9935 17.4066 19.1461 16.5662C19.2223 16.146 19.2846 15.7515 19.3287 15.4394C19.3727 15.1275 19.3968 14.866 19.3968 14.8491C19.3968 14.6734 19.2453 14.5312 19.0534 14.5312H17.062H14.5313C14.1919 14.5312 13.9309 14.385 13.7414 14.1916C13.6659 14.1145 13.611 14.0439 13.5578 13.957H13.5578ZM9.20508 14.5312V19.8584H11.1416V19.0581V14.5312H9.20508ZM17.9749 20.3463H13.8132C12.886 21.5731 12.1141 22.8187 12.1141 23.736V24.3793C12.1141 25.8821 13.4667 27.1247 15.1859 27.1247H16.7866C18.506 27.1247 19.8575 25.8821 19.8575 24.3793V23.736C19.8575 22.7474 19.0824 21.5693 18.1537 20.3394C18.1082 20.3463 18.0474 20.3463 17.9749 20.3463V20.3463ZM16.4697 21.7969H16.7592C17.407 21.7969 17.4016 22.7656 16.7592 22.7656H15.7895C15.647 22.7656 15.5502 22.8813 15.5502 23.0087C15.5502 23.1362 15.647 23.2481 15.7895 23.2481H16.2758C16.9476 23.2481 17.4886 23.7985 17.4886 24.4609C17.4886 25.0744 17.0286 25.5695 16.4697 25.6548V25.6658C16.4697 26.3122 15.5052 26.3198 15.5 25.6731H15.307C14.6638 25.6731 14.656 24.7044 15.307 24.7044H16.2758C16.4183 24.7044 16.5189 24.5887 16.5189 24.4613C16.5189 24.3338 16.4183 24.2181 16.2758 24.2181H15.7895C15.1271 24.2181 14.5814 23.681 14.5814 23.0091C14.5814 22.4354 14.9665 21.9657 15.5 21.8332V21.8048C15.5 21.5551 15.6882 21.3176 15.973 21.3174C16.2649 21.3172 16.4708 21.5264 16.4697 21.7969Z"/>
    </svg>
    