<svg width="350" height="350" viewBox="0 0 350 350" fill="none" xmlns="http://www.w3.org/2000/svg">
<g id="name=l&#38;p-2">
<g id="Frame 148715">
<path id="backgroundExtraLight" d="M105.886 144.053C107.885 135.381 102.475 126.73 93.802 124.731C85.1293 122.731 76.4781 128.142 74.479 136.814C72.4799 145.487 77.89 154.138 86.5627 156.137C95.2354 158.136 103.887 152.726 105.886 144.053Z" fill="#F4F3F2"/>
<path id="backgroundExtraLight_2" d="M200.075 137.11C198.071 132.802 199.666 129.678 204.578 129.678C207.651 129.678 211.472 130.891 215.192 132.873C215.616 131.746 216.793 131.071 218.696 131.071C222.05 131.071 226.668 133.161 230.287 136.098C231.404 135.351 232.721 134.958 234.065 134.97C237.275 134.834 241.153 136.04 244.528 137.994C244.726 137.806 244.96 137.659 245.215 137.562C245.47 137.465 245.742 137.419 246.015 137.426C247.084 137.466 248.133 137.727 249.096 138.193C250.059 138.659 250.915 139.32 251.609 140.134C251.688 140.234 251.753 140.328 251.824 140.428H197.583C195.867 138.899 197.763 137.189 200.075 137.11Z" fill="#F4F3F2"/>
<path id="backgroundExtraLight_3" d="M94.4062 170.455L138.845 160.279V267.57H94.4062V170.455Z" fill="#F4F3F2"/>
<path id="backgroundExtraLight_4" d="M161.906 160.279H138.847V267.57H161.906V160.279Z" fill="#F4F3F2"/>
<path id="backgroundExtraLight_5" d="M154.373 267.562H192.197L192.197 134.613H154.373V267.562Z" fill="#F4F3F2"/>
<path id="backgroundExtraLight_6" d="M211.824 134.619H192.197V267.569H211.824V134.619Z" fill="#F4F3F2"/>
<path id="backgroundExtraLight_7" d="M159.464 134.619H192.197V124.737H159.464V134.619Z" fill="#F4F3F2"/>
<path id="backgroundExtraLight_8" d="M159.464 134.611H192.197V132.392H159.464V134.611Z" fill="#F4F3F2"/>
<path id="backgroundExtraLight_9" d="M206.74 124.736H192.197V134.618H206.74V124.736Z" fill="#F4F3F2"/>
<path id="backgroundExtraLight_10" d="M164.549 124.736H192.19V114.855H164.549V124.736Z" fill="#F4F3F2"/>
<path id="backgroundExtraLight_11" d="M164.549 124.736H192.19V122.517H164.549V124.736Z" fill="#F4F3F2"/>
<path id="backgroundExtraLight_12" d="M201.648 114.863H192.197V124.745H201.648V114.863Z" fill="#F4F3F2"/>
<path id="backgroundExtraLight_13" d="M184.014 101.055H182.176V114.857H184.014V101.055Z" fill="#F4F3F2"/>
<path id="backgroundExtraLight_14" d="M205.554 267.568H233.174V151.897H205.554V267.568Z" fill="#F4F3F2"/>
<path id="backgroundExtraLight_15" d="M247.515 151.898H233.181V267.57H247.515V151.898Z" fill="#F4F3F2"/>
<path id="backgroundExtraLight_16" d="M240.348 175.359L261.289 193.313V267.569H240.348V175.359Z" fill="#F4F3F2"/>
<path id="backgroundExtraLight_17" d="M272.162 193.312H261.289V267.568H272.162V193.312Z" fill="#F4F3F2"/>
<path id="backgroundExtraLight_18" d="M272.161 193.313H261.289L240.348 175.359H251.213L272.161 193.313Z" fill="#F4F3F2"/>
<path id="backgroundExtraLight_19" d="M129.496 267.566C129.188 265.841 128.455 264.22 127.363 262.849C126.271 261.479 124.854 260.402 123.241 259.717C124.657 262.078 125.3 264.822 125.08 267.566H129.496Z" fill="#F4F3F2"/>
<path id="backgroundExtraLight_20" d="M132.784 267.567C132.784 267.567 132.397 258.863 125.431 255.703C128.547 260.17 128.368 267.567 128.368 267.567H132.784Z" fill="#F4F3F2"/>
<path id="backgroundLight" d="M62.9805 208.967L68.0505 244.73L68.5533 248.314H71.8064L71.2966 244.73L66.2265 208.967H62.9805Z" fill="#E4E2E0"/>
<path id="backgroundLight_2" d="M202.297 208.967L207.367 244.73L207.87 248.314H211.123L210.613 244.73L205.543 208.967H202.297Z" fill="#E4E2E0"/>
<path id="backgroundLight_3" d="M83.7998 244.732L84.3097 248.316L87.0458 267.598H90.299L87.5629 248.316L87.0602 244.732H83.7998Z" fill="#E4E2E0"/>
<path id="backgroundLight_4" d="M223.119 244.732L223.629 248.316L226.358 267.598H229.604L226.875 248.316L226.372 244.732H223.119Z" fill="#E4E2E0"/>
<path id="backgroundLight_5" d="M206.705 244.732L206.195 248.316L203.459 267.598H200.206L202.942 248.316L203.445 244.732H206.705Z" fill="#E4E2E0"/>
<path id="backgroundLight_6" d="M67.3852 244.732L66.8753 248.316L64.1464 267.598H60.9004L63.6293 248.316L64.1392 244.732H67.3852Z" fill="#E4E2E0"/>
<path id="backgroundExtraLight_21" d="M58.3059 213.944H207.198L204.433 203.99H55.541L58.3059 213.944Z" fill="#F4F3F2"/>
<path id="backgroundLight_7" d="M61.7053 213.944H210.605L207.84 203.99H58.9404L61.7053 213.944Z" fill="#E4E2E0"/>
<path id="backgroundExtraLight_22" d="M60.3824 226.369H209.275L206.51 216.408H57.6104L60.3824 226.369Z" fill="#F4F3F2"/>
<path id="backgroundLight_8" d="M63.7775 226.369H212.67L209.905 216.408H61.0127L63.7775 226.369Z" fill="#E4E2E0"/>
<path id="backgroundExtraLight_23" d="M62.4475 238.806H211.347L208.582 228.846H59.6826L62.4475 238.806Z" fill="#F4F3F2"/>
<path id="backgroundLight_9" d="M65.8537 238.806H214.746L211.981 228.846H63.0889L65.8537 238.806Z" fill="#E4E2E0"/>
<path id="backgroundLight_10" d="M228.298 244.732H80.0596V248.309H228.298V244.732Z" fill="#E4E2E0"/>
<path id="backgroundExtraLight_24" d="M80.0563 244.732H59.6826V248.309H80.0563V244.732Z" fill="#F4F3F2"/>
<path id="backgroundExtraLight_25" d="M48.4871 98.8561C45.7079 92.8524 47.9197 88.5723 54.7134 88.5723C58.9719 88.5723 64.2503 90.2599 69.3994 92.996C69.9811 91.4377 71.6184 90.4969 74.2468 90.4969C78.886 90.4969 85.2703 93.3695 90.2829 97.47C91.8342 96.4366 93.6615 95.8959 95.5254 95.9189C99.9635 95.7321 105.335 97.3551 110.003 100.098C110.553 99.5791 111.286 99.2978 112.043 99.3157C114.599 99.2151 118.061 100.888 119.777 103.064C119.885 103.201 119.978 103.33 120.071 103.459H45.04C42.6701 101.355 45.2913 98.9638 48.4871 98.8561Z" fill="#F4F3F2"/>
<path id="backgroundExtraLight_26" d="M245.555 111.237C245.744 111.226 245.933 111.226 246.122 111.237C245.95 109.269 246.963 108.02 249.139 108.02C251.072 108.151 252.944 108.755 254.589 109.779C254.029 105.966 255.832 103.488 259.896 103.488C263.178 103.488 267.336 105.104 271.444 107.732C271.803 106.239 273.01 105.341 275.035 105.341C278.625 105.341 283.652 108.106 287.746 112.013C288.826 111.043 290.229 110.51 291.681 110.519C295.078 110.347 299.301 111.955 303.042 114.526C303.222 114.29 303.457 114.102 303.726 113.977C303.995 113.852 304.29 113.794 304.586 113.808C306.446 113.707 309.003 115.137 310.497 117.054H242.568C240.966 114.102 242.237 111.567 245.555 111.237Z" fill="#F4F3F2"/>
<path id="backgroundExtraLight_27" d="M131.278 67.8034C131.465 67.7925 131.652 67.7925 131.838 67.8034C131.666 65.8357 132.686 64.5862 134.855 64.5862C136.791 64.7158 138.665 65.32 140.313 66.3456C139.752 62.5323 141.548 60.0547 145.612 60.0547C148.902 60.0547 153.052 61.6705 157.16 64.2989C157.519 62.798 158.726 61.9075 160.751 61.9075C164.342 61.9075 169.369 64.6723 173.462 68.579C174.538 67.5987 175.942 67.0557 177.397 67.0566C180.794 66.8842 185.017 68.4929 188.758 71.0638C188.939 70.8289 189.174 70.641 189.443 70.516C189.711 70.391 190.006 70.3326 190.302 70.3457C192.162 70.2523 194.726 71.6814 196.213 73.5988H128.284C126.689 70.6688 127.96 68.1266 131.278 67.8034Z" fill="#F4F3F2"/>
<path id="backgroundExtraLight_28" d="M300.751 255.146L287.99 242.385H278.051L289.081 253.415H286.051V267.563H297.721V255.146H300.751Z" fill="#F4F3F2"/>
<path id="backgroundExtraLight_29" d="M290.812 255.146L278.05 242.385L265.289 255.146H270.05V267.563H286.051V255.146H290.812Z" fill="#F4F3F2"/>
<path id="backgroundExtraLight_30" d="M175.241 300.001C252.141 300.001 314.481 296.361 314.481 291.872C314.481 287.382 252.141 283.742 175.241 283.742C98.3401 283.742 36 287.382 36 291.872C36 296.361 98.3401 300.001 175.241 300.001Z" fill="#F4F3F2"/>
<path id="objectPrimary" d="M198.508 94.1723V123.918H168.77V94.1723L183.642 79.7305L183.793 79.8813L185.114 81.1524L198.508 94.1723Z" fill="#241C4F"/>
<path id="objectPrimary_2" d="M198.509 123.926H220.204V97.6131H198.509V123.926Z" fill="#241C4F"/>
<path id="objectPrimary_3" d="M208.843 102.294H198.544L197.072 100.829L185.115 78.5664L208.843 102.294Z" fill="#241C4F"/>
<path id="objectTertiary" d="M185.114 78.5664V88.8646L171.678 102.294H168.77V94.9113L183.793 79.8806L185.114 78.5664Z" fill="#404040"/>
<path id="objectTertiary_2" d="M207.37 100.832H197.072L183.643 87.3958V77.0977L207.37 100.832Z" fill="#404040"/>
<path id="objectTertiary_3" d="M207.37 100.832H225.855L202.12 77.0977H183.643L207.37 100.832Z" fill="#404040"/>
<path id="objectTertiary_4" d="M159.908 100.832H170.206L183.643 87.3958V77.0977L159.908 100.832Z" fill="#404040"/>
<path id="backgroundExtraLight_31" d="M288.606 151.66L269.467 132.521H254.559L271.105 149.067H266.559V170.289H284.053V151.66H288.606Z" fill="#F4F3F2"/>
<path id="backgroundLight_11" d="M273.705 151.66L254.559 132.521L235.421 151.66H242.566V170.289H266.552V151.66H273.705Z" fill="#E4E2E0"/>
<path id="backgroundExtraLight_32" d="M210.724 166.777L191.585 147.639H176.677L193.223 164.185H188.677V185.406H206.171V166.777H210.724Z" fill="#F4F3F2"/>
<path id="backgroundLight_12" d="M195.826 166.777L176.68 147.639L157.542 166.777H164.688V185.406H188.673V166.777H195.826Z" fill="#E4E2E0"/>
<path id="backgroundExtraLight_33" d="M282.632 69.1457L263.486 50H248.585L265.124 66.546H260.578V87.7671H278.072V69.1457H282.632Z" fill="#F4F3F2"/>
<path id="backgroundLight_13" d="M267.724 69.1457L248.586 50L229.447 69.1457H236.586V87.7671H260.579V69.1457H267.724Z" fill="#E4E2E0"/>
<path id="objectPrimary_4" d="M237.229 74.6034C231.751 65.8339 223.796 58.8856 214.369 54.637C204.943 50.3884 194.468 49.0304 184.27 50.7346C174.072 52.4389 164.608 57.1288 157.075 64.2115C149.542 71.2942 144.278 80.4515 141.95 90.5256C139.621 100.6 140.332 111.138 143.992 120.808C147.652 130.478 154.098 138.846 162.514 144.853C170.929 150.86 180.937 154.237 191.272 154.556C201.607 154.876 211.804 152.123 220.575 146.647C232.337 139.302 240.699 127.585 243.822 114.074C246.945 100.564 244.573 86.3656 237.229 74.6034ZM157.881 124.155C153.555 117.237 151.377 109.191 151.623 101.034C151.87 92.8781 154.529 84.9782 159.266 78.3335C164.002 71.6887 170.602 66.5977 178.232 63.7042C185.861 60.8106 194.178 60.2445 202.129 62.0775C210.081 63.9104 217.31 68.06 222.903 74.0016C228.496 79.9432 232.202 87.4099 233.551 95.4575C234.9 103.505 233.833 111.772 230.484 119.213C227.135 126.654 221.655 132.935 214.736 137.261C210.142 140.134 205.027 142.074 199.683 142.969C194.339 143.865 188.87 143.698 183.591 142.48C178.311 141.262 173.323 139.015 168.911 135.868C164.5 132.721 160.752 128.736 157.881 124.141V124.155Z" fill="#241C4F"/>
<path id="objectPrimary_5" d="M156.567 131.105C150.442 136.075 144.122 140.743 137.767 145.346C131.411 149.949 124.969 154.409 118.506 158.804C112.043 163.199 105.472 167.501 98.872 171.731C95.59 173.885 92.2579 175.925 88.9472 178.021C87.3127 179.144 85.5088 179.998 83.6042 180.549C82.5711 180.828 81.5125 181.001 80.4444 181.066C79.244 181.167 78.0354 181.099 76.8537 180.865C75.9287 180.677 75.0498 180.308 74.2675 179.78C73.4852 179.251 72.8147 178.574 72.2945 177.786C71.7742 176.998 71.4144 176.116 71.2355 175.189C71.0567 174.262 71.0623 173.309 71.2522 172.384C71.2522 172.269 71.3025 172.14 71.3312 172.025C71.6534 170.862 72.1369 169.75 72.7675 168.722C73.2996 167.804 73.9228 166.943 74.6275 166.151C75.9596 164.681 77.5186 163.435 79.2451 162.459C82.5845 160.413 85.8951 158.323 89.2488 156.305C95.9347 152.226 102.685 148.255 109.472 144.333C116.258 140.412 123.116 136.613 130.032 132.908C136.948 129.202 143.921 125.583 151.074 122.258C152.235 121.727 153.55 121.638 154.773 122.007C155.995 122.377 157.041 123.179 157.715 124.264C158.388 125.348 158.643 126.642 158.432 127.901C158.221 129.16 157.558 130.299 156.567 131.105Z" fill="#241C4F"/>
<path id="skinTone" d="M90.5582 122.381C89.7467 125.254 88.964 128.277 88.2171 131.236C87.4702 134.195 86.7808 137.189 86.2063 140.177C85.8903 141.671 85.6174 143.193 85.3804 144.593C85.1434 145.994 85.007 147.466 84.9208 148.902C84.8454 150.366 84.8454 151.833 84.9208 153.297C84.9208 154.015 85.0142 154.734 85.086 155.502C85.1578 156.27 85.2871 156.988 85.3876 157.613L82.515 158.69C82.1381 157.919 81.8142 157.122 81.5456 156.306C81.2627 155.523 81.0229 154.725 80.8274 153.915C80.4334 152.301 80.1645 150.658 80.0231 149.003C79.8914 147.342 79.8674 145.675 79.9513 144.012C80.0662 142.317 80.2673 140.758 80.4899 139.179C80.9423 136.026 81.524 132.902 82.2134 129.843C82.9028 126.783 83.6497 123.703 84.6192 120.607L90.5582 122.381Z" fill="#FECCAF"/>
<path id="skinTone_2" d="M82.907 158.261L79.3594 160.674L79.8621 162.728C79.8621 162.728 87.2518 158.893 85.2769 157.363L82.907 158.261Z" fill="#FECCAF"/>
<path id="shoesColor" d="M98.9974 286.083C98.462 286.069 97.9298 285.997 97.4103 285.867C97.3838 285.859 97.36 285.844 97.3411 285.824C97.3222 285.804 97.3089 285.779 97.3026 285.752C97.2982 285.725 97.3019 285.696 97.3134 285.671C97.3249 285.645 97.3436 285.624 97.3672 285.609C97.5755 285.472 99.3924 284.287 100.096 284.61C100.176 284.645 100.245 284.701 100.295 284.772C100.346 284.843 100.376 284.926 100.383 285.012C100.411 285.148 100.403 285.288 100.362 285.42C100.32 285.552 100.246 285.671 100.146 285.767C99.8121 286.003 99.4055 286.115 98.9974 286.083ZM97.8124 285.659C98.8609 285.874 99.6509 285.831 99.9669 285.558C100.033 285.493 100.081 285.412 100.108 285.323C100.134 285.234 100.137 285.139 100.118 285.048C100.118 284.926 100.046 284.89 99.9956 284.869C99.615 284.704 98.5593 285.199 97.8124 285.659Z" fill="#171717"/>
<path id="shoesColor_2" d="M97.4444 285.866C97.421 285.873 97.396 285.873 97.3726 285.866C97.3506 285.854 97.3323 285.836 97.3196 285.815C97.307 285.793 97.3004 285.769 97.3008 285.744C97.3008 285.672 97.3008 283.941 97.9615 283.359C98.0412 283.284 98.1369 283.229 98.2415 283.196C98.346 283.164 98.4566 283.156 98.5647 283.173C98.678 283.174 98.7875 283.213 98.8751 283.285C98.9626 283.357 99.0229 283.457 99.0459 283.568C99.1823 284.25 98.0836 285.543 97.5162 285.873L97.4444 285.866ZM98.4642 283.431C98.3472 283.43 98.2341 283.474 98.1482 283.553C97.7706 284.112 97.5772 284.775 97.5952 285.449C98.1626 284.99 98.8448 284.013 98.7658 283.604C98.7658 283.532 98.7155 283.453 98.5288 283.431H98.4642Z" fill="#171717"/>
<path id="shoesColor_3" d="M136.46 283.418C136.436 283.419 136.412 283.413 136.391 283.402C136.369 283.39 136.351 283.374 136.338 283.353C136.32 283.329 136.311 283.3 136.311 283.27C136.311 283.24 136.32 283.211 136.338 283.188C136.532 282.958 138.206 280.99 139.06 280.99H139.118C139.196 280.998 139.27 281.027 139.334 281.072C139.398 281.117 139.45 281.178 139.484 281.249C139.542 281.36 139.572 281.483 139.572 281.608C139.572 281.733 139.542 281.856 139.484 281.967C139.11 282.757 137.423 283.202 136.446 283.403L136.46 283.418ZM139.06 281.263C138.593 281.263 137.559 282.247 136.848 283.044C138.162 282.735 139.053 282.326 139.261 281.859C139.303 281.786 139.326 281.703 139.326 281.619C139.326 281.534 139.303 281.451 139.261 281.378C139.25 281.348 139.231 281.322 139.205 281.303C139.18 281.284 139.149 281.272 139.118 281.27L139.06 281.263Z" fill="#171717"/>
<path id="shoesColor_4" d="M136.464 283.416C136.44 283.41 136.419 283.398 136.401 283.382C136.384 283.366 136.371 283.345 136.363 283.322C136.363 283.251 135.846 281.707 136.306 280.83C136.369 280.704 136.458 280.592 136.566 280.502C136.675 280.412 136.802 280.345 136.938 280.306C137.318 280.191 137.505 280.306 137.584 280.471C137.95 281.06 137.139 282.798 136.6 283.344C136.586 283.368 136.566 283.387 136.542 283.4C136.518 283.412 136.491 283.418 136.464 283.416ZM137.182 280.543C137.127 280.535 137.071 280.535 137.017 280.543C136.915 280.57 136.821 280.618 136.74 280.685C136.66 280.752 136.595 280.836 136.55 280.931C136.341 281.583 136.341 282.283 136.55 282.935C137.06 282.216 137.555 280.938 137.34 280.586C137.315 280.559 137.282 280.54 137.245 280.533C137.209 280.527 137.171 280.533 137.139 280.55L137.182 280.543Z" fill="#171717"/>
<path id="t-shirt1Color" d="M97.9687 99.2773C98.6868 102.868 100.123 110.049 97.6455 112.462C97.6455 112.462 98.6222 116.053 105.258 116.053C112.547 116.053 108.741 112.462 108.741 112.462C104.762 111.514 104.863 108.556 105.559 105.784L97.9687 99.2773Z" fill="#F2A53D"/>
<path id="objectPrimary_6" d="M109.172 113.627C110.156 113.778 109.244 111.53 108.834 111.286C107.893 110.726 95.9077 109.605 96.0441 110.869C96.1244 111.611 96.4475 112.305 96.9633 112.844C97.502 113.239 100.554 112.241 109.172 113.627Z" fill="#241C4F"/>
<path id="hairColor" d="M112.461 91.6323C112.401 91.6342 112.342 91.6137 112.296 91.5748C112.265 91.5534 112.239 91.5261 112.22 91.4945C112.2 91.4629 112.186 91.4277 112.18 91.3909C112.174 91.3541 112.176 91.3165 112.185 91.2803C112.193 91.244 112.209 91.2099 112.231 91.1798C112.487 90.8074 112.829 90.5021 113.227 90.2896C113.626 90.0771 114.07 89.9637 114.522 89.959C114.559 89.9599 114.596 89.9683 114.63 89.9837C114.664 89.9991 114.695 90.0211 114.721 90.0486C114.746 90.076 114.766 90.1083 114.778 90.1435C114.791 90.1787 114.797 90.2161 114.795 90.2534C114.789 90.3277 114.756 90.3972 114.701 90.4478C114.647 90.4985 114.575 90.5265 114.5 90.5263C114.141 90.5344 113.79 90.6287 113.475 90.8011C113.16 90.9736 112.891 91.2192 112.691 91.5174C112.663 91.5522 112.628 91.5806 112.589 91.6005C112.549 91.6204 112.505 91.6312 112.461 91.6323Z" fill="#171717"/>
<path id="noseColor" d="M114.053 95.0566C114.441 96.1791 114.983 97.2425 115.662 98.2165C115.408 98.3842 115.12 98.4942 114.818 98.5389C114.517 98.5836 114.209 98.5617 113.917 98.475L114.053 95.0566Z" fill="#FEB084"/>
<path id="faceDetails" d="M113.65 94.2082C113.65 94.6894 113.873 95.0915 114.189 95.1059C114.505 95.1202 114.778 94.7396 114.799 94.2513C114.821 93.763 114.577 93.3608 114.261 93.3536C113.945 93.3464 113.672 93.7199 113.65 94.2082Z" fill="#171717"/>
<path id="faceDetails_2" d="M114.12 93.3765L115.298 93.082C115.298 93.082 114.666 93.9725 114.12 93.3765Z" fill="#171717"/>
<path id="skinTone_3" d="M130.073 285.678L135.933 284.328L133.19 270.662L127.33 272.019L130.073 285.678Z" fill="#FECCAF"/>
<path id="skinTone_4" d="M90.4505 285.721H96.4614L95.9946 271.789H89.9766L90.4505 285.721Z" fill="#FECCAF"/>
<path id="shoesColor_5" d="M96.9616 285.026H90.2039C90.0863 285.023 89.9719 285.064 89.883 285.141C89.7941 285.218 89.7369 285.325 89.7227 285.442L88.9543 290.785C88.9391 290.92 88.9527 291.057 88.9941 291.186C89.0356 291.316 89.1041 291.435 89.195 291.536C89.286 291.637 89.3973 291.718 89.5216 291.773C89.646 291.828 89.7806 291.856 89.9166 291.855C92.2721 291.812 93.4068 291.675 96.3799 291.675C98.2111 291.675 100.875 291.869 103.403 291.869C105.931 291.869 106.06 289.37 105.012 289.14C100.301 288.128 99.5541 286.735 97.967 285.399C97.6866 285.159 97.3303 285.027 96.9616 285.026Z" fill="#171717"/>
<path id="shoesColor_6" d="M135.815 282.785L129.575 285.378C129.467 285.42 129.378 285.5 129.325 285.603C129.272 285.706 129.259 285.825 129.287 285.938L130.623 291.173C130.662 291.303 130.728 291.423 130.816 291.526C130.904 291.629 131.013 291.712 131.136 291.771C131.258 291.829 131.392 291.861 131.527 291.864C131.663 291.868 131.798 291.843 131.923 291.791C134.077 290.85 135.083 290.29 137.826 289.148C139.514 288.43 143.083 287.173 145.417 286.203C147.751 285.234 146.911 282.878 145.855 283.072C141.115 283.941 138.86 283.367 136.885 282.742C136.535 282.63 136.156 282.645 135.815 282.785Z" fill="#171717"/>
<path id="shadowColor" opacity="0.2" d="M133.187 270.662L134.659 277.987L128.741 279.064L127.319 272.019L133.187 270.662Z" fill="#404040"/>
<path id="shadowColor_2" opacity="0.2" d="M89.9766 271.797H95.9946L96.2316 278.978H90.2136L89.9766 271.797Z" fill="#404040"/>
<path id="skinTone_5" d="M122.227 119.904C123.397 122.662 124.661 125.491 125.94 128.235C126.586 129.614 127.261 130.964 127.958 132.299C128.654 133.635 129.394 134.942 130.112 136.192C130.493 136.802 130.873 137.427 131.268 137.994L131.857 138.813C131.98 138.982 132.117 139.141 132.266 139.287C133.05 139.967 134.027 140.384 135.06 140.479C137.509 140.831 140.583 140.328 143.333 139.596L144.611 142.361C143.885 142.797 143.132 143.188 142.356 143.531C141.592 143.883 140.808 144.19 140.008 144.45C138.319 145.023 136.549 145.323 134.766 145.341C133.771 145.349 132.781 145.221 131.821 144.96C130.757 144.667 129.757 144.181 128.87 143.524C128.415 143.179 127.995 142.792 127.613 142.368C127.29 142.002 127.053 141.686 126.765 141.341C126.227 140.666 125.746 139.991 125.265 139.308C123.473 136.614 121.861 133.805 120.439 130.899C119.002 128.026 117.71 125.19 116.518 122.188L122.227 119.904Z" fill="#FECCAF"/>
<path id="t-shirt1Color_2" d="M118.91 114C121.897 114.718 125.581 122.941 125.581 122.941L118.464 132.054C118.464 132.054 111.111 121.656 112.095 118.481C113.114 115.171 115.283 113.117 118.91 114Z" fill="#F2A53D"/>
<path id="skinTone_6" d="M142.718 142.697L149.282 141.663L147.537 137.936C147.537 137.936 142.452 138.819 141.476 141.124L142.718 142.697Z" fill="#FECCAF"/>
<path id="skinTone_7" d="M149.277 138.763L148.559 137.176L147.539 137.937L149.277 141.664V138.763Z" fill="#FECCAF"/>
<path id="skinTone_8" d="M97.422 91.9046C97.5513 97.8724 97.4795 100.4 100.366 103.574C104.675 108.35 112.015 106.885 113.666 100.996C115.153 95.6964 114.686 86.8274 108.955 84.2277C107.694 83.647 106.304 83.399 104.92 83.5071C103.535 83.6153 102.201 84.0761 101.045 84.8457C99.8889 85.6153 98.949 86.668 98.3148 87.9036C97.6806 89.1392 97.3732 90.5166 97.422 91.9046Z" fill="#FECCAF"/>
<path id="hairColor_2" d="M92.6104 81.1221C98.7433 76.6768 105.594 79.1903 109.343 82.2639C113.264 85.4884 112.639 91.6716 110.241 94.2282C110.49 94.6061 110.655 95.0332 110.724 95.4806C110.794 95.9279 110.766 96.385 110.643 96.8207C110.946 98.7339 110.525 100.691 109.463 102.311C108.401 103.931 106.773 105.097 104.898 105.582L104.56 105.668C96.8977 107.485 88.043 102.3 86.7073 94.5513C85.8958 89.8188 87.1884 85.0431 92.6104 81.1221Z" fill="#171717"/>
<path id="pantsPrimary" d="M109.581 150.31C109.581 150.31 106.09 191.596 102.471 214.864C99.5481 233.658 97.2357 277.586 97.2357 277.586H89.0632C89.0632 277.586 85.1565 235.166 86.6431 216.544C90.399 169.506 83.7705 161.183 91.6342 150.281L109.581 150.31Z" fill="#595959"/>
<path id="shadowColor_3" d="M101.275 169.615C100.593 181.953 103.566 191.267 104.923 196.718C105.886 188.66 106.769 180.251 107.509 172.832C104.974 164.43 101.771 160.33 101.275 169.615Z" fill="#404040"/>
<path id="pantsPrimary_2" d="M116.039 150.31C116.039 150.31 122.818 196.63 125.202 214.821C127.68 233.744 134.919 276.171 134.919 276.171L126.875 277.4C126.875 277.4 114.2 236.939 110.609 218.526C106.746 198.418 99.1191 150.303 99.1191 150.303L116.039 150.31Z" fill="#595959"/>
<path id="pantsSecondary" d="M136.104 276.209L125.806 277.961L124.636 274.069L135.659 272.188L136.104 276.209Z" fill="#404040"/>
<path id="pantsSecondary_2" d="M98.3642 277.75H87.9153L87.3623 274.08L98.4217 273.707L98.3642 277.75Z" fill="#404040"/>
<path id="t-shirt1Color_3" d="M82.1045 123.366L88.1441 128.177L91.7707 131.05C91.7707 131.05 92.1513 130.037 92.6109 128.587C93.487 125.786 94.6289 121.348 93.8389 119.308C92.5965 116.077 90.2482 113.161 87.2751 113.807C84.7544 114.375 82.1045 123.366 82.1045 123.366Z" fill="#F2A53D"/>
<path id="shadowColor_4" opacity="0.31" d="M88.1426 128.175L91.7692 131.048C91.7692 131.048 92.1498 130.035 92.6094 128.584L90.455 117.92L88.1426 128.175Z" fill="#404040"/>
<path id="t-shirt1Color_4" d="M118.909 114.002C118.909 114.002 121.781 115.015 116.036 150.311H91.6194C92.0287 140.365 92.0431 134.239 87.3105 113.83C90.7296 113.124 94.1954 112.668 97.6805 112.465C101.374 112.199 105.082 112.199 108.776 112.465C113.48 112.896 118.909 114.002 118.909 114.002Z" fill="#F2A53D"/>
<path id="beltPrimary" d="M91.2195 148.874L90.1207 151.065C90.0346 151.23 90.2356 151.409 90.5157 151.409H116.139C116.354 151.409 116.541 151.294 116.556 151.158L116.771 149.004C116.771 148.853 116.599 148.723 116.354 148.723H91.636C91.5595 148.71 91.4807 148.717 91.4077 148.743C91.3346 148.77 91.2697 148.815 91.2195 148.874Z" fill="#171717"/>
<path id="beltSecondary" d="M94.5608 151.623H93.8929C93.7636 151.623 93.6631 151.558 93.6703 151.472L93.9863 148.635C93.9863 148.549 94.1084 148.484 94.2376 148.484H94.9055C95.0348 148.484 95.1353 148.549 95.1281 148.635L94.8121 151.472C94.8049 151.572 94.69 151.623 94.5608 151.623Z" fill="#404040"/>
<path id="beltSecondary_2" d="M110.61 151.623H109.95C109.813 151.623 109.713 151.558 109.727 151.472L110.036 148.635C110.036 148.549 110.158 148.484 110.294 148.484H110.955C111.084 148.484 111.185 148.549 111.178 148.635L110.869 151.472C110.869 151.572 110.754 151.623 110.61 151.623Z" fill="#404040"/>
<path id="hairColor_3" d="M96.0293 82.1142C97.9036 80.046 104.274 76.8789 109.739 79.3637C111.297 80.0738 112.618 81.2183 113.543 82.6602C114.468 84.1021 114.957 85.7801 114.952 87.4931L110.026 90.7894L96.0293 82.1142Z" fill="#171717"/>
<path id="hairColor_4" d="M111.284 109.172C111.246 105.235 107.674 103.859 107.674 103.859C107.674 103.859 112.142 95.4159 109.846 89.8214C107.549 84.2269 99.981 83.2304 97.5813 85.8516C93.3628 85.6675 92.0218 91.7169 92.0218 91.7169C92.0218 91.7169 88.4929 92.3019 87.5428 94.8635C86.5927 97.4252 89.4864 100.317 89.4864 100.317C89.4864 100.317 85.458 100.859 83.9758 103.946C82.4937 107.033 83.4058 111.149 87.8577 114.691C94.3292 119.836 106.225 113.38 106.225 113.38C106.225 113.38 111.328 113.694 111.284 109.172Z" fill="#171717"/>
<path id="skinTone_9" d="M108.869 94.669C108.969 95.7936 109.45 96.8503 110.234 97.6636C111.296 98.7624 112.388 98.1232 112.582 96.8234C112.747 95.6528 112.395 93.6707 111.103 93.046C109.81 92.4212 108.776 93.3404 108.869 94.669Z" fill="#FECCAF"/>
</g>
</g>
</svg>
