<svg width="21" height="29" viewBox="0 0 21 29" fill="none" xmlns="http://www.w3.org/2000/svg">
    <path d="M8.2396 6.74984C8.41785 6.74984 8.56252 6.60453 8.56252 6.42692V4.48942C8.56252 4.31182 8.41785 4.1665 8.2396 4.1665C8.06135 4.1665 7.91669 4.31182 7.91669 4.48942V6.42692C7.91669 6.60453 8.06135 6.74984 8.2396 6.74984Z"/>
    <path d="M12.4375 5.56299L12.2573 6.1042H12.6177L12.4375 5.56299Z"/>
    <path d="M16.3126 24.1875V28.3299L20.4549 24.1875H16.3126Z"/>
    <path d="M20.1875 0.291504H0.81252C0.45602 0.291504 0.166687 0.580192 0.166687 0.937338V28.0623C0.166687 28.4195 0.45602 28.7082 0.81252 28.7082H15.0208V23.5415C15.0208 23.1844 15.3102 22.8957 15.6667 22.8957H20.8333V0.937338C20.8333 0.580192 20.544 0.291504 20.1875 0.291504ZM10.533 7.19159L11.8246 3.31659C11.9131 3.05244 12.1592 2.87484 12.4375 2.87484C12.7159 2.87484 12.9626 3.05244 13.0504 3.31659L14.3421 7.19159C14.4551 7.53001 14.2723 7.89619 13.9339 8.00857C13.8654 8.03053 13.7963 8.04151 13.7292 8.04151C13.4586 8.04151 13.2067 7.87036 13.1163 7.59976L13.0485 7.39567H11.8266L11.7587 7.59976C11.6457 7.93753 11.2808 8.12224 10.9418 8.00792C10.6033 7.89555 10.4199 7.53001 10.533 7.19159ZM6.62502 4.48942C6.62502 3.59882 7.34964 2.87484 8.2396 2.87484C9.12956 2.87484 9.85418 3.59882 9.85418 4.48942V6.42692C9.85418 7.31753 9.12956 8.04151 8.2396 8.04151C7.34964 8.04151 6.62502 7.31753 6.62502 6.42692V4.48942ZM2.75002 7.39567V3.52067C2.75002 3.16353 3.03935 2.87484 3.39585 2.87484C3.75235 2.87484 4.04168 3.16353 4.04168 3.52067V6.74984H5.33335C5.68985 6.74984 5.97918 7.03853 5.97918 7.39567C5.97918 7.75282 5.68985 8.04151 5.33335 8.04151H3.39585C3.03935 8.04151 2.75002 7.75282 2.75002 7.39567ZM7.27085 24.8332H4.04168C3.68518 24.8332 3.39585 24.5445 3.39585 24.1873C3.39585 23.8302 3.68518 23.5415 4.04168 23.5415H7.27085C7.62735 23.5415 7.91668 23.8302 7.91668 24.1873C7.91668 24.5445 7.62735 24.8332 7.27085 24.8332ZM13.0833 19.6665H4.04168C3.68518 19.6665 3.39585 19.3778 3.39585 19.0207C3.39585 18.6635 3.68518 18.3748 4.04168 18.3748H13.0833C13.4398 18.3748 13.7292 18.6635 13.7292 19.0207C13.7292 19.3778 13.4398 19.6665 13.0833 19.6665ZM16.9583 17.0832H4.04168C3.68518 17.0832 3.39585 16.7945 3.39585 16.4373C3.39585 16.0802 3.68518 15.7915 4.04168 15.7915H16.9583C17.3148 15.7915 17.6042 16.0802 17.6042 16.4373C17.6042 16.7945 17.3148 17.0832 16.9583 17.0832ZM16.9583 14.4998H4.04168C3.68518 14.4998 3.39585 14.2112 3.39585 13.854C3.39585 13.4969 3.68518 13.2082 4.04168 13.2082H16.9583C17.3148 13.2082 17.6042 13.4969 17.6042 13.854C17.6042 14.2112 17.3148 14.4998 16.9583 14.4998ZM16.9583 11.9165H4.04168C3.68518 11.9165 3.39585 11.6278 3.39585 11.2707C3.39585 10.9135 3.68518 10.6248 4.04168 10.6248H16.9583C17.3148 10.6248 17.6042 10.9135 17.6042 11.2707C17.6042 11.6278 17.3148 11.9165 16.9583 11.9165ZM18.25 7.39567C18.25 7.69534 18.044 7.95497 17.7527 8.02472C17.703 8.03569 17.6533 8.04151 17.6042 8.04151C17.3633 8.04151 17.1379 7.90717 17.0262 7.68436L16.3125 6.25642V7.39567C16.3125 7.75282 16.0232 8.04151 15.6667 8.04151C15.3102 8.04151 15.0208 7.75282 15.0208 7.39567V3.52067C15.0208 3.22101 15.2269 2.96138 15.5181 2.89163C15.8113 2.82511 16.1104 2.96332 16.2447 3.23134L16.9583 4.65992V3.52067C16.9583 3.16353 17.2477 2.87484 17.6042 2.87484C17.9607 2.87484 18.25 3.16353 18.25 3.52067V7.39567Z"/>
    </svg>
    