<svg width="31" height="31" viewBox="0 0 31 31" fill="none" xmlns="http://www.w3.org/2000/svg">
    <path d="M28.7179 12.6215L25.182 9.59412V3.91724C25.1816 3.7889 25.1305 3.66592 25.0397 3.57516C24.9489 3.48441 24.826 3.43325 24.6976 3.43287H21.0842C20.9558 3.43324 20.8328 3.48439 20.7421 3.57515C20.6513 3.66591 20.6002 3.78889 20.5998 3.91724V5.66584L17.1075 2.6724C16.6609 2.28579 16.09 2.073 15.4993 2.073C14.9087 2.073 14.3378 2.28579 13.8912 2.6724L2.28074 12.6215C2.13146 12.7536 2.0256 12.9277 1.97705 13.1211C1.92849 13.3144 1.93951 13.5179 2.00864 13.7049C2.07778 13.8919 2.20181 14.0536 2.36447 14.1688C2.52713 14.284 2.72082 14.3474 2.92014 14.3507H5.81669V23.5151C5.81717 24.6189 6.25554 25.6774 7.0356 26.4583C7.81565 27.2393 8.87367 27.6789 9.97747 27.6807H16.7229C10 21 17.9123 12.0566 25.1821 16.482L25.182 14.3507H28.0786C28.2779 14.3475 28.4716 14.2841 28.6343 14.1689C28.797 14.0536 28.921 13.8919 28.9901 13.7049C29.0593 13.5179 29.0703 13.3144 29.0217 13.1211C28.9731 12.9277 28.8672 12.7536 28.7179 12.6215Z"/>
    <path fill-rule="evenodd" clip-rule="evenodd" d="M21.298 16C20.2749 15.9973 19.2668 16.2468 18.3632 16.7266C17.8537 16.9079 16.8653 17.848 16.4349 18.2955C15.5257 19.4001 15.0199 20.7814 15.0006 22.2119C14.9813 23.6424 15.4496 25.0368 16.3286 26.1656C17.2075 27.2943 18.4446 28.0902 19.8362 28.422C21.2278 28.7539 22.691 28.602 23.9847 27.9913C25.2785 27.3806 26.3257 26.3476 26.954 25.0624C27.5823 23.7771 27.7542 22.3162 27.4414 20.9202C27.1286 19.5242 26.3498 18.2763 25.2332 17.382C24.1165 16.4877 22.7286 16.0003 21.298 16ZM21.8362 17.6164C21.6769 17.51 21.4896 17.4531 21.298 17.4531C21.0411 17.4531 20.7947 17.5552 20.613 17.7369C20.4313 17.9186 20.3292 18.165 20.3292 18.4219C20.3292 18.6135 20.3861 18.8008 20.4925 18.9601C20.5989 19.1194 20.7502 19.2436 20.9273 19.3169C21.1043 19.3902 21.2991 19.4094 21.487 19.372C21.6749 19.3347 21.8475 19.2424 21.983 19.1069C22.1185 18.9714 22.2107 18.7988 22.2481 18.6109C22.2855 18.423 22.2663 18.2282 22.193 18.0512C22.1197 17.8742 21.9955 17.7229 21.8362 17.6164ZM18.8761 26.6563H23.7199V24.7188H22.2667V20.8438H18.8761V22.7813H20.3292V24.7188H18.8761V26.6563Z"/>
    </svg>
    