<svg width="350" height="350" viewBox="0 0 350 350" fill="none" xmlns="http://www.w3.org/2000/svg">
<g id="name=l&#38;p-4">
<g id="Frame 148713">
<path id="backgroundExtraLight" d="M116.927 272.209H100.314V272.388H116.927V272.209Z" fill="#F4F3F2"/>
<path id="backgroundExtraLight_2" d="M73.9871 162.971L264.281 162.971V59.6032L73.9871 59.6032V162.971Z" fill="#F4F3F2"/>
<path id="backgroundExtraLight_3" d="M71.824 162.973L262.118 162.973V59.6052L71.824 59.6052V162.973Z" fill="#F4F3F2"/>
<path id="backgroundWhite" d="M258.247 158.615V63.9629L75.7146 63.9629V158.615H258.247Z" fill="#FDFDFD"/>
<path id="backgroundExtraLight_4" d="M77.3408 158.619V63.9668H75.7068V158.619H77.3408Z" fill="#F4F3F2"/>
<path id="backgroundExtraLight_5" d="M73.7574 142.33L260.841 142.33V136.482L73.7574 136.482V142.33Z" fill="#F4F3F2"/>
<path id="backgroundExtraLight_6" d="M73.4341 92.3477L260.518 92.3477V86.4995L73.4341 86.4995V92.3477Z" fill="#F4F3F2"/>
<path id="backgroundExtraLight_7" d="M67.6049 52.3926H268.513C268.671 52.3926 268.822 52.4552 268.934 52.5668C269.045 52.6784 269.108 52.8297 269.108 52.9874C269.108 53.1459 269.046 53.2979 268.934 53.4106C268.823 53.5233 268.672 53.5876 268.513 53.5894H67.6049C67.4459 53.5876 67.2938 53.5236 67.1813 53.4111C67.0688 53.2986 67.0048 53.1465 67.0029 52.9874C67.0048 52.829 67.0691 52.6777 67.1818 52.5664C67.2945 52.455 67.4465 52.3926 67.6049 52.3926Z" fill="#F4F3F2"/>
<path id="backgroundExtraLight_8" d="M64.0166 53.0263C64.0152 53.618 64.1894 54.1968 64.5173 54.6894C64.8451 55.182 65.3118 55.5661 65.8582 55.7932C66.4046 56.0203 67.0061 56.0801 67.5865 55.965C68.1669 55.8499 68.7 55.5651 69.1184 55.1467C69.5368 54.7283 69.8216 54.1952 69.9367 53.6148C70.0518 53.0344 69.992 52.4329 69.7649 51.8865C69.5378 51.3401 69.1536 50.8735 68.6611 50.5456C68.1685 50.2178 67.5897 50.0435 66.998 50.0449C66.2073 50.0449 65.449 50.359 64.8898 50.9182C64.3307 51.4773 64.0166 52.2356 64.0166 53.0263Z" fill="#F4F3F2"/>
<path id="backgroundExtraLight_9" d="M263.484 56.3345C263.696 56.3327 263.899 56.2475 264.049 56.0974C264.199 55.9472 264.284 55.7441 264.286 55.5318V53.7975C264.277 53.5902 264.189 53.3943 264.039 53.2503C263.89 53.1063 263.691 53.0251 263.484 53.0234C263.269 53.0253 263.065 53.1112 262.913 53.2627C262.762 53.4142 262.676 53.6191 262.674 53.8333V55.5318C262.676 55.7454 262.762 55.9495 262.914 56.0999C263.065 56.2502 263.27 56.3345 263.484 56.3345Z" fill="#F4F3F2"/>
<path id="backgroundExtraLight_10" d="M76.6367 56.3345C76.8502 56.3345 77.0551 56.2502 77.2068 56.0999C77.3585 55.9495 77.4446 55.7454 77.4465 55.5318V53.7975C77.4356 53.5895 77.3457 53.3936 77.1951 53.2498C77.0446 53.1059 76.8449 53.025 76.6367 53.0234C76.4231 53.0253 76.219 53.1115 76.0686 53.2632C75.9183 53.4148 75.834 53.6197 75.834 53.8333V55.5318C75.8359 55.7441 75.921 55.9472 76.0712 56.0974C76.2213 56.2475 76.4244 56.3327 76.6367 56.3345Z" fill="#F4F3F2"/>
<path id="backgroundExtraLight_11" opacity="0.5" d="M67.7938 74.6973L260.518 74.6973V52.996L67.7938 52.996V74.6973Z" fill="#F4F3F2"/>
<path id="backgroundExtraLight_12" d="M253.865 55.9772C255.515 55.9772 256.853 54.6391 256.853 52.9886C256.853 51.338 255.515 50 253.865 50C252.214 50 250.876 51.338 250.876 52.9886C250.876 54.6391 252.214 55.9772 253.865 55.9772Z" fill="#F4F3F2"/>
<path id="backgroundExtraLight_13" d="M204.853 267.633H217.08V185.902H204.853V267.633Z" fill="#F4F3F2"/>
<path id="backgroundExtraLight_14" d="M208.065 267.634H204.847V256.504H211.433L208.065 267.634Z" fill="#F4F3F2"/>
<path id="backgroundExtraLight_15" d="M304.142 267.633H316.369V185.902H304.142V267.633Z" fill="#F4F3F2"/>
<path id="backgroundExtraLight_16" d="M204.843 260.809H306.935V185.908H204.843V260.809Z" fill="#F4F3F2"/>
<path id="backgroundExtraLight_17" d="M207.34 209.762H304.443V189.222H207.34V209.762Z" fill="#F4F3F2"/>
<path id="backgroundExtraLight_18" d="M226.605 195.605H283.043C286.175 195.605 289.178 193.068 291.336 188.596H218.312C220.47 193.068 223.465 195.605 226.605 195.605Z" fill="#F4F3F2"/>
<path id="backgroundExtraLight_19" d="M303.721 267.634H306.932V256.504H300.346L303.721 267.634Z" fill="#F4F3F2"/>
<path id="backgroundExtraLight_20" d="M207.34 233.623H304.443V213.083H207.34V233.623Z" fill="#F4F3F2"/>
<path id="backgroundExtraLight_21" d="M226.605 219.461H283.043C286.175 219.461 289.178 216.931 291.336 212.459H218.312C220.47 216.931 223.465 219.461 226.605 219.461Z" fill="#F4F3F2"/>
<path id="backgroundExtraLight_22" d="M207.34 257.48H304.443V236.94H207.34V257.48Z" fill="#F4F3F2"/>
<path id="backgroundExtraLight_23" d="M226.605 243.326H283.043C286.175 243.326 289.178 240.789 291.336 236.316H218.312C220.47 240.796 223.465 243.326 226.605 243.326Z" fill="#F4F3F2"/>
<path id="backgroundExtraLight_24" d="M278.901 144.919C276.966 138.411 301.068 105.816 311.646 106.791C322.225 107.766 303.627 147.305 297.915 150.803C291.472 154.744 281.008 152.014 278.901 144.919Z" fill="#F4F3F2"/>
<path id="backgroundExtraLight_25" d="M277.522 154.318C276.591 150.993 293.44 145.582 300.134 149.502C306.828 153.422 293.161 163.52 289.384 163.062C285.076 162.546 278.54 157.937 277.522 154.318Z" fill="#F4F3F2"/>
<path id="backgroundExtraLight_26" d="M297.988 151.33C300.317 146.965 283.159 121.422 274.015 120.957C264.87 120.491 276.616 150.341 281.124 153.394C286.22 156.87 295.443 156.088 297.988 151.33Z" fill="#F4F3F2"/>
<path id="backgroundExtraLight_27" d="M289.197 137.744H289.162C288.728 137.737 288.306 137.887 287.975 138.166C287.643 138.446 287.423 138.835 287.356 139.264C285.369 152.739 285.128 166.413 286.639 179.95C286.691 180.38 286.896 180.778 287.217 181.069C287.539 181.36 287.954 181.525 288.388 181.534H288.423C288.677 181.536 288.927 181.485 289.159 181.384C289.391 181.282 289.599 181.133 289.769 180.945C289.939 180.758 290.067 180.536 290.145 180.296C290.223 180.055 290.25 179.8 290.222 179.549C288.787 166.317 289.028 152.958 290.939 139.787C290.976 139.535 290.958 139.279 290.888 139.035C290.818 138.791 290.696 138.564 290.531 138.371C290.366 138.178 290.162 138.022 289.932 137.914C289.702 137.805 289.452 137.748 289.197 137.744Z" fill="#F4F3F2"/>
<path id="backgroundExtraLight_28" d="M287.881 185.898C294.216 185.898 299.556 182.164 300.853 177.118C301.171 175.769 301.624 174.456 302.207 173.198L302.308 172.99H273.454L273.554 173.198C274.137 174.456 274.591 175.769 274.909 177.118C276.206 182.164 281.553 185.898 287.881 185.898Z" fill="#F4F3F2"/>
<path id="backgroundExtraLight_29" d="M273.404 174.259H302.401C303.211 174.259 303.913 173.464 304.114 172.331C304.401 170.711 303.555 169.135 302.401 169.135H273.404C272.25 169.135 271.405 170.711 271.698 172.331C271.899 173.464 272.601 174.259 273.404 174.259Z" fill="#F4F3F2"/>
<path id="backgroundExtraLight_30" d="M184.078 216.148H148.38V267.635H184.078V216.148Z" fill="#F4F3F2"/>
<path id="backgroundExtraLight_31" d="M42.216 267.629H148.386V216.142H42.216V267.629Z" fill="#F4F3F2"/>
<path id="backgroundExtraLight_32" d="M51.5398 256.242H73.9863V233.387H51.5398V256.242Z" fill="#F4F3F2"/>
<path id="backgroundExtraLight_33" d="M82.0134 256.242H104.46V233.387H82.0134V256.242Z" fill="#F4F3F2"/>
<g id="backgroundExtraLight_34" style="mix-blend-mode:multiply" opacity="0.7">
<path d="M184.079 221.627H41.8389V224.558H184.079V221.627Z" fill="#F4F3F2"/>
</g>
<path id="backgroundExtraLight_35" d="M186.049 214.371H148.38V222.864H186.049V214.371Z" fill="#F4F3F2"/>
<path id="backgroundExtraLight_36" d="M40.2451 222.857H148.386V214.365H40.2451V222.857Z" fill="#F4F3F2"/>
<path id="backgroundExtraLight_37" d="M70.832 199.947C70.832 199.947 71.5129 214.403 97.5644 214.403C123.616 214.403 124.297 199.947 124.297 199.947H70.832Z" fill="#F4F3F2"/>
<path id="backgroundExtraLight_38" d="M70.832 190.34C70.832 190.34 71.5129 204.795 97.5644 204.795C123.616 204.795 124.297 190.34 124.297 190.34H70.832Z" fill="#F4F3F2"/>
<path id="backgroundExtraLight_39" d="M171.958 299.999C248.702 299.999 310.916 296.367 310.916 291.886C310.916 287.406 248.702 283.773 171.958 283.773C95.2136 283.773 33 287.406 33 291.886C33 296.367 95.2136 299.999 171.958 299.999Z" fill="#F4F3F2"/>
<path id="objectPrimary" d="M129.921 276.281H59.5498V289.526H129.921V276.281Z" fill="#241C4F"/>
<path id="objectTertiary" opacity="0.2" d="M129.921 276.281H59.5498V277.786H129.921V276.281Z" fill="#404040"/>
<path id="objectTertiary_2" opacity="0.2" d="M67.465 276.281H64.6914V289.526H67.465V276.281Z" fill="#404040"/>
<path id="objectTertiary_3" opacity="0.2" d="M73.8409 276.281H71.0674V289.526H73.8409V276.281Z" fill="#404040"/>
<path id="objectTertiary_4" opacity="0.2" d="M80.2081 276.281H77.4346V289.526H80.2081V276.281Z" fill="#404040"/>
<path id="objectTertiary_5" opacity="0.2" d="M86.5763 276.281H83.8027V289.526H86.5763V276.281Z" fill="#404040"/>
<path id="objectTertiary_6" opacity="0.2" d="M92.9308 276.281H90.1572V289.526H92.9308V276.281Z" fill="#404040"/>
<path id="objectTertiary_7" opacity="0.2" d="M99.3048 276.281H96.5312V289.526H99.3048V276.281Z" fill="#404040"/>
<path id="objectTertiary_8" opacity="0.2" d="M105.674 276.281H102.9V289.526H105.674V276.281Z" fill="#404040"/>
<path id="objectTertiary_9" opacity="0.2" d="M112.035 276.281H109.262V289.526H112.035V276.281Z" fill="#404040"/>
<path id="objectTertiary_10" opacity="0.2" d="M118.402 276.281H115.629V289.526H118.402V276.281Z" fill="#404040"/>
<path id="objectTertiary_11" opacity="0.2" d="M124.771 276.281H121.997V289.526H124.771V276.281Z" fill="#404040"/>
<path id="objectPrimary_2" d="M127.055 263.035H56.6836V276.28H127.055V263.035Z" fill="#241C4F"/>
<path id="objectTertiary_12" opacity="0.2" d="M127.055 263.035H56.6836V264.54H127.055V263.035Z" fill="#404040"/>
<path id="objectTertiary_13" opacity="0.2" d="M64.6066 263.035H61.833V276.28H64.6066V263.035Z" fill="#404040"/>
<path id="objectTertiary_14" opacity="0.2" d="M70.9738 263.035H68.2002V276.28H70.9738V263.035Z" fill="#404040"/>
<path id="objectTertiary_15" opacity="0.2" d="M77.3429 263.035H74.5693V276.28H77.3429V263.035Z" fill="#404040"/>
<path id="objectTertiary_16" opacity="0.2" d="M83.7042 263.035H80.9307V276.28H83.7042V263.035Z" fill="#404040"/>
<path id="objectTertiary_17" opacity="0.2" d="M90.0783 263.035H87.3047V276.28H90.0783V263.035Z" fill="#404040"/>
<path id="objectTertiary_18" opacity="0.2" d="M96.4396 263.035H93.666V276.28H96.4396V263.035Z" fill="#404040"/>
<path id="objectTertiary_19" opacity="0.2" d="M102.807 263.035H100.033V276.28H102.807V263.035Z" fill="#404040"/>
<path id="objectTertiary_20" opacity="0.2" d="M109.176 263.035H106.402V276.28H109.176V263.035Z" fill="#404040"/>
<path id="objectTertiary_21" opacity="0.2" d="M115.537 263.035H112.764V276.28H115.537V263.035Z" fill="#404040"/>
<path id="objectTertiary_22" opacity="0.2" d="M121.904 263.035H119.131V276.28H121.904V263.035Z" fill="#404040"/>
<path id="objectPrimary_3" d="M125.027 249.789H54.6553V263.033H125.027V249.789Z" fill="#241C4F"/>
<path id="objectTertiary_23" opacity="0.2" d="M125.027 249.789H54.6553V251.294H125.027V249.789Z" fill="#404040"/>
<path id="objectTertiary_24" opacity="0.2" d="M62.5841 249.789H59.8105V263.033H62.5841V249.789Z" fill="#404040"/>
<path id="objectTertiary_25" opacity="0.2" d="M68.9454 249.789H66.1719V263.033H68.9454V249.789Z" fill="#404040"/>
<path id="objectTertiary_26" opacity="0.2" d="M75.3204 249.789H72.5469V263.033H75.3204V249.789Z" fill="#404040"/>
<path id="objectTertiary_27" opacity="0.2" d="M81.6818 249.789H78.9082V263.033H81.6818V249.789Z" fill="#404040"/>
<path id="objectTertiary_28" opacity="0.2" d="M88.0499 249.789H85.2764V263.033H88.0499V249.789Z" fill="#404040"/>
<path id="objectTertiary_29" opacity="0.2" d="M94.4171 249.789H91.6436V263.033H94.4171V249.789Z" fill="#404040"/>
<path id="objectTertiary_30" opacity="0.2" d="M100.785 249.789H98.0117V263.033H100.785V249.789Z" fill="#404040"/>
<path id="objectTertiary_31" opacity="0.2" d="M107.147 249.789H104.373V263.033H107.147V249.789Z" fill="#404040"/>
<path id="objectTertiary_32" opacity="0.2" d="M113.515 249.789H110.741V263.033H113.515V249.789Z" fill="#404040"/>
<path id="objectTertiary_33" opacity="0.2" d="M119.882 249.789H117.108V263.033H119.882V249.789Z" fill="#404040"/>
<path id="objectPrimary_4" d="M128.22 236.547H57.8486V249.791H128.22V236.547Z" fill="#241C4F"/>
<path id="objectTertiary_34" opacity="0.2" d="M128.22 236.547H57.8486V238.052H128.22V236.547Z" fill="#404040"/>
<path id="objectTertiary_35" opacity="0.2" d="M65.7716 236.547H62.998V249.791H65.7716V236.547Z" fill="#404040"/>
<path id="objectTertiary_36" opacity="0.2" d="M72.1388 236.547H69.3652V249.791H72.1388V236.547Z" fill="#404040"/>
<path id="objectTertiary_37" opacity="0.2" d="M78.5011 236.547H75.7275V249.791H78.5011V236.547Z" fill="#404040"/>
<path id="objectTertiary_38" opacity="0.2" d="M84.8693 236.547H82.0957V249.791H84.8693V236.547Z" fill="#404040"/>
<path id="objectTertiary_39" opacity="0.2" d="M91.2433 236.547H88.4697V249.791H91.2433V236.547Z" fill="#404040"/>
<path id="objectTertiary_40" opacity="0.2" d="M97.6046 236.547H94.8311V249.791H97.6046V236.547Z" fill="#404040"/>
<path id="objectTertiary_41" opacity="0.2" d="M103.966 236.547H101.192V249.791H103.966V236.547Z" fill="#404040"/>
<path id="objectTertiary_42" opacity="0.2" d="M110.334 236.547H107.561V249.791H110.334V236.547Z" fill="#404040"/>
<path id="objectTertiary_43" opacity="0.2" d="M116.702 236.547H113.929V249.791H116.702V236.547Z" fill="#404040"/>
<path id="objectTertiary_44" opacity="0.2" d="M123.063 236.547H120.289V249.791H123.063V236.547Z" fill="#404040"/>
<path id="objectPrimary_5" d="M54.7586 236.555H125.13V223.31H54.7586V236.555Z" fill="#241C4F"/>
<path id="objectTertiary_45" opacity="0.2" d="M54.7586 224.812H125.13V223.307H54.7586V224.812Z" fill="#404040"/>
<path id="objectTertiary_46" opacity="0.2" d="M117.201 236.555H119.975V223.31H117.201V236.555Z" fill="#404040"/>
<path id="objectTertiary_47" opacity="0.2" d="M110.827 236.555H113.601V223.31H110.827V236.555Z" fill="#404040"/>
<path id="objectTertiary_48" opacity="0.2" d="M104.473 236.555H107.246V223.31H104.473V236.555Z" fill="#404040"/>
<path id="objectTertiary_49" opacity="0.2" d="M98.1102 236.555H100.884V223.31H98.1102V236.555Z" fill="#404040"/>
<path id="objectTertiary_50" opacity="0.2" d="M91.7362 236.553H94.5098V223.308H91.7362V236.553Z" fill="#404040"/>
<path id="objectTertiary_51" opacity="0.2" d="M85.3612 236.555H88.1348V223.31H85.3612V236.555Z" fill="#404040"/>
<path id="objectTertiary_52" opacity="0.2" d="M79.0067 236.555H81.7803V223.31H79.0067V236.555Z" fill="#404040"/>
<path id="objectTertiary_53" opacity="0.2" d="M72.6327 236.555H75.4062V223.31H72.6327V236.555Z" fill="#404040"/>
<path id="objectTertiary_54" opacity="0.2" d="M66.2713 236.553H69.0449V223.308H66.2713V236.553Z" fill="#404040"/>
<path id="objectTertiary_55" opacity="0.2" d="M59.8964 236.555H62.6699V223.31H59.8964V236.555Z" fill="#404040"/>
<path id="objectPrimary_6" d="M57.6189 223.303H127.99V210.058H57.6189V223.303Z" fill="#241C4F"/>
<path id="objectTertiary_56" opacity="0.2" d="M57.6189 211.561H127.99V210.056H57.6189V211.561Z" fill="#404040"/>
<path id="objectTertiary_57" opacity="0.2" d="M120.066 223.303H122.84V210.058H120.066V223.303Z" fill="#404040"/>
<path id="objectTertiary_58" opacity="0.2" d="M113.706 223.303H116.479V210.058H113.706V223.303Z" fill="#404040"/>
<path id="objectTertiary_59" opacity="0.2" d="M107.338 223.303H110.111V210.058H107.338V223.303Z" fill="#404040"/>
<path id="objectTertiary_60" opacity="0.2" d="M100.964 223.303H103.737V210.058H100.964V223.303Z" fill="#404040"/>
<path id="objectTertiary_61" opacity="0.2" d="M94.6083 223.303H97.3818V210.058H94.6083V223.303Z" fill="#404040"/>
<path id="objectTertiary_62" opacity="0.2" d="M88.2342 223.303H91.0078V210.058H88.2342V223.303Z" fill="#404040"/>
<path id="objectTertiary_63" opacity="0.2" d="M81.8592 223.303H84.6328V210.058H81.8592V223.303Z" fill="#404040"/>
<path id="objectTertiary_64" opacity="0.2" d="M75.5048 223.303H78.2783V210.058H75.5048V223.303Z" fill="#404040"/>
<path id="objectTertiary_65" opacity="0.2" d="M69.1376 223.303H71.9111V210.058H69.1376V223.303Z" fill="#404040"/>
<path id="objectTertiary_66" opacity="0.2" d="M62.7626 223.303H65.5361V210.058H62.7626V223.303Z" fill="#404040"/>
<path id="objectPrimary_7" d="M59.6414 210.059H130.013V196.814H59.6414V210.059Z" fill="#241C4F"/>
<path id="objectTertiary_67" opacity="0.2" d="M59.6414 198.316H130.013V196.811H59.6414V198.316Z" fill="#404040"/>
<path id="objectTertiary_68" opacity="0.2" d="M122.089 210.059H124.862V196.814H122.089V210.059Z" fill="#404040"/>
<path id="objectTertiary_69" opacity="0.2" d="M115.722 210.059H118.495V196.814H115.722V210.059Z" fill="#404040"/>
<path id="objectTertiary_70" opacity="0.2" d="M109.353 210.059H112.127V196.814H109.353V210.059Z" fill="#404040"/>
<path id="objectTertiary_71" opacity="0.2" d="M102.992 210.059H105.766V196.814H102.992V210.059Z" fill="#404040"/>
<path id="objectTertiary_72" opacity="0.2" d="M96.618 210.059H99.3916V196.814H96.618V210.059Z" fill="#404040"/>
<path id="objectTertiary_73" opacity="0.2" d="M90.2557 210.059H93.0293V196.814H90.2557V210.059Z" fill="#404040"/>
<path id="objectTertiary_74" opacity="0.2" d="M83.8885 210.059H86.6621V196.814H83.8885V210.059Z" fill="#404040"/>
<path id="objectTertiary_75" opacity="0.2" d="M77.5204 210.059H80.2939V196.814H77.5204V210.059Z" fill="#404040"/>
<path id="objectTertiary_76" opacity="0.2" d="M71.1532 210.059H73.9268V196.814H71.1532V210.059Z" fill="#404040"/>
<path id="objectTertiary_77" opacity="0.2" d="M64.7919 210.059H67.5654V196.814H64.7919V210.059Z" fill="#404040"/>
<path id="objectPrimary_8" d="M56.4539 196.82H126.825V183.576H56.4539V196.82Z" fill="#241C4F"/>
<path id="objectTertiary_78" opacity="0.2" d="M56.4539 185.08H126.825V183.575H56.4539V185.08Z" fill="#404040"/>
<path id="objectTertiary_79" opacity="0.2" d="M118.901 196.82H121.675V183.576H118.901V196.82Z" fill="#404040"/>
<path id="objectTertiary_80" opacity="0.2" d="M112.541 196.82H115.314V183.576H112.541V196.82Z" fill="#404040"/>
<path id="objectTertiary_81" opacity="0.2" d="M106.173 196.82H108.946V183.576H106.173V196.82Z" fill="#404040"/>
<path id="objectTertiary_82" opacity="0.2" d="M99.7987 196.82H102.572V183.576H99.7987V196.82Z" fill="#404040"/>
<path id="objectTertiary_83" opacity="0.2" d="M93.4501 196.82H96.2236V183.576H93.4501V196.82Z" fill="#404040"/>
<path id="objectTertiary_84" opacity="0.2" d="M87.0751 196.82H89.8486V183.576H87.0751V196.82Z" fill="#404040"/>
<path id="objectTertiary_85" opacity="0.2" d="M80.7079 196.82H83.4814V183.576H80.7079V196.82Z" fill="#404040"/>
<path id="objectTertiary_86" opacity="0.2" d="M74.3465 196.82H77.1201V183.576H74.3465V196.82Z" fill="#404040"/>
<path id="objectTertiary_87" opacity="0.2" d="M67.9794 196.82H70.7529V183.576H67.9794V196.82Z" fill="#404040"/>
<path id="objectTertiary_88" opacity="0.2" d="M61.6044 196.82H64.3779V183.576H61.6044V196.82Z" fill="#404040"/>
<path id="backgroundWhite_2" opacity="0.2" d="M218.641 245.699V271.686L228.961 245.699H218.641Z" fill="#FDFDFD"/>
<path id="backgroundWhite_3" opacity="0.2" d="M244.4 221.818V247.798L254.728 221.818H244.4Z" fill="#FDFDFD"/>
<path id="backgroundWhite_4" opacity="0.2" d="M270.655 238.051V261.178L280.983 238.051H270.655Z" fill="#FDFDFD"/>
<path id="skinTone" d="M170.586 285.94L165.046 284.894L165.985 271.793L171.525 272.832L170.586 285.94Z" fill="#FECCAF"/>
<path id="skinTone_2" d="M207.86 285.789H202.22L200.822 272.738H206.455L207.86 285.789Z" fill="#FECCAF"/>
<path id="shoesColor" d="M201.768 285.137H208.634C208.746 285.136 208.855 285.174 208.943 285.245C209.03 285.315 209.091 285.414 209.114 285.524L210.232 290.541C210.258 290.663 210.256 290.789 210.226 290.91C210.196 291.031 210.14 291.144 210.061 291.24C209.982 291.337 209.882 291.414 209.769 291.467C209.656 291.519 209.532 291.546 209.408 291.544C207.193 291.501 205.58 291.372 202.8 291.372C201.087 291.372 195.92 291.551 193.554 291.551C191.189 291.551 190.881 289.215 191.849 289C196.192 288.054 199.46 286.742 200.85 285.488C201.103 285.263 201.429 285.138 201.768 285.137Z" fill="#171717"/>
<path id="shoesColor_2" d="M165.155 283.682L171.226 284.722C171.335 284.743 171.435 284.801 171.509 284.885C171.583 284.969 171.627 285.076 171.634 285.187L171.878 290.312C171.884 290.436 171.862 290.559 171.814 290.673C171.766 290.788 171.693 290.889 171.6 290.971C171.507 291.053 171.396 291.113 171.277 291.147C171.158 291.18 171.032 291.186 170.91 291.165C168.76 290.749 165.585 290.075 162.84 289.602C159.622 289.043 158.053 288.642 154.283 287.997C152.004 287.603 152.499 285.13 153.495 285.066C158.003 284.858 159.594 285.546 163.743 283.883C164.185 283.683 164.675 283.613 165.155 283.682Z" fill="#171717"/>
<path id="skinTone_3" d="M184.462 113.326C184.268 113.892 184.118 114.315 183.939 114.76C183.759 115.204 183.58 115.677 183.394 116.129C183.021 117.032 182.627 117.927 182.211 118.809C181.384 120.594 180.453 122.329 179.424 124.005C177.325 127.598 174.587 130.777 171.346 133.386C170.441 134.069 169.483 134.678 168.48 135.207C168.222 135.343 167.957 135.472 167.684 135.587C167.412 135.701 167.168 135.823 166.846 135.952C166.21 136.186 165.556 136.363 164.889 136.482C163.807 136.665 162.711 136.758 161.614 136.762C160.614 136.78 159.614 136.746 158.618 136.662C154.816 136.364 151.054 135.685 147.388 134.633L147.954 130.441C151.537 130.305 155.171 130.19 158.582 129.889C159.435 129.81 160.274 129.71 161.069 129.588C161.797 129.486 162.516 129.327 163.219 129.115C163.448 129.046 163.668 128.955 163.879 128.843C164.115 128.699 164.438 128.563 164.703 128.37C165.288 128.003 165.842 127.589 166.358 127.13C167.502 126.118 168.532 124.986 169.433 123.754C170.414 122.445 171.31 121.073 172.113 119.647C172.952 118.214 173.704 116.688 174.443 115.154C174.801 114.387 175.159 113.606 175.475 112.825L175.955 111.649L176.392 110.553L184.462 113.326Z" fill="#FECCAF"/>
<path id="t-shirt1Color" d="M181.744 106.718C192.028 106.718 180.726 128.935 180.726 128.935L167.604 123.632C167.604 123.632 171.187 115.899 173.545 111.448C174.311 109.954 175.492 108.713 176.947 107.874C178.401 107.035 180.067 106.634 181.744 106.718Z" fill="#F2A53D"/>
<path id="shadowColor" opacity="0.2" d="M179.227 113.9C175.465 116.538 172.849 121.454 172.104 125.439L179.6 128.478C180.962 126.442 182.288 124.041 183.75 121.934C184.151 120.838 184.545 119.684 184.889 118.516L179.227 113.9Z" fill="#404040"/>
<path id="skinTone_4" d="M151.178 130.977L146.67 128.426L143.216 134.876C145.211 135.214 147.253 135.162 149.229 134.725L151.178 130.977Z" fill="#FECCAF"/>
<path id="skinTone_5" d="M142.35 128.426L139.842 134.123L143.182 134.905L146.636 128.426H142.35Z" fill="#FECCAF"/>
<path id="shadowColor_2" opacity="0.2" d="M165.981 271.793L165.501 278.551L171.041 279.591L171.521 272.839L165.981 271.793Z" fill="#404040"/>
<path id="shadowColor_3" opacity="0.2" d="M206.456 272.748H200.815L201.546 279.471H207.18L206.456 272.748Z" fill="#404040"/>
<path id="t-shirt1Color_2" d="M209.782 109.175C208.13 115.256 206.932 121.451 206.198 127.709C205.661 132.081 205.345 136.245 205.145 140.029C204.672 148.887 204.872 155.638 204.607 157.946L174.506 155.853C170.414 123.796 178.233 107.276 178.233 107.276C180.602 106.836 182.995 106.539 185.4 106.387C185.909 106.387 186.432 106.337 186.955 106.33C191.231 106.38 195.5 106.677 199.741 107.219C200.544 107.312 201.361 107.434 202.149 107.556C206.241 108.208 209.782 109.175 209.782 109.175Z" fill="#F2A53D"/>
<path id="shadowColor_4" opacity="0.2" d="M202.196 117.281C202.139 121.894 203.432 126.423 205.916 130.311C206.002 129.458 206.102 128.591 206.21 127.716C206.611 124.434 207.127 121.037 207.808 117.604L202.196 117.281Z" fill="#404040"/>
<path id="skinTone_6" d="M199.543 92.7129C198.454 96.7693 197.121 104.252 199.808 107.197C198.448 108.428 196.84 109.354 195.092 109.912C193.344 110.469 191.496 110.646 189.674 110.429C186.141 110.107 186.141 107.62 187.023 106.301C191.688 105.527 191.803 102.116 191.23 98.8692L199.543 92.7129Z" fill="#FECCAF"/>
<path id="skinTone_7" opacity="0.2" d="M196.151 95.2285L191.228 98.8908C191.376 99.6489 191.455 100.419 191.464 101.191C193.234 101.055 195.764 99.2993 196.094 97.4789C196.254 96.739 196.273 95.9756 196.151 95.2285Z" fill="#FECCAF"/>
<path id="hairColor" d="M187.601 79.6572C185.451 80.5101 184.655 88.8308 189.034 88.0138C193.413 87.1967 191.93 77.9587 187.601 79.6572Z" fill="#171717"/>
<path id="skinTone_8" d="M201.797 87.9855C200.041 93.2961 199.289 96.4925 195.834 98.5494C190.631 101.638 184.618 97.4099 184.747 91.6836C184.862 86.5234 187.707 78.7044 193.562 77.9447C194.852 77.7717 196.164 77.9313 197.375 78.4082C198.585 78.885 199.654 79.6634 200.479 80.6695C201.304 81.6755 201.858 82.8757 202.089 84.1561C202.32 85.4366 202.219 86.7547 201.797 87.9855Z" fill="#FECCAF"/>
<path id="hairColor_2" d="M199.809 91.6404C197.58 91.6834 195.752 84.9322 200.246 83.0402C196.705 82.6316 185.833 83.2265 183.884 78.3674C181.934 73.5083 189.496 72.7557 192.068 74.5833C191.251 71.9172 194.577 67.9754 200.554 71.5589C206.531 75.1423 206.459 79.5642 205.9 80.8758C208.566 81.5925 209.09 87.5266 206.144 88.3221C207.871 90.7087 206.381 95.747 201.722 94.672C201.564 97.596 198.296 96.3132 198.497 94.0699C198.698 91.8267 199.809 91.6404 199.809 91.6404Z" fill="#171717"/>
<path id="faceDetails" d="M189.875 92.9388C190.504 93.1261 191.17 93.1588 191.815 93.034C192.46 92.9093 193.066 92.6308 193.58 92.2222C193.602 92.1953 193.613 92.1615 193.612 92.1269C193.611 92.0923 193.597 92.0593 193.574 92.0339C193.55 92.0086 193.518 91.9927 193.484 91.9891C193.449 91.9855 193.415 91.9944 193.387 92.0143C192.909 92.3952 192.35 92.6586 191.752 92.7831C191.154 92.9076 190.536 92.8897 189.946 92.731C189.928 92.7268 189.909 92.7262 189.89 92.7293C189.872 92.7324 189.854 92.7391 189.838 92.7491C189.822 92.7591 189.808 92.7721 189.797 92.7875C189.786 92.8028 189.779 92.8202 189.774 92.8385C189.78 92.8628 189.793 92.8851 189.81 92.9028C189.828 92.9205 189.85 92.933 189.875 92.9388Z" fill="#171717"/>
<path id="skinTone_9" d="M202.914 93.6182C201.885 94.5799 200.517 95.0952 199.109 95.0516C197.245 94.9799 196.887 93.1738 197.883 91.7118C198.786 90.4003 200.836 88.8451 202.47 89.6478C204.104 90.4504 204.161 92.4428 202.914 93.6182Z" fill="#FECCAF"/>
<path id="pantsPrimary" d="M163.632 276.364L172.949 278.564C172.949 278.564 176.246 242.264 179.077 222.319C179.829 217.03 180.99 209.591 182.761 201.664C184.989 191.673 187.777 180.88 190.085 172.423C192.5 163.515 194.342 157.208 194.342 157.208L174.576 155.832C174.576 155.832 163.876 202.481 162.744 219.617C161.532 237.491 163.632 276.364 163.632 276.364Z" fill="#595959"/>
<path id="shadowColor_5" opacity="0.2" d="M182.707 201.665C184.936 191.674 187.724 180.881 190.032 172.424L187.975 168.002C183.094 173.829 181.776 191.868 182.707 201.665Z" fill="#404040"/>
<path id="pantsPrimary_2" d="M185.215 156.576C185.215 156.576 187.365 204.823 189.73 221.164C192.332 239.081 198.947 278.169 198.947 278.169H209.274C209.274 278.169 206.407 240.994 204.465 223.472C202.25 203.505 204.616 157.931 204.616 157.931L185.215 156.576Z" fill="#595959"/>
<path id="pantsSecondary" d="M197.709 278.392H209.864L210.402 274.758L196.985 274.521L197.709 278.392Z" fill="#404040"/>
<path id="pantsSecondary_2" d="M163.036 276.99L173.621 278.982L174.818 275.291L162.749 272.998L163.036 276.99Z" fill="#404040"/>
<path id="faceDetails_2" d="M193.635 87.5617C193.513 87.9989 193.191 88.2784 192.919 88.221C192.646 88.1637 192.489 87.7265 192.603 87.2822C192.718 86.8378 193.048 86.5655 193.32 86.6228C193.592 86.6802 193.75 87.1173 193.635 87.5617Z" fill="#171717"/>
<path id="faceDetails_3" d="M188.661 86.2497C188.547 86.694 188.217 86.9664 187.945 86.909C187.672 86.8517 187.522 86.4145 187.636 85.9773C187.751 85.5402 188.081 85.2606 188.353 85.318C188.625 85.3753 188.776 85.8125 188.661 86.2497Z" fill="#171717"/>
<path id="noseColor" d="M189.763 86.668C188.884 87.8718 187.845 88.9497 186.674 89.8716C187.254 90.8032 188.752 90.7244 188.752 90.7244L189.763 86.668Z" fill="#FEB084"/>
<path id="hairColor_3" d="M195.177 86.1353C195.127 86.1322 195.079 86.1151 195.038 86.0859C194.998 86.0568 194.966 86.0167 194.947 85.9705C194.826 85.6573 194.634 85.3769 194.385 85.1517C194.136 84.9264 193.838 84.7626 193.514 84.6733C193.445 84.6593 193.385 84.6196 193.345 84.5622C193.305 84.5048 193.288 84.4342 193.299 84.3651C193.305 84.33 193.318 84.2964 193.337 84.2664C193.357 84.2365 193.382 84.2107 193.411 84.1906C193.44 84.1705 193.474 84.1566 193.509 84.1496C193.544 84.1427 193.58 84.1428 193.614 84.1501C194.026 84.2532 194.406 84.4544 194.723 84.7364C195.04 85.0185 195.284 85.373 195.435 85.7698C195.449 85.8017 195.456 85.8361 195.456 85.8709C195.457 85.9057 195.45 85.9402 195.437 85.9724C195.423 86.0045 195.403 86.0336 195.378 86.0579C195.353 86.0822 195.324 86.1012 195.291 86.1138C195.256 86.1326 195.216 86.1401 195.177 86.1353Z" fill="#171717"/>
<path id="hairColor_4" d="M186.562 83.7548C186.534 83.7548 186.506 83.749 186.48 83.7379C186.454 83.7269 186.431 83.7106 186.412 83.6903C186.386 83.6662 186.366 83.6372 186.353 83.6052C186.339 83.5732 186.332 83.5387 186.332 83.5039C186.332 83.4691 186.339 83.4346 186.353 83.4026C186.366 83.3706 186.386 83.3417 186.412 83.3176C186.68 82.9893 187.023 82.7301 187.412 82.5618C187.801 82.3935 188.225 82.3208 188.648 82.3501C188.718 82.3596 188.782 82.3966 188.825 82.4531C188.868 82.5095 188.886 82.5807 188.877 82.6511C188.867 82.7214 188.83 82.7851 188.774 82.8281C188.718 82.8711 188.646 82.8899 188.576 82.8804C188.242 82.8644 187.908 82.9266 187.602 83.0623C187.296 83.1979 187.026 83.4031 186.813 83.6616C186.784 83.6992 186.745 83.7279 186.701 83.7444C186.657 83.7609 186.608 83.7645 186.562 83.7548Z" fill="#171717"/>
<path id="shoesColor_3" d="M199.91 286.124C199.524 286.151 199.14 286.048 198.82 285.83C198.717 285.744 198.638 285.633 198.59 285.508C198.542 285.382 198.528 285.246 198.548 285.113C198.547 285.035 198.568 284.958 198.609 284.891C198.649 284.824 198.707 284.769 198.777 284.734C199.401 284.411 201.214 285.536 201.422 285.658C201.444 285.672 201.462 285.693 201.472 285.717C201.482 285.742 201.485 285.769 201.479 285.794C201.478 285.821 201.467 285.847 201.448 285.866C201.43 285.886 201.405 285.899 201.379 285.902C200.899 286.031 200.406 286.105 199.91 286.124ZM199.071 284.956C199.014 284.943 198.956 284.943 198.899 284.956C198.872 284.972 198.849 284.995 198.834 285.023C198.819 285.05 198.811 285.082 198.813 285.113C198.8 285.203 198.809 285.295 198.841 285.38C198.872 285.465 198.924 285.541 198.992 285.601C199.622 285.888 200.337 285.924 200.992 285.701C200.403 285.331 199.749 285.078 199.064 284.956H199.071Z" fill="#171717"/>
<path id="shoesColor_4" d="M201.349 285.947H201.285C200.704 285.624 199.572 284.392 199.694 283.761C199.714 283.664 199.767 283.576 199.844 283.514C199.921 283.451 200.017 283.417 200.117 283.417C200.219 283.403 200.323 283.411 200.422 283.44C200.521 283.47 200.612 283.521 200.69 283.589C201.342 284.119 201.478 285.739 201.485 285.818C201.486 285.842 201.48 285.866 201.469 285.887C201.457 285.908 201.441 285.927 201.421 285.94C201.398 285.949 201.373 285.952 201.349 285.947ZM200.21 283.661H200.152C199.98 283.661 199.966 283.761 199.959 283.79C199.887 284.162 200.604 285.094 201.184 285.538C201.147 284.894 200.914 284.277 200.518 283.768C200.435 283.688 200.325 283.642 200.21 283.639V283.661Z" fill="#171717"/>
<path id="shoesColor_5" d="M164.486 284.348C163.562 284.348 161.935 284.348 161.419 283.668C161.34 283.575 161.287 283.464 161.263 283.345C161.239 283.226 161.246 283.102 161.283 282.987C161.298 282.916 161.331 282.851 161.379 282.797C161.427 282.743 161.487 282.702 161.555 282.679C162.272 282.428 164.336 283.933 164.565 284.112C164.587 284.129 164.603 284.153 164.611 284.18C164.618 284.207 164.617 284.236 164.608 284.262C164.6 284.288 164.584 284.311 164.562 284.326C164.54 284.342 164.513 284.35 164.486 284.348ZM161.663 282.915C161.635 282.922 161.609 282.937 161.59 282.959C161.571 282.981 161.559 283.008 161.555 283.037C161.532 283.113 161.528 283.195 161.543 283.273C161.557 283.352 161.591 283.426 161.641 283.488C161.928 283.854 162.831 284.062 164.092 284.069C163.239 283.51 162.093 282.836 161.663 282.922V282.915Z" fill="#171717"/>
<path id="shoesColor_6" d="M164.488 284.349C164.456 284.362 164.42 284.362 164.388 284.349C163.772 283.933 162.653 282.507 162.861 281.898C162.912 281.755 163.048 281.59 163.413 281.611C163.551 281.615 163.686 281.649 163.809 281.71C163.933 281.77 164.042 281.856 164.13 281.962C164.739 282.679 164.632 284.184 164.624 284.249C164.624 284.273 164.617 284.296 164.605 284.316C164.592 284.336 164.574 284.353 164.553 284.363L164.488 284.349ZM163.241 281.862C163.212 281.865 163.185 281.875 163.162 281.893C163.139 281.911 163.122 281.935 163.112 281.962C162.99 282.328 163.729 283.396 164.338 283.955C164.388 283.313 164.235 282.671 163.901 282.12C163.839 282.044 163.763 281.981 163.677 281.936C163.591 281.89 163.496 281.863 163.399 281.855L163.241 281.862Z" fill="#171717"/>
<path id="objectPrimary_9" d="M184.217 134.347L181.931 132.713L144.448 185.181L146.734 186.815C153.701 191.535 162.236 193.345 170.518 191.859C178.801 190.373 186.174 185.709 191.066 178.862C195.957 172.015 197.979 163.528 196.699 155.211C195.42 146.894 190.94 139.407 184.217 134.347Z" fill="#241C4F"/>
<path id="objectPrimary_10" d="M169.705 190.51C187.142 186.918 198.366 169.87 194.774 152.433C191.182 134.995 174.134 123.771 156.697 127.363C139.259 130.955 128.035 148.003 131.627 165.441C135.219 182.878 152.267 194.102 169.705 190.51Z" fill="#241C4F"/>
<path id="objectSecondary" d="M155.589 167.1L160.649 160.019C158.891 157.812 157.952 155.702 157.832 153.691C157.742 151.63 158.373 149.603 159.617 147.957C160.797 146.202 162.619 144.98 164.691 144.553C166.831 144.146 169.047 144.558 170.898 145.707L172.116 143.994L174.567 145.75L173.342 147.456C174.842 148.713 175.886 150.432 176.309 152.344C176.629 154.221 176.327 156.151 175.449 157.84L170.776 155.339C171.117 154.697 171.286 153.978 171.269 153.251C171.251 152.525 171.047 151.815 170.675 151.19L165.96 157.797C168.138 160.459 169.302 162.724 169.45 164.592C169.558 166.585 168.942 168.55 167.716 170.124C166.42 172.054 164.444 173.423 162.183 173.959C159.798 174.447 157.317 174.053 155.202 172.848L153.984 174.561L151.533 172.812L152.694 171.185C151.023 169.75 149.897 167.784 149.505 165.617C149.205 163.256 149.678 160.863 150.852 158.794L155.604 161.474C155.155 162.428 154.931 163.473 154.951 164.527C154.96 165.423 155.179 166.304 155.589 167.1ZM168.26 149.362C167.478 149.108 166.635 149.108 165.852 149.362C165.096 149.603 164.44 150.083 163.982 150.731C163.557 151.33 163.332 152.047 163.337 152.781C163.346 153.637 163.594 154.473 164.053 155.196L168.26 149.362ZM157.868 169.085C158.759 169.518 159.774 169.625 160.735 169.386C161.698 169.144 162.541 168.561 163.107 167.745C163.626 167.048 163.881 166.19 163.824 165.323C163.687 164.273 163.237 163.289 162.534 162.499L157.868 169.085Z" fill="#CAC5E8"/>
<path id="objectTertiary_89" opacity="0.1" d="M189.314 156.225C187.814 149.711 183.886 144.014 178.33 140.296C172.775 136.578 166.011 135.119 159.417 136.216C152.823 137.313 146.895 140.883 142.842 146.199C138.79 151.515 136.917 158.176 137.606 164.825C136.801 161.332 136.72 157.712 137.368 154.186C138.016 150.66 139.378 147.305 141.372 144.326C143.366 141.347 145.948 138.808 148.96 136.865C151.973 134.922 155.351 133.616 158.887 133.028C162.423 132.44 166.041 132.582 169.52 133.445C172.999 134.309 176.265 135.875 179.115 138.048C181.966 140.222 184.341 142.956 186.096 146.082C187.85 149.208 188.945 152.66 189.314 156.225Z" fill="#404040"/>
<path id="skinTone_10" d="M210.511 112.258C211.227 113.168 211.822 113.985 212.424 114.874C213.026 115.762 213.614 116.615 214.187 117.497C215.327 119.274 216.409 121.08 217.412 122.972C218.416 124.864 219.347 126.778 220.193 128.777L220.81 130.282L221.369 131.838C221.555 132.354 221.713 132.898 221.877 133.429L222.114 134.231L222.178 134.432L222.286 134.862C222.354 135.162 222.401 135.466 222.429 135.772C222.497 136.782 222.363 137.796 222.035 138.754C221.787 139.474 221.463 140.166 221.068 140.818C220.412 141.883 219.653 142.881 218.803 143.799C217.293 145.406 215.651 146.882 213.894 148.214C210.558 150.767 207.004 153.021 203.272 154.951L200.95 151.403C203.953 148.845 206.956 146.15 209.672 143.419C210.992 142.114 212.218 140.718 213.342 139.241C213.816 138.621 214.229 137.956 214.574 137.256C214.679 137.026 214.761 136.785 214.818 136.539C214.818 136.346 214.818 136.381 214.818 136.539C214.808 136.591 214.808 136.645 214.818 136.697C214.818 136.697 214.818 136.776 214.818 136.761L214.754 136.604L214.503 135.966C214.331 135.543 214.18 135.12 213.98 134.697L213.406 133.429L212.797 132.16C211.944 130.469 211.034 128.792 210.045 127.143C209.056 125.495 208.031 123.839 206.963 122.213C206.44 121.403 205.895 120.593 205.351 119.79L203.717 117.461L210.511 112.258Z" fill="#FECCAF"/>
<path id="t-shirt1Color_3" d="M209.782 109.177C215.064 110.238 219.701 123.16 219.701 123.16L208.678 132.14C208.678 132.14 205.095 125.575 202.171 119.24C199.024 112.338 203.382 107.887 209.782 109.177Z" fill="#F2A53D"/>
<path id="skinTone_11" d="M202.255 150.916L196.564 151.532L200.255 157.717C200.255 157.717 204.986 156.112 204.412 153.51L202.255 150.916Z" fill="#FECCAF"/>
<path id="skinTone_12" d="M193.176 154.801L196.465 159.768L200.257 157.711L196.566 151.533L193.176 154.801Z" fill="#FECCAF"/>
</g>
</g>
</svg>
