<svg width="46" height="46" viewBox="0 0 46 46" fill="none" xmlns="http://www.w3.org/2000/svg">
<g clip-path="url(#clip0_1427_3583)">
<path fill-rule="evenodd" clip-rule="evenodd" d="M6.70801 7.65234C5.1202 7.65234 3.83301 8.93953 3.83301 10.5273V18.194H5.74964V10.5273C5.74964 9.99807 6.17874 9.56898 6.70801 9.56898H29.708V7.65234H6.70801Z" fill="black"/>
<path fill-rule="evenodd" clip-rule="evenodd" d="M6.70801 36.4011C6.17874 36.4011 5.74964 35.972 5.74964 35.4427V25.8594H3.83301V35.4427C3.83301 37.0306 5.1202 38.3177 6.70801 38.3177H16.2914V36.4011H6.70801Z" fill="black"/>
<path fill-rule="evenodd" clip-rule="evenodd" d="M7.11158 15.6009L30.3857 38.875C30.7598 39.2492 30.7598 39.8558 30.3856 40.2301L24.9097 45.706C24.73 45.8857 24.4864 45.9866 24.2322 45.9867C23.9781 45.9867 23.7344 45.8858 23.5547 45.706L0.280582 22.432C-0.0935273 22.0577 -0.0935273 21.451 0.280582 21.0768L5.75647 15.6009C6.13076 15.2268 6.73738 15.2268 7.11158 15.6009ZM2.31321 21.7544L24.2322 43.6734L28.3531 39.5526L6.43407 17.6335L2.31321 21.7544Z" fill="black"/>
<path fill-rule="evenodd" clip-rule="evenodd" d="M27.791 36.4023H42.166C44.2831 36.4023 45.9994 38.1185 45.9994 40.2356C45.9994 42.3528 44.2831 44.069 42.166 44.069H39.291C38.7617 44.069 38.3327 43.6399 38.3327 43.1106V38.319H27.791V36.4023ZM40.2494 42.1523H42.166C43.2246 42.1523 44.0827 41.2942 44.0827 40.2356C44.0827 39.1771 43.2246 38.319 42.166 38.319H40.2494V42.1523Z" fill="black"/>
<path fill-rule="evenodd" clip-rule="evenodd" d="M42.1666 7.65234H37.375V9.56898H42.1666C43.2252 9.56898 44.0833 10.4271 44.0833 11.4856V40.2356H45.9999V11.4856C46 9.36854 44.2837 7.65234 42.1666 7.65234Z" fill="black"/>
<path fill-rule="evenodd" clip-rule="evenodd" d="M14.6553 29.9768L17.5305 27.1016L18.8858 28.4569L16.0105 31.3321L14.6553 29.9768Z" fill="black"/>
<path fill-rule="evenodd" clip-rule="evenodd" d="M10.8223 26.1408L13.6975 23.2656L15.0528 24.6209L12.1775 27.4961L10.8223 26.1408Z" fill="black"/>
<path fill-rule="evenodd" clip-rule="evenodd" d="M18.4873 33.8088L21.3625 30.9336L22.7178 32.2888L19.8426 35.164L18.4873 33.8088Z" fill="black"/>
<path fill-rule="evenodd" clip-rule="evenodd" d="M22.3223 37.6447L25.1975 34.7695L26.5528 36.1247L23.6775 39L22.3223 37.6447Z" fill="black"/>
<path fill-rule="evenodd" clip-rule="evenodd" d="M6.98633 22.3088L9.86157 19.4336L11.2168 20.7888L8.34158 23.664L6.98633 22.3088Z" fill="black"/>
<path fill-rule="evenodd" clip-rule="evenodd" d="M40.0121 0.817952L41.3366 2.14234C42.4425 3.2475 42.4431 5.03998 41.338 6.14586L41.3366 6.14721L26.7641 20.7197C26.5845 20.8994 26.3408 21.0004 26.0866 21.0005C25.8324 21.0012 25.5884 20.9001 25.4091 20.7197L21.4349 16.7455C21.0608 16.3712 21.0608 15.7646 21.4349 15.3904L36.0073 0.817952C37.1279 -0.251817 38.8915 -0.251817 40.0121 0.817952ZM26.0866 18.687L39.9825 4.7912C40.34 4.43389 40.3402 3.8544 39.9829 3.49691L38.6571 2.17297C38.2952 1.82716 37.7253 1.82716 37.3634 2.17297L23.4675 16.0679L26.0866 18.687Z" fill="black"/>
<path fill-rule="evenodd" clip-rule="evenodd" d="M25.7788 19.1302L21.6426 20.5112L23.0236 16.3683L21.2028 15.7617L19.2152 21.7234C19.1826 21.8212 19.166 21.9235 19.166 22.0265C19.1661 22.5558 19.5953 22.9848 20.1246 22.9846C20.226 22.9849 20.3269 22.9694 20.4236 22.9386L26.3853 20.951L25.7788 19.1302Z" fill="black"/>
<path fill-rule="evenodd" clip-rule="evenodd" d="M33.3574 4.8201L34.7127 3.46484L38.687 7.43919L37.3318 8.79444L33.3574 4.8201Z" fill="black"/>
<path d="M34.5 21.0703H20.125V22.987H34.5V21.0703Z" fill="black"/>
<path d="M38.3327 21.0703H36.416V22.987H38.3327V21.0703Z" fill="black"/>
<path d="M42.1666 21.0703H40.25V22.987H42.1666V21.0703Z" fill="black"/>
</g>
<defs>
<clipPath id="clip0_1427_3583">
<rect width="46" height="46" fill="white"/>
</clipPath>
</defs>
</svg>
