<svg width="70" height="49" viewBox="0 0 70 49" fill="none" xmlns="http://www.w3.org/2000/svg">
<g clip-path="url(#clip0_1427_3600)">
<path fill-rule="evenodd" clip-rule="evenodd" d="M24.6443 33.1779C24.6443 39.1533 19.783 44.0145 13.8078 44.0145C7.83246 44.0145 2.97129 39.1533 2.97129 33.1779C2.97129 27.2031 7.83246 22.3418 13.8078 22.3418C19.783 22.3418 24.6443 27.2031 24.6443 33.1779ZM0.563477 33.1779C0.563477 40.4809 6.50486 46.4227 13.8078 46.4227C21.1107 46.4227 27.0521 40.4809 27.0521 33.1779C27.0521 25.875 21.1107 19.9336 13.8078 19.9336C6.50486 19.9336 0.563477 25.875 0.563477 33.1779Z" fill="black"/>
<path fill-rule="evenodd" clip-rule="evenodd" d="M12.3632 25.9544V27.3652C10.9617 27.8622 9.95494 29.2005 9.95494 30.7704C9.95494 32.7619 11.5752 34.3826 13.567 34.3826C14.2309 34.3826 14.771 34.9228 14.771 35.5865C14.771 36.2504 14.2309 36.7905 13.567 36.7905C13.053 36.7905 12.4973 36.4672 12.0038 35.8796C11.5756 35.3706 10.8164 35.3052 10.3073 35.7329C9.7982 36.161 9.73235 36.9202 10.1606 37.4293C10.8041 38.1948 11.5611 38.7283 12.3632 38.9974V40.4027C12.3632 41.0678 12.9023 41.6065 13.567 41.6065C14.2319 41.6065 14.771 41.0678 14.771 40.4027V38.9917C16.1725 38.4945 17.1793 37.156 17.1793 35.5865C17.1793 33.5946 15.5591 31.9744 13.567 31.9744C12.9033 31.9744 12.3632 31.4343 12.3632 30.7704C12.3632 30.1067 12.9033 29.566 13.567 29.566C13.9938 29.566 14.444 29.7839 14.8693 30.1955C15.3473 30.6581 16.1095 30.6453 16.5719 30.1678C17.0343 29.6898 17.0217 28.9276 16.5442 28.4652C15.9331 27.8739 15.3214 27.5393 14.771 27.3569V25.9544C14.771 25.2891 14.2319 24.75 13.567 24.75C12.9023 24.75 12.3632 25.2891 12.3632 25.9544Z" fill="black"/>
<mask id="mask0_1427_3600" style="mask-type:alpha" maskUnits="userSpaceOnUse" x="0" y="0" width="70" height="49">
<path fill-rule="evenodd" clip-rule="evenodd" d="M0.563477 48.9911H69.0762V0H0.563477V48.9911Z" fill="black"/>
</mask>
<g mask="url(#mask0_1427_3600)">
<path fill-rule="evenodd" clip-rule="evenodd" d="M32.3727 46.735H65.723V44.5782H32.3727V46.735ZM32.3492 42.2724H34.5201V34.5634H32.3492V42.2724ZM29.1317 14.8958C29.3668 15.2185 29.8308 15.4237 30.2334 15.5592C30.546 15.6643 30.9223 15.5805 31.2703 15.5805C31.5929 15.5806 31.9155 15.5805 32.2892 15.5805V16.6635H8.84772C8.98484 16.4375 9.07296 16.28 9.17263 16.1302C11.409 12.7727 13.6402 9.41175 15.8984 6.06889C16.06 5.8296 16.4205 5.57986 16.6895 5.57889C24.6467 5.553 32.604 5.55801 40.5614 5.55926C40.6666 5.55926 40.7719 5.57694 41.0305 5.60005C40.6945 5.84352 40.4827 6.00388 40.2641 6.15422C36.7484 8.57123 33.231 10.9855 29.7164 13.4039C29.0397 13.8695 28.7769 14.4093 29.1317 14.8958ZM34.6012 17.7791H63.4972V15.6249H34.6012V17.7791ZM43.5106 42.2738H54.565V25.6287H43.5106V42.2738ZM61.281 34.2648C61.3375 36.6761 61.2956 39.0897 61.2956 41.5024V42.2863H56.8254V41.5009C56.8254 35.9798 56.8256 30.4585 56.8249 24.9372C56.8248 23.7392 56.4863 23.3925 55.3132 23.3922C51.1142 23.3911 46.9153 23.3908 42.7164 23.3925C41.6189 23.3929 41.2513 23.7564 41.251 24.844C41.2493 30.3652 41.2502 35.8864 41.2502 41.4076V42.2774H36.7799V41.1781C36.7799 38.7886 36.78 36.3992 36.7798 34.0097C36.7798 32.5789 36.5167 32.3141 35.0831 32.3009C34.9445 32.2996 34.8058 32.3007 34.6098 32.3007V20.0886H63.4732V32.2616C63.3595 32.2783 63.2909 32.3017 63.2249 32.296C61.6388 32.158 61.2427 32.6319 61.281 34.2648ZM63.5523 42.2985H65.7051V34.5603H63.5523V42.2985ZM49.074 2.79675C49.3757 2.58947 49.5938 2.45834 49.9779 2.73981C54.7081 6.20712 59.4563 9.64993 64.1992 13.1C64.2547 13.1405 64.3004 13.1945 64.4515 13.3375H33.7586C34.005 13.1525 34.1395 13.0433 34.282 12.9456C39.2129 9.56292 44.1454 6.18262 49.074 2.79675ZM68.4924 13.4927C68.3594 13.3995 68.2303 13.301 68.099 13.2055C62.3054 8.99107 56.5105 4.7786 50.7194 0.560704C49.7138 -0.17179 49.543 -0.186407 48.5115 0.515741C47.3617 1.29849 46.2003 2.06523 45.069 2.87373C44.595 3.21269 44.1192 3.35816 43.5316 3.35718C34.3696 3.34159 25.2073 3.34883 16.0453 3.34034C15.4535 3.33978 14.9699 3.43778 14.6107 3.97915C11.7146 8.3446 8.80457 12.7009 5.89589 17.058C5.61831 17.4738 5.43554 17.9538 5.78814 18.3385C6.05152 18.626 6.49586 18.843 6.88647 18.8966C7.54101 18.9865 8.21684 18.9212 8.95477 18.9212V20.8773C9.66958 20.589 10.4432 20.4345 11.2193 20.4146V18.9708H32.3114V23.3918H31.4716C28.3601 23.3918 25.2488 23.3919 22.1373 23.3919C22.7246 24.1457 23.3216 24.8779 23.8417 25.6572H32.2914V32.2618C32.1775 32.2783 32.1089 32.3017 32.0429 32.296C30.4556 32.1582 30.0778 32.6334 30.0981 34.2648C30.1468 38.1614 30.1138 42.059 30.1138 45.9563V46.7406H15.6786V44.4615C14.9318 44.6118 14.1721 44.6796 13.4093 44.6743V45.8288V46.7201H11.2193V44.468C10.454 44.3308 9.69575 44.1287 8.95491 43.8718C8.95491 45.0339 8.95477 46.196 8.95491 47.3581C8.95491 48.6865 9.25837 48.9894 10.5893 48.9895C29.1686 48.9897 47.7481 48.9895 66.3276 48.9895C66.4668 48.9895 66.6061 48.9936 66.7451 48.9884C67.525 48.9592 67.9304 48.5541 67.9609 47.775C67.9637 47.7055 67.9616 47.6359 67.9616 47.5663C67.9616 42.9504 67.963 38.3346 67.9606 33.7187C67.9601 32.6774 67.5821 32.3085 66.531 32.3012C66.2843 32.2995 66.0376 32.3009 65.779 32.3009V15.5802C66.4913 15.5802 67.16 15.5741 67.8286 15.5821C68.4036 15.5891 68.8273 15.3569 69.0122 14.8045C69.2012 14.2394 68.9545 13.8163 68.4924 13.4927Z" fill="black"/>
<path fill-rule="evenodd" clip-rule="evenodd" d="M51.2761 35.6238C50.6798 35.6302 50.1688 35.1294 50.1622 34.5319C50.1557 33.9353 50.6563 33.4245 51.254 33.418C51.8506 33.4113 52.3615 33.912 52.3681 34.5099C52.3746 35.1057 51.8732 35.6173 51.2761 35.6238Z" fill="black"/>
</g>
</g>
<defs>
<clipPath id="clip0_1427_3600">
<rect width="70" height="49" fill="white"/>
</clipPath>
</defs>
</svg>
