<svg width="49" height="49" viewBox="0 0 49 49" fill="none" xmlns="http://www.w3.org/2000/svg">
<mask id="mask0_1427_3616" style="mask-type:alpha" maskUnits="userSpaceOnUse" x="0" y="28" width="20" height="21">
<path fill-rule="evenodd" clip-rule="evenodd" d="M0 28.9961H19.9558V48.9523H0V28.9961Z" fill="black"/>
</mask>
<g mask="url(#mask0_1427_3616)">
<path fill-rule="evenodd" clip-rule="evenodd" d="M9.97791 46.9071C5.60356 46.9071 2.04474 43.3483 2.04474 38.974C2.04474 34.5998 5.60356 31.0413 9.97791 31.0413C14.3523 31.0413 17.9111 34.5998 17.9111 38.974C17.9111 43.3483 14.3523 46.9071 9.97791 46.9071ZM9.97791 28.9961C4.47602 28.9961 0 33.4721 0 38.974C0 44.476 4.47602 48.9523 9.97791 48.9523C15.4798 48.9523 19.9558 44.476 19.9558 38.974C19.9558 33.4721 15.4798 28.9961 9.97791 28.9961Z" fill="black"/>
</g>
<path fill-rule="evenodd" clip-rule="evenodd" d="M9.79913 37.9515C9.37542 37.9515 9.03062 37.6068 9.03062 37.183C9.03062 36.7591 9.37542 36.4142 9.79913 36.4142C10.0827 36.4142 10.387 36.5637 10.6794 36.8467C11.0845 37.2385 11.7331 37.228 12.1253 36.823C12.5172 36.418 12.5067 35.7694 12.1017 35.3771C11.7089 34.9971 11.2787 34.7204 10.8215 34.5537V33.6009C10.8215 33.037 10.3629 32.5781 9.79913 32.5781C9.2354 32.5781 8.77675 33.037 8.77675 33.6009V34.5621C7.70162 34.9824 6.98552 36.0244 6.98552 37.183C6.98552 38.7345 8.2477 39.9967 9.79913 39.9967C10.2228 39.9967 10.5676 40.3414 10.5676 40.7652C10.5676 41.1889 10.2228 41.5336 9.79913 41.5336C9.45433 41.5336 9.07595 41.3091 8.73349 40.9014C8.37069 40.4701 7.72437 40.4141 7.29278 40.7768C6.86119 41.1398 6.80529 41.7861 7.16818 42.2175C7.63291 42.7702 8.1875 43.1748 8.77675 43.3919V44.3473C8.77675 44.911 9.2354 45.3697 9.79913 45.3697C10.3629 45.3697 10.8215 44.911 10.8215 44.3473V43.386C11.8966 42.9653 12.6127 41.9234 12.6127 40.7652C12.6127 39.2137 11.3506 37.9515 9.79913 37.9515Z" fill="black"/>
<mask id="mask1_1427_3616" style="mask-type:alpha" maskUnits="userSpaceOnUse" x="19" y="0" width="29" height="29">
<path fill-rule="evenodd" clip-rule="evenodd" d="M19.3994 0.0898438H47.8705V28.5628H19.3994V0.0898438Z" fill="black"/>
</mask>
<g mask="url(#mask1_1427_3616)">
<path fill-rule="evenodd" clip-rule="evenodd" d="M36.2804 17.7272H30.9896C30.4335 17.7272 29.9809 18.1797 29.9809 18.7359V26.5452H24.9438V11.6814C24.9438 11.1252 24.4913 10.6727 23.9351 10.6727H23.2834L33.635 2.39137L43.9864 10.6728L43.3349 10.6727C42.7787 10.6727 42.3262 11.1252 42.3262 11.6814V26.5452H37.2892V18.7359C37.2892 18.1797 36.8366 17.7272 36.2804 17.7272ZM40.8164 5.55254L40.8173 3.87221H42.3262V6.76043L40.8164 5.55254ZM31.9983 26.5452H35.2717V19.7447H31.9983V26.5452ZM47.4927 10.8935L44.3436 8.3743V2.86346C44.3436 2.30717 43.8911 1.8547 43.3349 1.8547H39.8094C39.2532 1.8547 38.8007 2.30681 38.8007 2.86247L38.8 3.93931L34.2653 0.311609C33.8941 0.015907 33.3758 0.015907 33.0046 0.311699L19.7773 10.8936C19.4436 11.1613 19.3145 11.6122 19.4563 12.0155C19.598 12.4191 19.9804 12.6903 20.4079 12.6903H22.9264V27.554C22.9264 28.1103 23.3788 28.5628 23.935 28.5628H43.3348C43.891 28.5628 44.3436 28.1103 44.3436 27.554V12.6903H46.8621C47.2896 12.6903 47.6721 12.4191 47.8137 12.0155C47.9553 11.6122 47.8264 11.1613 47.4927 10.8935Z" fill="black"/>
</g>
<path fill-rule="evenodd" clip-rule="evenodd" d="M3.75855 25.3457C3.79384 25.3905 3.83442 25.4324 3.88074 25.4722C3.88504 25.4761 3.89041 25.4806 3.89041 25.4806C3.89364 25.4838 3.89695 25.4867 3.90698 25.4944L3.91737 25.502C3.9386 25.5182 3.96037 25.5335 3.98241 25.5474L4.00355 25.5603C4.02505 25.5729 4.04664 25.5846 4.07154 25.5967L4.1243 25.6201C4.1441 25.628 4.16399 25.6354 4.18423 25.642L4.20878 25.6493C4.22526 25.6541 4.24174 25.6585 4.26091 25.663L4.29173 25.6694C4.3109 25.673 4.33016 25.6758 4.34888 25.6781L4.37396 25.6812C4.40191 25.6838 4.42968 25.6854 4.45897 25.6854C4.48674 25.6854 4.51442 25.6838 4.5421 25.6812L4.55231 25.6803C4.55787 25.6798 4.56315 25.679 4.56871 25.678C4.58716 25.6756 4.60543 25.673 4.63007 25.6683L4.66071 25.6618C4.67531 25.6584 4.68982 25.6544 4.70756 25.6493C4.71669 25.6467 4.72592 25.644 4.73712 25.6404L4.74733 25.6373C4.757 25.634 4.76668 25.6301 4.77617 25.6263L4.79122 25.6204C4.79803 25.6178 4.80484 25.6152 4.81183 25.6121L4.82849 25.6047C4.83583 25.6013 4.84309 25.5976 4.85035 25.5939L4.88286 25.5777C4.88967 25.5741 4.89621 25.5702 4.90812 25.563C4.9178 25.5573 4.92747 25.5517 4.93706 25.5455C4.95802 25.5322 4.97862 25.5178 4.99941 25.5021L5.0158 25.4901C5.06704 25.4492 5.11478 25.4012 5.15716 25.3477L8.212 21.529C8.36079 21.3431 8.42824 21.1105 8.4019 20.8739C8.37566 20.6373 8.25876 20.4252 8.07297 20.2767C7.88709 20.1278 7.65427 20.0602 7.41796 20.0863C7.18103 20.1126 6.96863 20.2296 6.81984 20.4158L5.35226 22.2501C5.48564 16.1128 10.5197 11.1616 16.6887 11.1616C17.1803 11.1616 17.5802 10.7616 17.5802 10.2701C17.5802 9.7787 17.1803 9.37891 16.6887 9.37891C9.53535 9.37891 3.7005 15.1327 3.56909 22.2551L2.09748 20.4157C1.94833 20.2294 1.73549 20.1124 1.49828 20.0863C1.26206 20.0601 1.0296 20.1279 0.844617 20.2765C0.65874 20.4247 0.541928 20.6365 0.515413 20.873C0.488897 21.11 0.55635 21.3429 0.705321 21.529L3.75855 25.3457Z" fill="black"/>
<path fill-rule="evenodd" clip-rule="evenodd" d="M37.2605 30.3505C37.1838 30.2547 37.0897 30.1771 36.9828 30.1208C36.9788 30.1186 36.9745 30.1165 36.9715 30.1152L36.961 30.1101C36.9382 30.0987 36.9152 30.0881 36.8917 30.0789L36.8805 30.0747C36.8568 30.0657 36.8329 30.0575 36.81 30.051L36.7974 30.0477C36.7733 30.0411 36.7489 30.0354 36.7225 30.0305L36.7124 30.029C36.6879 30.0248 36.6631 30.0214 36.6374 30.0192L36.6185 30.0182C36.5954 30.0165 36.5687 30.0146 36.549 30.0163C36.3752 30.019 36.2077 30.0715 36.0647 30.1682C36.0535 30.1758 36.0426 30.1841 36.0318 30.1925L36.0161 30.2043C36.0091 30.2094 36.0022 30.2145 35.9957 30.22C35.9874 30.227 35.9793 30.2343 35.9713 30.2418L35.9564 30.2554C35.9479 30.2632 35.9393 30.2709 35.9311 30.2792C35.9248 30.2855 35.9187 30.2924 35.9127 30.2992L35.9024 30.3106C35.892 30.322 35.8816 30.3334 35.8749 30.3417L32.8096 34.1727C32.6608 34.3586 32.5934 34.5913 32.6197 34.8279C32.646 35.0644 32.7629 35.2765 32.9487 35.425C33.1061 35.5511 33.3037 35.6205 33.505 35.6205C33.7776 35.6205 34.0316 35.4987 34.2018 35.2863L35.6694 33.4518C35.5354 39.5886 30.5014 44.5394 24.333 44.5394C23.8413 44.5394 23.4414 44.9393 23.4414 45.4309C23.4414 45.9224 23.8413 46.3222 24.333 46.3222C31.4867 46.3222 37.3218 40.5682 37.4527 33.4451L38.9255 35.2863C39.0953 35.4987 39.3492 35.6205 39.622 35.6205C39.8251 35.6205 40.0176 35.5531 40.1788 35.4252C40.3646 35.2769 40.4815 35.0648 40.5077 34.8281C40.5341 34.5914 40.4667 34.3587 40.3182 34.1728L37.2605 30.3505Z" fill="black"/>
</svg>
