<svg width="73" height="49" viewBox="0 0 73 49" fill="none" xmlns="http://www.w3.org/2000/svg">
<g clip-path="url(#clip0_1427_3639)">
<mask id="mask0_1427_3639" style="mask-type:alpha" maskUnits="userSpaceOnUse" x="0" y="0" width="73" height="49">
<path fill-rule="evenodd" clip-rule="evenodd" d="M0 0H72.5217V48.991H0V0Z" fill="black"/>
</mask>
<g mask="url(#mask0_1427_3639)">
<path fill-rule="evenodd" clip-rule="evenodd" d="M35.8181 46.7349H69.1685V44.5781H35.8181V46.7349ZM35.7945 42.2723H37.9655V34.5633H35.7945V42.2723ZM32.577 14.8958C32.8123 15.2185 33.2761 15.4237 33.6787 15.5591C33.9915 15.6642 34.3676 15.5804 34.7156 15.5804C35.0383 15.5805 35.3609 15.5804 35.7345 15.5804V16.6634H12.2931C12.4301 16.4375 12.5182 16.2799 12.618 16.13C14.8544 12.7726 17.0855 9.4117 19.3437 6.06898C19.5053 5.82955 19.866 5.57981 20.1349 5.57898C28.0921 5.55309 36.0494 5.55796 44.0067 5.55921C44.1119 5.55921 44.2172 5.57689 44.4758 5.59986C44.1398 5.84347 43.9281 6.00383 43.7095 6.15417C40.1938 8.57104 36.6763 10.9854 33.1618 13.4038C32.485 13.8694 32.2222 14.4093 32.577 14.8958ZM38.0465 17.7791H66.9425V15.625H38.0465V17.7791ZM46.9559 42.2737H58.0103V25.6286H46.9559V42.2737ZM64.7265 34.2647C64.7828 36.676 64.7411 39.0897 64.7411 41.5024V42.2862H60.2707V41.5008C60.2707 35.9796 60.2709 30.4584 60.2704 24.9372C60.2701 23.7392 59.9316 23.3924 58.7585 23.3921C54.5595 23.391 50.3606 23.3908 46.1617 23.3924C45.0642 23.3928 44.6966 23.7563 44.6963 24.8439C44.6947 30.3652 44.6956 35.8863 44.6956 41.4076V42.2773H40.2252V41.178C40.2252 38.7886 40.2254 36.3991 40.2251 34.0097C40.2251 32.5788 39.962 32.314 38.5285 32.3008C38.3898 32.2996 38.2513 32.3007 38.0552 32.3007V20.0885H66.9187V32.2616C66.8048 32.2783 66.7363 32.3017 66.6702 32.2959C65.0841 32.158 64.6882 32.6317 64.7265 34.2647ZM66.9976 42.2984H69.1504V34.5601H66.9976V42.2984ZM52.5193 2.7967C52.821 2.58942 53.0391 2.45829 53.4232 2.73976C58.1534 6.20707 62.9016 9.64988 67.6445 13.0999C67.7 13.1404 67.7458 13.1944 67.8969 13.3374H37.2041C37.4503 13.1524 37.5849 13.0433 37.7273 12.9455C42.6582 9.56287 47.5907 6.18257 52.5193 2.7967ZM71.9377 13.4926C71.8047 13.3995 71.6757 13.3009 71.5444 13.2054C65.7507 8.99102 59.9558 4.77855 54.1647 0.560653C53.1591 -0.171702 52.9883 -0.186458 51.9568 0.51569C50.807 1.29858 49.6457 2.06518 48.5144 2.87368C48.0403 3.21264 47.5645 3.35811 46.9769 3.35713C37.8149 3.34154 28.6527 3.34892 19.4906 3.34029C18.8989 3.33973 18.4152 3.43773 18.0561 3.9791C15.1599 8.34455 12.25 12.7008 9.34111 17.0579C9.06353 17.4737 8.88091 17.9538 9.23351 18.3385C9.49675 18.6259 9.94122 18.8429 10.3317 18.8965C10.9863 18.9863 11.6621 18.9212 12.4002 18.9212V19.8715V23.3454C13.1477 23.4526 13.9051 23.4641 14.6648 23.4396V18.9707H35.7568V23.3917H34.9169C33.6518 23.3917 32.3866 23.3917 31.1215 23.3917C31.1585 23.442 31.184 23.5043 31.1888 23.5806C31.2329 24.2797 31.3437 24.9656 31.3378 25.657H35.7367V32.2617C35.6228 32.2783 35.5543 32.3017 35.4882 32.2959C33.901 32.1581 33.5232 32.6334 33.5435 34.2647C33.5921 38.1613 33.5593 42.0589 33.5593 45.9562V46.7405H19.124V43.6336C18.3645 43.7128 17.6068 43.8036 16.8547 43.935V45.8287V46.72H14.6648V43.7937C13.9097 43.8026 13.1542 43.7628 12.4002 43.7008C12.4003 44.9198 12.4002 46.139 12.4003 47.358C12.4003 48.6865 12.7036 48.9894 14.0346 48.9895C32.6141 48.9896 51.1934 48.9895 69.7729 48.9895C69.9121 48.9895 70.0515 48.9937 70.1905 48.9884C70.9705 48.9592 71.3757 48.5539 71.4062 47.7749C71.409 47.7055 71.4069 47.6359 71.4069 47.5663C71.4069 42.9502 71.4083 38.3345 71.4059 33.7186C71.4055 32.6775 71.0274 32.3085 69.9763 32.3011C69.7298 32.2994 69.4831 32.3008 69.2243 32.3008V15.5801C69.9366 15.5801 70.6055 15.5739 71.274 15.5821C71.8489 15.589 72.2726 15.3568 72.4575 14.8045C72.6467 14.2393 72.3998 13.8163 71.9377 13.4926Z" fill="black"/>
<path fill-rule="evenodd" clip-rule="evenodd" d="M54.7214 35.6238C54.1251 35.6302 53.6141 35.1294 53.6075 34.5319C53.601 33.9353 54.1016 33.4245 54.6993 33.418C55.2959 33.4113 55.8068 33.912 55.8134 34.5098C55.8199 35.1057 55.3185 35.6173 54.7214 35.6238Z" fill="black"/>
<path fill-rule="evenodd" clip-rule="evenodd" d="M2.17034 42.3691H29.8578V24.9125H2.17034V42.3691ZM30.9431 44.5394H1.0851C0.485824 44.5394 0 44.0536 0 43.4542V23.8274C0 23.228 0.485824 22.7422 1.0851 22.7422H30.9431C31.5424 22.7422 32.0282 23.228 32.0282 23.8274V43.4542C32.0282 44.0536 31.5424 44.5394 30.9431 44.5394Z" fill="black"/>
<path fill-rule="evenodd" clip-rule="evenodd" d="M10.7812 30.8755H7.59414V32.4991H10.7211V34.3512H7.59414V37.442H5.66992V29.0234H10.7812V30.8755Z" fill="black"/>
<path fill-rule="evenodd" clip-rule="evenodd" d="M16.4939 29.0234H18.4181V37.4419H16.4939V34.0985H13.848V37.4419H11.9238V29.0234H13.848V32.2465H16.4939V29.0234Z" fill="black"/>
<path fill-rule="evenodd" clip-rule="evenodd" d="M22.2425 34.3151H24.2149L23.2286 31.2242L22.2425 34.3151ZM25.2131 37.442L24.7921 36.1191H21.6653L21.2444 37.442H19.1396L22.0019 29.0234H24.4554L27.3176 37.442H25.2131Z" fill="black"/>
</g>
</g>
<defs>
<clipPath id="clip0_1427_3639">
<rect width="73" height="49" fill="white"/>
</clipPath>
</defs>
</svg>
