<svg width="72" height="49" viewBox="0 0 72 49" fill="none" xmlns="http://www.w3.org/2000/svg">
<g clip-path="url(#clip0_1427_3630)">
<mask id="mask0_1427_3630" style="mask-type:alpha" maskUnits="userSpaceOnUse" x="0" y="0" width="72" height="49">
<path fill-rule="evenodd" clip-rule="evenodd" d="M0 0H71.3767V48.9269H0V0Z" fill="black"/>
</mask>
<g mask="url(#mask0_1427_3630)">
<path fill-rule="evenodd" clip-rule="evenodd" d="M66.2602 42.7286H68.2544V35.5605H66.2602V42.7286ZM37.3562 42.7046H39.3673V35.5636H37.3562V42.7046ZM39.4424 20.0159H66.2091V18.0205H39.4424V20.0159ZM37.3782 46.8383H68.2711V44.8403H37.3782V46.8383ZM37.3213 21.1198H17.7834V46.8245H19.8119V45.9988C19.812 39.5521 19.8117 33.1055 19.8122 26.6589C19.8123 25.5185 20.1174 25.2153 21.2649 25.2152C26.3577 25.2147 31.4506 25.2151 36.5434 25.2151H37.3213V21.1198ZM67.0932 15.9016C66.9533 15.769 66.9108 15.7191 66.8594 15.6816C62.466 12.4858 58.0676 9.29662 53.686 6.0848C53.3302 5.82407 53.1282 5.94554 52.8488 6.13754C48.2832 9.27393 43.7142 12.4052 39.1467 15.5386C39.0148 15.6291 38.8901 15.7302 38.662 15.9016H67.0932ZM47.6952 42.7056H57.9351V27.287H47.6952V42.7056ZM15.5866 18.9825H37.3007V17.9793C36.9546 17.9793 36.6558 17.9795 36.3569 17.9793C36.0347 17.9793 35.6861 18.0569 35.3964 17.9596C35.0235 17.8341 34.5938 17.6441 34.3759 17.3452C34.0472 16.8945 34.2906 16.3944 34.9176 15.9631C38.1731 13.7229 41.4314 11.4866 44.6881 9.24762C44.8905 9.10836 45.0866 8.95981 45.3979 8.73428C45.1583 8.71288 45.0608 8.6965 44.9634 8.6965C37.5923 8.69534 30.2215 8.6907 22.8506 8.71468C22.6014 8.71558 22.2673 8.94692 22.1176 9.16858C20.0258 12.2651 17.9591 15.3785 15.8875 18.4885C15.7951 18.6273 15.7135 18.7733 15.5866 18.9825ZM37.3027 33.4315V27.3136H21.9141V46.8434H35.2856V46.1169C35.2856 42.5068 35.3162 38.8964 35.2712 35.2869C35.2522 33.7758 35.6023 33.3355 37.0726 33.4632C37.1338 33.4685 37.1972 33.4468 37.3027 33.4315ZM66.1871 33.4313V22.1553H39.4503V33.4676C39.6319 33.4676 39.7603 33.4665 39.8888 33.4677C41.2167 33.48 41.4604 33.7252 41.4604 35.0507C41.4606 37.264 41.4605 39.4774 41.4605 41.6908V42.7091H45.6014V41.9034C45.6015 36.789 45.6006 31.6747 45.6022 26.5603C45.6024 25.5528 45.943 25.2161 46.9596 25.2157C50.849 25.2142 54.7386 25.2144 58.6282 25.2155C59.7148 25.2157 60.0284 25.5369 60.0287 26.6466C60.0292 31.7611 60.0289 36.8755 60.0289 41.9898V42.7174H64.1698V41.9911C64.1698 39.7563 64.2086 37.5205 64.1564 35.2869C64.1208 33.7743 64.4877 33.3354 65.9569 33.4632C66.0181 33.4685 66.0816 33.4468 66.1871 33.4313ZM15.6856 21.0739C15.0021 21.0739 14.376 21.1344 13.7697 21.0511C13.408 21.0015 12.9963 20.8004 12.7524 20.5343C12.4258 20.1777 12.595 19.7331 12.8521 19.348C15.5466 15.3119 18.2421 11.2766 20.9249 7.23282C21.2575 6.73134 21.7056 6.64056 22.2537 6.64108C30.7407 6.64894 39.2278 6.64224 47.7147 6.65668C48.259 6.65758 48.6997 6.52283 49.1389 6.20885C50.1869 5.45992 51.2626 4.74968 52.3277 4.02461C53.2832 3.3742 53.4414 3.38774 54.3729 4.06626C59.7372 7.97336 65.1052 11.8755 70.472 15.7794C70.5936 15.8678 70.7131 15.9591 70.8363 16.0454C71.2644 16.3452 71.4929 16.737 71.3178 17.2606C71.1465 17.7722 70.754 17.9873 70.2214 17.9809C69.6022 17.9734 68.9826 17.9791 68.3228 17.9791V33.4677C68.5625 33.4677 68.791 33.4664 69.0194 33.468C69.9931 33.4748 70.3432 33.8165 70.3437 34.781C70.3459 39.0568 70.3446 43.3326 70.3446 47.6082C70.3446 47.6727 70.3465 47.7373 70.3439 47.8016C70.3156 48.5233 69.9402 48.8986 69.2178 48.9257C69.089 48.9304 68.96 48.9267 68.831 48.9267C51.6205 48.9267 34.4102 48.9268 17.1997 48.9267C15.9668 48.9266 15.6859 48.646 15.6857 47.4154C15.6856 38.9284 15.6857 30.4413 15.6856 21.9543V21.0739Z" fill="black"/>
<path fill-rule="evenodd" clip-rule="evenodd" d="M29.6273 29.3414C31.1092 29.3414 32.5909 29.3369 34.0728 29.3433C34.8575 29.3467 35.2728 29.7132 35.2686 30.3726C35.2645 31.0304 34.8515 31.3869 34.0588 31.3881C31.0951 31.3923 28.1315 31.3919 25.1679 31.3883C24.3678 31.3874 23.9541 31.043 23.9398 30.3909C23.9249 29.7139 24.3545 29.3451 25.1819 29.3427C26.6637 29.3383 28.1454 29.3414 29.6273 29.3414Z" fill="black"/>
<path fill-rule="evenodd" clip-rule="evenodd" d="M54.8883 36.5434C54.3359 36.5495 53.8625 36.0854 53.8565 35.5319C53.8504 34.9793 54.3141 34.5062 54.8678 34.5001C55.4205 34.4939 55.8937 34.9577 55.8998 35.5116C55.9058 36.0635 55.4414 36.5373 54.8883 36.5434Z" fill="black"/>
<path fill-rule="evenodd" clip-rule="evenodd" d="M15.6627 43.2965H9.34178V23.7665H15.5619L15.5511 21.6683C13.265 21.6683 10.9788 21.6681 8.69253 21.6683C7.54516 21.6684 7.24007 21.9715 7.23994 23.1118C7.23943 29.5585 7.23968 36.0053 7.23968 42.4519V43.2775H5.21108V17.5729H14.0371L15.4651 15.4356H3.01421C3.14122 15.2263 3.22272 15.0802 3.31517 14.9415C5.38684 11.8315 7.45361 8.71807 9.54539 5.62166C9.6951 5.4 10.0292 5.16854 10.2782 5.16777C17.6491 5.14378 25.0201 5.14829 32.391 5.14958C32.4885 5.14958 32.5861 5.16583 32.8257 5.18724C32.5144 5.41277 32.3183 5.56144 32.1157 5.70071C31.7011 5.98568 31.2864 6.27065 30.8719 6.55563L34.4741 6.57291C36.4086 5.24604 38.3429 3.91891 40.2765 2.59062C40.5559 2.39862 40.758 2.27715 41.1136 2.53788C42.9802 3.90589 44.85 5.2695 46.7208 6.6317L48.1084 6.63828L49.2739 5.95834C46.7824 4.14599 44.291 2.33324 41.8007 0.519342C40.8692 -0.15905 40.7108 -0.172719 39.7554 0.477692C38.6903 1.20276 37.6145 1.91288 36.5666 2.66193C36.1275 2.97592 35.6868 3.11067 35.1425 3.10977C26.6554 3.09532 18.1685 3.10203 9.68143 3.09416C9.13328 3.09365 8.68531 3.18443 8.35263 3.6859C5.66975 7.72969 2.97436 11.765 0.279878 15.801C0.0227576 16.1862 -0.146551 16.6308 0.180073 16.9872C0.424042 17.2534 0.83577 17.4545 1.19747 17.5042C1.80365 17.5875 2.42969 17.5269 3.11337 17.5269V18.4073C3.11337 26.8944 3.11324 35.3814 3.1135 43.8685C3.1135 45.099 3.3946 45.3796 4.62747 45.3796H15.6734L15.6627 43.2965Z" fill="black"/>
</g>
</g>
<defs>
<clipPath id="clip0_1427_3630">
<rect width="72" height="49" fill="white"/>
</clipPath>
</defs>
</svg>
